0
SECTION
2
ENTITIES
0
LINE
8
CUT
10
0.0000
20
50.4000
30
0.0
11
7.0000
21
95.5967
31
0.0
0
LINE
8
CUT
10
7.0000
20
95.5967
30
0.0
11
14.0000
21
111.3118
31
0.0
0
LINE
8
CUT
10
14.0000
20
111.3118
30
0.0
11
21.0000
21
122.8385
31
0.0
0
LINE
8
CUT
10
21.0000
20
122.8385
30
0.0
11
28.0000
21
132.2447
31
0.0
0
LINE
8
CUT
10
28.0000
20
132.2447
30
0.0
11
35.0000
21
140.3124
31
0.0
0
LINE
8
CUT
10
35.0000
20
140.3124
30
0.0
11
42.0000
21
147.4362
31
0.0
0
LINE
8
CUT
10
42.0000
20
147.4362
30
0.0
11
49.0000
21
153.8481
31
0.0
0
LINE
8
CUT
10
49.0000
20
153.8481
30
0.0
11
56.0000
21
159.6979
31
0.0
0
LINE
8
CUT
10
56.0000
20
159.6979
30
0.0
11
63.0000
21
165.0887
31
0.0
0
LINE
8
CUT
10
63.0000
20
165.0887
30
0.0
11
70.0000
21
170.0954
31
0.0
0
LINE
8
CUT
10
70.0000
20
170.0954
30
0.0
11
77.0000
21
174.7742
31
0.0
0
LINE
8
CUT
10
77.0000
20
174.7742
30
0.0
11
84.0000
21
179.1684
31
0.0
0
LINE
8
CUT
10
84.0000
20
179.1684
30
0.0
11
91.0000
21
183.3125
31
0.0
0
LINE
8
CUT
10
91.0000
20
183.3125
30
0.0
11
98.0000
21
187.2344
31
0.0
0
LINE
8
CUT
10
98.0000
20
187.2344
30
0.0
11
105.0000
21
190.9568
31
0.0
0
LINE
8
CUT
10
105.0000
20
190.9568
30
0.0
11
112.0000
21
194.4990
31
0.0
0
LINE
8
CUT
10
112.0000
20
194.4990
30
0.0
11
119.0000
21
197.8769
31
0.0
0
LINE
8
CUT
10
119.0000
20
197.8769
30
0.0
11
126.0000
21
201.1043
31
0.0
0
LINE
8
CUT
10
126.0000
20
201.1043
30
0.0
11
133.0000
21
204.1931
31
0.0
0
LINE
8
CUT
10
133.0000
20
204.1931
30
0.0
11
140.0000
21
207.1534
31
0.0
0
LINE
8
CUT
10
140.0000
20
207.1534
30
0.0
11
147.0000
21
209.9944
31
0.0
0
LINE
8
CUT
10
147.0000
20
209.9944
30
0.0
11
154.0000
21
212.7239
31
0.0
0
LINE
8
CUT
10
154.0000
20
212.7239
30
0.0
11
161.0000
21
215.3490
31
0.0
0
LINE
8
CUT
10
161.0000
20
215.3490
30
0.0
11
168.0000
21
217.8759
31
0.0
0
LINE
8
CUT
10
168.0000
20
217.8759
30
0.0
11
175.0000
21
220.3102
31
0.0
0
LINE
8
CUT
10
175.0000
20
220.3102
30
0.0
11
182.0000
21
222.6571
31
0.0
0
LINE
8
CUT
10
182.0000
20
222.6571
30
0.0
11
189.0000
21
224.9210
31
0.0
0
LINE
8
CUT
10
189.0000
20
224.9210
30
0.0
11
196.0000
21
227.1062
31
0.0
0
LINE
8
CUT
10
196.0000
20
227.1062
30
0.0
11
203.0000
21
229.2163
31
0.0
0
LINE
8
CUT
10
203.0000
20
229.2163
30
0.0
11
210.0000
21
231.2550
31
0.0
0
LINE
8
CUT
10
210.0000
20
231.2550
30
0.0
11
217.0000
21
233.2253
31
0.0
0
LINE
8
CUT
10
217.0000
20
233.2253
30
0.0
11
224.0000
21
235.1301
31
0.0
0
LINE
8
CUT
10
224.0000
20
235.1301
30
0.0
11
231.0000
21
236.9722
31
0.0
0
LINE
8
CUT
10
231.0000
20
236.9722
30
0.0
11
238.0000
21
238.7540
31
0.0
0
LINE
8
CUT
10
238.0000
20
238.7540
30
0.0
11
245.0000
21
240.4779
31
0.0
0
LINE
8
CUT
10
245.0000
20
240.4779
30
0.0
11
252.0000
21
242.1460
31
0.0
0
LINE
8
CUT
10
252.0000
20
242.1460
30
0.0
11
259.0000
21
243.7602
31
0.0
0
LINE
8
CUT
10
259.0000
20
243.7602
30
0.0
11
266.0000
21
245.3225
31
0.0
0
LINE
8
CUT
10
266.0000
20
245.3225
30
0.0
11
273.0000
21
246.8346
31
0.0
0
LINE
8
CUT
10
273.0000
20
246.8346
30
0.0
11
280.0000
21
248.2981
31
0.0
0
LINE
8
CUT
10
280.0000
20
248.2981
30
0.0
11
287.0000
21
249.7145
31
0.0
0
LINE
8
CUT
10
287.0000
20
249.7145
30
0.0
11
294.0000
21
251.0854
31
0.0
0
LINE
8
CUT
10
294.0000
20
251.0854
30
0.0
11
301.0000
21
252.4120
31
0.0
0
LINE
8
CUT
10
301.0000
20
252.4120
30
0.0
11
308.0000
21
253.6956
31
0.0
0
LINE
8
CUT
10
308.0000
20
253.6956
30
0.0
11
315.0000
21
254.9375
31
0.0
0
LINE
8
CUT
10
315.0000
20
254.9375
30
0.0
11
322.0000
21
256.1387
31
0.0
0
LINE
8
CUT
10
322.0000
20
256.1387
30
0.0
11
329.0000
21
257.3005
31
0.0
0
LINE
8
CUT
10
329.0000
20
257.3005
30
0.0
11
336.0000
21
258.4237
31
0.0
0
LINE
8
CUT
10
336.0000
20
258.4237
30
0.0
11
343.0000
21
259.5093
31
0.0
0
LINE
8
CUT
10
343.0000
20
259.5093
30
0.0
11
350.0000
21
260.5584
31
0.0
0
LINE
8
CUT
10
350.0000
20
260.5584
30
0.0
11
357.0000
21
261.5717
31
0.0
0
LINE
8
CUT
10
357.0000
20
261.5717
30
0.0
11
364.0000
21
262.5502
31
0.0
0
LINE
8
CUT
10
364.0000
20
262.5502
30
0.0
11
371.0000
21
263.4946
31
0.0
0
LINE
8
CUT
10
371.0000
20
263.4946
30
0.0
11
378.0000
21
264.4057
31
0.0
0
LINE
8
CUT
10
378.0000
20
264.4057
30
0.0
11
385.0000
21
265.2843
31
0.0
0
LINE
8
CUT
10
385.0000
20
265.2843
30
0.0
11
392.0000
21
266.1310
31
0.0
0
LINE
8
CUT
10
392.0000
20
266.1310
30
0.0
11
399.0000
21
266.9465
31
0.0
0
LINE
8
CUT
10
399.0000
20
266.9465
30
0.0
11
406.0000
21
267.7315
31
0.0
0
LINE
8
CUT
10
406.0000
20
267.7315
30
0.0
11
413.0000
21
268.4867
31
0.0
0
LINE
8
CUT
10
413.0000
20
268.4867
30
0.0
11
420.0000
21
269.2125
31
0.0
0
LINE
8
CUT
10
420.0000
20
269.2125
30
0.0
11
427.0000
21
269.9096
31
0.0
0
LINE
8
CUT
10
427.0000
20
269.9096
30
0.0
11
434.0000
21
270.5786
31
0.0
0
LINE
8
CUT
10
434.0000
20
270.5786
30
0.0
11
441.0000
21
271.2201
31
0.0
0
LINE
8
CUT
10
441.0000
20
271.2201
30
0.0
11
448.0000
21
271.8344
31
0.0
0
LINE
8
CUT
10
448.0000
20
271.8344
30
0.0
11
455.0000
21
272.4223
31
0.0
0
LINE
8
CUT
10
455.0000
20
272.4223
30
0.0
11
462.0000
21
272.9841
31
0.0
0
LINE
8
CUT
10
462.0000
20
272.9841
30
0.0
11
469.0000
21
273.5203
31
0.0
0
LINE
8
CUT
10
469.0000
20
273.5203
30
0.0
11
476.0000
21
274.0315
31
0.0
0
LINE
8
CUT
10
476.0000
20
274.0315
30
0.0
11
483.0000
21
274.5181
31
0.0
0
LINE
8
CUT
10
483.0000
20
274.5181
30
0.0
11
490.0000
21
274.9805
31
0.0
0
LINE
8
CUT
10
490.0000
20
274.9805
30
0.0
11
497.0000
21
275.4192
31
0.0
0
LINE
8
CUT
10
497.0000
20
275.4192
30
0.0
11
504.0000
21
275.8347
31
0.0
0
LINE
8
CUT
10
504.0000
20
275.8347
30
0.0
11
511.0000
21
276.2273
31
0.0
0
LINE
8
CUT
10
511.0000
20
276.2273
30
0.0
11
518.0000
21
276.5976
31
0.0
0
LINE
8
CUT
10
518.0000
20
276.5976
30
0.0
11
525.0000
21
276.9458
31
0.0
0
LINE
8
CUT
10
525.0000
20
276.9458
30
0.0
11
532.0000
21
277.2726
31
0.0
0
LINE
8
CUT
10
532.0000
20
277.2726
30
0.0
11
539.0000
21
277.5782
31
0.0
0
LINE
8
CUT
10
539.0000
20
277.5782
30
0.0
11
546.0000
21
277.8631
31
0.0
0
LINE
8
CUT
10
546.0000
20
277.8631
30
0.0
11
553.0000
21
278.1278
31
0.0
0
LINE
8
CUT
10
553.0000
20
278.1278
30
0.0
11
560.0000
21
278.3726
31
0.0
0
LINE
8
CUT
10
560.0000
20
278.3726
30
0.0
11
567.0000
21
278.5980
31
0.0
0
LINE
8
CUT
10
567.0000
20
278.5980
30
0.0
11
574.0000
21
278.8044
31
0.0
0
LINE
8
CUT
10
574.0000
20
278.8044
30
0.0
11
581.0000
21
278.9923
31
0.0
0
LINE
8
CUT
10
581.0000
20
278.9923
30
0.0
11
588.0000
21
279.1621
31
0.0
0
LINE
8
CUT
10
588.0000
20
279.1621
30
0.0
11
595.0000
21
279.3144
31
0.0
0
LINE
8
CUT
10
595.0000
20
279.3144
30
0.0
11
602.0000
21
279.4496
31
0.0
0
LINE
8
CUT
10
602.0000
20
279.4496
30
0.0
11
609.0000
21
279.5682
31
0.0
0
LINE
8
CUT
10
609.0000
20
279.5682
30
0.0
11
616.0000
21
279.6707
31
0.0
0
LINE
8
CUT
10
616.0000
20
279.6707
30
0.0
11
623.0000
21
279.7579
31
0.0
0
LINE
8
CUT
10
623.0000
20
279.7579
30
0.0
11
630.0000
21
279.8302
31
0.0
0
LINE
8
CUT
10
630.0000
20
279.8302
30
0.0
11
637.0000
21
279.8884
31
0.0
0
LINE
8
CUT
10
637.0000
20
279.8884
30
0.0
11
644.0000
21
279.9332
31
0.0
0
LINE
8
CUT
10
644.0000
20
279.9332
30
0.0
11
651.0000
21
279.9655
31
0.0
0
LINE
8
CUT
10
651.0000
20
279.9655
30
0.0
11
658.0000
21
279.9864
31
0.0
0
LINE
8
CUT
10
658.0000
20
279.9864
30
0.0
11
665.0000
21
279.9972
31
0.0
0
LINE
8
CUT
10
665.0000
20
279.9972
30
0.0
11
672.0000
21
280.0000
31
0.0
0
LINE
8
CUT
10
672.0000
20
280.0000
30
0.0
11
679.0000
21
279.9803
31
0.0
0
LINE
8
CUT
10
679.0000
20
279.9803
30
0.0
11
686.0000
21
279.9264
31
0.0
0
LINE
8
CUT
10
686.0000
20
279.9264
30
0.0
11
693.0000
21
279.8409
31
0.0
0
LINE
8
CUT
10
693.0000
20
279.8409
30
0.0
11
700.0000
21
279.7251
31
0.0
0
LINE
8
CUT
10
700.0000
20
279.7251
30
0.0
11
707.0000
21
279.5798
31
0.0
0
LINE
8
CUT
10
707.0000
20
279.5798
30
0.0
11
714.0000
21
279.4057
31
0.0
0
LINE
8
CUT
10
714.0000
20
279.4057
30
0.0
11
721.0000
21
279.2031
31
0.0
0
LINE
8
CUT
10
721.0000
20
279.2031
30
0.0
11
728.0000
21
278.9726
31
0.0
0
LINE
8
CUT
10
728.0000
20
278.9726
30
0.0
11
735.0000
21
278.7143
31
0.0
0
LINE
8
CUT
10
735.0000
20
278.7143
30
0.0
11
742.0000
21
278.4286
31
0.0
0
LINE
8
CUT
10
742.0000
20
278.4286
30
0.0
11
749.0000
21
278.1156
31
0.0
0
LINE
8
CUT
10
749.0000
20
278.1156
30
0.0
11
756.0000
21
277.7755
31
0.0
0
LINE
8
CUT
10
756.0000
20
277.7755
30
0.0
11
763.0000
21
277.4084
31
0.0
0
LINE
8
CUT
10
763.0000
20
277.4084
30
0.0
11
770.0000
21
277.0145
31
0.0
0
LINE
8
CUT
10
770.0000
20
277.0145
30
0.0
11
777.0000
21
276.5937
31
0.0
0
LINE
8
CUT
10
777.0000
20
276.5937
30
0.0
11
784.0000
21
276.1463
31
0.0
0
LINE
8
CUT
10
784.0000
20
276.1463
30
0.0
11
791.0000
21
275.6722
31
0.0
0
LINE
8
CUT
10
791.0000
20
275.6722
30
0.0
11
798.0000
21
275.1714
31
0.0
0
LINE
8
CUT
10
798.0000
20
275.1714
30
0.0
11
805.0000
21
274.6439
31
0.0
0
LINE
8
CUT
10
805.0000
20
274.6439
30
0.0
11
812.0000
21
274.0898
31
0.0
0
LINE
8
CUT
10
812.0000
20
274.0898
30
0.0
11
819.0000
21
273.5090
31
0.0
0
LINE
8
CUT
10
819.0000
20
273.5090
30
0.0
11
826.0000
21
272.9014
31
0.0
0
LINE
8
CUT
10
826.0000
20
272.9014
30
0.0
11
833.0000
21
272.2671
31
0.0
0
LINE
8
CUT
10
833.0000
20
272.2671
30
0.0
11
840.0000
21
271.6058
31
0.0
0
LINE
8
CUT
10
840.0000
20
271.6058
30
0.0
11
847.0000
21
270.9176
31
0.0
0
LINE
8
CUT
10
847.0000
20
270.9176
30
0.0
11
854.0000
21
270.2023
31
0.0
0
LINE
8
CUT
10
854.0000
20
270.2023
30
0.0
11
861.0000
21
269.4599
31
0.0
0
LINE
8
CUT
10
861.0000
20
269.4599
30
0.0
11
868.0000
21
268.6901
31
0.0
0
LINE
8
CUT
10
868.0000
20
268.6901
30
0.0
11
875.0000
21
267.8929
31
0.0
0
LINE
8
CUT
10
875.0000
20
267.8929
30
0.0
11
882.0000
21
267.0680
31
0.0
0
LINE
8
CUT
10
882.0000
20
267.0680
30
0.0
11
889.0000
21
266.2154
31
0.0
0
LINE
8
CUT
10
889.0000
20
266.2154
30
0.0
11
896.0000
21
265.3349
31
0.0
0
LINE
8
CUT
10
896.0000
20
265.3349
30
0.0
11
903.0000
21
264.4261
31
0.0
0
LINE
8
CUT
10
903.0000
20
264.4261
30
0.0
11
910.0000
21
263.4890
31
0.0
0
LINE
8
CUT
10
910.0000
20
263.4890
30
0.0
11
917.0000
21
262.5233
31
0.0
0
LINE
8
CUT
10
917.0000
20
262.5233
30
0.0
11
924.0000
21
261.5287
31
0.0
0
LINE
8
CUT
10
924.0000
20
261.5287
30
0.0
11
931.0000
21
260.5050
31
0.0
0
LINE
8
CUT
10
931.0000
20
260.5050
30
0.0
11
938.0000
21
259.4520
31
0.0
0
LINE
8
CUT
10
938.0000
20
259.4520
30
0.0
11
945.0000
21
258.3693
31
0.0
0
LINE
8
CUT
10
945.0000
20
258.3693
30
0.0
11
952.0000
21
257.2566
31
0.0
0
LINE
8
CUT
10
952.0000
20
257.2566
30
0.0
11
959.0000
21
256.1135
31
0.0
0
LINE
8
CUT
10
959.0000
20
256.1135
30
0.0
11
966.0000
21
254.9399
31
0.0
0
LINE
8
CUT
10
966.0000
20
254.9399
30
0.0
11
973.0000
21
253.7352
31
0.0
0
LINE
8
CUT
10
973.0000
20
253.7352
30
0.0
11
980.0000
21
252.4991
31
0.0
0
LINE
8
CUT
10
980.0000
20
252.4991
30
0.0
11
987.0000
21
251.2311
31
0.0
0
LINE
8
CUT
10
987.0000
20
251.2311
30
0.0
11
994.0000
21
249.9310
31
0.0
0
LINE
8
CUT
10
994.0000
20
249.9310
30
0.0
11
1001.0000
21
248.5981
31
0.0
0
LINE
8
CUT
10
1001.0000
20
248.5981
30
0.0
11
1008.0000
21
247.2321
31
0.0
0
LINE
8
CUT
10
1008.0000
20
247.2321
30
0.0
11
1015.0000
21
245.8323
31
0.0
0
LINE
8
CUT
10
1015.0000
20
245.8323
30
0.0
11
1022.0000
21
244.3984
31
0.0
0
LINE
8
CUT
10
1022.0000
20
244.3984
30
0.0
11
1029.0000
21
242.9297
31
0.0
0
LINE
8
CUT
10
1029.0000
20
242.9297
30
0.0
11
1036.0000
21
241.4256
31
0.0
0
LINE
8
CUT
10
1036.0000
20
241.4256
30
0.0
11
1043.0000
21
239.8856
31
0.0
0
LINE
8
CUT
10
1043.0000
20
239.8856
30
0.0
11
1050.0000
21
238.3089
31
0.0
0
LINE
8
CUT
10
1050.0000
20
238.3089
30
0.0
11
1057.0000
21
236.6948
31
0.0
0
LINE
8
CUT
10
1057.0000
20
236.6948
30
0.0
11
1064.0000
21
235.0427
31
0.0
0
LINE
8
CUT
10
1064.0000
20
235.0427
30
0.0
11
1071.0000
21
233.3518
31
0.0
0
LINE
8
CUT
10
1071.0000
20
233.3518
30
0.0
11
1078.0000
21
231.6211
31
0.0
0
LINE
8
CUT
10
1078.0000
20
231.6211
30
0.0
11
1085.0000
21
229.8500
31
0.0
0
LINE
8
CUT
10
1085.0000
20
229.8500
30
0.0
11
1092.0000
21
228.0374
31
0.0
0
LINE
8
CUT
10
1092.0000
20
228.0374
30
0.0
11
1099.0000
21
226.1823
31
0.0
0
LINE
8
CUT
10
1099.0000
20
226.1823
30
0.0
11
1106.0000
21
224.2838
31
0.0
0
LINE
8
CUT
10
1106.0000
20
224.2838
30
0.0
11
1113.0000
21
222.3408
31
0.0
0
LINE
8
CUT
10
1113.0000
20
222.3408
30
0.0
11
1120.0000
21
220.3520
31
0.0
0
LINE
8
CUT
10
1120.0000
20
220.3520
30
0.0
11
1127.0000
21
218.3162
31
0.0
0
LINE
8
CUT
10
1127.0000
20
218.3162
30
0.0
11
1134.0000
21
216.2321
31
0.0
0
LINE
8
CUT
10
1134.0000
20
216.2321
30
0.0
11
1141.0000
21
214.0984
31
0.0
0
LINE
8
CUT
10
1141.0000
20
214.0984
30
0.0
11
1148.0000
21
211.9134
31
0.0
0
LINE
8
CUT
10
1148.0000
20
211.9134
30
0.0
11
1155.0000
21
209.6755
31
0.0
0
LINE
8
CUT
10
1155.0000
20
209.6755
30
0.0
11
1162.0000
21
207.3831
31
0.0
0
LINE
8
CUT
10
1162.0000
20
207.3831
30
0.0
11
1169.0000
21
205.0343
31
0.0
0
LINE
8
CUT
10
1169.0000
20
205.0343
30
0.0
11
1176.0000
21
202.6270
31
0.0
0
LINE
8
CUT
10
1176.0000
20
202.6270
30
0.0
11
1183.0000
21
200.1591
31
0.0
0
LINE
8
CUT
10
1183.0000
20
200.1591
30
0.0
11
1190.0000
21
197.6282
31
0.0
0
LINE
8
CUT
10
1190.0000
20
197.6282
30
0.0
11
1197.0000
21
195.0318
31
0.0
0
LINE
8
CUT
10
1197.0000
20
195.0318
30
0.0
11
1204.0000
21
192.3673
31
0.0
0
LINE
8
CUT
10
1204.0000
20
192.3673
30
0.0
11
1211.0000
21
189.6315
31
0.0
0
LINE
8
CUT
10
1211.0000
20
189.6315
30
0.0
11
1218.0000
21
186.8211
31
0.0
0
LINE
8
CUT
10
1218.0000
20
186.8211
30
0.0
11
1225.0000
21
183.9327
31
0.0
0
LINE
8
CUT
10
1225.0000
20
183.9327
30
0.0
11
1232.0000
21
180.9623
31
0.0
0
LINE
8
CUT
10
1232.0000
20
180.9623
30
0.0
11
1239.0000
21
177.9055
31
0.0
0
LINE
8
CUT
10
1239.0000
20
177.9055
30
0.0
11
1246.0000
21
174.7574
31
0.0
0
LINE
8
CUT
10
1246.0000
20
174.7574
30
0.0
11
1253.0000
21
171.5128
31
0.0
0
LINE
8
CUT
10
1253.0000
20
171.5128
30
0.0
11
1260.0000
21
168.1657
31
0.0
0
LINE
8
CUT
10
1260.0000
20
168.1657
30
0.0
11
1267.0000
21
164.7092
31
0.0
0
LINE
8
CUT
10
1267.0000
20
164.7092
30
0.0
11
1274.0000
21
161.1358
31
0.0
0
LINE
8
CUT
10
1274.0000
20
161.1358
30
0.0
11
1281.0000
21
157.4368
31
0.0
0
LINE
8
CUT
10
1281.0000
20
157.4368
30
0.0
11
1288.0000
21
153.6022
31
0.0
0
LINE
8
CUT
10
1288.0000
20
153.6022
30
0.0
11
1295.0000
21
149.6206
31
0.0
0
LINE
8
CUT
10
1295.0000
20
149.6206
30
0.0
11
1302.0000
21
145.4786
31
0.0
0
LINE
8
CUT
10
1302.0000
20
145.4786
30
0.0
11
1309.0000
21
141.1603
31
0.0
0
LINE
8
CUT
10
1309.0000
20
141.1603
30
0.0
11
1316.0000
21
136.6469
31
0.0
0
LINE
8
CUT
10
1316.0000
20
136.6469
30
0.0
11
1323.0000
21
131.9157
31
0.0
0
LINE
8
CUT
10
1323.0000
20
131.9157
30
0.0
11
1330.0000
21
126.9388
31
0.0
0
LINE
8
CUT
10
1330.0000
20
126.9388
30
0.0
11
1337.0000
21
121.6810
31
0.0
0
LINE
8
CUT
10
1337.0000
20
121.6810
30
0.0
11
1344.0000
21
116.0975
31
0.0
0
LINE
8
CUT
10
1344.0000
20
116.0975
30
0.0
11
1351.0000
21
110.1292
31
0.0
0
LINE
8
CUT
10
1351.0000
20
110.1292
30
0.0
11
1358.0000
21
103.6954
31
0.0
0
LINE
8
CUT
10
1358.0000
20
103.6954
30
0.0
11
1365.0000
21
96.6803
31
0.0
0
LINE
8
CUT
10
1365.0000
20
96.6803
30
0.0
11
1372.0000
21
88.9079
31
0.0
0
LINE
8
CUT
10
1372.0000
20
88.9079
30
0.0
11
1379.0000
21
80.0836
31
0.0
0
LINE
8
CUT
10
1379.0000
20
80.0836
30
0.0
11
1386.0000
21
69.6390
31
0.0
0
LINE
8
CUT
10
1386.0000
20
69.6390
30
0.0
11
1393.0000
21
56.1260
31
0.0
0
LINE
8
CUT
10
1393.0000
20
56.1260
30
0.0
11
1400.0000
21
25.2000
31
0.0
0
LINE
8
CUT
10
1400.0000
20
25.2000
30
0.0
11
1400.0000
21
0.0000
31
0.0
0
LINE
8
CUT
10
1400.0000
20
0.0000
30
0.0
11
0.0000
21
0.0000
31
0.0
0
LINE
8
CUT
10
0.0000
20
0.0000
30
0.0
11
0.0000
21
50.4000
31
0.0
0
LINE
8
REG
10
0.0000
20
0.0000
30
0.0
11
1400.0000
21
0.0000
31
0.0
0
LINE
8
REG
10
1030.0000
20
-280.0000
30
0.0
11
1030.0000
21
280.0000
31
0.0
0
LINE
8
REG
10
340.0000
20
-280.0000
30
0.0
11
340.0000
21
280.0000
31
0.0
0
LINE
8
REG
10
384.0000
20
-280.0000
30
0.0
11
384.0000
21
280.0000
31
0.0
0
LINE
8
REG
10
907.0500
20
-280.0000
30
0.0
11
907.0500
21
280.0000
31
0.0
0
ENDSEC
0
EOF
