0
SECTION
2
ENTITIES
0
LINE
8
CUT
10
502.7000
20
0.0000
30
0.0
11
504.6174
21
0.0837
31
0.0
0
LINE
8
CUT
10
504.6174
20
0.0837
30
0.0
11
506.5203
21
0.3342
31
0.0
0
LINE
8
CUT
10
506.5203
20
0.3342
30
0.0
11
508.3940
21
0.7496
31
0.0
0
LINE
8
CUT
10
508.3940
20
0.7496
30
0.0
11
510.2244
21
1.3268
31
0.0
0
LINE
8
CUT
10
510.2244
20
1.3268
30
0.0
11
511.9976
21
2.0612
31
0.0
0
LINE
8
CUT
10
511.9976
20
2.0612
30
0.0
11
513.7000
21
2.9474
31
0.0
0
LINE
8
CUT
10
513.7000
20
2.9474
30
0.0
11
515.3187
21
3.9787
31
0.0
0
LINE
8
CUT
10
515.3187
20
3.9787
30
0.0
11
516.8413
21
5.1470
31
0.0
0
LINE
8
CUT
10
516.8413
20
5.1470
30
0.0
11
518.2563
21
6.4437
31
0.0
0
LINE
8
CUT
10
518.2563
20
6.4437
30
0.0
11
519.5530
21
7.8587
31
0.0
0
LINE
8
CUT
10
519.5530
20
7.8587
30
0.0
11
520.7213
21
9.3813
31
0.0
0
LINE
8
CUT
10
520.7213
20
9.3813
30
0.0
11
521.7526
21
11.0000
31
0.0
0
LINE
8
CUT
10
521.7526
20
11.0000
30
0.0
11
522.6388
21
12.7024
31
0.0
0
LINE
8
CUT
10
522.6388
20
12.7024
30
0.0
11
523.3732
21
14.4756
31
0.0
0
LINE
8
CUT
10
523.3732
20
14.4756
30
0.0
11
523.9504
21
16.3060
31
0.0
0
LINE
8
CUT
10
523.9504
20
16.3060
30
0.0
11
524.3658
21
18.1797
31
0.0
0
LINE
8
CUT
10
524.3658
20
18.1797
30
0.0
11
524.6163
21
20.0826
31
0.0
0
LINE
8
CUT
10
524.6163
20
20.0826
30
0.0
11
524.7000
21
22.0000
31
0.0
0
LINE
8
CUT
10
524.7000
20
22.0000
30
0.0
11
524.7000
21
297.4000
31
0.0
0
LINE
8
CUT
10
524.7000
20
297.4000
30
0.0
11
524.6163
21
299.3174
31
0.0
0
LINE
8
CUT
10
524.6163
20
299.3174
30
0.0
11
524.3658
21
301.2203
31
0.0
0
LINE
8
CUT
10
524.3658
20
301.2203
30
0.0
11
523.9504
21
303.0940
31
0.0
0
LINE
8
CUT
10
523.9504
20
303.0940
30
0.0
11
523.3732
21
304.9244
31
0.0
0
LINE
8
CUT
10
523.3732
20
304.9244
30
0.0
11
522.6388
21
306.6976
31
0.0
0
LINE
8
CUT
10
522.6388
20
306.6976
30
0.0
11
521.7526
21
308.4000
31
0.0
0
LINE
8
CUT
10
521.7526
20
308.4000
30
0.0
11
520.7213
21
310.0187
31
0.0
0
LINE
8
CUT
10
520.7213
20
310.0187
30
0.0
11
519.5530
21
311.5413
31
0.0
0
LINE
8
CUT
10
519.5530
20
311.5413
30
0.0
11
518.2563
21
312.9563
31
0.0
0
LINE
8
CUT
10
518.2563
20
312.9563
30
0.0
11
516.8413
21
314.2530
31
0.0
0
LINE
8
CUT
10
516.8413
20
314.2530
30
0.0
11
515.3187
21
315.4213
31
0.0
0
LINE
8
CUT
10
515.3187
20
315.4213
30
0.0
11
513.7000
21
316.4526
31
0.0
0
LINE
8
CUT
10
513.7000
20
316.4526
30
0.0
11
511.9976
21
317.3388
31
0.0
0
LINE
8
CUT
10
511.9976
20
317.3388
30
0.0
11
510.2244
21
318.0732
31
0.0
0
LINE
8
CUT
10
510.2244
20
318.0732
30
0.0
11
508.3940
21
318.6504
31
0.0
0
LINE
8
CUT
10
508.3940
20
318.6504
30
0.0
11
506.5203
21
319.0658
31
0.0
0
LINE
8
CUT
10
506.5203
20
319.0658
30
0.0
11
504.6174
21
319.3163
31
0.0
0
LINE
8
CUT
10
504.6174
20
319.3163
30
0.0
11
502.7000
21
319.4000
31
0.0
0
LINE
8
CUT
10
502.7000
20
319.4000
30
0.0
11
22.0000
21
319.4000
31
0.0
0
LINE
8
CUT
10
22.0000
20
319.4000
30
0.0
11
20.0826
21
319.3163
31
0.0
0
LINE
8
CUT
10
20.0826
20
319.3163
30
0.0
11
18.1797
21
319.0658
31
0.0
0
LINE
8
CUT
10
18.1797
20
319.0658
30
0.0
11
16.3060
21
318.6504
31
0.0
0
LINE
8
CUT
10
16.3060
20
318.6504
30
0.0
11
14.4756
21
318.0732
31
0.0
0
LINE
8
CUT
10
14.4756
20
318.0732
30
0.0
11
12.7024
21
317.3388
31
0.0
0
LINE
8
CUT
10
12.7024
20
317.3388
30
0.0
11
11.0000
21
316.4526
31
0.0
0
LINE
8
CUT
10
11.0000
20
316.4526
30
0.0
11
9.3813
21
315.4213
31
0.0
0
LINE
8
CUT
10
9.3813
20
315.4213
30
0.0
11
7.8587
21
314.2530
31
0.0
0
LINE
8
CUT
10
7.8587
20
314.2530
30
0.0
11
6.4437
21
312.9563
31
0.0
0
LINE
8
CUT
10
6.4437
20
312.9563
30
0.0
11
5.1470
21
311.5413
31
0.0
0
LINE
8
CUT
10
5.1470
20
311.5413
30
0.0
11
3.9787
21
310.0187
31
0.0
0
LINE
8
CUT
10
3.9787
20
310.0187
30
0.0
11
2.9474
21
308.4000
31
0.0
0
LINE
8
CUT
10
2.9474
20
308.4000
30
0.0
11
2.0612
21
306.6976
31
0.0
0
LINE
8
CUT
10
2.0612
20
306.6976
30
0.0
11
1.3268
21
304.9244
31
0.0
0
LINE
8
CUT
10
1.3268
20
304.9244
30
0.0
11
0.7496
21
303.0940
31
0.0
0
LINE
8
CUT
10
0.7496
20
303.0940
30
0.0
11
0.3342
21
301.2203
31
0.0
0
LINE
8
CUT
10
0.3342
20
301.2203
30
0.0
11
0.0837
21
299.3174
31
0.0
0
LINE
8
CUT
10
0.0837
20
299.3174
30
0.0
11
0.0000
21
297.4000
31
0.0
0
LINE
8
CUT
10
0.0000
20
297.4000
30
0.0
11
0.0000
21
22.0000
31
0.0
0
LINE
8
CUT
10
0.0000
20
22.0000
30
0.0
11
0.0837
21
20.0826
31
0.0
0
LINE
8
CUT
10
0.0837
20
20.0826
30
0.0
11
0.3342
21
18.1797
31
0.0
0
LINE
8
CUT
10
0.3342
20
18.1797
30
0.0
11
0.7496
21
16.3060
31
0.0
0
LINE
8
CUT
10
0.7496
20
16.3060
30
0.0
11
1.3268
21
14.4756
31
0.0
0
LINE
8
CUT
10
1.3268
20
14.4756
30
0.0
11
2.0612
21
12.7024
31
0.0
0
LINE
8
CUT
10
2.0612
20
12.7024
30
0.0
11
2.9474
21
11.0000
31
0.0
0
LINE
8
CUT
10
2.9474
20
11.0000
30
0.0
11
3.9787
21
9.3813
31
0.0
0
LINE
8
CUT
10
3.9787
20
9.3813
30
0.0
11
5.1470
21
7.8587
31
0.0
0
LINE
8
CUT
10
5.1470
20
7.8587
30
0.0
11
6.4437
21
6.4437
31
0.0
0
LINE
8
CUT
10
6.4437
20
6.4437
30
0.0
11
7.8587
21
5.1470
31
0.0
0
LINE
8
CUT
10
7.8587
20
5.1470
30
0.0
11
9.3813
21
3.9787
31
0.0
0
LINE
8
CUT
10
9.3813
20
3.9787
30
0.0
11
11.0000
21
2.9474
31
0.0
0
LINE
8
CUT
10
11.0000
20
2.9474
30
0.0
11
12.7024
21
2.0612
31
0.0
0
LINE
8
CUT
10
12.7024
20
2.0612
30
0.0
11
14.4756
21
1.3268
31
0.0
0
LINE
8
CUT
10
14.4756
20
1.3268
30
0.0
11
16.3060
21
0.7496
31
0.0
0
LINE
8
CUT
10
16.3060
20
0.7496
30
0.0
11
18.1797
21
0.3342
31
0.0
0
LINE
8
CUT
10
18.1797
20
0.3342
30
0.0
11
20.0826
21
0.0837
31
0.0
0
LINE
8
CUT
10
20.0826
20
0.0837
30
0.0
11
22.0000
21
0.0000
31
0.0
0
LINE
8
CUT
10
22.0000
20
0.0000
30
0.0
11
502.7000
21
0.0000
31
0.0
0
LINE
8
REG
10
-40.0000
20
0.0000
30
0.0
11
564.7000
21
0.0000
31
0.0
0
LINE
8
REG
10
262.3500
20
-189.7000
30
0.0
11
262.3500
21
189.7000
31
0.0
0
ENDSEC
0
EOF
