0
SECTION
2
ENTITIES
0
LINE
8
CUT
10
501.0500
20
0.0000
30
0.0
11
502.9674
21
0.0837
31
0.0
0
LINE
8
CUT
10
502.9674
20
0.0837
30
0.0
11
504.8703
21
0.3342
31
0.0
0
LINE
8
CUT
10
504.8703
20
0.3342
30
0.0
11
506.7440
21
0.7496
31
0.0
0
LINE
8
CUT
10
506.7440
20
0.7496
30
0.0
11
508.5744
21
1.3268
31
0.0
0
LINE
8
CUT
10
508.5744
20
1.3268
30
0.0
11
510.3476
21
2.0612
31
0.0
0
LINE
8
CUT
10
510.3476
20
2.0612
30
0.0
11
512.0500
21
2.9474
31
0.0
0
LINE
8
CUT
10
512.0500
20
2.9474
30
0.0
11
513.6687
21
3.9787
31
0.0
0
LINE
8
CUT
10
513.6687
20
3.9787
30
0.0
11
515.1913
21
5.1470
31
0.0
0
LINE
8
CUT
10
515.1913
20
5.1470
30
0.0
11
516.6063
21
6.4437
31
0.0
0
LINE
8
CUT
10
516.6063
20
6.4437
30
0.0
11
517.9030
21
7.8587
31
0.0
0
LINE
8
CUT
10
517.9030
20
7.8587
30
0.0
11
519.0713
21
9.3813
31
0.0
0
LINE
8
CUT
10
519.0713
20
9.3813
30
0.0
11
520.1026
21
11.0000
31
0.0
0
LINE
8
CUT
10
520.1026
20
11.0000
30
0.0
11
520.9888
21
12.7024
31
0.0
0
LINE
8
CUT
10
520.9888
20
12.7024
30
0.0
11
521.7232
21
14.4756
31
0.0
0
LINE
8
CUT
10
521.7232
20
14.4756
30
0.0
11
522.3004
21
16.3060
31
0.0
0
LINE
8
CUT
10
522.3004
20
16.3060
30
0.0
11
522.7158
21
18.1797
31
0.0
0
LINE
8
CUT
10
522.7158
20
18.1797
30
0.0
11
522.9663
21
20.0826
31
0.0
0
LINE
8
CUT
10
522.9663
20
20.0826
30
0.0
11
523.0500
21
22.0000
31
0.0
0
LINE
8
CUT
10
523.0500
20
22.0000
30
0.0
11
523.0500
21
295.7500
31
0.0
0
LINE
8
CUT
10
523.0500
20
295.7500
30
0.0
11
522.9663
21
297.6674
31
0.0
0
LINE
8
CUT
10
522.9663
20
297.6674
30
0.0
11
522.7158
21
299.5703
31
0.0
0
LINE
8
CUT
10
522.7158
20
299.5703
30
0.0
11
522.3004
21
301.4440
31
0.0
0
LINE
8
CUT
10
522.3004
20
301.4440
30
0.0
11
521.7232
21
303.2744
31
0.0
0
LINE
8
CUT
10
521.7232
20
303.2744
30
0.0
11
520.9888
21
305.0476
31
0.0
0
LINE
8
CUT
10
520.9888
20
305.0476
30
0.0
11
520.1026
21
306.7500
31
0.0
0
LINE
8
CUT
10
520.1026
20
306.7500
30
0.0
11
519.0713
21
308.3687
31
0.0
0
LINE
8
CUT
10
519.0713
20
308.3687
30
0.0
11
517.9030
21
309.8913
31
0.0
0
LINE
8
CUT
10
517.9030
20
309.8913
30
0.0
11
516.6063
21
311.3063
31
0.0
0
LINE
8
CUT
10
516.6063
20
311.3063
30
0.0
11
515.1913
21
312.6030
31
0.0
0
LINE
8
CUT
10
515.1913
20
312.6030
30
0.0
11
513.6687
21
313.7713
31
0.0
0
LINE
8
CUT
10
513.6687
20
313.7713
30
0.0
11
512.0500
21
314.8026
31
0.0
0
LINE
8
CUT
10
512.0500
20
314.8026
30
0.0
11
510.3476
21
315.6888
31
0.0
0
LINE
8
CUT
10
510.3476
20
315.6888
30
0.0
11
508.5744
21
316.4232
31
0.0
0
LINE
8
CUT
10
508.5744
20
316.4232
30
0.0
11
506.7440
21
317.0004
31
0.0
0
LINE
8
CUT
10
506.7440
20
317.0004
30
0.0
11
504.8703
21
317.4158
31
0.0
0
LINE
8
CUT
10
504.8703
20
317.4158
30
0.0
11
502.9674
21
317.6663
31
0.0
0
LINE
8
CUT
10
502.9674
20
317.6663
30
0.0
11
501.0500
21
317.7500
31
0.0
0
LINE
8
CUT
10
501.0500
20
317.7500
30
0.0
11
22.0000
21
317.7500
31
0.0
0
LINE
8
CUT
10
22.0000
20
317.7500
30
0.0
11
20.0826
21
317.6663
31
0.0
0
LINE
8
CUT
10
20.0826
20
317.6663
30
0.0
11
18.1797
21
317.4158
31
0.0
0
LINE
8
CUT
10
18.1797
20
317.4158
30
0.0
11
16.3060
21
317.0004
31
0.0
0
LINE
8
CUT
10
16.3060
20
317.0004
30
0.0
11
14.4756
21
316.4232
31
0.0
0
LINE
8
CUT
10
14.4756
20
316.4232
30
0.0
11
12.7024
21
315.6888
31
0.0
0
LINE
8
CUT
10
12.7024
20
315.6888
30
0.0
11
11.0000
21
314.8026
31
0.0
0
LINE
8
CUT
10
11.0000
20
314.8026
30
0.0
11
9.3813
21
313.7713
31
0.0
0
LINE
8
CUT
10
9.3813
20
313.7713
30
0.0
11
7.8587
21
312.6030
31
0.0
0
LINE
8
CUT
10
7.8587
20
312.6030
30
0.0
11
6.4437
21
311.3063
31
0.0
0
LINE
8
CUT
10
6.4437
20
311.3063
30
0.0
11
5.1470
21
309.8913
31
0.0
0
LINE
8
CUT
10
5.1470
20
309.8913
30
0.0
11
3.9787
21
308.3687
31
0.0
0
LINE
8
CUT
10
3.9787
20
308.3687
30
0.0
11
2.9474
21
306.7500
31
0.0
0
LINE
8
CUT
10
2.9474
20
306.7500
30
0.0
11
2.0612
21
305.0476
31
0.0
0
LINE
8
CUT
10
2.0612
20
305.0476
30
0.0
11
1.3268
21
303.2744
31
0.0
0
LINE
8
CUT
10
1.3268
20
303.2744
30
0.0
11
0.7496
21
301.4440
31
0.0
0
LINE
8
CUT
10
0.7496
20
301.4440
30
0.0
11
0.3342
21
299.5703
31
0.0
0
LINE
8
CUT
10
0.3342
20
299.5703
30
0.0
11
0.0837
21
297.6674
31
0.0
0
LINE
8
CUT
10
0.0837
20
297.6674
30
0.0
11
0.0000
21
295.7500
31
0.0
0
LINE
8
CUT
10
0.0000
20
295.7500
30
0.0
11
0.0000
21
22.0000
31
0.0
0
LINE
8
CUT
10
0.0000
20
22.0000
30
0.0
11
0.0837
21
20.0826
31
0.0
0
LINE
8
CUT
10
0.0837
20
20.0826
30
0.0
11
0.3342
21
18.1797
31
0.0
0
LINE
8
CUT
10
0.3342
20
18.1797
30
0.0
11
0.7496
21
16.3060
31
0.0
0
LINE
8
CUT
10
0.7496
20
16.3060
30
0.0
11
1.3268
21
14.4756
31
0.0
0
LINE
8
CUT
10
1.3268
20
14.4756
30
0.0
11
2.0612
21
12.7024
31
0.0
0
LINE
8
CUT
10
2.0612
20
12.7024
30
0.0
11
2.9474
21
11.0000
31
0.0
0
LINE
8
CUT
10
2.9474
20
11.0000
30
0.0
11
3.9787
21
9.3813
31
0.0
0
LINE
8
CUT
10
3.9787
20
9.3813
30
0.0
11
5.1470
21
7.8587
31
0.0
0
LINE
8
CUT
10
5.1470
20
7.8587
30
0.0
11
6.4437
21
6.4437
31
0.0
0
LINE
8
CUT
10
6.4437
20
6.4437
30
0.0
11
7.8587
21
5.1470
31
0.0
0
LINE
8
CUT
10
7.8587
20
5.1470
30
0.0
11
9.3813
21
3.9787
31
0.0
0
LINE
8
CUT
10
9.3813
20
3.9787
30
0.0
11
11.0000
21
2.9474
31
0.0
0
LINE
8
CUT
10
11.0000
20
2.9474
30
0.0
11
12.7024
21
2.0612
31
0.0
0
LINE
8
CUT
10
12.7024
20
2.0612
30
0.0
11
14.4756
21
1.3268
31
0.0
0
LINE
8
CUT
10
14.4756
20
1.3268
30
0.0
11
16.3060
21
0.7496
31
0.0
0
LINE
8
CUT
10
16.3060
20
0.7496
30
0.0
11
18.1797
21
0.3342
31
0.0
0
LINE
8
CUT
10
18.1797
20
0.3342
30
0.0
11
20.0826
21
0.0837
31
0.0
0
LINE
8
CUT
10
20.0826
20
0.0837
30
0.0
11
22.0000
21
0.0000
31
0.0
0
LINE
8
CUT
10
22.0000
20
0.0000
30
0.0
11
501.0500
21
0.0000
31
0.0
0
LINE
8
REG
10
-40.0000
20
0.0000
30
0.0
11
563.0500
21
0.0000
31
0.0
0
LINE
8
REG
10
261.5250
20
-188.8750
30
0.0
11
261.5250
21
188.8750
31
0.0
0
ENDSEC
0
EOF
