0
SECTION
2
ENTITIES
0
LINE
8
CUT
10
501.0500
20
-34.0000
30
0.0
11
505.9307
21
-33.7869
31
0.0
0
LINE
8
CUT
10
505.9307
20
-33.7869
30
0.0
11
510.7743
21
-33.1492
31
0.0
0
LINE
8
CUT
10
510.7743
20
-33.1492
30
0.0
11
515.5439
21
-32.0918
31
0.0
0
LINE
8
CUT
10
515.5439
20
-32.0918
30
0.0
11
520.2031
21
-30.6228
31
0.0
0
LINE
8
CUT
10
520.2031
20
-30.6228
30
0.0
11
524.7166
21
-28.7532
31
0.0
0
LINE
8
CUT
10
524.7166
20
-28.7532
30
0.0
11
529.0500
21
-26.4974
31
0.0
0
LINE
8
CUT
10
529.0500
20
-26.4974
30
0.0
11
533.1703
21
-23.8725
31
0.0
0
LINE
8
CUT
10
533.1703
20
-23.8725
30
0.0
11
537.0461
21
-20.8985
31
0.0
0
LINE
8
CUT
10
537.0461
20
-20.8985
30
0.0
11
540.6480
21
-17.5980
31
0.0
0
LINE
8
CUT
10
540.6480
20
-17.5980
30
0.0
11
543.9485
21
-13.9961
31
0.0
0
LINE
8
CUT
10
543.9485
20
-13.9961
30
0.0
11
546.9225
21
-10.1203
31
0.0
0
LINE
8
CUT
10
546.9225
20
-10.1203
30
0.0
11
549.5474
21
-6.0000
31
0.0
0
LINE
8
CUT
10
549.5474
20
-6.0000
30
0.0
11
551.8032
21
-1.6666
31
0.0
0
LINE
8
CUT
10
551.8032
20
-1.6666
30
0.0
11
553.6728
21
2.8469
31
0.0
0
LINE
8
CUT
10
553.6728
20
2.8469
30
0.0
11
555.1418
21
7.5061
31
0.0
0
LINE
8
CUT
10
555.1418
20
7.5061
30
0.0
11
556.1992
21
12.2757
31
0.0
0
LINE
8
CUT
10
556.1992
20
12.2757
30
0.0
11
556.8369
21
17.1193
31
0.0
0
LINE
8
CUT
10
556.8369
20
17.1193
30
0.0
11
557.0500
21
22.0000
31
0.0
0
LINE
8
CUT
10
557.0500
20
22.0000
30
0.0
11
557.0500
21
295.7500
31
0.0
0
LINE
8
CUT
10
557.0500
20
295.7500
30
0.0
11
556.8369
21
300.6307
31
0.0
0
LINE
8
CUT
10
556.8369
20
300.6307
30
0.0
11
556.1992
21
305.4743
31
0.0
0
LINE
8
CUT
10
556.1992
20
305.4743
30
0.0
11
555.1418
21
310.2439
31
0.0
0
LINE
8
CUT
10
555.1418
20
310.2439
30
0.0
11
553.6728
21
314.9031
31
0.0
0
LINE
8
CUT
10
553.6728
20
314.9031
30
0.0
11
551.8032
21
319.4166
31
0.0
0
LINE
8
CUT
10
551.8032
20
319.4166
30
0.0
11
549.5474
21
323.7500
31
0.0
0
LINE
8
CUT
10
549.5474
20
323.7500
30
0.0
11
546.9225
21
327.8703
31
0.0
0
LINE
8
CUT
10
546.9225
20
327.8703
30
0.0
11
543.9485
21
331.7461
31
0.0
0
LINE
8
CUT
10
543.9485
20
331.7461
30
0.0
11
540.6480
21
335.3480
31
0.0
0
LINE
8
CUT
10
540.6480
20
335.3480
30
0.0
11
537.0461
21
338.6485
31
0.0
0
LINE
8
CUT
10
537.0461
20
338.6485
30
0.0
11
533.1703
21
341.6225
31
0.0
0
LINE
8
CUT
10
533.1703
20
341.6225
30
0.0
11
529.0500
21
344.2474
31
0.0
0
LINE
8
CUT
10
529.0500
20
344.2474
30
0.0
11
524.7166
21
346.5032
31
0.0
0
LINE
8
CUT
10
524.7166
20
346.5032
30
0.0
11
520.2031
21
348.3728
31
0.0
0
LINE
8
CUT
10
520.2031
20
348.3728
30
0.0
11
515.5439
21
349.8418
31
0.0
0
LINE
8
CUT
10
515.5439
20
349.8418
30
0.0
11
510.7743
21
350.8992
31
0.0
0
LINE
8
CUT
10
510.7743
20
350.8992
30
0.0
11
505.9307
21
351.5369
31
0.0
0
LINE
8
CUT
10
505.9307
20
351.5369
30
0.0
11
501.0500
21
351.7500
31
0.0
0
LINE
8
CUT
10
501.0500
20
351.7500
30
0.0
11
22.0000
21
351.7500
31
0.0
0
LINE
8
CUT
10
22.0000
20
351.7500
30
0.0
11
17.1193
21
351.5369
31
0.0
0
LINE
8
CUT
10
17.1193
20
351.5369
30
0.0
11
12.2757
21
350.8992
31
0.0
0
LINE
8
CUT
10
12.2757
20
350.8992
30
0.0
11
7.5061
21
349.8418
31
0.0
0
LINE
8
CUT
10
7.5061
20
349.8418
30
0.0
11
2.8469
21
348.3728
31
0.0
0
LINE
8
CUT
10
2.8469
20
348.3728
30
0.0
11
-1.6666
21
346.5032
31
0.0
0
LINE
8
CUT
10
-1.6666
20
346.5032
30
0.0
11
-6.0000
21
344.2474
31
0.0
0
LINE
8
CUT
10
-6.0000
20
344.2474
30
0.0
11
-10.1203
21
341.6225
31
0.0
0
LINE
8
CUT
10
-10.1203
20
341.6225
30
0.0
11
-13.9961
21
338.6485
31
0.0
0
LINE
8
CUT
10
-13.9961
20
338.6485
30
0.0
11
-17.5980
21
335.3480
31
0.0
0
LINE
8
CUT
10
-17.5980
20
335.3480
30
0.0
11
-20.8985
21
331.7461
31
0.0
0
LINE
8
CUT
10
-20.8985
20
331.7461
30
0.0
11
-23.8725
21
327.8703
31
0.0
0
LINE
8
CUT
10
-23.8725
20
327.8703
30
0.0
11
-26.4974
21
323.7500
31
0.0
0
LINE
8
CUT
10
-26.4974
20
323.7500
30
0.0
11
-28.7532
21
319.4166
31
0.0
0
LINE
8
CUT
10
-28.7532
20
319.4166
30
0.0
11
-30.6228
21
314.9031
31
0.0
0
LINE
8
CUT
10
-30.6228
20
314.9031
30
0.0
11
-32.0918
21
310.2439
31
0.0
0
LINE
8
CUT
10
-32.0918
20
310.2439
30
0.0
11
-33.1492
21
305.4743
31
0.0
0
LINE
8
CUT
10
-33.1492
20
305.4743
30
0.0
11
-33.7869
21
300.6307
31
0.0
0
LINE
8
CUT
10
-33.7869
20
300.6307
30
0.0
11
-34.0000
21
295.7500
31
0.0
0
LINE
8
CUT
10
-34.0000
20
295.7500
30
0.0
11
-34.0000
21
22.0000
31
0.0
0
LINE
8
CUT
10
-34.0000
20
22.0000
30
0.0
11
-33.7869
21
17.1193
31
0.0
0
LINE
8
CUT
10
-33.7869
20
17.1193
30
0.0
11
-33.1492
21
12.2757
31
0.0
0
LINE
8
CUT
10
-33.1492
20
12.2757
30
0.0
11
-32.0918
21
7.5061
31
0.0
0
LINE
8
CUT
10
-32.0918
20
7.5061
30
0.0
11
-30.6228
21
2.8469
31
0.0
0
LINE
8
CUT
10
-30.6228
20
2.8469
30
0.0
11
-28.7532
21
-1.6666
31
0.0
0
LINE
8
CUT
10
-28.7532
20
-1.6666
30
0.0
11
-26.4974
21
-6.0000
31
0.0
0
LINE
8
CUT
10
-26.4974
20
-6.0000
30
0.0
11
-23.8725
21
-10.1203
31
0.0
0
LINE
8
CUT
10
-23.8725
20
-10.1203
30
0.0
11
-20.8985
21
-13.9961
31
0.0
0
LINE
8
CUT
10
-20.8985
20
-13.9961
30
0.0
11
-17.5980
21
-17.5980
31
0.0
0
LINE
8
CUT
10
-17.5980
20
-17.5980
30
0.0
11
-13.9961
21
-20.8985
31
0.0
0
LINE
8
CUT
10
-13.9961
20
-20.8985
30
0.0
11
-10.1203
21
-23.8725
31
0.0
0
LINE
8
CUT
10
-10.1203
20
-23.8725
30
0.0
11
-6.0000
21
-26.4974
31
0.0
0
LINE
8
CUT
10
-6.0000
20
-26.4974
30
0.0
11
-1.6666
21
-28.7532
31
0.0
0
LINE
8
CUT
10
-1.6666
20
-28.7532
30
0.0
11
2.8469
21
-30.6228
31
0.0
0
LINE
8
CUT
10
2.8469
20
-30.6228
30
0.0
11
7.5061
21
-32.0918
31
0.0
0
LINE
8
CUT
10
7.5061
20
-32.0918
30
0.0
11
12.2757
21
-33.1492
31
0.0
0
LINE
8
CUT
10
12.2757
20
-33.1492
30
0.0
11
17.1193
21
-33.7869
31
0.0
0
LINE
8
CUT
10
17.1193
20
-33.7869
30
0.0
11
22.0000
21
-34.0000
31
0.0
0
LINE
8
CUT
10
22.0000
20
-34.0000
30
0.0
11
501.0500
21
-34.0000
31
0.0
0
LINE
8
CHANNEL
10
501.0500
20
0.0000
30
0.0
11
502.9674
21
0.0837
31
0.0
0
LINE
8
CHANNEL
10
502.9674
20
0.0837
30
0.0
11
504.8703
21
0.3342
31
0.0
0
LINE
8
CHANNEL
10
504.8703
20
0.3342
30
0.0
11
506.7440
21
0.7496
31
0.0
0
LINE
8
CHANNEL
10
506.7440
20
0.7496
30
0.0
11
508.5744
21
1.3268
31
0.0
0
LINE
8
CHANNEL
10
508.5744
20
1.3268
30
0.0
11
510.3476
21
2.0612
31
0.0
0
LINE
8
CHANNEL
10
510.3476
20
2.0612
30
0.0
11
512.0500
21
2.9474
31
0.0
0
LINE
8
CHANNEL
10
512.0500
20
2.9474
30
0.0
11
513.6687
21
3.9787
31
0.0
0
LINE
8
CHANNEL
10
513.6687
20
3.9787
30
0.0
11
515.1913
21
5.1470
31
0.0
0
LINE
8
CHANNEL
10
515.1913
20
5.1470
30
0.0
11
516.6063
21
6.4437
31
0.0
0
LINE
8
CHANNEL
10
516.6063
20
6.4437
30
0.0
11
517.9030
21
7.8587
31
0.0
0
LINE
8
CHANNEL
10
517.9030
20
7.8587
30
0.0
11
519.0713
21
9.3813
31
0.0
0
LINE
8
CHANNEL
10
519.0713
20
9.3813
30
0.0
11
520.1026
21
11.0000
31
0.0
0
LINE
8
CHANNEL
10
520.1026
20
11.0000
30
0.0
11
520.9888
21
12.7024
31
0.0
0
LINE
8
CHANNEL
10
520.9888
20
12.7024
30
0.0
11
521.7232
21
14.4756
31
0.0
0
LINE
8
CHANNEL
10
521.7232
20
14.4756
30
0.0
11
522.3004
21
16.3060
31
0.0
0
LINE
8
CHANNEL
10
522.3004
20
16.3060
30
0.0
11
522.7158
21
18.1797
31
0.0
0
LINE
8
CHANNEL
10
522.7158
20
18.1797
30
0.0
11
522.9663
21
20.0826
31
0.0
0
LINE
8
CHANNEL
10
522.9663
20
20.0826
30
0.0
11
523.0500
21
22.0000
31
0.0
0
LINE
8
CHANNEL
10
523.0500
20
22.0000
30
0.0
11
523.0500
21
295.7500
31
0.0
0
LINE
8
CHANNEL
10
523.0500
20
295.7500
30
0.0
11
522.9663
21
297.6674
31
0.0
0
LINE
8
CHANNEL
10
522.9663
20
297.6674
30
0.0
11
522.7158
21
299.5703
31
0.0
0
LINE
8
CHANNEL
10
522.7158
20
299.5703
30
0.0
11
522.3004
21
301.4440
31
0.0
0
LINE
8
CHANNEL
10
522.3004
20
301.4440
30
0.0
11
521.7232
21
303.2744
31
0.0
0
LINE
8
CHANNEL
10
521.7232
20
303.2744
30
0.0
11
520.9888
21
305.0476
31
0.0
0
LINE
8
CHANNEL
10
520.9888
20
305.0476
30
0.0
11
520.1026
21
306.7500
31
0.0
0
LINE
8
CHANNEL
10
520.1026
20
306.7500
30
0.0
11
519.0713
21
308.3687
31
0.0
0
LINE
8
CHANNEL
10
519.0713
20
308.3687
30
0.0
11
517.9030
21
309.8913
31
0.0
0
LINE
8
CHANNEL
10
517.9030
20
309.8913
30
0.0
11
516.6063
21
311.3063
31
0.0
0
LINE
8
CHANNEL
10
516.6063
20
311.3063
30
0.0
11
515.1913
21
312.6030
31
0.0
0
LINE
8
CHANNEL
10
515.1913
20
312.6030
30
0.0
11
513.6687
21
313.7713
31
0.0
0
LINE
8
CHANNEL
10
513.6687
20
313.7713
30
0.0
11
512.0500
21
314.8026
31
0.0
0
LINE
8
CHANNEL
10
512.0500
20
314.8026
30
0.0
11
510.3476
21
315.6888
31
0.0
0
LINE
8
CHANNEL
10
510.3476
20
315.6888
30
0.0
11
508.5744
21
316.4232
31
0.0
0
LINE
8
CHANNEL
10
508.5744
20
316.4232
30
0.0
11
506.7440
21
317.0004
31
0.0
0
LINE
8
CHANNEL
10
506.7440
20
317.0004
30
0.0
11
504.8703
21
317.4158
31
0.0
0
LINE
8
CHANNEL
10
504.8703
20
317.4158
30
0.0
11
502.9674
21
317.6663
31
0.0
0
LINE
8
CHANNEL
10
502.9674
20
317.6663
30
0.0
11
501.0500
21
317.7500
31
0.0
0
LINE
8
CHANNEL
10
501.0500
20
317.7500
30
0.0
11
22.0000
21
317.7500
31
0.0
0
LINE
8
CHANNEL
10
22.0000
20
317.7500
30
0.0
11
20.0826
21
317.6663
31
0.0
0
LINE
8
CHANNEL
10
20.0826
20
317.6663
30
0.0
11
18.1797
21
317.4158
31
0.0
0
LINE
8
CHANNEL
10
18.1797
20
317.4158
30
0.0
11
16.3060
21
317.0004
31
0.0
0
LINE
8
CHANNEL
10
16.3060
20
317.0004
30
0.0
11
14.4756
21
316.4232
31
0.0
0
LINE
8
CHANNEL
10
14.4756
20
316.4232
30
0.0
11
12.7024
21
315.6888
31
0.0
0
LINE
8
CHANNEL
10
12.7024
20
315.6888
30
0.0
11
11.0000
21
314.8026
31
0.0
0
LINE
8
CHANNEL
10
11.0000
20
314.8026
30
0.0
11
9.3813
21
313.7713
31
0.0
0
LINE
8
CHANNEL
10
9.3813
20
313.7713
30
0.0
11
7.8587
21
312.6030
31
0.0
0
LINE
8
CHANNEL
10
7.8587
20
312.6030
30
0.0
11
6.4437
21
311.3063
31
0.0
0
LINE
8
CHANNEL
10
6.4437
20
311.3063
30
0.0
11
5.1470
21
309.8913
31
0.0
0
LINE
8
CHANNEL
10
5.1470
20
309.8913
30
0.0
11
3.9787
21
308.3687
31
0.0
0
LINE
8
CHANNEL
10
3.9787
20
308.3687
30
0.0
11
2.9474
21
306.7500
31
0.0
0
LINE
8
CHANNEL
10
2.9474
20
306.7500
30
0.0
11
2.0612
21
305.0476
31
0.0
0
LINE
8
CHANNEL
10
2.0612
20
305.0476
30
0.0
11
1.3268
21
303.2744
31
0.0
0
LINE
8
CHANNEL
10
1.3268
20
303.2744
30
0.0
11
0.7496
21
301.4440
31
0.0
0
LINE
8
CHANNEL
10
0.7496
20
301.4440
30
0.0
11
0.3342
21
299.5703
31
0.0
0
LINE
8
CHANNEL
10
0.3342
20
299.5703
30
0.0
11
0.0837
21
297.6674
31
0.0
0
LINE
8
CHANNEL
10
0.0837
20
297.6674
30
0.0
11
0.0000
21
295.7500
31
0.0
0
LINE
8
CHANNEL
10
0.0000
20
295.7500
30
0.0
11
0.0000
21
22.0000
31
0.0
0
LINE
8
CHANNEL
10
0.0000
20
22.0000
30
0.0
11
0.0837
21
20.0826
31
0.0
0
LINE
8
CHANNEL
10
0.0837
20
20.0826
30
0.0
11
0.3342
21
18.1797
31
0.0
0
LINE
8
CHANNEL
10
0.3342
20
18.1797
30
0.0
11
0.7496
21
16.3060
31
0.0
0
LINE
8
CHANNEL
10
0.7496
20
16.3060
30
0.0
11
1.3268
21
14.4756
31
0.0
0
LINE
8
CHANNEL
10
1.3268
20
14.4756
30
0.0
11
2.0612
21
12.7024
31
0.0
0
LINE
8
CHANNEL
10
2.0612
20
12.7024
30
0.0
11
2.9474
21
11.0000
31
0.0
0
LINE
8
CHANNEL
10
2.9474
20
11.0000
30
0.0
11
3.9787
21
9.3813
31
0.0
0
LINE
8
CHANNEL
10
3.9787
20
9.3813
30
0.0
11
5.1470
21
7.8587
31
0.0
0
LINE
8
CHANNEL
10
5.1470
20
7.8587
30
0.0
11
6.4437
21
6.4437
31
0.0
0
LINE
8
CHANNEL
10
6.4437
20
6.4437
30
0.0
11
7.8587
21
5.1470
31
0.0
0
LINE
8
CHANNEL
10
7.8587
20
5.1470
30
0.0
11
9.3813
21
3.9787
31
0.0
0
LINE
8
CHANNEL
10
9.3813
20
3.9787
30
0.0
11
11.0000
21
2.9474
31
0.0
0
LINE
8
CHANNEL
10
11.0000
20
2.9474
30
0.0
11
12.7024
21
2.0612
31
0.0
0
LINE
8
CHANNEL
10
12.7024
20
2.0612
30
0.0
11
14.4756
21
1.3268
31
0.0
0
LINE
8
CHANNEL
10
14.4756
20
1.3268
30
0.0
11
16.3060
21
0.7496
31
0.0
0
LINE
8
CHANNEL
10
16.3060
20
0.7496
30
0.0
11
18.1797
21
0.3342
31
0.0
0
LINE
8
CHANNEL
10
18.1797
20
0.3342
30
0.0
11
20.0826
21
0.0837
31
0.0
0
LINE
8
CHANNEL
10
20.0826
20
0.0837
30
0.0
11
22.0000
21
0.0000
31
0.0
0
LINE
8
CHANNEL
10
22.0000
20
0.0000
30
0.0
11
501.0500
21
0.0000
31
0.0
0
LINE
8
REG
10
-74.0000
20
0.0000
30
0.0
11
597.0500
21
0.0000
31
0.0
0
LINE
8
REG
10
261.5250
20
-222.8750
30
0.0
11
261.5250
21
222.8750
31
0.0
0
ENDSEC
0
EOF
