0
SECTION
2
ENTITIES
0
LINE
8
CUT
10
502.7000
20
-34.0000
30
0.0
11
507.5807
21
-33.7869
31
0.0
0
LINE
8
CUT
10
507.5807
20
-33.7869
30
0.0
11
512.4243
21
-33.1492
31
0.0
0
LINE
8
CUT
10
512.4243
20
-33.1492
30
0.0
11
517.1939
21
-32.0918
31
0.0
0
LINE
8
CUT
10
517.1939
20
-32.0918
30
0.0
11
521.8531
21
-30.6228
31
0.0
0
LINE
8
CUT
10
521.8531
20
-30.6228
30
0.0
11
526.3666
21
-28.7532
31
0.0
0
LINE
8
CUT
10
526.3666
20
-28.7532
30
0.0
11
530.7000
21
-26.4974
31
0.0
0
LINE
8
CUT
10
530.7000
20
-26.4974
30
0.0
11
534.8203
21
-23.8725
31
0.0
0
LINE
8
CUT
10
534.8203
20
-23.8725
30
0.0
11
538.6961
21
-20.8985
31
0.0
0
LINE
8
CUT
10
538.6961
20
-20.8985
30
0.0
11
542.2980
21
-17.5980
31
0.0
0
LINE
8
CUT
10
542.2980
20
-17.5980
30
0.0
11
545.5985
21
-13.9961
31
0.0
0
LINE
8
CUT
10
545.5985
20
-13.9961
30
0.0
11
548.5725
21
-10.1203
31
0.0
0
LINE
8
CUT
10
548.5725
20
-10.1203
30
0.0
11
551.1974
21
-6.0000
31
0.0
0
LINE
8
CUT
10
551.1974
20
-6.0000
30
0.0
11
553.4532
21
-1.6666
31
0.0
0
LINE
8
CUT
10
553.4532
20
-1.6666
30
0.0
11
555.3228
21
2.8469
31
0.0
0
LINE
8
CUT
10
555.3228
20
2.8469
30
0.0
11
556.7918
21
7.5061
31
0.0
0
LINE
8
CUT
10
556.7918
20
7.5061
30
0.0
11
557.8492
21
12.2757
31
0.0
0
LINE
8
CUT
10
557.8492
20
12.2757
30
0.0
11
558.4869
21
17.1193
31
0.0
0
LINE
8
CUT
10
558.4869
20
17.1193
30
0.0
11
558.7000
21
22.0000
31
0.0
0
LINE
8
CUT
10
558.7000
20
22.0000
30
0.0
11
558.7000
21
297.4000
31
0.0
0
LINE
8
CUT
10
558.7000
20
297.4000
30
0.0
11
558.4869
21
302.2807
31
0.0
0
LINE
8
CUT
10
558.4869
20
302.2807
30
0.0
11
557.8492
21
307.1243
31
0.0
0
LINE
8
CUT
10
557.8492
20
307.1243
30
0.0
11
556.7918
21
311.8939
31
0.0
0
LINE
8
CUT
10
556.7918
20
311.8939
30
0.0
11
555.3228
21
316.5531
31
0.0
0
LINE
8
CUT
10
555.3228
20
316.5531
30
0.0
11
553.4532
21
321.0666
31
0.0
0
LINE
8
CUT
10
553.4532
20
321.0666
30
0.0
11
551.1974
21
325.4000
31
0.0
0
LINE
8
CUT
10
551.1974
20
325.4000
30
0.0
11
548.5725
21
329.5203
31
0.0
0
LINE
8
CUT
10
548.5725
20
329.5203
30
0.0
11
545.5985
21
333.3961
31
0.0
0
LINE
8
CUT
10
545.5985
20
333.3961
30
0.0
11
542.2980
21
336.9980
31
0.0
0
LINE
8
CUT
10
542.2980
20
336.9980
30
0.0
11
538.6961
21
340.2985
31
0.0
0
LINE
8
CUT
10
538.6961
20
340.2985
30
0.0
11
534.8203
21
343.2725
31
0.0
0
LINE
8
CUT
10
534.8203
20
343.2725
30
0.0
11
530.7000
21
345.8974
31
0.0
0
LINE
8
CUT
10
530.7000
20
345.8974
30
0.0
11
526.3666
21
348.1532
31
0.0
0
LINE
8
CUT
10
526.3666
20
348.1532
30
0.0
11
521.8531
21
350.0228
31
0.0
0
LINE
8
CUT
10
521.8531
20
350.0228
30
0.0
11
517.1939
21
351.4918
31
0.0
0
LINE
8
CUT
10
517.1939
20
351.4918
30
0.0
11
512.4243
21
352.5492
31
0.0
0
LINE
8
CUT
10
512.4243
20
352.5492
30
0.0
11
507.5807
21
353.1869
31
0.0
0
LINE
8
CUT
10
507.5807
20
353.1869
30
0.0
11
502.7000
21
353.4000
31
0.0
0
LINE
8
CUT
10
502.7000
20
353.4000
30
0.0
11
22.0000
21
353.4000
31
0.0
0
LINE
8
CUT
10
22.0000
20
353.4000
30
0.0
11
17.1193
21
353.1869
31
0.0
0
LINE
8
CUT
10
17.1193
20
353.1869
30
0.0
11
12.2757
21
352.5492
31
0.0
0
LINE
8
CUT
10
12.2757
20
352.5492
30
0.0
11
7.5061
21
351.4918
31
0.0
0
LINE
8
CUT
10
7.5061
20
351.4918
30
0.0
11
2.8469
21
350.0228
31
0.0
0
LINE
8
CUT
10
2.8469
20
350.0228
30
0.0
11
-1.6666
21
348.1532
31
0.0
0
LINE
8
CUT
10
-1.6666
20
348.1532
30
0.0
11
-6.0000
21
345.8974
31
0.0
0
LINE
8
CUT
10
-6.0000
20
345.8974
30
0.0
11
-10.1203
21
343.2725
31
0.0
0
LINE
8
CUT
10
-10.1203
20
343.2725
30
0.0
11
-13.9961
21
340.2985
31
0.0
0
LINE
8
CUT
10
-13.9961
20
340.2985
30
0.0
11
-17.5980
21
336.9980
31
0.0
0
LINE
8
CUT
10
-17.5980
20
336.9980
30
0.0
11
-20.8985
21
333.3961
31
0.0
0
LINE
8
CUT
10
-20.8985
20
333.3961
30
0.0
11
-23.8725
21
329.5203
31
0.0
0
LINE
8
CUT
10
-23.8725
20
329.5203
30
0.0
11
-26.4974
21
325.4000
31
0.0
0
LINE
8
CUT
10
-26.4974
20
325.4000
30
0.0
11
-28.7532
21
321.0666
31
0.0
0
LINE
8
CUT
10
-28.7532
20
321.0666
30
0.0
11
-30.6228
21
316.5531
31
0.0
0
LINE
8
CUT
10
-30.6228
20
316.5531
30
0.0
11
-32.0918
21
311.8939
31
0.0
0
LINE
8
CUT
10
-32.0918
20
311.8939
30
0.0
11
-33.1492
21
307.1243
31
0.0
0
LINE
8
CUT
10
-33.1492
20
307.1243
30
0.0
11
-33.7869
21
302.2807
31
0.0
0
LINE
8
CUT
10
-33.7869
20
302.2807
30
0.0
11
-34.0000
21
297.4000
31
0.0
0
LINE
8
CUT
10
-34.0000
20
297.4000
30
0.0
11
-34.0000
21
22.0000
31
0.0
0
LINE
8
CUT
10
-34.0000
20
22.0000
30
0.0
11
-33.7869
21
17.1193
31
0.0
0
LINE
8
CUT
10
-33.7869
20
17.1193
30
0.0
11
-33.1492
21
12.2757
31
0.0
0
LINE
8
CUT
10
-33.1492
20
12.2757
30
0.0
11
-32.0918
21
7.5061
31
0.0
0
LINE
8
CUT
10
-32.0918
20
7.5061
30
0.0
11
-30.6228
21
2.8469
31
0.0
0
LINE
8
CUT
10
-30.6228
20
2.8469
30
0.0
11
-28.7532
21
-1.6666
31
0.0
0
LINE
8
CUT
10
-28.7532
20
-1.6666
30
0.0
11
-26.4974
21
-6.0000
31
0.0
0
LINE
8
CUT
10
-26.4974
20
-6.0000
30
0.0
11
-23.8725
21
-10.1203
31
0.0
0
LINE
8
CUT
10
-23.8725
20
-10.1203
30
0.0
11
-20.8985
21
-13.9961
31
0.0
0
LINE
8
CUT
10
-20.8985
20
-13.9961
30
0.0
11
-17.5980
21
-17.5980
31
0.0
0
LINE
8
CUT
10
-17.5980
20
-17.5980
30
0.0
11
-13.9961
21
-20.8985
31
0.0
0
LINE
8
CUT
10
-13.9961
20
-20.8985
30
0.0
11
-10.1203
21
-23.8725
31
0.0
0
LINE
8
CUT
10
-10.1203
20
-23.8725
30
0.0
11
-6.0000
21
-26.4974
31
0.0
0
LINE
8
CUT
10
-6.0000
20
-26.4974
30
0.0
11
-1.6666
21
-28.7532
31
0.0
0
LINE
8
CUT
10
-1.6666
20
-28.7532
30
0.0
11
2.8469
21
-30.6228
31
0.0
0
LINE
8
CUT
10
2.8469
20
-30.6228
30
0.0
11
7.5061
21
-32.0918
31
0.0
0
LINE
8
CUT
10
7.5061
20
-32.0918
30
0.0
11
12.2757
21
-33.1492
31
0.0
0
LINE
8
CUT
10
12.2757
20
-33.1492
30
0.0
11
17.1193
21
-33.7869
31
0.0
0
LINE
8
CUT
10
17.1193
20
-33.7869
30
0.0
11
22.0000
21
-34.0000
31
0.0
0
LINE
8
CUT
10
22.0000
20
-34.0000
30
0.0
11
502.7000
21
-34.0000
31
0.0
0
LINE
8
CHANNEL
10
502.7000
20
0.0000
30
0.0
11
504.6174
21
0.0837
31
0.0
0
LINE
8
CHANNEL
10
504.6174
20
0.0837
30
0.0
11
506.5203
21
0.3342
31
0.0
0
LINE
8
CHANNEL
10
506.5203
20
0.3342
30
0.0
11
508.3940
21
0.7496
31
0.0
0
LINE
8
CHANNEL
10
508.3940
20
0.7496
30
0.0
11
510.2244
21
1.3268
31
0.0
0
LINE
8
CHANNEL
10
510.2244
20
1.3268
30
0.0
11
511.9976
21
2.0612
31
0.0
0
LINE
8
CHANNEL
10
511.9976
20
2.0612
30
0.0
11
513.7000
21
2.9474
31
0.0
0
LINE
8
CHANNEL
10
513.7000
20
2.9474
30
0.0
11
515.3187
21
3.9787
31
0.0
0
LINE
8
CHANNEL
10
515.3187
20
3.9787
30
0.0
11
516.8413
21
5.1470
31
0.0
0
LINE
8
CHANNEL
10
516.8413
20
5.1470
30
0.0
11
518.2563
21
6.4437
31
0.0
0
LINE
8
CHANNEL
10
518.2563
20
6.4437
30
0.0
11
519.5530
21
7.8587
31
0.0
0
LINE
8
CHANNEL
10
519.5530
20
7.8587
30
0.0
11
520.7213
21
9.3813
31
0.0
0
LINE
8
CHANNEL
10
520.7213
20
9.3813
30
0.0
11
521.7526
21
11.0000
31
0.0
0
LINE
8
CHANNEL
10
521.7526
20
11.0000
30
0.0
11
522.6388
21
12.7024
31
0.0
0
LINE
8
CHANNEL
10
522.6388
20
12.7024
30
0.0
11
523.3732
21
14.4756
31
0.0
0
LINE
8
CHANNEL
10
523.3732
20
14.4756
30
0.0
11
523.9504
21
16.3060
31
0.0
0
LINE
8
CHANNEL
10
523.9504
20
16.3060
30
0.0
11
524.3658
21
18.1797
31
0.0
0
LINE
8
CHANNEL
10
524.3658
20
18.1797
30
0.0
11
524.6163
21
20.0826
31
0.0
0
LINE
8
CHANNEL
10
524.6163
20
20.0826
30
0.0
11
524.7000
21
22.0000
31
0.0
0
LINE
8
CHANNEL
10
524.7000
20
22.0000
30
0.0
11
524.7000
21
297.4000
31
0.0
0
LINE
8
CHANNEL
10
524.7000
20
297.4000
30
0.0
11
524.6163
21
299.3174
31
0.0
0
LINE
8
CHANNEL
10
524.6163
20
299.3174
30
0.0
11
524.3658
21
301.2203
31
0.0
0
LINE
8
CHANNEL
10
524.3658
20
301.2203
30
0.0
11
523.9504
21
303.0940
31
0.0
0
LINE
8
CHANNEL
10
523.9504
20
303.0940
30
0.0
11
523.3732
21
304.9244
31
0.0
0
LINE
8
CHANNEL
10
523.3732
20
304.9244
30
0.0
11
522.6388
21
306.6976
31
0.0
0
LINE
8
CHANNEL
10
522.6388
20
306.6976
30
0.0
11
521.7526
21
308.4000
31
0.0
0
LINE
8
CHANNEL
10
521.7526
20
308.4000
30
0.0
11
520.7213
21
310.0187
31
0.0
0
LINE
8
CHANNEL
10
520.7213
20
310.0187
30
0.0
11
519.5530
21
311.5413
31
0.0
0
LINE
8
CHANNEL
10
519.5530
20
311.5413
30
0.0
11
518.2563
21
312.9563
31
0.0
0
LINE
8
CHANNEL
10
518.2563
20
312.9563
30
0.0
11
516.8413
21
314.2530
31
0.0
0
LINE
8
CHANNEL
10
516.8413
20
314.2530
30
0.0
11
515.3187
21
315.4213
31
0.0
0
LINE
8
CHANNEL
10
515.3187
20
315.4213
30
0.0
11
513.7000
21
316.4526
31
0.0
0
LINE
8
CHANNEL
10
513.7000
20
316.4526
30
0.0
11
511.9976
21
317.3388
31
0.0
0
LINE
8
CHANNEL
10
511.9976
20
317.3388
30
0.0
11
510.2244
21
318.0732
31
0.0
0
LINE
8
CHANNEL
10
510.2244
20
318.0732
30
0.0
11
508.3940
21
318.6504
31
0.0
0
LINE
8
CHANNEL
10
508.3940
20
318.6504
30
0.0
11
506.5203
21
319.0658
31
0.0
0
LINE
8
CHANNEL
10
506.5203
20
319.0658
30
0.0
11
504.6174
21
319.3163
31
0.0
0
LINE
8
CHANNEL
10
504.6174
20
319.3163
30
0.0
11
502.7000
21
319.4000
31
0.0
0
LINE
8
CHANNEL
10
502.7000
20
319.4000
30
0.0
11
22.0000
21
319.4000
31
0.0
0
LINE
8
CHANNEL
10
22.0000
20
319.4000
30
0.0
11
20.0826
21
319.3163
31
0.0
0
LINE
8
CHANNEL
10
20.0826
20
319.3163
30
0.0
11
18.1797
21
319.0658
31
0.0
0
LINE
8
CHANNEL
10
18.1797
20
319.0658
30
0.0
11
16.3060
21
318.6504
31
0.0
0
LINE
8
CHANNEL
10
16.3060
20
318.6504
30
0.0
11
14.4756
21
318.0732
31
0.0
0
LINE
8
CHANNEL
10
14.4756
20
318.0732
30
0.0
11
12.7024
21
317.3388
31
0.0
0
LINE
8
CHANNEL
10
12.7024
20
317.3388
30
0.0
11
11.0000
21
316.4526
31
0.0
0
LINE
8
CHANNEL
10
11.0000
20
316.4526
30
0.0
11
9.3813
21
315.4213
31
0.0
0
LINE
8
CHANNEL
10
9.3813
20
315.4213
30
0.0
11
7.8587
21
314.2530
31
0.0
0
LINE
8
CHANNEL
10
7.8587
20
314.2530
30
0.0
11
6.4437
21
312.9563
31
0.0
0
LINE
8
CHANNEL
10
6.4437
20
312.9563
30
0.0
11
5.1470
21
311.5413
31
0.0
0
LINE
8
CHANNEL
10
5.1470
20
311.5413
30
0.0
11
3.9787
21
310.0187
31
0.0
0
LINE
8
CHANNEL
10
3.9787
20
310.0187
30
0.0
11
2.9474
21
308.4000
31
0.0
0
LINE
8
CHANNEL
10
2.9474
20
308.4000
30
0.0
11
2.0612
21
306.6976
31
0.0
0
LINE
8
CHANNEL
10
2.0612
20
306.6976
30
0.0
11
1.3268
21
304.9244
31
0.0
0
LINE
8
CHANNEL
10
1.3268
20
304.9244
30
0.0
11
0.7496
21
303.0940
31
0.0
0
LINE
8
CHANNEL
10
0.7496
20
303.0940
30
0.0
11
0.3342
21
301.2203
31
0.0
0
LINE
8
CHANNEL
10
0.3342
20
301.2203
30
0.0
11
0.0837
21
299.3174
31
0.0
0
LINE
8
CHANNEL
10
0.0837
20
299.3174
30
0.0
11
0.0000
21
297.4000
31
0.0
0
LINE
8
CHANNEL
10
0.0000
20
297.4000
30
0.0
11
0.0000
21
22.0000
31
0.0
0
LINE
8
CHANNEL
10
0.0000
20
22.0000
30
0.0
11
0.0837
21
20.0826
31
0.0
0
LINE
8
CHANNEL
10
0.0837
20
20.0826
30
0.0
11
0.3342
21
18.1797
31
0.0
0
LINE
8
CHANNEL
10
0.3342
20
18.1797
30
0.0
11
0.7496
21
16.3060
31
0.0
0
LINE
8
CHANNEL
10
0.7496
20
16.3060
30
0.0
11
1.3268
21
14.4756
31
0.0
0
LINE
8
CHANNEL
10
1.3268
20
14.4756
30
0.0
11
2.0612
21
12.7024
31
0.0
0
LINE
8
CHANNEL
10
2.0612
20
12.7024
30
0.0
11
2.9474
21
11.0000
31
0.0
0
LINE
8
CHANNEL
10
2.9474
20
11.0000
30
0.0
11
3.9787
21
9.3813
31
0.0
0
LINE
8
CHANNEL
10
3.9787
20
9.3813
30
0.0
11
5.1470
21
7.8587
31
0.0
0
LINE
8
CHANNEL
10
5.1470
20
7.8587
30
0.0
11
6.4437
21
6.4437
31
0.0
0
LINE
8
CHANNEL
10
6.4437
20
6.4437
30
0.0
11
7.8587
21
5.1470
31
0.0
0
LINE
8
CHANNEL
10
7.8587
20
5.1470
30
0.0
11
9.3813
21
3.9787
31
0.0
0
LINE
8
CHANNEL
10
9.3813
20
3.9787
30
0.0
11
11.0000
21
2.9474
31
0.0
0
LINE
8
CHANNEL
10
11.0000
20
2.9474
30
0.0
11
12.7024
21
2.0612
31
0.0
0
LINE
8
CHANNEL
10
12.7024
20
2.0612
30
0.0
11
14.4756
21
1.3268
31
0.0
0
LINE
8
CHANNEL
10
14.4756
20
1.3268
30
0.0
11
16.3060
21
0.7496
31
0.0
0
LINE
8
CHANNEL
10
16.3060
20
0.7496
30
0.0
11
18.1797
21
0.3342
31
0.0
0
LINE
8
CHANNEL
10
18.1797
20
0.3342
30
0.0
11
20.0826
21
0.0837
31
0.0
0
LINE
8
CHANNEL
10
20.0826
20
0.0837
30
0.0
11
22.0000
21
0.0000
31
0.0
0
LINE
8
CHANNEL
10
22.0000
20
0.0000
30
0.0
11
502.7000
21
0.0000
31
0.0
0
LINE
8
REG
10
-74.0000
20
0.0000
30
0.0
11
598.7000
21
0.0000
31
0.0
0
LINE
8
REG
10
262.3500
20
-223.7000
30
0.0
11
262.3500
21
223.7000
31
0.0
0
ENDSEC
0
EOF
