0
SECTION
2
ENTITIES
0
LINE
8
CUT
10
400.0000
20
-177.5000
30
0.0
11
402.6147
21
-177.3858
31
0.0
0
LINE
8
CUT
10
402.6147
20
-177.3858
30
0.0
11
405.2094
21
-177.0442
31
0.0
0
LINE
8
CUT
10
405.2094
20
-177.0442
30
0.0
11
407.7646
21
-176.4778
31
0.0
0
LINE
8
CUT
10
407.7646
20
-176.4778
30
0.0
11
410.2606
21
-175.6908
31
0.0
0
LINE
8
CUT
10
410.2606
20
-175.6908
30
0.0
11
412.6785
21
-174.6892
31
0.0
0
LINE
8
CUT
10
412.6785
20
-174.6892
30
0.0
11
415.0000
21
-173.4808
31
0.0
0
LINE
8
CUT
10
415.0000
20
-173.4808
30
0.0
11
417.2073
21
-172.0746
31
0.0
0
LINE
8
CUT
10
417.2073
20
-172.0746
30
0.0
11
419.2836
21
-170.4813
31
0.0
0
LINE
8
CUT
10
419.2836
20
-170.4813
30
0.0
11
421.2132
21
-168.7132
31
0.0
0
LINE
8
CUT
10
421.2132
20
-168.7132
30
0.0
11
422.9813
21
-166.7836
31
0.0
0
LINE
8
CUT
10
422.9813
20
-166.7836
30
0.0
11
424.5746
21
-164.7073
31
0.0
0
LINE
8
CUT
10
424.5746
20
-164.7073
30
0.0
11
425.9808
21
-162.5000
31
0.0
0
LINE
8
CUT
10
425.9808
20
-162.5000
30
0.0
11
427.1892
21
-160.1785
31
0.0
0
LINE
8
CUT
10
427.1892
20
-160.1785
30
0.0
11
428.1908
21
-157.7606
31
0.0
0
LINE
8
CUT
10
428.1908
20
-157.7606
30
0.0
11
428.9778
21
-155.2646
31
0.0
0
LINE
8
CUT
10
428.9778
20
-155.2646
30
0.0
11
429.5442
21
-152.7094
31
0.0
0
LINE
8
CUT
10
429.5442
20
-152.7094
30
0.0
11
429.8858
21
-150.1147
31
0.0
0
LINE
8
CUT
10
429.8858
20
-150.1147
30
0.0
11
430.0000
21
-147.5000
31
0.0
0
LINE
8
CUT
10
430.0000
20
-147.5000
30
0.0
11
430.0000
21
147.5000
31
0.0
0
LINE
8
CUT
10
430.0000
20
147.5000
30
0.0
11
429.8858
21
150.1147
31
0.0
0
LINE
8
CUT
10
429.8858
20
150.1147
30
0.0
11
429.5442
21
152.7094
31
0.0
0
LINE
8
CUT
10
429.5442
20
152.7094
30
0.0
11
428.9778
21
155.2646
31
0.0
0
LINE
8
CUT
10
428.9778
20
155.2646
30
0.0
11
428.1908
21
157.7606
31
0.0
0
LINE
8
CUT
10
428.1908
20
157.7606
30
0.0
11
427.1892
21
160.1785
31
0.0
0
LINE
8
CUT
10
427.1892
20
160.1785
30
0.0
11
425.9808
21
162.5000
31
0.0
0
LINE
8
CUT
10
425.9808
20
162.5000
30
0.0
11
424.5746
21
164.7073
31
0.0
0
LINE
8
CUT
10
424.5746
20
164.7073
30
0.0
11
422.9813
21
166.7836
31
0.0
0
LINE
8
CUT
10
422.9813
20
166.7836
30
0.0
11
421.2132
21
168.7132
31
0.0
0
LINE
8
CUT
10
421.2132
20
168.7132
30
0.0
11
419.2836
21
170.4813
31
0.0
0
LINE
8
CUT
10
419.2836
20
170.4813
30
0.0
11
417.2073
21
172.0746
31
0.0
0
LINE
8
CUT
10
417.2073
20
172.0746
30
0.0
11
415.0000
21
173.4808
31
0.0
0
LINE
8
CUT
10
415.0000
20
173.4808
30
0.0
11
412.6785
21
174.6892
31
0.0
0
LINE
8
CUT
10
412.6785
20
174.6892
30
0.0
11
410.2606
21
175.6908
31
0.0
0
LINE
8
CUT
10
410.2606
20
175.6908
30
0.0
11
407.7646
21
176.4778
31
0.0
0
LINE
8
CUT
10
407.7646
20
176.4778
30
0.0
11
405.2094
21
177.0442
31
0.0
0
LINE
8
CUT
10
405.2094
20
177.0442
30
0.0
11
402.6147
21
177.3858
31
0.0
0
LINE
8
CUT
10
402.6147
20
177.3858
30
0.0
11
400.0000
21
177.5000
31
0.0
0
LINE
8
CUT
10
400.0000
20
177.5000
30
0.0
11
30.0000
21
177.5000
31
0.0
0
LINE
8
CUT
10
30.0000
20
177.5000
30
0.0
11
27.3853
21
177.3858
31
0.0
0
LINE
8
CUT
10
27.3853
20
177.3858
30
0.0
11
24.7906
21
177.0442
31
0.0
0
LINE
8
CUT
10
24.7906
20
177.0442
30
0.0
11
22.2354
21
176.4778
31
0.0
0
LINE
8
CUT
10
22.2354
20
176.4778
30
0.0
11
19.7394
21
175.6908
31
0.0
0
LINE
8
CUT
10
19.7394
20
175.6908
30
0.0
11
17.3215
21
174.6892
31
0.0
0
LINE
8
CUT
10
17.3215
20
174.6892
30
0.0
11
15.0000
21
173.4808
31
0.0
0
LINE
8
CUT
10
15.0000
20
173.4808
30
0.0
11
12.7927
21
172.0746
31
0.0
0
LINE
8
CUT
10
12.7927
20
172.0746
30
0.0
11
10.7164
21
170.4813
31
0.0
0
LINE
8
CUT
10
10.7164
20
170.4813
30
0.0
11
8.7868
21
168.7132
31
0.0
0
LINE
8
CUT
10
8.7868
20
168.7132
30
0.0
11
7.0187
21
166.7836
31
0.0
0
LINE
8
CUT
10
7.0187
20
166.7836
30
0.0
11
5.4254
21
164.7073
31
0.0
0
LINE
8
CUT
10
5.4254
20
164.7073
30
0.0
11
4.0192
21
162.5000
31
0.0
0
LINE
8
CUT
10
4.0192
20
162.5000
30
0.0
11
2.8108
21
160.1785
31
0.0
0
LINE
8
CUT
10
2.8108
20
160.1785
30
0.0
11
1.8092
21
157.7606
31
0.0
0
LINE
8
CUT
10
1.8092
20
157.7606
30
0.0
11
1.0222
21
155.2646
31
0.0
0
LINE
8
CUT
10
1.0222
20
155.2646
30
0.0
11
0.4558
21
152.7094
31
0.0
0
LINE
8
CUT
10
0.4558
20
152.7094
30
0.0
11
0.1142
21
150.1147
31
0.0
0
LINE
8
CUT
10
0.1142
20
150.1147
30
0.0
11
0.0000
21
147.5000
31
0.0
0
LINE
8
CUT
10
0.0000
20
147.5000
30
0.0
11
0.0000
21
-147.5000
31
0.0
0
LINE
8
CUT
10
0.0000
20
-147.5000
30
0.0
11
0.1142
21
-150.1147
31
0.0
0
LINE
8
CUT
10
0.1142
20
-150.1147
30
0.0
11
0.4558
21
-152.7094
31
0.0
0
LINE
8
CUT
10
0.4558
20
-152.7094
30
0.0
11
1.0222
21
-155.2646
31
0.0
0
LINE
8
CUT
10
1.0222
20
-155.2646
30
0.0
11
1.8092
21
-157.7606
31
0.0
0
LINE
8
CUT
10
1.8092
20
-157.7606
30
0.0
11
2.8108
21
-160.1785
31
0.0
0
LINE
8
CUT
10
2.8108
20
-160.1785
30
0.0
11
4.0192
21
-162.5000
31
0.0
0
LINE
8
CUT
10
4.0192
20
-162.5000
30
0.0
11
5.4254
21
-164.7073
31
0.0
0
LINE
8
CUT
10
5.4254
20
-164.7073
30
0.0
11
7.0187
21
-166.7836
31
0.0
0
LINE
8
CUT
10
7.0187
20
-166.7836
30
0.0
11
8.7868
21
-168.7132
31
0.0
0
LINE
8
CUT
10
8.7868
20
-168.7132
30
0.0
11
10.7164
21
-170.4813
31
0.0
0
LINE
8
CUT
10
10.7164
20
-170.4813
30
0.0
11
12.7927
21
-172.0746
31
0.0
0
LINE
8
CUT
10
12.7927
20
-172.0746
30
0.0
11
15.0000
21
-173.4808
31
0.0
0
LINE
8
CUT
10
15.0000
20
-173.4808
30
0.0
11
17.3215
21
-174.6892
31
0.0
0
LINE
8
CUT
10
17.3215
20
-174.6892
30
0.0
11
19.7394
21
-175.6908
31
0.0
0
LINE
8
CUT
10
19.7394
20
-175.6908
30
0.0
11
22.2354
21
-176.4778
31
0.0
0
LINE
8
CUT
10
22.2354
20
-176.4778
30
0.0
11
24.7906
21
-177.0442
31
0.0
0
LINE
8
CUT
10
24.7906
20
-177.0442
30
0.0
11
27.3853
21
-177.3858
31
0.0
0
LINE
8
CUT
10
27.3853
20
-177.3858
30
0.0
11
30.0000
21
-177.5000
31
0.0
0
LINE
8
CUT
10
30.0000
20
-177.5000
30
0.0
11
400.0000
21
-177.5000
31
0.0
0
LINE
8
CHANNEL
10
90.0000
20
-87.5000
30
0.0
11
340.0000
21
-87.5000
31
0.0
0
LINE
8
CHANNEL
10
340.0000
20
-87.5000
30
0.0
11
340.0000
21
87.5000
31
0.0
0
LINE
8
CHANNEL
10
340.0000
20
87.5000
30
0.0
11
90.0000
21
87.5000
31
0.0
0
LINE
8
CHANNEL
10
90.0000
20
87.5000
30
0.0
11
90.0000
21
-87.5000
31
0.0
0
LINE
8
REG
10
-40.0000
20
0.0000
30
0.0
11
470.0000
21
0.0000
31
0.0
0
LINE
8
REG
10
215.0000
20
-207.5000
30
0.0
11
215.0000
21
207.5000
31
0.0
0
ENDSEC
0
EOF
