0
SECTION
2
ENTITIES
0
LINE
8
CUT
10
0.0000
20
0.0000
30
0.0
11
70.0000
21
0.0000
31
0.0
0
LINE
8
CUT
10
70.0000
20
0.0000
30
0.0
11
70.0000
21
70.0000
31
0.0
0
LINE
8
CUT
10
70.0000
20
70.0000
30
0.0
11
0.0000
21
70.0000
31
0.0
0
LINE
8
CUT
10
0.0000
20
70.0000
30
0.0
11
0.0000
21
0.0000
31
0.0
0
CIRCLE
8
HOLES
10
35.0000
20
35.0000
30
0.0
40
15.0800
0
LINE
8
REG
10
-25.0000
20
0.0000
30
0.0
11
95.0000
21
0.0000
31
0.0
0
LINE
8
REG
10
35.0000
20
-55.0000
30
0.0
11
35.0000
21
55.0000
31
0.0
0
ENDSEC
0
EOF
