0
SECTION
2
ENTITIES
0
LINE
8
CUT
10
0.0000
20
0.0000
30
0.0
11
12.8301
21
0.0043
31
0.0
0
LINE
8
CUT
10
12.8301
20
0.0043
30
0.0
11
25.6603
21
0.0172
31
0.0
0
LINE
8
CUT
10
25.6603
20
0.0172
30
0.0
11
38.4904
21
0.0386
31
0.0
0
LINE
8
CUT
10
38.4904
20
0.0386
30
0.0
11
51.3206
21
0.0686
31
0.0
0
LINE
8
CUT
10
51.3206
20
0.0686
30
0.0
11
64.1507
21
0.1073
31
0.0
0
LINE
8
CUT
10
64.1507
20
0.1073
30
0.0
11
76.9809
21
0.1545
31
0.0
0
LINE
8
CUT
10
76.9809
20
0.1545
30
0.0
11
89.8110
21
0.2102
31
0.0
0
LINE
8
CUT
10
89.8110
20
0.2102
30
0.0
11
102.6411
21
0.2746
31
0.0
0
LINE
8
CUT
10
102.6411
20
0.2746
30
0.0
11
115.4713
21
0.3475
31
0.0
0
LINE
8
CUT
10
115.4713
20
0.3475
30
0.0
11
128.3014
21
0.4290
31
0.0
0
LINE
8
CUT
10
128.3014
20
0.4290
30
0.0
11
141.1316
21
0.5191
31
0.0
0
LINE
8
CUT
10
141.1316
20
0.5191
30
0.0
11
153.9617
21
0.6178
31
0.0
0
LINE
8
CUT
10
153.9617
20
0.6178
30
0.0
11
166.7919
21
0.7251
31
0.0
0
LINE
8
CUT
10
166.7919
20
0.7251
30
0.0
11
179.6220
21
0.8409
31
0.0
0
LINE
8
CUT
10
179.6220
20
0.8409
30
0.0
11
192.4522
21
0.9653
31
0.0
0
LINE
8
CUT
10
192.4522
20
0.9653
30
0.0
11
205.2823
21
1.0983
31
0.0
0
LINE
8
CUT
10
205.2823
20
1.0983
30
0.0
11
218.1124
21
1.2399
31
0.0
0
LINE
8
CUT
10
218.1124
20
1.2399
30
0.0
11
230.9426
21
1.3901
31
0.0
0
LINE
8
CUT
10
230.9426
20
1.3901
30
0.0
11
243.7727
21
1.5488
31
0.0
0
LINE
8
CUT
10
243.7727
20
1.5488
30
0.0
11
245.2006
21
4.0835
31
0.0
0
LINE
8
CUT
10
245.2006
20
4.0835
30
0.0
11
246.9172
21
6.2931
31
0.0
0
LINE
8
CUT
10
246.9172
20
6.2931
30
0.0
11
248.8778
21
8.2095
31
0.0
0
LINE
8
CUT
10
248.8778
20
8.2095
30
0.0
11
251.0373
21
9.8649
31
0.0
0
LINE
8
CUT
10
251.0373
20
9.8649
30
0.0
11
253.3509
21
11.2913
31
0.0
0
LINE
8
CUT
10
253.3509
20
11.2913
30
0.0
11
255.7736
21
12.5207
31
0.0
0
LINE
8
CUT
10
255.7736
20
12.5207
30
0.0
11
258.2606
21
13.5850
31
0.0
0
LINE
8
CUT
10
258.2606
20
13.5850
30
0.0
11
260.7670
21
14.5165
31
0.0
0
LINE
8
CUT
10
260.7670
20
14.5165
30
0.0
11
263.2477
21
15.3470
31
0.0
0
LINE
8
CUT
10
263.2477
20
15.3470
30
0.0
11
265.6580
21
16.1085
31
0.0
0
LINE
8
CUT
10
265.6580
20
16.1085
30
0.0
11
267.9529
21
16.8332
31
0.0
0
LINE
8
CUT
10
267.9529
20
16.8332
30
0.0
11
270.0876
21
17.5531
31
0.0
0
LINE
8
CUT
10
270.0876
20
17.5531
30
0.0
11
272.0170
21
18.3002
31
0.0
0
LINE
8
CUT
10
272.0170
20
18.3002
30
0.0
11
273.6963
21
19.1064
31
0.0
0
LINE
8
CUT
10
273.6963
20
19.1064
30
0.0
11
275.0807
21
20.0039
31
0.0
0
LINE
8
CUT
10
275.0807
20
20.0039
30
0.0
11
276.1251
21
21.0246
31
0.0
0
LINE
8
CUT
10
276.1251
20
21.0246
30
0.0
11
276.7846
21
22.2007
31
0.0
0
LINE
8
CUT
10
276.7846
20
22.2007
30
0.0
11
277.0145
21
23.5640
31
0.0
0
LINE
8
CUT
10
277.0145
20
23.5640
30
0.0
11
276.8346
21
30.1553
31
0.0
0
LINE
8
CUT
10
276.8346
20
30.1553
30
0.0
11
276.3030
21
36.9130
31
0.0
0
LINE
8
CUT
10
276.3030
20
36.9130
30
0.0
11
275.4314
21
43.7975
31
0.0
0
LINE
8
CUT
10
275.4314
20
43.7975
30
0.0
11
274.2315
21
50.7690
31
0.0
0
LINE
8
CUT
10
274.2315
20
50.7690
30
0.0
11
272.7152
21
57.7877
31
0.0
0
LINE
8
CUT
10
272.7152
20
57.7877
30
0.0
11
270.8942
21
64.8139
31
0.0
0
LINE
8
CUT
10
270.8942
20
64.8139
30
0.0
11
268.7803
21
71.8079
31
0.0
0
LINE
8
CUT
10
268.7803
20
71.8079
30
0.0
11
266.3853
21
78.7299
31
0.0
0
LINE
8
CUT
10
266.3853
20
78.7299
30
0.0
11
263.7210
21
85.5403
31
0.0
0
LINE
8
CUT
10
263.7210
20
85.5403
30
0.0
11
260.7992
21
92.1993
31
0.0
0
LINE
8
CUT
10
260.7992
20
92.1993
30
0.0
11
257.6316
21
98.6671
31
0.0
0
LINE
8
CUT
10
257.6316
20
98.6671
30
0.0
11
254.2300
21
104.9040
31
0.0
0
LINE
8
CUT
10
254.2300
20
104.9040
30
0.0
11
250.6063
21
110.8703
31
0.0
0
LINE
8
CUT
10
250.6063
20
110.8703
30
0.0
11
246.7721
21
116.5262
31
0.0
0
LINE
8
CUT
10
246.7721
20
116.5262
30
0.0
11
242.7393
21
121.8321
31
0.0
0
LINE
8
CUT
10
242.7393
20
121.8321
30
0.0
11
238.5197
21
126.7481
31
0.0
0
LINE
8
CUT
10
238.5197
20
126.7481
30
0.0
11
234.1250
21
131.2346
31
0.0
0
LINE
8
CUT
10
234.1250
20
131.2346
30
0.0
11
229.5671
21
135.2518
31
0.0
0
LINE
8
CUT
10
229.5671
20
135.2518
30
0.0
11
224.8576
21
138.7600
31
0.0
0
LINE
8
CUT
10
224.8576
20
138.7600
30
0.0
11
220.0085
21
141.7195
31
0.0
0
LINE
8
CUT
10
220.0085
20
141.7195
30
0.0
11
215.0314
21
144.0904
31
0.0
0
LINE
8
CUT
10
215.0314
20
144.0904
30
0.0
11
209.9382
21
145.8331
31
0.0
0
LINE
8
CUT
10
209.9382
20
145.8331
30
0.0
11
204.7406
21
146.9079
31
0.0
0
LINE
8
CUT
10
204.7406
20
146.9079
30
0.0
11
199.4504
21
147.2750
31
0.0
0
LINE
8
CUT
10
199.4504
20
147.2750
30
0.0
11
189.4779
21
147.2750
31
0.0
0
LINE
8
CUT
10
189.4779
20
147.2750
30
0.0
11
179.5054
21
147.2750
31
0.0
0
LINE
8
CUT
10
179.5054
20
147.2750
30
0.0
11
169.5329
21
147.2750
31
0.0
0
LINE
8
CUT
10
169.5329
20
147.2750
30
0.0
11
159.5603
21
147.2750
31
0.0
0
LINE
8
CUT
10
159.5603
20
147.2750
30
0.0
11
149.5878
21
147.2750
31
0.0
0
LINE
8
CUT
10
149.5878
20
147.2750
30
0.0
11
139.6153
21
147.2750
31
0.0
0
LINE
8
CUT
10
139.6153
20
147.2750
30
0.0
11
129.6428
21
147.2750
31
0.0
0
LINE
8
CUT
10
129.6428
20
147.2750
30
0.0
11
119.6702
21
147.2750
31
0.0
0
LINE
8
CUT
10
119.6702
20
147.2750
30
0.0
11
109.6977
21
147.2750
31
0.0
0
LINE
8
CUT
10
109.6977
20
147.2750
30
0.0
11
99.7252
21
147.2750
31
0.0
0
LINE
8
CUT
10
99.7252
20
147.2750
30
0.0
11
89.7527
21
147.2750
31
0.0
0
LINE
8
CUT
10
89.7527
20
147.2750
30
0.0
11
79.7802
21
147.2750
31
0.0
0
LINE
8
CUT
10
79.7802
20
147.2750
30
0.0
11
69.8076
21
147.2750
31
0.0
0
LINE
8
CUT
10
69.8076
20
147.2750
30
0.0
11
59.8351
21
147.2750
31
0.0
0
LINE
8
CUT
10
59.8351
20
147.2750
30
0.0
11
49.8626
21
147.2750
31
0.0
0
LINE
8
CUT
10
49.8626
20
147.2750
30
0.0
11
39.8901
21
147.2750
31
0.0
0
LINE
8
CUT
10
39.8901
20
147.2750
30
0.0
11
29.9176
21
147.2750
31
0.0
0
LINE
8
CUT
10
29.9176
20
147.2750
30
0.0
11
19.9450
21
147.2750
31
0.0
0
LINE
8
CUT
10
19.9450
20
147.2750
30
0.0
11
9.9725
21
147.2750
31
0.0
0
LINE
8
CUT
10
9.9725
20
147.2750
30
0.0
11
0.0000
21
147.2750
31
0.0
0
LINE
8
CUT
10
0.0000
20
147.2750
30
0.0
11
-0.0000
21
147.2750
31
0.0
0
LINE
8
CUT
10
-0.0000
20
147.2750
30
0.0
11
-9.9725
21
147.2750
31
0.0
0
LINE
8
CUT
10
-9.9725
20
147.2750
30
0.0
11
-19.9450
21
147.2750
31
0.0
0
LINE
8
CUT
10
-19.9450
20
147.2750
30
0.0
11
-29.9176
21
147.2750
31
0.0
0
LINE
8
CUT
10
-29.9176
20
147.2750
30
0.0
11
-39.8901
21
147.2750
31
0.0
0
LINE
8
CUT
10
-39.8901
20
147.2750
30
0.0
11
-49.8626
21
147.2750
31
0.0
0
LINE
8
CUT
10
-49.8626
20
147.2750
30
0.0
11
-59.8351
21
147.2750
31
0.0
0
LINE
8
CUT
10
-59.8351
20
147.2750
30
0.0
11
-69.8076
21
147.2750
31
0.0
0
LINE
8
CUT
10
-69.8076
20
147.2750
30
0.0
11
-79.7802
21
147.2750
31
0.0
0
LINE
8
CUT
10
-79.7802
20
147.2750
30
0.0
11
-89.7527
21
147.2750
31
0.0
0
LINE
8
CUT
10
-89.7527
20
147.2750
30
0.0
11
-99.7252
21
147.2750
31
0.0
0
LINE
8
CUT
10
-99.7252
20
147.2750
30
0.0
11
-109.6977
21
147.2750
31
0.0
0
LINE
8
CUT
10
-109.6977
20
147.2750
30
0.0
11
-119.6702
21
147.2750
31
0.0
0
LINE
8
CUT
10
-119.6702
20
147.2750
30
0.0
11
-129.6428
21
147.2750
31
0.0
0
LINE
8
CUT
10
-129.6428
20
147.2750
30
0.0
11
-139.6153
21
147.2750
31
0.0
0
LINE
8
CUT
10
-139.6153
20
147.2750
30
0.0
11
-149.5878
21
147.2750
31
0.0
0
LINE
8
CUT
10
-149.5878
20
147.2750
30
0.0
11
-159.5603
21
147.2750
31
0.0
0
LINE
8
CUT
10
-159.5603
20
147.2750
30
0.0
11
-169.5329
21
147.2750
31
0.0
0
LINE
8
CUT
10
-169.5329
20
147.2750
30
0.0
11
-179.5054
21
147.2750
31
0.0
0
LINE
8
CUT
10
-179.5054
20
147.2750
30
0.0
11
-189.4779
21
147.2750
31
0.0
0
LINE
8
CUT
10
-189.4779
20
147.2750
30
0.0
11
-199.4504
21
147.2750
31
0.0
0
LINE
8
CUT
10
-199.4504
20
147.2750
30
0.0
11
-204.7406
21
146.9079
31
0.0
0
LINE
8
CUT
10
-204.7406
20
146.9079
30
0.0
11
-209.9382
21
145.8331
31
0.0
0
LINE
8
CUT
10
-209.9382
20
145.8331
30
0.0
11
-215.0314
21
144.0904
31
0.0
0
LINE
8
CUT
10
-215.0314
20
144.0904
30
0.0
11
-220.0085
21
141.7195
31
0.0
0
LINE
8
CUT
10
-220.0085
20
141.7195
30
0.0
11
-224.8576
21
138.7600
31
0.0
0
LINE
8
CUT
10
-224.8576
20
138.7600
30
0.0
11
-229.5671
21
135.2518
31
0.0
0
LINE
8
CUT
10
-229.5671
20
135.2518
30
0.0
11
-234.1250
21
131.2346
31
0.0
0
LINE
8
CUT
10
-234.1250
20
131.2346
30
0.0
11
-238.5197
21
126.7481
31
0.0
0
LINE
8
CUT
10
-238.5197
20
126.7481
30
0.0
11
-242.7393
21
121.8321
31
0.0
0
LINE
8
CUT
10
-242.7393
20
121.8321
30
0.0
11
-246.7721
21
116.5262
31
0.0
0
LINE
8
CUT
10
-246.7721
20
116.5262
30
0.0
11
-250.6063
21
110.8703
31
0.0
0
LINE
8
CUT
10
-250.6063
20
110.8703
30
0.0
11
-254.2300
21
104.9040
31
0.0
0
LINE
8
CUT
10
-254.2300
20
104.9040
30
0.0
11
-257.6316
21
98.6671
31
0.0
0
LINE
8
CUT
10
-257.6316
20
98.6671
30
0.0
11
-260.7992
21
92.1993
31
0.0
0
LINE
8
CUT
10
-260.7992
20
92.1993
30
0.0
11
-263.7210
21
85.5403
31
0.0
0
LINE
8
CUT
10
-263.7210
20
85.5403
30
0.0
11
-266.3853
21
78.7299
31
0.0
0
LINE
8
CUT
10
-266.3853
20
78.7299
30
0.0
11
-268.7803
21
71.8079
31
0.0
0
LINE
8
CUT
10
-268.7803
20
71.8079
30
0.0
11
-270.8942
21
64.8139
31
0.0
0
LINE
8
CUT
10
-270.8942
20
64.8139
30
0.0
11
-272.7152
21
57.7877
31
0.0
0
LINE
8
CUT
10
-272.7152
20
57.7877
30
0.0
11
-274.2315
21
50.7690
31
0.0
0
LINE
8
CUT
10
-274.2315
20
50.7690
30
0.0
11
-275.4314
21
43.7975
31
0.0
0
LINE
8
CUT
10
-275.4314
20
43.7975
30
0.0
11
-276.3030
21
36.9130
31
0.0
0
LINE
8
CUT
10
-276.3030
20
36.9130
30
0.0
11
-276.8346
21
30.1553
31
0.0
0
LINE
8
CUT
10
-276.8346
20
30.1553
30
0.0
11
-277.0145
21
23.5640
31
0.0
0
LINE
8
CUT
10
-277.0145
20
23.5640
30
0.0
11
-276.7846
21
22.2007
31
0.0
0
LINE
8
CUT
10
-276.7846
20
22.2007
30
0.0
11
-276.1251
21
21.0246
31
0.0
0
LINE
8
CUT
10
-276.1251
20
21.0246
30
0.0
11
-275.0807
21
20.0039
31
0.0
0
LINE
8
CUT
10
-275.0807
20
20.0039
30
0.0
11
-273.6963
21
19.1064
31
0.0
0
LINE
8
CUT
10
-273.6963
20
19.1064
30
0.0
11
-272.0170
21
18.3002
31
0.0
0
LINE
8
CUT
10
-272.0170
20
18.3002
30
0.0
11
-270.0876
21
17.5531
31
0.0
0
LINE
8
CUT
10
-270.0876
20
17.5531
30
0.0
11
-267.9529
21
16.8332
31
0.0
0
LINE
8
CUT
10
-267.9529
20
16.8332
30
0.0
11
-265.6580
21
16.1085
31
0.0
0
LINE
8
CUT
10
-265.6580
20
16.1085
30
0.0
11
-263.2477
21
15.3470
31
0.0
0
LINE
8
CUT
10
-263.2477
20
15.3470
30
0.0
11
-260.7670
21
14.5165
31
0.0
0
LINE
8
CUT
10
-260.7670
20
14.5165
30
0.0
11
-258.2606
21
13.5850
31
0.0
0
LINE
8
CUT
10
-258.2606
20
13.5850
30
0.0
11
-255.7736
21
12.5207
31
0.0
0
LINE
8
CUT
10
-255.7736
20
12.5207
30
0.0
11
-253.3509
21
11.2913
31
0.0
0
LINE
8
CUT
10
-253.3509
20
11.2913
30
0.0
11
-251.0373
21
9.8649
31
0.0
0
LINE
8
CUT
10
-251.0373
20
9.8649
30
0.0
11
-248.8778
21
8.2095
31
0.0
0
LINE
8
CUT
10
-248.8778
20
8.2095
30
0.0
11
-246.9172
21
6.2931
31
0.0
0
LINE
8
CUT
10
-246.9172
20
6.2931
30
0.0
11
-245.2006
21
4.0835
31
0.0
0
LINE
8
CUT
10
-245.2006
20
4.0835
30
0.0
11
-243.7727
21
1.5488
31
0.0
0
LINE
8
CUT
10
-243.7727
20
1.5488
30
0.0
11
-230.9426
21
1.3901
31
0.0
0
LINE
8
CUT
10
-230.9426
20
1.3901
30
0.0
11
-218.1124
21
1.2399
31
0.0
0
LINE
8
CUT
10
-218.1124
20
1.2399
30
0.0
11
-205.2823
21
1.0983
31
0.0
0
LINE
8
CUT
10
-205.2823
20
1.0983
30
0.0
11
-192.4522
21
0.9653
31
0.0
0
LINE
8
CUT
10
-192.4522
20
0.9653
30
0.0
11
-179.6220
21
0.8409
31
0.0
0
LINE
8
CUT
10
-179.6220
20
0.8409
30
0.0
11
-166.7919
21
0.7251
31
0.0
0
LINE
8
CUT
10
-166.7919
20
0.7251
30
0.0
11
-153.9617
21
0.6178
31
0.0
0
LINE
8
CUT
10
-153.9617
20
0.6178
30
0.0
11
-141.1316
21
0.5191
31
0.0
0
LINE
8
CUT
10
-141.1316
20
0.5191
30
0.0
11
-128.3014
21
0.4290
31
0.0
0
LINE
8
CUT
10
-128.3014
20
0.4290
30
0.0
11
-115.4713
21
0.3475
31
0.0
0
LINE
8
CUT
10
-115.4713
20
0.3475
30
0.0
11
-102.6411
21
0.2746
31
0.0
0
LINE
8
CUT
10
-102.6411
20
0.2746
30
0.0
11
-89.8110
21
0.2102
31
0.0
0
LINE
8
CUT
10
-89.8110
20
0.2102
30
0.0
11
-76.9809
21
0.1545
31
0.0
0
LINE
8
CUT
10
-76.9809
20
0.1545
30
0.0
11
-64.1507
21
0.1073
31
0.0
0
LINE
8
CUT
10
-64.1507
20
0.1073
30
0.0
11
-51.3206
21
0.0686
31
0.0
0
LINE
8
CUT
10
-51.3206
20
0.0686
30
0.0
11
-38.4904
21
0.0386
31
0.0
0
LINE
8
CUT
10
-38.4904
20
0.0386
30
0.0
11
-25.6603
21
0.0172
31
0.0
0
LINE
8
CUT
10
-25.6603
20
0.0172
30
0.0
11
-12.8301
21
0.0043
31
0.0
0
LINE
8
CUT
10
-12.8301
20
0.0043
30
0.0
11
-0.0000
21
0.0000
31
0.0
0
LINE
8
CUT
10
-0.0000
20
0.0000
30
0.0
11
0.0000
21
0.0000
31
0.0
0
LINE
8
REG
10
0.0000
20
-20.0000
30
0.0
11
0.0000
21
167.2750
31
0.0
0
ENDSEC
0
EOF
