0
SECTION
2
ENTITIES
0
LINE
8
CUT
10
0.0000
20
20.6296
30
0.0
11
11.0375
21
20.6339
31
0.0
0
LINE
8
CUT
10
11.0375
20
20.6339
30
0.0
11
22.0749
21
20.6468
31
0.0
0
LINE
8
CUT
10
22.0749
20
20.6468
30
0.0
11
33.1124
21
20.6682
31
0.0
0
LINE
8
CUT
10
33.1124
20
20.6682
30
0.0
11
44.1499
21
20.6983
31
0.0
0
LINE
8
CUT
10
44.1499
20
20.6983
30
0.0
11
55.1873
21
20.7369
31
0.0
0
LINE
8
CUT
10
55.1873
20
20.7369
30
0.0
11
66.2248
21
20.7841
31
0.0
0
LINE
8
CUT
10
66.2248
20
20.7841
30
0.0
11
77.2622
21
20.8398
31
0.0
0
LINE
8
CUT
10
77.2622
20
20.8398
30
0.0
11
88.2997
21
20.9042
31
0.0
0
LINE
8
CUT
10
88.2997
20
20.9042
30
0.0
11
99.3372
21
20.9771
31
0.0
0
LINE
8
CUT
10
99.3372
20
20.9771
30
0.0
11
110.3746
21
21.0586
31
0.0
0
LINE
8
CUT
10
110.3746
20
21.0586
30
0.0
11
121.4121
21
21.1487
31
0.0
0
LINE
8
CUT
10
121.4121
20
21.1487
30
0.0
11
132.4496
21
21.2474
31
0.0
0
LINE
8
CUT
10
132.4496
20
21.2474
30
0.0
11
143.4870
21
21.3547
31
0.0
0
LINE
8
CUT
10
143.4870
20
21.3547
30
0.0
11
154.5245
21
21.4705
31
0.0
0
LINE
8
CUT
10
154.5245
20
21.4705
30
0.0
11
165.5619
21
21.5949
31
0.0
0
LINE
8
CUT
10
165.5619
20
21.5949
30
0.0
11
176.5994
21
21.7279
31
0.0
0
LINE
8
CUT
10
176.5994
20
21.7279
30
0.0
11
187.6369
21
21.8695
31
0.0
0
LINE
8
CUT
10
187.6369
20
21.8695
30
0.0
11
198.6743
21
22.0197
31
0.0
0
LINE
8
CUT
10
198.6743
20
22.0197
30
0.0
11
209.7118
21
22.1784
31
0.0
0
LINE
8
CUT
10
209.7118
20
22.1784
30
0.0
11
212.2371
21
22.4308
31
0.0
0
LINE
8
CUT
10
212.2371
20
22.4308
30
0.0
11
214.7146
21
22.8378
31
0.0
0
LINE
8
CUT
10
214.7146
20
22.8378
30
0.0
11
217.1327
21
23.3875
31
0.0
0
LINE
8
CUT
10
217.1327
20
23.3875
30
0.0
11
219.4797
21
24.0677
31
0.0
0
LINE
8
CUT
10
219.4797
20
24.0677
30
0.0
11
221.7437
21
24.8666
31
0.0
0
LINE
8
CUT
10
221.7437
20
24.8666
30
0.0
11
223.9132
21
25.7721
31
0.0
0
LINE
8
CUT
10
223.9132
20
25.7721
30
0.0
11
225.9764
21
26.7723
31
0.0
0
LINE
8
CUT
10
225.9764
20
26.7723
30
0.0
11
227.9216
21
27.8552
31
0.0
0
LINE
8
CUT
10
227.9216
20
27.8552
30
0.0
11
229.7372
21
29.0087
31
0.0
0
LINE
8
CUT
10
229.7372
20
29.0087
30
0.0
11
231.4113
21
30.2210
31
0.0
0
LINE
8
CUT
10
231.4113
20
30.2210
30
0.0
11
232.9323
21
31.4800
31
0.0
0
LINE
8
CUT
10
232.9323
20
31.4800
30
0.0
11
234.2885
21
32.7736
31
0.0
0
LINE
8
CUT
10
234.2885
20
32.7736
30
0.0
11
235.4682
21
34.0901
31
0.0
0
LINE
8
CUT
10
235.4682
20
34.0901
30
0.0
11
236.4596
21
35.4172
31
0.0
0
LINE
8
CUT
10
236.4596
20
35.4172
30
0.0
11
237.2511
21
36.7431
31
0.0
0
LINE
8
CUT
10
237.2511
20
36.7431
30
0.0
11
237.8309
21
38.0558
31
0.0
0
LINE
8
CUT
10
237.8309
20
38.0558
30
0.0
11
238.1874
21
39.3433
31
0.0
0
LINE
8
CUT
10
238.1874
20
39.3433
30
0.0
11
238.3089
21
40.5936
31
0.0
0
LINE
8
CUT
10
238.3089
20
40.5936
30
0.0
11
238.1542
21
46.1779
31
0.0
0
LINE
8
CUT
10
238.1542
20
46.1779
30
0.0
11
237.6968
21
51.9032
31
0.0
0
LINE
8
CUT
10
237.6968
20
51.9032
30
0.0
11
236.9470
21
57.7359
31
0.0
0
LINE
8
CUT
10
236.9470
20
57.7359
30
0.0
11
235.9147
21
63.6423
31
0.0
0
LINE
8
CUT
10
235.9147
20
63.6423
30
0.0
11
234.6103
21
69.5887
31
0.0
0
LINE
8
CUT
10
234.6103
20
69.5887
30
0.0
11
233.0437
21
75.5415
31
0.0
0
LINE
8
CUT
10
233.0437
20
75.5415
30
0.0
11
231.2252
21
81.4670
31
0.0
0
LINE
8
CUT
10
231.2252
20
81.4670
30
0.0
11
229.1649
21
87.3315
31
0.0
0
LINE
8
CUT
10
229.1649
20
87.3315
30
0.0
11
226.8728
21
93.1014
31
0.0
0
LINE
8
CUT
10
226.8728
20
93.1014
30
0.0
11
224.3592
21
98.7431
31
0.0
0
LINE
8
CUT
10
224.3592
20
98.7431
30
0.0
11
221.6342
21
104.2227
31
0.0
0
LINE
8
CUT
10
221.6342
20
104.2227
30
0.0
11
218.7080
21
109.5068
31
0.0
0
LINE
8
CUT
10
218.7080
20
109.5068
30
0.0
11
215.5905
21
114.5616
31
0.0
0
LINE
8
CUT
10
215.5905
20
114.5616
30
0.0
11
212.2921
21
119.3535
31
0.0
0
LINE
8
CUT
10
212.2921
20
119.3535
30
0.0
11
208.8228
21
123.8487
31
0.0
0
LINE
8
CUT
10
208.8228
20
123.8487
30
0.0
11
205.1928
21
128.0137
31
0.0
0
LINE
8
CUT
10
205.1928
20
128.0137
30
0.0
11
201.4121
21
131.8148
31
0.0
0
LINE
8
CUT
10
201.4121
20
131.8148
30
0.0
11
197.4910
21
135.2183
31
0.0
0
LINE
8
CUT
10
197.4910
20
135.2183
30
0.0
11
193.4396
21
138.1905
31
0.0
0
LINE
8
CUT
10
193.4396
20
138.1905
30
0.0
11
189.2680
21
140.6978
31
0.0
0
LINE
8
CUT
10
189.2680
20
140.6978
30
0.0
11
184.9863
21
142.7065
31
0.0
0
LINE
8
CUT
10
184.9863
20
142.7065
30
0.0
11
180.6047
21
144.1830
31
0.0
0
LINE
8
CUT
10
180.6047
20
144.1830
30
0.0
11
176.1334
21
145.0936
31
0.0
0
LINE
8
CUT
10
176.1334
20
145.0936
30
0.0
11
171.5824
21
145.4046
31
0.0
0
LINE
8
CUT
10
171.5824
20
145.4046
30
0.0
11
163.0033
21
145.4046
31
0.0
0
LINE
8
CUT
10
163.0033
20
145.4046
30
0.0
11
154.4241
21
145.4046
31
0.0
0
LINE
8
CUT
10
154.4241
20
145.4046
30
0.0
11
145.8450
21
145.4046
31
0.0
0
LINE
8
CUT
10
145.8450
20
145.4046
30
0.0
11
137.2659
21
145.4046
31
0.0
0
LINE
8
CUT
10
137.2659
20
145.4046
30
0.0
11
128.6868
21
145.4046
31
0.0
0
LINE
8
CUT
10
128.6868
20
145.4046
30
0.0
11
120.1077
21
145.4046
31
0.0
0
LINE
8
CUT
10
120.1077
20
145.4046
30
0.0
11
111.5285
21
145.4046
31
0.0
0
LINE
8
CUT
10
111.5285
20
145.4046
30
0.0
11
102.9494
21
145.4046
31
0.0
0
LINE
8
CUT
10
102.9494
20
145.4046
30
0.0
11
94.3703
21
145.4046
31
0.0
0
LINE
8
CUT
10
94.3703
20
145.4046
30
0.0
11
85.7912
21
145.4046
31
0.0
0
LINE
8
CUT
10
85.7912
20
145.4046
30
0.0
11
77.2121
21
145.4046
31
0.0
0
LINE
8
CUT
10
77.2121
20
145.4046
30
0.0
11
68.6330
21
145.4046
31
0.0
0
LINE
8
CUT
10
68.6330
20
145.4046
30
0.0
11
60.0538
21
145.4046
31
0.0
0
LINE
8
CUT
10
60.0538
20
145.4046
30
0.0
11
51.4747
21
145.4046
31
0.0
0
LINE
8
CUT
10
51.4747
20
145.4046
30
0.0
11
42.8956
21
145.4046
31
0.0
0
LINE
8
CUT
10
42.8956
20
145.4046
30
0.0
11
34.3165
21
145.4046
31
0.0
0
LINE
8
CUT
10
34.3165
20
145.4046
30
0.0
11
25.7374
21
145.4046
31
0.0
0
LINE
8
CUT
10
25.7374
20
145.4046
30
0.0
11
17.1582
21
145.4046
31
0.0
0
LINE
8
CUT
10
17.1582
20
145.4046
30
0.0
11
8.5791
21
145.4046
31
0.0
0
LINE
8
CUT
10
8.5791
20
145.4046
30
0.0
11
0.0000
21
145.4046
31
0.0
0
LINE
8
CUT
10
0.0000
20
145.4046
30
0.0
11
-0.0000
21
145.4046
31
0.0
0
LINE
8
CUT
10
-0.0000
20
145.4046
30
0.0
11
-8.5791
21
145.4046
31
0.0
0
LINE
8
CUT
10
-8.5791
20
145.4046
30
0.0
11
-17.1582
21
145.4046
31
0.0
0
LINE
8
CUT
10
-17.1582
20
145.4046
30
0.0
11
-25.7374
21
145.4046
31
0.0
0
LINE
8
CUT
10
-25.7374
20
145.4046
30
0.0
11
-34.3165
21
145.4046
31
0.0
0
LINE
8
CUT
10
-34.3165
20
145.4046
30
0.0
11
-42.8956
21
145.4046
31
0.0
0
LINE
8
CUT
10
-42.8956
20
145.4046
30
0.0
11
-51.4747
21
145.4046
31
0.0
0
LINE
8
CUT
10
-51.4747
20
145.4046
30
0.0
11
-60.0538
21
145.4046
31
0.0
0
LINE
8
CUT
10
-60.0538
20
145.4046
30
0.0
11
-68.6330
21
145.4046
31
0.0
0
LINE
8
CUT
10
-68.6330
20
145.4046
30
0.0
11
-77.2121
21
145.4046
31
0.0
0
LINE
8
CUT
10
-77.2121
20
145.4046
30
0.0
11
-85.7912
21
145.4046
31
0.0
0
LINE
8
CUT
10
-85.7912
20
145.4046
30
0.0
11
-94.3703
21
145.4046
31
0.0
0
LINE
8
CUT
10
-94.3703
20
145.4046
30
0.0
11
-102.9494
21
145.4046
31
0.0
0
LINE
8
CUT
10
-102.9494
20
145.4046
30
0.0
11
-111.5285
21
145.4046
31
0.0
0
LINE
8
CUT
10
-111.5285
20
145.4046
30
0.0
11
-120.1077
21
145.4046
31
0.0
0
LINE
8
CUT
10
-120.1077
20
145.4046
30
0.0
11
-128.6868
21
145.4046
31
0.0
0
LINE
8
CUT
10
-128.6868
20
145.4046
30
0.0
11
-137.2659
21
145.4046
31
0.0
0
LINE
8
CUT
10
-137.2659
20
145.4046
30
0.0
11
-145.8450
21
145.4046
31
0.0
0
LINE
8
CUT
10
-145.8450
20
145.4046
30
0.0
11
-154.4241
21
145.4046
31
0.0
0
LINE
8
CUT
10
-154.4241
20
145.4046
30
0.0
11
-163.0033
21
145.4046
31
0.0
0
LINE
8
CUT
10
-163.0033
20
145.4046
30
0.0
11
-171.5824
21
145.4046
31
0.0
0
LINE
8
CUT
10
-171.5824
20
145.4046
30
0.0
11
-176.1334
21
145.0936
31
0.0
0
LINE
8
CUT
10
-176.1334
20
145.0936
30
0.0
11
-180.6047
21
144.1830
31
0.0
0
LINE
8
CUT
10
-180.6047
20
144.1830
30
0.0
11
-184.9863
21
142.7065
31
0.0
0
LINE
8
CUT
10
-184.9863
20
142.7065
30
0.0
11
-189.2680
21
140.6978
31
0.0
0
LINE
8
CUT
10
-189.2680
20
140.6978
30
0.0
11
-193.4396
21
138.1905
31
0.0
0
LINE
8
CUT
10
-193.4396
20
138.1905
30
0.0
11
-197.4910
21
135.2183
31
0.0
0
LINE
8
CUT
10
-197.4910
20
135.2183
30
0.0
11
-201.4121
21
131.8148
31
0.0
0
LINE
8
CUT
10
-201.4121
20
131.8148
30
0.0
11
-205.1928
21
128.0137
31
0.0
0
LINE
8
CUT
10
-205.1928
20
128.0137
30
0.0
11
-208.8228
21
123.8487
31
0.0
0
LINE
8
CUT
10
-208.8228
20
123.8487
30
0.0
11
-212.2921
21
119.3535
31
0.0
0
LINE
8
CUT
10
-212.2921
20
119.3535
30
0.0
11
-215.5905
21
114.5616
31
0.0
0
LINE
8
CUT
10
-215.5905
20
114.5616
30
0.0
11
-218.7080
21
109.5068
31
0.0
0
LINE
8
CUT
10
-218.7080
20
109.5068
30
0.0
11
-221.6342
21
104.2227
31
0.0
0
LINE
8
CUT
10
-221.6342
20
104.2227
30
0.0
11
-224.3592
21
98.7431
31
0.0
0
LINE
8
CUT
10
-224.3592
20
98.7431
30
0.0
11
-226.8728
21
93.1014
31
0.0
0
LINE
8
CUT
10
-226.8728
20
93.1014
30
0.0
11
-229.1649
21
87.3315
31
0.0
0
LINE
8
CUT
10
-229.1649
20
87.3315
30
0.0
11
-231.2252
21
81.4670
31
0.0
0
LINE
8
CUT
10
-231.2252
20
81.4670
30
0.0
11
-233.0437
21
75.5415
31
0.0
0
LINE
8
CUT
10
-233.0437
20
75.5415
30
0.0
11
-234.6103
21
69.5887
31
0.0
0
LINE
8
CUT
10
-234.6103
20
69.5887
30
0.0
11
-235.9147
21
63.6423
31
0.0
0
LINE
8
CUT
10
-235.9147
20
63.6423
30
0.0
11
-236.9470
21
57.7359
31
0.0
0
LINE
8
CUT
10
-236.9470
20
57.7359
30
0.0
11
-237.6968
21
51.9032
31
0.0
0
LINE
8
CUT
10
-237.6968
20
51.9032
30
0.0
11
-238.1542
21
46.1779
31
0.0
0
LINE
8
CUT
10
-238.1542
20
46.1779
30
0.0
11
-238.3089
21
40.5936
31
0.0
0
LINE
8
CUT
10
-238.3089
20
40.5936
30
0.0
11
-238.1874
21
39.3433
31
0.0
0
LINE
8
CUT
10
-238.1874
20
39.3433
30
0.0
11
-237.8309
21
38.0558
31
0.0
0
LINE
8
CUT
10
-237.8309
20
38.0558
30
0.0
11
-237.2511
21
36.7431
31
0.0
0
LINE
8
CUT
10
-237.2511
20
36.7431
30
0.0
11
-236.4596
21
35.4172
31
0.0
0
LINE
8
CUT
10
-236.4596
20
35.4172
30
0.0
11
-235.4682
21
34.0901
31
0.0
0
LINE
8
CUT
10
-235.4682
20
34.0901
30
0.0
11
-234.2885
21
32.7736
31
0.0
0
LINE
8
CUT
10
-234.2885
20
32.7736
30
0.0
11
-232.9323
21
31.4800
31
0.0
0
LINE
8
CUT
10
-232.9323
20
31.4800
30
0.0
11
-231.4113
21
30.2210
31
0.0
0
LINE
8
CUT
10
-231.4113
20
30.2210
30
0.0
11
-229.7372
21
29.0087
31
0.0
0
LINE
8
CUT
10
-229.7372
20
29.0087
30
0.0
11
-227.9216
21
27.8552
31
0.0
0
LINE
8
CUT
10
-227.9216
20
27.8552
30
0.0
11
-225.9764
21
26.7723
31
0.0
0
LINE
8
CUT
10
-225.9764
20
26.7723
30
0.0
11
-223.9132
21
25.7721
31
0.0
0
LINE
8
CUT
10
-223.9132
20
25.7721
30
0.0
11
-221.7437
21
24.8666
31
0.0
0
LINE
8
CUT
10
-221.7437
20
24.8666
30
0.0
11
-219.4797
21
24.0677
31
0.0
0
LINE
8
CUT
10
-219.4797
20
24.0677
30
0.0
11
-217.1327
21
23.3875
31
0.0
0
LINE
8
CUT
10
-217.1327
20
23.3875
30
0.0
11
-214.7146
21
22.8378
31
0.0
0
LINE
8
CUT
10
-214.7146
20
22.8378
30
0.0
11
-212.2371
21
22.4308
31
0.0
0
LINE
8
CUT
10
-212.2371
20
22.4308
30
0.0
11
-209.7118
21
22.1784
31
0.0
0
LINE
8
CUT
10
-209.7118
20
22.1784
30
0.0
11
-198.6743
21
22.0197
31
0.0
0
LINE
8
CUT
10
-198.6743
20
22.0197
30
0.0
11
-187.6369
21
21.8695
31
0.0
0
LINE
8
CUT
10
-187.6369
20
21.8695
30
0.0
11
-176.5994
21
21.7279
31
0.0
0
LINE
8
CUT
10
-176.5994
20
21.7279
30
0.0
11
-165.5619
21
21.5949
31
0.0
0
LINE
8
CUT
10
-165.5619
20
21.5949
30
0.0
11
-154.5245
21
21.4705
31
0.0
0
LINE
8
CUT
10
-154.5245
20
21.4705
30
0.0
11
-143.4870
21
21.3547
31
0.0
0
LINE
8
CUT
10
-143.4870
20
21.3547
30
0.0
11
-132.4496
21
21.2474
31
0.0
0
LINE
8
CUT
10
-132.4496
20
21.2474
30
0.0
11
-121.4121
21
21.1487
31
0.0
0
LINE
8
CUT
10
-121.4121
20
21.1487
30
0.0
11
-110.3746
21
21.0586
31
0.0
0
LINE
8
CUT
10
-110.3746
20
21.0586
30
0.0
11
-99.3372
21
20.9771
31
0.0
0
LINE
8
CUT
10
-99.3372
20
20.9771
30
0.0
11
-88.2997
21
20.9042
31
0.0
0
LINE
8
CUT
10
-88.2997
20
20.9042
30
0.0
11
-77.2622
21
20.8398
31
0.0
0
LINE
8
CUT
10
-77.2622
20
20.8398
30
0.0
11
-66.2248
21
20.7841
31
0.0
0
LINE
8
CUT
10
-66.2248
20
20.7841
30
0.0
11
-55.1873
21
20.7369
31
0.0
0
LINE
8
CUT
10
-55.1873
20
20.7369
30
0.0
11
-44.1499
21
20.6983
31
0.0
0
LINE
8
CUT
10
-44.1499
20
20.6983
30
0.0
11
-33.1124
21
20.6682
31
0.0
0
LINE
8
CUT
10
-33.1124
20
20.6682
30
0.0
11
-22.0749
21
20.6468
31
0.0
0
LINE
8
CUT
10
-22.0749
20
20.6468
30
0.0
11
-11.0375
21
20.6339
31
0.0
0
LINE
8
CUT
10
-11.0375
20
20.6339
30
0.0
11
-0.0000
21
20.6296
31
0.0
0
LINE
8
CUT
10
-0.0000
20
20.6296
30
0.0
11
0.0000
21
20.6296
31
0.0
0
LINE
8
REG
10
0.0000
20
-20.0000
30
0.0
11
0.0000
21
165.4046
31
0.0
0
ENDSEC
0
EOF
