0
SECTION
2
ENTITIES
0
LINE
8
CUT
10
0.0000
20
29.8023
30
0.0
11
10.4636
21
29.8066
31
0.0
0
LINE
8
CUT
10
10.4636
20
29.8066
30
0.0
11
20.9273
21
29.8194
31
0.0
0
LINE
8
CUT
10
20.9273
20
29.8194
30
0.0
11
31.3909
21
29.8409
31
0.0
0
LINE
8
CUT
10
31.3909
20
29.8409
30
0.0
11
41.8545
21
29.8709
31
0.0
0
LINE
8
CUT
10
41.8545
20
29.8709
30
0.0
11
52.3181
21
29.9095
31
0.0
0
LINE
8
CUT
10
52.3181
20
29.9095
30
0.0
11
62.7818
21
29.9567
31
0.0
0
LINE
8
CUT
10
62.7818
20
29.9567
30
0.0
11
73.2454
21
30.0125
31
0.0
0
LINE
8
CUT
10
73.2454
20
30.0125
30
0.0
11
83.7090
21
30.0768
31
0.0
0
LINE
8
CUT
10
83.7090
20
30.0768
30
0.0
11
94.1726
21
30.1498
31
0.0
0
LINE
8
CUT
10
94.1726
20
30.1498
30
0.0
11
104.6363
21
30.2313
31
0.0
0
LINE
8
CUT
10
104.6363
20
30.2313
30
0.0
11
115.0999
21
30.3214
31
0.0
0
LINE
8
CUT
10
115.0999
20
30.3214
30
0.0
11
125.5635
21
30.4201
31
0.0
0
LINE
8
CUT
10
125.5635
20
30.4201
30
0.0
11
136.0271
21
30.5273
31
0.0
0
LINE
8
CUT
10
136.0271
20
30.5273
30
0.0
11
146.4908
21
30.6432
31
0.0
0
LINE
8
CUT
10
146.4908
20
30.6432
30
0.0
11
156.9544
21
30.7676
31
0.0
0
LINE
8
CUT
10
156.9544
20
30.7676
30
0.0
11
167.4180
21
30.9006
31
0.0
0
LINE
8
CUT
10
167.4180
20
30.9006
30
0.0
11
177.8816
21
31.0422
31
0.0
0
LINE
8
CUT
10
177.8816
20
31.0422
30
0.0
11
188.3453
21
31.1923
31
0.0
0
LINE
8
CUT
10
188.3453
20
31.1923
30
0.0
11
198.8089
21
31.3511
31
0.0
0
LINE
8
CUT
10
198.8089
20
31.3511
30
0.0
11
201.2479
21
31.6018
31
0.0
0
LINE
8
CUT
10
201.2479
20
31.6018
30
0.0
11
203.6313
21
32.0105
31
0.0
0
LINE
8
CUT
10
203.6313
20
32.0105
30
0.0
11
205.9491
21
32.5649
31
0.0
0
LINE
8
CUT
10
205.9491
20
32.5649
30
0.0
11
208.1909
21
33.2528
31
0.0
0
LINE
8
CUT
10
208.1909
20
33.2528
30
0.0
11
210.3468
21
34.0619
31
0.0
0
LINE
8
CUT
10
210.3468
20
34.0619
30
0.0
11
212.4065
21
34.9800
31
0.0
0
LINE
8
CUT
10
212.4065
20
34.9800
30
0.0
11
214.3597
21
35.9947
31
0.0
0
LINE
8
CUT
10
214.3597
20
35.9947
30
0.0
11
216.1965
21
37.0938
31
0.0
0
LINE
8
CUT
10
216.1965
20
37.0938
30
0.0
11
217.9066
21
38.2650
31
0.0
0
LINE
8
CUT
10
217.9066
20
38.2650
30
0.0
11
219.4798
21
39.4961
31
0.0
0
LINE
8
CUT
10
219.4798
20
39.4961
30
0.0
11
220.9060
21
40.7748
31
0.0
0
LINE
8
CUT
10
220.9060
20
40.7748
30
0.0
11
222.1751
21
42.0888
31
0.0
0
LINE
8
CUT
10
222.1751
20
42.0888
30
0.0
11
223.2768
21
43.4258
31
0.0
0
LINE
8
CUT
10
223.2768
20
43.4258
30
0.0
11
224.2009
21
44.7737
31
0.0
0
LINE
8
CUT
10
224.2009
20
44.7737
30
0.0
11
224.9374
21
46.1200
31
0.0
0
LINE
8
CUT
10
224.9374
20
46.1200
30
0.0
11
225.4761
21
47.4527
31
0.0
0
LINE
8
CUT
10
225.4761
20
47.4527
30
0.0
11
225.8067
21
48.7593
31
0.0
0
LINE
8
CUT
10
225.8067
20
48.7593
30
0.0
11
225.9192
21
50.0276
31
0.0
0
LINE
8
CUT
10
225.9192
20
50.0276
30
0.0
11
225.7725
21
55.6850
31
0.0
0
LINE
8
CUT
10
225.7725
20
55.6850
30
0.0
11
225.3390
21
61.4853
31
0.0
0
LINE
8
CUT
10
225.3390
20
61.4853
30
0.0
11
224.6281
21
67.3943
31
0.0
0
LINE
8
CUT
10
224.6281
20
67.3943
30
0.0
11
223.6495
21
73.3780
31
0.0
0
LINE
8
CUT
10
223.6495
20
73.3780
30
0.0
11
222.4129
21
79.4023
31
0.0
0
LINE
8
CUT
10
222.4129
20
79.4023
30
0.0
11
220.9278
21
85.4330
31
0.0
0
LINE
8
CUT
10
220.9278
20
85.4330
30
0.0
11
219.2038
21
91.4360
31
0.0
0
LINE
8
CUT
10
219.2038
20
91.4360
30
0.0
11
217.2506
21
97.3773
31
0.0
0
LINE
8
CUT
10
217.2506
20
97.3773
30
0.0
11
215.0777
21
103.2228
31
0.0
0
LINE
8
CUT
10
215.0777
20
103.2228
30
0.0
11
212.6948
21
108.9383
31
0.0
0
LINE
8
CUT
10
212.6948
20
108.9383
30
0.0
11
210.1115
21
114.4897
31
0.0
0
LINE
8
CUT
10
210.1115
20
114.4897
30
0.0
11
207.3373
21
119.8429
31
0.0
0
LINE
8
CUT
10
207.3373
20
119.8429
30
0.0
11
204.3820
21
124.9639
31
0.0
0
LINE
8
CUT
10
204.3820
20
124.9639
30
0.0
11
201.2550
21
129.8185
31
0.0
0
LINE
8
CUT
10
201.2550
20
129.8185
30
0.0
11
197.9661
21
134.3726
31
0.0
0
LINE
8
CUT
10
197.9661
20
134.3726
30
0.0
11
194.5248
21
138.5921
31
0.0
0
LINE
8
CUT
10
194.5248
20
138.5921
30
0.0
11
190.9407
21
142.4429
31
0.0
0
LINE
8
CUT
10
190.9407
20
142.4429
30
0.0
11
187.2235
21
145.8909
31
0.0
0
LINE
8
CUT
10
187.2235
20
145.8909
30
0.0
11
183.3827
21
148.9021
31
0.0
0
LINE
8
CUT
10
183.3827
20
148.9021
30
0.0
11
179.4279
21
151.4422
31
0.0
0
LINE
8
CUT
10
179.4279
20
151.4422
30
0.0
11
175.3689
21
153.4772
31
0.0
0
LINE
8
CUT
10
175.3689
20
153.4772
30
0.0
11
171.2151
21
154.9730
31
0.0
0
LINE
8
CUT
10
171.2151
20
154.9730
30
0.0
11
166.9762
21
155.8955
31
0.0
0
LINE
8
CUT
10
166.9762
20
155.8955
30
0.0
11
162.6618
21
156.2106
31
0.0
0
LINE
8
CUT
10
162.6618
20
156.2106
30
0.0
11
154.5287
21
156.2106
31
0.0
0
LINE
8
CUT
10
154.5287
20
156.2106
30
0.0
11
146.3956
21
156.2106
31
0.0
0
LINE
8
CUT
10
146.3956
20
156.2106
30
0.0
11
138.2625
21
156.2106
31
0.0
0
LINE
8
CUT
10
138.2625
20
156.2106
30
0.0
11
130.1294
21
156.2106
31
0.0
0
LINE
8
CUT
10
130.1294
20
156.2106
30
0.0
11
121.9964
21
156.2106
31
0.0
0
LINE
8
CUT
10
121.9964
20
156.2106
30
0.0
11
113.8633
21
156.2106
31
0.0
0
LINE
8
CUT
10
113.8633
20
156.2106
30
0.0
11
105.7302
21
156.2106
31
0.0
0
LINE
8
CUT
10
105.7302
20
156.2106
30
0.0
11
97.5971
21
156.2106
31
0.0
0
LINE
8
CUT
10
97.5971
20
156.2106
30
0.0
11
89.4640
21
156.2106
31
0.0
0
LINE
8
CUT
10
89.4640
20
156.2106
30
0.0
11
81.3309
21
156.2106
31
0.0
0
LINE
8
CUT
10
81.3309
20
156.2106
30
0.0
11
73.1978
21
156.2106
31
0.0
0
LINE
8
CUT
10
73.1978
20
156.2106
30
0.0
11
65.0647
21
156.2106
31
0.0
0
LINE
8
CUT
10
65.0647
20
156.2106
30
0.0
11
56.9316
21
156.2106
31
0.0
0
LINE
8
CUT
10
56.9316
20
156.2106
30
0.0
11
48.7985
21
156.2106
31
0.0
0
LINE
8
CUT
10
48.7985
20
156.2106
30
0.0
11
40.6655
21
156.2106
31
0.0
0
LINE
8
CUT
10
40.6655
20
156.2106
30
0.0
11
32.5324
21
156.2106
31
0.0
0
LINE
8
CUT
10
32.5324
20
156.2106
30
0.0
11
24.3993
21
156.2106
31
0.0
0
LINE
8
CUT
10
24.3993
20
156.2106
30
0.0
11
16.2662
21
156.2106
31
0.0
0
LINE
8
CUT
10
16.2662
20
156.2106
30
0.0
11
8.1331
21
156.2106
31
0.0
0
LINE
8
CUT
10
8.1331
20
156.2106
30
0.0
11
0.0000
21
156.2106
31
0.0
0
LINE
8
CUT
10
0.0000
20
156.2106
30
0.0
11
-0.0000
21
156.2106
31
0.0
0
LINE
8
CUT
10
-0.0000
20
156.2106
30
0.0
11
-8.1331
21
156.2106
31
0.0
0
LINE
8
CUT
10
-8.1331
20
156.2106
30
0.0
11
-16.2662
21
156.2106
31
0.0
0
LINE
8
CUT
10
-16.2662
20
156.2106
30
0.0
11
-24.3993
21
156.2106
31
0.0
0
LINE
8
CUT
10
-24.3993
20
156.2106
30
0.0
11
-32.5324
21
156.2106
31
0.0
0
LINE
8
CUT
10
-32.5324
20
156.2106
30
0.0
11
-40.6655
21
156.2106
31
0.0
0
LINE
8
CUT
10
-40.6655
20
156.2106
30
0.0
11
-48.7985
21
156.2106
31
0.0
0
LINE
8
CUT
10
-48.7985
20
156.2106
30
0.0
11
-56.9316
21
156.2106
31
0.0
0
LINE
8
CUT
10
-56.9316
20
156.2106
30
0.0
11
-65.0647
21
156.2106
31
0.0
0
LINE
8
CUT
10
-65.0647
20
156.2106
30
0.0
11
-73.1978
21
156.2106
31
0.0
0
LINE
8
CUT
10
-73.1978
20
156.2106
30
0.0
11
-81.3309
21
156.2106
31
0.0
0
LINE
8
CUT
10
-81.3309
20
156.2106
30
0.0
11
-89.4640
21
156.2106
31
0.0
0
LINE
8
CUT
10
-89.4640
20
156.2106
30
0.0
11
-97.5971
21
156.2106
31
0.0
0
LINE
8
CUT
10
-97.5971
20
156.2106
30
0.0
11
-105.7302
21
156.2106
31
0.0
0
LINE
8
CUT
10
-105.7302
20
156.2106
30
0.0
11
-113.8633
21
156.2106
31
0.0
0
LINE
8
CUT
10
-113.8633
20
156.2106
30
0.0
11
-121.9964
21
156.2106
31
0.0
0
LINE
8
CUT
10
-121.9964
20
156.2106
30
0.0
11
-130.1294
21
156.2106
31
0.0
0
LINE
8
CUT
10
-130.1294
20
156.2106
30
0.0
11
-138.2625
21
156.2106
31
0.0
0
LINE
8
CUT
10
-138.2625
20
156.2106
30
0.0
11
-146.3956
21
156.2106
31
0.0
0
LINE
8
CUT
10
-146.3956
20
156.2106
30
0.0
11
-154.5287
21
156.2106
31
0.0
0
LINE
8
CUT
10
-154.5287
20
156.2106
30
0.0
11
-162.6618
21
156.2106
31
0.0
0
LINE
8
CUT
10
-162.6618
20
156.2106
30
0.0
11
-166.9762
21
155.8955
31
0.0
0
LINE
8
CUT
10
-166.9762
20
155.8955
30
0.0
11
-171.2151
21
154.9730
31
0.0
0
LINE
8
CUT
10
-171.2151
20
154.9730
30
0.0
11
-175.3689
21
153.4772
31
0.0
0
LINE
8
CUT
10
-175.3689
20
153.4772
30
0.0
11
-179.4279
21
151.4422
31
0.0
0
LINE
8
CUT
10
-179.4279
20
151.4422
30
0.0
11
-183.3827
21
148.9021
31
0.0
0
LINE
8
CUT
10
-183.3827
20
148.9021
30
0.0
11
-187.2235
21
145.8909
31
0.0
0
LINE
8
CUT
10
-187.2235
20
145.8909
30
0.0
11
-190.9407
21
142.4429
31
0.0
0
LINE
8
CUT
10
-190.9407
20
142.4429
30
0.0
11
-194.5248
21
138.5921
31
0.0
0
LINE
8
CUT
10
-194.5248
20
138.5921
30
0.0
11
-197.9661
21
134.3726
31
0.0
0
LINE
8
CUT
10
-197.9661
20
134.3726
30
0.0
11
-201.2550
21
129.8185
31
0.0
0
LINE
8
CUT
10
-201.2550
20
129.8185
30
0.0
11
-204.3820
21
124.9639
31
0.0
0
LINE
8
CUT
10
-204.3820
20
124.9639
30
0.0
11
-207.3373
21
119.8429
31
0.0
0
LINE
8
CUT
10
-207.3373
20
119.8429
30
0.0
11
-210.1115
21
114.4897
31
0.0
0
LINE
8
CUT
10
-210.1115
20
114.4897
30
0.0
11
-212.6948
21
108.9383
31
0.0
0
LINE
8
CUT
10
-212.6948
20
108.9383
30
0.0
11
-215.0777
21
103.2228
31
0.0
0
LINE
8
CUT
10
-215.0777
20
103.2228
30
0.0
11
-217.2506
21
97.3773
31
0.0
0
LINE
8
CUT
10
-217.2506
20
97.3773
30
0.0
11
-219.2038
21
91.4360
31
0.0
0
LINE
8
CUT
10
-219.2038
20
91.4360
30
0.0
11
-220.9278
21
85.4330
31
0.0
0
LINE
8
CUT
10
-220.9278
20
85.4330
30
0.0
11
-222.4129
21
79.4023
31
0.0
0
LINE
8
CUT
10
-222.4129
20
79.4023
30
0.0
11
-223.6495
21
73.3780
31
0.0
0
LINE
8
CUT
10
-223.6495
20
73.3780
30
0.0
11
-224.6281
21
67.3943
31
0.0
0
LINE
8
CUT
10
-224.6281
20
67.3943
30
0.0
11
-225.3390
21
61.4853
31
0.0
0
LINE
8
CUT
10
-225.3390
20
61.4853
30
0.0
11
-225.7725
21
55.6850
31
0.0
0
LINE
8
CUT
10
-225.7725
20
55.6850
30
0.0
11
-225.9192
21
50.0276
31
0.0
0
LINE
8
CUT
10
-225.9192
20
50.0276
30
0.0
11
-225.8067
21
48.7593
31
0.0
0
LINE
8
CUT
10
-225.8067
20
48.7593
30
0.0
11
-225.4761
21
47.4527
31
0.0
0
LINE
8
CUT
10
-225.4761
20
47.4527
30
0.0
11
-224.9374
21
46.1200
31
0.0
0
LINE
8
CUT
10
-224.9374
20
46.1200
30
0.0
11
-224.2009
21
44.7737
31
0.0
0
LINE
8
CUT
10
-224.2009
20
44.7737
30
0.0
11
-223.2768
21
43.4258
31
0.0
0
LINE
8
CUT
10
-223.2768
20
43.4258
30
0.0
11
-222.1751
21
42.0888
31
0.0
0
LINE
8
CUT
10
-222.1751
20
42.0888
30
0.0
11
-220.9060
21
40.7748
31
0.0
0
LINE
8
CUT
10
-220.9060
20
40.7748
30
0.0
11
-219.4798
21
39.4961
31
0.0
0
LINE
8
CUT
10
-219.4798
20
39.4961
30
0.0
11
-217.9066
21
38.2650
31
0.0
0
LINE
8
CUT
10
-217.9066
20
38.2650
30
0.0
11
-216.1965
21
37.0938
31
0.0
0
LINE
8
CUT
10
-216.1965
20
37.0938
30
0.0
11
-214.3597
21
35.9947
31
0.0
0
LINE
8
CUT
10
-214.3597
20
35.9947
30
0.0
11
-212.4065
21
34.9800
31
0.0
0
LINE
8
CUT
10
-212.4065
20
34.9800
30
0.0
11
-210.3468
21
34.0619
31
0.0
0
LINE
8
CUT
10
-210.3468
20
34.0619
30
0.0
11
-208.1909
21
33.2528
31
0.0
0
LINE
8
CUT
10
-208.1909
20
33.2528
30
0.0
11
-205.9491
21
32.5649
31
0.0
0
LINE
8
CUT
10
-205.9491
20
32.5649
30
0.0
11
-203.6313
21
32.0105
31
0.0
0
LINE
8
CUT
10
-203.6313
20
32.0105
30
0.0
11
-201.2479
21
31.6018
31
0.0
0
LINE
8
CUT
10
-201.2479
20
31.6018
30
0.0
11
-198.8089
21
31.3511
31
0.0
0
LINE
8
CUT
10
-198.8089
20
31.3511
30
0.0
11
-188.3453
21
31.1923
31
0.0
0
LINE
8
CUT
10
-188.3453
20
31.1923
30
0.0
11
-177.8816
21
31.0422
31
0.0
0
LINE
8
CUT
10
-177.8816
20
31.0422
30
0.0
11
-167.4180
21
30.9006
31
0.0
0
LINE
8
CUT
10
-167.4180
20
30.9006
30
0.0
11
-156.9544
21
30.7676
31
0.0
0
LINE
8
CUT
10
-156.9544
20
30.7676
30
0.0
11
-146.4908
21
30.6432
31
0.0
0
LINE
8
CUT
10
-146.4908
20
30.6432
30
0.0
11
-136.0271
21
30.5273
31
0.0
0
LINE
8
CUT
10
-136.0271
20
30.5273
30
0.0
11
-125.5635
21
30.4201
31
0.0
0
LINE
8
CUT
10
-125.5635
20
30.4201
30
0.0
11
-115.0999
21
30.3214
31
0.0
0
LINE
8
CUT
10
-115.0999
20
30.3214
30
0.0
11
-104.6363
21
30.2313
31
0.0
0
LINE
8
CUT
10
-104.6363
20
30.2313
30
0.0
11
-94.1726
21
30.1498
31
0.0
0
LINE
8
CUT
10
-94.1726
20
30.1498
30
0.0
11
-83.7090
21
30.0768
31
0.0
0
LINE
8
CUT
10
-83.7090
20
30.0768
30
0.0
11
-73.2454
21
30.0125
31
0.0
0
LINE
8
CUT
10
-73.2454
20
30.0125
30
0.0
11
-62.7818
21
29.9567
31
0.0
0
LINE
8
CUT
10
-62.7818
20
29.9567
30
0.0
11
-52.3181
21
29.9095
31
0.0
0
LINE
8
CUT
10
-52.3181
20
29.9095
30
0.0
11
-41.8545
21
29.8709
31
0.0
0
LINE
8
CUT
10
-41.8545
20
29.8709
30
0.0
11
-31.3909
21
29.8409
31
0.0
0
LINE
8
CUT
10
-31.3909
20
29.8409
30
0.0
11
-20.9273
21
29.8194
31
0.0
0
LINE
8
CUT
10
-20.9273
20
29.8194
30
0.0
11
-10.4636
21
29.8066
31
0.0
0
LINE
8
CUT
10
-10.4636
20
29.8066
30
0.0
11
-0.0000
21
29.8023
31
0.0
0
LINE
8
CUT
10
-0.0000
20
29.8023
30
0.0
11
0.0000
21
29.8023
31
0.0
0
LINE
8
REG
10
0.0000
20
-20.0000
30
0.0
11
0.0000
21
176.2106
31
0.0
0
ENDSEC
0
EOF
