0
SECTION
2
ENTITIES
0
LINE
8
CUT
10
0.0000
20
13.0357
30
0.0
11
11.6947
21
13.0400
31
0.0
0
LINE
8
CUT
10
11.6947
20
13.0400
30
0.0
11
23.3894
21
13.0528
31
0.0
0
LINE
8
CUT
10
23.3894
20
13.0528
30
0.0
11
35.0841
21
13.0743
31
0.0
0
LINE
8
CUT
10
35.0841
20
13.0743
30
0.0
11
46.7788
21
13.1043
31
0.0
0
LINE
8
CUT
10
46.7788
20
13.1043
30
0.0
11
58.4735
21
13.1429
31
0.0
0
LINE
8
CUT
10
58.4735
20
13.1429
30
0.0
11
70.1682
21
13.1901
31
0.0
0
LINE
8
CUT
10
70.1682
20
13.1901
30
0.0
11
81.8629
21
13.2459
31
0.0
0
LINE
8
CUT
10
81.8629
20
13.2459
30
0.0
11
93.5575
21
13.3102
31
0.0
0
LINE
8
CUT
10
93.5575
20
13.3102
30
0.0
11
105.2522
21
13.3832
31
0.0
0
LINE
8
CUT
10
105.2522
20
13.3832
30
0.0
11
116.9469
21
13.4647
31
0.0
0
LINE
8
CUT
10
116.9469
20
13.4647
30
0.0
11
128.6416
21
13.5548
31
0.0
0
LINE
8
CUT
10
128.6416
20
13.5548
30
0.0
11
140.3363
21
13.6535
31
0.0
0
LINE
8
CUT
10
140.3363
20
13.6535
30
0.0
11
152.0310
21
13.7607
31
0.0
0
LINE
8
CUT
10
152.0310
20
13.7607
30
0.0
11
163.7257
21
13.8766
31
0.0
0
LINE
8
CUT
10
163.7257
20
13.8766
30
0.0
11
175.4204
21
14.0010
31
0.0
0
LINE
8
CUT
10
175.4204
20
14.0010
30
0.0
11
187.1151
21
14.1340
31
0.0
0
LINE
8
CUT
10
187.1151
20
14.1340
30
0.0
11
198.8098
21
14.2756
31
0.0
0
LINE
8
CUT
10
198.8098
20
14.2756
30
0.0
11
210.5045
21
14.4257
31
0.0
0
LINE
8
CUT
10
210.5045
20
14.4257
30
0.0
11
222.1992
21
14.5845
31
0.0
0
LINE
8
CUT
10
222.1992
20
14.5845
30
0.0
11
224.8955
21
15.1657
31
0.0
0
LINE
8
CUT
10
224.8955
20
15.1657
30
0.0
11
227.5365
21
15.8576
31
0.0
0
LINE
8
CUT
10
227.5365
20
15.8576
30
0.0
11
230.1103
21
16.6524
31
0.0
0
LINE
8
CUT
10
230.1103
20
16.6524
30
0.0
11
232.6048
21
17.5425
31
0.0
0
LINE
8
CUT
10
232.6048
20
17.5425
30
0.0
11
235.0080
21
18.5202
31
0.0
0
LINE
8
CUT
10
235.0080
20
18.5202
30
0.0
11
237.3081
21
19.5777
31
0.0
0
LINE
8
CUT
10
237.3081
20
19.5777
30
0.0
11
239.4929
21
20.7074
31
0.0
0
LINE
8
CUT
10
239.4929
20
20.7074
30
0.0
11
241.5506
21
21.9017
31
0.0
0
LINE
8
CUT
10
241.5506
20
21.9017
30
0.0
11
243.4691
21
23.1527
31
0.0
0
LINE
8
CUT
10
243.4691
20
23.1527
30
0.0
11
245.2366
21
24.4529
31
0.0
0
LINE
8
CUT
10
245.2366
20
24.4529
30
0.0
11
246.8409
21
25.7946
31
0.0
0
LINE
8
CUT
10
246.8409
20
25.7946
30
0.0
11
248.2702
21
27.1699
31
0.0
0
LINE
8
CUT
10
248.2702
20
27.1699
30
0.0
11
249.5125
21
28.5714
31
0.0
0
LINE
8
CUT
10
249.5125
20
28.5714
30
0.0
11
250.5557
21
29.9912
31
0.0
0
LINE
8
CUT
10
250.5557
20
29.9912
30
0.0
11
251.3880
21
31.4218
31
0.0
0
LINE
8
CUT
10
251.3880
20
31.4218
30
0.0
11
251.9973
21
32.8553
31
0.0
0
LINE
8
CUT
10
251.9973
20
32.8553
30
0.0
11
252.3716
21
34.2842
31
0.0
0
LINE
8
CUT
10
252.3716
20
34.2842
30
0.0
11
252.4991
21
35.7007
31
0.0
0
LINE
8
CUT
10
252.4991
20
35.7007
30
0.0
11
252.3351
21
42.0405
31
0.0
0
LINE
8
CUT
10
252.3351
20
42.0405
30
0.0
11
251.8506
21
48.5404
31
0.0
0
LINE
8
CUT
10
251.8506
20
48.5404
30
0.0
11
251.0561
21
55.1622
31
0.0
0
LINE
8
CUT
10
251.0561
20
55.1622
30
0.0
11
249.9624
21
61.8677
31
0.0
0
LINE
8
CUT
10
249.9624
20
61.8677
30
0.0
11
248.5802
21
68.6187
31
0.0
0
LINE
8
CUT
10
248.5802
20
68.6187
30
0.0
11
246.9204
21
75.3768
31
0.0
0
LINE
8
CUT
10
246.9204
20
75.3768
30
0.0
11
244.9936
21
82.1040
31
0.0
0
LINE
8
CUT
10
244.9936
20
82.1040
30
0.0
11
242.8106
21
88.7620
31
0.0
0
LINE
8
CUT
10
242.8106
20
88.7620
30
0.0
11
240.3821
21
95.3125
31
0.0
0
LINE
8
CUT
10
240.3821
20
95.3125
30
0.0
11
237.7188
21
101.7174
31
0.0
0
LINE
8
CUT
10
237.7188
20
101.7174
30
0.0
11
234.8315
21
107.9385
31
0.0
0
LINE
8
CUT
10
234.8315
20
107.9385
30
0.0
11
231.7310
21
113.9374
31
0.0
0
LINE
8
CUT
10
231.7310
20
113.9374
30
0.0
11
228.4280
21
119.6761
31
0.0
0
LINE
8
CUT
10
228.4280
20
119.6761
30
0.0
11
224.9331
21
125.1163
31
0.0
0
LINE
8
CUT
10
224.9331
20
125.1163
30
0.0
11
221.2572
21
130.2197
31
0.0
0
LINE
8
CUT
10
221.2572
20
130.2197
30
0.0
11
217.4110
21
134.9482
31
0.0
0
LINE
8
CUT
10
217.4110
20
134.9482
30
0.0
11
213.4053
21
139.2635
31
0.0
0
LINE
8
CUT
10
213.4053
20
139.2635
30
0.0
11
209.2507
21
143.1275
31
0.0
0
LINE
8
CUT
10
209.2507
20
143.1275
30
0.0
11
204.9580
21
146.5018
31
0.0
0
LINE
8
CUT
10
204.9580
20
146.5018
30
0.0
11
200.5380
21
149.3483
31
0.0
0
LINE
8
CUT
10
200.5380
20
149.3483
30
0.0
11
196.0014
21
151.6288
31
0.0
0
LINE
8
CUT
10
196.0014
20
151.6288
30
0.0
11
191.3589
21
153.3051
31
0.0
0
LINE
8
CUT
10
191.3589
20
153.3051
30
0.0
11
186.6213
21
154.3389
31
0.0
0
LINE
8
CUT
10
186.6213
20
154.3389
30
0.0
11
181.7993
21
154.6919
31
0.0
0
LINE
8
CUT
10
181.7993
20
154.6919
30
0.0
11
172.7094
21
154.6919
31
0.0
0
LINE
8
CUT
10
172.7094
20
154.6919
30
0.0
11
163.6194
21
154.6919
31
0.0
0
LINE
8
CUT
10
163.6194
20
154.6919
30
0.0
11
154.5294
21
154.6919
31
0.0
0
LINE
8
CUT
10
154.5294
20
154.6919
30
0.0
11
145.4395
21
154.6919
31
0.0
0
LINE
8
CUT
10
145.4395
20
154.6919
30
0.0
11
136.3495
21
154.6919
31
0.0
0
LINE
8
CUT
10
136.3495
20
154.6919
30
0.0
11
127.2595
21
154.6919
31
0.0
0
LINE
8
CUT
10
127.2595
20
154.6919
30
0.0
11
118.1696
21
154.6919
31
0.0
0
LINE
8
CUT
10
118.1696
20
154.6919
30
0.0
11
109.0796
21
154.6919
31
0.0
0
LINE
8
CUT
10
109.0796
20
154.6919
30
0.0
11
99.9896
21
154.6919
31
0.0
0
LINE
8
CUT
10
99.9896
20
154.6919
30
0.0
11
90.8997
21
154.6919
31
0.0
0
LINE
8
CUT
10
90.8997
20
154.6919
30
0.0
11
81.8097
21
154.6919
31
0.0
0
LINE
8
CUT
10
81.8097
20
154.6919
30
0.0
11
72.7197
21
154.6919
31
0.0
0
LINE
8
CUT
10
72.7197
20
154.6919
30
0.0
11
63.6298
21
154.6919
31
0.0
0
LINE
8
CUT
10
63.6298
20
154.6919
30
0.0
11
54.5398
21
154.6919
31
0.0
0
LINE
8
CUT
10
54.5398
20
154.6919
30
0.0
11
45.4498
21
154.6919
31
0.0
0
LINE
8
CUT
10
45.4498
20
154.6919
30
0.0
11
36.3599
21
154.6919
31
0.0
0
LINE
8
CUT
10
36.3599
20
154.6919
30
0.0
11
27.2699
21
154.6919
31
0.0
0
LINE
8
CUT
10
27.2699
20
154.6919
30
0.0
11
18.1799
21
154.6919
31
0.0
0
LINE
8
CUT
10
18.1799
20
154.6919
30
0.0
11
9.0900
21
154.6919
31
0.0
0
LINE
8
CUT
10
9.0900
20
154.6919
30
0.0
11
0.0000
21
154.6919
31
0.0
0
LINE
8
CUT
10
0.0000
20
154.6919
30
0.0
11
-0.0000
21
154.6919
31
0.0
0
LINE
8
CUT
10
-0.0000
20
154.6919
30
0.0
11
-9.0900
21
154.6919
31
0.0
0
LINE
8
CUT
10
-9.0900
20
154.6919
30
0.0
11
-18.1799
21
154.6919
31
0.0
0
LINE
8
CUT
10
-18.1799
20
154.6919
30
0.0
11
-27.2699
21
154.6919
31
0.0
0
LINE
8
CUT
10
-27.2699
20
154.6919
30
0.0
11
-36.3599
21
154.6919
31
0.0
0
LINE
8
CUT
10
-36.3599
20
154.6919
30
0.0
11
-45.4498
21
154.6919
31
0.0
0
LINE
8
CUT
10
-45.4498
20
154.6919
30
0.0
11
-54.5398
21
154.6919
31
0.0
0
LINE
8
CUT
10
-54.5398
20
154.6919
30
0.0
11
-63.6298
21
154.6919
31
0.0
0
LINE
8
CUT
10
-63.6298
20
154.6919
30
0.0
11
-72.7197
21
154.6919
31
0.0
0
LINE
8
CUT
10
-72.7197
20
154.6919
30
0.0
11
-81.8097
21
154.6919
31
0.0
0
LINE
8
CUT
10
-81.8097
20
154.6919
30
0.0
11
-90.8997
21
154.6919
31
0.0
0
LINE
8
CUT
10
-90.8997
20
154.6919
30
0.0
11
-99.9896
21
154.6919
31
0.0
0
LINE
8
CUT
10
-99.9896
20
154.6919
30
0.0
11
-109.0796
21
154.6919
31
0.0
0
LINE
8
CUT
10
-109.0796
20
154.6919
30
0.0
11
-118.1696
21
154.6919
31
0.0
0
LINE
8
CUT
10
-118.1696
20
154.6919
30
0.0
11
-127.2595
21
154.6919
31
0.0
0
LINE
8
CUT
10
-127.2595
20
154.6919
30
0.0
11
-136.3495
21
154.6919
31
0.0
0
LINE
8
CUT
10
-136.3495
20
154.6919
30
0.0
11
-145.4395
21
154.6919
31
0.0
0
LINE
8
CUT
10
-145.4395
20
154.6919
30
0.0
11
-154.5294
21
154.6919
31
0.0
0
LINE
8
CUT
10
-154.5294
20
154.6919
30
0.0
11
-163.6194
21
154.6919
31
0.0
0
LINE
8
CUT
10
-163.6194
20
154.6919
30
0.0
11
-172.7094
21
154.6919
31
0.0
0
LINE
8
CUT
10
-172.7094
20
154.6919
30
0.0
11
-181.7993
21
154.6919
31
0.0
0
LINE
8
CUT
10
-181.7993
20
154.6919
30
0.0
11
-186.6213
21
154.3389
31
0.0
0
LINE
8
CUT
10
-186.6213
20
154.3389
30
0.0
11
-191.3589
21
153.3051
31
0.0
0
LINE
8
CUT
10
-191.3589
20
153.3051
30
0.0
11
-196.0014
21
151.6288
31
0.0
0
LINE
8
CUT
10
-196.0014
20
151.6288
30
0.0
11
-200.5380
21
149.3483
31
0.0
0
LINE
8
CUT
10
-200.5380
20
149.3483
30
0.0
11
-204.9580
21
146.5018
31
0.0
0
LINE
8
CUT
10
-204.9580
20
146.5018
30
0.0
11
-209.2507
21
143.1275
31
0.0
0
LINE
8
CUT
10
-209.2507
20
143.1275
30
0.0
11
-213.4053
21
139.2635
31
0.0
0
LINE
8
CUT
10
-213.4053
20
139.2635
30
0.0
11
-217.4110
21
134.9482
31
0.0
0
LINE
8
CUT
10
-217.4110
20
134.9482
30
0.0
11
-221.2572
21
130.2197
31
0.0
0
LINE
8
CUT
10
-221.2572
20
130.2197
30
0.0
11
-224.9331
21
125.1163
31
0.0
0
LINE
8
CUT
10
-224.9331
20
125.1163
30
0.0
11
-228.4280
21
119.6761
31
0.0
0
LINE
8
CUT
10
-228.4280
20
119.6761
30
0.0
11
-231.7310
21
113.9374
31
0.0
0
LINE
8
CUT
10
-231.7310
20
113.9374
30
0.0
11
-234.8315
21
107.9385
31
0.0
0
LINE
8
CUT
10
-234.8315
20
107.9385
30
0.0
11
-237.7188
21
101.7174
31
0.0
0
LINE
8
CUT
10
-237.7188
20
101.7174
30
0.0
11
-240.3821
21
95.3125
31
0.0
0
LINE
8
CUT
10
-240.3821
20
95.3125
30
0.0
11
-242.8106
21
88.7620
31
0.0
0
LINE
8
CUT
10
-242.8106
20
88.7620
30
0.0
11
-244.9936
21
82.1040
31
0.0
0
LINE
8
CUT
10
-244.9936
20
82.1040
30
0.0
11
-246.9204
21
75.3768
31
0.0
0
LINE
8
CUT
10
-246.9204
20
75.3768
30
0.0
11
-248.5802
21
68.6187
31
0.0
0
LINE
8
CUT
10
-248.5802
20
68.6187
30
0.0
11
-249.9624
21
61.8677
31
0.0
0
LINE
8
CUT
10
-249.9624
20
61.8677
30
0.0
11
-251.0561
21
55.1622
31
0.0
0
LINE
8
CUT
10
-251.0561
20
55.1622
30
0.0
11
-251.8506
21
48.5404
31
0.0
0
LINE
8
CUT
10
-251.8506
20
48.5404
30
0.0
11
-252.3351
21
42.0405
31
0.0
0
LINE
8
CUT
10
-252.3351
20
42.0405
30
0.0
11
-252.4991
21
35.7007
31
0.0
0
LINE
8
CUT
10
-252.4991
20
35.7007
30
0.0
11
-252.3716
21
34.2842
31
0.0
0
LINE
8
CUT
10
-252.3716
20
34.2842
30
0.0
11
-251.9973
21
32.8553
31
0.0
0
LINE
8
CUT
10
-251.9973
20
32.8553
30
0.0
11
-251.3880
21
31.4218
31
0.0
0
LINE
8
CUT
10
-251.3880
20
31.4218
30
0.0
11
-250.5557
21
29.9912
31
0.0
0
LINE
8
CUT
10
-250.5557
20
29.9912
30
0.0
11
-249.5125
21
28.5714
31
0.0
0
LINE
8
CUT
10
-249.5125
20
28.5714
30
0.0
11
-248.2702
21
27.1699
31
0.0
0
LINE
8
CUT
10
-248.2702
20
27.1699
30
0.0
11
-246.8409
21
25.7946
31
0.0
0
LINE
8
CUT
10
-246.8409
20
25.7946
30
0.0
11
-245.2366
21
24.4529
31
0.0
0
LINE
8
CUT
10
-245.2366
20
24.4529
30
0.0
11
-243.4691
21
23.1527
31
0.0
0
LINE
8
CUT
10
-243.4691
20
23.1527
30
0.0
11
-241.5506
21
21.9017
31
0.0
0
LINE
8
CUT
10
-241.5506
20
21.9017
30
0.0
11
-239.4929
21
20.7074
31
0.0
0
LINE
8
CUT
10
-239.4929
20
20.7074
30
0.0
11
-237.3081
21
19.5777
31
0.0
0
LINE
8
CUT
10
-237.3081
20
19.5777
30
0.0
11
-235.0080
21
18.5202
31
0.0
0
LINE
8
CUT
10
-235.0080
20
18.5202
30
0.0
11
-232.6048
21
17.5425
31
0.0
0
LINE
8
CUT
10
-232.6048
20
17.5425
30
0.0
11
-230.1103
21
16.6524
31
0.0
0
LINE
8
CUT
10
-230.1103
20
16.6524
30
0.0
11
-227.5365
21
15.8576
31
0.0
0
LINE
8
CUT
10
-227.5365
20
15.8576
30
0.0
11
-224.8955
21
15.1657
31
0.0
0
LINE
8
CUT
10
-224.8955
20
15.1657
30
0.0
11
-222.1992
21
14.5845
31
0.0
0
LINE
8
CUT
10
-222.1992
20
14.5845
30
0.0
11
-210.5045
21
14.4257
31
0.0
0
LINE
8
CUT
10
-210.5045
20
14.4257
30
0.0
11
-198.8098
21
14.2756
31
0.0
0
LINE
8
CUT
10
-198.8098
20
14.2756
30
0.0
11
-187.1151
21
14.1340
31
0.0
0
LINE
8
CUT
10
-187.1151
20
14.1340
30
0.0
11
-175.4204
21
14.0010
31
0.0
0
LINE
8
CUT
10
-175.4204
20
14.0010
30
0.0
11
-163.7257
21
13.8766
31
0.0
0
LINE
8
CUT
10
-163.7257
20
13.8766
30
0.0
11
-152.0310
21
13.7607
31
0.0
0
LINE
8
CUT
10
-152.0310
20
13.7607
30
0.0
11
-140.3363
21
13.6535
31
0.0
0
LINE
8
CUT
10
-140.3363
20
13.6535
30
0.0
11
-128.6416
21
13.5548
31
0.0
0
LINE
8
CUT
10
-128.6416
20
13.5548
30
0.0
11
-116.9469
21
13.4647
31
0.0
0
LINE
8
CUT
10
-116.9469
20
13.4647
30
0.0
11
-105.2522
21
13.3832
31
0.0
0
LINE
8
CUT
10
-105.2522
20
13.3832
30
0.0
11
-93.5575
21
13.3102
31
0.0
0
LINE
8
CUT
10
-93.5575
20
13.3102
30
0.0
11
-81.8629
21
13.2459
31
0.0
0
LINE
8
CUT
10
-81.8629
20
13.2459
30
0.0
11
-70.1682
21
13.1901
31
0.0
0
LINE
8
CUT
10
-70.1682
20
13.1901
30
0.0
11
-58.4735
21
13.1429
31
0.0
0
LINE
8
CUT
10
-58.4735
20
13.1429
30
0.0
11
-46.7788
21
13.1043
31
0.0
0
LINE
8
CUT
10
-46.7788
20
13.1043
30
0.0
11
-35.0841
21
13.0743
31
0.0
0
LINE
8
CUT
10
-35.0841
20
13.0743
30
0.0
11
-23.3894
21
13.0528
31
0.0
0
LINE
8
CUT
10
-23.3894
20
13.0528
30
0.0
11
-11.6947
21
13.0400
31
0.0
0
LINE
8
CUT
10
-11.6947
20
13.0400
30
0.0
11
-0.0000
21
13.0357
31
0.0
0
LINE
8
CUT
10
-0.0000
20
13.0357
30
0.0
11
0.0000
21
13.0357
31
0.0
0
LINE
8
REG
10
0.0000
20
-20.0000
30
0.0
11
0.0000
21
174.6919
31
0.0
0
ENDSEC
0
EOF
