0
SECTION
2
ENTITIES
0
LINE
8
CUT
10
0.0000
20
0.0000
30
0.0
11
12.7645
21
0.0043
31
0.0
0
LINE
8
CUT
10
12.7645
20
0.0043
30
0.0
11
25.5289
21
0.0172
31
0.0
0
LINE
8
CUT
10
25.5289
20
0.0172
30
0.0
11
38.2934
21
0.0386
31
0.0
0
LINE
8
CUT
10
38.2934
20
0.0386
30
0.0
11
51.0579
21
0.0686
31
0.0
0
LINE
8
CUT
10
51.0579
20
0.0686
30
0.0
11
63.8224
21
0.1073
31
0.0
0
LINE
8
CUT
10
63.8224
20
0.1073
30
0.0
11
76.5868
21
0.1545
31
0.0
0
LINE
8
CUT
10
76.5868
20
0.1545
30
0.0
11
89.3513
21
0.2102
31
0.0
0
LINE
8
CUT
10
89.3513
20
0.2102
30
0.0
11
102.1158
21
0.2746
31
0.0
0
LINE
8
CUT
10
102.1158
20
0.2746
30
0.0
11
114.8802
21
0.3475
31
0.0
0
LINE
8
CUT
10
114.8802
20
0.3475
30
0.0
11
127.6447
21
0.4290
31
0.0
0
LINE
8
CUT
10
127.6447
20
0.4290
30
0.0
11
140.4092
21
0.5191
31
0.0
0
LINE
8
CUT
10
140.4092
20
0.5191
30
0.0
11
153.1736
21
0.6178
31
0.0
0
LINE
8
CUT
10
153.1736
20
0.6178
30
0.0
11
165.9381
21
0.7251
31
0.0
0
LINE
8
CUT
10
165.9381
20
0.7251
30
0.0
11
178.7026
21
0.8409
31
0.0
0
LINE
8
CUT
10
178.7026
20
0.8409
30
0.0
11
191.4671
21
0.9653
31
0.0
0
LINE
8
CUT
10
191.4671
20
0.9653
30
0.0
11
204.2315
21
1.0983
31
0.0
0
LINE
8
CUT
10
204.2315
20
1.0983
30
0.0
11
216.9960
21
1.2399
31
0.0
0
LINE
8
CUT
10
216.9960
20
1.2399
30
0.0
11
229.7605
21
1.3901
31
0.0
0
LINE
8
CUT
10
229.7605
20
1.3901
30
0.0
11
242.5249
21
1.5488
31
0.0
0
LINE
8
CUT
10
242.5249
20
1.5488
30
0.0
11
243.6533
21
4.2389
31
0.0
0
LINE
8
CUT
10
243.6533
20
4.2389
30
0.0
11
245.1357
21
6.5804
31
0.0
0
LINE
8
CUT
10
245.1357
20
6.5804
30
0.0
11
246.9213
21
8.6076
31
0.0
0
LINE
8
CUT
10
246.9213
20
8.6076
30
0.0
11
248.9596
21
10.3547
31
0.0
0
LINE
8
CUT
10
248.9596
20
10.3547
30
0.0
11
251.1996
21
11.8562
31
0.0
0
LINE
8
CUT
10
251.1996
20
11.8562
30
0.0
11
253.5908
21
13.1461
31
0.0
0
LINE
8
CUT
10
253.5908
20
13.1461
30
0.0
11
256.0822
21
14.2589
31
0.0
0
LINE
8
CUT
10
256.0822
20
14.2589
30
0.0
11
258.6233
21
15.2288
31
0.0
0
LINE
8
CUT
10
258.6233
20
15.2288
30
0.0
11
261.1631
21
16.0900
31
0.0
0
LINE
8
CUT
10
261.1631
20
16.0900
30
0.0
11
263.6511
21
16.8769
31
0.0
0
LINE
8
CUT
10
263.6511
20
16.8769
30
0.0
11
266.0364
21
17.6237
31
0.0
0
LINE
8
CUT
10
266.0364
20
17.6237
30
0.0
11
268.2683
21
18.3646
31
0.0
0
LINE
8
CUT
10
268.2683
20
18.3646
30
0.0
11
270.2960
21
19.1341
31
0.0
0
LINE
8
CUT
10
270.2960
20
19.1341
30
0.0
11
272.0689
21
19.9663
31
0.0
0
LINE
8
CUT
10
272.0689
20
19.9663
30
0.0
11
273.5361
21
20.8955
31
0.0
0
LINE
8
CUT
10
273.5361
20
20.8955
30
0.0
11
274.6469
21
21.9560
31
0.0
0
LINE
8
CUT
10
274.6469
20
21.9560
30
0.0
11
275.3507
21
23.1821
31
0.0
0
LINE
8
CUT
10
275.3507
20
23.1821
30
0.0
11
275.5965
21
24.6080
31
0.0
0
LINE
8
CUT
10
275.5965
20
24.6080
30
0.0
11
275.4176
21
31.4913
31
0.0
0
LINE
8
CUT
10
275.4176
20
31.4913
30
0.0
11
274.8887
21
38.5485
31
0.0
0
LINE
8
CUT
10
274.8887
20
38.5485
30
0.0
11
274.0215
21
45.7380
31
0.0
0
LINE
8
CUT
10
274.0215
20
45.7380
30
0.0
11
272.8278
21
53.0183
31
0.0
0
LINE
8
CUT
10
272.8278
20
53.0183
30
0.0
11
271.3192
21
60.3479
31
0.0
0
LINE
8
CUT
10
271.3192
20
60.3479
30
0.0
11
269.5076
21
67.6855
31
0.0
0
LINE
8
CUT
10
269.5076
20
67.6855
30
0.0
11
267.4045
21
74.9893
31
0.0
0
LINE
8
CUT
10
267.4045
20
74.9893
30
0.0
11
265.0218
21
82.2181
31
0.0
0
LINE
8
CUT
10
265.0218
20
82.2181
30
0.0
11
262.3711
21
89.3302
31
0.0
0
LINE
8
CUT
10
262.3711
20
89.3302
30
0.0
11
259.4642
21
96.2841
31
0.0
0
LINE
8
CUT
10
259.4642
20
96.2841
30
0.0
11
256.3129
21
103.0385
31
0.0
0
LINE
8
CUT
10
256.3129
20
103.0385
30
0.0
11
252.9287
21
109.5517
31
0.0
0
LINE
8
CUT
10
252.9287
20
109.5517
30
0.0
11
249.3235
21
115.7824
31
0.0
0
LINE
8
CUT
10
249.3235
20
115.7824
30
0.0
11
245.5090
21
121.6889
31
0.0
0
LINE
8
CUT
10
245.5090
20
121.6889
30
0.0
11
241.4968
21
127.2298
31
0.0
0
LINE
8
CUT
10
241.4968
20
127.2298
30
0.0
11
237.2988
21
132.3637
31
0.0
0
LINE
8
CUT
10
237.2988
20
132.3637
30
0.0
11
232.9266
21
137.0490
31
0.0
0
LINE
8
CUT
10
232.9266
20
137.0490
30
0.0
11
228.3920
21
141.2442
31
0.0
0
LINE
8
CUT
10
228.3920
20
141.2442
30
0.0
11
223.7067
21
144.9078
31
0.0
0
LINE
8
CUT
10
223.7067
20
144.9078
30
0.0
11
218.8823
21
147.9983
31
0.0
0
LINE
8
CUT
10
218.8823
20
147.9983
30
0.0
11
213.9307
21
150.4743
31
0.0
0
LINE
8
CUT
10
213.9307
20
150.4743
30
0.0
11
208.8636
21
152.2943
31
0.0
0
LINE
8
CUT
10
208.8636
20
152.2943
30
0.0
11
203.6926
21
153.4166
31
0.0
0
LINE
8
CUT
10
203.6926
20
153.4166
30
0.0
11
198.4295
21
153.8000
31
0.0
0
LINE
8
CUT
10
198.4295
20
153.8000
30
0.0
11
188.5080
21
153.8000
31
0.0
0
LINE
8
CUT
10
188.5080
20
153.8000
30
0.0
11
178.5865
21
153.8000
31
0.0
0
LINE
8
CUT
10
178.5865
20
153.8000
30
0.0
11
168.6651
21
153.8000
31
0.0
0
LINE
8
CUT
10
168.6651
20
153.8000
30
0.0
11
158.7436
21
153.8000
31
0.0
0
LINE
8
CUT
10
158.7436
20
153.8000
30
0.0
11
148.8221
21
153.8000
31
0.0
0
LINE
8
CUT
10
148.8221
20
153.8000
30
0.0
11
138.9006
21
153.8000
31
0.0
0
LINE
8
CUT
10
138.9006
20
153.8000
30
0.0
11
128.9792
21
153.8000
31
0.0
0
LINE
8
CUT
10
128.9792
20
153.8000
30
0.0
11
119.0577
21
153.8000
31
0.0
0
LINE
8
CUT
10
119.0577
20
153.8000
30
0.0
11
109.1362
21
153.8000
31
0.0
0
LINE
8
CUT
10
109.1362
20
153.8000
30
0.0
11
99.2147
21
153.8000
31
0.0
0
LINE
8
CUT
10
99.2147
20
153.8000
30
0.0
11
89.2933
21
153.8000
31
0.0
0
LINE
8
CUT
10
89.2933
20
153.8000
30
0.0
11
79.3718
21
153.8000
31
0.0
0
LINE
8
CUT
10
79.3718
20
153.8000
30
0.0
11
69.4503
21
153.8000
31
0.0
0
LINE
8
CUT
10
69.4503
20
153.8000
30
0.0
11
59.5288
21
153.8000
31
0.0
0
LINE
8
CUT
10
59.5288
20
153.8000
30
0.0
11
49.6074
21
153.8000
31
0.0
0
LINE
8
CUT
10
49.6074
20
153.8000
30
0.0
11
39.6859
21
153.8000
31
0.0
0
LINE
8
CUT
10
39.6859
20
153.8000
30
0.0
11
29.7644
21
153.8000
31
0.0
0
LINE
8
CUT
10
29.7644
20
153.8000
30
0.0
11
19.8429
21
153.8000
31
0.0
0
LINE
8
CUT
10
19.8429
20
153.8000
30
0.0
11
9.9215
21
153.8000
31
0.0
0
LINE
8
CUT
10
9.9215
20
153.8000
30
0.0
11
0.0000
21
153.8000
31
0.0
0
LINE
8
CUT
10
0.0000
20
153.8000
30
0.0
11
-0.0000
21
153.8000
31
0.0
0
LINE
8
CUT
10
-0.0000
20
153.8000
30
0.0
11
-9.9215
21
153.8000
31
0.0
0
LINE
8
CUT
10
-9.9215
20
153.8000
30
0.0
11
-19.8429
21
153.8000
31
0.0
0
LINE
8
CUT
10
-19.8429
20
153.8000
30
0.0
11
-29.7644
21
153.8000
31
0.0
0
LINE
8
CUT
10
-29.7644
20
153.8000
30
0.0
11
-39.6859
21
153.8000
31
0.0
0
LINE
8
CUT
10
-39.6859
20
153.8000
30
0.0
11
-49.6074
21
153.8000
31
0.0
0
LINE
8
CUT
10
-49.6074
20
153.8000
30
0.0
11
-59.5288
21
153.8000
31
0.0
0
LINE
8
CUT
10
-59.5288
20
153.8000
30
0.0
11
-69.4503
21
153.8000
31
0.0
0
LINE
8
CUT
10
-69.4503
20
153.8000
30
0.0
11
-79.3718
21
153.8000
31
0.0
0
LINE
8
CUT
10
-79.3718
20
153.8000
30
0.0
11
-89.2933
21
153.8000
31
0.0
0
LINE
8
CUT
10
-89.2933
20
153.8000
30
0.0
11
-99.2147
21
153.8000
31
0.0
0
LINE
8
CUT
10
-99.2147
20
153.8000
30
0.0
11
-109.1362
21
153.8000
31
0.0
0
LINE
8
CUT
10
-109.1362
20
153.8000
30
0.0
11
-119.0577
21
153.8000
31
0.0
0
LINE
8
CUT
10
-119.0577
20
153.8000
30
0.0
11
-128.9792
21
153.8000
31
0.0
0
LINE
8
CUT
10
-128.9792
20
153.8000
30
0.0
11
-138.9006
21
153.8000
31
0.0
0
LINE
8
CUT
10
-138.9006
20
153.8000
30
0.0
11
-148.8221
21
153.8000
31
0.0
0
LINE
8
CUT
10
-148.8221
20
153.8000
30
0.0
11
-158.7436
21
153.8000
31
0.0
0
LINE
8
CUT
10
-158.7436
20
153.8000
30
0.0
11
-168.6651
21
153.8000
31
0.0
0
LINE
8
CUT
10
-168.6651
20
153.8000
30
0.0
11
-178.5865
21
153.8000
31
0.0
0
LINE
8
CUT
10
-178.5865
20
153.8000
30
0.0
11
-188.5080
21
153.8000
31
0.0
0
LINE
8
CUT
10
-188.5080
20
153.8000
30
0.0
11
-198.4295
21
153.8000
31
0.0
0
LINE
8
CUT
10
-198.4295
20
153.8000
30
0.0
11
-203.6926
21
153.4166
31
0.0
0
LINE
8
CUT
10
-203.6926
20
153.4166
30
0.0
11
-208.8636
21
152.2943
31
0.0
0
LINE
8
CUT
10
-208.8636
20
152.2943
30
0.0
11
-213.9307
21
150.4743
31
0.0
0
LINE
8
CUT
10
-213.9307
20
150.4743
30
0.0
11
-218.8823
21
147.9983
31
0.0
0
LINE
8
CUT
10
-218.8823
20
147.9983
30
0.0
11
-223.7067
21
144.9078
31
0.0
0
LINE
8
CUT
10
-223.7067
20
144.9078
30
0.0
11
-228.3920
21
141.2442
31
0.0
0
LINE
8
CUT
10
-228.3920
20
141.2442
30
0.0
11
-232.9266
21
137.0490
31
0.0
0
LINE
8
CUT
10
-232.9266
20
137.0490
30
0.0
11
-237.2988
21
132.3637
31
0.0
0
LINE
8
CUT
10
-237.2988
20
132.3637
30
0.0
11
-241.4968
21
127.2298
31
0.0
0
LINE
8
CUT
10
-241.4968
20
127.2298
30
0.0
11
-245.5090
21
121.6889
31
0.0
0
LINE
8
CUT
10
-245.5090
20
121.6889
30
0.0
11
-249.3235
21
115.7824
31
0.0
0
LINE
8
CUT
10
-249.3235
20
115.7824
30
0.0
11
-252.9287
21
109.5517
31
0.0
0
LINE
8
CUT
10
-252.9287
20
109.5517
30
0.0
11
-256.3129
21
103.0385
31
0.0
0
LINE
8
CUT
10
-256.3129
20
103.0385
30
0.0
11
-259.4642
21
96.2841
31
0.0
0
LINE
8
CUT
10
-259.4642
20
96.2841
30
0.0
11
-262.3711
21
89.3302
31
0.0
0
LINE
8
CUT
10
-262.3711
20
89.3302
30
0.0
11
-265.0218
21
82.2181
31
0.0
0
LINE
8
CUT
10
-265.0218
20
82.2181
30
0.0
11
-267.4045
21
74.9893
31
0.0
0
LINE
8
CUT
10
-267.4045
20
74.9893
30
0.0
11
-269.5076
21
67.6855
31
0.0
0
LINE
8
CUT
10
-269.5076
20
67.6855
30
0.0
11
-271.3192
21
60.3479
31
0.0
0
LINE
8
CUT
10
-271.3192
20
60.3479
30
0.0
11
-272.8278
21
53.0183
31
0.0
0
LINE
8
CUT
10
-272.8278
20
53.0183
30
0.0
11
-274.0215
21
45.7380
31
0.0
0
LINE
8
CUT
10
-274.0215
20
45.7380
30
0.0
11
-274.8887
21
38.5485
31
0.0
0
LINE
8
CUT
10
-274.8887
20
38.5485
30
0.0
11
-275.4176
21
31.4913
31
0.0
0
LINE
8
CUT
10
-275.4176
20
31.4913
30
0.0
11
-275.5965
21
24.6080
31
0.0
0
LINE
8
CUT
10
-275.5965
20
24.6080
30
0.0
11
-275.3507
21
23.1821
31
0.0
0
LINE
8
CUT
10
-275.3507
20
23.1821
30
0.0
11
-274.6469
21
21.9560
31
0.0
0
LINE
8
CUT
10
-274.6469
20
21.9560
30
0.0
11
-273.5361
21
20.8955
31
0.0
0
LINE
8
CUT
10
-273.5361
20
20.8955
30
0.0
11
-272.0689
21
19.9663
31
0.0
0
LINE
8
CUT
10
-272.0689
20
19.9663
30
0.0
11
-270.2960
21
19.1341
31
0.0
0
LINE
8
CUT
10
-270.2960
20
19.1341
30
0.0
11
-268.2683
21
18.3646
31
0.0
0
LINE
8
CUT
10
-268.2683
20
18.3646
30
0.0
11
-266.0364
21
17.6237
31
0.0
0
LINE
8
CUT
10
-266.0364
20
17.6237
30
0.0
11
-263.6511
21
16.8769
31
0.0
0
LINE
8
CUT
10
-263.6511
20
16.8769
30
0.0
11
-261.1631
21
16.0900
31
0.0
0
LINE
8
CUT
10
-261.1631
20
16.0900
30
0.0
11
-258.6233
21
15.2288
31
0.0
0
LINE
8
CUT
10
-258.6233
20
15.2288
30
0.0
11
-256.0822
21
14.2589
31
0.0
0
LINE
8
CUT
10
-256.0822
20
14.2589
30
0.0
11
-253.5908
21
13.1461
31
0.0
0
LINE
8
CUT
10
-253.5908
20
13.1461
30
0.0
11
-251.1996
21
11.8562
31
0.0
0
LINE
8
CUT
10
-251.1996
20
11.8562
30
0.0
11
-248.9596
21
10.3547
31
0.0
0
LINE
8
CUT
10
-248.9596
20
10.3547
30
0.0
11
-246.9213
21
8.6076
31
0.0
0
LINE
8
CUT
10
-246.9213
20
8.6076
30
0.0
11
-245.1357
21
6.5804
31
0.0
0
LINE
8
CUT
10
-245.1357
20
6.5804
30
0.0
11
-243.6533
21
4.2389
31
0.0
0
LINE
8
CUT
10
-243.6533
20
4.2389
30
0.0
11
-242.5249
21
1.5488
31
0.0
0
LINE
8
CUT
10
-242.5249
20
1.5488
30
0.0
11
-229.7605
21
1.3901
31
0.0
0
LINE
8
CUT
10
-229.7605
20
1.3901
30
0.0
11
-216.9960
21
1.2399
31
0.0
0
LINE
8
CUT
10
-216.9960
20
1.2399
30
0.0
11
-204.2315
21
1.0983
31
0.0
0
LINE
8
CUT
10
-204.2315
20
1.0983
30
0.0
11
-191.4671
21
0.9653
31
0.0
0
LINE
8
CUT
10
-191.4671
20
0.9653
30
0.0
11
-178.7026
21
0.8409
31
0.0
0
LINE
8
CUT
10
-178.7026
20
0.8409
30
0.0
11
-165.9381
21
0.7251
31
0.0
0
LINE
8
CUT
10
-165.9381
20
0.7251
30
0.0
11
-153.1736
21
0.6178
31
0.0
0
LINE
8
CUT
10
-153.1736
20
0.6178
30
0.0
11
-140.4092
21
0.5191
31
0.0
0
LINE
8
CUT
10
-140.4092
20
0.5191
30
0.0
11
-127.6447
21
0.4290
31
0.0
0
LINE
8
CUT
10
-127.6447
20
0.4290
30
0.0
11
-114.8802
21
0.3475
31
0.0
0
LINE
8
CUT
10
-114.8802
20
0.3475
30
0.0
11
-102.1158
21
0.2746
31
0.0
0
LINE
8
CUT
10
-102.1158
20
0.2746
30
0.0
11
-89.3513
21
0.2102
31
0.0
0
LINE
8
CUT
10
-89.3513
20
0.2102
30
0.0
11
-76.5868
21
0.1545
31
0.0
0
LINE
8
CUT
10
-76.5868
20
0.1545
30
0.0
11
-63.8224
21
0.1073
31
0.0
0
LINE
8
CUT
10
-63.8224
20
0.1073
30
0.0
11
-51.0579
21
0.0686
31
0.0
0
LINE
8
CUT
10
-51.0579
20
0.0686
30
0.0
11
-38.2934
21
0.0386
31
0.0
0
LINE
8
CUT
10
-38.2934
20
0.0386
30
0.0
11
-25.5289
21
0.0172
31
0.0
0
LINE
8
CUT
10
-25.5289
20
0.0172
30
0.0
11
-12.7645
21
0.0043
31
0.0
0
LINE
8
CUT
10
-12.7645
20
0.0043
30
0.0
11
-0.0000
21
0.0000
31
0.0
0
LINE
8
CUT
10
-0.0000
20
0.0000
30
0.0
11
0.0000
21
0.0000
31
0.0
0
LINE
8
REG
10
0.0000
20
-20.0000
30
0.0
11
0.0000
21
173.8000
31
0.0
0
ENDSEC
0
EOF
