0
SECTION
2
ENTITIES
0
LINE
8
CUT
10
0.0000
20
0.0000
30
0.0
11
12.0680
21
0.0043
31
0.0
0
LINE
8
CUT
10
12.0680
20
0.0043
30
0.0
11
24.1359
21
0.0172
31
0.0
0
LINE
8
CUT
10
24.1359
20
0.0172
30
0.0
11
36.2039
21
0.0386
31
0.0
0
LINE
8
CUT
10
36.2039
20
0.0386
30
0.0
11
48.2719
21
0.0686
31
0.0
0
LINE
8
CUT
10
48.2719
20
0.0686
30
0.0
11
60.3398
21
0.1073
31
0.0
0
LINE
8
CUT
10
60.3398
20
0.1073
30
0.0
11
72.4078
21
0.1545
31
0.0
0
LINE
8
CUT
10
72.4078
20
0.1545
30
0.0
11
84.4758
21
0.2102
31
0.0
0
LINE
8
CUT
10
84.4758
20
0.2102
30
0.0
11
96.5437
21
0.2746
31
0.0
0
LINE
8
CUT
10
96.5437
20
0.2746
30
0.0
11
108.6117
21
0.3475
31
0.0
0
LINE
8
CUT
10
108.6117
20
0.3475
30
0.0
11
120.6797
21
0.4290
31
0.0
0
LINE
8
CUT
10
120.6797
20
0.4290
30
0.0
11
132.7476
21
0.5191
31
0.0
0
LINE
8
CUT
10
132.7476
20
0.5191
30
0.0
11
144.8156
21
0.6178
31
0.0
0
LINE
8
CUT
10
144.8156
20
0.6178
30
0.0
11
156.8836
21
0.7251
31
0.0
0
LINE
8
CUT
10
156.8836
20
0.7251
30
0.0
11
168.9515
21
0.8409
31
0.0
0
LINE
8
CUT
10
168.9515
20
0.8409
30
0.0
11
181.0195
21
0.9653
31
0.0
0
LINE
8
CUT
10
181.0195
20
0.9653
30
0.0
11
193.0875
21
1.0983
31
0.0
0
LINE
8
CUT
10
193.0875
20
1.0983
30
0.0
11
205.1555
21
1.2399
31
0.0
0
LINE
8
CUT
10
205.1555
20
1.2399
30
0.0
11
217.2234
21
1.3901
31
0.0
0
LINE
8
CUT
10
217.2234
20
1.3901
30
0.0
11
229.2914
21
1.5488
31
0.0
0
LINE
8
CUT
10
229.2914
20
1.5488
30
0.0
11
230.3605
21
4.1004
31
0.0
0
LINE
8
CUT
10
230.3605
20
4.1004
30
0.0
11
231.7638
21
6.3228
31
0.0
0
LINE
8
CUT
10
231.7638
20
6.3228
30
0.0
11
233.4534
21
8.2485
31
0.0
0
LINE
8
CUT
10
233.4534
20
8.2485
30
0.0
11
235.3813
21
9.9098
31
0.0
0
LINE
8
CUT
10
235.3813
20
9.9098
30
0.0
11
237.4996
21
11.3391
31
0.0
0
LINE
8
CUT
10
237.4996
20
11.3391
30
0.0
11
239.7604
21
12.5688
31
0.0
0
LINE
8
CUT
10
239.7604
20
12.5688
30
0.0
11
242.1158
21
13.6313
31
0.0
0
LINE
8
CUT
10
242.1158
20
13.6313
30
0.0
11
244.5178
21
14.5590
31
0.0
0
LINE
8
CUT
10
244.5178
20
14.5590
30
0.0
11
246.9185
21
15.3843
31
0.0
0
LINE
8
CUT
10
246.9185
20
15.3843
30
0.0
11
249.2700
21
16.1395
31
0.0
0
LINE
8
CUT
10
249.2700
20
16.1395
30
0.0
11
251.5243
21
16.8572
31
0.0
0
LINE
8
CUT
10
251.5243
20
16.8572
30
0.0
11
253.6335
21
17.5696
31
0.0
0
LINE
8
CUT
10
253.6335
20
17.5696
30
0.0
11
255.5498
21
18.3091
31
0.0
0
LINE
8
CUT
10
255.5498
20
18.3091
30
0.0
11
257.2251
21
19.1083
31
0.0
0
LINE
8
CUT
10
257.2251
20
19.1083
30
0.0
11
258.6115
21
19.9993
31
0.0
0
LINE
8
CUT
10
258.6115
20
19.9993
30
0.0
11
259.6612
21
21.0147
31
0.0
0
LINE
8
CUT
10
259.6612
20
21.0147
30
0.0
11
260.3261
21
22.1869
31
0.0
0
LINE
8
CUT
10
260.3261
20
22.1869
30
0.0
11
260.5584
21
23.5481
31
0.0
0
LINE
8
CUT
10
260.5584
20
23.5481
30
0.0
11
260.3893
21
30.1350
31
0.0
0
LINE
8
CUT
10
260.3893
20
30.1350
30
0.0
11
259.8892
21
36.8882
31
0.0
0
LINE
8
CUT
10
259.8892
20
36.8882
30
0.0
11
259.0693
21
43.7680
31
0.0
0
LINE
8
CUT
10
259.0693
20
43.7680
30
0.0
11
257.9407
21
50.7348
31
0.0
0
LINE
8
CUT
10
257.9407
20
50.7348
30
0.0
11
256.5145
21
57.7487
31
0.0
0
LINE
8
CUT
10
256.5145
20
57.7487
30
0.0
11
254.8017
21
64.7702
31
0.0
0
LINE
8
CUT
10
254.8017
20
64.7702
30
0.0
11
252.8134
21
71.7595
31
0.0
0
LINE
8
CUT
10
252.8134
20
71.7595
30
0.0
11
250.5607
21
78.6769
31
0.0
0
LINE
8
CUT
10
250.5607
20
78.6769
30
0.0
11
248.0546
21
85.4827
31
0.0
0
LINE
8
CUT
10
248.0546
20
85.4827
30
0.0
11
245.3064
21
92.1371
31
0.0
0
LINE
8
CUT
10
245.3064
20
92.1371
30
0.0
11
242.3270
21
98.6006
31
0.0
0
LINE
8
CUT
10
242.3270
20
98.6006
30
0.0
11
239.1275
21
104.8333
31
0.0
0
LINE
8
CUT
10
239.1275
20
104.8333
30
0.0
11
235.7190
21
110.7956
31
0.0
0
LINE
8
CUT
10
235.7190
20
110.7956
30
0.0
11
232.1126
21
116.4477
31
0.0
0
LINE
8
CUT
10
232.1126
20
116.4477
30
0.0
11
228.3194
21
121.7500
31
0.0
0
LINE
8
CUT
10
228.3194
20
121.7500
30
0.0
11
224.3504
21
126.6627
31
0.0
0
LINE
8
CUT
10
224.3504
20
126.6627
30
0.0
11
220.2168
21
131.1462
31
0.0
0
LINE
8
CUT
10
220.2168
20
131.1462
30
0.0
11
215.9296
21
135.1607
31
0.0
0
LINE
8
CUT
10
215.9296
20
135.1607
30
0.0
11
211.4999
21
138.6665
31
0.0
0
LINE
8
CUT
10
211.4999
20
138.6665
30
0.0
11
206.9389
21
141.6240
31
0.0
0
LINE
8
CUT
10
206.9389
20
141.6240
30
0.0
11
202.2574
21
143.9933
31
0.0
0
LINE
8
CUT
10
202.2574
20
143.9933
30
0.0
11
197.4668
21
145.7349
31
0.0
0
LINE
8
CUT
10
197.4668
20
145.7349
30
0.0
11
192.5779
21
146.8089
31
0.0
0
LINE
8
CUT
10
192.5779
20
146.8089
30
0.0
11
187.6020
21
147.1758
31
0.0
0
LINE
8
CUT
10
187.6020
20
147.1758
30
0.0
11
178.2219
21
147.1758
31
0.0
0
LINE
8
CUT
10
178.2219
20
147.1758
30
0.0
11
168.8418
21
147.1758
31
0.0
0
LINE
8
CUT
10
168.8418
20
147.1758
30
0.0
11
159.4617
21
147.1758
31
0.0
0
LINE
8
CUT
10
159.4617
20
147.1758
30
0.0
11
150.0816
21
147.1758
31
0.0
0
LINE
8
CUT
10
150.0816
20
147.1758
30
0.0
11
140.7015
21
147.1758
31
0.0
0
LINE
8
CUT
10
140.7015
20
147.1758
30
0.0
11
131.3214
21
147.1758
31
0.0
0
LINE
8
CUT
10
131.3214
20
147.1758
30
0.0
11
121.9413
21
147.1758
31
0.0
0
LINE
8
CUT
10
121.9413
20
147.1758
30
0.0
11
112.5612
21
147.1758
31
0.0
0
LINE
8
CUT
10
112.5612
20
147.1758
30
0.0
11
103.1811
21
147.1758
31
0.0
0
LINE
8
CUT
10
103.1811
20
147.1758
30
0.0
11
93.8010
21
147.1758
31
0.0
0
LINE
8
CUT
10
93.8010
20
147.1758
30
0.0
11
84.4209
21
147.1758
31
0.0
0
LINE
8
CUT
10
84.4209
20
147.1758
30
0.0
11
75.0408
21
147.1758
31
0.0
0
LINE
8
CUT
10
75.0408
20
147.1758
30
0.0
11
65.6607
21
147.1758
31
0.0
0
LINE
8
CUT
10
65.6607
20
147.1758
30
0.0
11
56.2806
21
147.1758
31
0.0
0
LINE
8
CUT
10
56.2806
20
147.1758
30
0.0
11
46.9005
21
147.1758
31
0.0
0
LINE
8
CUT
10
46.9005
20
147.1758
30
0.0
11
37.5204
21
147.1758
31
0.0
0
LINE
8
CUT
10
37.5204
20
147.1758
30
0.0
11
28.1403
21
147.1758
31
0.0
0
LINE
8
CUT
10
28.1403
20
147.1758
30
0.0
11
18.7602
21
147.1758
31
0.0
0
LINE
8
CUT
10
18.7602
20
147.1758
30
0.0
11
9.3801
21
147.1758
31
0.0
0
LINE
8
CUT
10
9.3801
20
147.1758
30
0.0
11
0.0000
21
147.1758
31
0.0
0
LINE
8
CUT
10
0.0000
20
147.1758
30
0.0
11
-0.0000
21
147.1758
31
0.0
0
LINE
8
CUT
10
-0.0000
20
147.1758
30
0.0
11
-9.3801
21
147.1758
31
0.0
0
LINE
8
CUT
10
-9.3801
20
147.1758
30
0.0
11
-18.7602
21
147.1758
31
0.0
0
LINE
8
CUT
10
-18.7602
20
147.1758
30
0.0
11
-28.1403
21
147.1758
31
0.0
0
LINE
8
CUT
10
-28.1403
20
147.1758
30
0.0
11
-37.5204
21
147.1758
31
0.0
0
LINE
8
CUT
10
-37.5204
20
147.1758
30
0.0
11
-46.9005
21
147.1758
31
0.0
0
LINE
8
CUT
10
-46.9005
20
147.1758
30
0.0
11
-56.2806
21
147.1758
31
0.0
0
LINE
8
CUT
10
-56.2806
20
147.1758
30
0.0
11
-65.6607
21
147.1758
31
0.0
0
LINE
8
CUT
10
-65.6607
20
147.1758
30
0.0
11
-75.0408
21
147.1758
31
0.0
0
LINE
8
CUT
10
-75.0408
20
147.1758
30
0.0
11
-84.4209
21
147.1758
31
0.0
0
LINE
8
CUT
10
-84.4209
20
147.1758
30
0.0
11
-93.8010
21
147.1758
31
0.0
0
LINE
8
CUT
10
-93.8010
20
147.1758
30
0.0
11
-103.1811
21
147.1758
31
0.0
0
LINE
8
CUT
10
-103.1811
20
147.1758
30
0.0
11
-112.5612
21
147.1758
31
0.0
0
LINE
8
CUT
10
-112.5612
20
147.1758
30
0.0
11
-121.9413
21
147.1758
31
0.0
0
LINE
8
CUT
10
-121.9413
20
147.1758
30
0.0
11
-131.3214
21
147.1758
31
0.0
0
LINE
8
CUT
10
-131.3214
20
147.1758
30
0.0
11
-140.7015
21
147.1758
31
0.0
0
LINE
8
CUT
10
-140.7015
20
147.1758
30
0.0
11
-150.0816
21
147.1758
31
0.0
0
LINE
8
CUT
10
-150.0816
20
147.1758
30
0.0
11
-159.4617
21
147.1758
31
0.0
0
LINE
8
CUT
10
-159.4617
20
147.1758
30
0.0
11
-168.8418
21
147.1758
31
0.0
0
LINE
8
CUT
10
-168.8418
20
147.1758
30
0.0
11
-178.2219
21
147.1758
31
0.0
0
LINE
8
CUT
10
-178.2219
20
147.1758
30
0.0
11
-187.6020
21
147.1758
31
0.0
0
LINE
8
CUT
10
-187.6020
20
147.1758
30
0.0
11
-192.5779
21
146.8089
31
0.0
0
LINE
8
CUT
10
-192.5779
20
146.8089
30
0.0
11
-197.4668
21
145.7349
31
0.0
0
LINE
8
CUT
10
-197.4668
20
145.7349
30
0.0
11
-202.2574
21
143.9933
31
0.0
0
LINE
8
CUT
10
-202.2574
20
143.9933
30
0.0
11
-206.9389
21
141.6240
31
0.0
0
LINE
8
CUT
10
-206.9389
20
141.6240
30
0.0
11
-211.4999
21
138.6665
31
0.0
0
LINE
8
CUT
10
-211.4999
20
138.6665
30
0.0
11
-215.9296
21
135.1607
31
0.0
0
LINE
8
CUT
10
-215.9296
20
135.1607
30
0.0
11
-220.2168
21
131.1462
31
0.0
0
LINE
8
CUT
10
-220.2168
20
131.1462
30
0.0
11
-224.3504
21
126.6627
31
0.0
0
LINE
8
CUT
10
-224.3504
20
126.6627
30
0.0
11
-228.3194
21
121.7500
31
0.0
0
LINE
8
CUT
10
-228.3194
20
121.7500
30
0.0
11
-232.1126
21
116.4477
31
0.0
0
LINE
8
CUT
10
-232.1126
20
116.4477
30
0.0
11
-235.7190
21
110.7956
31
0.0
0
LINE
8
CUT
10
-235.7190
20
110.7956
30
0.0
11
-239.1275
21
104.8333
31
0.0
0
LINE
8
CUT
10
-239.1275
20
104.8333
30
0.0
11
-242.3270
21
98.6006
31
0.0
0
LINE
8
CUT
10
-242.3270
20
98.6006
30
0.0
11
-245.3064
21
92.1371
31
0.0
0
LINE
8
CUT
10
-245.3064
20
92.1371
30
0.0
11
-248.0546
21
85.4827
31
0.0
0
LINE
8
CUT
10
-248.0546
20
85.4827
30
0.0
11
-250.5607
21
78.6769
31
0.0
0
LINE
8
CUT
10
-250.5607
20
78.6769
30
0.0
11
-252.8134
21
71.7595
31
0.0
0
LINE
8
CUT
10
-252.8134
20
71.7595
30
0.0
11
-254.8017
21
64.7702
31
0.0
0
LINE
8
CUT
10
-254.8017
20
64.7702
30
0.0
11
-256.5145
21
57.7487
31
0.0
0
LINE
8
CUT
10
-256.5145
20
57.7487
30
0.0
11
-257.9407
21
50.7348
31
0.0
0
LINE
8
CUT
10
-257.9407
20
50.7348
30
0.0
11
-259.0693
21
43.7680
31
0.0
0
LINE
8
CUT
10
-259.0693
20
43.7680
30
0.0
11
-259.8892
21
36.8882
31
0.0
0
LINE
8
CUT
10
-259.8892
20
36.8882
30
0.0
11
-260.3893
21
30.1350
31
0.0
0
LINE
8
CUT
10
-260.3893
20
30.1350
30
0.0
11
-260.5584
21
23.5481
31
0.0
0
LINE
8
CUT
10
-260.5584
20
23.5481
30
0.0
11
-260.3261
21
22.1869
31
0.0
0
LINE
8
CUT
10
-260.3261
20
22.1869
30
0.0
11
-259.6612
21
21.0147
31
0.0
0
LINE
8
CUT
10
-259.6612
20
21.0147
30
0.0
11
-258.6115
21
19.9993
31
0.0
0
LINE
8
CUT
10
-258.6115
20
19.9993
30
0.0
11
-257.2251
21
19.1083
31
0.0
0
LINE
8
CUT
10
-257.2251
20
19.1083
30
0.0
11
-255.5498
21
18.3091
31
0.0
0
LINE
8
CUT
10
-255.5498
20
18.3091
30
0.0
11
-253.6335
21
17.5696
31
0.0
0
LINE
8
CUT
10
-253.6335
20
17.5696
30
0.0
11
-251.5243
21
16.8572
31
0.0
0
LINE
8
CUT
10
-251.5243
20
16.8572
30
0.0
11
-249.2700
21
16.1395
31
0.0
0
LINE
8
CUT
10
-249.2700
20
16.1395
30
0.0
11
-246.9185
21
15.3843
31
0.0
0
LINE
8
CUT
10
-246.9185
20
15.3843
30
0.0
11
-244.5178
21
14.5590
31
0.0
0
LINE
8
CUT
10
-244.5178
20
14.5590
30
0.0
11
-242.1158
21
13.6313
31
0.0
0
LINE
8
CUT
10
-242.1158
20
13.6313
30
0.0
11
-239.7604
21
12.5688
31
0.0
0
LINE
8
CUT
10
-239.7604
20
12.5688
30
0.0
11
-237.4996
21
11.3391
31
0.0
0
LINE
8
CUT
10
-237.4996
20
11.3391
30
0.0
11
-235.3813
21
9.9098
31
0.0
0
LINE
8
CUT
10
-235.3813
20
9.9098
30
0.0
11
-233.4534
21
8.2485
31
0.0
0
LINE
8
CUT
10
-233.4534
20
8.2485
30
0.0
11
-231.7638
21
6.3228
31
0.0
0
LINE
8
CUT
10
-231.7638
20
6.3228
30
0.0
11
-230.3605
21
4.1004
31
0.0
0
LINE
8
CUT
10
-230.3605
20
4.1004
30
0.0
11
-229.2914
21
1.5488
31
0.0
0
LINE
8
CUT
10
-229.2914
20
1.5488
30
0.0
11
-217.2234
21
1.3901
31
0.0
0
LINE
8
CUT
10
-217.2234
20
1.3901
30
0.0
11
-205.1555
21
1.2399
31
0.0
0
LINE
8
CUT
10
-205.1555
20
1.2399
30
0.0
11
-193.0875
21
1.0983
31
0.0
0
LINE
8
CUT
10
-193.0875
20
1.0983
30
0.0
11
-181.0195
21
0.9653
31
0.0
0
LINE
8
CUT
10
-181.0195
20
0.9653
30
0.0
11
-168.9515
21
0.8409
31
0.0
0
LINE
8
CUT
10
-168.9515
20
0.8409
30
0.0
11
-156.8836
21
0.7251
31
0.0
0
LINE
8
CUT
10
-156.8836
20
0.7251
30
0.0
11
-144.8156
21
0.6178
31
0.0
0
LINE
8
CUT
10
-144.8156
20
0.6178
30
0.0
11
-132.7476
21
0.5191
31
0.0
0
LINE
8
CUT
10
-132.7476
20
0.5191
30
0.0
11
-120.6797
21
0.4290
31
0.0
0
LINE
8
CUT
10
-120.6797
20
0.4290
30
0.0
11
-108.6117
21
0.3475
31
0.0
0
LINE
8
CUT
10
-108.6117
20
0.3475
30
0.0
11
-96.5437
21
0.2746
31
0.0
0
LINE
8
CUT
10
-96.5437
20
0.2746
30
0.0
11
-84.4758
21
0.2102
31
0.0
0
LINE
8
CUT
10
-84.4758
20
0.2102
30
0.0
11
-72.4078
21
0.1545
31
0.0
0
LINE
8
CUT
10
-72.4078
20
0.1545
30
0.0
11
-60.3398
21
0.1073
31
0.0
0
LINE
8
CUT
10
-60.3398
20
0.1073
30
0.0
11
-48.2719
21
0.0686
31
0.0
0
LINE
8
CUT
10
-48.2719
20
0.0686
30
0.0
11
-36.2039
21
0.0386
31
0.0
0
LINE
8
CUT
10
-36.2039
20
0.0386
30
0.0
11
-24.1359
21
0.0172
31
0.0
0
LINE
8
CUT
10
-24.1359
20
0.0172
30
0.0
11
-12.0680
21
0.0043
31
0.0
0
LINE
8
CUT
10
-12.0680
20
0.0043
30
0.0
11
-0.0000
21
0.0000
31
0.0
0
LINE
8
CUT
10
-0.0000
20
0.0000
30
0.0
11
0.0000
21
0.0000
31
0.0
0
LINE
8
REG
10
0.0000
20
-20.0000
30
0.0
11
0.0000
21
167.1758
31
0.0
0
ENDSEC
0
EOF
