0
SECTION
2
ENTITIES
0
LINE
8
CUT
10
0.0000
20
45.7093
30
0.0
11
9.1533
21
45.7136
31
0.0
0
LINE
8
CUT
10
9.1533
20
45.7136
30
0.0
11
18.3066
21
45.7265
31
0.0
0
LINE
8
CUT
10
18.3066
20
45.7265
30
0.0
11
27.4599
21
45.7479
31
0.0
0
LINE
8
CUT
10
27.4599
20
45.7479
30
0.0
11
36.6132
21
45.7780
31
0.0
0
LINE
8
CUT
10
36.6132
20
45.7780
30
0.0
11
45.7665
21
45.8166
31
0.0
0
LINE
8
CUT
10
45.7665
20
45.8166
30
0.0
11
54.9198
21
45.8638
31
0.0
0
LINE
8
CUT
10
54.9198
20
45.8638
30
0.0
11
64.0731
21
45.9195
31
0.0
0
LINE
8
CUT
10
64.0731
20
45.9195
30
0.0
11
73.2264
21
45.9839
31
0.0
0
LINE
8
CUT
10
73.2264
20
45.9839
30
0.0
11
82.3798
21
46.0568
31
0.0
0
LINE
8
CUT
10
82.3798
20
46.0568
30
0.0
11
91.5331
21
46.1384
31
0.0
0
LINE
8
CUT
10
91.5331
20
46.1384
30
0.0
11
100.6864
21
46.2284
31
0.0
0
LINE
8
CUT
10
100.6864
20
46.2284
30
0.0
11
109.8397
21
46.3271
31
0.0
0
LINE
8
CUT
10
109.8397
20
46.3271
30
0.0
11
118.9930
21
46.4344
31
0.0
0
LINE
8
CUT
10
118.9930
20
46.4344
30
0.0
11
128.1463
21
46.5502
31
0.0
0
LINE
8
CUT
10
128.1463
20
46.5502
30
0.0
11
137.2996
21
46.6746
31
0.0
0
LINE
8
CUT
10
137.2996
20
46.6746
30
0.0
11
146.4529
21
46.8076
31
0.0
0
LINE
8
CUT
10
146.4529
20
46.8076
30
0.0
11
155.6062
21
46.9492
31
0.0
0
LINE
8
CUT
10
155.6062
20
46.9492
30
0.0
11
164.7595
21
47.0994
31
0.0
0
LINE
8
CUT
10
164.7595
20
47.0994
30
0.0
11
173.9128
21
47.2581
31
0.0
0
LINE
8
CUT
10
173.9128
20
47.2581
30
0.0
11
176.0097
21
47.4739
31
0.0
0
LINE
8
CUT
10
176.0097
20
47.4739
30
0.0
11
178.0664
21
47.8173
31
0.0
0
LINE
8
CUT
10
178.0664
20
47.8173
30
0.0
11
180.0733
21
48.2786
31
0.0
0
LINE
8
CUT
10
180.0733
20
48.2786
30
0.0
11
182.0206
21
48.8479
31
0.0
0
LINE
8
CUT
10
182.0206
20
48.8479
30
0.0
11
183.8987
21
49.5152
31
0.0
0
LINE
8
CUT
10
183.8987
20
49.5152
30
0.0
11
185.6981
21
50.2708
31
0.0
0
LINE
8
CUT
10
185.6981
20
50.2708
30
0.0
11
187.4089
21
51.1046
31
0.0
0
LINE
8
CUT
10
187.4089
20
51.1046
30
0.0
11
189.0216
21
52.0068
31
0.0
0
LINE
8
CUT
10
189.0216
20
52.0068
30
0.0
11
190.5266
21
52.9675
31
0.0
0
LINE
8
CUT
10
190.5266
20
52.9675
30
0.0
11
191.9141
21
53.9769
31
0.0
0
LINE
8
CUT
10
191.9141
20
53.9769
30
0.0
11
193.1745
21
55.0249
31
0.0
0
LINE
8
CUT
10
193.1745
20
55.0249
30
0.0
11
194.2982
21
56.1019
31
0.0
0
LINE
8
CUT
10
194.2982
20
56.1019
30
0.0
11
195.2755
21
57.1978
31
0.0
0
LINE
8
CUT
10
195.2755
20
57.1978
30
0.0
11
196.0967
21
58.3027
31
0.0
0
LINE
8
CUT
10
196.0967
20
58.3027
30
0.0
11
196.7523
21
59.4069
31
0.0
0
LINE
8
CUT
10
196.7523
20
59.4069
30
0.0
11
197.2325
21
60.5003
31
0.0
0
LINE
8
CUT
10
197.2325
20
60.5003
30
0.0
11
197.5276
21
61.5732
31
0.0
0
LINE
8
CUT
10
197.5276
20
61.5732
30
0.0
11
197.6282
21
62.6155
31
0.0
0
LINE
8
CUT
10
197.6282
20
62.6155
30
0.0
11
197.4999
21
67.3445
31
0.0
0
LINE
8
CUT
10
197.4999
20
67.3445
30
0.0
11
197.1206
21
72.1930
31
0.0
0
LINE
8
CUT
10
197.1206
20
72.1930
30
0.0
11
196.4988
21
77.1323
31
0.0
0
LINE
8
CUT
10
196.4988
20
77.1323
30
0.0
11
195.6428
21
82.1340
31
0.0
0
LINE
8
CUT
10
195.6428
20
82.1340
30
0.0
11
194.5610
21
87.1697
31
0.0
0
LINE
8
CUT
10
194.5610
20
87.1697
30
0.0
11
193.2618
21
92.2107
31
0.0
0
LINE
8
CUT
10
193.2618
20
92.2107
30
0.0
11
191.7538
21
97.2286
31
0.0
0
LINE
8
CUT
10
191.7538
20
97.2286
30
0.0
11
190.0451
21
102.1949
31
0.0
0
LINE
8
CUT
10
190.0451
20
102.1949
30
0.0
11
188.1444
21
107.0811
31
0.0
0
LINE
8
CUT
10
188.1444
20
107.0811
30
0.0
11
186.0599
21
111.8586
31
0.0
0
LINE
8
CUT
10
186.0599
20
111.8586
30
0.0
11
183.8000
21
116.4990
31
0.0
0
LINE
8
CUT
10
183.8000
20
116.4990
30
0.0
11
181.3733
21
120.9737
31
0.0
0
LINE
8
CUT
10
181.3733
20
120.9737
30
0.0
11
178.7880
21
125.2543
31
0.0
0
LINE
8
CUT
10
178.7880
20
125.2543
30
0.0
11
176.0526
21
129.3122
31
0.0
0
LINE
8
CUT
10
176.0526
20
129.3122
30
0.0
11
173.1756
21
133.1190
31
0.0
0
LINE
8
CUT
10
173.1756
20
133.1190
30
0.0
11
170.1652
21
136.6461
31
0.0
0
LINE
8
CUT
10
170.1652
20
136.6461
30
0.0
11
167.0299
21
139.8649
31
0.0
0
LINE
8
CUT
10
167.0299
20
139.8649
30
0.0
11
163.7782
21
142.7471
31
0.0
0
LINE
8
CUT
10
163.7782
20
142.7471
30
0.0
11
160.4184
21
145.2641
31
0.0
0
LINE
8
CUT
10
160.4184
20
145.2641
30
0.0
11
156.9589
21
147.3874
31
0.0
0
LINE
8
CUT
10
156.9589
20
147.3874
30
0.0
11
153.4081
21
149.0884
31
0.0
0
LINE
8
CUT
10
153.4081
20
149.0884
30
0.0
11
149.7745
21
150.3388
31
0.0
0
LINE
8
CUT
10
149.7745
20
150.3388
30
0.0
11
146.0664
21
151.1099
31
0.0
0
LINE
8
CUT
10
146.0664
20
151.1099
30
0.0
11
142.2923
21
151.3733
31
0.0
0
LINE
8
CUT
10
142.2923
20
151.3733
30
0.0
11
135.1777
21
151.3733
31
0.0
0
LINE
8
CUT
10
135.1777
20
151.3733
30
0.0
11
128.0631
21
151.3733
31
0.0
0
LINE
8
CUT
10
128.0631
20
151.3733
30
0.0
11
120.9485
21
151.3733
31
0.0
0
LINE
8
CUT
10
120.9485
20
151.3733
30
0.0
11
113.8338
21
151.3733
31
0.0
0
LINE
8
CUT
10
113.8338
20
151.3733
30
0.0
11
106.7192
21
151.3733
31
0.0
0
LINE
8
CUT
10
106.7192
20
151.3733
30
0.0
11
99.6046
21
151.3733
31
0.0
0
LINE
8
CUT
10
99.6046
20
151.3733
30
0.0
11
92.4900
21
151.3733
31
0.0
0
LINE
8
CUT
10
92.4900
20
151.3733
30
0.0
11
85.3754
21
151.3733
31
0.0
0
LINE
8
CUT
10
85.3754
20
151.3733
30
0.0
11
78.2608
21
151.3733
31
0.0
0
LINE
8
CUT
10
78.2608
20
151.3733
30
0.0
11
71.1461
21
151.3733
31
0.0
0
LINE
8
CUT
10
71.1461
20
151.3733
30
0.0
11
64.0315
21
151.3733
31
0.0
0
LINE
8
CUT
10
64.0315
20
151.3733
30
0.0
11
56.9169
21
151.3733
31
0.0
0
LINE
8
CUT
10
56.9169
20
151.3733
30
0.0
11
49.8023
21
151.3733
31
0.0
0
LINE
8
CUT
10
49.8023
20
151.3733
30
0.0
11
42.6877
21
151.3733
31
0.0
0
LINE
8
CUT
10
42.6877
20
151.3733
30
0.0
11
35.5731
21
151.3733
31
0.0
0
LINE
8
CUT
10
35.5731
20
151.3733
30
0.0
11
28.4585
21
151.3733
31
0.0
0
LINE
8
CUT
10
28.4585
20
151.3733
30
0.0
11
21.3438
21
151.3733
31
0.0
0
LINE
8
CUT
10
21.3438
20
151.3733
30
0.0
11
14.2292
21
151.3733
31
0.0
0
LINE
8
CUT
10
14.2292
20
151.3733
30
0.0
11
7.1146
21
151.3733
31
0.0
0
LINE
8
CUT
10
7.1146
20
151.3733
30
0.0
11
0.0000
21
151.3733
31
0.0
0
LINE
8
CUT
10
0.0000
20
151.3733
30
0.0
11
-0.0000
21
151.3733
31
0.0
0
LINE
8
CUT
10
-0.0000
20
151.3733
30
0.0
11
-7.1146
21
151.3733
31
0.0
0
LINE
8
CUT
10
-7.1146
20
151.3733
30
0.0
11
-14.2292
21
151.3733
31
0.0
0
LINE
8
CUT
10
-14.2292
20
151.3733
30
0.0
11
-21.3438
21
151.3733
31
0.0
0
LINE
8
CUT
10
-21.3438
20
151.3733
30
0.0
11
-28.4585
21
151.3733
31
0.0
0
LINE
8
CUT
10
-28.4585
20
151.3733
30
0.0
11
-35.5731
21
151.3733
31
0.0
0
LINE
8
CUT
10
-35.5731
20
151.3733
30
0.0
11
-42.6877
21
151.3733
31
0.0
0
LINE
8
CUT
10
-42.6877
20
151.3733
30
0.0
11
-49.8023
21
151.3733
31
0.0
0
LINE
8
CUT
10
-49.8023
20
151.3733
30
0.0
11
-56.9169
21
151.3733
31
0.0
0
LINE
8
CUT
10
-56.9169
20
151.3733
30
0.0
11
-64.0315
21
151.3733
31
0.0
0
LINE
8
CUT
10
-64.0315
20
151.3733
30
0.0
11
-71.1461
21
151.3733
31
0.0
0
LINE
8
CUT
10
-71.1461
20
151.3733
30
0.0
11
-78.2608
21
151.3733
31
0.0
0
LINE
8
CUT
10
-78.2608
20
151.3733
30
0.0
11
-85.3754
21
151.3733
31
0.0
0
LINE
8
CUT
10
-85.3754
20
151.3733
30
0.0
11
-92.4900
21
151.3733
31
0.0
0
LINE
8
CUT
10
-92.4900
20
151.3733
30
0.0
11
-99.6046
21
151.3733
31
0.0
0
LINE
8
CUT
10
-99.6046
20
151.3733
30
0.0
11
-106.7192
21
151.3733
31
0.0
0
LINE
8
CUT
10
-106.7192
20
151.3733
30
0.0
11
-113.8338
21
151.3733
31
0.0
0
LINE
8
CUT
10
-113.8338
20
151.3733
30
0.0
11
-120.9485
21
151.3733
31
0.0
0
LINE
8
CUT
10
-120.9485
20
151.3733
30
0.0
11
-128.0631
21
151.3733
31
0.0
0
LINE
8
CUT
10
-128.0631
20
151.3733
30
0.0
11
-135.1777
21
151.3733
31
0.0
0
LINE
8
CUT
10
-135.1777
20
151.3733
30
0.0
11
-142.2923
21
151.3733
31
0.0
0
LINE
8
CUT
10
-142.2923
20
151.3733
30
0.0
11
-146.0664
21
151.1099
31
0.0
0
LINE
8
CUT
10
-146.0664
20
151.1099
30
0.0
11
-149.7745
21
150.3388
31
0.0
0
LINE
8
CUT
10
-149.7745
20
150.3388
30
0.0
11
-153.4081
21
149.0884
31
0.0
0
LINE
8
CUT
10
-153.4081
20
149.0884
30
0.0
11
-156.9589
21
147.3874
31
0.0
0
LINE
8
CUT
10
-156.9589
20
147.3874
30
0.0
11
-160.4184
21
145.2641
31
0.0
0
LINE
8
CUT
10
-160.4184
20
145.2641
30
0.0
11
-163.7782
21
142.7471
31
0.0
0
LINE
8
CUT
10
-163.7782
20
142.7471
30
0.0
11
-167.0299
21
139.8649
31
0.0
0
LINE
8
CUT
10
-167.0299
20
139.8649
30
0.0
11
-170.1652
21
136.6461
31
0.0
0
LINE
8
CUT
10
-170.1652
20
136.6461
30
0.0
11
-173.1756
21
133.1190
31
0.0
0
LINE
8
CUT
10
-173.1756
20
133.1190
30
0.0
11
-176.0526
21
129.3122
31
0.0
0
LINE
8
CUT
10
-176.0526
20
129.3122
30
0.0
11
-178.7880
21
125.2543
31
0.0
0
LINE
8
CUT
10
-178.7880
20
125.2543
30
0.0
11
-181.3733
21
120.9737
31
0.0
0
LINE
8
CUT
10
-181.3733
20
120.9737
30
0.0
11
-183.8000
21
116.4990
31
0.0
0
LINE
8
CUT
10
-183.8000
20
116.4990
30
0.0
11
-186.0599
21
111.8586
31
0.0
0
LINE
8
CUT
10
-186.0599
20
111.8586
30
0.0
11
-188.1444
21
107.0811
31
0.0
0
LINE
8
CUT
10
-188.1444
20
107.0811
30
0.0
11
-190.0451
21
102.1949
31
0.0
0
LINE
8
CUT
10
-190.0451
20
102.1949
30
0.0
11
-191.7538
21
97.2286
31
0.0
0
LINE
8
CUT
10
-191.7538
20
97.2286
30
0.0
11
-193.2618
21
92.2107
31
0.0
0
LINE
8
CUT
10
-193.2618
20
92.2107
30
0.0
11
-194.5610
21
87.1697
31
0.0
0
LINE
8
CUT
10
-194.5610
20
87.1697
30
0.0
11
-195.6428
21
82.1340
31
0.0
0
LINE
8
CUT
10
-195.6428
20
82.1340
30
0.0
11
-196.4988
21
77.1323
31
0.0
0
LINE
8
CUT
10
-196.4988
20
77.1323
30
0.0
11
-197.1206
21
72.1930
31
0.0
0
LINE
8
CUT
10
-197.1206
20
72.1930
30
0.0
11
-197.4999
21
67.3445
31
0.0
0
LINE
8
CUT
10
-197.4999
20
67.3445
30
0.0
11
-197.6282
21
62.6155
31
0.0
0
LINE
8
CUT
10
-197.6282
20
62.6155
30
0.0
11
-197.5276
21
61.5732
31
0.0
0
LINE
8
CUT
10
-197.5276
20
61.5732
30
0.0
11
-197.2325
21
60.5003
31
0.0
0
LINE
8
CUT
10
-197.2325
20
60.5003
30
0.0
11
-196.7523
21
59.4069
31
0.0
0
LINE
8
CUT
10
-196.7523
20
59.4069
30
0.0
11
-196.0967
21
58.3027
31
0.0
0
LINE
8
CUT
10
-196.0967
20
58.3027
30
0.0
11
-195.2755
21
57.1978
31
0.0
0
LINE
8
CUT
10
-195.2755
20
57.1978
30
0.0
11
-194.2982
21
56.1019
31
0.0
0
LINE
8
CUT
10
-194.2982
20
56.1019
30
0.0
11
-193.1745
21
55.0249
31
0.0
0
LINE
8
CUT
10
-193.1745
20
55.0249
30
0.0
11
-191.9141
21
53.9769
31
0.0
0
LINE
8
CUT
10
-191.9141
20
53.9769
30
0.0
11
-190.5266
21
52.9675
31
0.0
0
LINE
8
CUT
10
-190.5266
20
52.9675
30
0.0
11
-189.0216
21
52.0068
31
0.0
0
LINE
8
CUT
10
-189.0216
20
52.0068
30
0.0
11
-187.4089
21
51.1046
31
0.0
0
LINE
8
CUT
10
-187.4089
20
51.1046
30
0.0
11
-185.6981
21
50.2708
31
0.0
0
LINE
8
CUT
10
-185.6981
20
50.2708
30
0.0
11
-183.8987
21
49.5152
31
0.0
0
LINE
8
CUT
10
-183.8987
20
49.5152
30
0.0
11
-182.0206
21
48.8479
31
0.0
0
LINE
8
CUT
10
-182.0206
20
48.8479
30
0.0
11
-180.0733
21
48.2786
31
0.0
0
LINE
8
CUT
10
-180.0733
20
48.2786
30
0.0
11
-178.0664
21
47.8173
31
0.0
0
LINE
8
CUT
10
-178.0664
20
47.8173
30
0.0
11
-176.0097
21
47.4739
31
0.0
0
LINE
8
CUT
10
-176.0097
20
47.4739
30
0.0
11
-173.9128
21
47.2581
31
0.0
0
LINE
8
CUT
10
-173.9128
20
47.2581
30
0.0
11
-164.7595
21
47.0994
31
0.0
0
LINE
8
CUT
10
-164.7595
20
47.0994
30
0.0
11
-155.6062
21
46.9492
31
0.0
0
LINE
8
CUT
10
-155.6062
20
46.9492
30
0.0
11
-146.4529
21
46.8076
31
0.0
0
LINE
8
CUT
10
-146.4529
20
46.8076
30
0.0
11
-137.2996
21
46.6746
31
0.0
0
LINE
8
CUT
10
-137.2996
20
46.6746
30
0.0
11
-128.1463
21
46.5502
31
0.0
0
LINE
8
CUT
10
-128.1463
20
46.5502
30
0.0
11
-118.9930
21
46.4344
31
0.0
0
LINE
8
CUT
10
-118.9930
20
46.4344
30
0.0
11
-109.8397
21
46.3271
31
0.0
0
LINE
8
CUT
10
-109.8397
20
46.3271
30
0.0
11
-100.6864
21
46.2284
31
0.0
0
LINE
8
CUT
10
-100.6864
20
46.2284
30
0.0
11
-91.5331
21
46.1384
31
0.0
0
LINE
8
CUT
10
-91.5331
20
46.1384
30
0.0
11
-82.3798
21
46.0568
31
0.0
0
LINE
8
CUT
10
-82.3798
20
46.0568
30
0.0
11
-73.2264
21
45.9839
31
0.0
0
LINE
8
CUT
10
-73.2264
20
45.9839
30
0.0
11
-64.0731
21
45.9195
31
0.0
0
LINE
8
CUT
10
-64.0731
20
45.9195
30
0.0
11
-54.9198
21
45.8638
31
0.0
0
LINE
8
CUT
10
-54.9198
20
45.8638
30
0.0
11
-45.7665
21
45.8166
31
0.0
0
LINE
8
CUT
10
-45.7665
20
45.8166
30
0.0
11
-36.6132
21
45.7780
31
0.0
0
LINE
8
CUT
10
-36.6132
20
45.7780
30
0.0
11
-27.4599
21
45.7479
31
0.0
0
LINE
8
CUT
10
-27.4599
20
45.7479
30
0.0
11
-18.3066
21
45.7265
31
0.0
0
LINE
8
CUT
10
-18.3066
20
45.7265
30
0.0
11
-9.1533
21
45.7136
31
0.0
0
LINE
8
CUT
10
-9.1533
20
45.7136
30
0.0
11
-0.0000
21
45.7093
31
0.0
0
LINE
8
CUT
10
-0.0000
20
45.7093
30
0.0
11
0.0000
21
45.7093
31
0.0
0
LINE
8
REG
10
0.0000
20
-20.0000
30
0.0
11
0.0000
21
171.3733
31
0.0
0
ENDSEC
0
EOF
