0
SECTION
2
ENTITIES
0
LINE
8
CUT
10
0.0000
20
5.5859
30
0.0
11
12.2649
21
5.5902
31
0.0
0
LINE
8
CUT
10
12.2649
20
5.5902
30
0.0
11
24.5299
21
5.6031
31
0.0
0
LINE
8
CUT
10
24.5299
20
5.6031
30
0.0
11
36.7948
21
5.6246
31
0.0
0
LINE
8
CUT
10
36.7948
20
5.6246
30
0.0
11
49.0598
21
5.6546
31
0.0
0
LINE
8
CUT
10
49.0598
20
5.6546
30
0.0
11
61.3247
21
5.6932
31
0.0
0
LINE
8
CUT
10
61.3247
20
5.6932
30
0.0
11
73.5896
21
5.7404
31
0.0
0
LINE
8
CUT
10
73.5896
20
5.7404
30
0.0
11
85.8546
21
5.7962
31
0.0
0
LINE
8
CUT
10
85.8546
20
5.7962
30
0.0
11
98.1195
21
5.8605
31
0.0
0
LINE
8
CUT
10
98.1195
20
5.8605
30
0.0
11
110.3845
21
5.9335
31
0.0
0
LINE
8
CUT
10
110.3845
20
5.9335
30
0.0
11
122.6494
21
6.0150
31
0.0
0
LINE
8
CUT
10
122.6494
20
6.0150
30
0.0
11
134.9144
21
6.1051
31
0.0
0
LINE
8
CUT
10
134.9144
20
6.1051
30
0.0
11
147.1793
21
6.2038
31
0.0
0
LINE
8
CUT
10
147.1793
20
6.2038
30
0.0
11
159.4442
21
6.3110
31
0.0
0
LINE
8
CUT
10
159.4442
20
6.3110
30
0.0
11
171.7092
21
6.4268
31
0.0
0
LINE
8
CUT
10
171.7092
20
6.4268
30
0.0
11
183.9741
21
6.5513
31
0.0
0
LINE
8
CUT
10
183.9741
20
6.5513
30
0.0
11
196.2391
21
6.6843
31
0.0
0
LINE
8
CUT
10
196.2391
20
6.6843
30
0.0
11
208.5040
21
6.8258
31
0.0
0
LINE
8
CUT
10
208.5040
20
6.8258
30
0.0
11
220.7689
21
6.9760
31
0.0
0
LINE
8
CUT
10
220.7689
20
6.9760
30
0.0
11
233.0339
21
7.1347
31
0.0
0
LINE
8
CUT
10
233.0339
20
7.1347
30
0.0
11
235.5498
21
8.5756
31
0.0
0
LINE
8
CUT
10
235.5498
20
8.5756
30
0.0
11
238.0789
21
9.9434
31
0.0
0
LINE
8
CUT
10
238.0789
20
9.9434
30
0.0
11
240.6022
21
11.2473
31
0.0
0
LINE
8
CUT
10
240.6022
20
11.2473
30
0.0
11
243.1007
21
12.4965
31
0.0
0
LINE
8
CUT
10
243.1007
20
12.4965
30
0.0
11
245.5553
21
13.7001
31
0.0
0
LINE
8
CUT
10
245.5553
20
13.7001
30
0.0
11
247.9470
21
14.8672
31
0.0
0
LINE
8
CUT
10
247.9470
20
14.8672
30
0.0
11
250.2567
21
16.0069
31
0.0
0
LINE
8
CUT
10
250.2567
20
16.0069
30
0.0
11
252.4654
21
17.1284
31
0.0
0
LINE
8
CUT
10
252.4654
20
17.1284
30
0.0
11
254.5542
21
18.2409
31
0.0
0
LINE
8
CUT
10
254.5542
20
18.2409
30
0.0
11
256.5038
21
19.3533
31
0.0
0
LINE
8
CUT
10
256.5038
20
19.3533
30
0.0
11
258.2954
21
20.4750
31
0.0
0
LINE
8
CUT
10
258.2954
20
20.4750
30
0.0
11
259.9099
21
21.6149
31
0.0
0
LINE
8
CUT
10
259.9099
20
21.6149
30
0.0
11
261.3282
21
22.7822
31
0.0
0
LINE
8
CUT
10
261.3282
20
22.7822
30
0.0
11
262.5313
21
23.9861
31
0.0
0
LINE
8
CUT
10
262.5313
20
23.9861
30
0.0
11
263.5002
21
25.2357
31
0.0
0
LINE
8
CUT
10
263.5002
20
25.2357
30
0.0
11
264.2159
21
26.5401
31
0.0
0
LINE
8
CUT
10
264.2159
20
26.5401
30
0.0
11
264.6592
21
27.9085
31
0.0
0
LINE
8
CUT
10
264.6592
20
27.9085
30
0.0
11
264.8112
21
29.3499
31
0.0
0
LINE
8
CUT
10
264.8112
20
29.3499
30
0.0
11
264.6393
21
35.9972
31
0.0
0
LINE
8
CUT
10
264.6393
20
35.9972
30
0.0
11
264.1311
21
42.8123
31
0.0
0
LINE
8
CUT
10
264.1311
20
42.8123
30
0.0
11
263.2979
21
49.7552
31
0.0
0
LINE
8
CUT
10
263.2979
20
49.7552
30
0.0
11
262.1509
21
56.7858
31
0.0
0
LINE
8
CUT
10
262.1509
20
56.7858
30
0.0
11
260.7013
21
63.8641
31
0.0
0
LINE
8
CUT
10
260.7013
20
63.8641
30
0.0
11
258.9606
21
70.9499
31
0.0
0
LINE
8
CUT
10
258.9606
20
70.9499
30
0.0
11
256.9398
21
78.0033
31
0.0
0
LINE
8
CUT
10
256.9398
20
78.0033
30
0.0
11
254.6503
21
84.9841
31
0.0
0
LINE
8
CUT
10
254.6503
20
84.9841
30
0.0
11
252.1034
21
91.8522
31
0.0
0
LINE
8
CUT
10
252.1034
20
91.8522
30
0.0
11
249.3103
21
98.5677
31
0.0
0
LINE
8
CUT
10
249.3103
20
98.5677
30
0.0
11
246.2822
21
105.0904
31
0.0
0
LINE
8
CUT
10
246.2822
20
105.0904
30
0.0
11
243.0305
21
111.3802
31
0.0
0
LINE
8
CUT
10
243.0305
20
111.3802
30
0.0
11
239.5664
21
117.3972
31
0.0
0
LINE
8
CUT
10
239.5664
20
117.3972
30
0.0
11
235.9011
21
123.1011
31
0.0
0
LINE
8
CUT
10
235.9011
20
123.1011
30
0.0
11
232.0460
21
128.4520
31
0.0
0
LINE
8
CUT
10
232.0460
20
128.4520
30
0.0
11
228.0123
21
133.4098
31
0.0
0
LINE
8
CUT
10
228.0123
20
133.4098
30
0.0
11
223.8112
21
137.9344
31
0.0
0
LINE
8
CUT
10
223.8112
20
137.9344
30
0.0
11
219.4540
21
141.9857
31
0.0
0
LINE
8
CUT
10
219.4540
20
141.9857
30
0.0
11
214.9520
21
145.5236
31
0.0
0
LINE
8
CUT
10
214.9520
20
145.5236
30
0.0
11
210.3165
21
148.5082
31
0.0
0
LINE
8
CUT
10
210.3165
20
148.5082
30
0.0
11
205.5587
21
150.8992
31
0.0
0
LINE
8
CUT
10
205.5587
20
150.8992
30
0.0
11
200.6898
21
152.6568
31
0.0
0
LINE
8
CUT
10
200.6898
20
152.6568
30
0.0
11
195.7212
21
153.7407
31
0.0
0
LINE
8
CUT
10
195.7212
20
153.7407
30
0.0
11
190.6641
21
154.1109
31
0.0
0
LINE
8
CUT
10
190.6641
20
154.1109
30
0.0
11
181.1309
21
154.1109
31
0.0
0
LINE
8
CUT
10
181.1309
20
154.1109
30
0.0
11
171.5977
21
154.1109
31
0.0
0
LINE
8
CUT
10
171.5977
20
154.1109
30
0.0
11
162.0645
21
154.1109
31
0.0
0
LINE
8
CUT
10
162.0645
20
154.1109
30
0.0
11
152.5313
21
154.1109
31
0.0
0
LINE
8
CUT
10
152.5313
20
154.1109
30
0.0
11
142.9981
21
154.1109
31
0.0
0
LINE
8
CUT
10
142.9981
20
154.1109
30
0.0
11
133.4649
21
154.1109
31
0.0
0
LINE
8
CUT
10
133.4649
20
154.1109
30
0.0
11
123.9317
21
154.1109
31
0.0
0
LINE
8
CUT
10
123.9317
20
154.1109
30
0.0
11
114.3985
21
154.1109
31
0.0
0
LINE
8
CUT
10
114.3985
20
154.1109
30
0.0
11
104.8652
21
154.1109
31
0.0
0
LINE
8
CUT
10
104.8652
20
154.1109
30
0.0
11
95.3320
21
154.1109
31
0.0
0
LINE
8
CUT
10
95.3320
20
154.1109
30
0.0
11
85.7988
21
154.1109
31
0.0
0
LINE
8
CUT
10
85.7988
20
154.1109
30
0.0
11
76.2656
21
154.1109
31
0.0
0
LINE
8
CUT
10
76.2656
20
154.1109
30
0.0
11
66.7324
21
154.1109
31
0.0
0
LINE
8
CUT
10
66.7324
20
154.1109
30
0.0
11
57.1992
21
154.1109
31
0.0
0
LINE
8
CUT
10
57.1992
20
154.1109
30
0.0
11
47.6660
21
154.1109
31
0.0
0
LINE
8
CUT
10
47.6660
20
154.1109
30
0.0
11
38.1328
21
154.1109
31
0.0
0
LINE
8
CUT
10
38.1328
20
154.1109
30
0.0
11
28.5996
21
154.1109
31
0.0
0
LINE
8
CUT
10
28.5996
20
154.1109
30
0.0
11
19.0664
21
154.1109
31
0.0
0
LINE
8
CUT
10
19.0664
20
154.1109
30
0.0
11
9.5332
21
154.1109
31
0.0
0
LINE
8
CUT
10
9.5332
20
154.1109
30
0.0
11
0.0000
21
154.1109
31
0.0
0
LINE
8
CUT
10
0.0000
20
154.1109
30
0.0
11
-0.0000
21
154.1109
31
0.0
0
LINE
8
CUT
10
-0.0000
20
154.1109
30
0.0
11
-9.5332
21
154.1109
31
0.0
0
LINE
8
CUT
10
-9.5332
20
154.1109
30
0.0
11
-19.0664
21
154.1109
31
0.0
0
LINE
8
CUT
10
-19.0664
20
154.1109
30
0.0
11
-28.5996
21
154.1109
31
0.0
0
LINE
8
CUT
10
-28.5996
20
154.1109
30
0.0
11
-38.1328
21
154.1109
31
0.0
0
LINE
8
CUT
10
-38.1328
20
154.1109
30
0.0
11
-47.6660
21
154.1109
31
0.0
0
LINE
8
CUT
10
-47.6660
20
154.1109
30
0.0
11
-57.1992
21
154.1109
31
0.0
0
LINE
8
CUT
10
-57.1992
20
154.1109
30
0.0
11
-66.7324
21
154.1109
31
0.0
0
LINE
8
CUT
10
-66.7324
20
154.1109
30
0.0
11
-76.2656
21
154.1109
31
0.0
0
LINE
8
CUT
10
-76.2656
20
154.1109
30
0.0
11
-85.7988
21
154.1109
31
0.0
0
LINE
8
CUT
10
-85.7988
20
154.1109
30
0.0
11
-95.3320
21
154.1109
31
0.0
0
LINE
8
CUT
10
-95.3320
20
154.1109
30
0.0
11
-104.8652
21
154.1109
31
0.0
0
LINE
8
CUT
10
-104.8652
20
154.1109
30
0.0
11
-114.3985
21
154.1109
31
0.0
0
LINE
8
CUT
10
-114.3985
20
154.1109
30
0.0
11
-123.9317
21
154.1109
31
0.0
0
LINE
8
CUT
10
-123.9317
20
154.1109
30
0.0
11
-133.4649
21
154.1109
31
0.0
0
LINE
8
CUT
10
-133.4649
20
154.1109
30
0.0
11
-142.9981
21
154.1109
31
0.0
0
LINE
8
CUT
10
-142.9981
20
154.1109
30
0.0
11
-152.5313
21
154.1109
31
0.0
0
LINE
8
CUT
10
-152.5313
20
154.1109
30
0.0
11
-162.0645
21
154.1109
31
0.0
0
LINE
8
CUT
10
-162.0645
20
154.1109
30
0.0
11
-171.5977
21
154.1109
31
0.0
0
LINE
8
CUT
10
-171.5977
20
154.1109
30
0.0
11
-181.1309
21
154.1109
31
0.0
0
LINE
8
CUT
10
-181.1309
20
154.1109
30
0.0
11
-190.6641
21
154.1109
31
0.0
0
LINE
8
CUT
10
-190.6641
20
154.1109
30
0.0
11
-195.7212
21
153.7407
31
0.0
0
LINE
8
CUT
10
-195.7212
20
153.7407
30
0.0
11
-200.6898
21
152.6568
31
0.0
0
LINE
8
CUT
10
-200.6898
20
152.6568
30
0.0
11
-205.5587
21
150.8992
31
0.0
0
LINE
8
CUT
10
-205.5587
20
150.8992
30
0.0
11
-210.3165
21
148.5082
31
0.0
0
LINE
8
CUT
10
-210.3165
20
148.5082
30
0.0
11
-214.9520
21
145.5236
31
0.0
0
LINE
8
CUT
10
-214.9520
20
145.5236
30
0.0
11
-219.4540
21
141.9857
31
0.0
0
LINE
8
CUT
10
-219.4540
20
141.9857
30
0.0
11
-223.8112
21
137.9344
31
0.0
0
LINE
8
CUT
10
-223.8112
20
137.9344
30
0.0
11
-228.0123
21
133.4098
31
0.0
0
LINE
8
CUT
10
-228.0123
20
133.4098
30
0.0
11
-232.0460
21
128.4520
31
0.0
0
LINE
8
CUT
10
-232.0460
20
128.4520
30
0.0
11
-235.9011
21
123.1011
31
0.0
0
LINE
8
CUT
10
-235.9011
20
123.1011
30
0.0
11
-239.5664
21
117.3972
31
0.0
0
LINE
8
CUT
10
-239.5664
20
117.3972
30
0.0
11
-243.0305
21
111.3802
31
0.0
0
LINE
8
CUT
10
-243.0305
20
111.3802
30
0.0
11
-246.2822
21
105.0904
31
0.0
0
LINE
8
CUT
10
-246.2822
20
105.0904
30
0.0
11
-249.3103
21
98.5677
31
0.0
0
LINE
8
CUT
10
-249.3103
20
98.5677
30
0.0
11
-252.1034
21
91.8522
31
0.0
0
LINE
8
CUT
10
-252.1034
20
91.8522
30
0.0
11
-254.6503
21
84.9841
31
0.0
0
LINE
8
CUT
10
-254.6503
20
84.9841
30
0.0
11
-256.9398
21
78.0033
31
0.0
0
LINE
8
CUT
10
-256.9398
20
78.0033
30
0.0
11
-258.9606
21
70.9499
31
0.0
0
LINE
8
CUT
10
-258.9606
20
70.9499
30
0.0
11
-260.7013
21
63.8641
31
0.0
0
LINE
8
CUT
10
-260.7013
20
63.8641
30
0.0
11
-262.1509
21
56.7858
31
0.0
0
LINE
8
CUT
10
-262.1509
20
56.7858
30
0.0
11
-263.2979
21
49.7552
31
0.0
0
LINE
8
CUT
10
-263.2979
20
49.7552
30
0.0
11
-264.1311
21
42.8123
31
0.0
0
LINE
8
CUT
10
-264.1311
20
42.8123
30
0.0
11
-264.6393
21
35.9972
31
0.0
0
LINE
8
CUT
10
-264.6393
20
35.9972
30
0.0
11
-264.8112
21
29.3499
31
0.0
0
LINE
8
CUT
10
-264.8112
20
29.3499
30
0.0
11
-264.6592
21
27.9085
31
0.0
0
LINE
8
CUT
10
-264.6592
20
27.9085
30
0.0
11
-264.2159
21
26.5401
31
0.0
0
LINE
8
CUT
10
-264.2159
20
26.5401
30
0.0
11
-263.5002
21
25.2357
31
0.0
0
LINE
8
CUT
10
-263.5002
20
25.2357
30
0.0
11
-262.5313
21
23.9861
31
0.0
0
LINE
8
CUT
10
-262.5313
20
23.9861
30
0.0
11
-261.3282
21
22.7822
31
0.0
0
LINE
8
CUT
10
-261.3282
20
22.7822
30
0.0
11
-259.9099
21
21.6149
31
0.0
0
LINE
8
CUT
10
-259.9099
20
21.6149
30
0.0
11
-258.2954
21
20.4750
31
0.0
0
LINE
8
CUT
10
-258.2954
20
20.4750
30
0.0
11
-256.5038
21
19.3533
31
0.0
0
LINE
8
CUT
10
-256.5038
20
19.3533
30
0.0
11
-254.5542
21
18.2409
31
0.0
0
LINE
8
CUT
10
-254.5542
20
18.2409
30
0.0
11
-252.4654
21
17.1284
31
0.0
0
LINE
8
CUT
10
-252.4654
20
17.1284
30
0.0
11
-250.2567
21
16.0069
31
0.0
0
LINE
8
CUT
10
-250.2567
20
16.0069
30
0.0
11
-247.9470
21
14.8672
31
0.0
0
LINE
8
CUT
10
-247.9470
20
14.8672
30
0.0
11
-245.5553
21
13.7001
31
0.0
0
LINE
8
CUT
10
-245.5553
20
13.7001
30
0.0
11
-243.1007
21
12.4965
31
0.0
0
LINE
8
CUT
10
-243.1007
20
12.4965
30
0.0
11
-240.6022
21
11.2473
31
0.0
0
LINE
8
CUT
10
-240.6022
20
11.2473
30
0.0
11
-238.0789
21
9.9434
31
0.0
0
LINE
8
CUT
10
-238.0789
20
9.9434
30
0.0
11
-235.5498
21
8.5756
31
0.0
0
LINE
8
CUT
10
-235.5498
20
8.5756
30
0.0
11
-233.0339
21
7.1347
31
0.0
0
LINE
8
CUT
10
-233.0339
20
7.1347
30
0.0
11
-220.7689
21
6.9760
31
0.0
0
LINE
8
CUT
10
-220.7689
20
6.9760
30
0.0
11
-208.5040
21
6.8258
31
0.0
0
LINE
8
CUT
10
-208.5040
20
6.8258
30
0.0
11
-196.2391
21
6.6843
31
0.0
0
LINE
8
CUT
10
-196.2391
20
6.6843
30
0.0
11
-183.9741
21
6.5513
31
0.0
0
LINE
8
CUT
10
-183.9741
20
6.5513
30
0.0
11
-171.7092
21
6.4268
31
0.0
0
LINE
8
CUT
10
-171.7092
20
6.4268
30
0.0
11
-159.4442
21
6.3110
31
0.0
0
LINE
8
CUT
10
-159.4442
20
6.3110
30
0.0
11
-147.1793
21
6.2038
31
0.0
0
LINE
8
CUT
10
-147.1793
20
6.2038
30
0.0
11
-134.9144
21
6.1051
31
0.0
0
LINE
8
CUT
10
-134.9144
20
6.1051
30
0.0
11
-122.6494
21
6.0150
31
0.0
0
LINE
8
CUT
10
-122.6494
20
6.0150
30
0.0
11
-110.3845
21
5.9335
31
0.0
0
LINE
8
CUT
10
-110.3845
20
5.9335
30
0.0
11
-98.1195
21
5.8605
31
0.0
0
LINE
8
CUT
10
-98.1195
20
5.8605
30
0.0
11
-85.8546
21
5.7962
31
0.0
0
LINE
8
CUT
10
-85.8546
20
5.7962
30
0.0
11
-73.5896
21
5.7404
31
0.0
0
LINE
8
CUT
10
-73.5896
20
5.7404
30
0.0
11
-61.3247
21
5.6932
31
0.0
0
LINE
8
CUT
10
-61.3247
20
5.6932
30
0.0
11
-49.0598
21
5.6546
31
0.0
0
LINE
8
CUT
10
-49.0598
20
5.6546
30
0.0
11
-36.7948
21
5.6246
31
0.0
0
LINE
8
CUT
10
-36.7948
20
5.6246
30
0.0
11
-24.5299
21
5.6031
31
0.0
0
LINE
8
CUT
10
-24.5299
20
5.6031
30
0.0
11
-12.2649
21
5.5902
31
0.0
0
LINE
8
CUT
10
-12.2649
20
5.5902
30
0.0
11
-0.0000
21
5.5859
31
0.0
0
LINE
8
CUT
10
-0.0000
20
5.5859
30
0.0
11
0.0000
21
5.5859
31
0.0
0
LINE
8
REG
10
0.0000
20
-20.0000
30
0.0
11
0.0000
21
174.1109
31
0.0
0
ENDSEC
0
EOF
