0
SECTION
2
ENTITIES
0
LINE
8
CUT
10
0.0000
20
0.0000
30
0.0
11
12.8930
21
0.0043
31
0.0
0
LINE
8
CUT
10
12.8930
20
0.0043
30
0.0
11
25.7861
21
0.0172
31
0.0
0
LINE
8
CUT
10
25.7861
20
0.0172
30
0.0
11
38.6791
21
0.0386
31
0.0
0
LINE
8
CUT
10
38.6791
20
0.0386
30
0.0
11
51.5722
21
0.0686
31
0.0
0
LINE
8
CUT
10
51.5722
20
0.0686
30
0.0
11
64.4652
21
0.1073
31
0.0
0
LINE
8
CUT
10
64.4652
20
0.1073
30
0.0
11
77.3583
21
0.1545
31
0.0
0
LINE
8
CUT
10
77.3583
20
0.1545
30
0.0
11
90.2513
21
0.2102
31
0.0
0
LINE
8
CUT
10
90.2513
20
0.2102
30
0.0
11
103.1444
21
0.2746
31
0.0
0
LINE
8
CUT
10
103.1444
20
0.2746
30
0.0
11
116.0374
21
0.3475
31
0.0
0
LINE
8
CUT
10
116.0374
20
0.3475
30
0.0
11
128.9305
21
0.4290
31
0.0
0
LINE
8
CUT
10
128.9305
20
0.4290
30
0.0
11
141.8235
21
0.5191
31
0.0
0
LINE
8
CUT
10
141.8235
20
0.5191
30
0.0
11
154.7165
21
0.6178
31
0.0
0
LINE
8
CUT
10
154.7165
20
0.6178
30
0.0
11
167.6096
21
0.7251
31
0.0
0
LINE
8
CUT
10
167.6096
20
0.7251
30
0.0
11
180.5026
21
0.8409
31
0.0
0
LINE
8
CUT
10
180.5026
20
0.8409
30
0.0
11
193.3957
21
0.9653
31
0.0
0
LINE
8
CUT
10
193.3957
20
0.9653
30
0.0
11
206.2887
21
1.0983
31
0.0
0
LINE
8
CUT
10
206.2887
20
1.0983
30
0.0
11
219.1818
21
1.2399
31
0.0
0
LINE
8
CUT
10
219.1818
20
1.2399
30
0.0
11
232.0748
21
1.3901
31
0.0
0
LINE
8
CUT
10
232.0748
20
1.3901
30
0.0
11
244.9679
21
1.5488
31
0.0
0
LINE
8
CUT
10
244.9679
20
1.5488
30
0.0
11
246.0633
21
4.1227
31
0.0
0
LINE
8
CUT
10
246.0633
20
4.1227
30
0.0
11
247.5264
21
6.3625
31
0.0
0
LINE
8
CUT
10
247.5264
20
6.3625
30
0.0
11
249.3051
21
8.3011
31
0.0
0
LINE
8
CUT
10
249.3051
20
8.3011
30
0.0
11
251.3472
21
9.9714
31
0.0
0
LINE
8
CUT
10
251.3472
20
9.9714
30
0.0
11
253.6004
21
11.4060
31
0.0
0
LINE
8
CUT
10
253.6004
20
11.4060
30
0.0
11
256.0127
21
12.6379
31
0.0
0
LINE
8
CUT
10
256.0127
20
12.6379
30
0.0
11
258.5319
21
13.7000
31
0.0
0
LINE
8
CUT
10
258.5319
20
13.7000
30
0.0
11
261.1057
21
14.6250
31
0.0
0
LINE
8
CUT
10
261.1057
20
14.6250
30
0.0
11
263.6821
21
15.4459
31
0.0
0
LINE
8
CUT
10
263.6821
20
15.4459
30
0.0
11
266.2087
21
16.1954
31
0.0
0
LINE
8
CUT
10
266.2087
20
16.1954
30
0.0
11
268.6335
21
16.9064
31
0.0
0
LINE
8
CUT
10
268.6335
20
16.9064
30
0.0
11
270.9043
21
17.6117
31
0.0
0
LINE
8
CUT
10
270.9043
20
17.6117
30
0.0
11
272.9689
21
18.3443
31
0.0
0
LINE
8
CUT
10
272.9689
20
18.3443
30
0.0
11
274.7751
21
19.1368
31
0.0
0
LINE
8
CUT
10
274.7751
20
19.1368
30
0.0
11
276.2707
21
20.0222
31
0.0
0
LINE
8
CUT
10
276.2707
20
20.0222
30
0.0
11
277.4036
21
21.0333
31
0.0
0
LINE
8
CUT
10
277.4036
20
21.0333
30
0.0
11
278.1216
21
22.2030
31
0.0
0
LINE
8
CUT
10
278.1216
20
22.2030
30
0.0
11
278.3726
21
23.5640
31
0.0
0
LINE
8
CUT
10
278.3726
20
23.5640
30
0.0
11
278.1919
21
30.1553
31
0.0
0
LINE
8
CUT
10
278.1919
20
30.1553
30
0.0
11
277.6576
21
36.9130
31
0.0
0
LINE
8
CUT
10
277.6576
20
36.9130
30
0.0
11
276.7817
21
43.7975
31
0.0
0
LINE
8
CUT
10
276.7817
20
43.7975
30
0.0
11
275.5760
21
50.7690
31
0.0
0
LINE
8
CUT
10
275.5760
20
50.7690
30
0.0
11
274.0522
21
57.7877
31
0.0
0
LINE
8
CUT
10
274.0522
20
57.7877
30
0.0
11
272.2223
21
64.8139
31
0.0
0
LINE
8
CUT
10
272.2223
20
64.8139
30
0.0
11
270.0980
21
71.8079
31
0.0
0
LINE
8
CUT
10
270.0980
20
71.8079
30
0.0
11
267.6913
21
78.7299
31
0.0
0
LINE
8
CUT
10
267.6913
20
78.7299
30
0.0
11
265.0140
21
85.5403
31
0.0
0
LINE
8
CUT
10
265.0140
20
85.5403
30
0.0
11
262.0778
21
92.1993
31
0.0
0
LINE
8
CUT
10
262.0778
20
92.1993
30
0.0
11
258.8947
21
98.6671
31
0.0
0
LINE
8
CUT
10
258.8947
20
98.6671
30
0.0
11
255.4764
21
104.9040
31
0.0
0
LINE
8
CUT
10
255.4764
20
104.9040
30
0.0
11
251.8349
21
110.8703
31
0.0
0
LINE
8
CUT
10
251.8349
20
110.8703
30
0.0
11
247.9820
21
116.5262
31
0.0
0
LINE
8
CUT
10
247.9820
20
116.5262
30
0.0
11
243.9294
21
121.8321
31
0.0
0
LINE
8
CUT
10
243.9294
20
121.8321
30
0.0
11
239.6891
21
126.7481
31
0.0
0
LINE
8
CUT
10
239.6891
20
126.7481
30
0.0
11
235.2729
21
131.2346
31
0.0
0
LINE
8
CUT
10
235.2729
20
131.2346
30
0.0
11
230.6926
21
135.2518
31
0.0
0
LINE
8
CUT
10
230.6926
20
135.2518
30
0.0
11
225.9600
21
138.7600
31
0.0
0
LINE
8
CUT
10
225.9600
20
138.7600
30
0.0
11
221.0871
21
141.7195
31
0.0
0
LINE
8
CUT
10
221.0871
20
141.7195
30
0.0
11
216.0856
21
144.0904
31
0.0
0
LINE
8
CUT
10
216.0856
20
144.0904
30
0.0
11
210.9674
21
145.8331
31
0.0
0
LINE
8
CUT
10
210.9674
20
145.8331
30
0.0
11
205.7444
21
146.9079
31
0.0
0
LINE
8
CUT
10
205.7444
20
146.9079
30
0.0
11
200.4283
21
147.2750
31
0.0
0
LINE
8
CUT
10
200.4283
20
147.2750
30
0.0
11
190.4068
21
147.2750
31
0.0
0
LINE
8
CUT
10
190.4068
20
147.2750
30
0.0
11
180.3854
21
147.2750
31
0.0
0
LINE
8
CUT
10
180.3854
20
147.2750
30
0.0
11
170.3640
21
147.2750
31
0.0
0
LINE
8
CUT
10
170.3640
20
147.2750
30
0.0
11
160.3426
21
147.2750
31
0.0
0
LINE
8
CUT
10
160.3426
20
147.2750
30
0.0
11
150.3212
21
147.2750
31
0.0
0
LINE
8
CUT
10
150.3212
20
147.2750
30
0.0
11
140.2998
21
147.2750
31
0.0
0
LINE
8
CUT
10
140.2998
20
147.2750
30
0.0
11
130.2784
21
147.2750
31
0.0
0
LINE
8
CUT
10
130.2784
20
147.2750
30
0.0
11
120.2570
21
147.2750
31
0.0
0
LINE
8
CUT
10
120.2570
20
147.2750
30
0.0
11
110.2355
21
147.2750
31
0.0
0
LINE
8
CUT
10
110.2355
20
147.2750
30
0.0
11
100.2141
21
147.2750
31
0.0
0
LINE
8
CUT
10
100.2141
20
147.2750
30
0.0
11
90.1927
21
147.2750
31
0.0
0
LINE
8
CUT
10
90.1927
20
147.2750
30
0.0
11
80.1713
21
147.2750
31
0.0
0
LINE
8
CUT
10
80.1713
20
147.2750
30
0.0
11
70.1499
21
147.2750
31
0.0
0
LINE
8
CUT
10
70.1499
20
147.2750
30
0.0
11
60.1285
21
147.2750
31
0.0
0
LINE
8
CUT
10
60.1285
20
147.2750
30
0.0
11
50.1071
21
147.2750
31
0.0
0
LINE
8
CUT
10
50.1071
20
147.2750
30
0.0
11
40.0857
21
147.2750
31
0.0
0
LINE
8
CUT
10
40.0857
20
147.2750
30
0.0
11
30.0642
21
147.2750
31
0.0
0
LINE
8
CUT
10
30.0642
20
147.2750
30
0.0
11
20.0428
21
147.2750
31
0.0
0
LINE
8
CUT
10
20.0428
20
147.2750
30
0.0
11
10.0214
21
147.2750
31
0.0
0
LINE
8
CUT
10
10.0214
20
147.2750
30
0.0
11
0.0000
21
147.2750
31
0.0
0
LINE
8
CUT
10
0.0000
20
147.2750
30
0.0
11
-0.0000
21
147.2750
31
0.0
0
LINE
8
CUT
10
-0.0000
20
147.2750
30
0.0
11
-10.0214
21
147.2750
31
0.0
0
LINE
8
CUT
10
-10.0214
20
147.2750
30
0.0
11
-20.0428
21
147.2750
31
0.0
0
LINE
8
CUT
10
-20.0428
20
147.2750
30
0.0
11
-30.0642
21
147.2750
31
0.0
0
LINE
8
CUT
10
-30.0642
20
147.2750
30
0.0
11
-40.0857
21
147.2750
31
0.0
0
LINE
8
CUT
10
-40.0857
20
147.2750
30
0.0
11
-50.1071
21
147.2750
31
0.0
0
LINE
8
CUT
10
-50.1071
20
147.2750
30
0.0
11
-60.1285
21
147.2750
31
0.0
0
LINE
8
CUT
10
-60.1285
20
147.2750
30
0.0
11
-70.1499
21
147.2750
31
0.0
0
LINE
8
CUT
10
-70.1499
20
147.2750
30
0.0
11
-80.1713
21
147.2750
31
0.0
0
LINE
8
CUT
10
-80.1713
20
147.2750
30
0.0
11
-90.1927
21
147.2750
31
0.0
0
LINE
8
CUT
10
-90.1927
20
147.2750
30
0.0
11
-100.2141
21
147.2750
31
0.0
0
LINE
8
CUT
10
-100.2141
20
147.2750
30
0.0
11
-110.2355
21
147.2750
31
0.0
0
LINE
8
CUT
10
-110.2355
20
147.2750
30
0.0
11
-120.2570
21
147.2750
31
0.0
0
LINE
8
CUT
10
-120.2570
20
147.2750
30
0.0
11
-130.2784
21
147.2750
31
0.0
0
LINE
8
CUT
10
-130.2784
20
147.2750
30
0.0
11
-140.2998
21
147.2750
31
0.0
0
LINE
8
CUT
10
-140.2998
20
147.2750
30
0.0
11
-150.3212
21
147.2750
31
0.0
0
LINE
8
CUT
10
-150.3212
20
147.2750
30
0.0
11
-160.3426
21
147.2750
31
0.0
0
LINE
8
CUT
10
-160.3426
20
147.2750
30
0.0
11
-170.3640
21
147.2750
31
0.0
0
LINE
8
CUT
10
-170.3640
20
147.2750
30
0.0
11
-180.3854
21
147.2750
31
0.0
0
LINE
8
CUT
10
-180.3854
20
147.2750
30
0.0
11
-190.4068
21
147.2750
31
0.0
0
LINE
8
CUT
10
-190.4068
20
147.2750
30
0.0
11
-200.4283
21
147.2750
31
0.0
0
LINE
8
CUT
10
-200.4283
20
147.2750
30
0.0
11
-205.7444
21
146.9079
31
0.0
0
LINE
8
CUT
10
-205.7444
20
146.9079
30
0.0
11
-210.9674
21
145.8331
31
0.0
0
LINE
8
CUT
10
-210.9674
20
145.8331
30
0.0
11
-216.0856
21
144.0904
31
0.0
0
LINE
8
CUT
10
-216.0856
20
144.0904
30
0.0
11
-221.0871
21
141.7195
31
0.0
0
LINE
8
CUT
10
-221.0871
20
141.7195
30
0.0
11
-225.9600
21
138.7600
31
0.0
0
LINE
8
CUT
10
-225.9600
20
138.7600
30
0.0
11
-230.6926
21
135.2518
31
0.0
0
LINE
8
CUT
10
-230.6926
20
135.2518
30
0.0
11
-235.2729
21
131.2346
31
0.0
0
LINE
8
CUT
10
-235.2729
20
131.2346
30
0.0
11
-239.6891
21
126.7481
31
0.0
0
LINE
8
CUT
10
-239.6891
20
126.7481
30
0.0
11
-243.9294
21
121.8321
31
0.0
0
LINE
8
CUT
10
-243.9294
20
121.8321
30
0.0
11
-247.9820
21
116.5262
31
0.0
0
LINE
8
CUT
10
-247.9820
20
116.5262
30
0.0
11
-251.8349
21
110.8703
31
0.0
0
LINE
8
CUT
10
-251.8349
20
110.8703
30
0.0
11
-255.4764
21
104.9040
31
0.0
0
LINE
8
CUT
10
-255.4764
20
104.9040
30
0.0
11
-258.8947
21
98.6671
31
0.0
0
LINE
8
CUT
10
-258.8947
20
98.6671
30
0.0
11
-262.0778
21
92.1993
31
0.0
0
LINE
8
CUT
10
-262.0778
20
92.1993
30
0.0
11
-265.0140
21
85.5403
31
0.0
0
LINE
8
CUT
10
-265.0140
20
85.5403
30
0.0
11
-267.6913
21
78.7299
31
0.0
0
LINE
8
CUT
10
-267.6913
20
78.7299
30
0.0
11
-270.0980
21
71.8079
31
0.0
0
LINE
8
CUT
10
-270.0980
20
71.8079
30
0.0
11
-272.2223
21
64.8139
31
0.0
0
LINE
8
CUT
10
-272.2223
20
64.8139
30
0.0
11
-274.0522
21
57.7877
31
0.0
0
LINE
8
CUT
10
-274.0522
20
57.7877
30
0.0
11
-275.5760
21
50.7690
31
0.0
0
LINE
8
CUT
10
-275.5760
20
50.7690
30
0.0
11
-276.7817
21
43.7975
31
0.0
0
LINE
8
CUT
10
-276.7817
20
43.7975
30
0.0
11
-277.6576
21
36.9130
31
0.0
0
LINE
8
CUT
10
-277.6576
20
36.9130
30
0.0
11
-278.1919
21
30.1553
31
0.0
0
LINE
8
CUT
10
-278.1919
20
30.1553
30
0.0
11
-278.3726
21
23.5640
31
0.0
0
LINE
8
CUT
10
-278.3726
20
23.5640
30
0.0
11
-278.1216
21
22.2030
31
0.0
0
LINE
8
CUT
10
-278.1216
20
22.2030
30
0.0
11
-277.4036
21
21.0333
31
0.0
0
LINE
8
CUT
10
-277.4036
20
21.0333
30
0.0
11
-276.2707
21
20.0222
31
0.0
0
LINE
8
CUT
10
-276.2707
20
20.0222
30
0.0
11
-274.7751
21
19.1368
31
0.0
0
LINE
8
CUT
10
-274.7751
20
19.1368
30
0.0
11
-272.9689
21
18.3443
31
0.0
0
LINE
8
CUT
10
-272.9689
20
18.3443
30
0.0
11
-270.9043
21
17.6117
31
0.0
0
LINE
8
CUT
10
-270.9043
20
17.6117
30
0.0
11
-268.6335
21
16.9064
31
0.0
0
LINE
8
CUT
10
-268.6335
20
16.9064
30
0.0
11
-266.2087
21
16.1954
31
0.0
0
LINE
8
CUT
10
-266.2087
20
16.1954
30
0.0
11
-263.6821
21
15.4459
31
0.0
0
LINE
8
CUT
10
-263.6821
20
15.4459
30
0.0
11
-261.1057
21
14.6250
31
0.0
0
LINE
8
CUT
10
-261.1057
20
14.6250
30
0.0
11
-258.5319
21
13.7000
31
0.0
0
LINE
8
CUT
10
-258.5319
20
13.7000
30
0.0
11
-256.0127
21
12.6379
31
0.0
0
LINE
8
CUT
10
-256.0127
20
12.6379
30
0.0
11
-253.6004
21
11.4060
31
0.0
0
LINE
8
CUT
10
-253.6004
20
11.4060
30
0.0
11
-251.3472
21
9.9714
31
0.0
0
LINE
8
CUT
10
-251.3472
20
9.9714
30
0.0
11
-249.3051
21
8.3011
31
0.0
0
LINE
8
CUT
10
-249.3051
20
8.3011
30
0.0
11
-247.5264
21
6.3625
31
0.0
0
LINE
8
CUT
10
-247.5264
20
6.3625
30
0.0
11
-246.0633
21
4.1227
31
0.0
0
LINE
8
CUT
10
-246.0633
20
4.1227
30
0.0
11
-244.9679
21
1.5488
31
0.0
0
LINE
8
CUT
10
-244.9679
20
1.5488
30
0.0
11
-232.0748
21
1.3901
31
0.0
0
LINE
8
CUT
10
-232.0748
20
1.3901
30
0.0
11
-219.1818
21
1.2399
31
0.0
0
LINE
8
CUT
10
-219.1818
20
1.2399
30
0.0
11
-206.2887
21
1.0983
31
0.0
0
LINE
8
CUT
10
-206.2887
20
1.0983
30
0.0
11
-193.3957
21
0.9653
31
0.0
0
LINE
8
CUT
10
-193.3957
20
0.9653
30
0.0
11
-180.5026
21
0.8409
31
0.0
0
LINE
8
CUT
10
-180.5026
20
0.8409
30
0.0
11
-167.6096
21
0.7251
31
0.0
0
LINE
8
CUT
10
-167.6096
20
0.7251
30
0.0
11
-154.7165
21
0.6178
31
0.0
0
LINE
8
CUT
10
-154.7165
20
0.6178
30
0.0
11
-141.8235
21
0.5191
31
0.0
0
LINE
8
CUT
10
-141.8235
20
0.5191
30
0.0
11
-128.9305
21
0.4290
31
0.0
0
LINE
8
CUT
10
-128.9305
20
0.4290
30
0.0
11
-116.0374
21
0.3475
31
0.0
0
LINE
8
CUT
10
-116.0374
20
0.3475
30
0.0
11
-103.1444
21
0.2746
31
0.0
0
LINE
8
CUT
10
-103.1444
20
0.2746
30
0.0
11
-90.2513
21
0.2102
31
0.0
0
LINE
8
CUT
10
-90.2513
20
0.2102
30
0.0
11
-77.3583
21
0.1545
31
0.0
0
LINE
8
CUT
10
-77.3583
20
0.1545
30
0.0
11
-64.4652
21
0.1073
31
0.0
0
LINE
8
CUT
10
-64.4652
20
0.1073
30
0.0
11
-51.5722
21
0.0686
31
0.0
0
LINE
8
CUT
10
-51.5722
20
0.0686
30
0.0
11
-38.6791
21
0.0386
31
0.0
0
LINE
8
CUT
10
-38.6791
20
0.0386
30
0.0
11
-25.7861
21
0.0172
31
0.0
0
LINE
8
CUT
10
-25.7861
20
0.0172
30
0.0
11
-12.8930
21
0.0043
31
0.0
0
LINE
8
CUT
10
-12.8930
20
0.0043
30
0.0
11
-0.0000
21
0.0000
31
0.0
0
LINE
8
CUT
10
-0.0000
20
0.0000
30
0.0
11
0.0000
21
0.0000
31
0.0
0
LINE
8
REG
10
0.0000
20
-20.0000
30
0.0
11
0.0000
21
167.2750
31
0.0
0
ENDSEC
0
EOF
