0
SECTION
2
ENTITIES
0
LINE
8
CUT
10
0.0000
20
4.0829
30
0.0
11
8.7211
21
4.0872
31
0.0
0
LINE
8
CUT
10
8.7211
20
4.0872
30
0.0
11
17.4421
21
4.1001
31
0.0
0
LINE
8
CUT
10
17.4421
20
4.1001
30
0.0
11
26.1632
21
4.1216
31
0.0
0
LINE
8
CUT
10
26.1632
20
4.1216
30
0.0
11
34.8843
21
4.1516
31
0.0
0
LINE
8
CUT
10
34.8843
20
4.1516
30
0.0
11
43.6054
21
4.1902
31
0.0
0
LINE
8
CUT
10
43.6054
20
4.1902
30
0.0
11
52.3264
21
4.2374
31
0.0
0
LINE
8
CUT
10
52.3264
20
4.2374
30
0.0
11
61.0475
21
4.2932
31
0.0
0
LINE
8
CUT
10
61.0475
20
4.2932
30
0.0
11
69.7686
21
4.3575
31
0.0
0
LINE
8
CUT
10
69.7686
20
4.3575
30
0.0
11
78.4897
21
4.4305
31
0.0
0
LINE
8
CUT
10
78.4897
20
4.4305
30
0.0
11
87.2107
21
4.5120
31
0.0
0
LINE
8
CUT
10
87.2107
20
4.5120
30
0.0
11
95.9318
21
4.6021
31
0.0
0
LINE
8
CUT
10
95.9318
20
4.6021
30
0.0
11
104.6529
21
4.7007
31
0.0
0
LINE
8
CUT
10
104.6529
20
4.7007
30
0.0
11
113.3739
21
4.8080
31
0.0
0
LINE
8
CUT
10
113.3739
20
4.8080
30
0.0
11
122.0950
21
4.9238
31
0.0
0
LINE
8
CUT
10
122.0950
20
4.9238
30
0.0
11
130.8161
21
5.0483
31
0.0
0
LINE
8
CUT
10
130.8161
20
5.0483
30
0.0
11
139.5372
21
5.1813
31
0.0
0
LINE
8
CUT
10
139.5372
20
5.1813
30
0.0
11
148.2582
21
5.3228
31
0.0
0
LINE
8
CUT
10
148.2582
20
5.3228
30
0.0
11
156.9793
21
5.4730
31
0.0
0
LINE
8
CUT
10
156.9793
20
5.4730
30
0.0
11
165.7004
21
5.6317
31
0.0
0
LINE
8
CUT
10
165.7004
20
5.6317
30
0.0
11
166.5409
21
7.7128
31
0.0
0
LINE
8
CUT
10
166.5409
20
7.7128
30
0.0
11
167.6074
21
9.5618
31
0.0
0
LINE
8
CUT
10
167.6074
20
9.5618
30
0.0
11
168.8667
21
11.2022
31
0.0
0
LINE
8
CUT
10
168.8667
20
11.2022
30
0.0
11
170.2856
21
12.6573
31
0.0
0
LINE
8
CUT
10
170.2856
20
12.6573
30
0.0
11
171.8307
21
13.9507
31
0.0
0
LINE
8
CUT
10
171.8307
20
13.9507
30
0.0
11
173.4690
21
15.1059
31
0.0
0
LINE
8
CUT
10
173.4690
20
15.1059
30
0.0
11
175.1671
21
16.1463
31
0.0
0
LINE
8
CUT
10
175.1671
20
16.1463
30
0.0
11
176.8919
21
17.0954
31
0.0
0
LINE
8
CUT
10
176.8919
20
17.0954
30
0.0
11
178.6101
21
17.9767
31
0.0
0
LINE
8
CUT
10
178.6101
20
17.9767
30
0.0
11
180.2885
21
18.8136
31
0.0
0
LINE
8
CUT
10
180.2885
20
18.8136
30
0.0
11
181.8939
21
19.6296
31
0.0
0
LINE
8
CUT
10
181.8939
20
19.6296
30
0.0
11
183.3931
21
20.4481
31
0.0
0
LINE
8
CUT
10
183.3931
20
20.4481
30
0.0
11
184.7527
21
21.2928
31
0.0
0
LINE
8
CUT
10
184.7527
20
21.2928
30
0.0
11
185.9397
21
22.1869
31
0.0
0
LINE
8
CUT
10
185.9397
20
22.1869
30
0.0
11
186.9207
21
23.1540
31
0.0
0
LINE
8
CUT
10
186.9207
20
23.1540
30
0.0
11
187.6625
21
24.2176
31
0.0
0
LINE
8
CUT
10
187.6625
20
24.2176
30
0.0
11
188.1320
21
25.4011
31
0.0
0
LINE
8
CUT
10
188.1320
20
25.4011
30
0.0
11
188.2959
21
26.7280
31
0.0
0
LINE
8
CUT
10
188.2959
20
26.7280
30
0.0
11
188.1737
21
33.0622
31
0.0
0
LINE
8
CUT
10
188.1737
20
33.0622
30
0.0
11
187.8123
21
39.5564
31
0.0
0
LINE
8
CUT
10
187.8123
20
39.5564
30
0.0
11
187.2198
21
46.1724
31
0.0
0
LINE
8
CUT
10
187.2198
20
46.1724
30
0.0
11
186.4042
21
52.8720
31
0.0
0
LINE
8
CUT
10
186.4042
20
52.8720
30
0.0
11
185.3735
21
59.6170
31
0.0
0
LINE
8
CUT
10
185.3735
20
59.6170
30
0.0
11
184.1357
21
66.3692
31
0.0
0
LINE
8
CUT
10
184.1357
20
66.3692
30
0.0
11
182.6989
21
73.0904
31
0.0
0
LINE
8
CUT
10
182.6989
20
73.0904
30
0.0
11
181.0709
21
79.7425
31
0.0
0
LINE
8
CUT
10
181.0709
20
79.7425
30
0.0
11
179.2599
21
86.2873
31
0.0
0
LINE
8
CUT
10
179.2599
20
86.2873
30
0.0
11
177.2738
21
92.6866
31
0.0
0
LINE
8
CUT
10
177.2738
20
92.6866
30
0.0
11
175.1207
21
98.9021
31
0.0
0
LINE
8
CUT
10
175.1207
20
98.9021
30
0.0
11
172.8086
21
104.8958
31
0.0
0
LINE
8
CUT
10
172.8086
20
104.8958
30
0.0
11
170.3454
21
110.6295
31
0.0
0
LINE
8
CUT
10
170.3454
20
110.6295
30
0.0
11
167.7392
21
116.0648
31
0.0
0
LINE
8
CUT
10
167.7392
20
116.0648
30
0.0
11
164.9979
21
121.1638
31
0.0
0
LINE
8
CUT
10
164.9979
20
121.1638
30
0.0
11
162.1297
21
125.8881
31
0.0
0
LINE
8
CUT
10
162.1297
20
125.8881
30
0.0
11
159.1425
21
130.1996
31
0.0
0
LINE
8
CUT
10
159.1425
20
130.1996
30
0.0
11
156.0443
21
134.0602
31
0.0
0
LINE
8
CUT
10
156.0443
20
134.0602
30
0.0
11
152.8432
21
137.4315
31
0.0
0
LINE
8
CUT
10
152.8432
20
137.4315
30
0.0
11
149.5470
21
140.2756
31
0.0
0
LINE
8
CUT
10
149.5470
20
140.2756
30
0.0
11
146.1639
21
142.5541
31
0.0
0
LINE
8
CUT
10
146.1639
20
142.5541
30
0.0
11
142.7019
21
144.2288
31
0.0
0
LINE
8
CUT
10
142.7019
20
144.2288
30
0.0
11
139.1689
21
145.2617
31
0.0
0
LINE
8
CUT
10
139.1689
20
145.2617
30
0.0
11
135.5730
21
145.6145
31
0.0
0
LINE
8
CUT
10
135.5730
20
145.6145
30
0.0
11
128.7944
21
145.6145
31
0.0
0
LINE
8
CUT
10
128.7944
20
145.6145
30
0.0
11
122.0157
21
145.6145
31
0.0
0
LINE
8
CUT
10
122.0157
20
145.6145
30
0.0
11
115.2371
21
145.6145
31
0.0
0
LINE
8
CUT
10
115.2371
20
145.6145
30
0.0
11
108.4584
21
145.6145
31
0.0
0
LINE
8
CUT
10
108.4584
20
145.6145
30
0.0
11
101.6798
21
145.6145
31
0.0
0
LINE
8
CUT
10
101.6798
20
145.6145
30
0.0
11
94.9011
21
145.6145
31
0.0
0
LINE
8
CUT
10
94.9011
20
145.6145
30
0.0
11
88.1225
21
145.6145
31
0.0
0
LINE
8
CUT
10
88.1225
20
145.6145
30
0.0
11
81.3438
21
145.6145
31
0.0
0
LINE
8
CUT
10
81.3438
20
145.6145
30
0.0
11
74.5652
21
145.6145
31
0.0
0
LINE
8
CUT
10
74.5652
20
145.6145
30
0.0
11
67.7865
21
145.6145
31
0.0
0
LINE
8
CUT
10
67.7865
20
145.6145
30
0.0
11
61.0079
21
145.6145
31
0.0
0
LINE
8
CUT
10
61.0079
20
145.6145
30
0.0
11
54.2292
21
145.6145
31
0.0
0
LINE
8
CUT
10
54.2292
20
145.6145
30
0.0
11
47.4506
21
145.6145
31
0.0
0
LINE
8
CUT
10
47.4506
20
145.6145
30
0.0
11
40.6719
21
145.6145
31
0.0
0
LINE
8
CUT
10
40.6719
20
145.6145
30
0.0
11
33.8933
21
145.6145
31
0.0
0
LINE
8
CUT
10
33.8933
20
145.6145
30
0.0
11
27.1146
21
145.6145
31
0.0
0
LINE
8
CUT
10
27.1146
20
145.6145
30
0.0
11
20.3360
21
145.6145
31
0.0
0
LINE
8
CUT
10
20.3360
20
145.6145
30
0.0
11
13.5573
21
145.6145
31
0.0
0
LINE
8
CUT
10
13.5573
20
145.6145
30
0.0
11
6.7787
21
145.6145
31
0.0
0
LINE
8
CUT
10
6.7787
20
145.6145
30
0.0
11
0.0000
21
145.6145
31
0.0
0
LINE
8
CUT
10
0.0000
20
145.6145
30
0.0
11
-0.0000
21
145.6145
31
0.0
0
LINE
8
CUT
10
-0.0000
20
145.6145
30
0.0
11
-6.7787
21
145.6145
31
0.0
0
LINE
8
CUT
10
-6.7787
20
145.6145
30
0.0
11
-13.5573
21
145.6145
31
0.0
0
LINE
8
CUT
10
-13.5573
20
145.6145
30
0.0
11
-20.3360
21
145.6145
31
0.0
0
LINE
8
CUT
10
-20.3360
20
145.6145
30
0.0
11
-27.1146
21
145.6145
31
0.0
0
LINE
8
CUT
10
-27.1146
20
145.6145
30
0.0
11
-33.8933
21
145.6145
31
0.0
0
LINE
8
CUT
10
-33.8933
20
145.6145
30
0.0
11
-40.6719
21
145.6145
31
0.0
0
LINE
8
CUT
10
-40.6719
20
145.6145
30
0.0
11
-47.4506
21
145.6145
31
0.0
0
LINE
8
CUT
10
-47.4506
20
145.6145
30
0.0
11
-54.2292
21
145.6145
31
0.0
0
LINE
8
CUT
10
-54.2292
20
145.6145
30
0.0
11
-61.0079
21
145.6145
31
0.0
0
LINE
8
CUT
10
-61.0079
20
145.6145
30
0.0
11
-67.7865
21
145.6145
31
0.0
0
LINE
8
CUT
10
-67.7865
20
145.6145
30
0.0
11
-74.5652
21
145.6145
31
0.0
0
LINE
8
CUT
10
-74.5652
20
145.6145
30
0.0
11
-81.3438
21
145.6145
31
0.0
0
LINE
8
CUT
10
-81.3438
20
145.6145
30
0.0
11
-88.1225
21
145.6145
31
0.0
0
LINE
8
CUT
10
-88.1225
20
145.6145
30
0.0
11
-94.9011
21
145.6145
31
0.0
0
LINE
8
CUT
10
-94.9011
20
145.6145
30
0.0
11
-101.6798
21
145.6145
31
0.0
0
LINE
8
CUT
10
-101.6798
20
145.6145
30
0.0
11
-108.4584
21
145.6145
31
0.0
0
LINE
8
CUT
10
-108.4584
20
145.6145
30
0.0
11
-115.2371
21
145.6145
31
0.0
0
LINE
8
CUT
10
-115.2371
20
145.6145
30
0.0
11
-122.0157
21
145.6145
31
0.0
0
LINE
8
CUT
10
-122.0157
20
145.6145
30
0.0
11
-128.7944
21
145.6145
31
0.0
0
LINE
8
CUT
10
-128.7944
20
145.6145
30
0.0
11
-135.5730
21
145.6145
31
0.0
0
LINE
8
CUT
10
-135.5730
20
145.6145
30
0.0
11
-139.1689
21
145.2617
31
0.0
0
LINE
8
CUT
10
-139.1689
20
145.2617
30
0.0
11
-142.7019
21
144.2288
31
0.0
0
LINE
8
CUT
10
-142.7019
20
144.2288
30
0.0
11
-146.1639
21
142.5541
31
0.0
0
LINE
8
CUT
10
-146.1639
20
142.5541
30
0.0
11
-149.5470
21
140.2756
31
0.0
0
LINE
8
CUT
10
-149.5470
20
140.2756
30
0.0
11
-152.8432
21
137.4315
31
0.0
0
LINE
8
CUT
10
-152.8432
20
137.4315
30
0.0
11
-156.0443
21
134.0602
31
0.0
0
LINE
8
CUT
10
-156.0443
20
134.0602
30
0.0
11
-159.1425
21
130.1996
31
0.0
0
LINE
8
CUT
10
-159.1425
20
130.1996
30
0.0
11
-162.1297
21
125.8881
31
0.0
0
LINE
8
CUT
10
-162.1297
20
125.8881
30
0.0
11
-164.9979
21
121.1638
31
0.0
0
LINE
8
CUT
10
-164.9979
20
121.1638
30
0.0
11
-167.7392
21
116.0648
31
0.0
0
LINE
8
CUT
10
-167.7392
20
116.0648
30
0.0
11
-170.3454
21
110.6295
31
0.0
0
LINE
8
CUT
10
-170.3454
20
110.6295
30
0.0
11
-172.8086
21
104.8958
31
0.0
0
LINE
8
CUT
10
-172.8086
20
104.8958
30
0.0
11
-175.1207
21
98.9021
31
0.0
0
LINE
8
CUT
10
-175.1207
20
98.9021
30
0.0
11
-177.2738
21
92.6866
31
0.0
0
LINE
8
CUT
10
-177.2738
20
92.6866
30
0.0
11
-179.2599
21
86.2873
31
0.0
0
LINE
8
CUT
10
-179.2599
20
86.2873
30
0.0
11
-181.0709
21
79.7425
31
0.0
0
LINE
8
CUT
10
-181.0709
20
79.7425
30
0.0
11
-182.6989
21
73.0904
31
0.0
0
LINE
8
CUT
10
-182.6989
20
73.0904
30
0.0
11
-184.1357
21
66.3692
31
0.0
0
LINE
8
CUT
10
-184.1357
20
66.3692
30
0.0
11
-185.3735
21
59.6170
31
0.0
0
LINE
8
CUT
10
-185.3735
20
59.6170
30
0.0
11
-186.4042
21
52.8720
31
0.0
0
LINE
8
CUT
10
-186.4042
20
52.8720
30
0.0
11
-187.2198
21
46.1724
31
0.0
0
LINE
8
CUT
10
-187.2198
20
46.1724
30
0.0
11
-187.8123
21
39.5564
31
0.0
0
LINE
8
CUT
10
-187.8123
20
39.5564
30
0.0
11
-188.1737
21
33.0622
31
0.0
0
LINE
8
CUT
10
-188.1737
20
33.0622
30
0.0
11
-188.2959
21
26.7280
31
0.0
0
LINE
8
CUT
10
-188.2959
20
26.7280
30
0.0
11
-188.1320
21
25.4011
31
0.0
0
LINE
8
CUT
10
-188.1320
20
25.4011
30
0.0
11
-187.6625
21
24.2176
31
0.0
0
LINE
8
CUT
10
-187.6625
20
24.2176
30
0.0
11
-186.9207
21
23.1540
31
0.0
0
LINE
8
CUT
10
-186.9207
20
23.1540
30
0.0
11
-185.9397
21
22.1869
31
0.0
0
LINE
8
CUT
10
-185.9397
20
22.1869
30
0.0
11
-184.7527
21
21.2928
31
0.0
0
LINE
8
CUT
10
-184.7527
20
21.2928
30
0.0
11
-183.3931
21
20.4481
31
0.0
0
LINE
8
CUT
10
-183.3931
20
20.4481
30
0.0
11
-181.8939
21
19.6296
31
0.0
0
LINE
8
CUT
10
-181.8939
20
19.6296
30
0.0
11
-180.2885
21
18.8136
31
0.0
0
LINE
8
CUT
10
-180.2885
20
18.8136
30
0.0
11
-178.6101
21
17.9767
31
0.0
0
LINE
8
CUT
10
-178.6101
20
17.9767
30
0.0
11
-176.8919
21
17.0954
31
0.0
0
LINE
8
CUT
10
-176.8919
20
17.0954
30
0.0
11
-175.1671
21
16.1463
31
0.0
0
LINE
8
CUT
10
-175.1671
20
16.1463
30
0.0
11
-173.4690
21
15.1059
31
0.0
0
LINE
8
CUT
10
-173.4690
20
15.1059
30
0.0
11
-171.8307
21
13.9507
31
0.0
0
LINE
8
CUT
10
-171.8307
20
13.9507
30
0.0
11
-170.2856
21
12.6573
31
0.0
0
LINE
8
CUT
10
-170.2856
20
12.6573
30
0.0
11
-168.8667
21
11.2022
31
0.0
0
LINE
8
CUT
10
-168.8667
20
11.2022
30
0.0
11
-167.6074
21
9.5618
31
0.0
0
LINE
8
CUT
10
-167.6074
20
9.5618
30
0.0
11
-166.5409
21
7.7128
31
0.0
0
LINE
8
CUT
10
-166.5409
20
7.7128
30
0.0
11
-165.7004
21
5.6317
31
0.0
0
LINE
8
CUT
10
-165.7004
20
5.6317
30
0.0
11
-156.9793
21
5.4730
31
0.0
0
LINE
8
CUT
10
-156.9793
20
5.4730
30
0.0
11
-148.2582
21
5.3228
31
0.0
0
LINE
8
CUT
10
-148.2582
20
5.3228
30
0.0
11
-139.5372
21
5.1813
31
0.0
0
LINE
8
CUT
10
-139.5372
20
5.1813
30
0.0
11
-130.8161
21
5.0483
31
0.0
0
LINE
8
CUT
10
-130.8161
20
5.0483
30
0.0
11
-122.0950
21
4.9238
31
0.0
0
LINE
8
CUT
10
-122.0950
20
4.9238
30
0.0
11
-113.3739
21
4.8080
31
0.0
0
LINE
8
CUT
10
-113.3739
20
4.8080
30
0.0
11
-104.6529
21
4.7007
31
0.0
0
LINE
8
CUT
10
-104.6529
20
4.7007
30
0.0
11
-95.9318
21
4.6021
31
0.0
0
LINE
8
CUT
10
-95.9318
20
4.6021
30
0.0
11
-87.2107
21
4.5120
31
0.0
0
LINE
8
CUT
10
-87.2107
20
4.5120
30
0.0
11
-78.4897
21
4.4305
31
0.0
0
LINE
8
CUT
10
-78.4897
20
4.4305
30
0.0
11
-69.7686
21
4.3575
31
0.0
0
LINE
8
CUT
10
-69.7686
20
4.3575
30
0.0
11
-61.0475
21
4.2932
31
0.0
0
LINE
8
CUT
10
-61.0475
20
4.2932
30
0.0
11
-52.3264
21
4.2374
31
0.0
0
LINE
8
CUT
10
-52.3264
20
4.2374
30
0.0
11
-43.6054
21
4.1902
31
0.0
0
LINE
8
CUT
10
-43.6054
20
4.1902
30
0.0
11
-34.8843
21
4.1516
31
0.0
0
LINE
8
CUT
10
-34.8843
20
4.1516
30
0.0
11
-26.1632
21
4.1216
31
0.0
0
LINE
8
CUT
10
-26.1632
20
4.1216
30
0.0
11
-17.4421
21
4.1001
31
0.0
0
LINE
8
CUT
10
-17.4421
20
4.1001
30
0.0
11
-8.7211
21
4.0872
31
0.0
0
LINE
8
CUT
10
-8.7211
20
4.0872
30
0.0
11
-0.0000
21
4.0829
31
0.0
0
LINE
8
CUT
10
-0.0000
20
4.0829
30
0.0
11
0.0000
21
4.0829
31
0.0
0
LINE
8
REG
10
0.0000
20
-20.0000
30
0.0
11
0.0000
21
165.6145
31
0.0
0
ENDSEC
0
EOF
