0
SECTION
2
ENTITIES
0
LINE
8
CUT
10
0.0000
20
0.4414
30
0.0
11
12.7381
21
0.4457
31
0.0
0
LINE
8
CUT
10
12.7381
20
0.4457
30
0.0
11
25.4761
21
0.4585
31
0.0
0
LINE
8
CUT
10
25.4761
20
0.4585
30
0.0
11
38.2142
21
0.4800
31
0.0
0
LINE
8
CUT
10
38.2142
20
0.4800
30
0.0
11
50.9523
21
0.5100
31
0.0
0
LINE
8
CUT
10
50.9523
20
0.5100
30
0.0
11
63.6903
21
0.5486
31
0.0
0
LINE
8
CUT
10
63.6903
20
0.5486
30
0.0
11
76.4284
21
0.5958
31
0.0
0
LINE
8
CUT
10
76.4284
20
0.5958
30
0.0
11
89.1665
21
0.6516
31
0.0
0
LINE
8
CUT
10
89.1665
20
0.6516
30
0.0
11
101.9045
21
0.7160
31
0.0
0
LINE
8
CUT
10
101.9045
20
0.7160
30
0.0
11
114.6426
21
0.7889
31
0.0
0
LINE
8
CUT
10
114.6426
20
0.7889
30
0.0
11
127.3806
21
0.8704
31
0.0
0
LINE
8
CUT
10
127.3806
20
0.8704
30
0.0
11
140.1187
21
0.9605
31
0.0
0
LINE
8
CUT
10
140.1187
20
0.9605
30
0.0
11
152.8568
21
1.0592
31
0.0
0
LINE
8
CUT
10
152.8568
20
1.0592
30
0.0
11
165.5948
21
1.1664
31
0.0
0
LINE
8
CUT
10
165.5948
20
1.1664
30
0.0
11
178.3329
21
1.2823
31
0.0
0
LINE
8
CUT
10
178.3329
20
1.2823
30
0.0
11
191.0710
21
1.4067
31
0.0
0
LINE
8
CUT
10
191.0710
20
1.4067
30
0.0
11
203.8090
21
1.5397
31
0.0
0
LINE
8
CUT
10
203.8090
20
1.5397
30
0.0
11
216.5471
21
1.6813
31
0.0
0
LINE
8
CUT
10
216.5471
20
1.6813
30
0.0
11
229.2852
21
1.8314
31
0.0
0
LINE
8
CUT
10
229.2852
20
1.8314
30
0.0
11
242.0232
21
1.9902
31
0.0
0
LINE
8
CUT
10
242.0232
20
1.9902
30
0.0
11
243.7244
21
4.4084
31
0.0
0
LINE
8
CUT
10
243.7244
20
4.4084
30
0.0
11
245.6475
21
6.5393
31
0.0
0
LINE
8
CUT
10
245.6475
20
6.5393
30
0.0
11
247.7539
21
8.4117
31
0.0
0
LINE
8
CUT
10
247.7539
20
8.4117
30
0.0
11
250.0048
21
10.0541
31
0.0
0
LINE
8
CUT
10
250.0048
20
10.0541
30
0.0
11
252.3617
21
11.4954
31
0.0
0
LINE
8
CUT
10
252.3617
20
11.4954
30
0.0
11
254.7857
21
12.7642
31
0.0
0
LINE
8
CUT
10
254.7857
20
12.7642
30
0.0
11
257.2381
21
13.8892
31
0.0
0
LINE
8
CUT
10
257.2381
20
13.8892
30
0.0
11
259.6804
21
14.8991
31
0.0
0
LINE
8
CUT
10
259.6804
20
14.8991
30
0.0
11
262.0737
21
15.8226
31
0.0
0
LINE
8
CUT
10
262.0737
20
15.8226
30
0.0
11
264.3794
21
16.6883
31
0.0
0
LINE
8
CUT
10
264.3794
20
16.6883
30
0.0
11
266.5587
21
17.5251
31
0.0
0
LINE
8
CUT
10
266.5587
20
17.5251
30
0.0
11
268.5730
21
18.3616
31
0.0
0
LINE
8
CUT
10
268.5730
20
18.3616
30
0.0
11
270.3837
21
19.2264
31
0.0
0
LINE
8
CUT
10
270.3837
20
19.2264
30
0.0
11
271.9518
21
20.1483
31
0.0
0
LINE
8
CUT
10
271.9518
20
20.1483
30
0.0
11
273.2389
21
21.1560
31
0.0
0
LINE
8
CUT
10
273.2389
20
21.1560
30
0.0
11
274.2062
21
22.2782
31
0.0
0
LINE
8
CUT
10
274.2062
20
22.2782
30
0.0
11
274.8149
21
23.5435
31
0.0
0
LINE
8
CUT
10
274.8149
20
23.5435
30
0.0
11
275.0264
21
24.9807
31
0.0
0
LINE
8
CUT
10
275.0264
20
24.9807
30
0.0
11
274.8479
21
31.8448
31
0.0
0
LINE
8
CUT
10
274.8479
20
31.8448
30
0.0
11
274.3200
21
38.8823
31
0.0
0
LINE
8
CUT
10
274.3200
20
38.8823
30
0.0
11
273.4547
21
46.0517
31
0.0
0
LINE
8
CUT
10
273.4547
20
46.0517
30
0.0
11
272.2634
21
53.3117
31
0.0
0
LINE
8
CUT
10
272.2634
20
53.3117
30
0.0
11
270.7580
21
60.6210
31
0.0
0
LINE
8
CUT
10
270.7580
20
60.6210
30
0.0
11
268.9500
21
67.9380
31
0.0
0
LINE
8
CUT
10
268.9500
20
67.9380
30
0.0
11
266.8513
21
75.2215
31
0.0
0
LINE
8
CUT
10
266.8513
20
75.2215
30
0.0
11
264.4735
21
82.4301
31
0.0
0
LINE
8
CUT
10
264.4735
20
82.4301
30
0.0
11
261.8283
21
89.5223
31
0.0
0
LINE
8
CUT
10
261.8283
20
89.5223
30
0.0
11
258.9275
21
96.4569
31
0.0
0
LINE
8
CUT
10
258.9275
20
96.4569
30
0.0
11
255.7826
21
103.1924
31
0.0
0
LINE
8
CUT
10
255.7826
20
103.1924
30
0.0
11
252.4055
21
109.6875
31
0.0
0
LINE
8
CUT
10
252.4055
20
109.6875
30
0.0
11
248.8077
21
115.9007
31
0.0
0
LINE
8
CUT
10
248.8077
20
115.9007
30
0.0
11
245.0011
21
121.7908
31
0.0
0
LINE
8
CUT
10
245.0011
20
121.7908
30
0.0
11
240.9972
21
127.3163
31
0.0
0
LINE
8
CUT
10
240.9972
20
127.3163
30
0.0
11
236.8079
21
132.4358
31
0.0
0
LINE
8
CUT
10
236.8079
20
132.4358
30
0.0
11
232.4448
21
137.1080
31
0.0
0
LINE
8
CUT
10
232.4448
20
137.1080
30
0.0
11
227.9195
21
141.2915
31
0.0
0
LINE
8
CUT
10
227.9195
20
141.2915
30
0.0
11
223.2439
21
144.9449
31
0.0
0
LINE
8
CUT
10
223.2439
20
144.9449
30
0.0
11
218.4295
21
148.0268
31
0.0
0
LINE
8
CUT
10
218.4295
20
148.0268
30
0.0
11
213.4882
21
150.4959
31
0.0
0
LINE
8
CUT
10
213.4882
20
150.4959
30
0.0
11
208.4315
21
152.3108
31
0.0
0
LINE
8
CUT
10
208.4315
20
152.3108
30
0.0
11
203.2712
21
153.4300
31
0.0
0
LINE
8
CUT
10
203.2712
20
153.4300
30
0.0
11
198.0190
21
153.8123
31
0.0
0
LINE
8
CUT
10
198.0190
20
153.8123
30
0.0
11
188.1181
21
153.8123
31
0.0
0
LINE
8
CUT
10
188.1181
20
153.8123
30
0.0
11
178.2171
21
153.8123
31
0.0
0
LINE
8
CUT
10
178.2171
20
153.8123
30
0.0
11
168.3162
21
153.8123
31
0.0
0
LINE
8
CUT
10
168.3162
20
153.8123
30
0.0
11
158.4152
21
153.8123
31
0.0
0
LINE
8
CUT
10
158.4152
20
153.8123
30
0.0
11
148.5143
21
153.8123
31
0.0
0
LINE
8
CUT
10
148.5143
20
153.8123
30
0.0
11
138.6133
21
153.8123
31
0.0
0
LINE
8
CUT
10
138.6133
20
153.8123
30
0.0
11
128.7124
21
153.8123
31
0.0
0
LINE
8
CUT
10
128.7124
20
153.8123
30
0.0
11
118.8114
21
153.8123
31
0.0
0
LINE
8
CUT
10
118.8114
20
153.8123
30
0.0
11
108.9105
21
153.8123
31
0.0
0
LINE
8
CUT
10
108.9105
20
153.8123
30
0.0
11
99.0095
21
153.8123
31
0.0
0
LINE
8
CUT
10
99.0095
20
153.8123
30
0.0
11
89.1086
21
153.8123
31
0.0
0
LINE
8
CUT
10
89.1086
20
153.8123
30
0.0
11
79.2076
21
153.8123
31
0.0
0
LINE
8
CUT
10
79.2076
20
153.8123
30
0.0
11
69.3067
21
153.8123
31
0.0
0
LINE
8
CUT
10
69.3067
20
153.8123
30
0.0
11
59.4057
21
153.8123
31
0.0
0
LINE
8
CUT
10
59.4057
20
153.8123
30
0.0
11
49.5048
21
153.8123
31
0.0
0
LINE
8
CUT
10
49.5048
20
153.8123
30
0.0
11
39.6038
21
153.8123
31
0.0
0
LINE
8
CUT
10
39.6038
20
153.8123
30
0.0
11
29.7029
21
153.8123
31
0.0
0
LINE
8
CUT
10
29.7029
20
153.8123
30
0.0
11
19.8019
21
153.8123
31
0.0
0
LINE
8
CUT
10
19.8019
20
153.8123
30
0.0
11
9.9010
21
153.8123
31
0.0
0
LINE
8
CUT
10
9.9010
20
153.8123
30
0.0
11
0.0000
21
153.8123
31
0.0
0
LINE
8
CUT
10
0.0000
20
153.8123
30
0.0
11
-0.0000
21
153.8123
31
0.0
0
LINE
8
CUT
10
-0.0000
20
153.8123
30
0.0
11
-9.9010
21
153.8123
31
0.0
0
LINE
8
CUT
10
-9.9010
20
153.8123
30
0.0
11
-19.8019
21
153.8123
31
0.0
0
LINE
8
CUT
10
-19.8019
20
153.8123
30
0.0
11
-29.7029
21
153.8123
31
0.0
0
LINE
8
CUT
10
-29.7029
20
153.8123
30
0.0
11
-39.6038
21
153.8123
31
0.0
0
LINE
8
CUT
10
-39.6038
20
153.8123
30
0.0
11
-49.5048
21
153.8123
31
0.0
0
LINE
8
CUT
10
-49.5048
20
153.8123
30
0.0
11
-59.4057
21
153.8123
31
0.0
0
LINE
8
CUT
10
-59.4057
20
153.8123
30
0.0
11
-69.3067
21
153.8123
31
0.0
0
LINE
8
CUT
10
-69.3067
20
153.8123
30
0.0
11
-79.2076
21
153.8123
31
0.0
0
LINE
8
CUT
10
-79.2076
20
153.8123
30
0.0
11
-89.1086
21
153.8123
31
0.0
0
LINE
8
CUT
10
-89.1086
20
153.8123
30
0.0
11
-99.0095
21
153.8123
31
0.0
0
LINE
8
CUT
10
-99.0095
20
153.8123
30
0.0
11
-108.9105
21
153.8123
31
0.0
0
LINE
8
CUT
10
-108.9105
20
153.8123
30
0.0
11
-118.8114
21
153.8123
31
0.0
0
LINE
8
CUT
10
-118.8114
20
153.8123
30
0.0
11
-128.7124
21
153.8123
31
0.0
0
LINE
8
CUT
10
-128.7124
20
153.8123
30
0.0
11
-138.6133
21
153.8123
31
0.0
0
LINE
8
CUT
10
-138.6133
20
153.8123
30
0.0
11
-148.5143
21
153.8123
31
0.0
0
LINE
8
CUT
10
-148.5143
20
153.8123
30
0.0
11
-158.4152
21
153.8123
31
0.0
0
LINE
8
CUT
10
-158.4152
20
153.8123
30
0.0
11
-168.3162
21
153.8123
31
0.0
0
LINE
8
CUT
10
-168.3162
20
153.8123
30
0.0
11
-178.2171
21
153.8123
31
0.0
0
LINE
8
CUT
10
-178.2171
20
153.8123
30
0.0
11
-188.1181
21
153.8123
31
0.0
0
LINE
8
CUT
10
-188.1181
20
153.8123
30
0.0
11
-198.0190
21
153.8123
31
0.0
0
LINE
8
CUT
10
-198.0190
20
153.8123
30
0.0
11
-203.2712
21
153.4300
31
0.0
0
LINE
8
CUT
10
-203.2712
20
153.4300
30
0.0
11
-208.4315
21
152.3108
31
0.0
0
LINE
8
CUT
10
-208.4315
20
152.3108
30
0.0
11
-213.4882
21
150.4959
31
0.0
0
LINE
8
CUT
10
-213.4882
20
150.4959
30
0.0
11
-218.4295
21
148.0268
31
0.0
0
LINE
8
CUT
10
-218.4295
20
148.0268
30
0.0
11
-223.2439
21
144.9449
31
0.0
0
LINE
8
CUT
10
-223.2439
20
144.9449
30
0.0
11
-227.9195
21
141.2915
31
0.0
0
LINE
8
CUT
10
-227.9195
20
141.2915
30
0.0
11
-232.4448
21
137.1080
31
0.0
0
LINE
8
CUT
10
-232.4448
20
137.1080
30
0.0
11
-236.8079
21
132.4358
31
0.0
0
LINE
8
CUT
10
-236.8079
20
132.4358
30
0.0
11
-240.9972
21
127.3163
31
0.0
0
LINE
8
CUT
10
-240.9972
20
127.3163
30
0.0
11
-245.0011
21
121.7908
31
0.0
0
LINE
8
CUT
10
-245.0011
20
121.7908
30
0.0
11
-248.8077
21
115.9007
31
0.0
0
LINE
8
CUT
10
-248.8077
20
115.9007
30
0.0
11
-252.4055
21
109.6875
31
0.0
0
LINE
8
CUT
10
-252.4055
20
109.6875
30
0.0
11
-255.7826
21
103.1924
31
0.0
0
LINE
8
CUT
10
-255.7826
20
103.1924
30
0.0
11
-258.9275
21
96.4569
31
0.0
0
LINE
8
CUT
10
-258.9275
20
96.4569
30
0.0
11
-261.8283
21
89.5223
31
0.0
0
LINE
8
CUT
10
-261.8283
20
89.5223
30
0.0
11
-264.4735
21
82.4301
31
0.0
0
LINE
8
CUT
10
-264.4735
20
82.4301
30
0.0
11
-266.8513
21
75.2215
31
0.0
0
LINE
8
CUT
10
-266.8513
20
75.2215
30
0.0
11
-268.9500
21
67.9380
31
0.0
0
LINE
8
CUT
10
-268.9500
20
67.9380
30
0.0
11
-270.7580
21
60.6210
31
0.0
0
LINE
8
CUT
10
-270.7580
20
60.6210
30
0.0
11
-272.2634
21
53.3117
31
0.0
0
LINE
8
CUT
10
-272.2634
20
53.3117
30
0.0
11
-273.4547
21
46.0517
31
0.0
0
LINE
8
CUT
10
-273.4547
20
46.0517
30
0.0
11
-274.3200
21
38.8823
31
0.0
0
LINE
8
CUT
10
-274.3200
20
38.8823
30
0.0
11
-274.8479
21
31.8448
31
0.0
0
LINE
8
CUT
10
-274.8479
20
31.8448
30
0.0
11
-275.0264
21
24.9807
31
0.0
0
LINE
8
CUT
10
-275.0264
20
24.9807
30
0.0
11
-274.8149
21
23.5435
31
0.0
0
LINE
8
CUT
10
-274.8149
20
23.5435
30
0.0
11
-274.2062
21
22.2782
31
0.0
0
LINE
8
CUT
10
-274.2062
20
22.2782
30
0.0
11
-273.2389
21
21.1560
31
0.0
0
LINE
8
CUT
10
-273.2389
20
21.1560
30
0.0
11
-271.9518
21
20.1483
31
0.0
0
LINE
8
CUT
10
-271.9518
20
20.1483
30
0.0
11
-270.3837
21
19.2264
31
0.0
0
LINE
8
CUT
10
-270.3837
20
19.2264
30
0.0
11
-268.5730
21
18.3616
31
0.0
0
LINE
8
CUT
10
-268.5730
20
18.3616
30
0.0
11
-266.5587
21
17.5251
31
0.0
0
LINE
8
CUT
10
-266.5587
20
17.5251
30
0.0
11
-264.3794
21
16.6883
31
0.0
0
LINE
8
CUT
10
-264.3794
20
16.6883
30
0.0
11
-262.0737
21
15.8226
31
0.0
0
LINE
8
CUT
10
-262.0737
20
15.8226
30
0.0
11
-259.6804
21
14.8991
31
0.0
0
LINE
8
CUT
10
-259.6804
20
14.8991
30
0.0
11
-257.2381
21
13.8892
31
0.0
0
LINE
8
CUT
10
-257.2381
20
13.8892
30
0.0
11
-254.7857
21
12.7642
31
0.0
0
LINE
8
CUT
10
-254.7857
20
12.7642
30
0.0
11
-252.3617
21
11.4954
31
0.0
0
LINE
8
CUT
10
-252.3617
20
11.4954
30
0.0
11
-250.0048
21
10.0541
31
0.0
0
LINE
8
CUT
10
-250.0048
20
10.0541
30
0.0
11
-247.7539
21
8.4117
31
0.0
0
LINE
8
CUT
10
-247.7539
20
8.4117
30
0.0
11
-245.6475
21
6.5393
31
0.0
0
LINE
8
CUT
10
-245.6475
20
6.5393
30
0.0
11
-243.7244
21
4.4084
31
0.0
0
LINE
8
CUT
10
-243.7244
20
4.4084
30
0.0
11
-242.0232
21
1.9902
31
0.0
0
LINE
8
CUT
10
-242.0232
20
1.9902
30
0.0
11
-229.2852
21
1.8314
31
0.0
0
LINE
8
CUT
10
-229.2852
20
1.8314
30
0.0
11
-216.5471
21
1.6813
31
0.0
0
LINE
8
CUT
10
-216.5471
20
1.6813
30
0.0
11
-203.8090
21
1.5397
31
0.0
0
LINE
8
CUT
10
-203.8090
20
1.5397
30
0.0
11
-191.0710
21
1.4067
31
0.0
0
LINE
8
CUT
10
-191.0710
20
1.4067
30
0.0
11
-178.3329
21
1.2823
31
0.0
0
LINE
8
CUT
10
-178.3329
20
1.2823
30
0.0
11
-165.5948
21
1.1664
31
0.0
0
LINE
8
CUT
10
-165.5948
20
1.1664
30
0.0
11
-152.8568
21
1.0592
31
0.0
0
LINE
8
CUT
10
-152.8568
20
1.0592
30
0.0
11
-140.1187
21
0.9605
31
0.0
0
LINE
8
CUT
10
-140.1187
20
0.9605
30
0.0
11
-127.3806
21
0.8704
31
0.0
0
LINE
8
CUT
10
-127.3806
20
0.8704
30
0.0
11
-114.6426
21
0.7889
31
0.0
0
LINE
8
CUT
10
-114.6426
20
0.7889
30
0.0
11
-101.9045
21
0.7160
31
0.0
0
LINE
8
CUT
10
-101.9045
20
0.7160
30
0.0
11
-89.1665
21
0.6516
31
0.0
0
LINE
8
CUT
10
-89.1665
20
0.6516
30
0.0
11
-76.4284
21
0.5958
31
0.0
0
LINE
8
CUT
10
-76.4284
20
0.5958
30
0.0
11
-63.6903
21
0.5486
31
0.0
0
LINE
8
CUT
10
-63.6903
20
0.5486
30
0.0
11
-50.9523
21
0.5100
31
0.0
0
LINE
8
CUT
10
-50.9523
20
0.5100
30
0.0
11
-38.2142
21
0.4800
31
0.0
0
LINE
8
CUT
10
-38.2142
20
0.4800
30
0.0
11
-25.4761
21
0.4585
31
0.0
0
LINE
8
CUT
10
-25.4761
20
0.4585
30
0.0
11
-12.7381
21
0.4457
31
0.0
0
LINE
8
CUT
10
-12.7381
20
0.4457
30
0.0
11
-0.0000
21
0.4414
31
0.0
0
LINE
8
CUT
10
-0.0000
20
0.4414
30
0.0
11
0.0000
21
0.4414
31
0.0
0
LINE
8
REG
10
0.0000
20
-20.0000
30
0.0
11
0.0000
21
173.8123
31
0.0
0
ENDSEC
0
EOF
