0
SECTION
2
ENTITIES
0
LINE
8
CUT
10
0.0000
20
0.0000
30
0.0
11
12.8930
21
0.0043
31
0.0
0
LINE
8
CUT
10
12.8930
20
0.0043
30
0.0
11
25.7861
21
0.0172
31
0.0
0
LINE
8
CUT
10
25.7861
20
0.0172
30
0.0
11
38.6791
21
0.0386
31
0.0
0
LINE
8
CUT
10
38.6791
20
0.0386
30
0.0
11
51.5722
21
0.0686
31
0.0
0
LINE
8
CUT
10
51.5722
20
0.0686
30
0.0
11
64.4652
21
0.1073
31
0.0
0
LINE
8
CUT
10
64.4652
20
0.1073
30
0.0
11
77.3583
21
0.1545
31
0.0
0
LINE
8
CUT
10
77.3583
20
0.1545
30
0.0
11
90.2513
21
0.2102
31
0.0
0
LINE
8
CUT
10
90.2513
20
0.2102
30
0.0
11
103.1444
21
0.2746
31
0.0
0
LINE
8
CUT
10
103.1444
20
0.2746
30
0.0
11
116.0374
21
0.3475
31
0.0
0
LINE
8
CUT
10
116.0374
20
0.3475
30
0.0
11
128.9305
21
0.4290
31
0.0
0
LINE
8
CUT
10
128.9305
20
0.4290
30
0.0
11
141.8235
21
0.5191
31
0.0
0
LINE
8
CUT
10
141.8235
20
0.5191
30
0.0
11
154.7165
21
0.6178
31
0.0
0
LINE
8
CUT
10
154.7165
20
0.6178
30
0.0
11
167.6096
21
0.7251
31
0.0
0
LINE
8
CUT
10
167.6096
20
0.7251
30
0.0
11
180.5026
21
0.8409
31
0.0
0
LINE
8
CUT
10
180.5026
20
0.8409
30
0.0
11
193.3957
21
0.9653
31
0.0
0
LINE
8
CUT
10
193.3957
20
0.9653
30
0.0
11
206.2887
21
1.0983
31
0.0
0
LINE
8
CUT
10
206.2887
20
1.0983
30
0.0
11
219.1818
21
1.2399
31
0.0
0
LINE
8
CUT
10
219.1818
20
1.2399
30
0.0
11
232.0748
21
1.3901
31
0.0
0
LINE
8
CUT
10
232.0748
20
1.3901
30
0.0
11
244.9679
21
1.5488
31
0.0
0
LINE
8
CUT
10
244.9679
20
1.5488
30
0.0
11
246.1011
21
4.2448
31
0.0
0
LINE
8
CUT
10
246.1011
20
4.2448
30
0.0
11
247.5934
21
6.5908
31
0.0
0
LINE
8
CUT
10
247.5934
20
6.5908
30
0.0
11
249.3934
21
8.6214
31
0.0
0
LINE
8
CUT
10
249.3934
20
8.6214
30
0.0
11
251.4498
21
10.3708
31
0.0
0
LINE
8
CUT
10
251.4498
20
10.3708
30
0.0
11
253.7110
21
11.8734
31
0.0
0
LINE
8
CUT
10
253.7110
20
11.8734
30
0.0
11
256.1258
21
13.1638
31
0.0
0
LINE
8
CUT
10
256.1258
20
13.1638
30
0.0
11
258.6427
21
14.2762
31
0.0
0
LINE
8
CUT
10
258.6427
20
14.2762
30
0.0
11
261.2104
21
15.2451
31
0.0
0
LINE
8
CUT
10
261.2104
20
15.2451
30
0.0
11
263.7775
21
16.1049
31
0.0
0
LINE
8
CUT
10
263.7775
20
16.1049
30
0.0
11
266.2925
21
16.8900
31
0.0
0
LINE
8
CUT
10
266.2925
20
16.8900
30
0.0
11
268.7041
21
17.6347
31
0.0
0
LINE
8
CUT
10
268.7041
20
17.6347
30
0.0
11
270.9608
21
18.3735
31
0.0
0
LINE
8
CUT
10
270.9608
20
18.3735
30
0.0
11
273.0114
21
19.1407
31
0.0
0
LINE
8
CUT
10
273.0114
20
19.1407
30
0.0
11
274.8044
21
19.9709
31
0.0
0
LINE
8
CUT
10
274.8044
20
19.9709
30
0.0
11
276.2884
21
20.8982
31
0.0
0
LINE
8
CUT
10
276.2884
20
20.8982
30
0.0
11
277.4120
21
21.9573
31
0.0
0
LINE
8
CUT
10
277.4120
20
21.9573
30
0.0
11
278.1239
21
23.1824
31
0.0
0
LINE
8
CUT
10
278.1239
20
23.1824
30
0.0
11
278.3726
21
24.6080
31
0.0
0
LINE
8
CUT
10
278.3726
20
24.6080
30
0.0
11
278.1919
21
31.4913
31
0.0
0
LINE
8
CUT
10
278.1919
20
31.4913
30
0.0
11
277.6576
21
38.5485
31
0.0
0
LINE
8
CUT
10
277.6576
20
38.5485
30
0.0
11
276.7817
21
45.7380
31
0.0
0
LINE
8
CUT
10
276.7817
20
45.7380
30
0.0
11
275.5760
21
53.0183
31
0.0
0
LINE
8
CUT
10
275.5760
20
53.0183
30
0.0
11
274.0522
21
60.3479
31
0.0
0
LINE
8
CUT
10
274.0522
20
60.3479
30
0.0
11
272.2223
21
67.6855
31
0.0
0
LINE
8
CUT
10
272.2223
20
67.6855
30
0.0
11
270.0980
21
74.9893
31
0.0
0
LINE
8
CUT
10
270.0980
20
74.9893
30
0.0
11
267.6913
21
82.2181
31
0.0
0
LINE
8
CUT
10
267.6913
20
82.2181
30
0.0
11
265.0140
21
89.3302
31
0.0
0
LINE
8
CUT
10
265.0140
20
89.3302
30
0.0
11
262.0778
21
96.2841
31
0.0
0
LINE
8
CUT
10
262.0778
20
96.2841
30
0.0
11
258.8947
21
103.0385
31
0.0
0
LINE
8
CUT
10
258.8947
20
103.0385
30
0.0
11
255.4764
21
109.5517
31
0.0
0
LINE
8
CUT
10
255.4764
20
109.5517
30
0.0
11
251.8349
21
115.7824
31
0.0
0
LINE
8
CUT
10
251.8349
20
115.7824
30
0.0
11
247.9820
21
121.6889
31
0.0
0
LINE
8
CUT
10
247.9820
20
121.6889
30
0.0
11
243.9294
21
127.2298
31
0.0
0
LINE
8
CUT
10
243.9294
20
127.2298
30
0.0
11
239.6891
21
132.3637
31
0.0
0
LINE
8
CUT
10
239.6891
20
132.3637
30
0.0
11
235.2729
21
137.0490
31
0.0
0
LINE
8
CUT
10
235.2729
20
137.0490
30
0.0
11
230.6926
21
141.2442
31
0.0
0
LINE
8
CUT
10
230.6926
20
141.2442
30
0.0
11
225.9600
21
144.9078
31
0.0
0
LINE
8
CUT
10
225.9600
20
144.9078
30
0.0
11
221.0871
21
147.9983
31
0.0
0
LINE
8
CUT
10
221.0871
20
147.9983
30
0.0
11
216.0856
21
150.4743
31
0.0
0
LINE
8
CUT
10
216.0856
20
150.4743
30
0.0
11
210.9674
21
152.2943
31
0.0
0
LINE
8
CUT
10
210.9674
20
152.2943
30
0.0
11
205.7444
21
153.4166
31
0.0
0
LINE
8
CUT
10
205.7444
20
153.4166
30
0.0
11
200.4283
21
153.8000
31
0.0
0
LINE
8
CUT
10
200.4283
20
153.8000
30
0.0
11
190.4068
21
153.8000
31
0.0
0
LINE
8
CUT
10
190.4068
20
153.8000
30
0.0
11
180.3854
21
153.8000
31
0.0
0
LINE
8
CUT
10
180.3854
20
153.8000
30
0.0
11
170.3640
21
153.8000
31
0.0
0
LINE
8
CUT
10
170.3640
20
153.8000
30
0.0
11
160.3426
21
153.8000
31
0.0
0
LINE
8
CUT
10
160.3426
20
153.8000
30
0.0
11
150.3212
21
153.8000
31
0.0
0
LINE
8
CUT
10
150.3212
20
153.8000
30
0.0
11
140.2998
21
153.8000
31
0.0
0
LINE
8
CUT
10
140.2998
20
153.8000
30
0.0
11
130.2784
21
153.8000
31
0.0
0
LINE
8
CUT
10
130.2784
20
153.8000
30
0.0
11
120.2570
21
153.8000
31
0.0
0
LINE
8
CUT
10
120.2570
20
153.8000
30
0.0
11
110.2355
21
153.8000
31
0.0
0
LINE
8
CUT
10
110.2355
20
153.8000
30
0.0
11
100.2141
21
153.8000
31
0.0
0
LINE
8
CUT
10
100.2141
20
153.8000
30
0.0
11
90.1927
21
153.8000
31
0.0
0
LINE
8
CUT
10
90.1927
20
153.8000
30
0.0
11
80.1713
21
153.8000
31
0.0
0
LINE
8
CUT
10
80.1713
20
153.8000
30
0.0
11
70.1499
21
153.8000
31
0.0
0
LINE
8
CUT
10
70.1499
20
153.8000
30
0.0
11
60.1285
21
153.8000
31
0.0
0
LINE
8
CUT
10
60.1285
20
153.8000
30
0.0
11
50.1071
21
153.8000
31
0.0
0
LINE
8
CUT
10
50.1071
20
153.8000
30
0.0
11
40.0857
21
153.8000
31
0.0
0
LINE
8
CUT
10
40.0857
20
153.8000
30
0.0
11
30.0642
21
153.8000
31
0.0
0
LINE
8
CUT
10
30.0642
20
153.8000
30
0.0
11
20.0428
21
153.8000
31
0.0
0
LINE
8
CUT
10
20.0428
20
153.8000
30
0.0
11
10.0214
21
153.8000
31
0.0
0
LINE
8
CUT
10
10.0214
20
153.8000
30
0.0
11
0.0000
21
153.8000
31
0.0
0
LINE
8
CUT
10
0.0000
20
153.8000
30
0.0
11
-0.0000
21
153.8000
31
0.0
0
LINE
8
CUT
10
-0.0000
20
153.8000
30
0.0
11
-10.0214
21
153.8000
31
0.0
0
LINE
8
CUT
10
-10.0214
20
153.8000
30
0.0
11
-20.0428
21
153.8000
31
0.0
0
LINE
8
CUT
10
-20.0428
20
153.8000
30
0.0
11
-30.0642
21
153.8000
31
0.0
0
LINE
8
CUT
10
-30.0642
20
153.8000
30
0.0
11
-40.0857
21
153.8000
31
0.0
0
LINE
8
CUT
10
-40.0857
20
153.8000
30
0.0
11
-50.1071
21
153.8000
31
0.0
0
LINE
8
CUT
10
-50.1071
20
153.8000
30
0.0
11
-60.1285
21
153.8000
31
0.0
0
LINE
8
CUT
10
-60.1285
20
153.8000
30
0.0
11
-70.1499
21
153.8000
31
0.0
0
LINE
8
CUT
10
-70.1499
20
153.8000
30
0.0
11
-80.1713
21
153.8000
31
0.0
0
LINE
8
CUT
10
-80.1713
20
153.8000
30
0.0
11
-90.1927
21
153.8000
31
0.0
0
LINE
8
CUT
10
-90.1927
20
153.8000
30
0.0
11
-100.2141
21
153.8000
31
0.0
0
LINE
8
CUT
10
-100.2141
20
153.8000
30
0.0
11
-110.2355
21
153.8000
31
0.0
0
LINE
8
CUT
10
-110.2355
20
153.8000
30
0.0
11
-120.2570
21
153.8000
31
0.0
0
LINE
8
CUT
10
-120.2570
20
153.8000
30
0.0
11
-130.2784
21
153.8000
31
0.0
0
LINE
8
CUT
10
-130.2784
20
153.8000
30
0.0
11
-140.2998
21
153.8000
31
0.0
0
LINE
8
CUT
10
-140.2998
20
153.8000
30
0.0
11
-150.3212
21
153.8000
31
0.0
0
LINE
8
CUT
10
-150.3212
20
153.8000
30
0.0
11
-160.3426
21
153.8000
31
0.0
0
LINE
8
CUT
10
-160.3426
20
153.8000
30
0.0
11
-170.3640
21
153.8000
31
0.0
0
LINE
8
CUT
10
-170.3640
20
153.8000
30
0.0
11
-180.3854
21
153.8000
31
0.0
0
LINE
8
CUT
10
-180.3854
20
153.8000
30
0.0
11
-190.4068
21
153.8000
31
0.0
0
LINE
8
CUT
10
-190.4068
20
153.8000
30
0.0
11
-200.4283
21
153.8000
31
0.0
0
LINE
8
CUT
10
-200.4283
20
153.8000
30
0.0
11
-205.7444
21
153.4166
31
0.0
0
LINE
8
CUT
10
-205.7444
20
153.4166
30
0.0
11
-210.9674
21
152.2943
31
0.0
0
LINE
8
CUT
10
-210.9674
20
152.2943
30
0.0
11
-216.0856
21
150.4743
31
0.0
0
LINE
8
CUT
10
-216.0856
20
150.4743
30
0.0
11
-221.0871
21
147.9983
31
0.0
0
LINE
8
CUT
10
-221.0871
20
147.9983
30
0.0
11
-225.9600
21
144.9078
31
0.0
0
LINE
8
CUT
10
-225.9600
20
144.9078
30
0.0
11
-230.6926
21
141.2442
31
0.0
0
LINE
8
CUT
10
-230.6926
20
141.2442
30
0.0
11
-235.2729
21
137.0490
31
0.0
0
LINE
8
CUT
10
-235.2729
20
137.0490
30
0.0
11
-239.6891
21
132.3637
31
0.0
0
LINE
8
CUT
10
-239.6891
20
132.3637
30
0.0
11
-243.9294
21
127.2298
31
0.0
0
LINE
8
CUT
10
-243.9294
20
127.2298
30
0.0
11
-247.9820
21
121.6889
31
0.0
0
LINE
8
CUT
10
-247.9820
20
121.6889
30
0.0
11
-251.8349
21
115.7824
31
0.0
0
LINE
8
CUT
10
-251.8349
20
115.7824
30
0.0
11
-255.4764
21
109.5517
31
0.0
0
LINE
8
CUT
10
-255.4764
20
109.5517
30
0.0
11
-258.8947
21
103.0385
31
0.0
0
LINE
8
CUT
10
-258.8947
20
103.0385
30
0.0
11
-262.0778
21
96.2841
31
0.0
0
LINE
8
CUT
10
-262.0778
20
96.2841
30
0.0
11
-265.0140
21
89.3302
31
0.0
0
LINE
8
CUT
10
-265.0140
20
89.3302
30
0.0
11
-267.6913
21
82.2181
31
0.0
0
LINE
8
CUT
10
-267.6913
20
82.2181
30
0.0
11
-270.0980
21
74.9893
31
0.0
0
LINE
8
CUT
10
-270.0980
20
74.9893
30
0.0
11
-272.2223
21
67.6855
31
0.0
0
LINE
8
CUT
10
-272.2223
20
67.6855
30
0.0
11
-274.0522
21
60.3479
31
0.0
0
LINE
8
CUT
10
-274.0522
20
60.3479
30
0.0
11
-275.5760
21
53.0183
31
0.0
0
LINE
8
CUT
10
-275.5760
20
53.0183
30
0.0
11
-276.7817
21
45.7380
31
0.0
0
LINE
8
CUT
10
-276.7817
20
45.7380
30
0.0
11
-277.6576
21
38.5485
31
0.0
0
LINE
8
CUT
10
-277.6576
20
38.5485
30
0.0
11
-278.1919
21
31.4913
31
0.0
0
LINE
8
CUT
10
-278.1919
20
31.4913
30
0.0
11
-278.3726
21
24.6080
31
0.0
0
LINE
8
CUT
10
-278.3726
20
24.6080
30
0.0
11
-278.1239
21
23.1824
31
0.0
0
LINE
8
CUT
10
-278.1239
20
23.1824
30
0.0
11
-277.4120
21
21.9573
31
0.0
0
LINE
8
CUT
10
-277.4120
20
21.9573
30
0.0
11
-276.2884
21
20.8982
31
0.0
0
LINE
8
CUT
10
-276.2884
20
20.8982
30
0.0
11
-274.8044
21
19.9709
31
0.0
0
LINE
8
CUT
10
-274.8044
20
19.9709
30
0.0
11
-273.0114
21
19.1407
31
0.0
0
LINE
8
CUT
10
-273.0114
20
19.1407
30
0.0
11
-270.9608
21
18.3735
31
0.0
0
LINE
8
CUT
10
-270.9608
20
18.3735
30
0.0
11
-268.7041
21
17.6347
31
0.0
0
LINE
8
CUT
10
-268.7041
20
17.6347
30
0.0
11
-266.2925
21
16.8900
31
0.0
0
LINE
8
CUT
10
-266.2925
20
16.8900
30
0.0
11
-263.7775
21
16.1049
31
0.0
0
LINE
8
CUT
10
-263.7775
20
16.1049
30
0.0
11
-261.2104
21
15.2451
31
0.0
0
LINE
8
CUT
10
-261.2104
20
15.2451
30
0.0
11
-258.6427
21
14.2762
31
0.0
0
LINE
8
CUT
10
-258.6427
20
14.2762
30
0.0
11
-256.1258
21
13.1638
31
0.0
0
LINE
8
CUT
10
-256.1258
20
13.1638
30
0.0
11
-253.7110
21
11.8734
31
0.0
0
LINE
8
CUT
10
-253.7110
20
11.8734
30
0.0
11
-251.4498
21
10.3708
31
0.0
0
LINE
8
CUT
10
-251.4498
20
10.3708
30
0.0
11
-249.3934
21
8.6214
31
0.0
0
LINE
8
CUT
10
-249.3934
20
8.6214
30
0.0
11
-247.5934
21
6.5908
31
0.0
0
LINE
8
CUT
10
-247.5934
20
6.5908
30
0.0
11
-246.1011
21
4.2448
31
0.0
0
LINE
8
CUT
10
-246.1011
20
4.2448
30
0.0
11
-244.9679
21
1.5488
31
0.0
0
LINE
8
CUT
10
-244.9679
20
1.5488
30
0.0
11
-232.0748
21
1.3901
31
0.0
0
LINE
8
CUT
10
-232.0748
20
1.3901
30
0.0
11
-219.1818
21
1.2399
31
0.0
0
LINE
8
CUT
10
-219.1818
20
1.2399
30
0.0
11
-206.2887
21
1.0983
31
0.0
0
LINE
8
CUT
10
-206.2887
20
1.0983
30
0.0
11
-193.3957
21
0.9653
31
0.0
0
LINE
8
CUT
10
-193.3957
20
0.9653
30
0.0
11
-180.5026
21
0.8409
31
0.0
0
LINE
8
CUT
10
-180.5026
20
0.8409
30
0.0
11
-167.6096
21
0.7251
31
0.0
0
LINE
8
CUT
10
-167.6096
20
0.7251
30
0.0
11
-154.7165
21
0.6178
31
0.0
0
LINE
8
CUT
10
-154.7165
20
0.6178
30
0.0
11
-141.8235
21
0.5191
31
0.0
0
LINE
8
CUT
10
-141.8235
20
0.5191
30
0.0
11
-128.9305
21
0.4290
31
0.0
0
LINE
8
CUT
10
-128.9305
20
0.4290
30
0.0
11
-116.0374
21
0.3475
31
0.0
0
LINE
8
CUT
10
-116.0374
20
0.3475
30
0.0
11
-103.1444
21
0.2746
31
0.0
0
LINE
8
CUT
10
-103.1444
20
0.2746
30
0.0
11
-90.2513
21
0.2102
31
0.0
0
LINE
8
CUT
10
-90.2513
20
0.2102
30
0.0
11
-77.3583
21
0.1545
31
0.0
0
LINE
8
CUT
10
-77.3583
20
0.1545
30
0.0
11
-64.4652
21
0.1073
31
0.0
0
LINE
8
CUT
10
-64.4652
20
0.1073
30
0.0
11
-51.5722
21
0.0686
31
0.0
0
LINE
8
CUT
10
-51.5722
20
0.0686
30
0.0
11
-38.6791
21
0.0386
31
0.0
0
LINE
8
CUT
10
-38.6791
20
0.0386
30
0.0
11
-25.7861
21
0.0172
31
0.0
0
LINE
8
CUT
10
-25.7861
20
0.0172
30
0.0
11
-12.8930
21
0.0043
31
0.0
0
LINE
8
CUT
10
-12.8930
20
0.0043
30
0.0
11
-0.0000
21
0.0000
31
0.0
0
LINE
8
CUT
10
-0.0000
20
0.0000
30
0.0
11
0.0000
21
0.0000
31
0.0
0
LINE
8
REG
10
0.0000
20
-20.0000
30
0.0
11
0.0000
21
173.8000
31
0.0
0
ENDSEC
0
EOF
