0
SECTION
2
ENTITIES
0
LINE
8
CUT
10
0.0000
20
0.0000
30
0.0
11
12.0680
21
0.0043
31
0.0
0
LINE
8
CUT
10
12.0680
20
0.0043
30
0.0
11
24.1359
21
0.0172
31
0.0
0
LINE
8
CUT
10
24.1359
20
0.0172
30
0.0
11
36.2039
21
0.0386
31
0.0
0
LINE
8
CUT
10
36.2039
20
0.0386
30
0.0
11
48.2719
21
0.0686
31
0.0
0
LINE
8
CUT
10
48.2719
20
0.0686
30
0.0
11
60.3398
21
0.1073
31
0.0
0
LINE
8
CUT
10
60.3398
20
0.1073
30
0.0
11
72.4078
21
0.1545
31
0.0
0
LINE
8
CUT
10
72.4078
20
0.1545
30
0.0
11
84.4758
21
0.2102
31
0.0
0
LINE
8
CUT
10
84.4758
20
0.2102
30
0.0
11
96.5437
21
0.2746
31
0.0
0
LINE
8
CUT
10
96.5437
20
0.2746
30
0.0
11
108.6117
21
0.3475
31
0.0
0
LINE
8
CUT
10
108.6117
20
0.3475
30
0.0
11
120.6797
21
0.4290
31
0.0
0
LINE
8
CUT
10
120.6797
20
0.4290
30
0.0
11
132.7476
21
0.5191
31
0.0
0
LINE
8
CUT
10
132.7476
20
0.5191
30
0.0
11
144.8156
21
0.6178
31
0.0
0
LINE
8
CUT
10
144.8156
20
0.6178
30
0.0
11
156.8836
21
0.7251
31
0.0
0
LINE
8
CUT
10
156.8836
20
0.7251
30
0.0
11
168.9515
21
0.8409
31
0.0
0
LINE
8
CUT
10
168.9515
20
0.8409
30
0.0
11
181.0195
21
0.9653
31
0.0
0
LINE
8
CUT
10
181.0195
20
0.9653
30
0.0
11
193.0875
21
1.0983
31
0.0
0
LINE
8
CUT
10
193.0875
20
1.0983
30
0.0
11
205.1555
21
1.2399
31
0.0
0
LINE
8
CUT
10
205.1555
20
1.2399
30
0.0
11
217.2234
21
1.3901
31
0.0
0
LINE
8
CUT
10
217.2234
20
1.3901
30
0.0
11
229.2914
21
1.5488
31
0.0
0
LINE
8
CUT
10
229.2914
20
1.5488
30
0.0
11
230.3466
21
4.0545
31
0.0
0
LINE
8
CUT
10
230.3466
20
4.0545
30
0.0
11
231.7392
21
6.2350
31
0.0
0
LINE
8
CUT
10
231.7392
20
6.2350
30
0.0
11
233.4209
21
8.1222
31
0.0
0
LINE
8
CUT
10
233.4209
20
8.1222
30
0.0
11
235.3436
21
9.7481
31
0.0
0
LINE
8
CUT
10
235.3436
20
9.7481
30
0.0
11
237.4589
21
11.1447
31
0.0
0
LINE
8
CUT
10
237.4589
20
11.1447
30
0.0
11
239.7188
21
12.3440
31
0.0
0
LINE
8
CUT
10
239.7188
20
12.3440
30
0.0
11
242.0750
21
13.3779
31
0.0
0
LINE
8
CUT
10
242.0750
20
13.3779
30
0.0
11
244.4793
21
14.2785
31
0.0
0
LINE
8
CUT
10
244.4793
20
14.2785
30
0.0
11
246.8834
21
15.0776
31
0.0
0
LINE
8
CUT
10
246.8834
20
15.0776
30
0.0
11
249.2392
21
15.8072
31
0.0
0
LINE
8
CUT
10
249.2392
20
15.8072
30
0.0
11
251.4983
21
16.4994
31
0.0
0
LINE
8
CUT
10
251.4983
20
16.4994
30
0.0
11
253.6127
21
17.1860
31
0.0
0
LINE
8
CUT
10
253.6127
20
17.1860
30
0.0
11
255.5341
21
17.8991
31
0.0
0
LINE
8
CUT
10
255.5341
20
17.8991
30
0.0
11
257.2143
21
18.6706
31
0.0
0
LINE
8
CUT
10
257.2143
20
18.6706
30
0.0
11
258.6050
21
19.5326
31
0.0
0
LINE
8
CUT
10
258.6050
20
19.5326
30
0.0
11
259.6581
21
20.5169
31
0.0
0
LINE
8
CUT
10
259.6581
20
20.5169
30
0.0
11
260.3253
21
21.6555
31
0.0
0
LINE
8
CUT
10
260.3253
20
21.6555
30
0.0
11
260.5584
21
22.9805
31
0.0
0
LINE
8
CUT
10
260.5584
20
22.9805
30
0.0
11
260.3893
21
29.4086
31
0.0
0
LINE
8
CUT
10
260.3893
20
29.4086
30
0.0
11
259.8892
21
35.9990
31
0.0
0
LINE
8
CUT
10
259.8892
20
35.9990
30
0.0
11
259.0693
21
42.7130
31
0.0
0
LINE
8
CUT
10
259.0693
20
42.7130
30
0.0
11
257.9407
21
49.5118
31
0.0
0
LINE
8
CUT
10
257.9407
20
49.5118
30
0.0
11
256.5145
21
56.3567
31
0.0
0
LINE
8
CUT
10
256.5145
20
56.3567
30
0.0
11
254.8017
21
63.2090
31
0.0
0
LINE
8
CUT
10
254.8017
20
63.2090
30
0.0
11
252.8134
21
70.0298
31
0.0
0
LINE
8
CUT
10
252.8134
20
70.0298
30
0.0
11
250.5607
21
76.7804
31
0.0
0
LINE
8
CUT
10
250.5607
20
76.7804
30
0.0
11
248.0546
21
83.4222
31
0.0
0
LINE
8
CUT
10
248.0546
20
83.4222
30
0.0
11
245.3064
21
89.9162
31
0.0
0
LINE
8
CUT
10
245.3064
20
89.9162
30
0.0
11
242.3270
21
96.2239
31
0.0
0
LINE
8
CUT
10
242.3270
20
96.2239
30
0.0
11
239.1275
21
102.3063
31
0.0
0
LINE
8
CUT
10
239.1275
20
102.3063
30
0.0
11
235.7190
21
108.1249
31
0.0
0
LINE
8
CUT
10
235.7190
20
108.1249
30
0.0
11
232.1126
21
113.6408
31
0.0
0
LINE
8
CUT
10
232.1126
20
113.6408
30
0.0
11
228.3194
21
118.8153
31
0.0
0
LINE
8
CUT
10
228.3194
20
118.8153
30
0.0
11
224.3504
21
123.6096
31
0.0
0
LINE
8
CUT
10
224.3504
20
123.6096
30
0.0
11
220.2168
21
127.9850
31
0.0
0
LINE
8
CUT
10
220.2168
20
127.9850
30
0.0
11
215.9296
21
131.9027
31
0.0
0
LINE
8
CUT
10
215.9296
20
131.9027
30
0.0
11
211.4999
21
135.3240
31
0.0
0
LINE
8
CUT
10
211.4999
20
135.3240
30
0.0
11
206.9389
21
138.2102
31
0.0
0
LINE
8
CUT
10
206.9389
20
138.2102
30
0.0
11
202.2574
21
140.5224
31
0.0
0
LINE
8
CUT
10
202.2574
20
140.5224
30
0.0
11
197.4668
21
142.2220
31
0.0
0
LINE
8
CUT
10
197.4668
20
142.2220
30
0.0
11
192.5779
21
143.2702
31
0.0
0
LINE
8
CUT
10
192.5779
20
143.2702
30
0.0
11
187.6020
21
143.6282
31
0.0
0
LINE
8
CUT
10
187.6020
20
143.6282
30
0.0
11
178.2219
21
143.6282
31
0.0
0
LINE
8
CUT
10
178.2219
20
143.6282
30
0.0
11
168.8418
21
143.6282
31
0.0
0
LINE
8
CUT
10
168.8418
20
143.6282
30
0.0
11
159.4617
21
143.6282
31
0.0
0
LINE
8
CUT
10
159.4617
20
143.6282
30
0.0
11
150.0816
21
143.6282
31
0.0
0
LINE
8
CUT
10
150.0816
20
143.6282
30
0.0
11
140.7015
21
143.6282
31
0.0
0
LINE
8
CUT
10
140.7015
20
143.6282
30
0.0
11
131.3214
21
143.6282
31
0.0
0
LINE
8
CUT
10
131.3214
20
143.6282
30
0.0
11
121.9413
21
143.6282
31
0.0
0
LINE
8
CUT
10
121.9413
20
143.6282
30
0.0
11
112.5612
21
143.6282
31
0.0
0
LINE
8
CUT
10
112.5612
20
143.6282
30
0.0
11
103.1811
21
143.6282
31
0.0
0
LINE
8
CUT
10
103.1811
20
143.6282
30
0.0
11
93.8010
21
143.6282
31
0.0
0
LINE
8
CUT
10
93.8010
20
143.6282
30
0.0
11
84.4209
21
143.6282
31
0.0
0
LINE
8
CUT
10
84.4209
20
143.6282
30
0.0
11
75.0408
21
143.6282
31
0.0
0
LINE
8
CUT
10
75.0408
20
143.6282
30
0.0
11
65.6607
21
143.6282
31
0.0
0
LINE
8
CUT
10
65.6607
20
143.6282
30
0.0
11
56.2806
21
143.6282
31
0.0
0
LINE
8
CUT
10
56.2806
20
143.6282
30
0.0
11
46.9005
21
143.6282
31
0.0
0
LINE
8
CUT
10
46.9005
20
143.6282
30
0.0
11
37.5204
21
143.6282
31
0.0
0
LINE
8
CUT
10
37.5204
20
143.6282
30
0.0
11
28.1403
21
143.6282
31
0.0
0
LINE
8
CUT
10
28.1403
20
143.6282
30
0.0
11
18.7602
21
143.6282
31
0.0
0
LINE
8
CUT
10
18.7602
20
143.6282
30
0.0
11
9.3801
21
143.6282
31
0.0
0
LINE
8
CUT
10
9.3801
20
143.6282
30
0.0
11
0.0000
21
143.6282
31
0.0
0
LINE
8
CUT
10
0.0000
20
143.6282
30
0.0
11
-0.0000
21
143.6282
31
0.0
0
LINE
8
CUT
10
-0.0000
20
143.6282
30
0.0
11
-9.3801
21
143.6282
31
0.0
0
LINE
8
CUT
10
-9.3801
20
143.6282
30
0.0
11
-18.7602
21
143.6282
31
0.0
0
LINE
8
CUT
10
-18.7602
20
143.6282
30
0.0
11
-28.1403
21
143.6282
31
0.0
0
LINE
8
CUT
10
-28.1403
20
143.6282
30
0.0
11
-37.5204
21
143.6282
31
0.0
0
LINE
8
CUT
10
-37.5204
20
143.6282
30
0.0
11
-46.9005
21
143.6282
31
0.0
0
LINE
8
CUT
10
-46.9005
20
143.6282
30
0.0
11
-56.2806
21
143.6282
31
0.0
0
LINE
8
CUT
10
-56.2806
20
143.6282
30
0.0
11
-65.6607
21
143.6282
31
0.0
0
LINE
8
CUT
10
-65.6607
20
143.6282
30
0.0
11
-75.0408
21
143.6282
31
0.0
0
LINE
8
CUT
10
-75.0408
20
143.6282
30
0.0
11
-84.4209
21
143.6282
31
0.0
0
LINE
8
CUT
10
-84.4209
20
143.6282
30
0.0
11
-93.8010
21
143.6282
31
0.0
0
LINE
8
CUT
10
-93.8010
20
143.6282
30
0.0
11
-103.1811
21
143.6282
31
0.0
0
LINE
8
CUT
10
-103.1811
20
143.6282
30
0.0
11
-112.5612
21
143.6282
31
0.0
0
LINE
8
CUT
10
-112.5612
20
143.6282
30
0.0
11
-121.9413
21
143.6282
31
0.0
0
LINE
8
CUT
10
-121.9413
20
143.6282
30
0.0
11
-131.3214
21
143.6282
31
0.0
0
LINE
8
CUT
10
-131.3214
20
143.6282
30
0.0
11
-140.7015
21
143.6282
31
0.0
0
LINE
8
CUT
10
-140.7015
20
143.6282
30
0.0
11
-150.0816
21
143.6282
31
0.0
0
LINE
8
CUT
10
-150.0816
20
143.6282
30
0.0
11
-159.4617
21
143.6282
31
0.0
0
LINE
8
CUT
10
-159.4617
20
143.6282
30
0.0
11
-168.8418
21
143.6282
31
0.0
0
LINE
8
CUT
10
-168.8418
20
143.6282
30
0.0
11
-178.2219
21
143.6282
31
0.0
0
LINE
8
CUT
10
-178.2219
20
143.6282
30
0.0
11
-187.6020
21
143.6282
31
0.0
0
LINE
8
CUT
10
-187.6020
20
143.6282
30
0.0
11
-192.5779
21
143.2702
31
0.0
0
LINE
8
CUT
10
-192.5779
20
143.2702
30
0.0
11
-197.4668
21
142.2220
31
0.0
0
LINE
8
CUT
10
-197.4668
20
142.2220
30
0.0
11
-202.2574
21
140.5224
31
0.0
0
LINE
8
CUT
10
-202.2574
20
140.5224
30
0.0
11
-206.9389
21
138.2102
31
0.0
0
LINE
8
CUT
10
-206.9389
20
138.2102
30
0.0
11
-211.4999
21
135.3240
31
0.0
0
LINE
8
CUT
10
-211.4999
20
135.3240
30
0.0
11
-215.9296
21
131.9027
31
0.0
0
LINE
8
CUT
10
-215.9296
20
131.9027
30
0.0
11
-220.2168
21
127.9850
31
0.0
0
LINE
8
CUT
10
-220.2168
20
127.9850
30
0.0
11
-224.3504
21
123.6096
31
0.0
0
LINE
8
CUT
10
-224.3504
20
123.6096
30
0.0
11
-228.3194
21
118.8153
31
0.0
0
LINE
8
CUT
10
-228.3194
20
118.8153
30
0.0
11
-232.1126
21
113.6408
31
0.0
0
LINE
8
CUT
10
-232.1126
20
113.6408
30
0.0
11
-235.7190
21
108.1249
31
0.0
0
LINE
8
CUT
10
-235.7190
20
108.1249
30
0.0
11
-239.1275
21
102.3063
31
0.0
0
LINE
8
CUT
10
-239.1275
20
102.3063
30
0.0
11
-242.3270
21
96.2239
31
0.0
0
LINE
8
CUT
10
-242.3270
20
96.2239
30
0.0
11
-245.3064
21
89.9162
31
0.0
0
LINE
8
CUT
10
-245.3064
20
89.9162
30
0.0
11
-248.0546
21
83.4222
31
0.0
0
LINE
8
CUT
10
-248.0546
20
83.4222
30
0.0
11
-250.5607
21
76.7804
31
0.0
0
LINE
8
CUT
10
-250.5607
20
76.7804
30
0.0
11
-252.8134
21
70.0298
31
0.0
0
LINE
8
CUT
10
-252.8134
20
70.0298
30
0.0
11
-254.8017
21
63.2090
31
0.0
0
LINE
8
CUT
10
-254.8017
20
63.2090
30
0.0
11
-256.5145
21
56.3567
31
0.0
0
LINE
8
CUT
10
-256.5145
20
56.3567
30
0.0
11
-257.9407
21
49.5118
31
0.0
0
LINE
8
CUT
10
-257.9407
20
49.5118
30
0.0
11
-259.0693
21
42.7130
31
0.0
0
LINE
8
CUT
10
-259.0693
20
42.7130
30
0.0
11
-259.8892
21
35.9990
31
0.0
0
LINE
8
CUT
10
-259.8892
20
35.9990
30
0.0
11
-260.3893
21
29.4086
31
0.0
0
LINE
8
CUT
10
-260.3893
20
29.4086
30
0.0
11
-260.5584
21
22.9805
31
0.0
0
LINE
8
CUT
10
-260.5584
20
22.9805
30
0.0
11
-260.3253
21
21.6555
31
0.0
0
LINE
8
CUT
10
-260.3253
20
21.6555
30
0.0
11
-259.6581
21
20.5169
31
0.0
0
LINE
8
CUT
10
-259.6581
20
20.5169
30
0.0
11
-258.6050
21
19.5326
31
0.0
0
LINE
8
CUT
10
-258.6050
20
19.5326
30
0.0
11
-257.2143
21
18.6706
31
0.0
0
LINE
8
CUT
10
-257.2143
20
18.6706
30
0.0
11
-255.5341
21
17.8991
31
0.0
0
LINE
8
CUT
10
-255.5341
20
17.8991
30
0.0
11
-253.6127
21
17.1860
31
0.0
0
LINE
8
CUT
10
-253.6127
20
17.1860
30
0.0
11
-251.4983
21
16.4994
31
0.0
0
LINE
8
CUT
10
-251.4983
20
16.4994
30
0.0
11
-249.2392
21
15.8072
31
0.0
0
LINE
8
CUT
10
-249.2392
20
15.8072
30
0.0
11
-246.8834
21
15.0776
31
0.0
0
LINE
8
CUT
10
-246.8834
20
15.0776
30
0.0
11
-244.4793
21
14.2785
31
0.0
0
LINE
8
CUT
10
-244.4793
20
14.2785
30
0.0
11
-242.0750
21
13.3779
31
0.0
0
LINE
8
CUT
10
-242.0750
20
13.3779
30
0.0
11
-239.7188
21
12.3440
31
0.0
0
LINE
8
CUT
10
-239.7188
20
12.3440
30
0.0
11
-237.4589
21
11.1447
31
0.0
0
LINE
8
CUT
10
-237.4589
20
11.1447
30
0.0
11
-235.3436
21
9.7481
31
0.0
0
LINE
8
CUT
10
-235.3436
20
9.7481
30
0.0
11
-233.4209
21
8.1222
31
0.0
0
LINE
8
CUT
10
-233.4209
20
8.1222
30
0.0
11
-231.7392
21
6.2350
31
0.0
0
LINE
8
CUT
10
-231.7392
20
6.2350
30
0.0
11
-230.3466
21
4.0545
31
0.0
0
LINE
8
CUT
10
-230.3466
20
4.0545
30
0.0
11
-229.2914
21
1.5488
31
0.0
0
LINE
8
CUT
10
-229.2914
20
1.5488
30
0.0
11
-217.2234
21
1.3901
31
0.0
0
LINE
8
CUT
10
-217.2234
20
1.3901
30
0.0
11
-205.1555
21
1.2399
31
0.0
0
LINE
8
CUT
10
-205.1555
20
1.2399
30
0.0
11
-193.0875
21
1.0983
31
0.0
0
LINE
8
CUT
10
-193.0875
20
1.0983
30
0.0
11
-181.0195
21
0.9653
31
0.0
0
LINE
8
CUT
10
-181.0195
20
0.9653
30
0.0
11
-168.9515
21
0.8409
31
0.0
0
LINE
8
CUT
10
-168.9515
20
0.8409
30
0.0
11
-156.8836
21
0.7251
31
0.0
0
LINE
8
CUT
10
-156.8836
20
0.7251
30
0.0
11
-144.8156
21
0.6178
31
0.0
0
LINE
8
CUT
10
-144.8156
20
0.6178
30
0.0
11
-132.7476
21
0.5191
31
0.0
0
LINE
8
CUT
10
-132.7476
20
0.5191
30
0.0
11
-120.6797
21
0.4290
31
0.0
0
LINE
8
CUT
10
-120.6797
20
0.4290
30
0.0
11
-108.6117
21
0.3475
31
0.0
0
LINE
8
CUT
10
-108.6117
20
0.3475
30
0.0
11
-96.5437
21
0.2746
31
0.0
0
LINE
8
CUT
10
-96.5437
20
0.2746
30
0.0
11
-84.4758
21
0.2102
31
0.0
0
LINE
8
CUT
10
-84.4758
20
0.2102
30
0.0
11
-72.4078
21
0.1545
31
0.0
0
LINE
8
CUT
10
-72.4078
20
0.1545
30
0.0
11
-60.3398
21
0.1073
31
0.0
0
LINE
8
CUT
10
-60.3398
20
0.1073
30
0.0
11
-48.2719
21
0.0686
31
0.0
0
LINE
8
CUT
10
-48.2719
20
0.0686
30
0.0
11
-36.2039
21
0.0386
31
0.0
0
LINE
8
CUT
10
-36.2039
20
0.0386
30
0.0
11
-24.1359
21
0.0172
31
0.0
0
LINE
8
CUT
10
-24.1359
20
0.0172
30
0.0
11
-12.0680
21
0.0043
31
0.0
0
LINE
8
CUT
10
-12.0680
20
0.0043
30
0.0
11
-0.0000
21
0.0000
31
0.0
0
LINE
8
CUT
10
-0.0000
20
0.0000
30
0.0
11
0.0000
21
0.0000
31
0.0
0
LINE
8
REG
10
0.0000
20
-20.0000
30
0.0
11
0.0000
21
163.6282
31
0.0
0
ENDSEC
0
EOF
