0
SECTION
2
ENTITIES
0
LINE
8
CUT
10
0.0000
20
12.5205
30
0.0
11
11.6947
21
12.5248
31
0.0
0
LINE
8
CUT
10
11.6947
20
12.5248
30
0.0
11
23.3894
21
12.5376
31
0.0
0
LINE
8
CUT
10
23.3894
20
12.5376
30
0.0
11
35.0841
21
12.5591
31
0.0
0
LINE
8
CUT
10
35.0841
20
12.5591
30
0.0
11
46.7788
21
12.5891
31
0.0
0
LINE
8
CUT
10
46.7788
20
12.5891
30
0.0
11
58.4735
21
12.6277
31
0.0
0
LINE
8
CUT
10
58.4735
20
12.6277
30
0.0
11
70.1682
21
12.6749
31
0.0
0
LINE
8
CUT
10
70.1682
20
12.6749
30
0.0
11
81.8629
21
12.7307
31
0.0
0
LINE
8
CUT
10
81.8629
20
12.7307
30
0.0
11
93.5575
21
12.7950
31
0.0
0
LINE
8
CUT
10
93.5575
20
12.7950
30
0.0
11
105.2522
21
12.8680
31
0.0
0
LINE
8
CUT
10
105.2522
20
12.8680
30
0.0
11
116.9469
21
12.9495
31
0.0
0
LINE
8
CUT
10
116.9469
20
12.9495
30
0.0
11
128.6416
21
13.0396
31
0.0
0
LINE
8
CUT
10
128.6416
20
13.0396
30
0.0
11
140.3363
21
13.1383
31
0.0
0
LINE
8
CUT
10
140.3363
20
13.1383
30
0.0
11
152.0310
21
13.2455
31
0.0
0
LINE
8
CUT
10
152.0310
20
13.2455
30
0.0
11
163.7257
21
13.3614
31
0.0
0
LINE
8
CUT
10
163.7257
20
13.3614
30
0.0
11
175.4204
21
13.4858
31
0.0
0
LINE
8
CUT
10
175.4204
20
13.4858
30
0.0
11
187.1151
21
13.6188
31
0.0
0
LINE
8
CUT
10
187.1151
20
13.6188
30
0.0
11
198.8098
21
13.7604
31
0.0
0
LINE
8
CUT
10
198.8098
20
13.7604
30
0.0
11
210.5045
21
13.9105
31
0.0
0
LINE
8
CUT
10
210.5045
20
13.9105
30
0.0
11
222.1992
21
14.0693
31
0.0
0
LINE
8
CUT
10
222.1992
20
14.0693
30
0.0
11
224.8600
21
14.6385
31
0.0
0
LINE
8
CUT
10
224.8600
20
14.6385
30
0.0
11
227.4736
21
15.3100
31
0.0
0
LINE
8
CUT
10
227.4736
20
15.3100
30
0.0
11
230.0272
21
16.0767
31
0.0
0
LINE
8
CUT
10
230.0272
20
16.0767
30
0.0
11
232.5083
21
16.9317
31
0.0
0
LINE
8
CUT
10
232.5083
20
16.9317
30
0.0
11
234.9041
21
17.8679
31
0.0
0
LINE
8
CUT
10
234.9041
20
17.8679
30
0.0
11
237.2018
21
18.8782
31
0.0
0
LINE
8
CUT
10
237.2018
20
18.8782
30
0.0
11
239.3887
21
19.9557
31
0.0
0
LINE
8
CUT
10
239.3887
20
19.9557
30
0.0
11
241.4522
21
21.0932
31
0.0
0
LINE
8
CUT
10
241.4522
20
21.0932
30
0.0
11
243.3794
21
22.2837
31
0.0
0
LINE
8
CUT
10
243.3794
20
22.2837
30
0.0
11
245.1578
21
23.5203
31
0.0
0
LINE
8
CUT
10
245.1578
20
23.5203
30
0.0
11
246.7746
21
24.7958
31
0.0
0
LINE
8
CUT
10
246.7746
20
24.7958
30
0.0
11
248.2171
21
26.1032
31
0.0
0
LINE
8
CUT
10
248.2171
20
26.1032
30
0.0
11
249.4725
21
27.4355
31
0.0
0
LINE
8
CUT
10
249.4725
20
27.4355
30
0.0
11
250.5281
21
28.7856
31
0.0
0
LINE
8
CUT
10
250.5281
20
28.7856
30
0.0
11
251.3713
21
30.1466
31
0.0
0
LINE
8
CUT
10
251.3713
20
30.1466
30
0.0
11
251.9894
21
31.5113
31
0.0
0
LINE
8
CUT
10
251.9894
20
31.5113
30
0.0
11
252.3695
21
32.8728
31
0.0
0
LINE
8
CUT
10
252.3695
20
32.8728
30
0.0
11
252.4991
21
34.2239
31
0.0
0
LINE
8
CUT
10
252.4991
20
34.2239
30
0.0
11
252.3351
21
40.2948
31
0.0
0
LINE
8
CUT
10
252.3351
20
40.2948
30
0.0
11
251.8506
21
46.5189
31
0.0
0
LINE
8
CUT
10
251.8506
20
46.5189
30
0.0
11
251.0561
21
52.8598
31
0.0
0
LINE
8
CUT
10
251.0561
20
52.8598
30
0.0
11
249.9624
21
59.2808
31
0.0
0
LINE
8
CUT
10
249.9624
20
59.2808
30
0.0
11
248.5802
21
65.7453
31
0.0
0
LINE
8
CUT
10
248.5802
20
65.7453
30
0.0
11
246.9204
21
72.2168
31
0.0
0
LINE
8
CUT
10
246.9204
20
72.2168
30
0.0
11
244.9936
21
78.6586
31
0.0
0
LINE
8
CUT
10
244.9936
20
78.6586
30
0.0
11
242.8106
21
85.0341
31
0.0
0
LINE
8
CUT
10
242.8106
20
85.0341
30
0.0
11
240.3821
21
91.3067
31
0.0
0
LINE
8
CUT
10
240.3821
20
91.3067
30
0.0
11
237.7188
21
97.4399
31
0.0
0
LINE
8
CUT
10
237.7188
20
97.4399
30
0.0
11
234.8315
21
103.3970
31
0.0
0
LINE
8
CUT
10
234.8315
20
103.3970
30
0.0
11
231.7310
21
109.1414
31
0.0
0
LINE
8
CUT
10
231.7310
20
109.1414
30
0.0
11
228.4280
21
114.6367
31
0.0
0
LINE
8
CUT
10
228.4280
20
114.6367
30
0.0
11
224.9331
21
119.8460
31
0.0
0
LINE
8
CUT
10
224.9331
20
119.8460
30
0.0
11
221.2572
21
124.7329
31
0.0
0
LINE
8
CUT
10
221.2572
20
124.7329
30
0.0
11
217.4110
21
129.2608
31
0.0
0
LINE
8
CUT
10
217.4110
20
129.2608
30
0.0
11
213.4053
21
133.3931
31
0.0
0
LINE
8
CUT
10
213.4053
20
133.3931
30
0.0
11
209.2507
21
137.0931
31
0.0
0
LINE
8
CUT
10
209.2507
20
137.0931
30
0.0
11
204.9580
21
140.3243
31
0.0
0
LINE
8
CUT
10
204.9580
20
140.3243
30
0.0
11
200.5380
21
143.0500
31
0.0
0
LINE
8
CUT
10
200.5380
20
143.0500
30
0.0
11
196.0014
21
145.2338
31
0.0
0
LINE
8
CUT
10
196.0014
20
145.2338
30
0.0
11
191.3589
21
146.8389
31
0.0
0
LINE
8
CUT
10
191.3589
20
146.8389
30
0.0
11
186.6213
21
147.8288
31
0.0
0
LINE
8
CUT
10
186.6213
20
147.8288
30
0.0
11
181.7993
21
148.1669
31
0.0
0
LINE
8
CUT
10
181.7993
20
148.1669
30
0.0
11
172.7094
21
148.1669
31
0.0
0
LINE
8
CUT
10
172.7094
20
148.1669
30
0.0
11
163.6194
21
148.1669
31
0.0
0
LINE
8
CUT
10
163.6194
20
148.1669
30
0.0
11
154.5294
21
148.1669
31
0.0
0
LINE
8
CUT
10
154.5294
20
148.1669
30
0.0
11
145.4395
21
148.1669
31
0.0
0
LINE
8
CUT
10
145.4395
20
148.1669
30
0.0
11
136.3495
21
148.1669
31
0.0
0
LINE
8
CUT
10
136.3495
20
148.1669
30
0.0
11
127.2595
21
148.1669
31
0.0
0
LINE
8
CUT
10
127.2595
20
148.1669
30
0.0
11
118.1696
21
148.1669
31
0.0
0
LINE
8
CUT
10
118.1696
20
148.1669
30
0.0
11
109.0796
21
148.1669
31
0.0
0
LINE
8
CUT
10
109.0796
20
148.1669
30
0.0
11
99.9896
21
148.1669
31
0.0
0
LINE
8
CUT
10
99.9896
20
148.1669
30
0.0
11
90.8997
21
148.1669
31
0.0
0
LINE
8
CUT
10
90.8997
20
148.1669
30
0.0
11
81.8097
21
148.1669
31
0.0
0
LINE
8
CUT
10
81.8097
20
148.1669
30
0.0
11
72.7197
21
148.1669
31
0.0
0
LINE
8
CUT
10
72.7197
20
148.1669
30
0.0
11
63.6298
21
148.1669
31
0.0
0
LINE
8
CUT
10
63.6298
20
148.1669
30
0.0
11
54.5398
21
148.1669
31
0.0
0
LINE
8
CUT
10
54.5398
20
148.1669
30
0.0
11
45.4498
21
148.1669
31
0.0
0
LINE
8
CUT
10
45.4498
20
148.1669
30
0.0
11
36.3599
21
148.1669
31
0.0
0
LINE
8
CUT
10
36.3599
20
148.1669
30
0.0
11
27.2699
21
148.1669
31
0.0
0
LINE
8
CUT
10
27.2699
20
148.1669
30
0.0
11
18.1799
21
148.1669
31
0.0
0
LINE
8
CUT
10
18.1799
20
148.1669
30
0.0
11
9.0900
21
148.1669
31
0.0
0
LINE
8
CUT
10
9.0900
20
148.1669
30
0.0
11
0.0000
21
148.1669
31
0.0
0
LINE
8
CUT
10
0.0000
20
148.1669
30
0.0
11
-0.0000
21
148.1669
31
0.0
0
LINE
8
CUT
10
-0.0000
20
148.1669
30
0.0
11
-9.0900
21
148.1669
31
0.0
0
LINE
8
CUT
10
-9.0900
20
148.1669
30
0.0
11
-18.1799
21
148.1669
31
0.0
0
LINE
8
CUT
10
-18.1799
20
148.1669
30
0.0
11
-27.2699
21
148.1669
31
0.0
0
LINE
8
CUT
10
-27.2699
20
148.1669
30
0.0
11
-36.3599
21
148.1669
31
0.0
0
LINE
8
CUT
10
-36.3599
20
148.1669
30
0.0
11
-45.4498
21
148.1669
31
0.0
0
LINE
8
CUT
10
-45.4498
20
148.1669
30
0.0
11
-54.5398
21
148.1669
31
0.0
0
LINE
8
CUT
10
-54.5398
20
148.1669
30
0.0
11
-63.6298
21
148.1669
31
0.0
0
LINE
8
CUT
10
-63.6298
20
148.1669
30
0.0
11
-72.7197
21
148.1669
31
0.0
0
LINE
8
CUT
10
-72.7197
20
148.1669
30
0.0
11
-81.8097
21
148.1669
31
0.0
0
LINE
8
CUT
10
-81.8097
20
148.1669
30
0.0
11
-90.8997
21
148.1669
31
0.0
0
LINE
8
CUT
10
-90.8997
20
148.1669
30
0.0
11
-99.9896
21
148.1669
31
0.0
0
LINE
8
CUT
10
-99.9896
20
148.1669
30
0.0
11
-109.0796
21
148.1669
31
0.0
0
LINE
8
CUT
10
-109.0796
20
148.1669
30
0.0
11
-118.1696
21
148.1669
31
0.0
0
LINE
8
CUT
10
-118.1696
20
148.1669
30
0.0
11
-127.2595
21
148.1669
31
0.0
0
LINE
8
CUT
10
-127.2595
20
148.1669
30
0.0
11
-136.3495
21
148.1669
31
0.0
0
LINE
8
CUT
10
-136.3495
20
148.1669
30
0.0
11
-145.4395
21
148.1669
31
0.0
0
LINE
8
CUT
10
-145.4395
20
148.1669
30
0.0
11
-154.5294
21
148.1669
31
0.0
0
LINE
8
CUT
10
-154.5294
20
148.1669
30
0.0
11
-163.6194
21
148.1669
31
0.0
0
LINE
8
CUT
10
-163.6194
20
148.1669
30
0.0
11
-172.7094
21
148.1669
31
0.0
0
LINE
8
CUT
10
-172.7094
20
148.1669
30
0.0
11
-181.7993
21
148.1669
31
0.0
0
LINE
8
CUT
10
-181.7993
20
148.1669
30
0.0
11
-186.6213
21
147.8288
31
0.0
0
LINE
8
CUT
10
-186.6213
20
147.8288
30
0.0
11
-191.3589
21
146.8389
31
0.0
0
LINE
8
CUT
10
-191.3589
20
146.8389
30
0.0
11
-196.0014
21
145.2338
31
0.0
0
LINE
8
CUT
10
-196.0014
20
145.2338
30
0.0
11
-200.5380
21
143.0500
31
0.0
0
LINE
8
CUT
10
-200.5380
20
143.0500
30
0.0
11
-204.9580
21
140.3243
31
0.0
0
LINE
8
CUT
10
-204.9580
20
140.3243
30
0.0
11
-209.2507
21
137.0931
31
0.0
0
LINE
8
CUT
10
-209.2507
20
137.0931
30
0.0
11
-213.4053
21
133.3931
31
0.0
0
LINE
8
CUT
10
-213.4053
20
133.3931
30
0.0
11
-217.4110
21
129.2608
31
0.0
0
LINE
8
CUT
10
-217.4110
20
129.2608
30
0.0
11
-221.2572
21
124.7329
31
0.0
0
LINE
8
CUT
10
-221.2572
20
124.7329
30
0.0
11
-224.9331
21
119.8460
31
0.0
0
LINE
8
CUT
10
-224.9331
20
119.8460
30
0.0
11
-228.4280
21
114.6367
31
0.0
0
LINE
8
CUT
10
-228.4280
20
114.6367
30
0.0
11
-231.7310
21
109.1414
31
0.0
0
LINE
8
CUT
10
-231.7310
20
109.1414
30
0.0
11
-234.8315
21
103.3970
31
0.0
0
LINE
8
CUT
10
-234.8315
20
103.3970
30
0.0
11
-237.7188
21
97.4399
31
0.0
0
LINE
8
CUT
10
-237.7188
20
97.4399
30
0.0
11
-240.3821
21
91.3067
31
0.0
0
LINE
8
CUT
10
-240.3821
20
91.3067
30
0.0
11
-242.8106
21
85.0341
31
0.0
0
LINE
8
CUT
10
-242.8106
20
85.0341
30
0.0
11
-244.9936
21
78.6586
31
0.0
0
LINE
8
CUT
10
-244.9936
20
78.6586
30
0.0
11
-246.9204
21
72.2168
31
0.0
0
LINE
8
CUT
10
-246.9204
20
72.2168
30
0.0
11
-248.5802
21
65.7453
31
0.0
0
LINE
8
CUT
10
-248.5802
20
65.7453
30
0.0
11
-249.9624
21
59.2808
31
0.0
0
LINE
8
CUT
10
-249.9624
20
59.2808
30
0.0
11
-251.0561
21
52.8598
31
0.0
0
LINE
8
CUT
10
-251.0561
20
52.8598
30
0.0
11
-251.8506
21
46.5189
31
0.0
0
LINE
8
CUT
10
-251.8506
20
46.5189
30
0.0
11
-252.3351
21
40.2948
31
0.0
0
LINE
8
CUT
10
-252.3351
20
40.2948
30
0.0
11
-252.4991
21
34.2239
31
0.0
0
LINE
8
CUT
10
-252.4991
20
34.2239
30
0.0
11
-252.3695
21
32.8728
31
0.0
0
LINE
8
CUT
10
-252.3695
20
32.8728
30
0.0
11
-251.9894
21
31.5113
31
0.0
0
LINE
8
CUT
10
-251.9894
20
31.5113
30
0.0
11
-251.3713
21
30.1466
31
0.0
0
LINE
8
CUT
10
-251.3713
20
30.1466
30
0.0
11
-250.5281
21
28.7856
31
0.0
0
LINE
8
CUT
10
-250.5281
20
28.7856
30
0.0
11
-249.4725
21
27.4355
31
0.0
0
LINE
8
CUT
10
-249.4725
20
27.4355
30
0.0
11
-248.2171
21
26.1032
31
0.0
0
LINE
8
CUT
10
-248.2171
20
26.1032
30
0.0
11
-246.7746
21
24.7958
31
0.0
0
LINE
8
CUT
10
-246.7746
20
24.7958
30
0.0
11
-245.1578
21
23.5203
31
0.0
0
LINE
8
CUT
10
-245.1578
20
23.5203
30
0.0
11
-243.3794
21
22.2837
31
0.0
0
LINE
8
CUT
10
-243.3794
20
22.2837
30
0.0
11
-241.4522
21
21.0932
31
0.0
0
LINE
8
CUT
10
-241.4522
20
21.0932
30
0.0
11
-239.3887
21
19.9557
31
0.0
0
LINE
8
CUT
10
-239.3887
20
19.9557
30
0.0
11
-237.2018
21
18.8782
31
0.0
0
LINE
8
CUT
10
-237.2018
20
18.8782
30
0.0
11
-234.9041
21
17.8679
31
0.0
0
LINE
8
CUT
10
-234.9041
20
17.8679
30
0.0
11
-232.5083
21
16.9317
31
0.0
0
LINE
8
CUT
10
-232.5083
20
16.9317
30
0.0
11
-230.0272
21
16.0767
31
0.0
0
LINE
8
CUT
10
-230.0272
20
16.0767
30
0.0
11
-227.4736
21
15.3100
31
0.0
0
LINE
8
CUT
10
-227.4736
20
15.3100
30
0.0
11
-224.8600
21
14.6385
31
0.0
0
LINE
8
CUT
10
-224.8600
20
14.6385
30
0.0
11
-222.1992
21
14.0693
31
0.0
0
LINE
8
CUT
10
-222.1992
20
14.0693
30
0.0
11
-210.5045
21
13.9105
31
0.0
0
LINE
8
CUT
10
-210.5045
20
13.9105
30
0.0
11
-198.8098
21
13.7604
31
0.0
0
LINE
8
CUT
10
-198.8098
20
13.7604
30
0.0
11
-187.1151
21
13.6188
31
0.0
0
LINE
8
CUT
10
-187.1151
20
13.6188
30
0.0
11
-175.4204
21
13.4858
31
0.0
0
LINE
8
CUT
10
-175.4204
20
13.4858
30
0.0
11
-163.7257
21
13.3614
31
0.0
0
LINE
8
CUT
10
-163.7257
20
13.3614
30
0.0
11
-152.0310
21
13.2455
31
0.0
0
LINE
8
CUT
10
-152.0310
20
13.2455
30
0.0
11
-140.3363
21
13.1383
31
0.0
0
LINE
8
CUT
10
-140.3363
20
13.1383
30
0.0
11
-128.6416
21
13.0396
31
0.0
0
LINE
8
CUT
10
-128.6416
20
13.0396
30
0.0
11
-116.9469
21
12.9495
31
0.0
0
LINE
8
CUT
10
-116.9469
20
12.9495
30
0.0
11
-105.2522
21
12.8680
31
0.0
0
LINE
8
CUT
10
-105.2522
20
12.8680
30
0.0
11
-93.5575
21
12.7950
31
0.0
0
LINE
8
CUT
10
-93.5575
20
12.7950
30
0.0
11
-81.8629
21
12.7307
31
0.0
0
LINE
8
CUT
10
-81.8629
20
12.7307
30
0.0
11
-70.1682
21
12.6749
31
0.0
0
LINE
8
CUT
10
-70.1682
20
12.6749
30
0.0
11
-58.4735
21
12.6277
31
0.0
0
LINE
8
CUT
10
-58.4735
20
12.6277
30
0.0
11
-46.7788
21
12.5891
31
0.0
0
LINE
8
CUT
10
-46.7788
20
12.5891
30
0.0
11
-35.0841
21
12.5591
31
0.0
0
LINE
8
CUT
10
-35.0841
20
12.5591
30
0.0
11
-23.3894
21
12.5376
31
0.0
0
LINE
8
CUT
10
-23.3894
20
12.5376
30
0.0
11
-11.6947
21
12.5248
31
0.0
0
LINE
8
CUT
10
-11.6947
20
12.5248
30
0.0
11
-0.0000
21
12.5205
31
0.0
0
LINE
8
CUT
10
-0.0000
20
12.5205
30
0.0
11
0.0000
21
12.5205
31
0.0
0
LINE
8
REG
10
0.0000
20
-20.0000
30
0.0
11
0.0000
21
168.1669
31
0.0
0
ENDSEC
0
EOF
