0
SECTION
2
ENTITIES
0
LINE
8
CUT
10
0.0000
20
0.0000
30
0.0
11
12.8301
21
0.0043
31
0.0
0
LINE
8
CUT
10
12.8301
20
0.0043
30
0.0
11
25.6603
21
0.0172
31
0.0
0
LINE
8
CUT
10
25.6603
20
0.0172
30
0.0
11
38.4904
21
0.0386
31
0.0
0
LINE
8
CUT
10
38.4904
20
0.0386
30
0.0
11
51.3206
21
0.0686
31
0.0
0
LINE
8
CUT
10
51.3206
20
0.0686
30
0.0
11
64.1507
21
0.1073
31
0.0
0
LINE
8
CUT
10
64.1507
20
0.1073
30
0.0
11
76.9809
21
0.1545
31
0.0
0
LINE
8
CUT
10
76.9809
20
0.1545
30
0.0
11
89.8110
21
0.2102
31
0.0
0
LINE
8
CUT
10
89.8110
20
0.2102
30
0.0
11
102.6411
21
0.2746
31
0.0
0
LINE
8
CUT
10
102.6411
20
0.2746
30
0.0
11
115.4713
21
0.3475
31
0.0
0
LINE
8
CUT
10
115.4713
20
0.3475
30
0.0
11
128.3014
21
0.4290
31
0.0
0
LINE
8
CUT
10
128.3014
20
0.4290
30
0.0
11
141.1316
21
0.5191
31
0.0
0
LINE
8
CUT
10
141.1316
20
0.5191
30
0.0
11
153.9617
21
0.6178
31
0.0
0
LINE
8
CUT
10
153.9617
20
0.6178
30
0.0
11
166.7919
21
0.7251
31
0.0
0
LINE
8
CUT
10
166.7919
20
0.7251
30
0.0
11
179.6220
21
0.8409
31
0.0
0
LINE
8
CUT
10
179.6220
20
0.8409
30
0.0
11
192.4522
21
0.9653
31
0.0
0
LINE
8
CUT
10
192.4522
20
0.9653
30
0.0
11
205.2823
21
1.0983
31
0.0
0
LINE
8
CUT
10
205.2823
20
1.0983
30
0.0
11
218.1124
21
1.2399
31
0.0
0
LINE
8
CUT
10
218.1124
20
1.2399
30
0.0
11
230.9426
21
1.3901
31
0.0
0
LINE
8
CUT
10
230.9426
20
1.3901
30
0.0
11
243.7727
21
1.5488
31
0.0
0
LINE
8
CUT
10
243.7727
20
1.5488
30
0.0
11
245.2172
21
4.1246
31
0.0
0
LINE
8
CUT
10
245.2172
20
4.1246
30
0.0
11
246.9467
21
6.3780
31
0.0
0
LINE
8
CUT
10
246.9467
20
6.3780
30
0.0
11
248.9166
21
8.3408
31
0.0
0
LINE
8
CUT
10
248.9166
20
8.3408
30
0.0
11
251.0824
21
10.0449
31
0.0
0
LINE
8
CUT
10
251.0824
20
10.0449
30
0.0
11
253.3995
21
11.5222
31
0.0
0
LINE
8
CUT
10
253.3995
20
11.5222
30
0.0
11
255.8233
21
12.8046
31
0.0
0
LINE
8
CUT
10
255.8233
20
12.8046
30
0.0
11
258.3093
21
13.9241
31
0.0
0
LINE
8
CUT
10
258.3093
20
13.9241
30
0.0
11
260.8130
21
14.9126
31
0.0
0
LINE
8
CUT
10
260.8130
20
14.9126
30
0.0
11
263.2897
21
15.8019
31
0.0
0
LINE
8
CUT
10
263.2897
20
15.8019
30
0.0
11
265.6948
21
16.6239
31
0.0
0
LINE
8
CUT
10
265.6948
20
16.6239
30
0.0
11
267.9839
21
17.4106
31
0.0
0
LINE
8
CUT
10
267.9839
20
17.4106
30
0.0
11
270.1124
21
18.1939
31
0.0
0
LINE
8
CUT
10
270.1124
20
18.1939
30
0.0
11
272.0357
21
19.0056
31
0.0
0
LINE
8
CUT
10
272.0357
20
19.0056
30
0.0
11
273.7092
21
19.8777
31
0.0
0
LINE
8
CUT
10
273.7092
20
19.8777
30
0.0
11
275.0884
21
20.8421
31
0.0
0
LINE
8
CUT
10
275.0884
20
20.8421
30
0.0
11
276.1287
21
21.9307
31
0.0
0
LINE
8
CUT
10
276.1287
20
21.9307
30
0.0
11
276.7856
21
23.1754
31
0.0
0
LINE
8
CUT
10
276.7856
20
23.1754
30
0.0
11
277.0145
21
24.6080
31
0.0
0
LINE
8
CUT
10
277.0145
20
24.6080
30
0.0
11
276.8346
21
31.4913
31
0.0
0
LINE
8
CUT
10
276.8346
20
31.4913
30
0.0
11
276.3030
21
38.5485
31
0.0
0
LINE
8
CUT
10
276.3030
20
38.5485
30
0.0
11
275.4314
21
45.7380
31
0.0
0
LINE
8
CUT
10
275.4314
20
45.7380
30
0.0
11
274.2315
21
53.0183
31
0.0
0
LINE
8
CUT
10
274.2315
20
53.0183
30
0.0
11
272.7152
21
60.3479
31
0.0
0
LINE
8
CUT
10
272.7152
20
60.3479
30
0.0
11
270.8942
21
67.6855
31
0.0
0
LINE
8
CUT
10
270.8942
20
67.6855
30
0.0
11
268.7803
21
74.9893
31
0.0
0
LINE
8
CUT
10
268.7803
20
74.9893
30
0.0
11
266.3853
21
82.2181
31
0.0
0
LINE
8
CUT
10
266.3853
20
82.2181
30
0.0
11
263.7210
21
89.3302
31
0.0
0
LINE
8
CUT
10
263.7210
20
89.3302
30
0.0
11
260.7992
21
96.2841
31
0.0
0
LINE
8
CUT
10
260.7992
20
96.2841
30
0.0
11
257.6316
21
103.0385
31
0.0
0
LINE
8
CUT
10
257.6316
20
103.0385
30
0.0
11
254.2300
21
109.5517
31
0.0
0
LINE
8
CUT
10
254.2300
20
109.5517
30
0.0
11
250.6063
21
115.7824
31
0.0
0
LINE
8
CUT
10
250.6063
20
115.7824
30
0.0
11
246.7721
21
121.6889
31
0.0
0
LINE
8
CUT
10
246.7721
20
121.6889
30
0.0
11
242.7393
21
127.2298
31
0.0
0
LINE
8
CUT
10
242.7393
20
127.2298
30
0.0
11
238.5197
21
132.3637
31
0.0
0
LINE
8
CUT
10
238.5197
20
132.3637
30
0.0
11
234.1250
21
137.0490
31
0.0
0
LINE
8
CUT
10
234.1250
20
137.0490
30
0.0
11
229.5671
21
141.2442
31
0.0
0
LINE
8
CUT
10
229.5671
20
141.2442
30
0.0
11
224.8576
21
144.9078
31
0.0
0
LINE
8
CUT
10
224.8576
20
144.9078
30
0.0
11
220.0085
21
147.9983
31
0.0
0
LINE
8
CUT
10
220.0085
20
147.9983
30
0.0
11
215.0314
21
150.4743
31
0.0
0
LINE
8
CUT
10
215.0314
20
150.4743
30
0.0
11
209.9382
21
152.2943
31
0.0
0
LINE
8
CUT
10
209.9382
20
152.2943
30
0.0
11
204.7406
21
153.4166
31
0.0
0
LINE
8
CUT
10
204.7406
20
153.4166
30
0.0
11
199.4504
21
153.8000
31
0.0
0
LINE
8
CUT
10
199.4504
20
153.8000
30
0.0
11
189.4779
21
153.8000
31
0.0
0
LINE
8
CUT
10
189.4779
20
153.8000
30
0.0
11
179.5054
21
153.8000
31
0.0
0
LINE
8
CUT
10
179.5054
20
153.8000
30
0.0
11
169.5329
21
153.8000
31
0.0
0
LINE
8
CUT
10
169.5329
20
153.8000
30
0.0
11
159.5603
21
153.8000
31
0.0
0
LINE
8
CUT
10
159.5603
20
153.8000
30
0.0
11
149.5878
21
153.8000
31
0.0
0
LINE
8
CUT
10
149.5878
20
153.8000
30
0.0
11
139.6153
21
153.8000
31
0.0
0
LINE
8
CUT
10
139.6153
20
153.8000
30
0.0
11
129.6428
21
153.8000
31
0.0
0
LINE
8
CUT
10
129.6428
20
153.8000
30
0.0
11
119.6702
21
153.8000
31
0.0
0
LINE
8
CUT
10
119.6702
20
153.8000
30
0.0
11
109.6977
21
153.8000
31
0.0
0
LINE
8
CUT
10
109.6977
20
153.8000
30
0.0
11
99.7252
21
153.8000
31
0.0
0
LINE
8
CUT
10
99.7252
20
153.8000
30
0.0
11
89.7527
21
153.8000
31
0.0
0
LINE
8
CUT
10
89.7527
20
153.8000
30
0.0
11
79.7802
21
153.8000
31
0.0
0
LINE
8
CUT
10
79.7802
20
153.8000
30
0.0
11
69.8076
21
153.8000
31
0.0
0
LINE
8
CUT
10
69.8076
20
153.8000
30
0.0
11
59.8351
21
153.8000
31
0.0
0
LINE
8
CUT
10
59.8351
20
153.8000
30
0.0
11
49.8626
21
153.8000
31
0.0
0
LINE
8
CUT
10
49.8626
20
153.8000
30
0.0
11
39.8901
21
153.8000
31
0.0
0
LINE
8
CUT
10
39.8901
20
153.8000
30
0.0
11
29.9176
21
153.8000
31
0.0
0
LINE
8
CUT
10
29.9176
20
153.8000
30
0.0
11
19.9450
21
153.8000
31
0.0
0
LINE
8
CUT
10
19.9450
20
153.8000
30
0.0
11
9.9725
21
153.8000
31
0.0
0
LINE
8
CUT
10
9.9725
20
153.8000
30
0.0
11
0.0000
21
153.8000
31
0.0
0
LINE
8
CUT
10
0.0000
20
153.8000
30
0.0
11
-0.0000
21
153.8000
31
0.0
0
LINE
8
CUT
10
-0.0000
20
153.8000
30
0.0
11
-9.9725
21
153.8000
31
0.0
0
LINE
8
CUT
10
-9.9725
20
153.8000
30
0.0
11
-19.9450
21
153.8000
31
0.0
0
LINE
8
CUT
10
-19.9450
20
153.8000
30
0.0
11
-29.9176
21
153.8000
31
0.0
0
LINE
8
CUT
10
-29.9176
20
153.8000
30
0.0
11
-39.8901
21
153.8000
31
0.0
0
LINE
8
CUT
10
-39.8901
20
153.8000
30
0.0
11
-49.8626
21
153.8000
31
0.0
0
LINE
8
CUT
10
-49.8626
20
153.8000
30
0.0
11
-59.8351
21
153.8000
31
0.0
0
LINE
8
CUT
10
-59.8351
20
153.8000
30
0.0
11
-69.8076
21
153.8000
31
0.0
0
LINE
8
CUT
10
-69.8076
20
153.8000
30
0.0
11
-79.7802
21
153.8000
31
0.0
0
LINE
8
CUT
10
-79.7802
20
153.8000
30
0.0
11
-89.7527
21
153.8000
31
0.0
0
LINE
8
CUT
10
-89.7527
20
153.8000
30
0.0
11
-99.7252
21
153.8000
31
0.0
0
LINE
8
CUT
10
-99.7252
20
153.8000
30
0.0
11
-109.6977
21
153.8000
31
0.0
0
LINE
8
CUT
10
-109.6977
20
153.8000
30
0.0
11
-119.6702
21
153.8000
31
0.0
0
LINE
8
CUT
10
-119.6702
20
153.8000
30
0.0
11
-129.6428
21
153.8000
31
0.0
0
LINE
8
CUT
10
-129.6428
20
153.8000
30
0.0
11
-139.6153
21
153.8000
31
0.0
0
LINE
8
CUT
10
-139.6153
20
153.8000
30
0.0
11
-149.5878
21
153.8000
31
0.0
0
LINE
8
CUT
10
-149.5878
20
153.8000
30
0.0
11
-159.5603
21
153.8000
31
0.0
0
LINE
8
CUT
10
-159.5603
20
153.8000
30
0.0
11
-169.5329
21
153.8000
31
0.0
0
LINE
8
CUT
10
-169.5329
20
153.8000
30
0.0
11
-179.5054
21
153.8000
31
0.0
0
LINE
8
CUT
10
-179.5054
20
153.8000
30
0.0
11
-189.4779
21
153.8000
31
0.0
0
LINE
8
CUT
10
-189.4779
20
153.8000
30
0.0
11
-199.4504
21
153.8000
31
0.0
0
LINE
8
CUT
10
-199.4504
20
153.8000
30
0.0
11
-204.7406
21
153.4166
31
0.0
0
LINE
8
CUT
10
-204.7406
20
153.4166
30
0.0
11
-209.9382
21
152.2943
31
0.0
0
LINE
8
CUT
10
-209.9382
20
152.2943
30
0.0
11
-215.0314
21
150.4743
31
0.0
0
LINE
8
CUT
10
-215.0314
20
150.4743
30
0.0
11
-220.0085
21
147.9983
31
0.0
0
LINE
8
CUT
10
-220.0085
20
147.9983
30
0.0
11
-224.8576
21
144.9078
31
0.0
0
LINE
8
CUT
10
-224.8576
20
144.9078
30
0.0
11
-229.5671
21
141.2442
31
0.0
0
LINE
8
CUT
10
-229.5671
20
141.2442
30
0.0
11
-234.1250
21
137.0490
31
0.0
0
LINE
8
CUT
10
-234.1250
20
137.0490
30
0.0
11
-238.5197
21
132.3637
31
0.0
0
LINE
8
CUT
10
-238.5197
20
132.3637
30
0.0
11
-242.7393
21
127.2298
31
0.0
0
LINE
8
CUT
10
-242.7393
20
127.2298
30
0.0
11
-246.7721
21
121.6889
31
0.0
0
LINE
8
CUT
10
-246.7721
20
121.6889
30
0.0
11
-250.6063
21
115.7824
31
0.0
0
LINE
8
CUT
10
-250.6063
20
115.7824
30
0.0
11
-254.2300
21
109.5517
31
0.0
0
LINE
8
CUT
10
-254.2300
20
109.5517
30
0.0
11
-257.6316
21
103.0385
31
0.0
0
LINE
8
CUT
10
-257.6316
20
103.0385
30
0.0
11
-260.7992
21
96.2841
31
0.0
0
LINE
8
CUT
10
-260.7992
20
96.2841
30
0.0
11
-263.7210
21
89.3302
31
0.0
0
LINE
8
CUT
10
-263.7210
20
89.3302
30
0.0
11
-266.3853
21
82.2181
31
0.0
0
LINE
8
CUT
10
-266.3853
20
82.2181
30
0.0
11
-268.7803
21
74.9893
31
0.0
0
LINE
8
CUT
10
-268.7803
20
74.9893
30
0.0
11
-270.8942
21
67.6855
31
0.0
0
LINE
8
CUT
10
-270.8942
20
67.6855
30
0.0
11
-272.7152
21
60.3479
31
0.0
0
LINE
8
CUT
10
-272.7152
20
60.3479
30
0.0
11
-274.2315
21
53.0183
31
0.0
0
LINE
8
CUT
10
-274.2315
20
53.0183
30
0.0
11
-275.4314
21
45.7380
31
0.0
0
LINE
8
CUT
10
-275.4314
20
45.7380
30
0.0
11
-276.3030
21
38.5485
31
0.0
0
LINE
8
CUT
10
-276.3030
20
38.5485
30
0.0
11
-276.8346
21
31.4913
31
0.0
0
LINE
8
CUT
10
-276.8346
20
31.4913
30
0.0
11
-277.0145
21
24.6080
31
0.0
0
LINE
8
CUT
10
-277.0145
20
24.6080
30
0.0
11
-276.7856
21
23.1754
31
0.0
0
LINE
8
CUT
10
-276.7856
20
23.1754
30
0.0
11
-276.1287
21
21.9307
31
0.0
0
LINE
8
CUT
10
-276.1287
20
21.9307
30
0.0
11
-275.0884
21
20.8421
31
0.0
0
LINE
8
CUT
10
-275.0884
20
20.8421
30
0.0
11
-273.7092
21
19.8777
31
0.0
0
LINE
8
CUT
10
-273.7092
20
19.8777
30
0.0
11
-272.0357
21
19.0056
31
0.0
0
LINE
8
CUT
10
-272.0357
20
19.0056
30
0.0
11
-270.1124
21
18.1939
31
0.0
0
LINE
8
CUT
10
-270.1124
20
18.1939
30
0.0
11
-267.9839
21
17.4106
31
0.0
0
LINE
8
CUT
10
-267.9839
20
17.4106
30
0.0
11
-265.6948
21
16.6239
31
0.0
0
LINE
8
CUT
10
-265.6948
20
16.6239
30
0.0
11
-263.2897
21
15.8019
31
0.0
0
LINE
8
CUT
10
-263.2897
20
15.8019
30
0.0
11
-260.8130
21
14.9126
31
0.0
0
LINE
8
CUT
10
-260.8130
20
14.9126
30
0.0
11
-258.3093
21
13.9241
31
0.0
0
LINE
8
CUT
10
-258.3093
20
13.9241
30
0.0
11
-255.8233
21
12.8046
31
0.0
0
LINE
8
CUT
10
-255.8233
20
12.8046
30
0.0
11
-253.3995
21
11.5222
31
0.0
0
LINE
8
CUT
10
-253.3995
20
11.5222
30
0.0
11
-251.0824
21
10.0449
31
0.0
0
LINE
8
CUT
10
-251.0824
20
10.0449
30
0.0
11
-248.9166
21
8.3408
31
0.0
0
LINE
8
CUT
10
-248.9166
20
8.3408
30
0.0
11
-246.9467
21
6.3780
31
0.0
0
LINE
8
CUT
10
-246.9467
20
6.3780
30
0.0
11
-245.2172
21
4.1246
31
0.0
0
LINE
8
CUT
10
-245.2172
20
4.1246
30
0.0
11
-243.7727
21
1.5488
31
0.0
0
LINE
8
CUT
10
-243.7727
20
1.5488
30
0.0
11
-230.9426
21
1.3901
31
0.0
0
LINE
8
CUT
10
-230.9426
20
1.3901
30
0.0
11
-218.1124
21
1.2399
31
0.0
0
LINE
8
CUT
10
-218.1124
20
1.2399
30
0.0
11
-205.2823
21
1.0983
31
0.0
0
LINE
8
CUT
10
-205.2823
20
1.0983
30
0.0
11
-192.4522
21
0.9653
31
0.0
0
LINE
8
CUT
10
-192.4522
20
0.9653
30
0.0
11
-179.6220
21
0.8409
31
0.0
0
LINE
8
CUT
10
-179.6220
20
0.8409
30
0.0
11
-166.7919
21
0.7251
31
0.0
0
LINE
8
CUT
10
-166.7919
20
0.7251
30
0.0
11
-153.9617
21
0.6178
31
0.0
0
LINE
8
CUT
10
-153.9617
20
0.6178
30
0.0
11
-141.1316
21
0.5191
31
0.0
0
LINE
8
CUT
10
-141.1316
20
0.5191
30
0.0
11
-128.3014
21
0.4290
31
0.0
0
LINE
8
CUT
10
-128.3014
20
0.4290
30
0.0
11
-115.4713
21
0.3475
31
0.0
0
LINE
8
CUT
10
-115.4713
20
0.3475
30
0.0
11
-102.6411
21
0.2746
31
0.0
0
LINE
8
CUT
10
-102.6411
20
0.2746
30
0.0
11
-89.8110
21
0.2102
31
0.0
0
LINE
8
CUT
10
-89.8110
20
0.2102
30
0.0
11
-76.9809
21
0.1545
31
0.0
0
LINE
8
CUT
10
-76.9809
20
0.1545
30
0.0
11
-64.1507
21
0.1073
31
0.0
0
LINE
8
CUT
10
-64.1507
20
0.1073
30
0.0
11
-51.3206
21
0.0686
31
0.0
0
LINE
8
CUT
10
-51.3206
20
0.0686
30
0.0
11
-38.4904
21
0.0386
31
0.0
0
LINE
8
CUT
10
-38.4904
20
0.0386
30
0.0
11
-25.6603
21
0.0172
31
0.0
0
LINE
8
CUT
10
-25.6603
20
0.0172
30
0.0
11
-12.8301
21
0.0043
31
0.0
0
LINE
8
CUT
10
-12.8301
20
0.0043
30
0.0
11
-0.0000
21
0.0000
31
0.0
0
LINE
8
CUT
10
-0.0000
20
0.0000
30
0.0
11
0.0000
21
0.0000
31
0.0
0
LINE
8
REG
10
0.0000
20
-20.0000
30
0.0
11
0.0000
21
173.8000
31
0.0
0
ENDSEC
0
EOF
