0
SECTION
2
ENTITIES
0
LINE
8
CUT
10
0.0000
20
0.0000
30
0.0
11
12.3690
21
0.0043
31
0.0
0
LINE
8
CUT
10
12.3690
20
0.0043
30
0.0
11
24.7380
21
0.0172
31
0.0
0
LINE
8
CUT
10
24.7380
20
0.0172
30
0.0
11
37.1070
21
0.0386
31
0.0
0
LINE
8
CUT
10
37.1070
20
0.0386
30
0.0
11
49.4761
21
0.0686
31
0.0
0
LINE
8
CUT
10
49.4761
20
0.0686
30
0.0
11
61.8451
21
0.1073
31
0.0
0
LINE
8
CUT
10
61.8451
20
0.1073
30
0.0
11
74.2141
21
0.1545
31
0.0
0
LINE
8
CUT
10
74.2141
20
0.1545
30
0.0
11
86.5831
21
0.2102
31
0.0
0
LINE
8
CUT
10
86.5831
20
0.2102
30
0.0
11
98.9521
21
0.2746
31
0.0
0
LINE
8
CUT
10
98.9521
20
0.2746
30
0.0
11
111.3211
21
0.3475
31
0.0
0
LINE
8
CUT
10
111.3211
20
0.3475
30
0.0
11
123.6901
21
0.4290
31
0.0
0
LINE
8
CUT
10
123.6901
20
0.4290
30
0.0
11
136.0591
21
0.5191
31
0.0
0
LINE
8
CUT
10
136.0591
20
0.5191
30
0.0
11
148.4282
21
0.6178
31
0.0
0
LINE
8
CUT
10
148.4282
20
0.6178
30
0.0
11
160.7972
21
0.7251
31
0.0
0
LINE
8
CUT
10
160.7972
20
0.7251
30
0.0
11
173.1662
21
0.8409
31
0.0
0
LINE
8
CUT
10
173.1662
20
0.8409
30
0.0
11
185.5352
21
0.9653
31
0.0
0
LINE
8
CUT
10
185.5352
20
0.9653
30
0.0
11
197.9042
21
1.0983
31
0.0
0
LINE
8
CUT
10
197.9042
20
1.0983
30
0.0
11
210.2732
21
1.2399
31
0.0
0
LINE
8
CUT
10
210.2732
20
1.2399
30
0.0
11
222.6422
21
1.3901
31
0.0
0
LINE
8
CUT
10
222.6422
20
1.3901
30
0.0
11
235.0113
21
1.5488
31
0.0
0
LINE
8
CUT
10
235.0113
20
1.5488
30
0.0
11
236.1131
21
4.1856
31
0.0
0
LINE
8
CUT
10
236.1131
20
4.1856
30
0.0
11
237.5562
21
6.4859
31
0.0
0
LINE
8
CUT
10
237.5562
20
6.4859
30
0.0
11
239.2913
21
8.4830
31
0.0
0
LINE
8
CUT
10
239.2913
20
8.4830
30
0.0
11
241.2696
21
10.2100
31
0.0
0
LINE
8
CUT
10
241.2696
20
10.2100
30
0.0
11
243.4421
21
11.7001
31
0.0
0
LINE
8
CUT
10
243.4421
20
11.7001
30
0.0
11
245.7597
21
12.9865
31
0.0
0
LINE
8
CUT
10
245.7597
20
12.9865
30
0.0
11
248.1735
21
14.1023
31
0.0
0
LINE
8
CUT
10
248.1735
20
14.1023
30
0.0
11
250.6344
21
15.0807
31
0.0
0
LINE
8
CUT
10
250.6344
20
15.0807
30
0.0
11
253.0935
21
15.9548
31
0.0
0
LINE
8
CUT
10
253.0935
20
15.9548
30
0.0
11
255.5017
21
16.7579
31
0.0
0
LINE
8
CUT
10
255.5017
20
16.7579
30
0.0
11
257.8101
21
17.5232
31
0.0
0
LINE
8
CUT
10
257.8101
20
17.5232
30
0.0
11
259.9697
21
18.2837
31
0.0
0
LINE
8
CUT
10
259.9697
20
18.2837
30
0.0
11
261.9315
21
19.0727
31
0.0
0
LINE
8
CUT
10
261.9315
20
19.0727
30
0.0
11
263.6465
21
19.9234
31
0.0
0
LINE
8
CUT
10
263.6465
20
19.9234
30
0.0
11
265.0656
21
20.8688
31
0.0
0
LINE
8
CUT
10
265.0656
20
20.8688
30
0.0
11
266.1400
21
21.9422
31
0.0
0
LINE
8
CUT
10
266.1400
20
21.9422
30
0.0
11
266.8205
21
23.1768
31
0.0
0
LINE
8
CUT
10
266.8205
20
23.1768
30
0.0
11
267.0582
21
24.6057
31
0.0
0
LINE
8
CUT
10
267.0582
20
24.6057
30
0.0
11
266.8849
21
31.4884
31
0.0
0
LINE
8
CUT
10
266.8849
20
31.4884
30
0.0
11
266.3724
21
38.5449
31
0.0
0
LINE
8
CUT
10
266.3724
20
38.5449
30
0.0
11
265.5320
21
45.7337
31
0.0
0
LINE
8
CUT
10
265.5320
20
45.7337
30
0.0
11
264.3753
21
53.0134
31
0.0
0
LINE
8
CUT
10
264.3753
20
53.0134
30
0.0
11
262.9135
21
60.3424
31
0.0
0
LINE
8
CUT
10
262.9135
20
60.3424
30
0.0
11
261.1579
21
67.6792
31
0.0
0
LINE
8
CUT
10
261.1579
20
67.6792
30
0.0
11
259.1200
21
74.9824
31
0.0
0
LINE
8
CUT
10
259.1200
20
74.9824
30
0.0
11
256.8111
21
82.2105
31
0.0
0
LINE
8
CUT
10
256.8111
20
82.2105
30
0.0
11
254.2426
21
89.3219
31
0.0
0
LINE
8
CUT
10
254.2426
20
89.3219
30
0.0
11
251.4258
21
96.2753
31
0.0
0
LINE
8
CUT
10
251.4258
20
96.2753
30
0.0
11
248.3720
21
103.0290
31
0.0
0
LINE
8
CUT
10
248.3720
20
103.0290
30
0.0
11
245.0927
21
109.5416
31
0.0
0
LINE
8
CUT
10
245.0927
20
109.5416
30
0.0
11
241.5992
21
115.7717
31
0.0
0
LINE
8
CUT
10
241.5992
20
115.7717
30
0.0
11
237.9028
21
121.6777
31
0.0
0
LINE
8
CUT
10
237.9028
20
121.6777
30
0.0
11
234.0150
21
127.2181
31
0.0
0
LINE
8
CUT
10
234.0150
20
127.2181
30
0.0
11
229.9470
21
132.3515
31
0.0
0
LINE
8
CUT
10
229.9470
20
132.3515
30
0.0
11
225.7103
21
137.0363
31
0.0
0
LINE
8
CUT
10
225.7103
20
137.0363
30
0.0
11
221.3162
21
141.2311
31
0.0
0
LINE
8
CUT
10
221.3162
20
141.2311
30
0.0
11
216.7760
21
144.8944
31
0.0
0
LINE
8
CUT
10
216.7760
20
144.8944
30
0.0
11
212.1011
21
147.9847
31
0.0
0
LINE
8
CUT
10
212.1011
20
147.9847
30
0.0
11
207.3029
21
150.4604
31
0.0
0
LINE
8
CUT
10
207.3029
20
150.4604
30
0.0
11
202.3927
21
152.2802
31
0.0
0
LINE
8
CUT
10
202.3927
20
152.2802
30
0.0
11
197.3820
21
153.4025
31
0.0
0
LINE
8
CUT
10
197.3820
20
153.4025
30
0.0
11
192.2819
21
153.7858
31
0.0
0
LINE
8
CUT
10
192.2819
20
153.7858
30
0.0
11
182.6678
21
153.7858
31
0.0
0
LINE
8
CUT
10
182.6678
20
153.7858
30
0.0
11
173.0537
21
153.7858
31
0.0
0
LINE
8
CUT
10
173.0537
20
153.7858
30
0.0
11
163.4396
21
153.7858
31
0.0
0
LINE
8
CUT
10
163.4396
20
153.7858
30
0.0
11
153.8255
21
153.7858
31
0.0
0
LINE
8
CUT
10
153.8255
20
153.7858
30
0.0
11
144.2115
21
153.7858
31
0.0
0
LINE
8
CUT
10
144.2115
20
153.7858
30
0.0
11
134.5974
21
153.7858
31
0.0
0
LINE
8
CUT
10
134.5974
20
153.7858
30
0.0
11
124.9833
21
153.7858
31
0.0
0
LINE
8
CUT
10
124.9833
20
153.7858
30
0.0
11
115.3692
21
153.7858
31
0.0
0
LINE
8
CUT
10
115.3692
20
153.7858
30
0.0
11
105.7551
21
153.7858
31
0.0
0
LINE
8
CUT
10
105.7551
20
153.7858
30
0.0
11
96.1410
21
153.7858
31
0.0
0
LINE
8
CUT
10
96.1410
20
153.7858
30
0.0
11
86.5269
21
153.7858
31
0.0
0
LINE
8
CUT
10
86.5269
20
153.7858
30
0.0
11
76.9128
21
153.7858
31
0.0
0
LINE
8
CUT
10
76.9128
20
153.7858
30
0.0
11
67.2987
21
153.7858
31
0.0
0
LINE
8
CUT
10
67.2987
20
153.7858
30
0.0
11
57.6846
21
153.7858
31
0.0
0
LINE
8
CUT
10
57.6846
20
153.7858
30
0.0
11
48.0705
21
153.7858
31
0.0
0
LINE
8
CUT
10
48.0705
20
153.7858
30
0.0
11
38.4564
21
153.7858
31
0.0
0
LINE
8
CUT
10
38.4564
20
153.7858
30
0.0
11
28.8423
21
153.7858
31
0.0
0
LINE
8
CUT
10
28.8423
20
153.7858
30
0.0
11
19.2282
21
153.7858
31
0.0
0
LINE
8
CUT
10
19.2282
20
153.7858
30
0.0
11
9.6141
21
153.7858
31
0.0
0
LINE
8
CUT
10
9.6141
20
153.7858
30
0.0
11
0.0000
21
153.7858
31
0.0
0
LINE
8
CUT
10
0.0000
20
153.7858
30
0.0
11
-0.0000
21
153.7858
31
0.0
0
LINE
8
CUT
10
-0.0000
20
153.7858
30
0.0
11
-9.6141
21
153.7858
31
0.0
0
LINE
8
CUT
10
-9.6141
20
153.7858
30
0.0
11
-19.2282
21
153.7858
31
0.0
0
LINE
8
CUT
10
-19.2282
20
153.7858
30
0.0
11
-28.8423
21
153.7858
31
0.0
0
LINE
8
CUT
10
-28.8423
20
153.7858
30
0.0
11
-38.4564
21
153.7858
31
0.0
0
LINE
8
CUT
10
-38.4564
20
153.7858
30
0.0
11
-48.0705
21
153.7858
31
0.0
0
LINE
8
CUT
10
-48.0705
20
153.7858
30
0.0
11
-57.6846
21
153.7858
31
0.0
0
LINE
8
CUT
10
-57.6846
20
153.7858
30
0.0
11
-67.2987
21
153.7858
31
0.0
0
LINE
8
CUT
10
-67.2987
20
153.7858
30
0.0
11
-76.9128
21
153.7858
31
0.0
0
LINE
8
CUT
10
-76.9128
20
153.7858
30
0.0
11
-86.5269
21
153.7858
31
0.0
0
LINE
8
CUT
10
-86.5269
20
153.7858
30
0.0
11
-96.1410
21
153.7858
31
0.0
0
LINE
8
CUT
10
-96.1410
20
153.7858
30
0.0
11
-105.7551
21
153.7858
31
0.0
0
LINE
8
CUT
10
-105.7551
20
153.7858
30
0.0
11
-115.3692
21
153.7858
31
0.0
0
LINE
8
CUT
10
-115.3692
20
153.7858
30
0.0
11
-124.9833
21
153.7858
31
0.0
0
LINE
8
CUT
10
-124.9833
20
153.7858
30
0.0
11
-134.5974
21
153.7858
31
0.0
0
LINE
8
CUT
10
-134.5974
20
153.7858
30
0.0
11
-144.2115
21
153.7858
31
0.0
0
LINE
8
CUT
10
-144.2115
20
153.7858
30
0.0
11
-153.8255
21
153.7858
31
0.0
0
LINE
8
CUT
10
-153.8255
20
153.7858
30
0.0
11
-163.4396
21
153.7858
31
0.0
0
LINE
8
CUT
10
-163.4396
20
153.7858
30
0.0
11
-173.0537
21
153.7858
31
0.0
0
LINE
8
CUT
10
-173.0537
20
153.7858
30
0.0
11
-182.6678
21
153.7858
31
0.0
0
LINE
8
CUT
10
-182.6678
20
153.7858
30
0.0
11
-192.2819
21
153.7858
31
0.0
0
LINE
8
CUT
10
-192.2819
20
153.7858
30
0.0
11
-197.3820
21
153.4025
31
0.0
0
LINE
8
CUT
10
-197.3820
20
153.4025
30
0.0
11
-202.3927
21
152.2802
31
0.0
0
LINE
8
CUT
10
-202.3927
20
152.2802
30
0.0
11
-207.3029
21
150.4604
31
0.0
0
LINE
8
CUT
10
-207.3029
20
150.4604
30
0.0
11
-212.1011
21
147.9847
31
0.0
0
LINE
8
CUT
10
-212.1011
20
147.9847
30
0.0
11
-216.7760
21
144.8944
31
0.0
0
LINE
8
CUT
10
-216.7760
20
144.8944
30
0.0
11
-221.3162
21
141.2311
31
0.0
0
LINE
8
CUT
10
-221.3162
20
141.2311
30
0.0
11
-225.7103
21
137.0363
31
0.0
0
LINE
8
CUT
10
-225.7103
20
137.0363
30
0.0
11
-229.9470
21
132.3515
31
0.0
0
LINE
8
CUT
10
-229.9470
20
132.3515
30
0.0
11
-234.0150
21
127.2181
31
0.0
0
LINE
8
CUT
10
-234.0150
20
127.2181
30
0.0
11
-237.9028
21
121.6777
31
0.0
0
LINE
8
CUT
10
-237.9028
20
121.6777
30
0.0
11
-241.5992
21
115.7717
31
0.0
0
LINE
8
CUT
10
-241.5992
20
115.7717
30
0.0
11
-245.0927
21
109.5416
31
0.0
0
LINE
8
CUT
10
-245.0927
20
109.5416
30
0.0
11
-248.3720
21
103.0290
31
0.0
0
LINE
8
CUT
10
-248.3720
20
103.0290
30
0.0
11
-251.4258
21
96.2753
31
0.0
0
LINE
8
CUT
10
-251.4258
20
96.2753
30
0.0
11
-254.2426
21
89.3219
31
0.0
0
LINE
8
CUT
10
-254.2426
20
89.3219
30
0.0
11
-256.8111
21
82.2105
31
0.0
0
LINE
8
CUT
10
-256.8111
20
82.2105
30
0.0
11
-259.1200
21
74.9824
31
0.0
0
LINE
8
CUT
10
-259.1200
20
74.9824
30
0.0
11
-261.1579
21
67.6792
31
0.0
0
LINE
8
CUT
10
-261.1579
20
67.6792
30
0.0
11
-262.9135
21
60.3424
31
0.0
0
LINE
8
CUT
10
-262.9135
20
60.3424
30
0.0
11
-264.3753
21
53.0134
31
0.0
0
LINE
8
CUT
10
-264.3753
20
53.0134
30
0.0
11
-265.5320
21
45.7337
31
0.0
0
LINE
8
CUT
10
-265.5320
20
45.7337
30
0.0
11
-266.3724
21
38.5449
31
0.0
0
LINE
8
CUT
10
-266.3724
20
38.5449
30
0.0
11
-266.8849
21
31.4884
31
0.0
0
LINE
8
CUT
10
-266.8849
20
31.4884
30
0.0
11
-267.0582
21
24.6057
31
0.0
0
LINE
8
CUT
10
-267.0582
20
24.6057
30
0.0
11
-266.8205
21
23.1768
31
0.0
0
LINE
8
CUT
10
-266.8205
20
23.1768
30
0.0
11
-266.1400
21
21.9422
31
0.0
0
LINE
8
CUT
10
-266.1400
20
21.9422
30
0.0
11
-265.0656
21
20.8688
31
0.0
0
LINE
8
CUT
10
-265.0656
20
20.8688
30
0.0
11
-263.6465
21
19.9234
31
0.0
0
LINE
8
CUT
10
-263.6465
20
19.9234
30
0.0
11
-261.9315
21
19.0727
31
0.0
0
LINE
8
CUT
10
-261.9315
20
19.0727
30
0.0
11
-259.9697
21
18.2837
31
0.0
0
LINE
8
CUT
10
-259.9697
20
18.2837
30
0.0
11
-257.8101
21
17.5232
31
0.0
0
LINE
8
CUT
10
-257.8101
20
17.5232
30
0.0
11
-255.5017
21
16.7579
31
0.0
0
LINE
8
CUT
10
-255.5017
20
16.7579
30
0.0
11
-253.0935
21
15.9548
31
0.0
0
LINE
8
CUT
10
-253.0935
20
15.9548
30
0.0
11
-250.6344
21
15.0807
31
0.0
0
LINE
8
CUT
10
-250.6344
20
15.0807
30
0.0
11
-248.1735
21
14.1023
31
0.0
0
LINE
8
CUT
10
-248.1735
20
14.1023
30
0.0
11
-245.7597
21
12.9865
31
0.0
0
LINE
8
CUT
10
-245.7597
20
12.9865
30
0.0
11
-243.4421
21
11.7001
31
0.0
0
LINE
8
CUT
10
-243.4421
20
11.7001
30
0.0
11
-241.2696
21
10.2100
31
0.0
0
LINE
8
CUT
10
-241.2696
20
10.2100
30
0.0
11
-239.2913
21
8.4830
31
0.0
0
LINE
8
CUT
10
-239.2913
20
8.4830
30
0.0
11
-237.5562
21
6.4859
31
0.0
0
LINE
8
CUT
10
-237.5562
20
6.4859
30
0.0
11
-236.1131
21
4.1856
31
0.0
0
LINE
8
CUT
10
-236.1131
20
4.1856
30
0.0
11
-235.0113
21
1.5488
31
0.0
0
LINE
8
CUT
10
-235.0113
20
1.5488
30
0.0
11
-222.6422
21
1.3901
31
0.0
0
LINE
8
CUT
10
-222.6422
20
1.3901
30
0.0
11
-210.2732
21
1.2399
31
0.0
0
LINE
8
CUT
10
-210.2732
20
1.2399
30
0.0
11
-197.9042
21
1.0983
31
0.0
0
LINE
8
CUT
10
-197.9042
20
1.0983
30
0.0
11
-185.5352
21
0.9653
31
0.0
0
LINE
8
CUT
10
-185.5352
20
0.9653
30
0.0
11
-173.1662
21
0.8409
31
0.0
0
LINE
8
CUT
10
-173.1662
20
0.8409
30
0.0
11
-160.7972
21
0.7251
31
0.0
0
LINE
8
CUT
10
-160.7972
20
0.7251
30
0.0
11
-148.4282
21
0.6178
31
0.0
0
LINE
8
CUT
10
-148.4282
20
0.6178
30
0.0
11
-136.0591
21
0.5191
31
0.0
0
LINE
8
CUT
10
-136.0591
20
0.5191
30
0.0
11
-123.6901
21
0.4290
31
0.0
0
LINE
8
CUT
10
-123.6901
20
0.4290
30
0.0
11
-111.3211
21
0.3475
31
0.0
0
LINE
8
CUT
10
-111.3211
20
0.3475
30
0.0
11
-98.9521
21
0.2746
31
0.0
0
LINE
8
CUT
10
-98.9521
20
0.2746
30
0.0
11
-86.5831
21
0.2102
31
0.0
0
LINE
8
CUT
10
-86.5831
20
0.2102
30
0.0
11
-74.2141
21
0.1545
31
0.0
0
LINE
8
CUT
10
-74.2141
20
0.1545
30
0.0
11
-61.8451
21
0.1073
31
0.0
0
LINE
8
CUT
10
-61.8451
20
0.1073
30
0.0
11
-49.4761
21
0.0686
31
0.0
0
LINE
8
CUT
10
-49.4761
20
0.0686
30
0.0
11
-37.1070
21
0.0386
31
0.0
0
LINE
8
CUT
10
-37.1070
20
0.0386
30
0.0
11
-24.7380
21
0.0172
31
0.0
0
LINE
8
CUT
10
-24.7380
20
0.0172
30
0.0
11
-12.3690
21
0.0043
31
0.0
0
LINE
8
CUT
10
-12.3690
20
0.0043
30
0.0
11
-0.0000
21
0.0000
31
0.0
0
LINE
8
CUT
10
-0.0000
20
0.0000
30
0.0
11
0.0000
21
0.0000
31
0.0
0
LINE
8
REG
10
0.0000
20
-20.0000
30
0.0
11
0.0000
21
173.7858
31
0.0
0
ENDSEC
0
EOF
