0
SECTION
2
ENTITIES
0
LINE
8
CUT
10
0.0000
20
0.0000
30
0.0
11
12.0680
21
0.0043
31
0.0
0
LINE
8
CUT
10
12.0680
20
0.0043
30
0.0
11
24.1359
21
0.0172
31
0.0
0
LINE
8
CUT
10
24.1359
20
0.0172
30
0.0
11
36.2039
21
0.0386
31
0.0
0
LINE
8
CUT
10
36.2039
20
0.0386
30
0.0
11
48.2719
21
0.0686
31
0.0
0
LINE
8
CUT
10
48.2719
20
0.0686
30
0.0
11
60.3398
21
0.1073
31
0.0
0
LINE
8
CUT
10
60.3398
20
0.1073
30
0.0
11
72.4078
21
0.1545
31
0.0
0
LINE
8
CUT
10
72.4078
20
0.1545
30
0.0
11
84.4758
21
0.2102
31
0.0
0
LINE
8
CUT
10
84.4758
20
0.2102
30
0.0
11
96.5437
21
0.2746
31
0.0
0
LINE
8
CUT
10
96.5437
20
0.2746
30
0.0
11
108.6117
21
0.3475
31
0.0
0
LINE
8
CUT
10
108.6117
20
0.3475
30
0.0
11
120.6797
21
0.4290
31
0.0
0
LINE
8
CUT
10
120.6797
20
0.4290
30
0.0
11
132.7476
21
0.5191
31
0.0
0
LINE
8
CUT
10
132.7476
20
0.5191
30
0.0
11
144.8156
21
0.6178
31
0.0
0
LINE
8
CUT
10
144.8156
20
0.6178
30
0.0
11
156.8836
21
0.7251
31
0.0
0
LINE
8
CUT
10
156.8836
20
0.7251
30
0.0
11
168.9515
21
0.8409
31
0.0
0
LINE
8
CUT
10
168.9515
20
0.8409
30
0.0
11
181.0195
21
0.9653
31
0.0
0
LINE
8
CUT
10
181.0195
20
0.9653
30
0.0
11
193.0875
21
1.0983
31
0.0
0
LINE
8
CUT
10
193.0875
20
1.0983
30
0.0
11
205.1555
21
1.2399
31
0.0
0
LINE
8
CUT
10
205.1555
20
1.2399
30
0.0
11
217.2234
21
1.3901
31
0.0
0
LINE
8
CUT
10
217.2234
20
1.3901
30
0.0
11
229.2914
21
1.5488
31
0.0
0
LINE
8
CUT
10
229.2914
20
1.5488
30
0.0
11
230.3731
21
4.1448
31
0.0
0
LINE
8
CUT
10
230.3731
20
4.1448
30
0.0
11
231.7861
21
6.4136
31
0.0
0
LINE
8
CUT
10
231.7861
20
6.4136
30
0.0
11
233.4828
21
8.3874
31
0.0
0
LINE
8
CUT
10
233.4828
20
8.3874
30
0.0
11
235.4155
21
10.0986
31
0.0
0
LINE
8
CUT
10
235.4155
20
10.0986
30
0.0
11
237.5365
21
11.5795
31
0.0
0
LINE
8
CUT
10
237.5365
20
11.5795
30
0.0
11
239.7981
21
12.8625
31
0.0
0
LINE
8
CUT
10
239.7981
20
12.8625
30
0.0
11
242.1528
21
13.9799
31
0.0
0
LINE
8
CUT
10
242.1528
20
13.9799
30
0.0
11
244.5527
21
14.9640
31
0.0
0
LINE
8
CUT
10
244.5527
20
14.9640
30
0.0
11
246.9503
21
15.8473
31
0.0
0
LINE
8
CUT
10
246.9503
20
15.8473
30
0.0
11
249.2979
21
16.6619
31
0.0
0
LINE
8
CUT
10
249.2979
20
16.6619
30
0.0
11
251.5478
21
17.4404
31
0.0
0
LINE
8
CUT
10
251.5478
20
17.4404
30
0.0
11
253.6524
21
18.2149
31
0.0
0
LINE
8
CUT
10
253.6524
20
18.2149
30
0.0
11
255.5639
21
19.0179
31
0.0
0
LINE
8
CUT
10
255.5639
20
19.0179
30
0.0
11
257.2348
21
19.8817
31
0.0
0
LINE
8
CUT
10
257.2348
20
19.8817
30
0.0
11
258.6174
21
20.8386
31
0.0
0
LINE
8
CUT
10
258.6174
20
20.8386
30
0.0
11
259.6640
21
21.9209
31
0.0
0
LINE
8
CUT
10
259.6640
20
21.9209
30
0.0
11
260.3268
21
23.1611
31
0.0
0
LINE
8
CUT
10
260.3268
20
23.1611
30
0.0
11
260.5584
21
24.5914
31
0.0
0
LINE
8
CUT
10
260.5584
20
24.5914
30
0.0
11
260.3893
21
31.4701
31
0.0
0
LINE
8
CUT
10
260.3893
20
31.4701
30
0.0
11
259.8892
21
38.5225
31
0.0
0
LINE
8
CUT
10
259.8892
20
38.5225
30
0.0
11
259.0693
21
45.7071
31
0.0
0
LINE
8
CUT
10
259.0693
20
45.7071
30
0.0
11
257.9407
21
52.9826
31
0.0
0
LINE
8
CUT
10
257.9407
20
52.9826
30
0.0
11
256.5145
21
60.3073
31
0.0
0
LINE
8
CUT
10
256.5145
20
60.3073
30
0.0
11
254.8017
21
67.6399
31
0.0
0
LINE
8
CUT
10
254.8017
20
67.6399
30
0.0
11
252.8134
21
74.9388
31
0.0
0
LINE
8
CUT
10
252.8134
20
74.9388
30
0.0
11
250.5607
21
82.1627
31
0.0
0
LINE
8
CUT
10
250.5607
20
82.1627
30
0.0
11
248.0546
21
89.2700
31
0.0
0
LINE
8
CUT
10
248.0546
20
89.2700
30
0.0
11
245.3064
21
96.2193
31
0.0
0
LINE
8
CUT
10
245.3064
20
96.2193
30
0.0
11
242.3270
21
102.9691
31
0.0
0
LINE
8
CUT
10
242.3270
20
102.9691
30
0.0
11
239.1275
21
109.4779
31
0.0
0
LINE
8
CUT
10
239.1275
20
109.4779
30
0.0
11
235.7190
21
115.7044
31
0.0
0
LINE
8
CUT
10
235.7190
20
115.7044
30
0.0
11
232.1126
21
121.6069
31
0.0
0
LINE
8
CUT
10
232.1126
20
121.6069
30
0.0
11
228.3194
21
127.1441
31
0.0
0
LINE
8
CUT
10
228.3194
20
127.1441
30
0.0
11
224.3504
21
132.2745
31
0.0
0
LINE
8
CUT
10
224.3504
20
132.2745
30
0.0
11
220.2168
21
136.9566
31
0.0
0
LINE
8
CUT
10
220.2168
20
136.9566
30
0.0
11
215.9296
21
141.1490
31
0.0
0
LINE
8
CUT
10
215.9296
20
141.1490
30
0.0
11
211.4999
21
144.8101
31
0.0
0
LINE
8
CUT
10
211.4999
20
144.8101
30
0.0
11
206.9389
21
147.8986
31
0.0
0
LINE
8
CUT
10
206.9389
20
147.8986
30
0.0
11
202.2574
21
150.3729
31
0.0
0
LINE
8
CUT
10
202.2574
20
150.3729
30
0.0
11
197.4668
21
152.1916
31
0.0
0
LINE
8
CUT
10
197.4668
20
152.1916
30
0.0
11
192.5779
21
153.3133
31
0.0
0
LINE
8
CUT
10
192.5779
20
153.3133
30
0.0
11
187.6020
21
153.6964
31
0.0
0
LINE
8
CUT
10
187.6020
20
153.6964
30
0.0
11
178.2219
21
153.6964
31
0.0
0
LINE
8
CUT
10
178.2219
20
153.6964
30
0.0
11
168.8418
21
153.6964
31
0.0
0
LINE
8
CUT
10
168.8418
20
153.6964
30
0.0
11
159.4617
21
153.6964
31
0.0
0
LINE
8
CUT
10
159.4617
20
153.6964
30
0.0
11
150.0816
21
153.6964
31
0.0
0
LINE
8
CUT
10
150.0816
20
153.6964
30
0.0
11
140.7015
21
153.6964
31
0.0
0
LINE
8
CUT
10
140.7015
20
153.6964
30
0.0
11
131.3214
21
153.6964
31
0.0
0
LINE
8
CUT
10
131.3214
20
153.6964
30
0.0
11
121.9413
21
153.6964
31
0.0
0
LINE
8
CUT
10
121.9413
20
153.6964
30
0.0
11
112.5612
21
153.6964
31
0.0
0
LINE
8
CUT
10
112.5612
20
153.6964
30
0.0
11
103.1811
21
153.6964
31
0.0
0
LINE
8
CUT
10
103.1811
20
153.6964
30
0.0
11
93.8010
21
153.6964
31
0.0
0
LINE
8
CUT
10
93.8010
20
153.6964
30
0.0
11
84.4209
21
153.6964
31
0.0
0
LINE
8
CUT
10
84.4209
20
153.6964
30
0.0
11
75.0408
21
153.6964
31
0.0
0
LINE
8
CUT
10
75.0408
20
153.6964
30
0.0
11
65.6607
21
153.6964
31
0.0
0
LINE
8
CUT
10
65.6607
20
153.6964
30
0.0
11
56.2806
21
153.6964
31
0.0
0
LINE
8
CUT
10
56.2806
20
153.6964
30
0.0
11
46.9005
21
153.6964
31
0.0
0
LINE
8
CUT
10
46.9005
20
153.6964
30
0.0
11
37.5204
21
153.6964
31
0.0
0
LINE
8
CUT
10
37.5204
20
153.6964
30
0.0
11
28.1403
21
153.6964
31
0.0
0
LINE
8
CUT
10
28.1403
20
153.6964
30
0.0
11
18.7602
21
153.6964
31
0.0
0
LINE
8
CUT
10
18.7602
20
153.6964
30
0.0
11
9.3801
21
153.6964
31
0.0
0
LINE
8
CUT
10
9.3801
20
153.6964
30
0.0
11
0.0000
21
153.6964
31
0.0
0
LINE
8
CUT
10
0.0000
20
153.6964
30
0.0
11
-0.0000
21
153.6964
31
0.0
0
LINE
8
CUT
10
-0.0000
20
153.6964
30
0.0
11
-9.3801
21
153.6964
31
0.0
0
LINE
8
CUT
10
-9.3801
20
153.6964
30
0.0
11
-18.7602
21
153.6964
31
0.0
0
LINE
8
CUT
10
-18.7602
20
153.6964
30
0.0
11
-28.1403
21
153.6964
31
0.0
0
LINE
8
CUT
10
-28.1403
20
153.6964
30
0.0
11
-37.5204
21
153.6964
31
0.0
0
LINE
8
CUT
10
-37.5204
20
153.6964
30
0.0
11
-46.9005
21
153.6964
31
0.0
0
LINE
8
CUT
10
-46.9005
20
153.6964
30
0.0
11
-56.2806
21
153.6964
31
0.0
0
LINE
8
CUT
10
-56.2806
20
153.6964
30
0.0
11
-65.6607
21
153.6964
31
0.0
0
LINE
8
CUT
10
-65.6607
20
153.6964
30
0.0
11
-75.0408
21
153.6964
31
0.0
0
LINE
8
CUT
10
-75.0408
20
153.6964
30
0.0
11
-84.4209
21
153.6964
31
0.0
0
LINE
8
CUT
10
-84.4209
20
153.6964
30
0.0
11
-93.8010
21
153.6964
31
0.0
0
LINE
8
CUT
10
-93.8010
20
153.6964
30
0.0
11
-103.1811
21
153.6964
31
0.0
0
LINE
8
CUT
10
-103.1811
20
153.6964
30
0.0
11
-112.5612
21
153.6964
31
0.0
0
LINE
8
CUT
10
-112.5612
20
153.6964
30
0.0
11
-121.9413
21
153.6964
31
0.0
0
LINE
8
CUT
10
-121.9413
20
153.6964
30
0.0
11
-131.3214
21
153.6964
31
0.0
0
LINE
8
CUT
10
-131.3214
20
153.6964
30
0.0
11
-140.7015
21
153.6964
31
0.0
0
LINE
8
CUT
10
-140.7015
20
153.6964
30
0.0
11
-150.0816
21
153.6964
31
0.0
0
LINE
8
CUT
10
-150.0816
20
153.6964
30
0.0
11
-159.4617
21
153.6964
31
0.0
0
LINE
8
CUT
10
-159.4617
20
153.6964
30
0.0
11
-168.8418
21
153.6964
31
0.0
0
LINE
8
CUT
10
-168.8418
20
153.6964
30
0.0
11
-178.2219
21
153.6964
31
0.0
0
LINE
8
CUT
10
-178.2219
20
153.6964
30
0.0
11
-187.6020
21
153.6964
31
0.0
0
LINE
8
CUT
10
-187.6020
20
153.6964
30
0.0
11
-192.5779
21
153.3133
31
0.0
0
LINE
8
CUT
10
-192.5779
20
153.3133
30
0.0
11
-197.4668
21
152.1916
31
0.0
0
LINE
8
CUT
10
-197.4668
20
152.1916
30
0.0
11
-202.2574
21
150.3729
31
0.0
0
LINE
8
CUT
10
-202.2574
20
150.3729
30
0.0
11
-206.9389
21
147.8986
31
0.0
0
LINE
8
CUT
10
-206.9389
20
147.8986
30
0.0
11
-211.4999
21
144.8101
31
0.0
0
LINE
8
CUT
10
-211.4999
20
144.8101
30
0.0
11
-215.9296
21
141.1490
31
0.0
0
LINE
8
CUT
10
-215.9296
20
141.1490
30
0.0
11
-220.2168
21
136.9566
31
0.0
0
LINE
8
CUT
10
-220.2168
20
136.9566
30
0.0
11
-224.3504
21
132.2745
31
0.0
0
LINE
8
CUT
10
-224.3504
20
132.2745
30
0.0
11
-228.3194
21
127.1441
31
0.0
0
LINE
8
CUT
10
-228.3194
20
127.1441
30
0.0
11
-232.1126
21
121.6069
31
0.0
0
LINE
8
CUT
10
-232.1126
20
121.6069
30
0.0
11
-235.7190
21
115.7044
31
0.0
0
LINE
8
CUT
10
-235.7190
20
115.7044
30
0.0
11
-239.1275
21
109.4779
31
0.0
0
LINE
8
CUT
10
-239.1275
20
109.4779
30
0.0
11
-242.3270
21
102.9691
31
0.0
0
LINE
8
CUT
10
-242.3270
20
102.9691
30
0.0
11
-245.3064
21
96.2193
31
0.0
0
LINE
8
CUT
10
-245.3064
20
96.2193
30
0.0
11
-248.0546
21
89.2700
31
0.0
0
LINE
8
CUT
10
-248.0546
20
89.2700
30
0.0
11
-250.5607
21
82.1627
31
0.0
0
LINE
8
CUT
10
-250.5607
20
82.1627
30
0.0
11
-252.8134
21
74.9388
31
0.0
0
LINE
8
CUT
10
-252.8134
20
74.9388
30
0.0
11
-254.8017
21
67.6399
31
0.0
0
LINE
8
CUT
10
-254.8017
20
67.6399
30
0.0
11
-256.5145
21
60.3073
31
0.0
0
LINE
8
CUT
10
-256.5145
20
60.3073
30
0.0
11
-257.9407
21
52.9826
31
0.0
0
LINE
8
CUT
10
-257.9407
20
52.9826
30
0.0
11
-259.0693
21
45.7071
31
0.0
0
LINE
8
CUT
10
-259.0693
20
45.7071
30
0.0
11
-259.8892
21
38.5225
31
0.0
0
LINE
8
CUT
10
-259.8892
20
38.5225
30
0.0
11
-260.3893
21
31.4701
31
0.0
0
LINE
8
CUT
10
-260.3893
20
31.4701
30
0.0
11
-260.5584
21
24.5914
31
0.0
0
LINE
8
CUT
10
-260.5584
20
24.5914
30
0.0
11
-260.3268
21
23.1611
31
0.0
0
LINE
8
CUT
10
-260.3268
20
23.1611
30
0.0
11
-259.6640
21
21.9209
31
0.0
0
LINE
8
CUT
10
-259.6640
20
21.9209
30
0.0
11
-258.6174
21
20.8386
31
0.0
0
LINE
8
CUT
10
-258.6174
20
20.8386
30
0.0
11
-257.2348
21
19.8817
31
0.0
0
LINE
8
CUT
10
-257.2348
20
19.8817
30
0.0
11
-255.5639
21
19.0179
31
0.0
0
LINE
8
CUT
10
-255.5639
20
19.0179
30
0.0
11
-253.6524
21
18.2149
31
0.0
0
LINE
8
CUT
10
-253.6524
20
18.2149
30
0.0
11
-251.5478
21
17.4404
31
0.0
0
LINE
8
CUT
10
-251.5478
20
17.4404
30
0.0
11
-249.2979
21
16.6619
31
0.0
0
LINE
8
CUT
10
-249.2979
20
16.6619
30
0.0
11
-246.9503
21
15.8473
31
0.0
0
LINE
8
CUT
10
-246.9503
20
15.8473
30
0.0
11
-244.5527
21
14.9640
31
0.0
0
LINE
8
CUT
10
-244.5527
20
14.9640
30
0.0
11
-242.1528
21
13.9799
31
0.0
0
LINE
8
CUT
10
-242.1528
20
13.9799
30
0.0
11
-239.7981
21
12.8625
31
0.0
0
LINE
8
CUT
10
-239.7981
20
12.8625
30
0.0
11
-237.5365
21
11.5795
31
0.0
0
LINE
8
CUT
10
-237.5365
20
11.5795
30
0.0
11
-235.4155
21
10.0986
31
0.0
0
LINE
8
CUT
10
-235.4155
20
10.0986
30
0.0
11
-233.4828
21
8.3874
31
0.0
0
LINE
8
CUT
10
-233.4828
20
8.3874
30
0.0
11
-231.7861
21
6.4136
31
0.0
0
LINE
8
CUT
10
-231.7861
20
6.4136
30
0.0
11
-230.3731
21
4.1448
31
0.0
0
LINE
8
CUT
10
-230.3731
20
4.1448
30
0.0
11
-229.2914
21
1.5488
31
0.0
0
LINE
8
CUT
10
-229.2914
20
1.5488
30
0.0
11
-217.2234
21
1.3901
31
0.0
0
LINE
8
CUT
10
-217.2234
20
1.3901
30
0.0
11
-205.1555
21
1.2399
31
0.0
0
LINE
8
CUT
10
-205.1555
20
1.2399
30
0.0
11
-193.0875
21
1.0983
31
0.0
0
LINE
8
CUT
10
-193.0875
20
1.0983
30
0.0
11
-181.0195
21
0.9653
31
0.0
0
LINE
8
CUT
10
-181.0195
20
0.9653
30
0.0
11
-168.9515
21
0.8409
31
0.0
0
LINE
8
CUT
10
-168.9515
20
0.8409
30
0.0
11
-156.8836
21
0.7251
31
0.0
0
LINE
8
CUT
10
-156.8836
20
0.7251
30
0.0
11
-144.8156
21
0.6178
31
0.0
0
LINE
8
CUT
10
-144.8156
20
0.6178
30
0.0
11
-132.7476
21
0.5191
31
0.0
0
LINE
8
CUT
10
-132.7476
20
0.5191
30
0.0
11
-120.6797
21
0.4290
31
0.0
0
LINE
8
CUT
10
-120.6797
20
0.4290
30
0.0
11
-108.6117
21
0.3475
31
0.0
0
LINE
8
CUT
10
-108.6117
20
0.3475
30
0.0
11
-96.5437
21
0.2746
31
0.0
0
LINE
8
CUT
10
-96.5437
20
0.2746
30
0.0
11
-84.4758
21
0.2102
31
0.0
0
LINE
8
CUT
10
-84.4758
20
0.2102
30
0.0
11
-72.4078
21
0.1545
31
0.0
0
LINE
8
CUT
10
-72.4078
20
0.1545
30
0.0
11
-60.3398
21
0.1073
31
0.0
0
LINE
8
CUT
10
-60.3398
20
0.1073
30
0.0
11
-48.2719
21
0.0686
31
0.0
0
LINE
8
CUT
10
-48.2719
20
0.0686
30
0.0
11
-36.2039
21
0.0386
31
0.0
0
LINE
8
CUT
10
-36.2039
20
0.0386
30
0.0
11
-24.1359
21
0.0172
31
0.0
0
LINE
8
CUT
10
-24.1359
20
0.0172
30
0.0
11
-12.0680
21
0.0043
31
0.0
0
LINE
8
CUT
10
-12.0680
20
0.0043
30
0.0
11
-0.0000
21
0.0000
31
0.0
0
LINE
8
CUT
10
-0.0000
20
0.0000
30
0.0
11
0.0000
21
0.0000
31
0.0
0
LINE
8
REG
10
0.0000
20
-20.0000
30
0.0
11
0.0000
21
173.6964
31
0.0
0
ENDSEC
0
EOF
