0
SECTION
2
ENTITIES
0
LINE
8
CUT
10
0.0000
20
2.8800
30
0.0
11
9.5945
21
2.8843
31
0.0
0
LINE
8
CUT
10
9.5945
20
2.8843
30
0.0
11
19.1889
21
2.8972
31
0.0
0
LINE
8
CUT
10
19.1889
20
2.8972
30
0.0
11
28.7834
21
2.9186
31
0.0
0
LINE
8
CUT
10
28.7834
20
2.9186
30
0.0
11
38.3779
21
2.9486
31
0.0
0
LINE
8
CUT
10
38.3779
20
2.9486
30
0.0
11
47.9724
21
2.9873
31
0.0
0
LINE
8
CUT
10
47.9724
20
2.9873
30
0.0
11
57.5668
21
3.0345
31
0.0
0
LINE
8
CUT
10
57.5668
20
3.0345
30
0.0
11
67.1613
21
3.0902
31
0.0
0
LINE
8
CUT
10
67.1613
20
3.0902
30
0.0
11
76.7558
21
3.1546
31
0.0
0
LINE
8
CUT
10
76.7558
20
3.1546
30
0.0
11
86.3503
21
3.2275
31
0.0
0
LINE
8
CUT
10
86.3503
20
3.2275
30
0.0
11
95.9447
21
3.3090
31
0.0
0
LINE
8
CUT
10
95.9447
20
3.3090
30
0.0
11
105.5392
21
3.3991
31
0.0
0
LINE
8
CUT
10
105.5392
20
3.3991
30
0.0
11
115.1337
21
3.4978
31
0.0
0
LINE
8
CUT
10
115.1337
20
3.4978
30
0.0
11
124.7282
21
3.6051
31
0.0
0
LINE
8
CUT
10
124.7282
20
3.6051
30
0.0
11
134.3226
21
3.7209
31
0.0
0
LINE
8
CUT
10
134.3226
20
3.7209
30
0.0
11
143.9171
21
3.8453
31
0.0
0
LINE
8
CUT
10
143.9171
20
3.8453
30
0.0
11
153.5116
21
3.9783
31
0.0
0
LINE
8
CUT
10
153.5116
20
3.9783
30
0.0
11
163.1061
21
4.1199
31
0.0
0
LINE
8
CUT
10
163.1061
20
4.1199
30
0.0
11
172.7005
21
4.2701
31
0.0
0
LINE
8
CUT
10
172.7005
20
4.2701
30
0.0
11
182.2950
21
4.4288
31
0.0
0
LINE
8
CUT
10
182.2950
20
4.4288
30
0.0
11
183.2020
21
6.6570
31
0.0
0
LINE
8
CUT
10
183.2020
20
6.6570
30
0.0
11
184.3617
21
8.6291
31
0.0
0
LINE
8
CUT
10
184.3617
20
8.6291
30
0.0
11
185.7371
21
10.3709
31
0.0
0
LINE
8
CUT
10
185.7371
20
10.3709
30
0.0
11
187.2914
21
11.9082
31
0.0
0
LINE
8
CUT
10
187.2914
20
11.9082
30
0.0
11
188.9876
21
13.2667
31
0.0
0
LINE
8
CUT
10
188.9876
20
13.2667
30
0.0
11
190.7887
21
14.4720
31
0.0
0
LINE
8
CUT
10
190.7887
20
14.4720
30
0.0
11
192.6580
21
15.5500
31
0.0
0
LINE
8
CUT
10
192.6580
20
15.5500
30
0.0
11
194.5584
21
16.5265
31
0.0
0
LINE
8
CUT
10
194.5584
20
16.5265
30
0.0
11
196.4530
21
17.4270
31
0.0
0
LINE
8
CUT
10
196.4530
20
17.4270
30
0.0
11
198.3050
21
18.2774
31
0.0
0
LINE
8
CUT
10
198.3050
20
18.2774
30
0.0
11
200.0773
21
19.1034
31
0.0
0
LINE
8
CUT
10
200.0773
20
19.1034
30
0.0
11
201.7331
21
19.9308
31
0.0
0
LINE
8
CUT
10
201.7331
20
19.9308
30
0.0
11
203.2355
21
20.7852
31
0.0
0
LINE
8
CUT
10
203.2355
20
20.7852
30
0.0
11
204.5475
21
21.6924
31
0.0
0
LINE
8
CUT
10
204.5475
20
21.6924
30
0.0
11
205.6322
21
22.6783
31
0.0
0
LINE
8
CUT
10
205.6322
20
22.6783
30
0.0
11
206.4527
21
23.7684
31
0.0
0
LINE
8
CUT
10
206.4527
20
23.7684
30
0.0
11
206.9721
21
24.9885
31
0.0
0
LINE
8
CUT
10
206.9721
20
24.9885
30
0.0
11
207.1534
21
26.3644
31
0.0
0
LINE
8
CUT
10
207.1534
20
26.3644
30
0.0
11
207.0189
21
32.9334
31
0.0
0
LINE
8
CUT
10
207.0189
20
32.9334
30
0.0
11
206.6214
21
39.6684
31
0.0
0
LINE
8
CUT
10
206.6214
20
39.6684
30
0.0
11
205.9696
21
46.5296
31
0.0
0
LINE
8
CUT
10
205.9696
20
46.5296
30
0.0
11
205.0723
21
53.4775
31
0.0
0
LINE
8
CUT
10
205.0723
20
53.4775
30
0.0
11
203.9384
21
60.4725
31
0.0
0
LINE
8
CUT
10
203.9384
20
60.4725
30
0.0
11
202.5766
21
67.4750
31
0.0
0
LINE
8
CUT
10
202.5766
20
67.4750
30
0.0
11
200.9958
21
74.4453
31
0.0
0
LINE
8
CUT
10
200.9958
20
74.4453
30
0.0
11
199.2049
21
81.3440
31
0.0
0
LINE
8
CUT
10
199.2049
20
81.3440
30
0.0
11
197.2125
21
88.1314
31
0.0
0
LINE
8
CUT
10
197.2125
20
88.1314
30
0.0
11
195.0275
21
94.7678
31
0.0
0
LINE
8
CUT
10
195.0275
20
94.7678
30
0.0
11
192.6588
21
101.2138
31
0.0
0
LINE
8
CUT
10
192.6588
20
101.2138
30
0.0
11
190.1150
21
107.4296
31
0.0
0
LINE
8
CUT
10
190.1150
20
107.4296
30
0.0
11
187.4052
21
113.3758
31
0.0
0
LINE
8
CUT
10
187.4052
20
113.3758
30
0.0
11
184.5380
21
119.0126
31
0.0
0
LINE
8
CUT
10
184.5380
20
119.0126
30
0.0
11
181.5222
21
124.3006
31
0.0
0
LINE
8
CUT
10
181.5222
20
124.3006
30
0.0
11
178.3668
21
129.2000
31
0.0
0
LINE
8
CUT
10
178.3668
20
129.2000
30
0.0
11
175.0804
21
133.6714
31
0.0
0
LINE
8
CUT
10
175.0804
20
133.6714
30
0.0
11
171.6719
21
137.6750
31
0.0
0
LINE
8
CUT
10
171.6719
20
137.6750
30
0.0
11
168.1502
21
141.1713
31
0.0
0
LINE
8
CUT
10
168.1502
20
141.1713
30
0.0
11
164.5239
21
144.1208
31
0.0
0
LINE
8
CUT
10
164.5239
20
144.1208
30
0.0
11
160.8020
21
146.4837
31
0.0
0
LINE
8
CUT
10
160.8020
20
146.4837
30
0.0
11
156.9933
21
148.2206
31
0.0
0
LINE
8
CUT
10
156.9933
20
148.2206
30
0.0
11
153.1065
21
149.2917
31
0.0
0
LINE
8
CUT
10
153.1065
20
149.2917
30
0.0
11
149.1505
21
149.6576
31
0.0
0
LINE
8
CUT
10
149.1505
20
149.6576
30
0.0
11
141.6929
21
149.6576
31
0.0
0
LINE
8
CUT
10
141.6929
20
149.6576
30
0.0
11
134.2354
21
149.6576
31
0.0
0
LINE
8
CUT
10
134.2354
20
149.6576
30
0.0
11
126.7779
21
149.6576
31
0.0
0
LINE
8
CUT
10
126.7779
20
149.6576
30
0.0
11
119.3204
21
149.6576
31
0.0
0
LINE
8
CUT
10
119.3204
20
149.6576
30
0.0
11
111.8628
21
149.6576
31
0.0
0
LINE
8
CUT
10
111.8628
20
149.6576
30
0.0
11
104.4053
21
149.6576
31
0.0
0
LINE
8
CUT
10
104.4053
20
149.6576
30
0.0
11
96.9478
21
149.6576
31
0.0
0
LINE
8
CUT
10
96.9478
20
149.6576
30
0.0
11
89.4903
21
149.6576
31
0.0
0
LINE
8
CUT
10
89.4903
20
149.6576
30
0.0
11
82.0328
21
149.6576
31
0.0
0
LINE
8
CUT
10
82.0328
20
149.6576
30
0.0
11
74.5752
21
149.6576
31
0.0
0
LINE
8
CUT
10
74.5752
20
149.6576
30
0.0
11
67.1177
21
149.6576
31
0.0
0
LINE
8
CUT
10
67.1177
20
149.6576
30
0.0
11
59.6602
21
149.6576
31
0.0
0
LINE
8
CUT
10
59.6602
20
149.6576
30
0.0
11
52.2027
21
149.6576
31
0.0
0
LINE
8
CUT
10
52.2027
20
149.6576
30
0.0
11
44.7451
21
149.6576
31
0.0
0
LINE
8
CUT
10
44.7451
20
149.6576
30
0.0
11
37.2876
21
149.6576
31
0.0
0
LINE
8
CUT
10
37.2876
20
149.6576
30
0.0
11
29.8301
21
149.6576
31
0.0
0
LINE
8
CUT
10
29.8301
20
149.6576
30
0.0
11
22.3726
21
149.6576
31
0.0
0
LINE
8
CUT
10
22.3726
20
149.6576
30
0.0
11
14.9150
21
149.6576
31
0.0
0
LINE
8
CUT
10
14.9150
20
149.6576
30
0.0
11
7.4575
21
149.6576
31
0.0
0
LINE
8
CUT
10
7.4575
20
149.6576
30
0.0
11
0.0000
21
149.6576
31
0.0
0
LINE
8
CUT
10
0.0000
20
149.6576
30
0.0
11
-0.0000
21
149.6576
31
0.0
0
LINE
8
CUT
10
-0.0000
20
149.6576
30
0.0
11
-7.4575
21
149.6576
31
0.0
0
LINE
8
CUT
10
-7.4575
20
149.6576
30
0.0
11
-14.9150
21
149.6576
31
0.0
0
LINE
8
CUT
10
-14.9150
20
149.6576
30
0.0
11
-22.3726
21
149.6576
31
0.0
0
LINE
8
CUT
10
-22.3726
20
149.6576
30
0.0
11
-29.8301
21
149.6576
31
0.0
0
LINE
8
CUT
10
-29.8301
20
149.6576
30
0.0
11
-37.2876
21
149.6576
31
0.0
0
LINE
8
CUT
10
-37.2876
20
149.6576
30
0.0
11
-44.7451
21
149.6576
31
0.0
0
LINE
8
CUT
10
-44.7451
20
149.6576
30
0.0
11
-52.2027
21
149.6576
31
0.0
0
LINE
8
CUT
10
-52.2027
20
149.6576
30
0.0
11
-59.6602
21
149.6576
31
0.0
0
LINE
8
CUT
10
-59.6602
20
149.6576
30
0.0
11
-67.1177
21
149.6576
31
0.0
0
LINE
8
CUT
10
-67.1177
20
149.6576
30
0.0
11
-74.5752
21
149.6576
31
0.0
0
LINE
8
CUT
10
-74.5752
20
149.6576
30
0.0
11
-82.0328
21
149.6576
31
0.0
0
LINE
8
CUT
10
-82.0328
20
149.6576
30
0.0
11
-89.4903
21
149.6576
31
0.0
0
LINE
8
CUT
10
-89.4903
20
149.6576
30
0.0
11
-96.9478
21
149.6576
31
0.0
0
LINE
8
CUT
10
-96.9478
20
149.6576
30
0.0
11
-104.4053
21
149.6576
31
0.0
0
LINE
8
CUT
10
-104.4053
20
149.6576
30
0.0
11
-111.8628
21
149.6576
31
0.0
0
LINE
8
CUT
10
-111.8628
20
149.6576
30
0.0
11
-119.3204
21
149.6576
31
0.0
0
LINE
8
CUT
10
-119.3204
20
149.6576
30
0.0
11
-126.7779
21
149.6576
31
0.0
0
LINE
8
CUT
10
-126.7779
20
149.6576
30
0.0
11
-134.2354
21
149.6576
31
0.0
0
LINE
8
CUT
10
-134.2354
20
149.6576
30
0.0
11
-141.6929
21
149.6576
31
0.0
0
LINE
8
CUT
10
-141.6929
20
149.6576
30
0.0
11
-149.1505
21
149.6576
31
0.0
0
LINE
8
CUT
10
-149.1505
20
149.6576
30
0.0
11
-153.1065
21
149.2917
31
0.0
0
LINE
8
CUT
10
-153.1065
20
149.2917
30
0.0
11
-156.9933
21
148.2206
31
0.0
0
LINE
8
CUT
10
-156.9933
20
148.2206
30
0.0
11
-160.8020
21
146.4837
31
0.0
0
LINE
8
CUT
10
-160.8020
20
146.4837
30
0.0
11
-164.5239
21
144.1208
31
0.0
0
LINE
8
CUT
10
-164.5239
20
144.1208
30
0.0
11
-168.1502
21
141.1713
31
0.0
0
LINE
8
CUT
10
-168.1502
20
141.1713
30
0.0
11
-171.6719
21
137.6750
31
0.0
0
LINE
8
CUT
10
-171.6719
20
137.6750
30
0.0
11
-175.0804
21
133.6714
31
0.0
0
LINE
8
CUT
10
-175.0804
20
133.6714
30
0.0
11
-178.3668
21
129.2000
31
0.0
0
LINE
8
CUT
10
-178.3668
20
129.2000
30
0.0
11
-181.5222
21
124.3006
31
0.0
0
LINE
8
CUT
10
-181.5222
20
124.3006
30
0.0
11
-184.5380
21
119.0126
31
0.0
0
LINE
8
CUT
10
-184.5380
20
119.0126
30
0.0
11
-187.4052
21
113.3758
31
0.0
0
LINE
8
CUT
10
-187.4052
20
113.3758
30
0.0
11
-190.1150
21
107.4296
31
0.0
0
LINE
8
CUT
10
-190.1150
20
107.4296
30
0.0
11
-192.6588
21
101.2138
31
0.0
0
LINE
8
CUT
10
-192.6588
20
101.2138
30
0.0
11
-195.0275
21
94.7678
31
0.0
0
LINE
8
CUT
10
-195.0275
20
94.7678
30
0.0
11
-197.2125
21
88.1314
31
0.0
0
LINE
8
CUT
10
-197.2125
20
88.1314
30
0.0
11
-199.2049
21
81.3440
31
0.0
0
LINE
8
CUT
10
-199.2049
20
81.3440
30
0.0
11
-200.9958
21
74.4453
31
0.0
0
LINE
8
CUT
10
-200.9958
20
74.4453
30
0.0
11
-202.5766
21
67.4750
31
0.0
0
LINE
8
CUT
10
-202.5766
20
67.4750
30
0.0
11
-203.9384
21
60.4725
31
0.0
0
LINE
8
CUT
10
-203.9384
20
60.4725
30
0.0
11
-205.0723
21
53.4775
31
0.0
0
LINE
8
CUT
10
-205.0723
20
53.4775
30
0.0
11
-205.9696
21
46.5296
31
0.0
0
LINE
8
CUT
10
-205.9696
20
46.5296
30
0.0
11
-206.6214
21
39.6684
31
0.0
0
LINE
8
CUT
10
-206.6214
20
39.6684
30
0.0
11
-207.0189
21
32.9334
31
0.0
0
LINE
8
CUT
10
-207.0189
20
32.9334
30
0.0
11
-207.1534
21
26.3644
31
0.0
0
LINE
8
CUT
10
-207.1534
20
26.3644
30
0.0
11
-206.9721
21
24.9885
31
0.0
0
LINE
8
CUT
10
-206.9721
20
24.9885
30
0.0
11
-206.4527
21
23.7684
31
0.0
0
LINE
8
CUT
10
-206.4527
20
23.7684
30
0.0
11
-205.6322
21
22.6783
31
0.0
0
LINE
8
CUT
10
-205.6322
20
22.6783
30
0.0
11
-204.5475
21
21.6924
31
0.0
0
LINE
8
CUT
10
-204.5475
20
21.6924
30
0.0
11
-203.2355
21
20.7852
31
0.0
0
LINE
8
CUT
10
-203.2355
20
20.7852
30
0.0
11
-201.7331
21
19.9308
31
0.0
0
LINE
8
CUT
10
-201.7331
20
19.9308
30
0.0
11
-200.0773
21
19.1034
31
0.0
0
LINE
8
CUT
10
-200.0773
20
19.1034
30
0.0
11
-198.3050
21
18.2774
31
0.0
0
LINE
8
CUT
10
-198.3050
20
18.2774
30
0.0
11
-196.4530
21
17.4270
31
0.0
0
LINE
8
CUT
10
-196.4530
20
17.4270
30
0.0
11
-194.5584
21
16.5265
31
0.0
0
LINE
8
CUT
10
-194.5584
20
16.5265
30
0.0
11
-192.6580
21
15.5500
31
0.0
0
LINE
8
CUT
10
-192.6580
20
15.5500
30
0.0
11
-190.7887
21
14.4720
31
0.0
0
LINE
8
CUT
10
-190.7887
20
14.4720
30
0.0
11
-188.9876
21
13.2667
31
0.0
0
LINE
8
CUT
10
-188.9876
20
13.2667
30
0.0
11
-187.2914
21
11.9082
31
0.0
0
LINE
8
CUT
10
-187.2914
20
11.9082
30
0.0
11
-185.7371
21
10.3709
31
0.0
0
LINE
8
CUT
10
-185.7371
20
10.3709
30
0.0
11
-184.3617
21
8.6291
31
0.0
0
LINE
8
CUT
10
-184.3617
20
8.6291
30
0.0
11
-183.2020
21
6.6570
31
0.0
0
LINE
8
CUT
10
-183.2020
20
6.6570
30
0.0
11
-182.2950
21
4.4288
31
0.0
0
LINE
8
CUT
10
-182.2950
20
4.4288
30
0.0
11
-172.7005
21
4.2701
31
0.0
0
LINE
8
CUT
10
-172.7005
20
4.2701
30
0.0
11
-163.1061
21
4.1199
31
0.0
0
LINE
8
CUT
10
-163.1061
20
4.1199
30
0.0
11
-153.5116
21
3.9783
31
0.0
0
LINE
8
CUT
10
-153.5116
20
3.9783
30
0.0
11
-143.9171
21
3.8453
31
0.0
0
LINE
8
CUT
10
-143.9171
20
3.8453
30
0.0
11
-134.3226
21
3.7209
31
0.0
0
LINE
8
CUT
10
-134.3226
20
3.7209
30
0.0
11
-124.7282
21
3.6051
31
0.0
0
LINE
8
CUT
10
-124.7282
20
3.6051
30
0.0
11
-115.1337
21
3.4978
31
0.0
0
LINE
8
CUT
10
-115.1337
20
3.4978
30
0.0
11
-105.5392
21
3.3991
31
0.0
0
LINE
8
CUT
10
-105.5392
20
3.3991
30
0.0
11
-95.9447
21
3.3090
31
0.0
0
LINE
8
CUT
10
-95.9447
20
3.3090
30
0.0
11
-86.3503
21
3.2275
31
0.0
0
LINE
8
CUT
10
-86.3503
20
3.2275
30
0.0
11
-76.7558
21
3.1546
31
0.0
0
LINE
8
CUT
10
-76.7558
20
3.1546
30
0.0
11
-67.1613
21
3.0902
31
0.0
0
LINE
8
CUT
10
-67.1613
20
3.0902
30
0.0
11
-57.5668
21
3.0345
31
0.0
0
LINE
8
CUT
10
-57.5668
20
3.0345
30
0.0
11
-47.9724
21
2.9873
31
0.0
0
LINE
8
CUT
10
-47.9724
20
2.9873
30
0.0
11
-38.3779
21
2.9486
31
0.0
0
LINE
8
CUT
10
-38.3779
20
2.9486
30
0.0
11
-28.7834
21
2.9186
31
0.0
0
LINE
8
CUT
10
-28.7834
20
2.9186
30
0.0
11
-19.1889
21
2.8972
31
0.0
0
LINE
8
CUT
10
-19.1889
20
2.8972
30
0.0
11
-9.5945
21
2.8843
31
0.0
0
LINE
8
CUT
10
-9.5945
20
2.8843
30
0.0
11
-0.0000
21
2.8800
31
0.0
0
LINE
8
CUT
10
-0.0000
20
2.8800
30
0.0
11
0.0000
21
2.8800
31
0.0
0
LINE
8
REG
10
0.0000
20
-20.0000
30
0.0
11
0.0000
21
169.6576
31
0.0
0
ENDSEC
0
EOF
