0
SECTION
2
ENTITIES
0
LINE
8
CUT
10
0.0000
20
49.8488
30
0.0
11
8.9816
21
49.8531
31
0.0
0
LINE
8
CUT
10
8.9816
20
49.8531
30
0.0
11
17.9632
21
49.8659
31
0.0
0
LINE
8
CUT
10
17.9632
20
49.8659
30
0.0
11
26.9448
21
49.8874
31
0.0
0
LINE
8
CUT
10
26.9448
20
49.8874
30
0.0
11
35.9265
21
49.9174
31
0.0
0
LINE
8
CUT
10
35.9265
20
49.9174
30
0.0
11
44.9081
21
49.9560
31
0.0
0
LINE
8
CUT
10
44.9081
20
49.9560
30
0.0
11
53.8897
21
50.0032
31
0.0
0
LINE
8
CUT
10
53.8897
20
50.0032
30
0.0
11
62.8713
21
50.0590
31
0.0
0
LINE
8
CUT
10
62.8713
20
50.0590
30
0.0
11
71.8529
21
50.1233
31
0.0
0
LINE
8
CUT
10
71.8529
20
50.1233
30
0.0
11
80.8345
21
50.1963
31
0.0
0
LINE
8
CUT
10
80.8345
20
50.1963
30
0.0
11
89.8161
21
50.2778
31
0.0
0
LINE
8
CUT
10
89.8161
20
50.2778
30
0.0
11
98.7977
21
50.3679
31
0.0
0
LINE
8
CUT
10
98.7977
20
50.3679
30
0.0
11
107.7794
21
50.4666
31
0.0
0
LINE
8
CUT
10
107.7794
20
50.4666
30
0.0
11
116.7610
21
50.5738
31
0.0
0
LINE
8
CUT
10
116.7610
20
50.5738
30
0.0
11
125.7426
21
50.6897
31
0.0
0
LINE
8
CUT
10
125.7426
20
50.6897
30
0.0
11
134.7242
21
50.8141
31
0.0
0
LINE
8
CUT
10
134.7242
20
50.8141
30
0.0
11
143.7058
21
50.9471
31
0.0
0
LINE
8
CUT
10
143.7058
20
50.9471
30
0.0
11
152.6874
21
51.0887
31
0.0
0
LINE
8
CUT
10
152.6874
20
51.0887
30
0.0
11
161.6690
21
51.2388
31
0.0
0
LINE
8
CUT
10
161.6690
20
51.2388
30
0.0
11
170.6507
21
51.3976
31
0.0
0
LINE
8
CUT
10
170.6507
20
51.3976
30
0.0
11
172.7342
21
51.6155
31
0.0
0
LINE
8
CUT
10
172.7342
20
51.6155
30
0.0
11
174.7723
21
51.9655
31
0.0
0
LINE
8
CUT
10
174.7723
20
51.9655
30
0.0
11
176.7561
21
52.4373
31
0.0
0
LINE
8
CUT
10
176.7561
20
52.4373
30
0.0
11
178.6767
21
53.0206
31
0.0
0
LINE
8
CUT
10
178.6767
20
53.0206
30
0.0
11
180.5251
21
53.7053
31
0.0
0
LINE
8
CUT
10
180.5251
20
53.7053
30
0.0
11
182.2923
21
54.4811
31
0.0
0
LINE
8
CUT
10
182.2923
20
54.4811
30
0.0
11
183.9696
21
55.3377
31
0.0
0
LINE
8
CUT
10
183.9696
20
55.3377
30
0.0
11
185.5478
21
56.2649
31
0.0
0
LINE
8
CUT
10
185.5478
20
56.2649
30
0.0
11
187.0182
21
57.2526
31
0.0
0
LINE
8
CUT
10
187.0182
20
57.2526
30
0.0
11
188.3717
21
58.2904
31
0.0
0
LINE
8
CUT
10
188.3717
20
58.2904
30
0.0
11
189.5994
21
59.3682
31
0.0
0
LINE
8
CUT
10
189.5994
20
59.3682
30
0.0
11
190.6924
21
60.4757
31
0.0
0
LINE
8
CUT
10
190.6924
20
60.4757
30
0.0
11
191.6417
21
61.6026
31
0.0
0
LINE
8
CUT
10
191.6417
20
61.6026
30
0.0
11
192.4385
21
62.7388
31
0.0
0
LINE
8
CUT
10
192.4385
20
62.7388
30
0.0
11
193.0738
21
63.8740
31
0.0
0
LINE
8
CUT
10
193.0738
20
63.8740
30
0.0
11
193.5386
21
64.9980
31
0.0
0
LINE
8
CUT
10
193.5386
20
64.9980
30
0.0
11
193.8241
21
66.1005
31
0.0
0
LINE
8
CUT
10
193.8241
20
66.1005
30
0.0
11
193.9212
21
67.1713
31
0.0
0
LINE
8
CUT
10
193.9212
20
67.1713
30
0.0
11
193.7953
21
72.0168
31
0.0
0
LINE
8
CUT
10
193.7953
20
72.0168
30
0.0
11
193.4232
21
76.9846
31
0.0
0
LINE
8
CUT
10
193.4232
20
76.9846
30
0.0
11
192.8130
21
82.0455
31
0.0
0
LINE
8
CUT
10
192.8130
20
82.0455
30
0.0
11
191.9730
21
87.1704
31
0.0
0
LINE
8
CUT
10
191.9730
20
87.1704
30
0.0
11
190.9115
21
92.3301
31
0.0
0
LINE
8
CUT
10
190.9115
20
92.3301
30
0.0
11
189.6368
21
97.4952
31
0.0
0
LINE
8
CUT
10
189.6368
20
97.4952
30
0.0
11
188.1570
21
102.6367
31
0.0
0
LINE
8
CUT
10
188.1570
20
102.6367
30
0.0
11
186.4804
21
107.7253
31
0.0
0
LINE
8
CUT
10
186.4804
20
107.7253
30
0.0
11
184.6153
21
112.7318
31
0.0
0
LINE
8
CUT
10
184.6153
20
112.7318
30
0.0
11
182.5699
21
117.6270
31
0.0
0
LINE
8
CUT
10
182.5699
20
117.6270
30
0.0
11
180.3524
21
122.3816
31
0.0
0
LINE
8
CUT
10
180.3524
20
122.3816
30
0.0
11
177.9712
21
126.9666
31
0.0
0
LINE
8
CUT
10
177.9712
20
126.9666
30
0.0
11
175.4344
21
131.3526
31
0.0
0
LINE
8
CUT
10
175.4344
20
131.3526
30
0.0
11
172.7503
21
135.5104
31
0.0
0
LINE
8
CUT
10
172.7503
20
135.5104
30
0.0
11
169.9272
21
139.4109
31
0.0
0
LINE
8
CUT
10
169.9272
20
139.4109
30
0.0
11
166.9733
21
143.0248
31
0.0
0
LINE
8
CUT
10
166.9733
20
143.0248
30
0.0
11
163.8969
21
146.3230
31
0.0
0
LINE
8
CUT
10
163.8969
20
146.3230
30
0.0
11
160.7061
21
149.2761
31
0.0
0
LINE
8
CUT
10
160.7061
20
149.2761
30
0.0
11
157.4093
21
151.8551
31
0.0
0
LINE
8
CUT
10
157.4093
20
151.8551
30
0.0
11
154.0147
21
154.0306
31
0.0
0
LINE
8
CUT
10
154.0147
20
154.0306
30
0.0
11
150.5306
21
155.7736
31
0.0
0
LINE
8
CUT
10
150.5306
20
155.7736
30
0.0
11
146.9651
21
157.0547
31
0.0
0
LINE
8
CUT
10
146.9651
20
157.0547
30
0.0
11
143.3266
21
157.8448
31
0.0
0
LINE
8
CUT
10
143.3266
20
157.8448
30
0.0
11
139.6233
21
158.1147
31
0.0
0
LINE
8
CUT
10
139.6233
20
158.1147
30
0.0
11
132.6421
21
158.1147
31
0.0
0
LINE
8
CUT
10
132.6421
20
158.1147
30
0.0
11
125.6609
21
158.1147
31
0.0
0
LINE
8
CUT
10
125.6609
20
158.1147
30
0.0
11
118.6798
21
158.1147
31
0.0
0
LINE
8
CUT
10
118.6798
20
158.1147
30
0.0
11
111.6986
21
158.1147
31
0.0
0
LINE
8
CUT
10
111.6986
20
158.1147
30
0.0
11
104.7174
21
158.1147
31
0.0
0
LINE
8
CUT
10
104.7174
20
158.1147
30
0.0
11
97.7363
21
158.1147
31
0.0
0
LINE
8
CUT
10
97.7363
20
158.1147
30
0.0
11
90.7551
21
158.1147
31
0.0
0
LINE
8
CUT
10
90.7551
20
158.1147
30
0.0
11
83.7740
21
158.1147
31
0.0
0
LINE
8
CUT
10
83.7740
20
158.1147
30
0.0
11
76.7928
21
158.1147
31
0.0
0
LINE
8
CUT
10
76.7928
20
158.1147
30
0.0
11
69.8116
21
158.1147
31
0.0
0
LINE
8
CUT
10
69.8116
20
158.1147
30
0.0
11
62.8305
21
158.1147
31
0.0
0
LINE
8
CUT
10
62.8305
20
158.1147
30
0.0
11
55.8493
21
158.1147
31
0.0
0
LINE
8
CUT
10
55.8493
20
158.1147
30
0.0
11
48.8681
21
158.1147
31
0.0
0
LINE
8
CUT
10
48.8681
20
158.1147
30
0.0
11
41.8870
21
158.1147
31
0.0
0
LINE
8
CUT
10
41.8870
20
158.1147
30
0.0
11
34.9058
21
158.1147
31
0.0
0
LINE
8
CUT
10
34.9058
20
158.1147
30
0.0
11
27.9247
21
158.1147
31
0.0
0
LINE
8
CUT
10
27.9247
20
158.1147
30
0.0
11
20.9435
21
158.1147
31
0.0
0
LINE
8
CUT
10
20.9435
20
158.1147
30
0.0
11
13.9623
21
158.1147
31
0.0
0
LINE
8
CUT
10
13.9623
20
158.1147
30
0.0
11
6.9812
21
158.1147
31
0.0
0
LINE
8
CUT
10
6.9812
20
158.1147
30
0.0
11
0.0000
21
158.1147
31
0.0
0
LINE
8
CUT
10
0.0000
20
158.1147
30
0.0
11
-0.0000
21
158.1147
31
0.0
0
LINE
8
CUT
10
-0.0000
20
158.1147
30
0.0
11
-6.9812
21
158.1147
31
0.0
0
LINE
8
CUT
10
-6.9812
20
158.1147
30
0.0
11
-13.9623
21
158.1147
31
0.0
0
LINE
8
CUT
10
-13.9623
20
158.1147
30
0.0
11
-20.9435
21
158.1147
31
0.0
0
LINE
8
CUT
10
-20.9435
20
158.1147
30
0.0
11
-27.9247
21
158.1147
31
0.0
0
LINE
8
CUT
10
-27.9247
20
158.1147
30
0.0
11
-34.9058
21
158.1147
31
0.0
0
LINE
8
CUT
10
-34.9058
20
158.1147
30
0.0
11
-41.8870
21
158.1147
31
0.0
0
LINE
8
CUT
10
-41.8870
20
158.1147
30
0.0
11
-48.8681
21
158.1147
31
0.0
0
LINE
8
CUT
10
-48.8681
20
158.1147
30
0.0
11
-55.8493
21
158.1147
31
0.0
0
LINE
8
CUT
10
-55.8493
20
158.1147
30
0.0
11
-62.8305
21
158.1147
31
0.0
0
LINE
8
CUT
10
-62.8305
20
158.1147
30
0.0
11
-69.8116
21
158.1147
31
0.0
0
LINE
8
CUT
10
-69.8116
20
158.1147
30
0.0
11
-76.7928
21
158.1147
31
0.0
0
LINE
8
CUT
10
-76.7928
20
158.1147
30
0.0
11
-83.7740
21
158.1147
31
0.0
0
LINE
8
CUT
10
-83.7740
20
158.1147
30
0.0
11
-90.7551
21
158.1147
31
0.0
0
LINE
8
CUT
10
-90.7551
20
158.1147
30
0.0
11
-97.7363
21
158.1147
31
0.0
0
LINE
8
CUT
10
-97.7363
20
158.1147
30
0.0
11
-104.7174
21
158.1147
31
0.0
0
LINE
8
CUT
10
-104.7174
20
158.1147
30
0.0
11
-111.6986
21
158.1147
31
0.0
0
LINE
8
CUT
10
-111.6986
20
158.1147
30
0.0
11
-118.6798
21
158.1147
31
0.0
0
LINE
8
CUT
10
-118.6798
20
158.1147
30
0.0
11
-125.6609
21
158.1147
31
0.0
0
LINE
8
CUT
10
-125.6609
20
158.1147
30
0.0
11
-132.6421
21
158.1147
31
0.0
0
LINE
8
CUT
10
-132.6421
20
158.1147
30
0.0
11
-139.6233
21
158.1147
31
0.0
0
LINE
8
CUT
10
-139.6233
20
158.1147
30
0.0
11
-143.3266
21
157.8448
31
0.0
0
LINE
8
CUT
10
-143.3266
20
157.8448
30
0.0
11
-146.9651
21
157.0547
31
0.0
0
LINE
8
CUT
10
-146.9651
20
157.0547
30
0.0
11
-150.5306
21
155.7736
31
0.0
0
LINE
8
CUT
10
-150.5306
20
155.7736
30
0.0
11
-154.0147
21
154.0306
31
0.0
0
LINE
8
CUT
10
-154.0147
20
154.0306
30
0.0
11
-157.4093
21
151.8551
31
0.0
0
LINE
8
CUT
10
-157.4093
20
151.8551
30
0.0
11
-160.7061
21
149.2761
31
0.0
0
LINE
8
CUT
10
-160.7061
20
149.2761
30
0.0
11
-163.8969
21
146.3230
31
0.0
0
LINE
8
CUT
10
-163.8969
20
146.3230
30
0.0
11
-166.9733
21
143.0248
31
0.0
0
LINE
8
CUT
10
-166.9733
20
143.0248
30
0.0
11
-169.9272
21
139.4109
31
0.0
0
LINE
8
CUT
10
-169.9272
20
139.4109
30
0.0
11
-172.7503
21
135.5104
31
0.0
0
LINE
8
CUT
10
-172.7503
20
135.5104
30
0.0
11
-175.4344
21
131.3526
31
0.0
0
LINE
8
CUT
10
-175.4344
20
131.3526
30
0.0
11
-177.9712
21
126.9666
31
0.0
0
LINE
8
CUT
10
-177.9712
20
126.9666
30
0.0
11
-180.3524
21
122.3816
31
0.0
0
LINE
8
CUT
10
-180.3524
20
122.3816
30
0.0
11
-182.5699
21
117.6270
31
0.0
0
LINE
8
CUT
10
-182.5699
20
117.6270
30
0.0
11
-184.6153
21
112.7318
31
0.0
0
LINE
8
CUT
10
-184.6153
20
112.7318
30
0.0
11
-186.4804
21
107.7253
31
0.0
0
LINE
8
CUT
10
-186.4804
20
107.7253
30
0.0
11
-188.1570
21
102.6367
31
0.0
0
LINE
8
CUT
10
-188.1570
20
102.6367
30
0.0
11
-189.6368
21
97.4952
31
0.0
0
LINE
8
CUT
10
-189.6368
20
97.4952
30
0.0
11
-190.9115
21
92.3301
31
0.0
0
LINE
8
CUT
10
-190.9115
20
92.3301
30
0.0
11
-191.9730
21
87.1704
31
0.0
0
LINE
8
CUT
10
-191.9730
20
87.1704
30
0.0
11
-192.8130
21
82.0455
31
0.0
0
LINE
8
CUT
10
-192.8130
20
82.0455
30
0.0
11
-193.4232
21
76.9846
31
0.0
0
LINE
8
CUT
10
-193.4232
20
76.9846
30
0.0
11
-193.7953
21
72.0168
31
0.0
0
LINE
8
CUT
10
-193.7953
20
72.0168
30
0.0
11
-193.9212
21
67.1713
31
0.0
0
LINE
8
CUT
10
-193.9212
20
67.1713
30
0.0
11
-193.8241
21
66.1005
31
0.0
0
LINE
8
CUT
10
-193.8241
20
66.1005
30
0.0
11
-193.5386
21
64.9980
31
0.0
0
LINE
8
CUT
10
-193.5386
20
64.9980
30
0.0
11
-193.0738
21
63.8740
31
0.0
0
LINE
8
CUT
10
-193.0738
20
63.8740
30
0.0
11
-192.4385
21
62.7388
31
0.0
0
LINE
8
CUT
10
-192.4385
20
62.7388
30
0.0
11
-191.6417
21
61.6026
31
0.0
0
LINE
8
CUT
10
-191.6417
20
61.6026
30
0.0
11
-190.6924
21
60.4757
31
0.0
0
LINE
8
CUT
10
-190.6924
20
60.4757
30
0.0
11
-189.5994
21
59.3682
31
0.0
0
LINE
8
CUT
10
-189.5994
20
59.3682
30
0.0
11
-188.3717
21
58.2904
31
0.0
0
LINE
8
CUT
10
-188.3717
20
58.2904
30
0.0
11
-187.0182
21
57.2526
31
0.0
0
LINE
8
CUT
10
-187.0182
20
57.2526
30
0.0
11
-185.5478
21
56.2649
31
0.0
0
LINE
8
CUT
10
-185.5478
20
56.2649
30
0.0
11
-183.9696
21
55.3377
31
0.0
0
LINE
8
CUT
10
-183.9696
20
55.3377
30
0.0
11
-182.2923
21
54.4811
31
0.0
0
LINE
8
CUT
10
-182.2923
20
54.4811
30
0.0
11
-180.5251
21
53.7053
31
0.0
0
LINE
8
CUT
10
-180.5251
20
53.7053
30
0.0
11
-178.6767
21
53.0206
31
0.0
0
LINE
8
CUT
10
-178.6767
20
53.0206
30
0.0
11
-176.7561
21
52.4373
31
0.0
0
LINE
8
CUT
10
-176.7561
20
52.4373
30
0.0
11
-174.7723
21
51.9655
31
0.0
0
LINE
8
CUT
10
-174.7723
20
51.9655
30
0.0
11
-172.7342
21
51.6155
31
0.0
0
LINE
8
CUT
10
-172.7342
20
51.6155
30
0.0
11
-170.6507
21
51.3976
31
0.0
0
LINE
8
CUT
10
-170.6507
20
51.3976
30
0.0
11
-161.6690
21
51.2388
31
0.0
0
LINE
8
CUT
10
-161.6690
20
51.2388
30
0.0
11
-152.6874
21
51.0887
31
0.0
0
LINE
8
CUT
10
-152.6874
20
51.0887
30
0.0
11
-143.7058
21
50.9471
31
0.0
0
LINE
8
CUT
10
-143.7058
20
50.9471
30
0.0
11
-134.7242
21
50.8141
31
0.0
0
LINE
8
CUT
10
-134.7242
20
50.8141
30
0.0
11
-125.7426
21
50.6897
31
0.0
0
LINE
8
CUT
10
-125.7426
20
50.6897
30
0.0
11
-116.7610
21
50.5738
31
0.0
0
LINE
8
CUT
10
-116.7610
20
50.5738
30
0.0
11
-107.7794
21
50.4666
31
0.0
0
LINE
8
CUT
10
-107.7794
20
50.4666
30
0.0
11
-98.7977
21
50.3679
31
0.0
0
LINE
8
CUT
10
-98.7977
20
50.3679
30
0.0
11
-89.8161
21
50.2778
31
0.0
0
LINE
8
CUT
10
-89.8161
20
50.2778
30
0.0
11
-80.8345
21
50.1963
31
0.0
0
LINE
8
CUT
10
-80.8345
20
50.1963
30
0.0
11
-71.8529
21
50.1233
31
0.0
0
LINE
8
CUT
10
-71.8529
20
50.1233
30
0.0
11
-62.8713
21
50.0590
31
0.0
0
LINE
8
CUT
10
-62.8713
20
50.0590
30
0.0
11
-53.8897
21
50.0032
31
0.0
0
LINE
8
CUT
10
-53.8897
20
50.0032
30
0.0
11
-44.9081
21
49.9560
31
0.0
0
LINE
8
CUT
10
-44.9081
20
49.9560
30
0.0
11
-35.9265
21
49.9174
31
0.0
0
LINE
8
CUT
10
-35.9265
20
49.9174
30
0.0
11
-26.9448
21
49.8874
31
0.0
0
LINE
8
CUT
10
-26.9448
20
49.8874
30
0.0
11
-17.9632
21
49.8659
31
0.0
0
LINE
8
CUT
10
-17.9632
20
49.8659
30
0.0
11
-8.9816
21
49.8531
31
0.0
0
LINE
8
CUT
10
-8.9816
20
49.8531
30
0.0
11
-0.0000
21
49.8488
31
0.0
0
LINE
8
CUT
10
-0.0000
20
49.8488
30
0.0
11
0.0000
21
49.8488
31
0.0
0
LINE
8
REG
10
0.0000
20
-20.0000
30
0.0
11
0.0000
21
178.1147
31
0.0
0
ENDSEC
0
EOF
