0
SECTION
2
ENTITIES
0
LINE
8
CUT
10
0.0000
20
2.8800
30
0.0
11
9.5945
21
2.8843
31
0.0
0
LINE
8
CUT
10
9.5945
20
2.8843
30
0.0
11
19.1889
21
2.8972
31
0.0
0
LINE
8
CUT
10
19.1889
20
2.8972
30
0.0
11
28.7834
21
2.9186
31
0.0
0
LINE
8
CUT
10
28.7834
20
2.9186
30
0.0
11
38.3779
21
2.9486
31
0.0
0
LINE
8
CUT
10
38.3779
20
2.9486
30
0.0
11
47.9724
21
2.9873
31
0.0
0
LINE
8
CUT
10
47.9724
20
2.9873
30
0.0
11
57.5668
21
3.0345
31
0.0
0
LINE
8
CUT
10
57.5668
20
3.0345
30
0.0
11
67.1613
21
3.0902
31
0.0
0
LINE
8
CUT
10
67.1613
20
3.0902
30
0.0
11
76.7558
21
3.1546
31
0.0
0
LINE
8
CUT
10
76.7558
20
3.1546
30
0.0
11
86.3503
21
3.2275
31
0.0
0
LINE
8
CUT
10
86.3503
20
3.2275
30
0.0
11
95.9447
21
3.3090
31
0.0
0
LINE
8
CUT
10
95.9447
20
3.3090
30
0.0
11
105.5392
21
3.3991
31
0.0
0
LINE
8
CUT
10
105.5392
20
3.3991
30
0.0
11
115.1337
21
3.4978
31
0.0
0
LINE
8
CUT
10
115.1337
20
3.4978
30
0.0
11
124.7282
21
3.6051
31
0.0
0
LINE
8
CUT
10
124.7282
20
3.6051
30
0.0
11
134.3226
21
3.7209
31
0.0
0
LINE
8
CUT
10
134.3226
20
3.7209
30
0.0
11
143.9171
21
3.8453
31
0.0
0
LINE
8
CUT
10
143.9171
20
3.8453
30
0.0
11
153.5116
21
3.9783
31
0.0
0
LINE
8
CUT
10
153.5116
20
3.9783
30
0.0
11
163.1061
21
4.1199
31
0.0
0
LINE
8
CUT
10
163.1061
20
4.1199
30
0.0
11
172.7005
21
4.2701
31
0.0
0
LINE
8
CUT
10
172.7005
20
4.2701
30
0.0
11
182.2950
21
4.4288
31
0.0
0
LINE
8
CUT
10
182.2950
20
4.4288
30
0.0
11
183.1886
21
6.6102
31
0.0
0
LINE
8
CUT
10
183.1886
20
6.6102
30
0.0
11
184.3379
21
8.5347
31
0.0
0
LINE
8
CUT
10
184.3379
20
8.5347
30
0.0
11
185.7057
21
10.2281
31
0.0
0
LINE
8
CUT
10
185.7057
20
10.2281
30
0.0
11
187.2549
21
11.7161
31
0.0
0
LINE
8
CUT
10
187.2549
20
11.7161
30
0.0
11
188.9482
21
13.0243
31
0.0
0
LINE
8
CUT
10
188.9482
20
13.0243
30
0.0
11
190.7485
21
14.1785
31
0.0
0
LINE
8
CUT
10
190.7485
20
14.1785
30
0.0
11
192.6186
21
15.2044
31
0.0
0
LINE
8
CUT
10
192.6186
20
15.2044
30
0.0
11
194.5212
21
16.1276
31
0.0
0
LINE
8
CUT
10
194.5212
20
16.1276
30
0.0
11
196.4191
21
16.9739
31
0.0
0
LINE
8
CUT
10
196.4191
20
16.9739
30
0.0
11
198.2752
21
17.7689
31
0.0
0
LINE
8
CUT
10
198.2752
20
17.7689
30
0.0
11
200.0522
21
18.5384
31
0.0
0
LINE
8
CUT
10
200.0522
20
18.5384
30
0.0
11
201.7130
21
19.3080
31
0.0
0
LINE
8
CUT
10
201.7130
20
19.3080
30
0.0
11
203.2204
21
20.1035
31
0.0
0
LINE
8
CUT
10
203.2204
20
20.1035
30
0.0
11
204.5371
21
20.9505
31
0.0
0
LINE
8
CUT
10
204.5371
20
20.9505
30
0.0
11
205.6259
21
21.8748
31
0.0
0
LINE
8
CUT
10
205.6259
20
21.8748
30
0.0
11
206.4497
21
22.9020
31
0.0
0
LINE
8
CUT
10
206.4497
20
22.9020
30
0.0
11
206.9713
21
24.0579
31
0.0
0
LINE
8
CUT
10
206.9713
20
24.0579
30
0.0
11
207.1534
21
25.3681
31
0.0
0
LINE
8
CUT
10
207.1534
20
25.3681
30
0.0
11
207.0189
21
31.6584
31
0.0
0
LINE
8
CUT
10
207.0189
20
31.6584
30
0.0
11
206.6214
21
38.1076
31
0.0
0
LINE
8
CUT
10
206.6214
20
38.1076
30
0.0
11
205.9696
21
44.6777
31
0.0
0
LINE
8
CUT
10
205.9696
20
44.6777
30
0.0
11
205.0723
21
51.3309
31
0.0
0
LINE
8
CUT
10
205.0723
20
51.3309
30
0.0
11
203.9384
21
58.0291
31
0.0
0
LINE
8
CUT
10
203.9384
20
58.0291
30
0.0
11
202.5766
21
64.7345
31
0.0
0
LINE
8
CUT
10
202.5766
20
64.7345
30
0.0
11
200.9958
21
71.4092
31
0.0
0
LINE
8
CUT
10
200.9958
20
71.4092
30
0.0
11
199.2049
21
78.0152
31
0.0
0
LINE
8
CUT
10
199.2049
20
78.0152
30
0.0
11
197.2125
21
84.5146
31
0.0
0
LINE
8
CUT
10
197.2125
20
84.5146
30
0.0
11
195.0275
21
90.8695
31
0.0
0
LINE
8
CUT
10
195.0275
20
90.8695
30
0.0
11
192.6588
21
97.0420
31
0.0
0
LINE
8
CUT
10
192.6588
20
97.0420
30
0.0
11
190.1150
21
102.9941
31
0.0
0
LINE
8
CUT
10
190.1150
20
102.9941
30
0.0
11
187.4052
21
108.6880
31
0.0
0
LINE
8
CUT
10
187.4052
20
108.6880
30
0.0
11
184.5380
21
114.0857
31
0.0
0
LINE
8
CUT
10
184.5380
20
114.0857
30
0.0
11
181.5222
21
119.1493
31
0.0
0
LINE
8
CUT
10
181.5222
20
119.1493
30
0.0
11
178.3668
21
123.8409
31
0.0
0
LINE
8
CUT
10
178.3668
20
123.8409
30
0.0
11
175.0804
21
128.1225
31
0.0
0
LINE
8
CUT
10
175.0804
20
128.1225
30
0.0
11
171.6719
21
131.9563
31
0.0
0
LINE
8
CUT
10
171.6719
20
131.9563
30
0.0
11
168.1502
21
135.3043
31
0.0
0
LINE
8
CUT
10
168.1502
20
135.3043
30
0.0
11
164.5239
21
138.1286
31
0.0
0
LINE
8
CUT
10
164.5239
20
138.1286
30
0.0
11
160.8020
21
140.3913
31
0.0
0
LINE
8
CUT
10
160.8020
20
140.3913
30
0.0
11
156.9933
21
142.0545
31
0.0
0
LINE
8
CUT
10
156.9933
20
142.0545
30
0.0
11
153.1065
21
143.0802
31
0.0
0
LINE
8
CUT
10
153.1065
20
143.0802
30
0.0
11
149.1505
21
143.4305
31
0.0
0
LINE
8
CUT
10
149.1505
20
143.4305
30
0.0
11
141.6929
21
143.4305
31
0.0
0
LINE
8
CUT
10
141.6929
20
143.4305
30
0.0
11
134.2354
21
143.4305
31
0.0
0
LINE
8
CUT
10
134.2354
20
143.4305
30
0.0
11
126.7779
21
143.4305
31
0.0
0
LINE
8
CUT
10
126.7779
20
143.4305
30
0.0
11
119.3204
21
143.4305
31
0.0
0
LINE
8
CUT
10
119.3204
20
143.4305
30
0.0
11
111.8628
21
143.4305
31
0.0
0
LINE
8
CUT
10
111.8628
20
143.4305
30
0.0
11
104.4053
21
143.4305
31
0.0
0
LINE
8
CUT
10
104.4053
20
143.4305
30
0.0
11
96.9478
21
143.4305
31
0.0
0
LINE
8
CUT
10
96.9478
20
143.4305
30
0.0
11
89.4903
21
143.4305
31
0.0
0
LINE
8
CUT
10
89.4903
20
143.4305
30
0.0
11
82.0328
21
143.4305
31
0.0
0
LINE
8
CUT
10
82.0328
20
143.4305
30
0.0
11
74.5752
21
143.4305
31
0.0
0
LINE
8
CUT
10
74.5752
20
143.4305
30
0.0
11
67.1177
21
143.4305
31
0.0
0
LINE
8
CUT
10
67.1177
20
143.4305
30
0.0
11
59.6602
21
143.4305
31
0.0
0
LINE
8
CUT
10
59.6602
20
143.4305
30
0.0
11
52.2027
21
143.4305
31
0.0
0
LINE
8
CUT
10
52.2027
20
143.4305
30
0.0
11
44.7451
21
143.4305
31
0.0
0
LINE
8
CUT
10
44.7451
20
143.4305
30
0.0
11
37.2876
21
143.4305
31
0.0
0
LINE
8
CUT
10
37.2876
20
143.4305
30
0.0
11
29.8301
21
143.4305
31
0.0
0
LINE
8
CUT
10
29.8301
20
143.4305
30
0.0
11
22.3726
21
143.4305
31
0.0
0
LINE
8
CUT
10
22.3726
20
143.4305
30
0.0
11
14.9150
21
143.4305
31
0.0
0
LINE
8
CUT
10
14.9150
20
143.4305
30
0.0
11
7.4575
21
143.4305
31
0.0
0
LINE
8
CUT
10
7.4575
20
143.4305
30
0.0
11
0.0000
21
143.4305
31
0.0
0
LINE
8
CUT
10
0.0000
20
143.4305
30
0.0
11
-0.0000
21
143.4305
31
0.0
0
LINE
8
CUT
10
-0.0000
20
143.4305
30
0.0
11
-7.4575
21
143.4305
31
0.0
0
LINE
8
CUT
10
-7.4575
20
143.4305
30
0.0
11
-14.9150
21
143.4305
31
0.0
0
LINE
8
CUT
10
-14.9150
20
143.4305
30
0.0
11
-22.3726
21
143.4305
31
0.0
0
LINE
8
CUT
10
-22.3726
20
143.4305
30
0.0
11
-29.8301
21
143.4305
31
0.0
0
LINE
8
CUT
10
-29.8301
20
143.4305
30
0.0
11
-37.2876
21
143.4305
31
0.0
0
LINE
8
CUT
10
-37.2876
20
143.4305
30
0.0
11
-44.7451
21
143.4305
31
0.0
0
LINE
8
CUT
10
-44.7451
20
143.4305
30
0.0
11
-52.2027
21
143.4305
31
0.0
0
LINE
8
CUT
10
-52.2027
20
143.4305
30
0.0
11
-59.6602
21
143.4305
31
0.0
0
LINE
8
CUT
10
-59.6602
20
143.4305
30
0.0
11
-67.1177
21
143.4305
31
0.0
0
LINE
8
CUT
10
-67.1177
20
143.4305
30
0.0
11
-74.5752
21
143.4305
31
0.0
0
LINE
8
CUT
10
-74.5752
20
143.4305
30
0.0
11
-82.0328
21
143.4305
31
0.0
0
LINE
8
CUT
10
-82.0328
20
143.4305
30
0.0
11
-89.4903
21
143.4305
31
0.0
0
LINE
8
CUT
10
-89.4903
20
143.4305
30
0.0
11
-96.9478
21
143.4305
31
0.0
0
LINE
8
CUT
10
-96.9478
20
143.4305
30
0.0
11
-104.4053
21
143.4305
31
0.0
0
LINE
8
CUT
10
-104.4053
20
143.4305
30
0.0
11
-111.8628
21
143.4305
31
0.0
0
LINE
8
CUT
10
-111.8628
20
143.4305
30
0.0
11
-119.3204
21
143.4305
31
0.0
0
LINE
8
CUT
10
-119.3204
20
143.4305
30
0.0
11
-126.7779
21
143.4305
31
0.0
0
LINE
8
CUT
10
-126.7779
20
143.4305
30
0.0
11
-134.2354
21
143.4305
31
0.0
0
LINE
8
CUT
10
-134.2354
20
143.4305
30
0.0
11
-141.6929
21
143.4305
31
0.0
0
LINE
8
CUT
10
-141.6929
20
143.4305
30
0.0
11
-149.1505
21
143.4305
31
0.0
0
LINE
8
CUT
10
-149.1505
20
143.4305
30
0.0
11
-153.1065
21
143.0802
31
0.0
0
LINE
8
CUT
10
-153.1065
20
143.0802
30
0.0
11
-156.9933
21
142.0545
31
0.0
0
LINE
8
CUT
10
-156.9933
20
142.0545
30
0.0
11
-160.8020
21
140.3913
31
0.0
0
LINE
8
CUT
10
-160.8020
20
140.3913
30
0.0
11
-164.5239
21
138.1286
31
0.0
0
LINE
8
CUT
10
-164.5239
20
138.1286
30
0.0
11
-168.1502
21
135.3043
31
0.0
0
LINE
8
CUT
10
-168.1502
20
135.3043
30
0.0
11
-171.6719
21
131.9563
31
0.0
0
LINE
8
CUT
10
-171.6719
20
131.9563
30
0.0
11
-175.0804
21
128.1225
31
0.0
0
LINE
8
CUT
10
-175.0804
20
128.1225
30
0.0
11
-178.3668
21
123.8409
31
0.0
0
LINE
8
CUT
10
-178.3668
20
123.8409
30
0.0
11
-181.5222
21
119.1493
31
0.0
0
LINE
8
CUT
10
-181.5222
20
119.1493
30
0.0
11
-184.5380
21
114.0857
31
0.0
0
LINE
8
CUT
10
-184.5380
20
114.0857
30
0.0
11
-187.4052
21
108.6880
31
0.0
0
LINE
8
CUT
10
-187.4052
20
108.6880
30
0.0
11
-190.1150
21
102.9941
31
0.0
0
LINE
8
CUT
10
-190.1150
20
102.9941
30
0.0
11
-192.6588
21
97.0420
31
0.0
0
LINE
8
CUT
10
-192.6588
20
97.0420
30
0.0
11
-195.0275
21
90.8695
31
0.0
0
LINE
8
CUT
10
-195.0275
20
90.8695
30
0.0
11
-197.2125
21
84.5146
31
0.0
0
LINE
8
CUT
10
-197.2125
20
84.5146
30
0.0
11
-199.2049
21
78.0152
31
0.0
0
LINE
8
CUT
10
-199.2049
20
78.0152
30
0.0
11
-200.9958
21
71.4092
31
0.0
0
LINE
8
CUT
10
-200.9958
20
71.4092
30
0.0
11
-202.5766
21
64.7345
31
0.0
0
LINE
8
CUT
10
-202.5766
20
64.7345
30
0.0
11
-203.9384
21
58.0291
31
0.0
0
LINE
8
CUT
10
-203.9384
20
58.0291
30
0.0
11
-205.0723
21
51.3309
31
0.0
0
LINE
8
CUT
10
-205.0723
20
51.3309
30
0.0
11
-205.9696
21
44.6777
31
0.0
0
LINE
8
CUT
10
-205.9696
20
44.6777
30
0.0
11
-206.6214
21
38.1076
31
0.0
0
LINE
8
CUT
10
-206.6214
20
38.1076
30
0.0
11
-207.0189
21
31.6584
31
0.0
0
LINE
8
CUT
10
-207.0189
20
31.6584
30
0.0
11
-207.1534
21
25.3681
31
0.0
0
LINE
8
CUT
10
-207.1534
20
25.3681
30
0.0
11
-206.9713
21
24.0579
31
0.0
0
LINE
8
CUT
10
-206.9713
20
24.0579
30
0.0
11
-206.4497
21
22.9020
31
0.0
0
LINE
8
CUT
10
-206.4497
20
22.9020
30
0.0
11
-205.6259
21
21.8748
31
0.0
0
LINE
8
CUT
10
-205.6259
20
21.8748
30
0.0
11
-204.5371
21
20.9505
31
0.0
0
LINE
8
CUT
10
-204.5371
20
20.9505
30
0.0
11
-203.2204
21
20.1035
31
0.0
0
LINE
8
CUT
10
-203.2204
20
20.1035
30
0.0
11
-201.7130
21
19.3080
31
0.0
0
LINE
8
CUT
10
-201.7130
20
19.3080
30
0.0
11
-200.0522
21
18.5384
31
0.0
0
LINE
8
CUT
10
-200.0522
20
18.5384
30
0.0
11
-198.2752
21
17.7689
31
0.0
0
LINE
8
CUT
10
-198.2752
20
17.7689
30
0.0
11
-196.4191
21
16.9739
31
0.0
0
LINE
8
CUT
10
-196.4191
20
16.9739
30
0.0
11
-194.5212
21
16.1276
31
0.0
0
LINE
8
CUT
10
-194.5212
20
16.1276
30
0.0
11
-192.6186
21
15.2044
31
0.0
0
LINE
8
CUT
10
-192.6186
20
15.2044
30
0.0
11
-190.7485
21
14.1785
31
0.0
0
LINE
8
CUT
10
-190.7485
20
14.1785
30
0.0
11
-188.9482
21
13.0243
31
0.0
0
LINE
8
CUT
10
-188.9482
20
13.0243
30
0.0
11
-187.2549
21
11.7161
31
0.0
0
LINE
8
CUT
10
-187.2549
20
11.7161
30
0.0
11
-185.7057
21
10.2281
31
0.0
0
LINE
8
CUT
10
-185.7057
20
10.2281
30
0.0
11
-184.3379
21
8.5347
31
0.0
0
LINE
8
CUT
10
-184.3379
20
8.5347
30
0.0
11
-183.1886
21
6.6102
31
0.0
0
LINE
8
CUT
10
-183.1886
20
6.6102
30
0.0
11
-182.2950
21
4.4288
31
0.0
0
LINE
8
CUT
10
-182.2950
20
4.4288
30
0.0
11
-172.7005
21
4.2701
31
0.0
0
LINE
8
CUT
10
-172.7005
20
4.2701
30
0.0
11
-163.1061
21
4.1199
31
0.0
0
LINE
8
CUT
10
-163.1061
20
4.1199
30
0.0
11
-153.5116
21
3.9783
31
0.0
0
LINE
8
CUT
10
-153.5116
20
3.9783
30
0.0
11
-143.9171
21
3.8453
31
0.0
0
LINE
8
CUT
10
-143.9171
20
3.8453
30
0.0
11
-134.3226
21
3.7209
31
0.0
0
LINE
8
CUT
10
-134.3226
20
3.7209
30
0.0
11
-124.7282
21
3.6051
31
0.0
0
LINE
8
CUT
10
-124.7282
20
3.6051
30
0.0
11
-115.1337
21
3.4978
31
0.0
0
LINE
8
CUT
10
-115.1337
20
3.4978
30
0.0
11
-105.5392
21
3.3991
31
0.0
0
LINE
8
CUT
10
-105.5392
20
3.3991
30
0.0
11
-95.9447
21
3.3090
31
0.0
0
LINE
8
CUT
10
-95.9447
20
3.3090
30
0.0
11
-86.3503
21
3.2275
31
0.0
0
LINE
8
CUT
10
-86.3503
20
3.2275
30
0.0
11
-76.7558
21
3.1546
31
0.0
0
LINE
8
CUT
10
-76.7558
20
3.1546
30
0.0
11
-67.1613
21
3.0902
31
0.0
0
LINE
8
CUT
10
-67.1613
20
3.0902
30
0.0
11
-57.5668
21
3.0345
31
0.0
0
LINE
8
CUT
10
-57.5668
20
3.0345
30
0.0
11
-47.9724
21
2.9873
31
0.0
0
LINE
8
CUT
10
-47.9724
20
2.9873
30
0.0
11
-38.3779
21
2.9486
31
0.0
0
LINE
8
CUT
10
-38.3779
20
2.9486
30
0.0
11
-28.7834
21
2.9186
31
0.0
0
LINE
8
CUT
10
-28.7834
20
2.9186
30
0.0
11
-19.1889
21
2.8972
31
0.0
0
LINE
8
CUT
10
-19.1889
20
2.8972
30
0.0
11
-9.5945
21
2.8843
31
0.0
0
LINE
8
CUT
10
-9.5945
20
2.8843
30
0.0
11
-0.0000
21
2.8800
31
0.0
0
LINE
8
CUT
10
-0.0000
20
2.8800
30
0.0
11
0.0000
21
2.8800
31
0.0
0
LINE
8
REG
10
0.0000
20
-20.0000
30
0.0
11
0.0000
21
163.4305
31
0.0
0
ENDSEC
0
EOF
