0
SECTION
2
ENTITIES
0
LINE
8
CUT
10
0.0000
20
47.5529
30
0.0
11
9.1533
21
47.5572
31
0.0
0
LINE
8
CUT
10
9.1533
20
47.5572
30
0.0
11
18.3066
21
47.5701
31
0.0
0
LINE
8
CUT
10
18.3066
20
47.5701
30
0.0
11
27.4599
21
47.5915
31
0.0
0
LINE
8
CUT
10
27.4599
20
47.5915
30
0.0
11
36.6132
21
47.6215
31
0.0
0
LINE
8
CUT
10
36.6132
20
47.6215
30
0.0
11
45.7665
21
47.6602
31
0.0
0
LINE
8
CUT
10
45.7665
20
47.6602
30
0.0
11
54.9198
21
47.7073
31
0.0
0
LINE
8
CUT
10
54.9198
20
47.7073
30
0.0
11
64.0731
21
47.7631
31
0.0
0
LINE
8
CUT
10
64.0731
20
47.7631
30
0.0
11
73.2264
21
47.8275
31
0.0
0
LINE
8
CUT
10
73.2264
20
47.8275
30
0.0
11
82.3798
21
47.9004
31
0.0
0
LINE
8
CUT
10
82.3798
20
47.9004
30
0.0
11
91.5331
21
47.9819
31
0.0
0
LINE
8
CUT
10
91.5331
20
47.9819
30
0.0
11
100.6864
21
48.0720
31
0.0
0
LINE
8
CUT
10
100.6864
20
48.0720
30
0.0
11
109.8397
21
48.1707
31
0.0
0
LINE
8
CUT
10
109.8397
20
48.1707
30
0.0
11
118.9930
21
48.2780
31
0.0
0
LINE
8
CUT
10
118.9930
20
48.2780
30
0.0
11
128.1463
21
48.3938
31
0.0
0
LINE
8
CUT
10
128.1463
20
48.3938
30
0.0
11
137.2996
21
48.5182
31
0.0
0
LINE
8
CUT
10
137.2996
20
48.5182
30
0.0
11
146.4529
21
48.6512
31
0.0
0
LINE
8
CUT
10
146.4529
20
48.6512
30
0.0
11
155.6062
21
48.7928
31
0.0
0
LINE
8
CUT
10
155.6062
20
48.7928
30
0.0
11
164.7595
21
48.9430
31
0.0
0
LINE
8
CUT
10
164.7595
20
48.9430
30
0.0
11
173.9128
21
49.1017
31
0.0
0
LINE
8
CUT
10
173.9128
20
49.1017
30
0.0
11
176.0374
21
49.3234
31
0.0
0
LINE
8
CUT
10
176.0374
20
49.3234
30
0.0
11
178.1154
21
49.6802
31
0.0
0
LINE
8
CUT
10
178.1154
20
49.6802
30
0.0
11
180.1378
21
50.1614
31
0.0
0
LINE
8
CUT
10
180.1378
20
50.1614
30
0.0
11
182.0956
21
50.7567
31
0.0
0
LINE
8
CUT
10
182.0956
20
50.7567
30
0.0
11
183.9795
21
51.4557
31
0.0
0
LINE
8
CUT
10
183.9795
20
51.4557
30
0.0
11
185.7807
21
52.2477
31
0.0
0
LINE
8
CUT
10
185.7807
20
52.2477
30
0.0
11
187.4899
21
53.1225
31
0.0
0
LINE
8
CUT
10
187.4899
20
53.1225
30
0.0
11
189.0981
21
54.0694
31
0.0
0
LINE
8
CUT
10
189.0981
20
54.0694
30
0.0
11
190.5963
21
55.0781
31
0.0
0
LINE
8
CUT
10
190.5963
20
55.0781
30
0.0
11
191.9753
21
56.1381
31
0.0
0
LINE
8
CUT
10
191.9753
20
56.1381
30
0.0
11
193.2260
21
57.2389
31
0.0
0
LINE
8
CUT
10
193.2260
20
57.2389
30
0.0
11
194.3395
21
58.3700
31
0.0
0
LINE
8
CUT
10
194.3395
20
58.3700
30
0.0
11
195.3065
21
59.5210
31
0.0
0
LINE
8
CUT
10
195.3065
20
59.5210
30
0.0
11
196.1181
21
60.6815
31
0.0
0
LINE
8
CUT
10
196.1181
20
60.6815
30
0.0
11
196.7652
21
61.8409
31
0.0
0
LINE
8
CUT
10
196.7652
20
61.8409
30
0.0
11
197.2386
21
62.9888
31
0.0
0
LINE
8
CUT
10
197.2386
20
62.9888
30
0.0
11
197.5293
21
64.1147
31
0.0
0
LINE
8
CUT
10
197.5293
20
64.1147
30
0.0
11
197.6282
21
65.2082
31
0.0
0
LINE
8
CUT
10
197.6282
20
65.2082
30
0.0
11
197.4999
21
70.1467
31
0.0
0
LINE
8
CUT
10
197.4999
20
70.1467
30
0.0
11
197.1206
21
75.2099
31
0.0
0
LINE
8
CUT
10
197.1206
20
75.2099
30
0.0
11
196.4988
21
80.3681
31
0.0
0
LINE
8
CUT
10
196.4988
20
80.3681
30
0.0
11
195.6428
21
85.5914
31
0.0
0
LINE
8
CUT
10
195.6428
20
85.5914
30
0.0
11
194.5610
21
90.8501
31
0.0
0
LINE
8
CUT
10
194.5610
20
90.8501
30
0.0
11
193.2618
21
96.1145
31
0.0
0
LINE
8
CUT
10
193.2618
20
96.1145
30
0.0
11
191.7538
21
101.3547
31
0.0
0
LINE
8
CUT
10
191.7538
20
101.3547
30
0.0
11
190.0451
21
106.5411
31
0.0
0
LINE
8
CUT
10
190.0451
20
106.5411
30
0.0
11
188.1444
21
111.6437
31
0.0
0
LINE
8
CUT
10
188.1444
20
111.6437
30
0.0
11
186.0599
21
116.6329
31
0.0
0
LINE
8
CUT
10
186.0599
20
116.6329
30
0.0
11
183.8000
21
121.4789
31
0.0
0
LINE
8
CUT
10
183.8000
20
121.4789
30
0.0
11
181.3733
21
126.1519
31
0.0
0
LINE
8
CUT
10
181.3733
20
126.1519
30
0.0
11
178.7880
21
130.6221
31
0.0
0
LINE
8
CUT
10
178.7880
20
130.6221
30
0.0
11
176.0526
21
134.8598
31
0.0
0
LINE
8
CUT
10
176.0526
20
134.8598
30
0.0
11
173.1756
21
138.8352
31
0.0
0
LINE
8
CUT
10
173.1756
20
138.8352
30
0.0
11
170.1652
21
142.5186
31
0.0
0
LINE
8
CUT
10
170.1652
20
142.5186
30
0.0
11
167.0299
21
145.8801
31
0.0
0
LINE
8
CUT
10
167.0299
20
145.8801
30
0.0
11
163.7782
21
148.8899
31
0.0
0
LINE
8
CUT
10
163.7782
20
148.8899
30
0.0
11
160.4184
21
151.5184
31
0.0
0
LINE
8
CUT
10
160.4184
20
151.5184
30
0.0
11
156.9589
21
153.7358
31
0.0
0
LINE
8
CUT
10
156.9589
20
153.7358
30
0.0
11
153.4081
21
155.5122
31
0.0
0
LINE
8
CUT
10
153.4081
20
155.5122
30
0.0
11
149.7745
21
156.8179
31
0.0
0
LINE
8
CUT
10
149.7745
20
156.8179
30
0.0
11
146.0664
21
157.6232
31
0.0
0
LINE
8
CUT
10
146.0664
20
157.6232
30
0.0
11
142.2923
21
157.8983
31
0.0
0
LINE
8
CUT
10
142.2923
20
157.8983
30
0.0
11
135.1777
21
157.8983
31
0.0
0
LINE
8
CUT
10
135.1777
20
157.8983
30
0.0
11
128.0631
21
157.8983
31
0.0
0
LINE
8
CUT
10
128.0631
20
157.8983
30
0.0
11
120.9485
21
157.8983
31
0.0
0
LINE
8
CUT
10
120.9485
20
157.8983
30
0.0
11
113.8338
21
157.8983
31
0.0
0
LINE
8
CUT
10
113.8338
20
157.8983
30
0.0
11
106.7192
21
157.8983
31
0.0
0
LINE
8
CUT
10
106.7192
20
157.8983
30
0.0
11
99.6046
21
157.8983
31
0.0
0
LINE
8
CUT
10
99.6046
20
157.8983
30
0.0
11
92.4900
21
157.8983
31
0.0
0
LINE
8
CUT
10
92.4900
20
157.8983
30
0.0
11
85.3754
21
157.8983
31
0.0
0
LINE
8
CUT
10
85.3754
20
157.8983
30
0.0
11
78.2608
21
157.8983
31
0.0
0
LINE
8
CUT
10
78.2608
20
157.8983
30
0.0
11
71.1461
21
157.8983
31
0.0
0
LINE
8
CUT
10
71.1461
20
157.8983
30
0.0
11
64.0315
21
157.8983
31
0.0
0
LINE
8
CUT
10
64.0315
20
157.8983
30
0.0
11
56.9169
21
157.8983
31
0.0
0
LINE
8
CUT
10
56.9169
20
157.8983
30
0.0
11
49.8023
21
157.8983
31
0.0
0
LINE
8
CUT
10
49.8023
20
157.8983
30
0.0
11
42.6877
21
157.8983
31
0.0
0
LINE
8
CUT
10
42.6877
20
157.8983
30
0.0
11
35.5731
21
157.8983
31
0.0
0
LINE
8
CUT
10
35.5731
20
157.8983
30
0.0
11
28.4585
21
157.8983
31
0.0
0
LINE
8
CUT
10
28.4585
20
157.8983
30
0.0
11
21.3438
21
157.8983
31
0.0
0
LINE
8
CUT
10
21.3438
20
157.8983
30
0.0
11
14.2292
21
157.8983
31
0.0
0
LINE
8
CUT
10
14.2292
20
157.8983
30
0.0
11
7.1146
21
157.8983
31
0.0
0
LINE
8
CUT
10
7.1146
20
157.8983
30
0.0
11
0.0000
21
157.8983
31
0.0
0
LINE
8
CUT
10
0.0000
20
157.8983
30
0.0
11
-0.0000
21
157.8983
31
0.0
0
LINE
8
CUT
10
-0.0000
20
157.8983
30
0.0
11
-7.1146
21
157.8983
31
0.0
0
LINE
8
CUT
10
-7.1146
20
157.8983
30
0.0
11
-14.2292
21
157.8983
31
0.0
0
LINE
8
CUT
10
-14.2292
20
157.8983
30
0.0
11
-21.3438
21
157.8983
31
0.0
0
LINE
8
CUT
10
-21.3438
20
157.8983
30
0.0
11
-28.4585
21
157.8983
31
0.0
0
LINE
8
CUT
10
-28.4585
20
157.8983
30
0.0
11
-35.5731
21
157.8983
31
0.0
0
LINE
8
CUT
10
-35.5731
20
157.8983
30
0.0
11
-42.6877
21
157.8983
31
0.0
0
LINE
8
CUT
10
-42.6877
20
157.8983
30
0.0
11
-49.8023
21
157.8983
31
0.0
0
LINE
8
CUT
10
-49.8023
20
157.8983
30
0.0
11
-56.9169
21
157.8983
31
0.0
0
LINE
8
CUT
10
-56.9169
20
157.8983
30
0.0
11
-64.0315
21
157.8983
31
0.0
0
LINE
8
CUT
10
-64.0315
20
157.8983
30
0.0
11
-71.1461
21
157.8983
31
0.0
0
LINE
8
CUT
10
-71.1461
20
157.8983
30
0.0
11
-78.2608
21
157.8983
31
0.0
0
LINE
8
CUT
10
-78.2608
20
157.8983
30
0.0
11
-85.3754
21
157.8983
31
0.0
0
LINE
8
CUT
10
-85.3754
20
157.8983
30
0.0
11
-92.4900
21
157.8983
31
0.0
0
LINE
8
CUT
10
-92.4900
20
157.8983
30
0.0
11
-99.6046
21
157.8983
31
0.0
0
LINE
8
CUT
10
-99.6046
20
157.8983
30
0.0
11
-106.7192
21
157.8983
31
0.0
0
LINE
8
CUT
10
-106.7192
20
157.8983
30
0.0
11
-113.8338
21
157.8983
31
0.0
0
LINE
8
CUT
10
-113.8338
20
157.8983
30
0.0
11
-120.9485
21
157.8983
31
0.0
0
LINE
8
CUT
10
-120.9485
20
157.8983
30
0.0
11
-128.0631
21
157.8983
31
0.0
0
LINE
8
CUT
10
-128.0631
20
157.8983
30
0.0
11
-135.1777
21
157.8983
31
0.0
0
LINE
8
CUT
10
-135.1777
20
157.8983
30
0.0
11
-142.2923
21
157.8983
31
0.0
0
LINE
8
CUT
10
-142.2923
20
157.8983
30
0.0
11
-146.0664
21
157.6232
31
0.0
0
LINE
8
CUT
10
-146.0664
20
157.6232
30
0.0
11
-149.7745
21
156.8179
31
0.0
0
LINE
8
CUT
10
-149.7745
20
156.8179
30
0.0
11
-153.4081
21
155.5122
31
0.0
0
LINE
8
CUT
10
-153.4081
20
155.5122
30
0.0
11
-156.9589
21
153.7358
31
0.0
0
LINE
8
CUT
10
-156.9589
20
153.7358
30
0.0
11
-160.4184
21
151.5184
31
0.0
0
LINE
8
CUT
10
-160.4184
20
151.5184
30
0.0
11
-163.7782
21
148.8899
31
0.0
0
LINE
8
CUT
10
-163.7782
20
148.8899
30
0.0
11
-167.0299
21
145.8801
31
0.0
0
LINE
8
CUT
10
-167.0299
20
145.8801
30
0.0
11
-170.1652
21
142.5186
31
0.0
0
LINE
8
CUT
10
-170.1652
20
142.5186
30
0.0
11
-173.1756
21
138.8352
31
0.0
0
LINE
8
CUT
10
-173.1756
20
138.8352
30
0.0
11
-176.0526
21
134.8598
31
0.0
0
LINE
8
CUT
10
-176.0526
20
134.8598
30
0.0
11
-178.7880
21
130.6221
31
0.0
0
LINE
8
CUT
10
-178.7880
20
130.6221
30
0.0
11
-181.3733
21
126.1519
31
0.0
0
LINE
8
CUT
10
-181.3733
20
126.1519
30
0.0
11
-183.8000
21
121.4789
31
0.0
0
LINE
8
CUT
10
-183.8000
20
121.4789
30
0.0
11
-186.0599
21
116.6329
31
0.0
0
LINE
8
CUT
10
-186.0599
20
116.6329
30
0.0
11
-188.1444
21
111.6437
31
0.0
0
LINE
8
CUT
10
-188.1444
20
111.6437
30
0.0
11
-190.0451
21
106.5411
31
0.0
0
LINE
8
CUT
10
-190.0451
20
106.5411
30
0.0
11
-191.7538
21
101.3547
31
0.0
0
LINE
8
CUT
10
-191.7538
20
101.3547
30
0.0
11
-193.2618
21
96.1145
31
0.0
0
LINE
8
CUT
10
-193.2618
20
96.1145
30
0.0
11
-194.5610
21
90.8501
31
0.0
0
LINE
8
CUT
10
-194.5610
20
90.8501
30
0.0
11
-195.6428
21
85.5914
31
0.0
0
LINE
8
CUT
10
-195.6428
20
85.5914
30
0.0
11
-196.4988
21
80.3681
31
0.0
0
LINE
8
CUT
10
-196.4988
20
80.3681
30
0.0
11
-197.1206
21
75.2099
31
0.0
0
LINE
8
CUT
10
-197.1206
20
75.2099
30
0.0
11
-197.4999
21
70.1467
31
0.0
0
LINE
8
CUT
10
-197.4999
20
70.1467
30
0.0
11
-197.6282
21
65.2082
31
0.0
0
LINE
8
CUT
10
-197.6282
20
65.2082
30
0.0
11
-197.5293
21
64.1147
31
0.0
0
LINE
8
CUT
10
-197.5293
20
64.1147
30
0.0
11
-197.2386
21
62.9888
31
0.0
0
LINE
8
CUT
10
-197.2386
20
62.9888
30
0.0
11
-196.7652
21
61.8409
31
0.0
0
LINE
8
CUT
10
-196.7652
20
61.8409
30
0.0
11
-196.1181
21
60.6815
31
0.0
0
LINE
8
CUT
10
-196.1181
20
60.6815
30
0.0
11
-195.3065
21
59.5210
31
0.0
0
LINE
8
CUT
10
-195.3065
20
59.5210
30
0.0
11
-194.3395
21
58.3700
31
0.0
0
LINE
8
CUT
10
-194.3395
20
58.3700
30
0.0
11
-193.2260
21
57.2389
31
0.0
0
LINE
8
CUT
10
-193.2260
20
57.2389
30
0.0
11
-191.9753
21
56.1381
31
0.0
0
LINE
8
CUT
10
-191.9753
20
56.1381
30
0.0
11
-190.5963
21
55.0781
31
0.0
0
LINE
8
CUT
10
-190.5963
20
55.0781
30
0.0
11
-189.0981
21
54.0694
31
0.0
0
LINE
8
CUT
10
-189.0981
20
54.0694
30
0.0
11
-187.4899
21
53.1225
31
0.0
0
LINE
8
CUT
10
-187.4899
20
53.1225
30
0.0
11
-185.7807
21
52.2477
31
0.0
0
LINE
8
CUT
10
-185.7807
20
52.2477
30
0.0
11
-183.9795
21
51.4557
31
0.0
0
LINE
8
CUT
10
-183.9795
20
51.4557
30
0.0
11
-182.0956
21
50.7567
31
0.0
0
LINE
8
CUT
10
-182.0956
20
50.7567
30
0.0
11
-180.1378
21
50.1614
31
0.0
0
LINE
8
CUT
10
-180.1378
20
50.1614
30
0.0
11
-178.1154
21
49.6802
31
0.0
0
LINE
8
CUT
10
-178.1154
20
49.6802
30
0.0
11
-176.0374
21
49.3234
31
0.0
0
LINE
8
CUT
10
-176.0374
20
49.3234
30
0.0
11
-173.9128
21
49.1017
31
0.0
0
LINE
8
CUT
10
-173.9128
20
49.1017
30
0.0
11
-164.7595
21
48.9430
31
0.0
0
LINE
8
CUT
10
-164.7595
20
48.9430
30
0.0
11
-155.6062
21
48.7928
31
0.0
0
LINE
8
CUT
10
-155.6062
20
48.7928
30
0.0
11
-146.4529
21
48.6512
31
0.0
0
LINE
8
CUT
10
-146.4529
20
48.6512
30
0.0
11
-137.2996
21
48.5182
31
0.0
0
LINE
8
CUT
10
-137.2996
20
48.5182
30
0.0
11
-128.1463
21
48.3938
31
0.0
0
LINE
8
CUT
10
-128.1463
20
48.3938
30
0.0
11
-118.9930
21
48.2780
31
0.0
0
LINE
8
CUT
10
-118.9930
20
48.2780
30
0.0
11
-109.8397
21
48.1707
31
0.0
0
LINE
8
CUT
10
-109.8397
20
48.1707
30
0.0
11
-100.6864
21
48.0720
31
0.0
0
LINE
8
CUT
10
-100.6864
20
48.0720
30
0.0
11
-91.5331
21
47.9819
31
0.0
0
LINE
8
CUT
10
-91.5331
20
47.9819
30
0.0
11
-82.3798
21
47.9004
31
0.0
0
LINE
8
CUT
10
-82.3798
20
47.9004
30
0.0
11
-73.2264
21
47.8275
31
0.0
0
LINE
8
CUT
10
-73.2264
20
47.8275
30
0.0
11
-64.0731
21
47.7631
31
0.0
0
LINE
8
CUT
10
-64.0731
20
47.7631
30
0.0
11
-54.9198
21
47.7073
31
0.0
0
LINE
8
CUT
10
-54.9198
20
47.7073
30
0.0
11
-45.7665
21
47.6602
31
0.0
0
LINE
8
CUT
10
-45.7665
20
47.6602
30
0.0
11
-36.6132
21
47.6215
31
0.0
0
LINE
8
CUT
10
-36.6132
20
47.6215
30
0.0
11
-27.4599
21
47.5915
31
0.0
0
LINE
8
CUT
10
-27.4599
20
47.5915
30
0.0
11
-18.3066
21
47.5701
31
0.0
0
LINE
8
CUT
10
-18.3066
20
47.5701
30
0.0
11
-9.1533
21
47.5572
31
0.0
0
LINE
8
CUT
10
-9.1533
20
47.5572
30
0.0
11
-0.0000
21
47.5529
31
0.0
0
LINE
8
CUT
10
-0.0000
20
47.5529
30
0.0
11
0.0000
21
47.5529
31
0.0
0
LINE
8
REG
10
0.0000
20
-20.0000
30
0.0
11
0.0000
21
177.8983
31
0.0
0
ENDSEC
0
EOF
