0
SECTION
2
ENTITIES
0
LINE
8
CUT
10
0.0000
20
0.1631
30
0.0
11
11.6822
21
0.1674
31
0.0
0
LINE
8
CUT
10
11.6822
20
0.1674
30
0.0
11
23.3644
21
0.1803
31
0.0
0
LINE
8
CUT
10
23.3644
20
0.1803
30
0.0
11
35.0465
21
0.2017
31
0.0
0
LINE
8
CUT
10
35.0465
20
0.2017
30
0.0
11
46.7287
21
0.2318
31
0.0
0
LINE
8
CUT
10
46.7287
20
0.2318
30
0.0
11
58.4109
21
0.2704
31
0.0
0
LINE
8
CUT
10
58.4109
20
0.2704
30
0.0
11
70.0931
21
0.3176
31
0.0
0
LINE
8
CUT
10
70.0931
20
0.3176
30
0.0
11
81.7753
21
0.3734
31
0.0
0
LINE
8
CUT
10
81.7753
20
0.3734
30
0.0
11
93.4574
21
0.4377
31
0.0
0
LINE
8
CUT
10
93.4574
20
0.4377
30
0.0
11
105.1396
21
0.5106
31
0.0
0
LINE
8
CUT
10
105.1396
20
0.5106
30
0.0
11
116.8218
21
0.5922
31
0.0
0
LINE
8
CUT
10
116.8218
20
0.5922
30
0.0
11
128.5040
21
0.6823
31
0.0
0
LINE
8
CUT
10
128.5040
20
0.6823
30
0.0
11
140.1862
21
0.7809
31
0.0
0
LINE
8
CUT
10
140.1862
20
0.7809
30
0.0
11
151.8683
21
0.8882
31
0.0
0
LINE
8
CUT
10
151.8683
20
0.8882
30
0.0
11
163.5505
21
1.0040
31
0.0
0
LINE
8
CUT
10
163.5505
20
1.0040
30
0.0
11
175.2327
21
1.1285
31
0.0
0
LINE
8
CUT
10
175.2327
20
1.1285
30
0.0
11
186.9149
21
1.2615
31
0.0
0
LINE
8
CUT
10
186.9149
20
1.2615
30
0.0
11
198.5971
21
1.4030
31
0.0
0
LINE
8
CUT
10
198.5971
20
1.4030
30
0.0
11
210.2792
21
1.5532
31
0.0
0
LINE
8
CUT
10
210.2792
20
1.5532
30
0.0
11
221.9614
21
1.7119
31
0.0
0
LINE
8
CUT
10
221.9614
20
1.7119
30
0.0
11
223.0171
21
4.2549
31
0.0
0
LINE
8
CUT
10
223.0171
20
4.2549
30
0.0
11
224.3915
21
6.4822
31
0.0
0
LINE
8
CUT
10
224.3915
20
6.4822
30
0.0
11
226.0388
21
8.4249
31
0.0
0
LINE
8
CUT
10
226.0388
20
8.4249
30
0.0
11
227.9129
21
10.1146
31
0.0
0
LINE
8
CUT
10
227.9129
20
10.1146
30
0.0
11
229.9678
21
11.5823
31
0.0
0
LINE
8
CUT
10
229.9678
20
11.5823
30
0.0
11
232.1577
21
12.8594
31
0.0
0
LINE
8
CUT
10
232.1577
20
12.8594
30
0.0
11
234.4366
21
13.9772
31
0.0
0
LINE
8
CUT
10
234.4366
20
13.9772
30
0.0
11
236.7584
21
14.9670
31
0.0
0
LINE
8
CUT
10
236.7584
20
14.9670
30
0.0
11
239.0773
21
15.8600
31
0.0
0
LINE
8
CUT
10
239.0773
20
15.8600
30
0.0
11
241.3472
21
16.6876
31
0.0
0
LINE
8
CUT
10
241.3472
20
16.6876
30
0.0
11
243.5222
21
17.4809
31
0.0
0
LINE
8
CUT
10
243.5222
20
17.4809
30
0.0
11
245.5564
21
18.2714
31
0.0
0
LINE
8
CUT
10
245.5564
20
18.2714
30
0.0
11
247.4037
21
19.0903
31
0.0
0
LINE
8
CUT
10
247.4037
20
19.0903
30
0.0
11
249.0182
21
19.9688
31
0.0
0
LINE
8
CUT
10
249.0182
20
19.9688
30
0.0
11
250.3539
21
20.9383
31
0.0
0
LINE
8
CUT
10
250.3539
20
20.9383
30
0.0
11
251.3649
21
22.0301
31
0.0
0
LINE
8
CUT
10
251.3649
20
22.0301
30
0.0
11
252.0052
21
23.2753
31
0.0
0
LINE
8
CUT
10
252.0052
20
23.2753
30
0.0
11
252.2289
21
24.7054
31
0.0
0
LINE
8
CUT
10
252.2289
20
24.7054
30
0.0
11
252.0652
21
31.5703
31
0.0
0
LINE
8
CUT
10
252.0652
20
31.5703
30
0.0
11
251.5811
21
38.6086
31
0.0
0
LINE
8
CUT
10
251.5811
20
38.6086
30
0.0
11
250.7874
21
45.7789
31
0.0
0
LINE
8
CUT
10
250.7874
20
45.7789
30
0.0
11
249.6949
21
53.0397
31
0.0
0
LINE
8
CUT
10
249.6949
20
53.0397
30
0.0
11
248.3143
21
60.3498
31
0.0
0
LINE
8
CUT
10
248.3143
20
60.3498
30
0.0
11
246.6562
21
67.6677
31
0.0
0
LINE
8
CUT
10
246.6562
20
67.6677
30
0.0
11
244.7315
21
74.9521
31
0.0
0
LINE
8
CUT
10
244.7315
20
74.9521
30
0.0
11
242.5508
21
82.1615
31
0.0
0
LINE
8
CUT
10
242.5508
20
82.1615
30
0.0
11
240.1249
21
89.2546
31
0.0
0
LINE
8
CUT
10
240.1249
20
89.2546
30
0.0
11
237.4644
21
96.1900
31
0.0
0
LINE
8
CUT
10
237.4644
20
96.1900
30
0.0
11
234.5803
21
102.9263
31
0.0
0
LINE
8
CUT
10
234.5803
20
102.9263
30
0.0
11
231.4831
21
109.4221
31
0.0
0
LINE
8
CUT
10
231.4831
20
109.4221
30
0.0
11
228.1835
21
115.6361
31
0.0
0
LINE
8
CUT
10
228.1835
20
115.6361
30
0.0
11
224.6924
21
121.5268
31
0.0
0
LINE
8
CUT
10
224.6924
20
121.5268
30
0.0
11
221.0205
21
127.0530
31
0.0
0
LINE
8
CUT
10
221.0205
20
127.0530
30
0.0
11
217.1784
21
132.1731
31
0.0
0
LINE
8
CUT
10
217.1784
20
132.1731
30
0.0
11
213.1769
21
136.8459
31
0.0
0
LINE
8
CUT
10
213.1769
20
136.8459
30
0.0
11
209.0268
21
141.0298
31
0.0
0
LINE
8
CUT
10
209.0268
20
141.0298
30
0.0
11
204.7387
21
144.6837
31
0.0
0
LINE
8
CUT
10
204.7387
20
144.6837
30
0.0
11
200.3235
21
147.7659
31
0.0
0
LINE
8
CUT
10
200.3235
20
147.7659
30
0.0
11
195.7917
21
150.2353
31
0.0
0
LINE
8
CUT
10
195.7917
20
150.2353
30
0.0
11
191.1542
21
152.0504
31
0.0
0
LINE
8
CUT
10
191.1542
20
152.0504
30
0.0
11
186.4216
21
153.1698
31
0.0
0
LINE
8
CUT
10
186.4216
20
153.1698
30
0.0
11
181.6048
21
153.5521
31
0.0
0
LINE
8
CUT
10
181.6048
20
153.5521
30
0.0
11
172.5246
21
153.5521
31
0.0
0
LINE
8
CUT
10
172.5246
20
153.5521
30
0.0
11
163.4443
21
153.5521
31
0.0
0
LINE
8
CUT
10
163.4443
20
153.5521
30
0.0
11
154.3641
21
153.5521
31
0.0
0
LINE
8
CUT
10
154.3641
20
153.5521
30
0.0
11
145.2838
21
153.5521
31
0.0
0
LINE
8
CUT
10
145.2838
20
153.5521
30
0.0
11
136.2036
21
153.5521
31
0.0
0
LINE
8
CUT
10
136.2036
20
153.5521
30
0.0
11
127.1234
21
153.5521
31
0.0
0
LINE
8
CUT
10
127.1234
20
153.5521
30
0.0
11
118.0431
21
153.5521
31
0.0
0
LINE
8
CUT
10
118.0431
20
153.5521
30
0.0
11
108.9629
21
153.5521
31
0.0
0
LINE
8
CUT
10
108.9629
20
153.5521
30
0.0
11
99.8826
21
153.5521
31
0.0
0
LINE
8
CUT
10
99.8826
20
153.5521
30
0.0
11
90.8024
21
153.5521
31
0.0
0
LINE
8
CUT
10
90.8024
20
153.5521
30
0.0
11
81.7222
21
153.5521
31
0.0
0
LINE
8
CUT
10
81.7222
20
153.5521
30
0.0
11
72.6419
21
153.5521
31
0.0
0
LINE
8
CUT
10
72.6419
20
153.5521
30
0.0
11
63.5617
21
153.5521
31
0.0
0
LINE
8
CUT
10
63.5617
20
153.5521
30
0.0
11
54.4814
21
153.5521
31
0.0
0
LINE
8
CUT
10
54.4814
20
153.5521
30
0.0
11
45.4012
21
153.5521
31
0.0
0
LINE
8
CUT
10
45.4012
20
153.5521
30
0.0
11
36.3210
21
153.5521
31
0.0
0
LINE
8
CUT
10
36.3210
20
153.5521
30
0.0
11
27.2407
21
153.5521
31
0.0
0
LINE
8
CUT
10
27.2407
20
153.5521
30
0.0
11
18.1605
21
153.5521
31
0.0
0
LINE
8
CUT
10
18.1605
20
153.5521
30
0.0
11
9.0802
21
153.5521
31
0.0
0
LINE
8
CUT
10
9.0802
20
153.5521
30
0.0
11
0.0000
21
153.5521
31
0.0
0
LINE
8
CUT
10
0.0000
20
153.5521
30
0.0
11
-0.0000
21
153.5521
31
0.0
0
LINE
8
CUT
10
-0.0000
20
153.5521
30
0.0
11
-9.0802
21
153.5521
31
0.0
0
LINE
8
CUT
10
-9.0802
20
153.5521
30
0.0
11
-18.1605
21
153.5521
31
0.0
0
LINE
8
CUT
10
-18.1605
20
153.5521
30
0.0
11
-27.2407
21
153.5521
31
0.0
0
LINE
8
CUT
10
-27.2407
20
153.5521
30
0.0
11
-36.3210
21
153.5521
31
0.0
0
LINE
8
CUT
10
-36.3210
20
153.5521
30
0.0
11
-45.4012
21
153.5521
31
0.0
0
LINE
8
CUT
10
-45.4012
20
153.5521
30
0.0
11
-54.4814
21
153.5521
31
0.0
0
LINE
8
CUT
10
-54.4814
20
153.5521
30
0.0
11
-63.5617
21
153.5521
31
0.0
0
LINE
8
CUT
10
-63.5617
20
153.5521
30
0.0
11
-72.6419
21
153.5521
31
0.0
0
LINE
8
CUT
10
-72.6419
20
153.5521
30
0.0
11
-81.7222
21
153.5521
31
0.0
0
LINE
8
CUT
10
-81.7222
20
153.5521
30
0.0
11
-90.8024
21
153.5521
31
0.0
0
LINE
8
CUT
10
-90.8024
20
153.5521
30
0.0
11
-99.8826
21
153.5521
31
0.0
0
LINE
8
CUT
10
-99.8826
20
153.5521
30
0.0
11
-108.9629
21
153.5521
31
0.0
0
LINE
8
CUT
10
-108.9629
20
153.5521
30
0.0
11
-118.0431
21
153.5521
31
0.0
0
LINE
8
CUT
10
-118.0431
20
153.5521
30
0.0
11
-127.1234
21
153.5521
31
0.0
0
LINE
8
CUT
10
-127.1234
20
153.5521
30
0.0
11
-136.2036
21
153.5521
31
0.0
0
LINE
8
CUT
10
-136.2036
20
153.5521
30
0.0
11
-145.2838
21
153.5521
31
0.0
0
LINE
8
CUT
10
-145.2838
20
153.5521
30
0.0
11
-154.3641
21
153.5521
31
0.0
0
LINE
8
CUT
10
-154.3641
20
153.5521
30
0.0
11
-163.4443
21
153.5521
31
0.0
0
LINE
8
CUT
10
-163.4443
20
153.5521
30
0.0
11
-172.5246
21
153.5521
31
0.0
0
LINE
8
CUT
10
-172.5246
20
153.5521
30
0.0
11
-181.6048
21
153.5521
31
0.0
0
LINE
8
CUT
10
-181.6048
20
153.5521
30
0.0
11
-186.4216
21
153.1698
31
0.0
0
LINE
8
CUT
10
-186.4216
20
153.1698
30
0.0
11
-191.1542
21
152.0504
31
0.0
0
LINE
8
CUT
10
-191.1542
20
152.0504
30
0.0
11
-195.7917
21
150.2353
31
0.0
0
LINE
8
CUT
10
-195.7917
20
150.2353
30
0.0
11
-200.3235
21
147.7659
31
0.0
0
LINE
8
CUT
10
-200.3235
20
147.7659
30
0.0
11
-204.7387
21
144.6837
31
0.0
0
LINE
8
CUT
10
-204.7387
20
144.6837
30
0.0
11
-209.0268
21
141.0298
31
0.0
0
LINE
8
CUT
10
-209.0268
20
141.0298
30
0.0
11
-213.1769
21
136.8459
31
0.0
0
LINE
8
CUT
10
-213.1769
20
136.8459
30
0.0
11
-217.1784
21
132.1731
31
0.0
0
LINE
8
CUT
10
-217.1784
20
132.1731
30
0.0
11
-221.0205
21
127.0530
31
0.0
0
LINE
8
CUT
10
-221.0205
20
127.0530
30
0.0
11
-224.6924
21
121.5268
31
0.0
0
LINE
8
CUT
10
-224.6924
20
121.5268
30
0.0
11
-228.1835
21
115.6361
31
0.0
0
LINE
8
CUT
10
-228.1835
20
115.6361
30
0.0
11
-231.4831
21
109.4221
31
0.0
0
LINE
8
CUT
10
-231.4831
20
109.4221
30
0.0
11
-234.5803
21
102.9263
31
0.0
0
LINE
8
CUT
10
-234.5803
20
102.9263
30
0.0
11
-237.4644
21
96.1900
31
0.0
0
LINE
8
CUT
10
-237.4644
20
96.1900
30
0.0
11
-240.1249
21
89.2546
31
0.0
0
LINE
8
CUT
10
-240.1249
20
89.2546
30
0.0
11
-242.5508
21
82.1615
31
0.0
0
LINE
8
CUT
10
-242.5508
20
82.1615
30
0.0
11
-244.7315
21
74.9521
31
0.0
0
LINE
8
CUT
10
-244.7315
20
74.9521
30
0.0
11
-246.6562
21
67.6677
31
0.0
0
LINE
8
CUT
10
-246.6562
20
67.6677
30
0.0
11
-248.3143
21
60.3498
31
0.0
0
LINE
8
CUT
10
-248.3143
20
60.3498
30
0.0
11
-249.6949
21
53.0397
31
0.0
0
LINE
8
CUT
10
-249.6949
20
53.0397
30
0.0
11
-250.7874
21
45.7789
31
0.0
0
LINE
8
CUT
10
-250.7874
20
45.7789
30
0.0
11
-251.5811
21
38.6086
31
0.0
0
LINE
8
CUT
10
-251.5811
20
38.6086
30
0.0
11
-252.0652
21
31.5703
31
0.0
0
LINE
8
CUT
10
-252.0652
20
31.5703
30
0.0
11
-252.2289
21
24.7054
31
0.0
0
LINE
8
CUT
10
-252.2289
20
24.7054
30
0.0
11
-252.0052
21
23.2753
31
0.0
0
LINE
8
CUT
10
-252.0052
20
23.2753
30
0.0
11
-251.3649
21
22.0301
31
0.0
0
LINE
8
CUT
10
-251.3649
20
22.0301
30
0.0
11
-250.3539
21
20.9383
31
0.0
0
LINE
8
CUT
10
-250.3539
20
20.9383
30
0.0
11
-249.0182
21
19.9688
31
0.0
0
LINE
8
CUT
10
-249.0182
20
19.9688
30
0.0
11
-247.4037
21
19.0903
31
0.0
0
LINE
8
CUT
10
-247.4037
20
19.0903
30
0.0
11
-245.5564
21
18.2714
31
0.0
0
LINE
8
CUT
10
-245.5564
20
18.2714
30
0.0
11
-243.5222
21
17.4809
31
0.0
0
LINE
8
CUT
10
-243.5222
20
17.4809
30
0.0
11
-241.3472
21
16.6876
31
0.0
0
LINE
8
CUT
10
-241.3472
20
16.6876
30
0.0
11
-239.0773
21
15.8600
31
0.0
0
LINE
8
CUT
10
-239.0773
20
15.8600
30
0.0
11
-236.7584
21
14.9670
31
0.0
0
LINE
8
CUT
10
-236.7584
20
14.9670
30
0.0
11
-234.4366
21
13.9772
31
0.0
0
LINE
8
CUT
10
-234.4366
20
13.9772
30
0.0
11
-232.1577
21
12.8594
31
0.0
0
LINE
8
CUT
10
-232.1577
20
12.8594
30
0.0
11
-229.9678
21
11.5823
31
0.0
0
LINE
8
CUT
10
-229.9678
20
11.5823
30
0.0
11
-227.9129
21
10.1146
31
0.0
0
LINE
8
CUT
10
-227.9129
20
10.1146
30
0.0
11
-226.0388
21
8.4249
31
0.0
0
LINE
8
CUT
10
-226.0388
20
8.4249
30
0.0
11
-224.3915
21
6.4822
31
0.0
0
LINE
8
CUT
10
-224.3915
20
6.4822
30
0.0
11
-223.0171
21
4.2549
31
0.0
0
LINE
8
CUT
10
-223.0171
20
4.2549
30
0.0
11
-221.9614
21
1.7119
31
0.0
0
LINE
8
CUT
10
-221.9614
20
1.7119
30
0.0
11
-210.2792
21
1.5532
31
0.0
0
LINE
8
CUT
10
-210.2792
20
1.5532
30
0.0
11
-198.5971
21
1.4030
31
0.0
0
LINE
8
CUT
10
-198.5971
20
1.4030
30
0.0
11
-186.9149
21
1.2615
31
0.0
0
LINE
8
CUT
10
-186.9149
20
1.2615
30
0.0
11
-175.2327
21
1.1285
31
0.0
0
LINE
8
CUT
10
-175.2327
20
1.1285
30
0.0
11
-163.5505
21
1.0040
31
0.0
0
LINE
8
CUT
10
-163.5505
20
1.0040
30
0.0
11
-151.8683
21
0.8882
31
0.0
0
LINE
8
CUT
10
-151.8683
20
0.8882
30
0.0
11
-140.1862
21
0.7809
31
0.0
0
LINE
8
CUT
10
-140.1862
20
0.7809
30
0.0
11
-128.5040
21
0.6823
31
0.0
0
LINE
8
CUT
10
-128.5040
20
0.6823
30
0.0
11
-116.8218
21
0.5922
31
0.0
0
LINE
8
CUT
10
-116.8218
20
0.5922
30
0.0
11
-105.1396
21
0.5106
31
0.0
0
LINE
8
CUT
10
-105.1396
20
0.5106
30
0.0
11
-93.4574
21
0.4377
31
0.0
0
LINE
8
CUT
10
-93.4574
20
0.4377
30
0.0
11
-81.7753
21
0.3734
31
0.0
0
LINE
8
CUT
10
-81.7753
20
0.3734
30
0.0
11
-70.0931
21
0.3176
31
0.0
0
LINE
8
CUT
10
-70.0931
20
0.3176
30
0.0
11
-58.4109
21
0.2704
31
0.0
0
LINE
8
CUT
10
-58.4109
20
0.2704
30
0.0
11
-46.7287
21
0.2318
31
0.0
0
LINE
8
CUT
10
-46.7287
20
0.2318
30
0.0
11
-35.0465
21
0.2017
31
0.0
0
LINE
8
CUT
10
-35.0465
20
0.2017
30
0.0
11
-23.3644
21
0.1803
31
0.0
0
LINE
8
CUT
10
-23.3644
20
0.1803
30
0.0
11
-11.6822
21
0.1674
31
0.0
0
LINE
8
CUT
10
-11.6822
20
0.1674
30
0.0
11
-0.0000
21
0.1631
31
0.0
0
LINE
8
CUT
10
-0.0000
20
0.1631
30
0.0
11
0.0000
21
0.1631
31
0.0
0
LINE
8
REG
10
0.0000
20
-20.0000
30
0.0
11
0.0000
21
173.5521
31
0.0
0
ENDSEC
0
EOF
