0
SECTION
2
ENTITIES
0
LINE
8
CUT
10
0.0000
20
0.0000
30
0.0
11
12.9557
21
0.0043
31
0.0
0
LINE
8
CUT
10
12.9557
20
0.0043
30
0.0
11
25.9114
21
0.0172
31
0.0
0
LINE
8
CUT
10
25.9114
20
0.0172
30
0.0
11
38.8671
21
0.0386
31
0.0
0
LINE
8
CUT
10
38.8671
20
0.0386
30
0.0
11
51.8228
21
0.0686
31
0.0
0
LINE
8
CUT
10
51.8228
20
0.0686
30
0.0
11
64.7784
21
0.1073
31
0.0
0
LINE
8
CUT
10
64.7784
20
0.1073
30
0.0
11
77.7341
21
0.1545
31
0.0
0
LINE
8
CUT
10
77.7341
20
0.1545
30
0.0
11
90.6898
21
0.2102
31
0.0
0
LINE
8
CUT
10
90.6898
20
0.2102
30
0.0
11
103.6455
21
0.2746
31
0.0
0
LINE
8
CUT
10
103.6455
20
0.2746
30
0.0
11
116.6012
21
0.3475
31
0.0
0
LINE
8
CUT
10
116.6012
20
0.3475
30
0.0
11
129.5569
21
0.4290
31
0.0
0
LINE
8
CUT
10
129.5569
20
0.4290
30
0.0
11
142.5126
21
0.5191
31
0.0
0
LINE
8
CUT
10
142.5126
20
0.5191
30
0.0
11
155.4683
21
0.6178
31
0.0
0
LINE
8
CUT
10
155.4683
20
0.6178
30
0.0
11
168.4239
21
0.7251
31
0.0
0
LINE
8
CUT
10
168.4239
20
0.7251
30
0.0
11
181.3796
21
0.8409
31
0.0
0
LINE
8
CUT
10
181.3796
20
0.8409
30
0.0
11
194.3353
21
0.9653
31
0.0
0
LINE
8
CUT
10
194.3353
20
0.9653
30
0.0
11
207.2910
21
1.0983
31
0.0
0
LINE
8
CUT
10
207.2910
20
1.0983
30
0.0
11
220.2467
21
1.2399
31
0.0
0
LINE
8
CUT
10
220.2467
20
1.2399
30
0.0
11
233.2024
21
1.3901
31
0.0
0
LINE
8
CUT
10
233.2024
20
1.3901
30
0.0
11
246.1581
21
1.5488
31
0.0
0
LINE
8
CUT
10
246.1581
20
1.5488
30
0.0
11
247.2343
21
4.0563
31
0.0
0
LINE
8
CUT
10
247.2343
20
4.0563
30
0.0
11
248.6857
21
6.2384
31
0.0
0
LINE
8
CUT
10
248.6857
20
6.2384
30
0.0
11
250.4593
21
8.1269
31
0.0
0
LINE
8
CUT
10
250.4593
20
8.1269
30
0.0
11
252.5020
21
9.7540
31
0.0
0
LINE
8
CUT
10
252.5020
20
9.7540
30
0.0
11
254.7611
21
11.1517
31
0.0
0
LINE
8
CUT
10
254.7611
20
11.1517
30
0.0
11
257.1835
21
12.3518
31
0.0
0
LINE
8
CUT
10
257.1835
20
12.3518
30
0.0
11
259.7163
21
13.3865
31
0.0
0
LINE
8
CUT
10
259.7163
20
13.3865
30
0.0
11
262.3066
21
14.2877
31
0.0
0
LINE
8
CUT
10
262.3066
20
14.2877
30
0.0
11
264.9015
21
15.0873
31
0.0
0
LINE
8
CUT
10
264.9015
20
15.0873
30
0.0
11
267.4480
21
15.8175
31
0.0
0
LINE
8
CUT
10
267.4480
20
15.8175
30
0.0
11
269.8931
21
16.5102
31
0.0
0
LINE
8
CUT
10
269.8931
20
16.5102
30
0.0
11
272.1840
21
17.1973
31
0.0
0
LINE
8
CUT
10
272.1840
20
17.1973
30
0.0
11
274.2676
21
17.9109
31
0.0
0
LINE
8
CUT
10
274.2676
20
17.9109
30
0.0
11
276.0911
21
18.6830
31
0.0
0
LINE
8
CUT
10
276.0911
20
18.6830
30
0.0
11
277.6016
21
19.5456
31
0.0
0
LINE
8
CUT
10
277.6016
20
19.5456
30
0.0
11
278.7460
21
20.5306
31
0.0
0
LINE
8
CUT
10
278.7460
20
20.5306
30
0.0
11
279.4715
21
21.6701
31
0.0
0
LINE
8
CUT
10
279.4715
20
21.6701
30
0.0
11
279.7251
21
22.9960
31
0.0
0
LINE
8
CUT
10
279.7251
20
22.9960
30
0.0
11
279.5435
21
29.4284
31
0.0
0
LINE
8
CUT
10
279.5435
20
29.4284
30
0.0
11
279.0067
21
36.0233
31
0.0
0
LINE
8
CUT
10
279.0067
20
36.0233
30
0.0
11
278.1265
21
42.7418
31
0.0
0
LINE
8
CUT
10
278.1265
20
42.7418
30
0.0
11
276.9149
21
49.5452
31
0.0
0
LINE
8
CUT
10
276.9149
20
49.5452
30
0.0
11
275.3837
21
56.3947
31
0.0
0
LINE
8
CUT
10
275.3837
20
56.3947
30
0.0
11
273.5449
21
63.2516
31
0.0
0
LINE
8
CUT
10
273.5449
20
63.2516
30
0.0
11
271.4103
21
70.0770
31
0.0
0
LINE
8
CUT
10
271.4103
20
70.0770
30
0.0
11
268.9919
21
76.8322
31
0.0
0
LINE
8
CUT
10
268.9919
20
76.8322
30
0.0
11
266.3016
21
83.4784
31
0.0
0
LINE
8
CUT
10
266.3016
20
83.4784
30
0.0
11
263.3511
21
89.9768
31
0.0
0
LINE
8
CUT
10
263.3511
20
89.9768
30
0.0
11
260.1525
21
96.2887
31
0.0
0
LINE
8
CUT
10
260.1525
20
96.2887
30
0.0
11
256.7177
21
102.3753
31
0.0
0
LINE
8
CUT
10
256.7177
20
102.3753
30
0.0
11
253.0585
21
108.1978
31
0.0
0
LINE
8
CUT
10
253.0585
20
108.1978
30
0.0
11
249.1868
21
113.7174
31
0.0
0
LINE
8
CUT
10
249.1868
20
113.7174
30
0.0
11
245.1146
21
118.8954
31
0.0
0
LINE
8
CUT
10
245.1146
20
118.8954
30
0.0
11
240.8537
21
123.6929
31
0.0
0
LINE
8
CUT
10
240.8537
20
123.6929
30
0.0
11
236.4160
21
128.0713
31
0.0
0
LINE
8
CUT
10
236.4160
20
128.0713
30
0.0
11
231.8134
21
131.9917
31
0.0
0
LINE
8
CUT
10
231.8134
20
131.9917
30
0.0
11
227.0579
21
135.4153
31
0.0
0
LINE
8
CUT
10
227.0579
20
135.4153
30
0.0
11
222.1613
21
138.3034
31
0.0
0
LINE
8
CUT
10
222.1613
20
138.3034
30
0.0
11
217.1355
21
140.6172
31
0.0
0
LINE
8
CUT
10
217.1355
20
140.6172
30
0.0
11
211.9924
21
142.3179
31
0.0
0
LINE
8
CUT
10
211.9924
20
142.3179
30
0.0
11
206.7440
21
143.3668
31
0.0
0
LINE
8
CUT
10
206.7440
20
143.3668
30
0.0
11
201.4021
21
143.7250
31
0.0
0
LINE
8
CUT
10
201.4021
20
143.7250
30
0.0
11
191.3320
21
143.7250
31
0.0
0
LINE
8
CUT
10
191.3320
20
143.7250
30
0.0
11
181.2619
21
143.7250
31
0.0
0
LINE
8
CUT
10
181.2619
20
143.7250
30
0.0
11
171.1917
21
143.7250
31
0.0
0
LINE
8
CUT
10
171.1917
20
143.7250
30
0.0
11
161.1216
21
143.7250
31
0.0
0
LINE
8
CUT
10
161.1216
20
143.7250
30
0.0
11
151.0515
21
143.7250
31
0.0
0
LINE
8
CUT
10
151.0515
20
143.7250
30
0.0
11
140.9814
21
143.7250
31
0.0
0
LINE
8
CUT
10
140.9814
20
143.7250
30
0.0
11
130.9113
21
143.7250
31
0.0
0
LINE
8
CUT
10
130.9113
20
143.7250
30
0.0
11
120.8412
21
143.7250
31
0.0
0
LINE
8
CUT
10
120.8412
20
143.7250
30
0.0
11
110.7711
21
143.7250
31
0.0
0
LINE
8
CUT
10
110.7711
20
143.7250
30
0.0
11
100.7010
21
143.7250
31
0.0
0
LINE
8
CUT
10
100.7010
20
143.7250
30
0.0
11
90.6309
21
143.7250
31
0.0
0
LINE
8
CUT
10
90.6309
20
143.7250
30
0.0
11
80.5608
21
143.7250
31
0.0
0
LINE
8
CUT
10
80.5608
20
143.7250
30
0.0
11
70.4907
21
143.7250
31
0.0
0
LINE
8
CUT
10
70.4907
20
143.7250
30
0.0
11
60.4206
21
143.7250
31
0.0
0
LINE
8
CUT
10
60.4206
20
143.7250
30
0.0
11
50.3505
21
143.7250
31
0.0
0
LINE
8
CUT
10
50.3505
20
143.7250
30
0.0
11
40.2804
21
143.7250
31
0.0
0
LINE
8
CUT
10
40.2804
20
143.7250
30
0.0
11
30.2103
21
143.7250
31
0.0
0
LINE
8
CUT
10
30.2103
20
143.7250
30
0.0
11
20.1402
21
143.7250
31
0.0
0
LINE
8
CUT
10
20.1402
20
143.7250
30
0.0
11
10.0701
21
143.7250
31
0.0
0
LINE
8
CUT
10
10.0701
20
143.7250
30
0.0
11
0.0000
21
143.7250
31
0.0
0
LINE
8
CUT
10
0.0000
20
143.7250
30
0.0
11
-0.0000
21
143.7250
31
0.0
0
LINE
8
CUT
10
-0.0000
20
143.7250
30
0.0
11
-10.0701
21
143.7250
31
0.0
0
LINE
8
CUT
10
-10.0701
20
143.7250
30
0.0
11
-20.1402
21
143.7250
31
0.0
0
LINE
8
CUT
10
-20.1402
20
143.7250
30
0.0
11
-30.2103
21
143.7250
31
0.0
0
LINE
8
CUT
10
-30.2103
20
143.7250
30
0.0
11
-40.2804
21
143.7250
31
0.0
0
LINE
8
CUT
10
-40.2804
20
143.7250
30
0.0
11
-50.3505
21
143.7250
31
0.0
0
LINE
8
CUT
10
-50.3505
20
143.7250
30
0.0
11
-60.4206
21
143.7250
31
0.0
0
LINE
8
CUT
10
-60.4206
20
143.7250
30
0.0
11
-70.4907
21
143.7250
31
0.0
0
LINE
8
CUT
10
-70.4907
20
143.7250
30
0.0
11
-80.5608
21
143.7250
31
0.0
0
LINE
8
CUT
10
-80.5608
20
143.7250
30
0.0
11
-90.6309
21
143.7250
31
0.0
0
LINE
8
CUT
10
-90.6309
20
143.7250
30
0.0
11
-100.7010
21
143.7250
31
0.0
0
LINE
8
CUT
10
-100.7010
20
143.7250
30
0.0
11
-110.7711
21
143.7250
31
0.0
0
LINE
8
CUT
10
-110.7711
20
143.7250
30
0.0
11
-120.8412
21
143.7250
31
0.0
0
LINE
8
CUT
10
-120.8412
20
143.7250
30
0.0
11
-130.9113
21
143.7250
31
0.0
0
LINE
8
CUT
10
-130.9113
20
143.7250
30
0.0
11
-140.9814
21
143.7250
31
0.0
0
LINE
8
CUT
10
-140.9814
20
143.7250
30
0.0
11
-151.0515
21
143.7250
31
0.0
0
LINE
8
CUT
10
-151.0515
20
143.7250
30
0.0
11
-161.1216
21
143.7250
31
0.0
0
LINE
8
CUT
10
-161.1216
20
143.7250
30
0.0
11
-171.1917
21
143.7250
31
0.0
0
LINE
8
CUT
10
-171.1917
20
143.7250
30
0.0
11
-181.2619
21
143.7250
31
0.0
0
LINE
8
CUT
10
-181.2619
20
143.7250
30
0.0
11
-191.3320
21
143.7250
31
0.0
0
LINE
8
CUT
10
-191.3320
20
143.7250
30
0.0
11
-201.4021
21
143.7250
31
0.0
0
LINE
8
CUT
10
-201.4021
20
143.7250
30
0.0
11
-206.7440
21
143.3668
31
0.0
0
LINE
8
CUT
10
-206.7440
20
143.3668
30
0.0
11
-211.9924
21
142.3179
31
0.0
0
LINE
8
CUT
10
-211.9924
20
142.3179
30
0.0
11
-217.1355
21
140.6172
31
0.0
0
LINE
8
CUT
10
-217.1355
20
140.6172
30
0.0
11
-222.1613
21
138.3034
31
0.0
0
LINE
8
CUT
10
-222.1613
20
138.3034
30
0.0
11
-227.0579
21
135.4153
31
0.0
0
LINE
8
CUT
10
-227.0579
20
135.4153
30
0.0
11
-231.8134
21
131.9917
31
0.0
0
LINE
8
CUT
10
-231.8134
20
131.9917
30
0.0
11
-236.4160
21
128.0713
31
0.0
0
LINE
8
CUT
10
-236.4160
20
128.0713
30
0.0
11
-240.8537
21
123.6929
31
0.0
0
LINE
8
CUT
10
-240.8537
20
123.6929
30
0.0
11
-245.1146
21
118.8954
31
0.0
0
LINE
8
CUT
10
-245.1146
20
118.8954
30
0.0
11
-249.1868
21
113.7174
31
0.0
0
LINE
8
CUT
10
-249.1868
20
113.7174
30
0.0
11
-253.0585
21
108.1978
31
0.0
0
LINE
8
CUT
10
-253.0585
20
108.1978
30
0.0
11
-256.7177
21
102.3753
31
0.0
0
LINE
8
CUT
10
-256.7177
20
102.3753
30
0.0
11
-260.1525
21
96.2887
31
0.0
0
LINE
8
CUT
10
-260.1525
20
96.2887
30
0.0
11
-263.3511
21
89.9768
31
0.0
0
LINE
8
CUT
10
-263.3511
20
89.9768
30
0.0
11
-266.3016
21
83.4784
31
0.0
0
LINE
8
CUT
10
-266.3016
20
83.4784
30
0.0
11
-268.9919
21
76.8322
31
0.0
0
LINE
8
CUT
10
-268.9919
20
76.8322
30
0.0
11
-271.4103
21
70.0770
31
0.0
0
LINE
8
CUT
10
-271.4103
20
70.0770
30
0.0
11
-273.5449
21
63.2516
31
0.0
0
LINE
8
CUT
10
-273.5449
20
63.2516
30
0.0
11
-275.3837
21
56.3947
31
0.0
0
LINE
8
CUT
10
-275.3837
20
56.3947
30
0.0
11
-276.9149
21
49.5452
31
0.0
0
LINE
8
CUT
10
-276.9149
20
49.5452
30
0.0
11
-278.1265
21
42.7418
31
0.0
0
LINE
8
CUT
10
-278.1265
20
42.7418
30
0.0
11
-279.0067
21
36.0233
31
0.0
0
LINE
8
CUT
10
-279.0067
20
36.0233
30
0.0
11
-279.5435
21
29.4284
31
0.0
0
LINE
8
CUT
10
-279.5435
20
29.4284
30
0.0
11
-279.7251
21
22.9960
31
0.0
0
LINE
8
CUT
10
-279.7251
20
22.9960
30
0.0
11
-279.4715
21
21.6701
31
0.0
0
LINE
8
CUT
10
-279.4715
20
21.6701
30
0.0
11
-278.7460
21
20.5306
31
0.0
0
LINE
8
CUT
10
-278.7460
20
20.5306
30
0.0
11
-277.6016
21
19.5456
31
0.0
0
LINE
8
CUT
10
-277.6016
20
19.5456
30
0.0
11
-276.0911
21
18.6830
31
0.0
0
LINE
8
CUT
10
-276.0911
20
18.6830
30
0.0
11
-274.2676
21
17.9109
31
0.0
0
LINE
8
CUT
10
-274.2676
20
17.9109
30
0.0
11
-272.1840
21
17.1973
31
0.0
0
LINE
8
CUT
10
-272.1840
20
17.1973
30
0.0
11
-269.8931
21
16.5102
31
0.0
0
LINE
8
CUT
10
-269.8931
20
16.5102
30
0.0
11
-267.4480
21
15.8175
31
0.0
0
LINE
8
CUT
10
-267.4480
20
15.8175
30
0.0
11
-264.9015
21
15.0873
31
0.0
0
LINE
8
CUT
10
-264.9015
20
15.0873
30
0.0
11
-262.3066
21
14.2877
31
0.0
0
LINE
8
CUT
10
-262.3066
20
14.2877
30
0.0
11
-259.7163
21
13.3865
31
0.0
0
LINE
8
CUT
10
-259.7163
20
13.3865
30
0.0
11
-257.1835
21
12.3518
31
0.0
0
LINE
8
CUT
10
-257.1835
20
12.3518
30
0.0
11
-254.7611
21
11.1517
31
0.0
0
LINE
8
CUT
10
-254.7611
20
11.1517
30
0.0
11
-252.5020
21
9.7540
31
0.0
0
LINE
8
CUT
10
-252.5020
20
9.7540
30
0.0
11
-250.4593
21
8.1269
31
0.0
0
LINE
8
CUT
10
-250.4593
20
8.1269
30
0.0
11
-248.6857
21
6.2384
31
0.0
0
LINE
8
CUT
10
-248.6857
20
6.2384
30
0.0
11
-247.2343
21
4.0563
31
0.0
0
LINE
8
CUT
10
-247.2343
20
4.0563
30
0.0
11
-246.1581
21
1.5488
31
0.0
0
LINE
8
CUT
10
-246.1581
20
1.5488
30
0.0
11
-233.2024
21
1.3901
31
0.0
0
LINE
8
CUT
10
-233.2024
20
1.3901
30
0.0
11
-220.2467
21
1.2399
31
0.0
0
LINE
8
CUT
10
-220.2467
20
1.2399
30
0.0
11
-207.2910
21
1.0983
31
0.0
0
LINE
8
CUT
10
-207.2910
20
1.0983
30
0.0
11
-194.3353
21
0.9653
31
0.0
0
LINE
8
CUT
10
-194.3353
20
0.9653
30
0.0
11
-181.3796
21
0.8409
31
0.0
0
LINE
8
CUT
10
-181.3796
20
0.8409
30
0.0
11
-168.4239
21
0.7251
31
0.0
0
LINE
8
CUT
10
-168.4239
20
0.7251
30
0.0
11
-155.4683
21
0.6178
31
0.0
0
LINE
8
CUT
10
-155.4683
20
0.6178
30
0.0
11
-142.5126
21
0.5191
31
0.0
0
LINE
8
CUT
10
-142.5126
20
0.5191
30
0.0
11
-129.5569
21
0.4290
31
0.0
0
LINE
8
CUT
10
-129.5569
20
0.4290
30
0.0
11
-116.6012
21
0.3475
31
0.0
0
LINE
8
CUT
10
-116.6012
20
0.3475
30
0.0
11
-103.6455
21
0.2746
31
0.0
0
LINE
8
CUT
10
-103.6455
20
0.2746
30
0.0
11
-90.6898
21
0.2102
31
0.0
0
LINE
8
CUT
10
-90.6898
20
0.2102
30
0.0
11
-77.7341
21
0.1545
31
0.0
0
LINE
8
CUT
10
-77.7341
20
0.1545
30
0.0
11
-64.7784
21
0.1073
31
0.0
0
LINE
8
CUT
10
-64.7784
20
0.1073
30
0.0
11
-51.8228
21
0.0686
31
0.0
0
LINE
8
CUT
10
-51.8228
20
0.0686
30
0.0
11
-38.8671
21
0.0386
31
0.0
0
LINE
8
CUT
10
-38.8671
20
0.0386
30
0.0
11
-25.9114
21
0.0172
31
0.0
0
LINE
8
CUT
10
-25.9114
20
0.0172
30
0.0
11
-12.9557
21
0.0043
31
0.0
0
LINE
8
CUT
10
-12.9557
20
0.0043
30
0.0
11
-0.0000
21
0.0000
31
0.0
0
LINE
8
CUT
10
-0.0000
20
0.0000
30
0.0
11
0.0000
21
0.0000
31
0.0
0
LINE
8
REG
10
0.0000
20
-20.0000
30
0.0
11
0.0000
21
163.7250
31
0.0
0
ENDSEC
0
EOF
