0
SECTION
2
ENTITIES
0
LINE
8
CUT
10
0.0000
20
15.3532
30
0.0
11
11.5228
21
15.3575
31
0.0
0
LINE
8
CUT
10
11.5228
20
15.3575
30
0.0
11
23.0455
21
15.3704
31
0.0
0
LINE
8
CUT
10
23.0455
20
15.3704
30
0.0
11
34.5683
21
15.3918
31
0.0
0
LINE
8
CUT
10
34.5683
20
15.3918
30
0.0
11
46.0910
21
15.4218
31
0.0
0
LINE
8
CUT
10
46.0910
20
15.4218
30
0.0
11
57.6138
21
15.4605
31
0.0
0
LINE
8
CUT
10
57.6138
20
15.4605
30
0.0
11
69.1365
21
15.5077
31
0.0
0
LINE
8
CUT
10
69.1365
20
15.5077
30
0.0
11
80.6593
21
15.5634
31
0.0
0
LINE
8
CUT
10
80.6593
20
15.5634
30
0.0
11
92.1820
21
15.6278
31
0.0
0
LINE
8
CUT
10
92.1820
20
15.6278
30
0.0
11
103.7048
21
15.7007
31
0.0
0
LINE
8
CUT
10
103.7048
20
15.7007
30
0.0
11
115.2275
21
15.7822
31
0.0
0
LINE
8
CUT
10
115.2275
20
15.7822
30
0.0
11
126.7503
21
15.8723
31
0.0
0
LINE
8
CUT
10
126.7503
20
15.8723
30
0.0
11
138.2730
21
15.9710
31
0.0
0
LINE
8
CUT
10
138.2730
20
15.9710
30
0.0
11
149.7958
21
16.0783
31
0.0
0
LINE
8
CUT
10
149.7958
20
16.0783
30
0.0
11
161.3185
21
16.1941
31
0.0
0
LINE
8
CUT
10
161.3185
20
16.1941
30
0.0
11
172.8413
21
16.3185
31
0.0
0
LINE
8
CUT
10
172.8413
20
16.3185
30
0.0
11
184.3640
21
16.4515
31
0.0
0
LINE
8
CUT
10
184.3640
20
16.4515
30
0.0
11
195.8868
21
16.5931
31
0.0
0
LINE
8
CUT
10
195.8868
20
16.5931
30
0.0
11
207.4095
21
16.7433
31
0.0
0
LINE
8
CUT
10
207.4095
20
16.7433
30
0.0
11
218.9323
21
16.9020
31
0.0
0
LINE
8
CUT
10
218.9323
20
16.9020
30
0.0
11
221.6104
21
17.3358
31
0.0
0
LINE
8
CUT
10
221.6104
20
17.3358
30
0.0
11
224.2292
21
17.9099
31
0.0
0
LINE
8
CUT
10
224.2292
20
17.9099
30
0.0
11
226.7772
21
18.6141
31
0.0
0
LINE
8
CUT
10
226.7772
20
18.6141
30
0.0
11
229.2431
21
19.4378
31
0.0
0
LINE
8
CUT
10
229.2431
20
19.4378
30
0.0
11
231.6156
21
20.3705
31
0.0
0
LINE
8
CUT
10
231.6156
20
20.3705
30
0.0
11
233.8832
21
21.4020
31
0.0
0
LINE
8
CUT
10
233.8832
20
21.4020
30
0.0
11
236.0347
21
22.5217
31
0.0
0
LINE
8
CUT
10
236.0347
20
22.5217
30
0.0
11
238.0586
21
23.7192
31
0.0
0
LINE
8
CUT
10
238.0586
20
23.7192
30
0.0
11
239.9437
21
24.9842
31
0.0
0
LINE
8
CUT
10
239.9437
20
24.9842
30
0.0
11
241.6785
21
26.3060
31
0.0
0
LINE
8
CUT
10
241.6785
20
26.3060
30
0.0
11
243.2518
21
27.6744
31
0.0
0
LINE
8
CUT
10
243.2518
20
27.6744
30
0.0
11
244.6521
21
29.0788
31
0.0
0
LINE
8
CUT
10
244.6521
20
29.0788
30
0.0
11
245.8681
21
30.5089
31
0.0
0
LINE
8
CUT
10
245.8681
20
30.5089
30
0.0
11
246.8885
21
31.9542
31
0.0
0
LINE
8
CUT
10
246.8885
20
31.9542
30
0.0
11
247.7020
21
33.4043
31
0.0
0
LINE
8
CUT
10
247.7020
20
33.4043
30
0.0
11
248.2970
21
34.8488
31
0.0
0
LINE
8
CUT
10
248.2970
20
34.8488
30
0.0
11
248.6624
21
36.2772
31
0.0
0
LINE
8
CUT
10
248.6624
20
36.2772
30
0.0
11
248.7867
21
37.6791
31
0.0
0
LINE
8
CUT
10
248.7867
20
37.6791
30
0.0
11
248.6252
21
43.9240
31
0.0
0
LINE
8
CUT
10
248.6252
20
43.9240
30
0.0
11
248.1477
21
50.3267
31
0.0
0
LINE
8
CUT
10
248.1477
20
50.3267
30
0.0
11
247.3649
21
56.8494
31
0.0
0
LINE
8
CUT
10
247.3649
20
56.8494
30
0.0
11
246.2873
21
63.4546
31
0.0
0
LINE
8
CUT
10
246.2873
20
63.4546
30
0.0
11
244.9255
21
70.1045
31
0.0
0
LINE
8
CUT
10
244.9255
20
70.1045
30
0.0
11
243.2901
21
76.7615
31
0.0
0
LINE
8
CUT
10
243.2901
20
76.7615
30
0.0
11
241.3916
21
83.3880
31
0.0
0
LINE
8
CUT
10
241.3916
20
83.3880
30
0.0
11
239.2406
21
89.9464
31
0.0
0
LINE
8
CUT
10
239.2406
20
89.9464
30
0.0
11
236.8478
21
96.3989
31
0.0
0
LINE
8
CUT
10
236.8478
20
96.3989
30
0.0
11
234.2237
21
102.7079
31
0.0
0
LINE
8
CUT
10
234.2237
20
102.7079
30
0.0
11
231.3789
21
108.8359
31
0.0
0
LINE
8
CUT
10
231.3789
20
108.8359
30
0.0
11
228.3240
21
114.7451
31
0.0
0
LINE
8
CUT
10
228.3240
20
114.7451
30
0.0
11
225.0695
21
120.3979
31
0.0
0
LINE
8
CUT
10
225.0695
20
120.3979
30
0.0
11
221.6260
21
125.7567
31
0.0
0
LINE
8
CUT
10
221.6260
20
125.7567
30
0.0
11
218.0042
21
130.7837
31
0.0
0
LINE
8
CUT
10
218.0042
20
130.7837
30
0.0
11
214.2146
21
135.4415
31
0.0
0
LINE
8
CUT
10
214.2146
20
135.4415
30
0.0
11
210.2677
21
139.6922
31
0.0
0
LINE
8
CUT
10
210.2677
20
139.6922
30
0.0
11
206.1742
21
143.4984
31
0.0
0
LINE
8
CUT
10
206.1742
20
143.4984
30
0.0
11
201.9446
21
146.8222
31
0.0
0
LINE
8
CUT
10
201.9446
20
146.8222
30
0.0
11
197.5896
21
149.6261
31
0.0
0
LINE
8
CUT
10
197.5896
20
149.6261
30
0.0
11
193.1197
21
151.8725
31
0.0
0
LINE
8
CUT
10
193.1197
20
151.8725
30
0.0
11
188.5455
21
153.5237
31
0.0
0
LINE
8
CUT
10
188.5455
20
153.5237
30
0.0
11
183.8775
21
154.5420
31
0.0
0
LINE
8
CUT
10
183.8775
20
154.5420
30
0.0
11
179.1264
21
154.8898
31
0.0
0
LINE
8
CUT
10
179.1264
20
154.8898
30
0.0
11
170.1701
21
154.8898
31
0.0
0
LINE
8
CUT
10
170.1701
20
154.8898
30
0.0
11
161.2138
21
154.8898
31
0.0
0
LINE
8
CUT
10
161.2138
20
154.8898
30
0.0
11
152.2575
21
154.8898
31
0.0
0
LINE
8
CUT
10
152.2575
20
154.8898
30
0.0
11
143.3011
21
154.8898
31
0.0
0
LINE
8
CUT
10
143.3011
20
154.8898
30
0.0
11
134.3448
21
154.8898
31
0.0
0
LINE
8
CUT
10
134.3448
20
154.8898
30
0.0
11
125.3885
21
154.8898
31
0.0
0
LINE
8
CUT
10
125.3885
20
154.8898
30
0.0
11
116.4322
21
154.8898
31
0.0
0
LINE
8
CUT
10
116.4322
20
154.8898
30
0.0
11
107.4758
21
154.8898
31
0.0
0
LINE
8
CUT
10
107.4758
20
154.8898
30
0.0
11
98.5195
21
154.8898
31
0.0
0
LINE
8
CUT
10
98.5195
20
154.8898
30
0.0
11
89.5632
21
154.8898
31
0.0
0
LINE
8
CUT
10
89.5632
20
154.8898
30
0.0
11
80.6069
21
154.8898
31
0.0
0
LINE
8
CUT
10
80.6069
20
154.8898
30
0.0
11
71.6506
21
154.8898
31
0.0
0
LINE
8
CUT
10
71.6506
20
154.8898
30
0.0
11
62.6942
21
154.8898
31
0.0
0
LINE
8
CUT
10
62.6942
20
154.8898
30
0.0
11
53.7379
21
154.8898
31
0.0
0
LINE
8
CUT
10
53.7379
20
154.8898
30
0.0
11
44.7816
21
154.8898
31
0.0
0
LINE
8
CUT
10
44.7816
20
154.8898
30
0.0
11
35.8253
21
154.8898
31
0.0
0
LINE
8
CUT
10
35.8253
20
154.8898
30
0.0
11
26.8690
21
154.8898
31
0.0
0
LINE
8
CUT
10
26.8690
20
154.8898
30
0.0
11
17.9126
21
154.8898
31
0.0
0
LINE
8
CUT
10
17.9126
20
154.8898
30
0.0
11
8.9563
21
154.8898
31
0.0
0
LINE
8
CUT
10
8.9563
20
154.8898
30
0.0
11
0.0000
21
154.8898
31
0.0
0
LINE
8
CUT
10
0.0000
20
154.8898
30
0.0
11
-0.0000
21
154.8898
31
0.0
0
LINE
8
CUT
10
-0.0000
20
154.8898
30
0.0
11
-8.9563
21
154.8898
31
0.0
0
LINE
8
CUT
10
-8.9563
20
154.8898
30
0.0
11
-17.9126
21
154.8898
31
0.0
0
LINE
8
CUT
10
-17.9126
20
154.8898
30
0.0
11
-26.8690
21
154.8898
31
0.0
0
LINE
8
CUT
10
-26.8690
20
154.8898
30
0.0
11
-35.8253
21
154.8898
31
0.0
0
LINE
8
CUT
10
-35.8253
20
154.8898
30
0.0
11
-44.7816
21
154.8898
31
0.0
0
LINE
8
CUT
10
-44.7816
20
154.8898
30
0.0
11
-53.7379
21
154.8898
31
0.0
0
LINE
8
CUT
10
-53.7379
20
154.8898
30
0.0
11
-62.6942
21
154.8898
31
0.0
0
LINE
8
CUT
10
-62.6942
20
154.8898
30
0.0
11
-71.6506
21
154.8898
31
0.0
0
LINE
8
CUT
10
-71.6506
20
154.8898
30
0.0
11
-80.6069
21
154.8898
31
0.0
0
LINE
8
CUT
10
-80.6069
20
154.8898
30
0.0
11
-89.5632
21
154.8898
31
0.0
0
LINE
8
CUT
10
-89.5632
20
154.8898
30
0.0
11
-98.5195
21
154.8898
31
0.0
0
LINE
8
CUT
10
-98.5195
20
154.8898
30
0.0
11
-107.4758
21
154.8898
31
0.0
0
LINE
8
CUT
10
-107.4758
20
154.8898
30
0.0
11
-116.4322
21
154.8898
31
0.0
0
LINE
8
CUT
10
-116.4322
20
154.8898
30
0.0
11
-125.3885
21
154.8898
31
0.0
0
LINE
8
CUT
10
-125.3885
20
154.8898
30
0.0
11
-134.3448
21
154.8898
31
0.0
0
LINE
8
CUT
10
-134.3448
20
154.8898
30
0.0
11
-143.3011
21
154.8898
31
0.0
0
LINE
8
CUT
10
-143.3011
20
154.8898
30
0.0
11
-152.2575
21
154.8898
31
0.0
0
LINE
8
CUT
10
-152.2575
20
154.8898
30
0.0
11
-161.2138
21
154.8898
31
0.0
0
LINE
8
CUT
10
-161.2138
20
154.8898
30
0.0
11
-170.1701
21
154.8898
31
0.0
0
LINE
8
CUT
10
-170.1701
20
154.8898
30
0.0
11
-179.1264
21
154.8898
31
0.0
0
LINE
8
CUT
10
-179.1264
20
154.8898
30
0.0
11
-183.8775
21
154.5420
31
0.0
0
LINE
8
CUT
10
-183.8775
20
154.5420
30
0.0
11
-188.5455
21
153.5237
31
0.0
0
LINE
8
CUT
10
-188.5455
20
153.5237
30
0.0
11
-193.1197
21
151.8725
31
0.0
0
LINE
8
CUT
10
-193.1197
20
151.8725
30
0.0
11
-197.5896
21
149.6261
31
0.0
0
LINE
8
CUT
10
-197.5896
20
149.6261
30
0.0
11
-201.9446
21
146.8222
31
0.0
0
LINE
8
CUT
10
-201.9446
20
146.8222
30
0.0
11
-206.1742
21
143.4984
31
0.0
0
LINE
8
CUT
10
-206.1742
20
143.4984
30
0.0
11
-210.2677
21
139.6922
31
0.0
0
LINE
8
CUT
10
-210.2677
20
139.6922
30
0.0
11
-214.2146
21
135.4415
31
0.0
0
LINE
8
CUT
10
-214.2146
20
135.4415
30
0.0
11
-218.0042
21
130.7837
31
0.0
0
LINE
8
CUT
10
-218.0042
20
130.7837
30
0.0
11
-221.6260
21
125.7567
31
0.0
0
LINE
8
CUT
10
-221.6260
20
125.7567
30
0.0
11
-225.0695
21
120.3979
31
0.0
0
LINE
8
CUT
10
-225.0695
20
120.3979
30
0.0
11
-228.3240
21
114.7451
31
0.0
0
LINE
8
CUT
10
-228.3240
20
114.7451
30
0.0
11
-231.3789
21
108.8359
31
0.0
0
LINE
8
CUT
10
-231.3789
20
108.8359
30
0.0
11
-234.2237
21
102.7079
31
0.0
0
LINE
8
CUT
10
-234.2237
20
102.7079
30
0.0
11
-236.8478
21
96.3989
31
0.0
0
LINE
8
CUT
10
-236.8478
20
96.3989
30
0.0
11
-239.2406
21
89.9464
31
0.0
0
LINE
8
CUT
10
-239.2406
20
89.9464
30
0.0
11
-241.3916
21
83.3880
31
0.0
0
LINE
8
CUT
10
-241.3916
20
83.3880
30
0.0
11
-243.2901
21
76.7615
31
0.0
0
LINE
8
CUT
10
-243.2901
20
76.7615
30
0.0
11
-244.9255
21
70.1045
31
0.0
0
LINE
8
CUT
10
-244.9255
20
70.1045
30
0.0
11
-246.2873
21
63.4546
31
0.0
0
LINE
8
CUT
10
-246.2873
20
63.4546
30
0.0
11
-247.3649
21
56.8494
31
0.0
0
LINE
8
CUT
10
-247.3649
20
56.8494
30
0.0
11
-248.1477
21
50.3267
31
0.0
0
LINE
8
CUT
10
-248.1477
20
50.3267
30
0.0
11
-248.6252
21
43.9240
31
0.0
0
LINE
8
CUT
10
-248.6252
20
43.9240
30
0.0
11
-248.7867
21
37.6791
31
0.0
0
LINE
8
CUT
10
-248.7867
20
37.6791
30
0.0
11
-248.6624
21
36.2772
31
0.0
0
LINE
8
CUT
10
-248.6624
20
36.2772
30
0.0
11
-248.2970
21
34.8488
31
0.0
0
LINE
8
CUT
10
-248.2970
20
34.8488
30
0.0
11
-247.7020
21
33.4043
31
0.0
0
LINE
8
CUT
10
-247.7020
20
33.4043
30
0.0
11
-246.8885
21
31.9542
31
0.0
0
LINE
8
CUT
10
-246.8885
20
31.9542
30
0.0
11
-245.8681
21
30.5089
31
0.0
0
LINE
8
CUT
10
-245.8681
20
30.5089
30
0.0
11
-244.6521
21
29.0788
31
0.0
0
LINE
8
CUT
10
-244.6521
20
29.0788
30
0.0
11
-243.2518
21
27.6744
31
0.0
0
LINE
8
CUT
10
-243.2518
20
27.6744
30
0.0
11
-241.6785
21
26.3060
31
0.0
0
LINE
8
CUT
10
-241.6785
20
26.3060
30
0.0
11
-239.9437
21
24.9842
31
0.0
0
LINE
8
CUT
10
-239.9437
20
24.9842
30
0.0
11
-238.0586
21
23.7192
31
0.0
0
LINE
8
CUT
10
-238.0586
20
23.7192
30
0.0
11
-236.0347
21
22.5217
31
0.0
0
LINE
8
CUT
10
-236.0347
20
22.5217
30
0.0
11
-233.8832
21
21.4020
31
0.0
0
LINE
8
CUT
10
-233.8832
20
21.4020
30
0.0
11
-231.6156
21
20.3705
31
0.0
0
LINE
8
CUT
10
-231.6156
20
20.3705
30
0.0
11
-229.2431
21
19.4378
31
0.0
0
LINE
8
CUT
10
-229.2431
20
19.4378
30
0.0
11
-226.7772
21
18.6141
31
0.0
0
LINE
8
CUT
10
-226.7772
20
18.6141
30
0.0
11
-224.2292
21
17.9099
31
0.0
0
LINE
8
CUT
10
-224.2292
20
17.9099
30
0.0
11
-221.6104
21
17.3358
31
0.0
0
LINE
8
CUT
10
-221.6104
20
17.3358
30
0.0
11
-218.9323
21
16.9020
31
0.0
0
LINE
8
CUT
10
-218.9323
20
16.9020
30
0.0
11
-207.4095
21
16.7433
31
0.0
0
LINE
8
CUT
10
-207.4095
20
16.7433
30
0.0
11
-195.8868
21
16.5931
31
0.0
0
LINE
8
CUT
10
-195.8868
20
16.5931
30
0.0
11
-184.3640
21
16.4515
31
0.0
0
LINE
8
CUT
10
-184.3640
20
16.4515
30
0.0
11
-172.8413
21
16.3185
31
0.0
0
LINE
8
CUT
10
-172.8413
20
16.3185
30
0.0
11
-161.3185
21
16.1941
31
0.0
0
LINE
8
CUT
10
-161.3185
20
16.1941
30
0.0
11
-149.7958
21
16.0783
31
0.0
0
LINE
8
CUT
10
-149.7958
20
16.0783
30
0.0
11
-138.2730
21
15.9710
31
0.0
0
LINE
8
CUT
10
-138.2730
20
15.9710
30
0.0
11
-126.7503
21
15.8723
31
0.0
0
LINE
8
CUT
10
-126.7503
20
15.8723
30
0.0
11
-115.2275
21
15.7822
31
0.0
0
LINE
8
CUT
10
-115.2275
20
15.7822
30
0.0
11
-103.7048
21
15.7007
31
0.0
0
LINE
8
CUT
10
-103.7048
20
15.7007
30
0.0
11
-92.1820
21
15.6278
31
0.0
0
LINE
8
CUT
10
-92.1820
20
15.6278
30
0.0
11
-80.6593
21
15.5634
31
0.0
0
LINE
8
CUT
10
-80.6593
20
15.5634
30
0.0
11
-69.1365
21
15.5077
31
0.0
0
LINE
8
CUT
10
-69.1365
20
15.5077
30
0.0
11
-57.6138
21
15.4605
31
0.0
0
LINE
8
CUT
10
-57.6138
20
15.4605
30
0.0
11
-46.0910
21
15.4218
31
0.0
0
LINE
8
CUT
10
-46.0910
20
15.4218
30
0.0
11
-34.5683
21
15.3918
31
0.0
0
LINE
8
CUT
10
-34.5683
20
15.3918
30
0.0
11
-23.0455
21
15.3704
31
0.0
0
LINE
8
CUT
10
-23.0455
20
15.3704
30
0.0
11
-11.5228
21
15.3575
31
0.0
0
LINE
8
CUT
10
-11.5228
20
15.3575
30
0.0
11
-0.0000
21
15.3532
31
0.0
0
LINE
8
CUT
10
-0.0000
20
15.3532
30
0.0
11
0.0000
21
15.3532
31
0.0
0
LINE
8
REG
10
0.0000
20
-20.0000
30
0.0
11
0.0000
21
174.8898
31
0.0
0
ENDSEC
0
EOF
