0
SECTION
2
ENTITIES
0
LINE
8
CUT
10
0.0000
20
1.4682
30
0.0
11
10.5757
21
1.4725
31
0.0
0
LINE
8
CUT
10
10.5757
20
1.4725
30
0.0
11
21.1514
21
1.4854
31
0.0
0
LINE
8
CUT
10
21.1514
20
1.4854
30
0.0
11
31.7271
21
1.5068
31
0.0
0
LINE
8
CUT
10
31.7271
20
1.5068
30
0.0
11
42.3028
21
1.5369
31
0.0
0
LINE
8
CUT
10
42.3028
20
1.5369
30
0.0
11
52.8785
21
1.5755
31
0.0
0
LINE
8
CUT
10
52.8785
20
1.5755
30
0.0
11
63.4542
21
1.6227
31
0.0
0
LINE
8
CUT
10
63.4542
20
1.6227
30
0.0
11
74.0299
21
1.6784
31
0.0
0
LINE
8
CUT
10
74.0299
20
1.6784
30
0.0
11
84.6056
21
1.7428
31
0.0
0
LINE
8
CUT
10
84.6056
20
1.7428
30
0.0
11
95.1813
21
1.8157
31
0.0
0
LINE
8
CUT
10
95.1813
20
1.8157
30
0.0
11
105.7570
21
1.8972
31
0.0
0
LINE
8
CUT
10
105.7570
20
1.8972
30
0.0
11
116.3327
21
1.9873
31
0.0
0
LINE
8
CUT
10
116.3327
20
1.9873
30
0.0
11
126.9084
21
2.0860
31
0.0
0
LINE
8
CUT
10
126.9084
20
2.0860
30
0.0
11
137.4841
21
2.1933
31
0.0
0
LINE
8
CUT
10
137.4841
20
2.1933
30
0.0
11
148.0598
21
2.3091
31
0.0
0
LINE
8
CUT
10
148.0598
20
2.3091
30
0.0
11
158.6355
21
2.4335
31
0.0
0
LINE
8
CUT
10
158.6355
20
2.4335
30
0.0
11
169.2112
21
2.5665
31
0.0
0
LINE
8
CUT
10
169.2112
20
2.5665
30
0.0
11
179.7869
21
2.7081
31
0.0
0
LINE
8
CUT
10
179.7869
20
2.7081
30
0.0
11
190.3626
21
2.8583
31
0.0
0
LINE
8
CUT
10
190.3626
20
2.8583
30
0.0
11
200.9383
21
3.0170
31
0.0
0
LINE
8
CUT
10
200.9383
20
3.0170
30
0.0
11
201.9169
21
5.3995
31
0.0
0
LINE
8
CUT
10
201.9169
20
5.3995
30
0.0
11
203.1789
21
7.4983
31
0.0
0
LINE
8
CUT
10
203.1789
20
7.4983
30
0.0
11
204.6831
21
9.3420
31
0.0
0
LINE
8
CUT
10
204.6831
20
9.3420
30
0.0
11
206.3883
21
10.9587
31
0.0
0
LINE
8
CUT
10
206.3883
20
10.9587
30
0.0
11
208.2535
21
12.3767
31
0.0
0
LINE
8
CUT
10
208.2535
20
12.3767
30
0.0
11
210.2375
21
13.6245
31
0.0
0
LINE
8
CUT
10
210.2375
20
13.6245
30
0.0
11
212.2991
21
14.7303
31
0.0
0
LINE
8
CUT
10
212.2991
20
14.7303
30
0.0
11
214.3973
21
15.7224
31
0.0
0
LINE
8
CUT
10
214.3973
20
15.7224
30
0.0
11
216.4909
21
16.6291
31
0.0
0
LINE
8
CUT
10
216.4909
20
16.6291
30
0.0
11
218.5388
21
17.4788
31
0.0
0
LINE
8
CUT
10
218.5388
20
17.4788
30
0.0
11
220.4998
21
18.2998
31
0.0
0
LINE
8
CUT
10
220.4998
20
18.2998
30
0.0
11
222.3327
21
19.1204
31
0.0
0
LINE
8
CUT
10
222.3327
20
19.1204
30
0.0
11
223.9966
21
19.9688
31
0.0
0
LINE
8
CUT
10
223.9966
20
19.9688
30
0.0
11
225.4501
21
20.8735
31
0.0
0
LINE
8
CUT
10
225.4501
20
20.8735
30
0.0
11
226.6523
21
21.8628
31
0.0
0
LINE
8
CUT
10
226.6523
20
21.8628
30
0.0
11
227.5619
21
22.9649
31
0.0
0
LINE
8
CUT
10
227.5619
20
22.9649
30
0.0
11
228.1378
21
24.2081
31
0.0
0
LINE
8
CUT
10
228.1378
20
24.2081
30
0.0
11
228.3390
21
25.6209
31
0.0
0
LINE
8
CUT
10
228.3390
20
25.6209
30
0.0
11
228.1907
21
32.3768
31
0.0
0
LINE
8
CUT
10
228.1907
20
32.3768
30
0.0
11
227.7525
21
39.3034
31
0.0
0
LINE
8
CUT
10
227.7525
20
39.3034
30
0.0
11
227.0340
21
46.3598
31
0.0
0
LINE
8
CUT
10
227.0340
20
46.3598
30
0.0
11
226.0450
21
53.5054
31
0.0
0
LINE
8
CUT
10
226.0450
20
53.5054
30
0.0
11
224.7951
21
60.6995
31
0.0
0
LINE
8
CUT
10
224.7951
20
60.6995
30
0.0
11
223.2941
21
67.9012
31
0.0
0
LINE
8
CUT
10
223.2941
20
67.9012
30
0.0
11
221.5517
21
75.0699
31
0.0
0
LINE
8
CUT
10
221.5517
20
75.0699
30
0.0
11
219.5775
21
82.1649
31
0.0
0
LINE
8
CUT
10
219.5775
20
82.1649
30
0.0
11
217.3814
21
89.1454
31
0.0
0
LINE
8
CUT
10
217.3814
20
89.1454
30
0.0
11
214.9729
21
95.9707
31
0.0
0
LINE
8
CUT
10
214.9729
20
95.9707
30
0.0
11
212.3619
21
102.6001
31
0.0
0
LINE
8
CUT
10
212.3619
20
102.6001
30
0.0
11
209.5581
21
108.9928
31
0.0
0
LINE
8
CUT
10
209.5581
20
108.9928
30
0.0
11
206.5711
21
115.1081
31
0.0
0
LINE
8
CUT
10
206.5711
20
115.1081
30
0.0
11
203.4106
21
120.9054
31
0.0
0
LINE
8
CUT
10
203.4106
20
120.9054
30
0.0
11
200.0865
21
126.3438
31
0.0
0
LINE
8
CUT
10
200.0865
20
126.3438
30
0.0
11
196.6083
21
131.3826
31
0.0
0
LINE
8
CUT
10
196.6083
20
131.3826
30
0.0
11
192.9858
21
135.9812
31
0.0
0
LINE
8
CUT
10
192.9858
20
135.9812
30
0.0
11
189.2288
21
140.0988
31
0.0
0
LINE
8
CUT
10
189.2288
20
140.0988
30
0.0
11
185.3469
21
143.6946
31
0.0
0
LINE
8
CUT
10
185.3469
20
143.6946
30
0.0
11
181.3498
21
146.7279
31
0.0
0
LINE
8
CUT
10
181.3498
20
146.7279
30
0.0
11
177.2472
21
149.1581
31
0.0
0
LINE
8
CUT
10
177.2472
20
149.1581
30
0.0
11
173.0490
21
150.9444
31
0.0
0
LINE
8
CUT
10
173.0490
20
150.9444
30
0.0
11
168.7647
21
152.0460
31
0.0
0
LINE
8
CUT
10
168.7647
20
152.0460
30
0.0
11
164.4041
21
152.4223
31
0.0
0
LINE
8
CUT
10
164.4041
20
152.4223
30
0.0
11
156.1839
21
152.4223
31
0.0
0
LINE
8
CUT
10
156.1839
20
152.4223
30
0.0
11
147.9637
21
152.4223
31
0.0
0
LINE
8
CUT
10
147.9637
20
152.4223
30
0.0
11
139.7434
21
152.4223
31
0.0
0
LINE
8
CUT
10
139.7434
20
152.4223
30
0.0
11
131.5232
21
152.4223
31
0.0
0
LINE
8
CUT
10
131.5232
20
152.4223
30
0.0
11
123.3030
21
152.4223
31
0.0
0
LINE
8
CUT
10
123.3030
20
152.4223
30
0.0
11
115.0828
21
152.4223
31
0.0
0
LINE
8
CUT
10
115.0828
20
152.4223
30
0.0
11
106.8626
21
152.4223
31
0.0
0
LINE
8
CUT
10
106.8626
20
152.4223
30
0.0
11
98.6424
21
152.4223
31
0.0
0
LINE
8
CUT
10
98.6424
20
152.4223
30
0.0
11
90.4222
21
152.4223
31
0.0
0
LINE
8
CUT
10
90.4222
20
152.4223
30
0.0
11
82.2020
21
152.4223
31
0.0
0
LINE
8
CUT
10
82.2020
20
152.4223
30
0.0
11
73.9818
21
152.4223
31
0.0
0
LINE
8
CUT
10
73.9818
20
152.4223
30
0.0
11
65.7616
21
152.4223
31
0.0
0
LINE
8
CUT
10
65.7616
20
152.4223
30
0.0
11
57.5414
21
152.4223
31
0.0
0
LINE
8
CUT
10
57.5414
20
152.4223
30
0.0
11
49.3212
21
152.4223
31
0.0
0
LINE
8
CUT
10
49.3212
20
152.4223
30
0.0
11
41.1010
21
152.4223
31
0.0
0
LINE
8
CUT
10
41.1010
20
152.4223
30
0.0
11
32.8808
21
152.4223
31
0.0
0
LINE
8
CUT
10
32.8808
20
152.4223
30
0.0
11
24.6606
21
152.4223
31
0.0
0
LINE
8
CUT
10
24.6606
20
152.4223
30
0.0
11
16.4404
21
152.4223
31
0.0
0
LINE
8
CUT
10
16.4404
20
152.4223
30
0.0
11
8.2202
21
152.4223
31
0.0
0
LINE
8
CUT
10
8.2202
20
152.4223
30
0.0
11
0.0000
21
152.4223
31
0.0
0
LINE
8
CUT
10
0.0000
20
152.4223
30
0.0
11
-0.0000
21
152.4223
31
0.0
0
LINE
8
CUT
10
-0.0000
20
152.4223
30
0.0
11
-8.2202
21
152.4223
31
0.0
0
LINE
8
CUT
10
-8.2202
20
152.4223
30
0.0
11
-16.4404
21
152.4223
31
0.0
0
LINE
8
CUT
10
-16.4404
20
152.4223
30
0.0
11
-24.6606
21
152.4223
31
0.0
0
LINE
8
CUT
10
-24.6606
20
152.4223
30
0.0
11
-32.8808
21
152.4223
31
0.0
0
LINE
8
CUT
10
-32.8808
20
152.4223
30
0.0
11
-41.1010
21
152.4223
31
0.0
0
LINE
8
CUT
10
-41.1010
20
152.4223
30
0.0
11
-49.3212
21
152.4223
31
0.0
0
LINE
8
CUT
10
-49.3212
20
152.4223
30
0.0
11
-57.5414
21
152.4223
31
0.0
0
LINE
8
CUT
10
-57.5414
20
152.4223
30
0.0
11
-65.7616
21
152.4223
31
0.0
0
LINE
8
CUT
10
-65.7616
20
152.4223
30
0.0
11
-73.9818
21
152.4223
31
0.0
0
LINE
8
CUT
10
-73.9818
20
152.4223
30
0.0
11
-82.2020
21
152.4223
31
0.0
0
LINE
8
CUT
10
-82.2020
20
152.4223
30
0.0
11
-90.4222
21
152.4223
31
0.0
0
LINE
8
CUT
10
-90.4222
20
152.4223
30
0.0
11
-98.6424
21
152.4223
31
0.0
0
LINE
8
CUT
10
-98.6424
20
152.4223
30
0.0
11
-106.8626
21
152.4223
31
0.0
0
LINE
8
CUT
10
-106.8626
20
152.4223
30
0.0
11
-115.0828
21
152.4223
31
0.0
0
LINE
8
CUT
10
-115.0828
20
152.4223
30
0.0
11
-123.3030
21
152.4223
31
0.0
0
LINE
8
CUT
10
-123.3030
20
152.4223
30
0.0
11
-131.5232
21
152.4223
31
0.0
0
LINE
8
CUT
10
-131.5232
20
152.4223
30
0.0
11
-139.7434
21
152.4223
31
0.0
0
LINE
8
CUT
10
-139.7434
20
152.4223
30
0.0
11
-147.9637
21
152.4223
31
0.0
0
LINE
8
CUT
10
-147.9637
20
152.4223
30
0.0
11
-156.1839
21
152.4223
31
0.0
0
LINE
8
CUT
10
-156.1839
20
152.4223
30
0.0
11
-164.4041
21
152.4223
31
0.0
0
LINE
8
CUT
10
-164.4041
20
152.4223
30
0.0
11
-168.7647
21
152.0460
31
0.0
0
LINE
8
CUT
10
-168.7647
20
152.0460
30
0.0
11
-173.0490
21
150.9444
31
0.0
0
LINE
8
CUT
10
-173.0490
20
150.9444
30
0.0
11
-177.2472
21
149.1581
31
0.0
0
LINE
8
CUT
10
-177.2472
20
149.1581
30
0.0
11
-181.3498
21
146.7279
31
0.0
0
LINE
8
CUT
10
-181.3498
20
146.7279
30
0.0
11
-185.3469
21
143.6946
31
0.0
0
LINE
8
CUT
10
-185.3469
20
143.6946
30
0.0
11
-189.2288
21
140.0988
31
0.0
0
LINE
8
CUT
10
-189.2288
20
140.0988
30
0.0
11
-192.9858
21
135.9812
31
0.0
0
LINE
8
CUT
10
-192.9858
20
135.9812
30
0.0
11
-196.6083
21
131.3826
31
0.0
0
LINE
8
CUT
10
-196.6083
20
131.3826
30
0.0
11
-200.0865
21
126.3438
31
0.0
0
LINE
8
CUT
10
-200.0865
20
126.3438
30
0.0
11
-203.4106
21
120.9054
31
0.0
0
LINE
8
CUT
10
-203.4106
20
120.9054
30
0.0
11
-206.5711
21
115.1081
31
0.0
0
LINE
8
CUT
10
-206.5711
20
115.1081
30
0.0
11
-209.5581
21
108.9928
31
0.0
0
LINE
8
CUT
10
-209.5581
20
108.9928
30
0.0
11
-212.3619
21
102.6001
31
0.0
0
LINE
8
CUT
10
-212.3619
20
102.6001
30
0.0
11
-214.9729
21
95.9707
31
0.0
0
LINE
8
CUT
10
-214.9729
20
95.9707
30
0.0
11
-217.3814
21
89.1454
31
0.0
0
LINE
8
CUT
10
-217.3814
20
89.1454
30
0.0
11
-219.5775
21
82.1649
31
0.0
0
LINE
8
CUT
10
-219.5775
20
82.1649
30
0.0
11
-221.5517
21
75.0699
31
0.0
0
LINE
8
CUT
10
-221.5517
20
75.0699
30
0.0
11
-223.2941
21
67.9012
31
0.0
0
LINE
8
CUT
10
-223.2941
20
67.9012
30
0.0
11
-224.7951
21
60.6995
31
0.0
0
LINE
8
CUT
10
-224.7951
20
60.6995
30
0.0
11
-226.0450
21
53.5054
31
0.0
0
LINE
8
CUT
10
-226.0450
20
53.5054
30
0.0
11
-227.0340
21
46.3598
31
0.0
0
LINE
8
CUT
10
-227.0340
20
46.3598
30
0.0
11
-227.7525
21
39.3034
31
0.0
0
LINE
8
CUT
10
-227.7525
20
39.3034
30
0.0
11
-228.1907
21
32.3768
31
0.0
0
LINE
8
CUT
10
-228.1907
20
32.3768
30
0.0
11
-228.3390
21
25.6209
31
0.0
0
LINE
8
CUT
10
-228.3390
20
25.6209
30
0.0
11
-228.1378
21
24.2081
31
0.0
0
LINE
8
CUT
10
-228.1378
20
24.2081
30
0.0
11
-227.5619
21
22.9649
31
0.0
0
LINE
8
CUT
10
-227.5619
20
22.9649
30
0.0
11
-226.6523
21
21.8628
31
0.0
0
LINE
8
CUT
10
-226.6523
20
21.8628
30
0.0
11
-225.4501
21
20.8735
31
0.0
0
LINE
8
CUT
10
-225.4501
20
20.8735
30
0.0
11
-223.9966
21
19.9688
31
0.0
0
LINE
8
CUT
10
-223.9966
20
19.9688
30
0.0
11
-222.3327
21
19.1204
31
0.0
0
LINE
8
CUT
10
-222.3327
20
19.1204
30
0.0
11
-220.4998
21
18.2998
31
0.0
0
LINE
8
CUT
10
-220.4998
20
18.2998
30
0.0
11
-218.5388
21
17.4788
31
0.0
0
LINE
8
CUT
10
-218.5388
20
17.4788
30
0.0
11
-216.4909
21
16.6291
31
0.0
0
LINE
8
CUT
10
-216.4909
20
16.6291
30
0.0
11
-214.3973
21
15.7224
31
0.0
0
LINE
8
CUT
10
-214.3973
20
15.7224
30
0.0
11
-212.2991
21
14.7303
31
0.0
0
LINE
8
CUT
10
-212.2991
20
14.7303
30
0.0
11
-210.2375
21
13.6245
31
0.0
0
LINE
8
CUT
10
-210.2375
20
13.6245
30
0.0
11
-208.2535
21
12.3767
31
0.0
0
LINE
8
CUT
10
-208.2535
20
12.3767
30
0.0
11
-206.3883
21
10.9587
31
0.0
0
LINE
8
CUT
10
-206.3883
20
10.9587
30
0.0
11
-204.6831
21
9.3420
31
0.0
0
LINE
8
CUT
10
-204.6831
20
9.3420
30
0.0
11
-203.1789
21
7.4983
31
0.0
0
LINE
8
CUT
10
-203.1789
20
7.4983
30
0.0
11
-201.9169
21
5.3995
31
0.0
0
LINE
8
CUT
10
-201.9169
20
5.3995
30
0.0
11
-200.9383
21
3.0170
31
0.0
0
LINE
8
CUT
10
-200.9383
20
3.0170
30
0.0
11
-190.3626
21
2.8583
31
0.0
0
LINE
8
CUT
10
-190.3626
20
2.8583
30
0.0
11
-179.7869
21
2.7081
31
0.0
0
LINE
8
CUT
10
-179.7869
20
2.7081
30
0.0
11
-169.2112
21
2.5665
31
0.0
0
LINE
8
CUT
10
-169.2112
20
2.5665
30
0.0
11
-158.6355
21
2.4335
31
0.0
0
LINE
8
CUT
10
-158.6355
20
2.4335
30
0.0
11
-148.0598
21
2.3091
31
0.0
0
LINE
8
CUT
10
-148.0598
20
2.3091
30
0.0
11
-137.4841
21
2.1933
31
0.0
0
LINE
8
CUT
10
-137.4841
20
2.1933
30
0.0
11
-126.9084
21
2.0860
31
0.0
0
LINE
8
CUT
10
-126.9084
20
2.0860
30
0.0
11
-116.3327
21
1.9873
31
0.0
0
LINE
8
CUT
10
-116.3327
20
1.9873
30
0.0
11
-105.7570
21
1.8972
31
0.0
0
LINE
8
CUT
10
-105.7570
20
1.8972
30
0.0
11
-95.1813
21
1.8157
31
0.0
0
LINE
8
CUT
10
-95.1813
20
1.8157
30
0.0
11
-84.6056
21
1.7428
31
0.0
0
LINE
8
CUT
10
-84.6056
20
1.7428
30
0.0
11
-74.0299
21
1.6784
31
0.0
0
LINE
8
CUT
10
-74.0299
20
1.6784
30
0.0
11
-63.4542
21
1.6227
31
0.0
0
LINE
8
CUT
10
-63.4542
20
1.6227
30
0.0
11
-52.8785
21
1.5755
31
0.0
0
LINE
8
CUT
10
-52.8785
20
1.5755
30
0.0
11
-42.3028
21
1.5369
31
0.0
0
LINE
8
CUT
10
-42.3028
20
1.5369
30
0.0
11
-31.7271
21
1.5068
31
0.0
0
LINE
8
CUT
10
-31.7271
20
1.5068
30
0.0
11
-21.1514
21
1.4854
31
0.0
0
LINE
8
CUT
10
-21.1514
20
1.4854
30
0.0
11
-10.5757
21
1.4725
31
0.0
0
LINE
8
CUT
10
-10.5757
20
1.4725
30
0.0
11
-0.0000
21
1.4682
31
0.0
0
LINE
8
CUT
10
-0.0000
20
1.4682
30
0.0
11
0.0000
21
1.4682
31
0.0
0
LINE
8
REG
10
0.0000
20
-20.0000
30
0.0
11
0.0000
21
172.4223
31
0.0
0
ENDSEC
0
EOF
