0
SECTION
2
ENTITIES
0
LINE
8
CUT
10
0.0000
20
0.0000
30
0.0
11
12.9413
21
0.0043
31
0.0
0
LINE
8
CUT
10
12.9413
20
0.0043
30
0.0
11
25.8825
21
0.0172
31
0.0
0
LINE
8
CUT
10
25.8825
20
0.0172
30
0.0
11
38.8238
21
0.0386
31
0.0
0
LINE
8
CUT
10
38.8238
20
0.0386
30
0.0
11
51.7650
21
0.0686
31
0.0
0
LINE
8
CUT
10
51.7650
20
0.0686
30
0.0
11
64.7063
21
0.1073
31
0.0
0
LINE
8
CUT
10
64.7063
20
0.1073
30
0.0
11
77.6475
21
0.1545
31
0.0
0
LINE
8
CUT
10
77.6475
20
0.1545
30
0.0
11
90.5888
21
0.2102
31
0.0
0
LINE
8
CUT
10
90.5888
20
0.2102
30
0.0
11
103.5300
21
0.2746
31
0.0
0
LINE
8
CUT
10
103.5300
20
0.2746
30
0.0
11
116.4713
21
0.3475
31
0.0
0
LINE
8
CUT
10
116.4713
20
0.3475
30
0.0
11
129.4125
21
0.4290
31
0.0
0
LINE
8
CUT
10
129.4125
20
0.4290
30
0.0
11
142.3538
21
0.5191
31
0.0
0
LINE
8
CUT
10
142.3538
20
0.5191
30
0.0
11
155.2950
21
0.6178
31
0.0
0
LINE
8
CUT
10
155.2950
20
0.6178
30
0.0
11
168.2363
21
0.7251
31
0.0
0
LINE
8
CUT
10
168.2363
20
0.7251
30
0.0
11
181.1775
21
0.8409
31
0.0
0
LINE
8
CUT
10
181.1775
20
0.8409
30
0.0
11
194.1188
21
0.9653
31
0.0
0
LINE
8
CUT
10
194.1188
20
0.9653
30
0.0
11
207.0601
21
1.0983
31
0.0
0
LINE
8
CUT
10
207.0601
20
1.0983
30
0.0
11
220.0013
21
1.2399
31
0.0
0
LINE
8
CUT
10
220.0013
20
1.2399
30
0.0
11
232.9426
21
1.3901
31
0.0
0
LINE
8
CUT
10
232.9426
20
1.3901
30
0.0
11
245.8838
21
1.5488
31
0.0
0
LINE
8
CUT
10
245.8838
20
1.5488
30
0.0
11
247.0182
21
4.2448
31
0.0
0
LINE
8
CUT
10
247.0182
20
4.2448
30
0.0
11
248.5136
21
6.5908
31
0.0
0
LINE
8
CUT
10
248.5136
20
6.5908
30
0.0
11
250.3186
21
8.6214
31
0.0
0
LINE
8
CUT
10
250.3186
20
8.6214
30
0.0
11
252.3815
21
10.3708
31
0.0
0
LINE
8
CUT
10
252.3815
20
10.3708
30
0.0
11
254.6505
21
11.8734
31
0.0
0
LINE
8
CUT
10
254.6505
20
11.8734
30
0.0
11
257.0741
21
13.1638
31
0.0
0
LINE
8
CUT
10
257.0741
20
13.1638
30
0.0
11
259.6007
21
14.2762
31
0.0
0
LINE
8
CUT
10
259.6007
20
14.2762
30
0.0
11
262.1784
21
15.2451
31
0.0
0
LINE
8
CUT
10
262.1784
20
15.2451
30
0.0
11
264.7559
21
16.1049
31
0.0
0
LINE
8
CUT
10
264.7559
20
16.1049
30
0.0
11
267.2812
21
16.8900
31
0.0
0
LINE
8
CUT
10
267.2812
20
16.8900
30
0.0
11
269.7029
21
17.6347
31
0.0
0
LINE
8
CUT
10
269.7029
20
17.6347
30
0.0
11
271.9693
21
18.3735
31
0.0
0
LINE
8
CUT
10
271.9693
20
18.3735
30
0.0
11
274.0287
21
19.1407
31
0.0
0
LINE
8
CUT
10
274.0287
20
19.1407
30
0.0
11
275.8295
21
19.9709
31
0.0
0
LINE
8
CUT
10
275.8295
20
19.9709
30
0.0
11
277.3200
21
20.8982
31
0.0
0
LINE
8
CUT
10
277.3200
20
20.8982
30
0.0
11
278.4486
21
21.9573
31
0.0
0
LINE
8
CUT
10
278.4486
20
21.9573
30
0.0
11
279.1636
21
23.1824
31
0.0
0
LINE
8
CUT
10
279.1636
20
23.1824
30
0.0
11
279.4134
21
24.6080
31
0.0
0
LINE
8
CUT
10
279.4134
20
24.6080
30
0.0
11
279.2320
21
31.4913
31
0.0
0
LINE
8
CUT
10
279.2320
20
31.4913
30
0.0
11
278.6958
21
38.5485
31
0.0
0
LINE
8
CUT
10
278.6958
20
38.5485
30
0.0
11
277.8166
21
45.7380
31
0.0
0
LINE
8
CUT
10
277.8166
20
45.7380
30
0.0
11
276.6064
21
53.0183
31
0.0
0
LINE
8
CUT
10
276.6064
20
53.0183
30
0.0
11
275.0769
21
60.3479
31
0.0
0
LINE
8
CUT
10
275.0769
20
60.3479
30
0.0
11
273.2401
21
67.6855
31
0.0
0
LINE
8
CUT
10
273.2401
20
67.6855
30
0.0
11
271.1079
21
74.9893
31
0.0
0
LINE
8
CUT
10
271.1079
20
74.9893
30
0.0
11
268.6922
21
82.2181
31
0.0
0
LINE
8
CUT
10
268.6922
20
82.2181
30
0.0
11
266.0049
21
89.3302
31
0.0
0
LINE
8
CUT
10
266.0049
20
89.3302
30
0.0
11
263.0577
21
96.2841
31
0.0
0
LINE
8
CUT
10
263.0577
20
96.2841
30
0.0
11
259.8627
21
103.0385
31
0.0
0
LINE
8
CUT
10
259.8627
20
103.0385
30
0.0
11
256.4317
21
109.5517
31
0.0
0
LINE
8
CUT
10
256.4317
20
109.5517
30
0.0
11
252.7765
21
115.7824
31
0.0
0
LINE
8
CUT
10
252.7765
20
115.7824
30
0.0
11
248.9092
21
121.6889
31
0.0
0
LINE
8
CUT
10
248.9092
20
121.6889
30
0.0
11
244.8415
21
127.2298
31
0.0
0
LINE
8
CUT
10
244.8415
20
127.2298
30
0.0
11
240.5853
21
132.3637
31
0.0
0
LINE
8
CUT
10
240.5853
20
132.3637
30
0.0
11
236.1526
21
137.0490
31
0.0
0
LINE
8
CUT
10
236.1526
20
137.0490
30
0.0
11
231.5551
21
141.2442
31
0.0
0
LINE
8
CUT
10
231.5551
20
141.2442
30
0.0
11
226.8049
21
144.9078
31
0.0
0
LINE
8
CUT
10
226.8049
20
144.9078
30
0.0
11
221.9138
21
147.9983
31
0.0
0
LINE
8
CUT
10
221.9138
20
147.9983
30
0.0
11
216.8936
21
150.4743
31
0.0
0
LINE
8
CUT
10
216.8936
20
150.4743
30
0.0
11
211.7562
21
152.2943
31
0.0
0
LINE
8
CUT
10
211.7562
20
152.2943
30
0.0
11
206.5136
21
153.4166
31
0.0
0
LINE
8
CUT
10
206.5136
20
153.4166
30
0.0
11
201.1777
21
153.8000
31
0.0
0
LINE
8
CUT
10
201.1777
20
153.8000
30
0.0
11
191.1188
21
153.8000
31
0.0
0
LINE
8
CUT
10
191.1188
20
153.8000
30
0.0
11
181.0599
21
153.8000
31
0.0
0
LINE
8
CUT
10
181.0599
20
153.8000
30
0.0
11
171.0010
21
153.8000
31
0.0
0
LINE
8
CUT
10
171.0010
20
153.8000
30
0.0
11
160.9421
21
153.8000
31
0.0
0
LINE
8
CUT
10
160.9421
20
153.8000
30
0.0
11
150.8832
21
153.8000
31
0.0
0
LINE
8
CUT
10
150.8832
20
153.8000
30
0.0
11
140.8244
21
153.8000
31
0.0
0
LINE
8
CUT
10
140.8244
20
153.8000
30
0.0
11
130.7655
21
153.8000
31
0.0
0
LINE
8
CUT
10
130.7655
20
153.8000
30
0.0
11
120.7066
21
153.8000
31
0.0
0
LINE
8
CUT
10
120.7066
20
153.8000
30
0.0
11
110.6477
21
153.8000
31
0.0
0
LINE
8
CUT
10
110.6477
20
153.8000
30
0.0
11
100.5888
21
153.8000
31
0.0
0
LINE
8
CUT
10
100.5888
20
153.8000
30
0.0
11
90.5299
21
153.8000
31
0.0
0
LINE
8
CUT
10
90.5299
20
153.8000
30
0.0
11
80.4711
21
153.8000
31
0.0
0
LINE
8
CUT
10
80.4711
20
153.8000
30
0.0
11
70.4122
21
153.8000
31
0.0
0
LINE
8
CUT
10
70.4122
20
153.8000
30
0.0
11
60.3533
21
153.8000
31
0.0
0
LINE
8
CUT
10
60.3533
20
153.8000
30
0.0
11
50.2944
21
153.8000
31
0.0
0
LINE
8
CUT
10
50.2944
20
153.8000
30
0.0
11
40.2355
21
153.8000
31
0.0
0
LINE
8
CUT
10
40.2355
20
153.8000
30
0.0
11
30.1766
21
153.8000
31
0.0
0
LINE
8
CUT
10
30.1766
20
153.8000
30
0.0
11
20.1178
21
153.8000
31
0.0
0
LINE
8
CUT
10
20.1178
20
153.8000
30
0.0
11
10.0589
21
153.8000
31
0.0
0
LINE
8
CUT
10
10.0589
20
153.8000
30
0.0
11
0.0000
21
153.8000
31
0.0
0
LINE
8
CUT
10
0.0000
20
153.8000
30
0.0
11
-0.0000
21
153.8000
31
0.0
0
LINE
8
CUT
10
-0.0000
20
153.8000
30
0.0
11
-10.0589
21
153.8000
31
0.0
0
LINE
8
CUT
10
-10.0589
20
153.8000
30
0.0
11
-20.1178
21
153.8000
31
0.0
0
LINE
8
CUT
10
-20.1178
20
153.8000
30
0.0
11
-30.1766
21
153.8000
31
0.0
0
LINE
8
CUT
10
-30.1766
20
153.8000
30
0.0
11
-40.2355
21
153.8000
31
0.0
0
LINE
8
CUT
10
-40.2355
20
153.8000
30
0.0
11
-50.2944
21
153.8000
31
0.0
0
LINE
8
CUT
10
-50.2944
20
153.8000
30
0.0
11
-60.3533
21
153.8000
31
0.0
0
LINE
8
CUT
10
-60.3533
20
153.8000
30
0.0
11
-70.4122
21
153.8000
31
0.0
0
LINE
8
CUT
10
-70.4122
20
153.8000
30
0.0
11
-80.4711
21
153.8000
31
0.0
0
LINE
8
CUT
10
-80.4711
20
153.8000
30
0.0
11
-90.5299
21
153.8000
31
0.0
0
LINE
8
CUT
10
-90.5299
20
153.8000
30
0.0
11
-100.5888
21
153.8000
31
0.0
0
LINE
8
CUT
10
-100.5888
20
153.8000
30
0.0
11
-110.6477
21
153.8000
31
0.0
0
LINE
8
CUT
10
-110.6477
20
153.8000
30
0.0
11
-120.7066
21
153.8000
31
0.0
0
LINE
8
CUT
10
-120.7066
20
153.8000
30
0.0
11
-130.7655
21
153.8000
31
0.0
0
LINE
8
CUT
10
-130.7655
20
153.8000
30
0.0
11
-140.8244
21
153.8000
31
0.0
0
LINE
8
CUT
10
-140.8244
20
153.8000
30
0.0
11
-150.8832
21
153.8000
31
0.0
0
LINE
8
CUT
10
-150.8832
20
153.8000
30
0.0
11
-160.9421
21
153.8000
31
0.0
0
LINE
8
CUT
10
-160.9421
20
153.8000
30
0.0
11
-171.0010
21
153.8000
31
0.0
0
LINE
8
CUT
10
-171.0010
20
153.8000
30
0.0
11
-181.0599
21
153.8000
31
0.0
0
LINE
8
CUT
10
-181.0599
20
153.8000
30
0.0
11
-191.1188
21
153.8000
31
0.0
0
LINE
8
CUT
10
-191.1188
20
153.8000
30
0.0
11
-201.1777
21
153.8000
31
0.0
0
LINE
8
CUT
10
-201.1777
20
153.8000
30
0.0
11
-206.5136
21
153.4166
31
0.0
0
LINE
8
CUT
10
-206.5136
20
153.4166
30
0.0
11
-211.7562
21
152.2943
31
0.0
0
LINE
8
CUT
10
-211.7562
20
152.2943
30
0.0
11
-216.8936
21
150.4743
31
0.0
0
LINE
8
CUT
10
-216.8936
20
150.4743
30
0.0
11
-221.9138
21
147.9983
31
0.0
0
LINE
8
CUT
10
-221.9138
20
147.9983
30
0.0
11
-226.8049
21
144.9078
31
0.0
0
LINE
8
CUT
10
-226.8049
20
144.9078
30
0.0
11
-231.5551
21
141.2442
31
0.0
0
LINE
8
CUT
10
-231.5551
20
141.2442
30
0.0
11
-236.1526
21
137.0490
31
0.0
0
LINE
8
CUT
10
-236.1526
20
137.0490
30
0.0
11
-240.5853
21
132.3637
31
0.0
0
LINE
8
CUT
10
-240.5853
20
132.3637
30
0.0
11
-244.8415
21
127.2298
31
0.0
0
LINE
8
CUT
10
-244.8415
20
127.2298
30
0.0
11
-248.9092
21
121.6889
31
0.0
0
LINE
8
CUT
10
-248.9092
20
121.6889
30
0.0
11
-252.7765
21
115.7824
31
0.0
0
LINE
8
CUT
10
-252.7765
20
115.7824
30
0.0
11
-256.4317
21
109.5517
31
0.0
0
LINE
8
CUT
10
-256.4317
20
109.5517
30
0.0
11
-259.8627
21
103.0385
31
0.0
0
LINE
8
CUT
10
-259.8627
20
103.0385
30
0.0
11
-263.0577
21
96.2841
31
0.0
0
LINE
8
CUT
10
-263.0577
20
96.2841
30
0.0
11
-266.0049
21
89.3302
31
0.0
0
LINE
8
CUT
10
-266.0049
20
89.3302
30
0.0
11
-268.6922
21
82.2181
31
0.0
0
LINE
8
CUT
10
-268.6922
20
82.2181
30
0.0
11
-271.1079
21
74.9893
31
0.0
0
LINE
8
CUT
10
-271.1079
20
74.9893
30
0.0
11
-273.2401
21
67.6855
31
0.0
0
LINE
8
CUT
10
-273.2401
20
67.6855
30
0.0
11
-275.0769
21
60.3479
31
0.0
0
LINE
8
CUT
10
-275.0769
20
60.3479
30
0.0
11
-276.6064
21
53.0183
31
0.0
0
LINE
8
CUT
10
-276.6064
20
53.0183
30
0.0
11
-277.8166
21
45.7380
31
0.0
0
LINE
8
CUT
10
-277.8166
20
45.7380
30
0.0
11
-278.6958
21
38.5485
31
0.0
0
LINE
8
CUT
10
-278.6958
20
38.5485
30
0.0
11
-279.2320
21
31.4913
31
0.0
0
LINE
8
CUT
10
-279.2320
20
31.4913
30
0.0
11
-279.4134
21
24.6080
31
0.0
0
LINE
8
CUT
10
-279.4134
20
24.6080
30
0.0
11
-279.1636
21
23.1824
31
0.0
0
LINE
8
CUT
10
-279.1636
20
23.1824
30
0.0
11
-278.4486
21
21.9573
31
0.0
0
LINE
8
CUT
10
-278.4486
20
21.9573
30
0.0
11
-277.3200
21
20.8982
31
0.0
0
LINE
8
CUT
10
-277.3200
20
20.8982
30
0.0
11
-275.8295
21
19.9709
31
0.0
0
LINE
8
CUT
10
-275.8295
20
19.9709
30
0.0
11
-274.0287
21
19.1407
31
0.0
0
LINE
8
CUT
10
-274.0287
20
19.1407
30
0.0
11
-271.9693
21
18.3735
31
0.0
0
LINE
8
CUT
10
-271.9693
20
18.3735
30
0.0
11
-269.7029
21
17.6347
31
0.0
0
LINE
8
CUT
10
-269.7029
20
17.6347
30
0.0
11
-267.2812
21
16.8900
31
0.0
0
LINE
8
CUT
10
-267.2812
20
16.8900
30
0.0
11
-264.7559
21
16.1049
31
0.0
0
LINE
8
CUT
10
-264.7559
20
16.1049
30
0.0
11
-262.1784
21
15.2451
31
0.0
0
LINE
8
CUT
10
-262.1784
20
15.2451
30
0.0
11
-259.6007
21
14.2762
31
0.0
0
LINE
8
CUT
10
-259.6007
20
14.2762
30
0.0
11
-257.0741
21
13.1638
31
0.0
0
LINE
8
CUT
10
-257.0741
20
13.1638
30
0.0
11
-254.6505
21
11.8734
31
0.0
0
LINE
8
CUT
10
-254.6505
20
11.8734
30
0.0
11
-252.3815
21
10.3708
31
0.0
0
LINE
8
CUT
10
-252.3815
20
10.3708
30
0.0
11
-250.3186
21
8.6214
31
0.0
0
LINE
8
CUT
10
-250.3186
20
8.6214
30
0.0
11
-248.5136
21
6.5908
31
0.0
0
LINE
8
CUT
10
-248.5136
20
6.5908
30
0.0
11
-247.0182
21
4.2448
31
0.0
0
LINE
8
CUT
10
-247.0182
20
4.2448
30
0.0
11
-245.8838
21
1.5488
31
0.0
0
LINE
8
CUT
10
-245.8838
20
1.5488
30
0.0
11
-232.9426
21
1.3901
31
0.0
0
LINE
8
CUT
10
-232.9426
20
1.3901
30
0.0
11
-220.0013
21
1.2399
31
0.0
0
LINE
8
CUT
10
-220.0013
20
1.2399
30
0.0
11
-207.0601
21
1.0983
31
0.0
0
LINE
8
CUT
10
-207.0601
20
1.0983
30
0.0
11
-194.1188
21
0.9653
31
0.0
0
LINE
8
CUT
10
-194.1188
20
0.9653
30
0.0
11
-181.1775
21
0.8409
31
0.0
0
LINE
8
CUT
10
-181.1775
20
0.8409
30
0.0
11
-168.2363
21
0.7251
31
0.0
0
LINE
8
CUT
10
-168.2363
20
0.7251
30
0.0
11
-155.2950
21
0.6178
31
0.0
0
LINE
8
CUT
10
-155.2950
20
0.6178
30
0.0
11
-142.3538
21
0.5191
31
0.0
0
LINE
8
CUT
10
-142.3538
20
0.5191
30
0.0
11
-129.4125
21
0.4290
31
0.0
0
LINE
8
CUT
10
-129.4125
20
0.4290
30
0.0
11
-116.4713
21
0.3475
31
0.0
0
LINE
8
CUT
10
-116.4713
20
0.3475
30
0.0
11
-103.5300
21
0.2746
31
0.0
0
LINE
8
CUT
10
-103.5300
20
0.2746
30
0.0
11
-90.5888
21
0.2102
31
0.0
0
LINE
8
CUT
10
-90.5888
20
0.2102
30
0.0
11
-77.6475
21
0.1545
31
0.0
0
LINE
8
CUT
10
-77.6475
20
0.1545
30
0.0
11
-64.7063
21
0.1073
31
0.0
0
LINE
8
CUT
10
-64.7063
20
0.1073
30
0.0
11
-51.7650
21
0.0686
31
0.0
0
LINE
8
CUT
10
-51.7650
20
0.0686
30
0.0
11
-38.8238
21
0.0386
31
0.0
0
LINE
8
CUT
10
-38.8238
20
0.0386
30
0.0
11
-25.8825
21
0.0172
31
0.0
0
LINE
8
CUT
10
-25.8825
20
0.0172
30
0.0
11
-12.9413
21
0.0043
31
0.0
0
LINE
8
CUT
10
-12.9413
20
0.0043
30
0.0
11
-0.0000
21
0.0000
31
0.0
0
LINE
8
CUT
10
-0.0000
20
0.0000
30
0.0
11
0.0000
21
0.0000
31
0.0
0
LINE
8
REG
10
0.0000
20
-20.0000
30
0.0
11
0.0000
21
173.8000
31
0.0
0
ENDSEC
0
EOF
