0
SECTION
2
ENTITIES
0
LINE
8
CUT
10
0.0000
20
78.2678
30
0.0
11
6.7925
21
78.2721
31
0.0
0
LINE
8
CUT
10
6.7925
20
78.2721
30
0.0
11
13.5849
21
78.2850
31
0.0
0
LINE
8
CUT
10
13.5849
20
78.2850
30
0.0
11
20.3774
21
78.3065
31
0.0
0
LINE
8
CUT
10
20.3774
20
78.3065
30
0.0
11
27.1698
21
78.3365
31
0.0
0
LINE
8
CUT
10
27.1698
20
78.3365
30
0.0
11
33.9623
21
78.3751
31
0.0
0
LINE
8
CUT
10
33.9623
20
78.3751
30
0.0
11
40.7548
21
78.4223
31
0.0
0
LINE
8
CUT
10
40.7548
20
78.4223
30
0.0
11
47.5472
21
78.4781
31
0.0
0
LINE
8
CUT
10
47.5472
20
78.4781
30
0.0
11
54.3397
21
78.5424
31
0.0
0
LINE
8
CUT
10
54.3397
20
78.5424
30
0.0
11
61.1321
21
78.6154
31
0.0
0
LINE
8
CUT
10
61.1321
20
78.6154
30
0.0
11
67.9246
21
78.6969
31
0.0
0
LINE
8
CUT
10
67.9246
20
78.6969
30
0.0
11
74.7171
21
78.7870
31
0.0
0
LINE
8
CUT
10
74.7171
20
78.7870
30
0.0
11
81.5095
21
78.8857
31
0.0
0
LINE
8
CUT
10
81.5095
20
78.8857
30
0.0
11
88.3020
21
78.9929
31
0.0
0
LINE
8
CUT
10
88.3020
20
78.9929
30
0.0
11
95.0944
21
79.1087
31
0.0
0
LINE
8
CUT
10
95.0944
20
79.1087
30
0.0
11
101.8869
21
79.2332
31
0.0
0
LINE
8
CUT
10
101.8869
20
79.2332
30
0.0
11
108.6794
21
79.3662
31
0.0
0
LINE
8
CUT
10
108.6794
20
79.3662
30
0.0
11
115.4718
21
79.5077
31
0.0
0
LINE
8
CUT
10
115.4718
20
79.5077
30
0.0
11
122.2643
21
79.6579
31
0.0
0
LINE
8
CUT
10
122.2643
20
79.6579
30
0.0
11
129.0568
21
79.8166
31
0.0
0
LINE
8
CUT
10
129.0568
20
79.8166
30
0.0
11
130.6207
21
79.9873
31
0.0
0
LINE
8
CUT
10
130.6207
20
79.9873
30
0.0
11
132.1531
21
80.2531
31
0.0
0
LINE
8
CUT
10
132.1531
20
80.2531
30
0.0
11
133.6468
21
80.6065
31
0.0
0
LINE
8
CUT
10
133.6468
20
80.6065
30
0.0
11
135.0948
21
81.0404
31
0.0
0
LINE
8
CUT
10
135.0948
20
81.0404
30
0.0
11
136.4902
21
81.5473
31
0.0
0
LINE
8
CUT
10
136.4902
20
81.5473
30
0.0
11
137.8260
21
82.1200
31
0.0
0
LINE
8
CUT
10
137.8260
20
82.1200
30
0.0
11
139.0951
21
82.7510
31
0.0
0
LINE
8
CUT
10
139.0951
20
82.7510
30
0.0
11
140.2906
21
83.4331
31
0.0
0
LINE
8
CUT
10
140.2906
20
83.4331
30
0.0
11
141.4054
21
84.1588
31
0.0
0
LINE
8
CUT
10
141.4054
20
84.1588
30
0.0
11
142.4326
21
84.9210
31
0.0
0
LINE
8
CUT
10
142.4326
20
84.9210
30
0.0
11
143.3652
21
85.7122
31
0.0
0
LINE
8
CUT
10
143.3652
20
85.7122
30
0.0
11
144.1961
21
86.5251
31
0.0
0
LINE
8
CUT
10
144.1961
20
86.5251
30
0.0
11
144.9184
21
87.3523
31
0.0
0
LINE
8
CUT
10
144.9184
20
87.3523
30
0.0
11
145.5250
21
88.1866
31
0.0
0
LINE
8
CUT
10
145.5250
20
88.1866
30
0.0
11
146.0091
21
89.0205
31
0.0
0
LINE
8
CUT
10
146.0091
20
89.0205
30
0.0
11
146.3635
21
89.8468
31
0.0
0
LINE
8
CUT
10
146.3635
20
89.8468
30
0.0
11
146.5813
21
90.6581
31
0.0
0
LINE
8
CUT
10
146.5813
20
90.6581
30
0.0
11
146.6554
21
91.4471
31
0.0
0
LINE
8
CUT
10
146.6554
20
91.4471
30
0.0
11
146.5602
21
95.1336
31
0.0
0
LINE
8
CUT
10
146.5602
20
95.1336
30
0.0
11
146.2787
21
98.9131
31
0.0
0
LINE
8
CUT
10
146.2787
20
98.9131
30
0.0
11
145.8173
21
102.7636
31
0.0
0
LINE
8
CUT
10
145.8173
20
102.7636
30
0.0
11
145.1821
21
106.6627
31
0.0
0
LINE
8
CUT
10
145.1821
20
106.6627
30
0.0
11
144.3793
21
110.5882
31
0.0
0
LINE
8
CUT
10
144.3793
20
110.5882
30
0.0
11
143.4152
21
114.5179
31
0.0
0
LINE
8
CUT
10
143.4152
20
114.5179
30
0.0
11
142.2961
21
118.4296
31
0.0
0
LINE
8
CUT
10
142.2961
20
118.4296
30
0.0
11
141.0282
21
122.3011
31
0.0
0
LINE
8
CUT
10
141.0282
20
122.3011
30
0.0
11
139.6177
21
126.1101
31
0.0
0
LINE
8
CUT
10
139.6177
20
126.1101
30
0.0
11
138.0708
21
129.8344
31
0.0
0
LINE
8
CUT
10
138.0708
20
129.8344
30
0.0
11
136.3938
21
133.4518
31
0.0
0
LINE
8
CUT
10
136.3938
20
133.4518
30
0.0
11
134.5930
21
136.9401
31
0.0
0
LINE
8
CUT
10
134.5930
20
136.9401
30
0.0
11
132.6745
21
140.2770
31
0.0
0
LINE
8
CUT
10
132.6745
20
140.2770
30
0.0
11
130.6447
21
143.4404
31
0.0
0
LINE
8
CUT
10
130.6447
20
143.4404
30
0.0
11
128.5097
21
146.4079
31
0.0
0
LINE
8
CUT
10
128.5097
20
146.4079
30
0.0
11
126.2757
21
149.1574
31
0.0
0
LINE
8
CUT
10
126.2757
20
149.1574
30
0.0
11
123.9491
21
151.6667
31
0.0
0
LINE
8
CUT
10
123.9491
20
151.6667
30
0.0
11
121.5361
21
153.9135
31
0.0
0
LINE
8
CUT
10
121.5361
20
153.9135
30
0.0
11
119.0428
21
155.8756
31
0.0
0
LINE
8
CUT
10
119.0428
20
155.8756
30
0.0
11
116.4756
21
157.5308
31
0.0
0
LINE
8
CUT
10
116.4756
20
157.5308
30
0.0
11
113.8407
21
158.8569
31
0.0
0
LINE
8
CUT
10
113.8407
20
158.8569
30
0.0
11
111.1443
21
159.8316
31
0.0
0
LINE
8
CUT
10
111.1443
20
159.8316
30
0.0
11
108.3926
21
160.4327
31
0.0
0
LINE
8
CUT
10
108.3926
20
160.4327
30
0.0
11
105.5919
21
160.6380
31
0.0
0
LINE
8
CUT
10
105.5919
20
160.6380
30
0.0
11
100.3123
21
160.6380
31
0.0
0
LINE
8
CUT
10
100.3123
20
160.6380
30
0.0
11
95.0327
21
160.6380
31
0.0
0
LINE
8
CUT
10
95.0327
20
160.6380
30
0.0
11
89.7531
21
160.6380
31
0.0
0
LINE
8
CUT
10
89.7531
20
160.6380
30
0.0
11
84.4735
21
160.6380
31
0.0
0
LINE
8
CUT
10
84.4735
20
160.6380
30
0.0
11
79.1939
21
160.6380
31
0.0
0
LINE
8
CUT
10
79.1939
20
160.6380
30
0.0
11
73.9143
21
160.6380
31
0.0
0
LINE
8
CUT
10
73.9143
20
160.6380
30
0.0
11
68.6347
21
160.6380
31
0.0
0
LINE
8
CUT
10
68.6347
20
160.6380
30
0.0
11
63.3551
21
160.6380
31
0.0
0
LINE
8
CUT
10
63.3551
20
160.6380
30
0.0
11
58.0755
21
160.6380
31
0.0
0
LINE
8
CUT
10
58.0755
20
160.6380
30
0.0
11
52.7959
21
160.6380
31
0.0
0
LINE
8
CUT
10
52.7959
20
160.6380
30
0.0
11
47.5163
21
160.6380
31
0.0
0
LINE
8
CUT
10
47.5163
20
160.6380
30
0.0
11
42.2368
21
160.6380
31
0.0
0
LINE
8
CUT
10
42.2368
20
160.6380
30
0.0
11
36.9572
21
160.6380
31
0.0
0
LINE
8
CUT
10
36.9572
20
160.6380
30
0.0
11
31.6776
21
160.6380
31
0.0
0
LINE
8
CUT
10
31.6776
20
160.6380
30
0.0
11
26.3980
21
160.6380
31
0.0
0
LINE
8
CUT
10
26.3980
20
160.6380
30
0.0
11
21.1184
21
160.6380
31
0.0
0
LINE
8
CUT
10
21.1184
20
160.6380
30
0.0
11
15.8388
21
160.6380
31
0.0
0
LINE
8
CUT
10
15.8388
20
160.6380
30
0.0
11
10.5592
21
160.6380
31
0.0
0
LINE
8
CUT
10
10.5592
20
160.6380
30
0.0
11
5.2796
21
160.6380
31
0.0
0
LINE
8
CUT
10
5.2796
20
160.6380
30
0.0
11
0.0000
21
160.6380
31
0.0
0
LINE
8
CUT
10
0.0000
20
160.6380
30
0.0
11
-0.0000
21
160.6380
31
0.0
0
LINE
8
CUT
10
-0.0000
20
160.6380
30
0.0
11
-5.2796
21
160.6380
31
0.0
0
LINE
8
CUT
10
-5.2796
20
160.6380
30
0.0
11
-10.5592
21
160.6380
31
0.0
0
LINE
8
CUT
10
-10.5592
20
160.6380
30
0.0
11
-15.8388
21
160.6380
31
0.0
0
LINE
8
CUT
10
-15.8388
20
160.6380
30
0.0
11
-21.1184
21
160.6380
31
0.0
0
LINE
8
CUT
10
-21.1184
20
160.6380
30
0.0
11
-26.3980
21
160.6380
31
0.0
0
LINE
8
CUT
10
-26.3980
20
160.6380
30
0.0
11
-31.6776
21
160.6380
31
0.0
0
LINE
8
CUT
10
-31.6776
20
160.6380
30
0.0
11
-36.9572
21
160.6380
31
0.0
0
LINE
8
CUT
10
-36.9572
20
160.6380
30
0.0
11
-42.2368
21
160.6380
31
0.0
0
LINE
8
CUT
10
-42.2368
20
160.6380
30
0.0
11
-47.5163
21
160.6380
31
0.0
0
LINE
8
CUT
10
-47.5163
20
160.6380
30
0.0
11
-52.7959
21
160.6380
31
0.0
0
LINE
8
CUT
10
-52.7959
20
160.6380
30
0.0
11
-58.0755
21
160.6380
31
0.0
0
LINE
8
CUT
10
-58.0755
20
160.6380
30
0.0
11
-63.3551
21
160.6380
31
0.0
0
LINE
8
CUT
10
-63.3551
20
160.6380
30
0.0
11
-68.6347
21
160.6380
31
0.0
0
LINE
8
CUT
10
-68.6347
20
160.6380
30
0.0
11
-73.9143
21
160.6380
31
0.0
0
LINE
8
CUT
10
-73.9143
20
160.6380
30
0.0
11
-79.1939
21
160.6380
31
0.0
0
LINE
8
CUT
10
-79.1939
20
160.6380
30
0.0
11
-84.4735
21
160.6380
31
0.0
0
LINE
8
CUT
10
-84.4735
20
160.6380
30
0.0
11
-89.7531
21
160.6380
31
0.0
0
LINE
8
CUT
10
-89.7531
20
160.6380
30
0.0
11
-95.0327
21
160.6380
31
0.0
0
LINE
8
CUT
10
-95.0327
20
160.6380
30
0.0
11
-100.3123
21
160.6380
31
0.0
0
LINE
8
CUT
10
-100.3123
20
160.6380
30
0.0
11
-105.5919
21
160.6380
31
0.0
0
LINE
8
CUT
10
-105.5919
20
160.6380
30
0.0
11
-108.3926
21
160.4327
31
0.0
0
LINE
8
CUT
10
-108.3926
20
160.4327
30
0.0
11
-111.1443
21
159.8316
31
0.0
0
LINE
8
CUT
10
-111.1443
20
159.8316
30
0.0
11
-113.8407
21
158.8569
31
0.0
0
LINE
8
CUT
10
-113.8407
20
158.8569
30
0.0
11
-116.4756
21
157.5308
31
0.0
0
LINE
8
CUT
10
-116.4756
20
157.5308
30
0.0
11
-119.0428
21
155.8756
31
0.0
0
LINE
8
CUT
10
-119.0428
20
155.8756
30
0.0
11
-121.5361
21
153.9135
31
0.0
0
LINE
8
CUT
10
-121.5361
20
153.9135
30
0.0
11
-123.9491
21
151.6667
31
0.0
0
LINE
8
CUT
10
-123.9491
20
151.6667
30
0.0
11
-126.2757
21
149.1574
31
0.0
0
LINE
8
CUT
10
-126.2757
20
149.1574
30
0.0
11
-128.5097
21
146.4079
31
0.0
0
LINE
8
CUT
10
-128.5097
20
146.4079
30
0.0
11
-130.6447
21
143.4404
31
0.0
0
LINE
8
CUT
10
-130.6447
20
143.4404
30
0.0
11
-132.6745
21
140.2770
31
0.0
0
LINE
8
CUT
10
-132.6745
20
140.2770
30
0.0
11
-134.5930
21
136.9401
31
0.0
0
LINE
8
CUT
10
-134.5930
20
136.9401
30
0.0
11
-136.3938
21
133.4518
31
0.0
0
LINE
8
CUT
10
-136.3938
20
133.4518
30
0.0
11
-138.0708
21
129.8344
31
0.0
0
LINE
8
CUT
10
-138.0708
20
129.8344
30
0.0
11
-139.6177
21
126.1101
31
0.0
0
LINE
8
CUT
10
-139.6177
20
126.1101
30
0.0
11
-141.0282
21
122.3011
31
0.0
0
LINE
8
CUT
10
-141.0282
20
122.3011
30
0.0
11
-142.2961
21
118.4296
31
0.0
0
LINE
8
CUT
10
-142.2961
20
118.4296
30
0.0
11
-143.4152
21
114.5179
31
0.0
0
LINE
8
CUT
10
-143.4152
20
114.5179
30
0.0
11
-144.3793
21
110.5882
31
0.0
0
LINE
8
CUT
10
-144.3793
20
110.5882
30
0.0
11
-145.1821
21
106.6627
31
0.0
0
LINE
8
CUT
10
-145.1821
20
106.6627
30
0.0
11
-145.8173
21
102.7636
31
0.0
0
LINE
8
CUT
10
-145.8173
20
102.7636
30
0.0
11
-146.2787
21
98.9131
31
0.0
0
LINE
8
CUT
10
-146.2787
20
98.9131
30
0.0
11
-146.5602
21
95.1336
31
0.0
0
LINE
8
CUT
10
-146.5602
20
95.1336
30
0.0
11
-146.6554
21
91.4471
31
0.0
0
LINE
8
CUT
10
-146.6554
20
91.4471
30
0.0
11
-146.5813
21
90.6581
31
0.0
0
LINE
8
CUT
10
-146.5813
20
90.6581
30
0.0
11
-146.3635
21
89.8468
31
0.0
0
LINE
8
CUT
10
-146.3635
20
89.8468
30
0.0
11
-146.0091
21
89.0205
31
0.0
0
LINE
8
CUT
10
-146.0091
20
89.0205
30
0.0
11
-145.5250
21
88.1866
31
0.0
0
LINE
8
CUT
10
-145.5250
20
88.1866
30
0.0
11
-144.9184
21
87.3523
31
0.0
0
LINE
8
CUT
10
-144.9184
20
87.3523
30
0.0
11
-144.1961
21
86.5251
31
0.0
0
LINE
8
CUT
10
-144.1961
20
86.5251
30
0.0
11
-143.3652
21
85.7122
31
0.0
0
LINE
8
CUT
10
-143.3652
20
85.7122
30
0.0
11
-142.4326
21
84.9210
31
0.0
0
LINE
8
CUT
10
-142.4326
20
84.9210
30
0.0
11
-141.4054
21
84.1588
31
0.0
0
LINE
8
CUT
10
-141.4054
20
84.1588
30
0.0
11
-140.2906
21
83.4331
31
0.0
0
LINE
8
CUT
10
-140.2906
20
83.4331
30
0.0
11
-139.0951
21
82.7510
31
0.0
0
LINE
8
CUT
10
-139.0951
20
82.7510
30
0.0
11
-137.8260
21
82.1200
31
0.0
0
LINE
8
CUT
10
-137.8260
20
82.1200
30
0.0
11
-136.4902
21
81.5473
31
0.0
0
LINE
8
CUT
10
-136.4902
20
81.5473
30
0.0
11
-135.0948
21
81.0404
31
0.0
0
LINE
8
CUT
10
-135.0948
20
81.0404
30
0.0
11
-133.6468
21
80.6065
31
0.0
0
LINE
8
CUT
10
-133.6468
20
80.6065
30
0.0
11
-132.1531
21
80.2531
31
0.0
0
LINE
8
CUT
10
-132.1531
20
80.2531
30
0.0
11
-130.6207
21
79.9873
31
0.0
0
LINE
8
CUT
10
-130.6207
20
79.9873
30
0.0
11
-129.0568
21
79.8166
31
0.0
0
LINE
8
CUT
10
-129.0568
20
79.8166
30
0.0
11
-122.2643
21
79.6579
31
0.0
0
LINE
8
CUT
10
-122.2643
20
79.6579
30
0.0
11
-115.4718
21
79.5077
31
0.0
0
LINE
8
CUT
10
-115.4718
20
79.5077
30
0.0
11
-108.6794
21
79.3662
31
0.0
0
LINE
8
CUT
10
-108.6794
20
79.3662
30
0.0
11
-101.8869
21
79.2332
31
0.0
0
LINE
8
CUT
10
-101.8869
20
79.2332
30
0.0
11
-95.0944
21
79.1087
31
0.0
0
LINE
8
CUT
10
-95.0944
20
79.1087
30
0.0
11
-88.3020
21
78.9929
31
0.0
0
LINE
8
CUT
10
-88.3020
20
78.9929
30
0.0
11
-81.5095
21
78.8857
31
0.0
0
LINE
8
CUT
10
-81.5095
20
78.8857
30
0.0
11
-74.7171
21
78.7870
31
0.0
0
LINE
8
CUT
10
-74.7171
20
78.7870
30
0.0
11
-67.9246
21
78.6969
31
0.0
0
LINE
8
CUT
10
-67.9246
20
78.6969
30
0.0
11
-61.1321
21
78.6154
31
0.0
0
LINE
8
CUT
10
-61.1321
20
78.6154
30
0.0
11
-54.3397
21
78.5424
31
0.0
0
LINE
8
CUT
10
-54.3397
20
78.5424
30
0.0
11
-47.5472
21
78.4781
31
0.0
0
LINE
8
CUT
10
-47.5472
20
78.4781
30
0.0
11
-40.7548
21
78.4223
31
0.0
0
LINE
8
CUT
10
-40.7548
20
78.4223
30
0.0
11
-33.9623
21
78.3751
31
0.0
0
LINE
8
CUT
10
-33.9623
20
78.3751
30
0.0
11
-27.1698
21
78.3365
31
0.0
0
LINE
8
CUT
10
-27.1698
20
78.3365
30
0.0
11
-20.3774
21
78.3065
31
0.0
0
LINE
8
CUT
10
-20.3774
20
78.3065
30
0.0
11
-13.5849
21
78.2850
31
0.0
0
LINE
8
CUT
10
-13.5849
20
78.2850
30
0.0
11
-6.7925
21
78.2721
31
0.0
0
LINE
8
CUT
10
-6.7925
20
78.2721
30
0.0
11
-0.0000
21
78.2678
31
0.0
0
LINE
8
CUT
10
-0.0000
20
78.2678
30
0.0
11
0.0000
21
78.2678
31
0.0
0
LINE
8
REG
10
0.0000
20
-20.0000
30
0.0
11
0.0000
21
180.6380
31
0.0
0
ENDSEC
0
EOF
