0
SECTION
2
ENTITIES
0
LINE
8
CUT
10
0.0000
20
0.0000
30
0.0
11
12.9557
21
0.0043
31
0.0
0
LINE
8
CUT
10
12.9557
20
0.0043
30
0.0
11
25.9114
21
0.0172
31
0.0
0
LINE
8
CUT
10
25.9114
20
0.0172
30
0.0
11
38.8671
21
0.0386
31
0.0
0
LINE
8
CUT
10
38.8671
20
0.0386
30
0.0
11
51.8228
21
0.0686
31
0.0
0
LINE
8
CUT
10
51.8228
20
0.0686
30
0.0
11
64.7784
21
0.1073
31
0.0
0
LINE
8
CUT
10
64.7784
20
0.1073
30
0.0
11
77.7341
21
0.1545
31
0.0
0
LINE
8
CUT
10
77.7341
20
0.1545
30
0.0
11
90.6898
21
0.2102
31
0.0
0
LINE
8
CUT
10
90.6898
20
0.2102
30
0.0
11
103.6455
21
0.2746
31
0.0
0
LINE
8
CUT
10
103.6455
20
0.2746
30
0.0
11
116.6012
21
0.3475
31
0.0
0
LINE
8
CUT
10
116.6012
20
0.3475
30
0.0
11
129.5569
21
0.4290
31
0.0
0
LINE
8
CUT
10
129.5569
20
0.4290
30
0.0
11
142.5126
21
0.5191
31
0.0
0
LINE
8
CUT
10
142.5126
20
0.5191
30
0.0
11
155.4683
21
0.6178
31
0.0
0
LINE
8
CUT
10
155.4683
20
0.6178
30
0.0
11
168.4239
21
0.7251
31
0.0
0
LINE
8
CUT
10
168.4239
20
0.7251
30
0.0
11
181.3796
21
0.8409
31
0.0
0
LINE
8
CUT
10
181.3796
20
0.8409
30
0.0
11
194.3353
21
0.9653
31
0.0
0
LINE
8
CUT
10
194.3353
20
0.9653
30
0.0
11
207.2910
21
1.0983
31
0.0
0
LINE
8
CUT
10
207.2910
20
1.0983
30
0.0
11
220.2467
21
1.2399
31
0.0
0
LINE
8
CUT
10
220.2467
20
1.2399
30
0.0
11
233.2024
21
1.3901
31
0.0
0
LINE
8
CUT
10
233.2024
20
1.3901
30
0.0
11
246.1581
21
1.5488
31
0.0
0
LINE
8
CUT
10
246.1581
20
1.5488
30
0.0
11
247.2927
21
4.2448
31
0.0
0
LINE
8
CUT
10
247.2927
20
4.2448
30
0.0
11
248.7892
21
6.5908
31
0.0
0
LINE
8
CUT
10
248.7892
20
6.5908
30
0.0
11
250.5957
21
8.6214
31
0.0
0
LINE
8
CUT
10
250.5957
20
8.6214
30
0.0
11
252.6605
21
10.3708
31
0.0
0
LINE
8
CUT
10
252.6605
20
10.3708
30
0.0
11
254.9318
21
11.8734
31
0.0
0
LINE
8
CUT
10
254.9318
20
11.8734
30
0.0
11
257.3581
21
13.1638
31
0.0
0
LINE
8
CUT
10
257.3581
20
13.1638
30
0.0
11
259.8875
21
14.2762
31
0.0
0
LINE
8
CUT
10
259.8875
20
14.2762
30
0.0
11
262.4683
21
15.2451
31
0.0
0
LINE
8
CUT
10
262.4683
20
15.2451
30
0.0
11
265.0488
21
16.1049
31
0.0
0
LINE
8
CUT
10
265.0488
20
16.1049
30
0.0
11
267.5773
21
16.8900
31
0.0
0
LINE
8
CUT
10
267.5773
20
16.8900
30
0.0
11
270.0020
21
17.6347
31
0.0
0
LINE
8
CUT
10
270.0020
20
17.6347
30
0.0
11
272.2713
21
18.3735
31
0.0
0
LINE
8
CUT
10
272.2713
20
18.3735
30
0.0
11
274.3333
21
19.1407
31
0.0
0
LINE
8
CUT
10
274.3333
20
19.1407
30
0.0
11
276.1364
21
19.9709
31
0.0
0
LINE
8
CUT
10
276.1364
20
19.9709
30
0.0
11
277.6289
21
20.8982
31
0.0
0
LINE
8
CUT
10
277.6289
20
20.8982
30
0.0
11
278.7589
21
21.9573
31
0.0
0
LINE
8
CUT
10
278.7589
20
21.9573
30
0.0
11
279.4749
21
23.1824
31
0.0
0
LINE
8
CUT
10
279.4749
20
23.1824
30
0.0
11
279.7251
21
24.6080
31
0.0
0
LINE
8
CUT
10
279.7251
20
24.6080
30
0.0
11
279.5435
21
31.4913
31
0.0
0
LINE
8
CUT
10
279.5435
20
31.4913
30
0.0
11
279.0067
21
38.5485
31
0.0
0
LINE
8
CUT
10
279.0067
20
38.5485
30
0.0
11
278.1265
21
45.7380
31
0.0
0
LINE
8
CUT
10
278.1265
20
45.7380
30
0.0
11
276.9149
21
53.0183
31
0.0
0
LINE
8
CUT
10
276.9149
20
53.0183
30
0.0
11
275.3837
21
60.3479
31
0.0
0
LINE
8
CUT
10
275.3837
20
60.3479
30
0.0
11
273.5449
21
67.6855
31
0.0
0
LINE
8
CUT
10
273.5449
20
67.6855
30
0.0
11
271.4103
21
74.9893
31
0.0
0
LINE
8
CUT
10
271.4103
20
74.9893
30
0.0
11
268.9919
21
82.2181
31
0.0
0
LINE
8
CUT
10
268.9919
20
82.2181
30
0.0
11
266.3016
21
89.3302
31
0.0
0
LINE
8
CUT
10
266.3016
20
89.3302
30
0.0
11
263.3511
21
96.2841
31
0.0
0
LINE
8
CUT
10
263.3511
20
96.2841
30
0.0
11
260.1525
21
103.0385
31
0.0
0
LINE
8
CUT
10
260.1525
20
103.0385
30
0.0
11
256.7177
21
109.5517
31
0.0
0
LINE
8
CUT
10
256.7177
20
109.5517
30
0.0
11
253.0585
21
115.7824
31
0.0
0
LINE
8
CUT
10
253.0585
20
115.7824
30
0.0
11
249.1868
21
121.6889
31
0.0
0
LINE
8
CUT
10
249.1868
20
121.6889
30
0.0
11
245.1146
21
127.2298
31
0.0
0
LINE
8
CUT
10
245.1146
20
127.2298
30
0.0
11
240.8537
21
132.3637
31
0.0
0
LINE
8
CUT
10
240.8537
20
132.3637
30
0.0
11
236.4160
21
137.0490
31
0.0
0
LINE
8
CUT
10
236.4160
20
137.0490
30
0.0
11
231.8134
21
141.2442
31
0.0
0
LINE
8
CUT
10
231.8134
20
141.2442
30
0.0
11
227.0579
21
144.9078
31
0.0
0
LINE
8
CUT
10
227.0579
20
144.9078
30
0.0
11
222.1613
21
147.9983
31
0.0
0
LINE
8
CUT
10
222.1613
20
147.9983
30
0.0
11
217.1355
21
150.4743
31
0.0
0
LINE
8
CUT
10
217.1355
20
150.4743
30
0.0
11
211.9924
21
152.2943
31
0.0
0
LINE
8
CUT
10
211.9924
20
152.2943
30
0.0
11
206.7440
21
153.4166
31
0.0
0
LINE
8
CUT
10
206.7440
20
153.4166
30
0.0
11
201.4021
21
153.8000
31
0.0
0
LINE
8
CUT
10
201.4021
20
153.8000
30
0.0
11
191.3320
21
153.8000
31
0.0
0
LINE
8
CUT
10
191.3320
20
153.8000
30
0.0
11
181.2619
21
153.8000
31
0.0
0
LINE
8
CUT
10
181.2619
20
153.8000
30
0.0
11
171.1917
21
153.8000
31
0.0
0
LINE
8
CUT
10
171.1917
20
153.8000
30
0.0
11
161.1216
21
153.8000
31
0.0
0
LINE
8
CUT
10
161.1216
20
153.8000
30
0.0
11
151.0515
21
153.8000
31
0.0
0
LINE
8
CUT
10
151.0515
20
153.8000
30
0.0
11
140.9814
21
153.8000
31
0.0
0
LINE
8
CUT
10
140.9814
20
153.8000
30
0.0
11
130.9113
21
153.8000
31
0.0
0
LINE
8
CUT
10
130.9113
20
153.8000
30
0.0
11
120.8412
21
153.8000
31
0.0
0
LINE
8
CUT
10
120.8412
20
153.8000
30
0.0
11
110.7711
21
153.8000
31
0.0
0
LINE
8
CUT
10
110.7711
20
153.8000
30
0.0
11
100.7010
21
153.8000
31
0.0
0
LINE
8
CUT
10
100.7010
20
153.8000
30
0.0
11
90.6309
21
153.8000
31
0.0
0
LINE
8
CUT
10
90.6309
20
153.8000
30
0.0
11
80.5608
21
153.8000
31
0.0
0
LINE
8
CUT
10
80.5608
20
153.8000
30
0.0
11
70.4907
21
153.8000
31
0.0
0
LINE
8
CUT
10
70.4907
20
153.8000
30
0.0
11
60.4206
21
153.8000
31
0.0
0
LINE
8
CUT
10
60.4206
20
153.8000
30
0.0
11
50.3505
21
153.8000
31
0.0
0
LINE
8
CUT
10
50.3505
20
153.8000
30
0.0
11
40.2804
21
153.8000
31
0.0
0
LINE
8
CUT
10
40.2804
20
153.8000
30
0.0
11
30.2103
21
153.8000
31
0.0
0
LINE
8
CUT
10
30.2103
20
153.8000
30
0.0
11
20.1402
21
153.8000
31
0.0
0
LINE
8
CUT
10
20.1402
20
153.8000
30
0.0
11
10.0701
21
153.8000
31
0.0
0
LINE
8
CUT
10
10.0701
20
153.8000
30
0.0
11
0.0000
21
153.8000
31
0.0
0
LINE
8
CUT
10
0.0000
20
153.8000
30
0.0
11
-0.0000
21
153.8000
31
0.0
0
LINE
8
CUT
10
-0.0000
20
153.8000
30
0.0
11
-10.0701
21
153.8000
31
0.0
0
LINE
8
CUT
10
-10.0701
20
153.8000
30
0.0
11
-20.1402
21
153.8000
31
0.0
0
LINE
8
CUT
10
-20.1402
20
153.8000
30
0.0
11
-30.2103
21
153.8000
31
0.0
0
LINE
8
CUT
10
-30.2103
20
153.8000
30
0.0
11
-40.2804
21
153.8000
31
0.0
0
LINE
8
CUT
10
-40.2804
20
153.8000
30
0.0
11
-50.3505
21
153.8000
31
0.0
0
LINE
8
CUT
10
-50.3505
20
153.8000
30
0.0
11
-60.4206
21
153.8000
31
0.0
0
LINE
8
CUT
10
-60.4206
20
153.8000
30
0.0
11
-70.4907
21
153.8000
31
0.0
0
LINE
8
CUT
10
-70.4907
20
153.8000
30
0.0
11
-80.5608
21
153.8000
31
0.0
0
LINE
8
CUT
10
-80.5608
20
153.8000
30
0.0
11
-90.6309
21
153.8000
31
0.0
0
LINE
8
CUT
10
-90.6309
20
153.8000
30
0.0
11
-100.7010
21
153.8000
31
0.0
0
LINE
8
CUT
10
-100.7010
20
153.8000
30
0.0
11
-110.7711
21
153.8000
31
0.0
0
LINE
8
CUT
10
-110.7711
20
153.8000
30
0.0
11
-120.8412
21
153.8000
31
0.0
0
LINE
8
CUT
10
-120.8412
20
153.8000
30
0.0
11
-130.9113
21
153.8000
31
0.0
0
LINE
8
CUT
10
-130.9113
20
153.8000
30
0.0
11
-140.9814
21
153.8000
31
0.0
0
LINE
8
CUT
10
-140.9814
20
153.8000
30
0.0
11
-151.0515
21
153.8000
31
0.0
0
LINE
8
CUT
10
-151.0515
20
153.8000
30
0.0
11
-161.1216
21
153.8000
31
0.0
0
LINE
8
CUT
10
-161.1216
20
153.8000
30
0.0
11
-171.1917
21
153.8000
31
0.0
0
LINE
8
CUT
10
-171.1917
20
153.8000
30
0.0
11
-181.2619
21
153.8000
31
0.0
0
LINE
8
CUT
10
-181.2619
20
153.8000
30
0.0
11
-191.3320
21
153.8000
31
0.0
0
LINE
8
CUT
10
-191.3320
20
153.8000
30
0.0
11
-201.4021
21
153.8000
31
0.0
0
LINE
8
CUT
10
-201.4021
20
153.8000
30
0.0
11
-206.7440
21
153.4166
31
0.0
0
LINE
8
CUT
10
-206.7440
20
153.4166
30
0.0
11
-211.9924
21
152.2943
31
0.0
0
LINE
8
CUT
10
-211.9924
20
152.2943
30
0.0
11
-217.1355
21
150.4743
31
0.0
0
LINE
8
CUT
10
-217.1355
20
150.4743
30
0.0
11
-222.1613
21
147.9983
31
0.0
0
LINE
8
CUT
10
-222.1613
20
147.9983
30
0.0
11
-227.0579
21
144.9078
31
0.0
0
LINE
8
CUT
10
-227.0579
20
144.9078
30
0.0
11
-231.8134
21
141.2442
31
0.0
0
LINE
8
CUT
10
-231.8134
20
141.2442
30
0.0
11
-236.4160
21
137.0490
31
0.0
0
LINE
8
CUT
10
-236.4160
20
137.0490
30
0.0
11
-240.8537
21
132.3637
31
0.0
0
LINE
8
CUT
10
-240.8537
20
132.3637
30
0.0
11
-245.1146
21
127.2298
31
0.0
0
LINE
8
CUT
10
-245.1146
20
127.2298
30
0.0
11
-249.1868
21
121.6889
31
0.0
0
LINE
8
CUT
10
-249.1868
20
121.6889
30
0.0
11
-253.0585
21
115.7824
31
0.0
0
LINE
8
CUT
10
-253.0585
20
115.7824
30
0.0
11
-256.7177
21
109.5517
31
0.0
0
LINE
8
CUT
10
-256.7177
20
109.5517
30
0.0
11
-260.1525
21
103.0385
31
0.0
0
LINE
8
CUT
10
-260.1525
20
103.0385
30
0.0
11
-263.3511
21
96.2841
31
0.0
0
LINE
8
CUT
10
-263.3511
20
96.2841
30
0.0
11
-266.3016
21
89.3302
31
0.0
0
LINE
8
CUT
10
-266.3016
20
89.3302
30
0.0
11
-268.9919
21
82.2181
31
0.0
0
LINE
8
CUT
10
-268.9919
20
82.2181
30
0.0
11
-271.4103
21
74.9893
31
0.0
0
LINE
8
CUT
10
-271.4103
20
74.9893
30
0.0
11
-273.5449
21
67.6855
31
0.0
0
LINE
8
CUT
10
-273.5449
20
67.6855
30
0.0
11
-275.3837
21
60.3479
31
0.0
0
LINE
8
CUT
10
-275.3837
20
60.3479
30
0.0
11
-276.9149
21
53.0183
31
0.0
0
LINE
8
CUT
10
-276.9149
20
53.0183
30
0.0
11
-278.1265
21
45.7380
31
0.0
0
LINE
8
CUT
10
-278.1265
20
45.7380
30
0.0
11
-279.0067
21
38.5485
31
0.0
0
LINE
8
CUT
10
-279.0067
20
38.5485
30
0.0
11
-279.5435
21
31.4913
31
0.0
0
LINE
8
CUT
10
-279.5435
20
31.4913
30
0.0
11
-279.7251
21
24.6080
31
0.0
0
LINE
8
CUT
10
-279.7251
20
24.6080
30
0.0
11
-279.4749
21
23.1824
31
0.0
0
LINE
8
CUT
10
-279.4749
20
23.1824
30
0.0
11
-278.7589
21
21.9573
31
0.0
0
LINE
8
CUT
10
-278.7589
20
21.9573
30
0.0
11
-277.6289
21
20.8982
31
0.0
0
LINE
8
CUT
10
-277.6289
20
20.8982
30
0.0
11
-276.1364
21
19.9709
31
0.0
0
LINE
8
CUT
10
-276.1364
20
19.9709
30
0.0
11
-274.3333
21
19.1407
31
0.0
0
LINE
8
CUT
10
-274.3333
20
19.1407
30
0.0
11
-272.2713
21
18.3735
31
0.0
0
LINE
8
CUT
10
-272.2713
20
18.3735
30
0.0
11
-270.0020
21
17.6347
31
0.0
0
LINE
8
CUT
10
-270.0020
20
17.6347
30
0.0
11
-267.5773
21
16.8900
31
0.0
0
LINE
8
CUT
10
-267.5773
20
16.8900
30
0.0
11
-265.0488
21
16.1049
31
0.0
0
LINE
8
CUT
10
-265.0488
20
16.1049
30
0.0
11
-262.4683
21
15.2451
31
0.0
0
LINE
8
CUT
10
-262.4683
20
15.2451
30
0.0
11
-259.8875
21
14.2762
31
0.0
0
LINE
8
CUT
10
-259.8875
20
14.2762
30
0.0
11
-257.3581
21
13.1638
31
0.0
0
LINE
8
CUT
10
-257.3581
20
13.1638
30
0.0
11
-254.9318
21
11.8734
31
0.0
0
LINE
8
CUT
10
-254.9318
20
11.8734
30
0.0
11
-252.6605
21
10.3708
31
0.0
0
LINE
8
CUT
10
-252.6605
20
10.3708
30
0.0
11
-250.5957
21
8.6214
31
0.0
0
LINE
8
CUT
10
-250.5957
20
8.6214
30
0.0
11
-248.7892
21
6.5908
31
0.0
0
LINE
8
CUT
10
-248.7892
20
6.5908
30
0.0
11
-247.2927
21
4.2448
31
0.0
0
LINE
8
CUT
10
-247.2927
20
4.2448
30
0.0
11
-246.1581
21
1.5488
31
0.0
0
LINE
8
CUT
10
-246.1581
20
1.5488
30
0.0
11
-233.2024
21
1.3901
31
0.0
0
LINE
8
CUT
10
-233.2024
20
1.3901
30
0.0
11
-220.2467
21
1.2399
31
0.0
0
LINE
8
CUT
10
-220.2467
20
1.2399
30
0.0
11
-207.2910
21
1.0983
31
0.0
0
LINE
8
CUT
10
-207.2910
20
1.0983
30
0.0
11
-194.3353
21
0.9653
31
0.0
0
LINE
8
CUT
10
-194.3353
20
0.9653
30
0.0
11
-181.3796
21
0.8409
31
0.0
0
LINE
8
CUT
10
-181.3796
20
0.8409
30
0.0
11
-168.4239
21
0.7251
31
0.0
0
LINE
8
CUT
10
-168.4239
20
0.7251
30
0.0
11
-155.4683
21
0.6178
31
0.0
0
LINE
8
CUT
10
-155.4683
20
0.6178
30
0.0
11
-142.5126
21
0.5191
31
0.0
0
LINE
8
CUT
10
-142.5126
20
0.5191
30
0.0
11
-129.5569
21
0.4290
31
0.0
0
LINE
8
CUT
10
-129.5569
20
0.4290
30
0.0
11
-116.6012
21
0.3475
31
0.0
0
LINE
8
CUT
10
-116.6012
20
0.3475
30
0.0
11
-103.6455
21
0.2746
31
0.0
0
LINE
8
CUT
10
-103.6455
20
0.2746
30
0.0
11
-90.6898
21
0.2102
31
0.0
0
LINE
8
CUT
10
-90.6898
20
0.2102
30
0.0
11
-77.7341
21
0.1545
31
0.0
0
LINE
8
CUT
10
-77.7341
20
0.1545
30
0.0
11
-64.7784
21
0.1073
31
0.0
0
LINE
8
CUT
10
-64.7784
20
0.1073
30
0.0
11
-51.8228
21
0.0686
31
0.0
0
LINE
8
CUT
10
-51.8228
20
0.0686
30
0.0
11
-38.8671
21
0.0386
31
0.0
0
LINE
8
CUT
10
-38.8671
20
0.0386
30
0.0
11
-25.9114
21
0.0172
31
0.0
0
LINE
8
CUT
10
-25.9114
20
0.0172
30
0.0
11
-12.9557
21
0.0043
31
0.0
0
LINE
8
CUT
10
-12.9557
20
0.0043
30
0.0
11
-0.0000
21
0.0000
31
0.0
0
LINE
8
CUT
10
-0.0000
20
0.0000
30
0.0
11
0.0000
21
0.0000
31
0.0
0
LINE
8
REG
10
0.0000
20
-20.0000
30
0.0
11
0.0000
21
173.8000
31
0.0
0
ENDSEC
0
EOF
