0
SECTION
2
ENTITIES
0
LINE
8
CUT
10
0.0000
20
21.9580
30
0.0
11
11.0375
21
21.9623
31
0.0
0
LINE
8
CUT
10
11.0375
20
21.9623
30
0.0
11
22.0749
21
21.9751
31
0.0
0
LINE
8
CUT
10
22.0749
20
21.9751
30
0.0
11
33.1124
21
21.9966
31
0.0
0
LINE
8
CUT
10
33.1124
20
21.9966
30
0.0
11
44.1499
21
22.0266
31
0.0
0
LINE
8
CUT
10
44.1499
20
22.0266
30
0.0
11
55.1873
21
22.0652
31
0.0
0
LINE
8
CUT
10
55.1873
20
22.0652
30
0.0
11
66.2248
21
22.1124
31
0.0
0
LINE
8
CUT
10
66.2248
20
22.1124
30
0.0
11
77.2622
21
22.1682
31
0.0
0
LINE
8
CUT
10
77.2622
20
22.1682
30
0.0
11
88.2997
21
22.2326
31
0.0
0
LINE
8
CUT
10
88.2997
20
22.2326
30
0.0
11
99.3372
21
22.3055
31
0.0
0
LINE
8
CUT
10
99.3372
20
22.3055
30
0.0
11
110.3746
21
22.3870
31
0.0
0
LINE
8
CUT
10
110.3746
20
22.3870
30
0.0
11
121.4121
21
22.4771
31
0.0
0
LINE
8
CUT
10
121.4121
20
22.4771
30
0.0
11
132.4496
21
22.5758
31
0.0
0
LINE
8
CUT
10
132.4496
20
22.5758
30
0.0
11
143.4870
21
22.6830
31
0.0
0
LINE
8
CUT
10
143.4870
20
22.6830
30
0.0
11
154.5245
21
22.7989
31
0.0
0
LINE
8
CUT
10
154.5245
20
22.7989
30
0.0
11
165.5619
21
22.9233
31
0.0
0
LINE
8
CUT
10
165.5619
20
22.9233
30
0.0
11
176.5994
21
23.0563
31
0.0
0
LINE
8
CUT
10
176.5994
20
23.0563
30
0.0
11
187.6369
21
23.1979
31
0.0
0
LINE
8
CUT
10
187.6369
20
23.1979
30
0.0
11
198.6743
21
23.3480
31
0.0
0
LINE
8
CUT
10
198.6743
20
23.3480
30
0.0
11
209.7118
21
23.5068
31
0.0
0
LINE
8
CUT
10
209.7118
20
23.5068
30
0.0
11
212.2890
21
23.7703
31
0.0
0
LINE
8
CUT
10
212.2890
20
23.7703
30
0.0
11
214.8066
21
24.2020
31
0.0
0
LINE
8
CUT
10
214.8066
20
24.2020
30
0.0
11
217.2539
21
24.7888
31
0.0
0
LINE
8
CUT
10
217.2539
20
24.7888
30
0.0
11
219.6205
21
25.5177
31
0.0
0
LINE
8
CUT
10
219.6205
20
25.5177
30
0.0
11
221.8955
21
26.3756
31
0.0
0
LINE
8
CUT
10
221.8955
20
26.3756
30
0.0
11
224.0684
21
27.3494
31
0.0
0
LINE
8
CUT
10
224.0684
20
27.3494
30
0.0
11
226.1285
21
28.4260
31
0.0
0
LINE
8
CUT
10
226.1285
20
28.4260
30
0.0
11
228.0653
21
29.5925
31
0.0
0
LINE
8
CUT
10
228.0653
20
29.5925
30
0.0
11
229.8681
21
30.8357
31
0.0
0
LINE
8
CUT
10
229.8681
20
30.8357
30
0.0
11
231.5262
21
32.1426
31
0.0
0
LINE
8
CUT
10
231.5262
20
32.1426
30
0.0
11
233.0291
21
33.5001
31
0.0
0
LINE
8
CUT
10
233.0291
20
33.5001
30
0.0
11
234.3661
21
34.8951
31
0.0
0
LINE
8
CUT
10
234.3661
20
34.8951
30
0.0
11
235.5265
21
36.3145
31
0.0
0
LINE
8
CUT
10
235.5265
20
36.3145
30
0.0
11
236.4998
21
37.7454
31
0.0
0
LINE
8
CUT
10
236.4998
20
37.7454
30
0.0
11
237.2753
21
39.1746
31
0.0
0
LINE
8
CUT
10
237.2753
20
39.1746
30
0.0
11
237.8424
21
40.5890
31
0.0
0
LINE
8
CUT
10
237.8424
20
40.5890
30
0.0
11
238.1905
21
41.9757
31
0.0
0
LINE
8
CUT
10
238.1905
20
41.9757
30
0.0
11
238.3089
21
43.3214
31
0.0
0
LINE
8
CUT
10
238.3089
20
43.3214
30
0.0
11
238.1542
21
49.2972
31
0.0
0
LINE
8
CUT
10
238.1542
20
49.2972
30
0.0
11
237.6968
21
55.4239
31
0.0
0
LINE
8
CUT
10
237.6968
20
55.4239
30
0.0
11
236.9470
21
61.6654
31
0.0
0
LINE
8
CUT
10
236.9470
20
61.6654
30
0.0
11
235.9147
21
67.9858
31
0.0
0
LINE
8
CUT
10
235.9147
20
67.9858
30
0.0
11
234.6103
21
74.3491
31
0.0
0
LINE
8
CUT
10
234.6103
20
74.3491
30
0.0
11
233.0437
21
80.7192
31
0.0
0
LINE
8
CUT
10
233.0437
20
80.7192
30
0.0
11
231.2252
21
87.0600
31
0.0
0
LINE
8
CUT
10
231.2252
20
87.0600
30
0.0
11
229.1649
21
93.3357
31
0.0
0
LINE
8
CUT
10
229.1649
20
93.3357
30
0.0
11
226.8728
21
99.5100
31
0.0
0
LINE
8
CUT
10
226.8728
20
99.5100
30
0.0
11
224.3592
21
105.5471
31
0.0
0
LINE
8
CUT
10
224.3592
20
105.5471
30
0.0
11
221.6342
21
111.4109
31
0.0
0
LINE
8
CUT
10
221.6342
20
111.4109
30
0.0
11
218.7080
21
117.0654
31
0.0
0
LINE
8
CUT
10
218.7080
20
117.0654
30
0.0
11
215.5905
21
122.4745
31
0.0
0
LINE
8
CUT
10
215.5905
20
122.4745
30
0.0
11
212.2921
21
127.6023
31
0.0
0
LINE
8
CUT
10
212.2921
20
127.6023
30
0.0
11
208.8228
21
132.4127
31
0.0
0
LINE
8
CUT
10
208.8228
20
132.4127
30
0.0
11
205.1928
21
136.8696
31
0.0
0
LINE
8
CUT
10
205.1928
20
136.8696
30
0.0
11
201.4121
21
140.9371
31
0.0
0
LINE
8
CUT
10
201.4121
20
140.9371
30
0.0
11
197.4910
21
144.5792
31
0.0
0
LINE
8
CUT
10
197.4910
20
144.5792
30
0.0
11
193.4396
21
147.7598
31
0.0
0
LINE
8
CUT
10
193.4396
20
147.7598
30
0.0
11
189.2680
21
150.4428
31
0.0
0
LINE
8
CUT
10
189.2680
20
150.4428
30
0.0
11
184.9863
21
152.5924
31
0.0
0
LINE
8
CUT
10
184.9863
20
152.5924
30
0.0
11
180.6047
21
154.1724
31
0.0
0
LINE
8
CUT
10
180.6047
20
154.1724
30
0.0
11
176.1334
21
155.1468
31
0.0
0
LINE
8
CUT
10
176.1334
20
155.1468
30
0.0
11
171.5824
21
155.4796
31
0.0
0
LINE
8
CUT
10
171.5824
20
155.4796
30
0.0
11
163.0033
21
155.4796
31
0.0
0
LINE
8
CUT
10
163.0033
20
155.4796
30
0.0
11
154.4241
21
155.4796
31
0.0
0
LINE
8
CUT
10
154.4241
20
155.4796
30
0.0
11
145.8450
21
155.4796
31
0.0
0
LINE
8
CUT
10
145.8450
20
155.4796
30
0.0
11
137.2659
21
155.4796
31
0.0
0
LINE
8
CUT
10
137.2659
20
155.4796
30
0.0
11
128.6868
21
155.4796
31
0.0
0
LINE
8
CUT
10
128.6868
20
155.4796
30
0.0
11
120.1077
21
155.4796
31
0.0
0
LINE
8
CUT
10
120.1077
20
155.4796
30
0.0
11
111.5285
21
155.4796
31
0.0
0
LINE
8
CUT
10
111.5285
20
155.4796
30
0.0
11
102.9494
21
155.4796
31
0.0
0
LINE
8
CUT
10
102.9494
20
155.4796
30
0.0
11
94.3703
21
155.4796
31
0.0
0
LINE
8
CUT
10
94.3703
20
155.4796
30
0.0
11
85.7912
21
155.4796
31
0.0
0
LINE
8
CUT
10
85.7912
20
155.4796
30
0.0
11
77.2121
21
155.4796
31
0.0
0
LINE
8
CUT
10
77.2121
20
155.4796
30
0.0
11
68.6330
21
155.4796
31
0.0
0
LINE
8
CUT
10
68.6330
20
155.4796
30
0.0
11
60.0538
21
155.4796
31
0.0
0
LINE
8
CUT
10
60.0538
20
155.4796
30
0.0
11
51.4747
21
155.4796
31
0.0
0
LINE
8
CUT
10
51.4747
20
155.4796
30
0.0
11
42.8956
21
155.4796
31
0.0
0
LINE
8
CUT
10
42.8956
20
155.4796
30
0.0
11
34.3165
21
155.4796
31
0.0
0
LINE
8
CUT
10
34.3165
20
155.4796
30
0.0
11
25.7374
21
155.4796
31
0.0
0
LINE
8
CUT
10
25.7374
20
155.4796
30
0.0
11
17.1582
21
155.4796
31
0.0
0
LINE
8
CUT
10
17.1582
20
155.4796
30
0.0
11
8.5791
21
155.4796
31
0.0
0
LINE
8
CUT
10
8.5791
20
155.4796
30
0.0
11
0.0000
21
155.4796
31
0.0
0
LINE
8
CUT
10
0.0000
20
155.4796
30
0.0
11
-0.0000
21
155.4796
31
0.0
0
LINE
8
CUT
10
-0.0000
20
155.4796
30
0.0
11
-8.5791
21
155.4796
31
0.0
0
LINE
8
CUT
10
-8.5791
20
155.4796
30
0.0
11
-17.1582
21
155.4796
31
0.0
0
LINE
8
CUT
10
-17.1582
20
155.4796
30
0.0
11
-25.7374
21
155.4796
31
0.0
0
LINE
8
CUT
10
-25.7374
20
155.4796
30
0.0
11
-34.3165
21
155.4796
31
0.0
0
LINE
8
CUT
10
-34.3165
20
155.4796
30
0.0
11
-42.8956
21
155.4796
31
0.0
0
LINE
8
CUT
10
-42.8956
20
155.4796
30
0.0
11
-51.4747
21
155.4796
31
0.0
0
LINE
8
CUT
10
-51.4747
20
155.4796
30
0.0
11
-60.0538
21
155.4796
31
0.0
0
LINE
8
CUT
10
-60.0538
20
155.4796
30
0.0
11
-68.6330
21
155.4796
31
0.0
0
LINE
8
CUT
10
-68.6330
20
155.4796
30
0.0
11
-77.2121
21
155.4796
31
0.0
0
LINE
8
CUT
10
-77.2121
20
155.4796
30
0.0
11
-85.7912
21
155.4796
31
0.0
0
LINE
8
CUT
10
-85.7912
20
155.4796
30
0.0
11
-94.3703
21
155.4796
31
0.0
0
LINE
8
CUT
10
-94.3703
20
155.4796
30
0.0
11
-102.9494
21
155.4796
31
0.0
0
LINE
8
CUT
10
-102.9494
20
155.4796
30
0.0
11
-111.5285
21
155.4796
31
0.0
0
LINE
8
CUT
10
-111.5285
20
155.4796
30
0.0
11
-120.1077
21
155.4796
31
0.0
0
LINE
8
CUT
10
-120.1077
20
155.4796
30
0.0
11
-128.6868
21
155.4796
31
0.0
0
LINE
8
CUT
10
-128.6868
20
155.4796
30
0.0
11
-137.2659
21
155.4796
31
0.0
0
LINE
8
CUT
10
-137.2659
20
155.4796
30
0.0
11
-145.8450
21
155.4796
31
0.0
0
LINE
8
CUT
10
-145.8450
20
155.4796
30
0.0
11
-154.4241
21
155.4796
31
0.0
0
LINE
8
CUT
10
-154.4241
20
155.4796
30
0.0
11
-163.0033
21
155.4796
31
0.0
0
LINE
8
CUT
10
-163.0033
20
155.4796
30
0.0
11
-171.5824
21
155.4796
31
0.0
0
LINE
8
CUT
10
-171.5824
20
155.4796
30
0.0
11
-176.1334
21
155.1468
31
0.0
0
LINE
8
CUT
10
-176.1334
20
155.1468
30
0.0
11
-180.6047
21
154.1724
31
0.0
0
LINE
8
CUT
10
-180.6047
20
154.1724
30
0.0
11
-184.9863
21
152.5924
31
0.0
0
LINE
8
CUT
10
-184.9863
20
152.5924
30
0.0
11
-189.2680
21
150.4428
31
0.0
0
LINE
8
CUT
10
-189.2680
20
150.4428
30
0.0
11
-193.4396
21
147.7598
31
0.0
0
LINE
8
CUT
10
-193.4396
20
147.7598
30
0.0
11
-197.4910
21
144.5792
31
0.0
0
LINE
8
CUT
10
-197.4910
20
144.5792
30
0.0
11
-201.4121
21
140.9371
31
0.0
0
LINE
8
CUT
10
-201.4121
20
140.9371
30
0.0
11
-205.1928
21
136.8696
31
0.0
0
LINE
8
CUT
10
-205.1928
20
136.8696
30
0.0
11
-208.8228
21
132.4127
31
0.0
0
LINE
8
CUT
10
-208.8228
20
132.4127
30
0.0
11
-212.2921
21
127.6023
31
0.0
0
LINE
8
CUT
10
-212.2921
20
127.6023
30
0.0
11
-215.5905
21
122.4745
31
0.0
0
LINE
8
CUT
10
-215.5905
20
122.4745
30
0.0
11
-218.7080
21
117.0654
31
0.0
0
LINE
8
CUT
10
-218.7080
20
117.0654
30
0.0
11
-221.6342
21
111.4109
31
0.0
0
LINE
8
CUT
10
-221.6342
20
111.4109
30
0.0
11
-224.3592
21
105.5471
31
0.0
0
LINE
8
CUT
10
-224.3592
20
105.5471
30
0.0
11
-226.8728
21
99.5100
31
0.0
0
LINE
8
CUT
10
-226.8728
20
99.5100
30
0.0
11
-229.1649
21
93.3357
31
0.0
0
LINE
8
CUT
10
-229.1649
20
93.3357
30
0.0
11
-231.2252
21
87.0600
31
0.0
0
LINE
8
CUT
10
-231.2252
20
87.0600
30
0.0
11
-233.0437
21
80.7192
31
0.0
0
LINE
8
CUT
10
-233.0437
20
80.7192
30
0.0
11
-234.6103
21
74.3491
31
0.0
0
LINE
8
CUT
10
-234.6103
20
74.3491
30
0.0
11
-235.9147
21
67.9858
31
0.0
0
LINE
8
CUT
10
-235.9147
20
67.9858
30
0.0
11
-236.9470
21
61.6654
31
0.0
0
LINE
8
CUT
10
-236.9470
20
61.6654
30
0.0
11
-237.6968
21
55.4239
31
0.0
0
LINE
8
CUT
10
-237.6968
20
55.4239
30
0.0
11
-238.1542
21
49.2972
31
0.0
0
LINE
8
CUT
10
-238.1542
20
49.2972
30
0.0
11
-238.3089
21
43.3214
31
0.0
0
LINE
8
CUT
10
-238.3089
20
43.3214
30
0.0
11
-238.1905
21
41.9757
31
0.0
0
LINE
8
CUT
10
-238.1905
20
41.9757
30
0.0
11
-237.8424
21
40.5890
31
0.0
0
LINE
8
CUT
10
-237.8424
20
40.5890
30
0.0
11
-237.2753
21
39.1746
31
0.0
0
LINE
8
CUT
10
-237.2753
20
39.1746
30
0.0
11
-236.4998
21
37.7454
31
0.0
0
LINE
8
CUT
10
-236.4998
20
37.7454
30
0.0
11
-235.5265
21
36.3145
31
0.0
0
LINE
8
CUT
10
-235.5265
20
36.3145
30
0.0
11
-234.3661
21
34.8951
31
0.0
0
LINE
8
CUT
10
-234.3661
20
34.8951
30
0.0
11
-233.0291
21
33.5001
31
0.0
0
LINE
8
CUT
10
-233.0291
20
33.5001
30
0.0
11
-231.5262
21
32.1426
31
0.0
0
LINE
8
CUT
10
-231.5262
20
32.1426
30
0.0
11
-229.8681
21
30.8357
31
0.0
0
LINE
8
CUT
10
-229.8681
20
30.8357
30
0.0
11
-228.0653
21
29.5925
31
0.0
0
LINE
8
CUT
10
-228.0653
20
29.5925
30
0.0
11
-226.1285
21
28.4260
31
0.0
0
LINE
8
CUT
10
-226.1285
20
28.4260
30
0.0
11
-224.0684
21
27.3494
31
0.0
0
LINE
8
CUT
10
-224.0684
20
27.3494
30
0.0
11
-221.8955
21
26.3756
31
0.0
0
LINE
8
CUT
10
-221.8955
20
26.3756
30
0.0
11
-219.6205
21
25.5177
31
0.0
0
LINE
8
CUT
10
-219.6205
20
25.5177
30
0.0
11
-217.2539
21
24.7888
31
0.0
0
LINE
8
CUT
10
-217.2539
20
24.7888
30
0.0
11
-214.8066
21
24.2020
31
0.0
0
LINE
8
CUT
10
-214.8066
20
24.2020
30
0.0
11
-212.2890
21
23.7703
31
0.0
0
LINE
8
CUT
10
-212.2890
20
23.7703
30
0.0
11
-209.7118
21
23.5068
31
0.0
0
LINE
8
CUT
10
-209.7118
20
23.5068
30
0.0
11
-198.6743
21
23.3480
31
0.0
0
LINE
8
CUT
10
-198.6743
20
23.3480
30
0.0
11
-187.6369
21
23.1979
31
0.0
0
LINE
8
CUT
10
-187.6369
20
23.1979
30
0.0
11
-176.5994
21
23.0563
31
0.0
0
LINE
8
CUT
10
-176.5994
20
23.0563
30
0.0
11
-165.5619
21
22.9233
31
0.0
0
LINE
8
CUT
10
-165.5619
20
22.9233
30
0.0
11
-154.5245
21
22.7989
31
0.0
0
LINE
8
CUT
10
-154.5245
20
22.7989
30
0.0
11
-143.4870
21
22.6830
31
0.0
0
LINE
8
CUT
10
-143.4870
20
22.6830
30
0.0
11
-132.4496
21
22.5758
31
0.0
0
LINE
8
CUT
10
-132.4496
20
22.5758
30
0.0
11
-121.4121
21
22.4771
31
0.0
0
LINE
8
CUT
10
-121.4121
20
22.4771
30
0.0
11
-110.3746
21
22.3870
31
0.0
0
LINE
8
CUT
10
-110.3746
20
22.3870
30
0.0
11
-99.3372
21
22.3055
31
0.0
0
LINE
8
CUT
10
-99.3372
20
22.3055
30
0.0
11
-88.2997
21
22.2326
31
0.0
0
LINE
8
CUT
10
-88.2997
20
22.2326
30
0.0
11
-77.2622
21
22.1682
31
0.0
0
LINE
8
CUT
10
-77.2622
20
22.1682
30
0.0
11
-66.2248
21
22.1124
31
0.0
0
LINE
8
CUT
10
-66.2248
20
22.1124
30
0.0
11
-55.1873
21
22.0652
31
0.0
0
LINE
8
CUT
10
-55.1873
20
22.0652
30
0.0
11
-44.1499
21
22.0266
31
0.0
0
LINE
8
CUT
10
-44.1499
20
22.0266
30
0.0
11
-33.1124
21
21.9966
31
0.0
0
LINE
8
CUT
10
-33.1124
20
21.9966
30
0.0
11
-22.0749
21
21.9751
31
0.0
0
LINE
8
CUT
10
-22.0749
20
21.9751
30
0.0
11
-11.0375
21
21.9623
31
0.0
0
LINE
8
CUT
10
-11.0375
20
21.9623
30
0.0
11
-0.0000
21
21.9580
31
0.0
0
LINE
8
CUT
10
-0.0000
20
21.9580
30
0.0
11
0.0000
21
21.9580
31
0.0
0
LINE
8
REG
10
0.0000
20
-20.0000
30
0.0
11
0.0000
21
175.4796
31
0.0
0
ENDSEC
0
EOF
