0
SECTION
2
ENTITIES
0
LINE
8
CUT
10
0.0000
20
8.0000
30
0.0
11
7.0000
21
7.6832
31
0.0
0
LINE
8
CUT
10
7.0000
20
7.6832
30
0.0
11
14.0000
21
7.3728
31
0.0
0
LINE
8
CUT
10
14.0000
20
7.3728
30
0.0
11
21.0000
21
7.0688
31
0.0
0
LINE
8
CUT
10
21.0000
20
7.0688
30
0.0
11
28.0000
21
6.7712
31
0.0
0
LINE
8
CUT
10
28.0000
20
6.7712
30
0.0
11
35.0000
21
6.4800
31
0.0
0
LINE
8
CUT
10
35.0000
20
6.4800
30
0.0
11
42.0000
21
6.1952
31
0.0
0
LINE
8
CUT
10
42.0000
20
6.1952
30
0.0
11
49.0000
21
5.9168
31
0.0
0
LINE
8
CUT
10
49.0000
20
5.9168
30
0.0
11
56.0000
21
5.6448
31
0.0
0
LINE
8
CUT
10
56.0000
20
5.6448
30
0.0
11
63.0000
21
5.3792
31
0.0
0
LINE
8
CUT
10
63.0000
20
5.3792
30
0.0
11
70.0000
21
5.1200
31
0.0
0
LINE
8
CUT
10
70.0000
20
5.1200
30
0.0
11
77.0000
21
4.8672
31
0.0
0
LINE
8
CUT
10
77.0000
20
4.8672
30
0.0
11
84.0000
21
4.6208
31
0.0
0
LINE
8
CUT
10
84.0000
20
4.6208
30
0.0
11
91.0000
21
4.3808
31
0.0
0
LINE
8
CUT
10
91.0000
20
4.3808
30
0.0
11
98.0000
21
4.1472
31
0.0
0
LINE
8
CUT
10
98.0000
20
4.1472
30
0.0
11
105.0000
21
3.9200
31
0.0
0
LINE
8
CUT
10
105.0000
20
3.9200
30
0.0
11
112.0000
21
3.6992
31
0.0
0
LINE
8
CUT
10
112.0000
20
3.6992
30
0.0
11
119.0000
21
3.4848
31
0.0
0
LINE
8
CUT
10
119.0000
20
3.4848
30
0.0
11
126.0000
21
3.2768
31
0.0
0
LINE
8
CUT
10
126.0000
20
3.2768
30
0.0
11
133.0000
21
3.0752
31
0.0
0
LINE
8
CUT
10
133.0000
20
3.0752
30
0.0
11
140.0000
21
2.8800
31
0.0
0
LINE
8
CUT
10
140.0000
20
2.8800
30
0.0
11
147.0000
21
2.6912
31
0.0
0
LINE
8
CUT
10
147.0000
20
2.6912
30
0.0
11
154.0000
21
2.5088
31
0.0
0
LINE
8
CUT
10
154.0000
20
2.5088
30
0.0
11
161.0000
21
2.3328
31
0.0
0
LINE
8
CUT
10
161.0000
20
2.3328
30
0.0
11
168.0000
21
2.1632
31
0.0
0
LINE
8
CUT
10
168.0000
20
2.1632
30
0.0
11
175.0000
21
2.0000
31
0.0
0
LINE
8
CUT
10
175.0000
20
2.0000
30
0.0
11
182.0000
21
1.8432
31
0.0
0
LINE
8
CUT
10
182.0000
20
1.8432
30
0.0
11
189.0000
21
1.6928
31
0.0
0
LINE
8
CUT
10
189.0000
20
1.6928
30
0.0
11
196.0000
21
1.5488
31
0.0
0
LINE
8
CUT
10
196.0000
20
1.5488
30
0.0
11
203.0000
21
1.4112
31
0.0
0
LINE
8
CUT
10
203.0000
20
1.4112
30
0.0
11
210.0000
21
1.2800
31
0.0
0
LINE
8
CUT
10
210.0000
20
1.2800
30
0.0
11
217.0000
21
1.1552
31
0.0
0
LINE
8
CUT
10
217.0000
20
1.1552
30
0.0
11
224.0000
21
1.0368
31
0.0
0
LINE
8
CUT
10
224.0000
20
1.0368
30
0.0
11
231.0000
21
0.9248
31
0.0
0
LINE
8
CUT
10
231.0000
20
0.9248
30
0.0
11
238.0000
21
0.8192
31
0.0
0
LINE
8
CUT
10
238.0000
20
0.8192
30
0.0
11
245.0000
21
0.7200
31
0.0
0
LINE
8
CUT
10
245.0000
20
0.7200
30
0.0
11
252.0000
21
0.6272
31
0.0
0
LINE
8
CUT
10
252.0000
20
0.6272
30
0.0
11
259.0000
21
0.5408
31
0.0
0
LINE
8
CUT
10
259.0000
20
0.5408
30
0.0
11
266.0000
21
0.4608
31
0.0
0
LINE
8
CUT
10
266.0000
20
0.4608
30
0.0
11
273.0000
21
0.3872
31
0.0
0
LINE
8
CUT
10
273.0000
20
0.3872
30
0.0
11
280.0000
21
0.3200
31
0.0
0
LINE
8
CUT
10
280.0000
20
0.3200
30
0.0
11
287.0000
21
0.2592
31
0.0
0
LINE
8
CUT
10
287.0000
20
0.2592
30
0.0
11
294.0000
21
0.2048
31
0.0
0
LINE
8
CUT
10
294.0000
20
0.2048
30
0.0
11
301.0000
21
0.1568
31
0.0
0
LINE
8
CUT
10
301.0000
20
0.1568
30
0.0
11
308.0000
21
0.1152
31
0.0
0
LINE
8
CUT
10
308.0000
20
0.1152
30
0.0
11
315.0000
21
0.0800
31
0.0
0
LINE
8
CUT
10
315.0000
20
0.0800
30
0.0
11
322.0000
21
0.0512
31
0.0
0
LINE
8
CUT
10
322.0000
20
0.0512
30
0.0
11
329.0000
21
0.0288
31
0.0
0
LINE
8
CUT
10
329.0000
20
0.0288
30
0.0
11
336.0000
21
0.0128
31
0.0
0
LINE
8
CUT
10
336.0000
20
0.0128
30
0.0
11
343.0000
21
0.0032
31
0.0
0
LINE
8
CUT
10
343.0000
20
0.0032
30
0.0
11
350.0000
21
0.0000
31
0.0
0
LINE
8
CUT
10
350.0000
20
0.0000
30
0.0
11
357.0000
21
0.0000
31
0.0
0
LINE
8
CUT
10
357.0000
20
0.0000
30
0.0
11
364.0000
21
0.0000
31
0.0
0
LINE
8
CUT
10
364.0000
20
0.0000
30
0.0
11
371.0000
21
0.0000
31
0.0
0
LINE
8
CUT
10
371.0000
20
0.0000
30
0.0
11
378.0000
21
0.0000
31
0.0
0
LINE
8
CUT
10
378.0000
20
0.0000
30
0.0
11
385.0000
21
0.0000
31
0.0
0
LINE
8
CUT
10
385.0000
20
0.0000
30
0.0
11
392.0000
21
0.0000
31
0.0
0
LINE
8
CUT
10
392.0000
20
0.0000
30
0.0
11
399.0000
21
0.0000
31
0.0
0
LINE
8
CUT
10
399.0000
20
0.0000
30
0.0
11
406.0000
21
0.0000
31
0.0
0
LINE
8
CUT
10
406.0000
20
0.0000
30
0.0
11
413.0000
21
0.0000
31
0.0
0
LINE
8
CUT
10
413.0000
20
0.0000
30
0.0
11
420.0000
21
0.0000
31
0.0
0
LINE
8
CUT
10
420.0000
20
0.0000
30
0.0
11
427.0000
21
0.0000
31
0.0
0
LINE
8
CUT
10
427.0000
20
0.0000
30
0.0
11
434.0000
21
0.0000
31
0.0
0
LINE
8
CUT
10
434.0000
20
0.0000
30
0.0
11
441.0000
21
0.0000
31
0.0
0
LINE
8
CUT
10
441.0000
20
0.0000
30
0.0
11
448.0000
21
0.0000
31
0.0
0
LINE
8
CUT
10
448.0000
20
0.0000
30
0.0
11
455.0000
21
0.0000
31
0.0
0
LINE
8
CUT
10
455.0000
20
0.0000
30
0.0
11
462.0000
21
0.0000
31
0.0
0
LINE
8
CUT
10
462.0000
20
0.0000
30
0.0
11
469.0000
21
0.0000
31
0.0
0
LINE
8
CUT
10
469.0000
20
0.0000
30
0.0
11
476.0000
21
0.0000
31
0.0
0
LINE
8
CUT
10
476.0000
20
0.0000
30
0.0
11
483.0000
21
0.0000
31
0.0
0
LINE
8
CUT
10
483.0000
20
0.0000
30
0.0
11
490.0000
21
0.0000
31
0.0
0
LINE
8
CUT
10
490.0000
20
0.0000
30
0.0
11
497.0000
21
0.0000
31
0.0
0
LINE
8
CUT
10
497.0000
20
0.0000
30
0.0
11
504.0000
21
0.0000
31
0.0
0
LINE
8
CUT
10
504.0000
20
0.0000
30
0.0
11
511.0000
21
0.0000
31
0.0
0
LINE
8
CUT
10
511.0000
20
0.0000
30
0.0
11
518.0000
21
0.0000
31
0.0
0
LINE
8
CUT
10
518.0000
20
0.0000
30
0.0
11
525.0000
21
0.0000
31
0.0
0
LINE
8
CUT
10
525.0000
20
0.0000
30
0.0
11
532.0000
21
0.0000
31
0.0
0
LINE
8
CUT
10
532.0000
20
0.0000
30
0.0
11
539.0000
21
0.0000
31
0.0
0
LINE
8
CUT
10
539.0000
20
0.0000
30
0.0
11
546.0000
21
0.0000
31
0.0
0
LINE
8
CUT
10
546.0000
20
0.0000
30
0.0
11
553.0000
21
0.0000
31
0.0
0
LINE
8
CUT
10
553.0000
20
0.0000
30
0.0
11
560.0000
21
0.0000
31
0.0
0
LINE
8
CUT
10
560.0000
20
0.0000
30
0.0
11
567.0000
21
0.0000
31
0.0
0
LINE
8
CUT
10
567.0000
20
0.0000
30
0.0
11
574.0000
21
0.0000
31
0.0
0
LINE
8
CUT
10
574.0000
20
0.0000
30
0.0
11
581.0000
21
0.0000
31
0.0
0
LINE
8
CUT
10
581.0000
20
0.0000
30
0.0
11
588.0000
21
0.0000
31
0.0
0
LINE
8
CUT
10
588.0000
20
0.0000
30
0.0
11
595.0000
21
0.0000
31
0.0
0
LINE
8
CUT
10
595.0000
20
0.0000
30
0.0
11
602.0000
21
0.0000
31
0.0
0
LINE
8
CUT
10
602.0000
20
0.0000
30
0.0
11
609.0000
21
0.0000
31
0.0
0
LINE
8
CUT
10
609.0000
20
0.0000
30
0.0
11
616.0000
21
0.0000
31
0.0
0
LINE
8
CUT
10
616.0000
20
0.0000
30
0.0
11
623.0000
21
0.0000
31
0.0
0
LINE
8
CUT
10
623.0000
20
0.0000
30
0.0
11
630.0000
21
0.0000
31
0.0
0
LINE
8
CUT
10
630.0000
20
0.0000
30
0.0
11
637.0000
21
0.0000
31
0.0
0
LINE
8
CUT
10
637.0000
20
0.0000
30
0.0
11
644.0000
21
0.0000
31
0.0
0
LINE
8
CUT
10
644.0000
20
0.0000
30
0.0
11
651.0000
21
0.0000
31
0.0
0
LINE
8
CUT
10
651.0000
20
0.0000
30
0.0
11
658.0000
21
0.0000
31
0.0
0
LINE
8
CUT
10
658.0000
20
0.0000
30
0.0
11
665.0000
21
0.0000
31
0.0
0
LINE
8
CUT
10
665.0000
20
0.0000
30
0.0
11
672.0000
21
0.0000
31
0.0
0
LINE
8
CUT
10
672.0000
20
0.0000
30
0.0
11
679.0000
21
0.0000
31
0.0
0
LINE
8
CUT
10
679.0000
20
0.0000
30
0.0
11
686.0000
21
0.0000
31
0.0
0
LINE
8
CUT
10
686.0000
20
0.0000
30
0.0
11
693.0000
21
0.0000
31
0.0
0
LINE
8
CUT
10
693.0000
20
0.0000
30
0.0
11
700.0000
21
0.0000
31
0.0
0
LINE
8
CUT
10
700.0000
20
0.0000
30
0.0
11
707.0000
21
0.0000
31
0.0
0
LINE
8
CUT
10
707.0000
20
0.0000
30
0.0
11
714.0000
21
0.0000
31
0.0
0
LINE
8
CUT
10
714.0000
20
0.0000
30
0.0
11
721.0000
21
0.0000
31
0.0
0
LINE
8
CUT
10
721.0000
20
0.0000
30
0.0
11
728.0000
21
0.0000
31
0.0
0
LINE
8
CUT
10
728.0000
20
0.0000
30
0.0
11
735.0000
21
0.0000
31
0.0
0
LINE
8
CUT
10
735.0000
20
0.0000
30
0.0
11
742.0000
21
0.0000
31
0.0
0
LINE
8
CUT
10
742.0000
20
0.0000
30
0.0
11
749.0000
21
0.0000
31
0.0
0
LINE
8
CUT
10
749.0000
20
0.0000
30
0.0
11
756.0000
21
0.0000
31
0.0
0
LINE
8
CUT
10
756.0000
20
0.0000
30
0.0
11
763.0000
21
0.0000
31
0.0
0
LINE
8
CUT
10
763.0000
20
0.0000
30
0.0
11
770.0000
21
0.0000
31
0.0
0
LINE
8
CUT
10
770.0000
20
0.0000
30
0.0
11
777.0000
21
0.0352
31
0.0
0
LINE
8
CUT
10
777.0000
20
0.0352
30
0.0
11
784.0000
21
0.1149
31
0.0
0
LINE
8
CUT
10
784.0000
20
0.1149
30
0.0
11
791.0000
21
0.2301
31
0.0
0
LINE
8
CUT
10
791.0000
20
0.2301
30
0.0
11
798.0000
21
0.3768
31
0.0
0
LINE
8
CUT
10
798.0000
20
0.3768
30
0.0
11
805.0000
21
0.5527
31
0.0
0
LINE
8
CUT
10
805.0000
20
0.5527
30
0.0
11
812.0000
21
0.7562
31
0.0
0
LINE
8
CUT
10
812.0000
20
0.7562
30
0.0
11
819.0000
21
0.9860
31
0.0
0
LINE
8
CUT
10
819.0000
20
0.9860
30
0.0
11
826.0000
21
1.2412
31
0.0
0
LINE
8
CUT
10
826.0000
20
1.2412
30
0.0
11
833.0000
21
1.5211
31
0.0
0
LINE
8
CUT
10
833.0000
20
1.5211
30
0.0
11
840.0000
21
1.8250
31
0.0
0
LINE
8
CUT
10
840.0000
20
1.8250
30
0.0
11
847.0000
21
2.1523
31
0.0
0
LINE
8
CUT
10
847.0000
20
2.1523
30
0.0
11
854.0000
21
2.5028
31
0.0
0
LINE
8
CUT
10
854.0000
20
2.5028
30
0.0
11
861.0000
21
2.8759
31
0.0
0
LINE
8
CUT
10
861.0000
20
2.8759
30
0.0
11
868.0000
21
3.2714
31
0.0
0
LINE
8
CUT
10
868.0000
20
3.2714
30
0.0
11
875.0000
21
3.6890
31
0.0
0
LINE
8
CUT
10
875.0000
20
3.6890
30
0.0
11
882.0000
21
4.1285
31
0.0
0
LINE
8
CUT
10
882.0000
20
4.1285
30
0.0
11
889.0000
21
4.5896
31
0.0
0
LINE
8
CUT
10
889.0000
20
4.5896
30
0.0
11
896.0000
21
5.0724
31
0.0
0
LINE
8
CUT
10
896.0000
20
5.0724
30
0.0
11
903.0000
21
5.5765
31
0.0
0
LINE
8
CUT
10
903.0000
20
5.5765
30
0.0
11
910.0000
21
6.1019
31
0.0
0
LINE
8
CUT
10
910.0000
20
6.1019
30
0.0
11
917.0000
21
6.6486
31
0.0
0
LINE
8
CUT
10
917.0000
20
6.6486
30
0.0
11
924.0000
21
7.2164
31
0.0
0
LINE
8
CUT
10
924.0000
20
7.2164
30
0.0
11
931.0000
21
7.8054
31
0.0
0
LINE
8
CUT
10
931.0000
20
7.8054
30
0.0
11
938.0000
21
8.4155
31
0.0
0
LINE
8
CUT
10
938.0000
20
8.4155
30
0.0
11
945.0000
21
9.0466
31
0.0
0
LINE
8
CUT
10
945.0000
20
9.0466
30
0.0
11
952.0000
21
9.6990
31
0.0
0
LINE
8
CUT
10
952.0000
20
9.6990
30
0.0
11
959.0000
21
10.3725
31
0.0
0
LINE
8
CUT
10
959.0000
20
10.3725
30
0.0
11
966.0000
21
11.0672
31
0.0
0
LINE
8
CUT
10
966.0000
20
11.0672
30
0.0
11
973.0000
21
11.7831
31
0.0
0
LINE
8
CUT
10
973.0000
20
11.7831
30
0.0
11
980.0000
21
12.5205
31
0.0
0
LINE
8
CUT
10
980.0000
20
12.5205
30
0.0
11
987.0000
21
13.2793
31
0.0
0
LINE
8
CUT
10
987.0000
20
13.2793
30
0.0
11
994.0000
21
14.0596
31
0.0
0
LINE
8
CUT
10
994.0000
20
14.0596
30
0.0
11
1001.0000
21
14.8617
31
0.0
0
LINE
8
CUT
10
1001.0000
20
14.8617
30
0.0
11
1008.0000
21
15.6856
31
0.0
0
LINE
8
CUT
10
1008.0000
20
15.6856
30
0.0
11
1015.0000
21
16.5315
31
0.0
0
LINE
8
CUT
10
1015.0000
20
16.5315
30
0.0
11
1022.0000
21
17.3995
31
0.0
0
LINE
8
CUT
10
1022.0000
20
17.3995
30
0.0
11
1029.0000
21
18.2900
31
0.0
0
LINE
8
CUT
10
1029.0000
20
18.2900
30
0.0
11
1036.0000
21
19.2030
31
0.0
0
LINE
8
CUT
10
1036.0000
20
19.2030
30
0.0
11
1043.0000
21
20.1388
31
0.0
0
LINE
8
CUT
10
1043.0000
20
20.1388
30
0.0
11
1050.0000
21
21.0977
31
0.0
0
LINE
8
CUT
10
1050.0000
20
21.0977
30
0.0
11
1057.0000
21
22.0799
31
0.0
0
LINE
8
CUT
10
1057.0000
20
22.0799
30
0.0
11
1064.0000
21
23.0856
31
0.0
0
LINE
8
CUT
10
1064.0000
20
23.0856
30
0.0
11
1071.0000
21
24.1153
31
0.0
0
LINE
8
CUT
10
1071.0000
20
24.1153
30
0.0
11
1078.0000
21
25.1693
31
0.0
0
LINE
8
CUT
10
1078.0000
20
25.1693
30
0.0
11
1085.0000
21
26.2478
31
0.0
0
LINE
8
CUT
10
1085.0000
20
26.2478
30
0.0
11
1092.0000
21
27.3512
31
0.0
0
LINE
8
CUT
10
1092.0000
20
27.3512
30
0.0
11
1099.0000
21
28.4801
31
0.0
0
LINE
8
CUT
10
1099.0000
20
28.4801
30
0.0
11
1106.0000
21
29.6347
31
0.0
0
LINE
8
CUT
10
1106.0000
20
29.6347
30
0.0
11
1113.0000
21
30.8156
31
0.0
0
LINE
8
CUT
10
1113.0000
20
30.8156
30
0.0
11
1120.0000
21
32.0233
31
0.0
0
LINE
8
CUT
10
1120.0000
20
32.0233
30
0.0
11
1127.0000
21
33.2582
31
0.0
0
LINE
8
CUT
10
1127.0000
20
33.2582
30
0.0
11
1134.0000
21
34.5210
31
0.0
0
LINE
8
CUT
10
1134.0000
20
34.5210
30
0.0
11
1141.0000
21
35.8123
31
0.0
0
LINE
8
CUT
10
1141.0000
20
35.8123
30
0.0
11
1148.0000
21
37.1326
31
0.0
0
LINE
8
CUT
10
1148.0000
20
37.1326
30
0.0
11
1155.0000
21
38.4828
31
0.0
0
LINE
8
CUT
10
1155.0000
20
38.4828
30
0.0
11
1162.0000
21
39.8636
31
0.0
0
LINE
8
CUT
10
1162.0000
20
39.8636
30
0.0
11
1169.0000
21
41.2757
31
0.0
0
LINE
8
CUT
10
1169.0000
20
41.2757
30
0.0
11
1176.0000
21
42.7200
31
0.0
0
LINE
8
CUT
10
1176.0000
20
42.7200
30
0.0
11
1183.0000
21
44.1976
31
0.0
0
LINE
8
CUT
10
1183.0000
20
44.1976
30
0.0
11
1190.0000
21
45.7093
31
0.0
0
LINE
8
CUT
10
1190.0000
20
45.7093
30
0.0
11
1197.0000
21
47.2564
31
0.0
0
LINE
8
CUT
10
1197.0000
20
47.2564
30
0.0
11
1204.0000
21
48.8400
31
0.0
0
LINE
8
CUT
10
1204.0000
20
48.8400
30
0.0
11
1211.0000
21
50.4614
31
0.0
0
LINE
8
CUT
10
1211.0000
20
50.4614
30
0.0
11
1218.0000
21
52.1220
31
0.0
0
LINE
8
CUT
10
1218.0000
20
52.1220
30
0.0
11
1225.0000
21
53.8235
31
0.0
0
LINE
8
CUT
10
1225.0000
20
53.8235
30
0.0
11
1232.0000
21
55.5675
31
0.0
0
LINE
8
CUT
10
1232.0000
20
55.5675
30
0.0
11
1239.0000
21
57.3559
31
0.0
0
LINE
8
CUT
10
1239.0000
20
57.3559
30
0.0
11
1246.0000
21
59.1908
31
0.0
0
LINE
8
CUT
10
1246.0000
20
59.1908
30
0.0
11
1253.0000
21
61.0746
31
0.0
0
LINE
8
CUT
10
1253.0000
20
61.0746
30
0.0
11
1260.0000
21
63.0099
31
0.0
0
LINE
8
CUT
10
1260.0000
20
63.0099
30
0.0
11
1267.0000
21
64.9994
31
0.0
0
LINE
8
CUT
10
1267.0000
20
64.9994
30
0.0
11
1274.0000
21
67.0467
31
0.0
0
LINE
8
CUT
10
1274.0000
20
67.0467
30
0.0
11
1281.0000
21
69.1553
31
0.0
0
LINE
8
CUT
10
1281.0000
20
69.1553
30
0.0
11
1288.0000
21
71.3295
31
0.0
0
LINE
8
CUT
10
1288.0000
20
71.3295
30
0.0
11
1295.0000
21
73.5743
31
0.0
0
LINE
8
CUT
10
1295.0000
20
73.5743
30
0.0
11
1302.0000
21
75.8954
31
0.0
0
LINE
8
CUT
10
1302.0000
20
75.8954
30
0.0
11
1309.0000
21
78.2994
31
0.0
0
LINE
8
CUT
10
1309.0000
20
78.2994
30
0.0
11
1316.0000
21
80.7943
31
0.0
0
LINE
8
CUT
10
1316.0000
20
80.7943
30
0.0
11
1323.0000
21
83.3897
31
0.0
0
LINE
8
CUT
10
1323.0000
20
83.3897
30
0.0
11
1330.0000
21
86.0973
31
0.0
0
LINE
8
CUT
10
1330.0000
20
86.0973
30
0.0
11
1337.0000
21
88.9317
31
0.0
0
LINE
8
CUT
10
1337.0000
20
88.9317
30
0.0
11
1344.0000
21
91.9114
31
0.0
0
LINE
8
CUT
10
1344.0000
20
91.9114
30
0.0
11
1351.0000
21
95.0607
31
0.0
0
LINE
8
CUT
10
1351.0000
20
95.0607
30
0.0
11
1358.0000
21
98.4125
31
0.0
0
LINE
8
CUT
10
1358.0000
20
98.4125
30
0.0
11
1365.0000
21
102.0135
31
0.0
0
LINE
8
CUT
10
1365.0000
20
102.0135
30
0.0
11
1372.0000
21
105.9341
31
0.0
0
LINE
8
CUT
10
1372.0000
20
105.9341
30
0.0
11
1379.0000
21
110.2903
31
0.0
0
LINE
8
CUT
10
1379.0000
20
110.2903
30
0.0
11
1386.0000
21
115.3024
31
0.0
0
LINE
8
CUT
10
1386.0000
20
115.3024
30
0.0
11
1393.0000
21
121.5169
31
0.0
0
LINE
8
CUT
10
1393.0000
20
121.5169
30
0.0
11
1400.0000
21
133.7110
31
0.0
0
LINE
8
CHANNEL
10
0.0000
20
30.0912
30
0.0
11
7.0000
21
97.4249
31
0.0
0
LINE
8
CHANNEL
10
7.0000
20
97.4249
30
0.0
11
14.0000
21
107.9423
31
0.0
0
LINE
8
CHANNEL
10
14.0000
20
107.9423
30
0.0
11
21.0000
21
114.5609
31
0.0
0
LINE
8
CHANNEL
10
21.0000
20
114.5609
30
0.0
11
28.0000
21
119.3952
31
0.0
0
LINE
8
CHANNEL
10
28.0000
20
119.3952
30
0.0
11
35.0000
21
123.1775
31
0.0
0
LINE
8
CHANNEL
10
35.0000
20
123.1775
30
0.0
11
42.0000
21
126.2564
31
0.0
0
LINE
8
CHANNEL
10
42.0000
20
126.2564
30
0.0
11
49.0000
21
128.8281
31
0.0
0
LINE
8
CHANNEL
10
49.0000
20
128.8281
30
0.0
11
56.0000
21
131.0149
31
0.0
0
LINE
8
CHANNEL
10
56.0000
20
131.0149
30
0.0
11
63.0000
21
132.8986
31
0.0
0
LINE
8
CHANNEL
10
63.0000
20
132.8986
30
0.0
11
70.0000
21
134.5369
31
0.0
0
LINE
8
CHANNEL
10
70.0000
20
134.5369
30
0.0
11
77.0000
21
135.9725
31
0.0
0
LINE
8
CHANNEL
10
77.0000
20
135.9725
30
0.0
11
84.0000
21
137.2376
31
0.0
0
LINE
8
CHANNEL
10
84.0000
20
137.2376
30
0.0
11
91.0000
21
138.3573
31
0.0
0
LINE
8
CHANNEL
10
91.0000
20
138.3573
30
0.0
11
98.0000
21
139.3517
31
0.0
0
LINE
8
CHANNEL
10
98.0000
20
139.3517
30
0.0
11
105.0000
21
140.2371
31
0.0
0
LINE
8
CHANNEL
10
105.0000
20
140.2371
30
0.0
11
112.0000
21
141.0268
31
0.0
0
LINE
8
CHANNEL
10
112.0000
20
141.0268
30
0.0
11
119.0000
21
141.7322
31
0.0
0
LINE
8
CHANNEL
10
119.0000
20
141.7322
30
0.0
11
126.0000
21
142.3627
31
0.0
0
LINE
8
CHANNEL
10
126.0000
20
142.3627
30
0.0
11
133.0000
21
142.9265
31
0.0
0
LINE
8
CHANNEL
10
133.0000
20
142.9265
30
0.0
11
140.0000
21
143.4305
31
0.0
0
LINE
8
CHANNEL
10
140.0000
20
143.4305
30
0.0
11
147.0000
21
143.8809
31
0.0
0
LINE
8
CHANNEL
10
147.0000
20
143.8809
30
0.0
11
154.0000
21
144.2830
31
0.0
0
LINE
8
CHANNEL
10
154.0000
20
144.2830
30
0.0
11
161.0000
21
144.6415
31
0.0
0
LINE
8
CHANNEL
10
161.0000
20
144.6415
30
0.0
11
168.0000
21
144.9608
31
0.0
0
LINE
8
CHANNEL
10
168.0000
20
144.9608
30
0.0
11
175.0000
21
145.2446
31
0.0
0
LINE
8
CHANNEL
10
175.0000
20
145.2446
30
0.0
11
182.0000
21
145.4962
31
0.0
0
LINE
8
CHANNEL
10
182.0000
20
145.4962
30
0.0
11
189.0000
21
145.7188
31
0.0
0
LINE
8
CHANNEL
10
189.0000
20
145.7188
30
0.0
11
196.0000
21
145.9152
31
0.0
0
LINE
8
CHANNEL
10
196.0000
20
145.9152
30
0.0
11
203.0000
21
146.0878
31
0.0
0
LINE
8
CHANNEL
10
203.0000
20
146.0878
30
0.0
11
210.0000
21
146.2390
31
0.0
0
LINE
8
CHANNEL
10
210.0000
20
146.2390
30
0.0
11
217.0000
21
146.3710
31
0.0
0
LINE
8
CHANNEL
10
217.0000
20
146.3710
30
0.0
11
224.0000
21
146.4857
31
0.0
0
LINE
8
CHANNEL
10
224.0000
20
146.4857
30
0.0
11
231.0000
21
146.5850
31
0.0
0
LINE
8
CHANNEL
10
231.0000
20
146.5850
30
0.0
11
238.0000
21
146.6706
31
0.0
0
LINE
8
CHANNEL
10
238.0000
20
146.6706
30
0.0
11
245.0000
21
146.7439
31
0.0
0
LINE
8
CHANNEL
10
245.0000
20
146.7439
30
0.0
11
252.0000
21
146.8065
31
0.0
0
LINE
8
CHANNEL
10
252.0000
20
146.8065
30
0.0
11
259.0000
21
146.8597
31
0.0
0
LINE
8
CHANNEL
10
259.0000
20
146.8597
30
0.0
11
266.0000
21
146.9048
31
0.0
0
LINE
8
CHANNEL
10
266.0000
20
146.9048
30
0.0
11
273.0000
21
146.9429
31
0.0
0
LINE
8
CHANNEL
10
273.0000
20
146.9429
30
0.0
11
280.0000
21
146.9753
31
0.0
0
LINE
8
CHANNEL
10
280.0000
20
146.9753
30
0.0
11
287.0000
21
147.0028
31
0.0
0
LINE
8
CHANNEL
10
287.0000
20
147.0028
30
0.0
11
294.0000
21
147.0265
31
0.0
0
LINE
8
CHANNEL
10
294.0000
20
147.0265
30
0.0
11
301.0000
21
147.0473
31
0.0
0
LINE
8
CHANNEL
10
301.0000
20
147.0473
30
0.0
11
308.0000
21
147.0661
31
0.0
0
LINE
8
CHANNEL
10
308.0000
20
147.0661
30
0.0
11
315.0000
21
147.0835
31
0.0
0
LINE
8
CHANNEL
10
315.0000
20
147.0835
30
0.0
11
322.0000
21
147.1004
31
0.0
0
LINE
8
CHANNEL
10
322.0000
20
147.1004
30
0.0
11
329.0000
21
147.1175
31
0.0
0
LINE
8
CHANNEL
10
329.0000
20
147.1175
30
0.0
11
336.0000
21
147.1353
31
0.0
0
LINE
8
CHANNEL
10
336.0000
20
147.1353
30
0.0
11
343.0000
21
147.1546
31
0.0
0
LINE
8
CHANNEL
10
343.0000
20
147.1546
30
0.0
11
350.0000
21
147.1758
31
0.0
0
LINE
8
CHANNEL
10
350.0000
20
147.1758
30
0.0
11
357.0000
21
147.1962
31
0.0
0
LINE
8
CHANNEL
10
357.0000
20
147.1962
30
0.0
11
364.0000
21
147.2133
31
0.0
0
LINE
8
CHANNEL
10
364.0000
20
147.2133
30
0.0
11
371.0000
21
147.2273
31
0.0
0
LINE
8
CHANNEL
10
371.0000
20
147.2273
30
0.0
11
378.0000
21
147.2387
31
0.0
0
LINE
8
CHANNEL
10
378.0000
20
147.2387
30
0.0
11
385.0000
21
147.2478
31
0.0
0
LINE
8
CHANNEL
10
385.0000
20
147.2478
30
0.0
11
392.0000
21
147.2551
31
0.0
0
LINE
8
CHANNEL
10
392.0000
20
147.2551
30
0.0
11
399.0000
21
147.2607
31
0.0
0
LINE
8
CHANNEL
10
399.0000
20
147.2607
30
0.0
11
406.0000
21
147.2651
31
0.0
0
LINE
8
CHANNEL
10
406.0000
20
147.2651
30
0.0
11
413.0000
21
147.2683
31
0.0
0
LINE
8
CHANNEL
10
413.0000
20
147.2683
30
0.0
11
420.0000
21
147.2706
31
0.0
0
LINE
8
CHANNEL
10
420.0000
20
147.2706
30
0.0
11
427.0000
21
147.2723
31
0.0
0
LINE
8
CHANNEL
10
427.0000
20
147.2723
30
0.0
11
434.0000
21
147.2734
31
0.0
0
LINE
8
CHANNEL
10
434.0000
20
147.2734
30
0.0
11
441.0000
21
147.2741
31
0.0
0
LINE
8
CHANNEL
10
441.0000
20
147.2741
30
0.0
11
448.0000
21
147.2746
31
0.0
0
LINE
8
CHANNEL
10
448.0000
20
147.2746
30
0.0
11
455.0000
21
147.2748
31
0.0
0
LINE
8
CHANNEL
10
455.0000
20
147.2748
30
0.0
11
462.0000
21
147.2749
31
0.0
0
LINE
8
CHANNEL
10
462.0000
20
147.2749
30
0.0
11
469.0000
21
147.2750
31
0.0
0
LINE
8
CHANNEL
10
469.0000
20
147.2750
30
0.0
11
476.0000
21
147.2750
31
0.0
0
LINE
8
CHANNEL
10
476.0000
20
147.2750
30
0.0
11
483.0000
21
147.2750
31
0.0
0
LINE
8
CHANNEL
10
483.0000
20
147.2750
30
0.0
11
490.0000
21
147.2750
31
0.0
0
LINE
8
CHANNEL
10
490.0000
20
147.2750
30
0.0
11
497.0000
21
147.2750
31
0.0
0
LINE
8
CHANNEL
10
497.0000
20
147.2750
30
0.0
11
504.0000
21
147.2750
31
0.0
0
LINE
8
CHANNEL
10
504.0000
20
147.2750
30
0.0
11
511.0000
21
147.2750
31
0.0
0
LINE
8
CHANNEL
10
511.0000
20
147.2750
30
0.0
11
518.0000
21
147.2750
31
0.0
0
LINE
8
CHANNEL
10
518.0000
20
147.2750
30
0.0
11
525.0000
21
147.2750
31
0.0
0
LINE
8
CHANNEL
10
525.0000
20
147.2750
30
0.0
11
532.0000
21
147.2750
31
0.0
0
LINE
8
CHANNEL
10
532.0000
20
147.2750
30
0.0
11
539.0000
21
147.2750
31
0.0
0
LINE
8
CHANNEL
10
539.0000
20
147.2750
30
0.0
11
546.0000
21
147.2750
31
0.0
0
LINE
8
CHANNEL
10
546.0000
20
147.2750
30
0.0
11
553.0000
21
147.2750
31
0.0
0
LINE
8
CHANNEL
10
553.0000
20
147.2750
30
0.0
11
560.0000
21
147.2750
31
0.0
0
LINE
8
CHANNEL
10
560.0000
20
147.2750
30
0.0
11
567.0000
21
147.2750
31
0.0
0
LINE
8
CHANNEL
10
567.0000
20
147.2750
30
0.0
11
574.0000
21
147.2750
31
0.0
0
LINE
8
CHANNEL
10
574.0000
20
147.2750
30
0.0
11
581.0000
21
147.2750
31
0.0
0
LINE
8
CHANNEL
10
581.0000
20
147.2750
30
0.0
11
588.0000
21
147.2750
31
0.0
0
LINE
8
CHANNEL
10
588.0000
20
147.2750
30
0.0
11
595.0000
21
147.2750
31
0.0
0
LINE
8
CHANNEL
10
595.0000
20
147.2750
30
0.0
11
602.0000
21
147.2750
31
0.0
0
LINE
8
CHANNEL
10
602.0000
20
147.2750
30
0.0
11
609.0000
21
147.2750
31
0.0
0
LINE
8
CHANNEL
10
609.0000
20
147.2750
30
0.0
11
616.0000
21
147.2750
31
0.0
0
LINE
8
CHANNEL
10
616.0000
20
147.2750
30
0.0
11
623.0000
21
147.2750
31
0.0
0
LINE
8
CHANNEL
10
623.0000
20
147.2750
30
0.0
11
630.0000
21
147.2750
31
0.0
0
LINE
8
CHANNEL
10
630.0000
20
147.2750
30
0.0
11
637.0000
21
147.2750
31
0.0
0
LINE
8
CHANNEL
10
637.0000
20
147.2750
30
0.0
11
644.0000
21
147.2750
31
0.0
0
LINE
8
CHANNEL
10
644.0000
20
147.2750
30
0.0
11
651.0000
21
147.2750
31
0.0
0
LINE
8
CHANNEL
10
651.0000
20
147.2750
30
0.0
11
658.0000
21
147.2750
31
0.0
0
LINE
8
CHANNEL
10
658.0000
20
147.2750
30
0.0
11
665.0000
21
147.2750
31
0.0
0
LINE
8
CHANNEL
10
665.0000
20
147.2750
30
0.0
11
672.0000
21
147.2750
31
0.0
0
LINE
8
CHANNEL
10
672.0000
20
147.2750
30
0.0
11
679.0000
21
147.2750
31
0.0
0
LINE
8
CHANNEL
10
679.0000
20
147.2750
30
0.0
11
686.0000
21
147.2750
31
0.0
0
LINE
8
CHANNEL
10
686.0000
20
147.2750
30
0.0
11
693.0000
21
147.2750
31
0.0
0
LINE
8
CHANNEL
10
693.0000
20
147.2750
30
0.0
11
700.0000
21
147.2750
31
0.0
0
LINE
8
CHANNEL
10
700.0000
20
147.2750
30
0.0
11
707.0000
21
147.2750
31
0.0
0
LINE
8
CHANNEL
10
707.0000
20
147.2750
30
0.0
11
714.0000
21
147.2750
31
0.0
0
LINE
8
CHANNEL
10
714.0000
20
147.2750
30
0.0
11
721.0000
21
147.2750
31
0.0
0
LINE
8
CHANNEL
10
721.0000
20
147.2750
30
0.0
11
728.0000
21
147.2750
31
0.0
0
LINE
8
CHANNEL
10
728.0000
20
147.2750
30
0.0
11
735.0000
21
147.2750
31
0.0
0
LINE
8
CHANNEL
10
735.0000
20
147.2750
30
0.0
11
742.0000
21
147.2750
31
0.0
0
LINE
8
CHANNEL
10
742.0000
20
147.2750
30
0.0
11
749.0000
21
147.2750
31
0.0
0
LINE
8
CHANNEL
10
749.0000
20
147.2750
30
0.0
11
756.0000
21
147.2750
31
0.0
0
LINE
8
CHANNEL
10
756.0000
20
147.2750
30
0.0
11
763.0000
21
147.2750
31
0.0
0
LINE
8
CHANNEL
10
763.0000
20
147.2750
30
0.0
11
770.0000
21
147.2750
31
0.0
0
LINE
8
CHANNEL
10
770.0000
20
147.2750
30
0.0
11
777.0000
21
147.2755
31
0.0
0
LINE
8
CHANNEL
10
777.0000
20
147.2755
30
0.0
11
784.0000
21
147.2773
31
0.0
0
LINE
8
CHANNEL
10
784.0000
20
147.2773
30
0.0
11
791.0000
21
147.2806
31
0.0
0
LINE
8
CHANNEL
10
791.0000
20
147.2806
30
0.0
11
798.0000
21
147.2856
31
0.0
0
LINE
8
CHANNEL
10
798.0000
20
147.2856
30
0.0
11
805.0000
21
147.2923
31
0.0
0
LINE
8
CHANNEL
10
805.0000
20
147.2923
30
0.0
11
812.0000
21
147.3009
31
0.0
0
LINE
8
CHANNEL
10
812.0000
20
147.3009
30
0.0
11
819.0000
21
147.3113
31
0.0
0
LINE
8
CHANNEL
10
819.0000
20
147.3113
30
0.0
11
826.0000
21
147.3237
31
0.0
0
LINE
8
CHANNEL
10
826.0000
20
147.3237
30
0.0
11
833.0000
21
147.3381
31
0.0
0
LINE
8
CHANNEL
10
833.0000
20
147.3381
30
0.0
11
840.0000
21
147.3546
31
0.0
0
LINE
8
CHANNEL
10
840.0000
20
147.3546
30
0.0
11
847.0000
21
147.3731
31
0.0
0
LINE
8
CHANNEL
10
847.0000
20
147.3731
30
0.0
11
854.0000
21
147.3938
31
0.0
0
LINE
8
CHANNEL
10
854.0000
20
147.3938
30
0.0
11
861.0000
21
147.4167
31
0.0
0
LINE
8
CHANNEL
10
861.0000
20
147.4167
30
0.0
11
868.0000
21
147.4418
31
0.0
0
LINE
8
CHANNEL
10
868.0000
20
147.4418
30
0.0
11
875.0000
21
147.4691
31
0.0
0
LINE
8
CHANNEL
10
875.0000
20
147.4691
30
0.0
11
882.0000
21
147.4987
31
0.0
0
LINE
8
CHANNEL
10
882.0000
20
147.4987
30
0.0
11
889.0000
21
147.5307
31
0.0
0
LINE
8
CHANNEL
10
889.0000
20
147.5307
30
0.0
11
896.0000
21
147.5649
31
0.0
0
LINE
8
CHANNEL
10
896.0000
20
147.5649
30
0.0
11
903.0000
21
147.6015
31
0.0
0
LINE
8
CHANNEL
10
903.0000
20
147.6015
30
0.0
11
910.0000
21
147.6405
31
0.0
0
LINE
8
CHANNEL
10
910.0000
20
147.6405
30
0.0
11
917.0000
21
147.6820
31
0.0
0
LINE
8
CHANNEL
10
917.0000
20
147.6820
30
0.0
11
924.0000
21
147.7258
31
0.0
0
LINE
8
CHANNEL
10
924.0000
20
147.7258
30
0.0
11
931.0000
21
147.7721
31
0.0
0
LINE
8
CHANNEL
10
931.0000
20
147.7721
30
0.0
11
938.0000
21
147.8209
31
0.0
0
LINE
8
CHANNEL
10
938.0000
20
147.8209
30
0.0
11
945.0000
21
147.8722
31
0.0
0
LINE
8
CHANNEL
10
945.0000
20
147.8722
30
0.0
11
952.0000
21
147.9260
31
0.0
0
LINE
8
CHANNEL
10
952.0000
20
147.9260
30
0.0
11
959.0000
21
147.9824
31
0.0
0
LINE
8
CHANNEL
10
959.0000
20
147.9824
30
0.0
11
966.0000
21
148.0413
31
0.0
0
LINE
8
CHANNEL
10
966.0000
20
148.0413
30
0.0
11
973.0000
21
148.1028
31
0.0
0
LINE
8
CHANNEL
10
973.0000
20
148.1028
30
0.0
11
980.0000
21
148.1669
31
0.0
0
LINE
8
CHANNEL
10
980.0000
20
148.1669
30
0.0
11
987.0000
21
148.2337
31
0.0
0
LINE
8
CHANNEL
10
987.0000
20
148.2337
30
0.0
11
994.0000
21
148.3030
31
0.0
0
LINE
8
CHANNEL
10
994.0000
20
148.3030
30
0.0
11
1001.0000
21
148.3750
31
0.0
0
LINE
8
CHANNEL
10
1001.0000
20
148.3750
30
0.0
11
1008.0000
21
148.4497
31
0.0
0
LINE
8
CHANNEL
10
1008.0000
20
148.4497
30
0.0
11
1015.0000
21
148.5270
31
0.0
0
LINE
8
CHANNEL
10
1015.0000
20
148.5270
30
0.0
11
1022.0000
21
148.6071
31
0.0
0
LINE
8
CHANNEL
10
1022.0000
20
148.6071
30
0.0
11
1029.0000
21
148.6898
31
0.0
0
LINE
8
CHANNEL
10
1029.0000
20
148.6898
30
0.0
11
1036.0000
21
148.7753
31
0.0
0
LINE
8
CHANNEL
10
1036.0000
20
148.7753
30
0.0
11
1043.0000
21
148.8636
31
0.0
0
LINE
8
CHANNEL
10
1043.0000
20
148.8636
30
0.0
11
1050.0000
21
148.9546
31
0.0
0
LINE
8
CHANNEL
10
1050.0000
20
148.9546
30
0.0
11
1057.0000
21
149.0483
31
0.0
0
LINE
8
CHANNEL
10
1057.0000
20
149.0483
30
0.0
11
1064.0000
21
149.1449
31
0.0
0
LINE
8
CHANNEL
10
1064.0000
20
149.1449
30
0.0
11
1071.0000
21
149.2442
31
0.0
0
LINE
8
CHANNEL
10
1071.0000
20
149.2442
30
0.0
11
1078.0000
21
149.3464
31
0.0
0
LINE
8
CHANNEL
10
1078.0000
20
149.3464
30
0.0
11
1085.0000
21
149.4514
31
0.0
0
LINE
8
CHANNEL
10
1085.0000
20
149.4514
30
0.0
11
1092.0000
21
149.5592
31
0.0
0
LINE
8
CHANNEL
10
1092.0000
20
149.5592
30
0.0
11
1099.0000
21
149.6699
31
0.0
0
LINE
8
CHANNEL
10
1099.0000
20
149.6699
30
0.0
11
1106.0000
21
149.7834
31
0.0
0
LINE
8
CHANNEL
10
1106.0000
20
149.7834
30
0.0
11
1113.0000
21
149.8998
31
0.0
0
LINE
8
CHANNEL
10
1113.0000
20
149.8998
30
0.0
11
1120.0000
21
150.0191
31
0.0
0
LINE
8
CHANNEL
10
1120.0000
20
150.0191
30
0.0
11
1127.0000
21
150.1413
31
0.0
0
LINE
8
CHANNEL
10
1127.0000
20
150.1413
30
0.0
11
1134.0000
21
150.2664
31
0.0
0
LINE
8
CHANNEL
10
1134.0000
20
150.2664
30
0.0
11
1141.0000
21
150.3944
31
0.0
0
LINE
8
CHANNEL
10
1141.0000
20
150.3944
30
0.0
11
1148.0000
21
150.5254
31
0.0
0
LINE
8
CHANNEL
10
1148.0000
20
150.5254
30
0.0
11
1155.0000
21
150.6593
31
0.0
0
LINE
8
CHANNEL
10
1155.0000
20
150.6593
30
0.0
11
1162.0000
21
150.7961
31
0.0
0
LINE
8
CHANNEL
10
1162.0000
20
150.7961
30
0.0
11
1169.0000
21
150.9359
31
0.0
0
LINE
8
CHANNEL
10
1169.0000
20
150.9359
30
0.0
11
1176.0000
21
151.0787
31
0.0
0
LINE
8
CHANNEL
10
1176.0000
20
151.0787
30
0.0
11
1183.0000
21
151.2245
31
0.0
0
LINE
8
CHANNEL
10
1183.0000
20
151.2245
30
0.0
11
1190.0000
21
151.3733
31
0.0
0
LINE
8
CHANNEL
10
1190.0000
20
151.3733
30
0.0
11
1197.0000
21
151.5250
31
0.0
0
LINE
8
CHANNEL
10
1197.0000
20
151.5250
30
0.0
11
1204.0000
21
151.6798
31
0.0
0
LINE
8
CHANNEL
10
1204.0000
20
151.6798
30
0.0
11
1211.0000
21
151.8376
31
0.0
0
LINE
8
CHANNEL
10
1211.0000
20
151.8376
30
0.0
11
1218.0000
21
151.9985
31
0.0
0
LINE
8
CHANNEL
10
1218.0000
20
151.9985
30
0.0
11
1225.0000
21
152.1624
31
0.0
0
LINE
8
CHANNEL
10
1225.0000
20
152.1624
30
0.0
11
1232.0000
21
152.3293
31
0.0
0
LINE
8
CHANNEL
10
1232.0000
20
152.3293
30
0.0
11
1239.0000
21
152.4993
31
0.0
0
LINE
8
CHANNEL
10
1239.0000
20
152.4993
30
0.0
11
1246.0000
21
152.6724
31
0.0
0
LINE
8
CHANNEL
10
1246.0000
20
152.6724
30
0.0
11
1253.0000
21
152.8486
31
0.0
0
LINE
8
CHANNEL
10
1253.0000
20
152.8486
30
0.0
11
1260.0000
21
153.0278
31
0.0
0
LINE
8
CHANNEL
10
1260.0000
20
153.0278
30
0.0
11
1267.0000
21
153.2102
31
0.0
0
LINE
8
CHANNEL
10
1267.0000
20
153.2102
30
0.0
11
1274.0000
21
153.3957
31
0.0
0
LINE
8
CHANNEL
10
1274.0000
20
153.3957
30
0.0
11
1281.0000
21
153.5842
31
0.0
0
LINE
8
CHANNEL
10
1281.0000
20
153.5842
30
0.0
11
1288.0000
21
153.7759
31
0.0
0
LINE
8
CHANNEL
10
1288.0000
20
153.7759
30
0.0
11
1295.0000
21
153.9708
31
0.0
0
LINE
8
CHANNEL
10
1295.0000
20
153.9708
30
0.0
11
1302.0000
21
154.1688
31
0.0
0
LINE
8
CHANNEL
10
1302.0000
20
154.1688
30
0.0
11
1309.0000
21
154.3699
31
0.0
0
LINE
8
CHANNEL
10
1309.0000
20
154.3699
30
0.0
11
1316.0000
21
154.5742
31
0.0
0
LINE
8
CHANNEL
10
1316.0000
20
154.5742
30
0.0
11
1323.0000
21
154.7816
31
0.0
0
LINE
8
CHANNEL
10
1323.0000
20
154.7816
30
0.0
11
1330.0000
21
154.9923
31
0.0
0
LINE
8
CHANNEL
10
1330.0000
20
154.9923
30
0.0
11
1337.0000
21
155.2061
31
0.0
0
LINE
8
CHANNEL
10
1337.0000
20
155.2061
30
0.0
11
1344.0000
21
155.4231
31
0.0
0
LINE
8
CHANNEL
10
1344.0000
20
155.4231
30
0.0
11
1351.0000
21
155.6433
31
0.0
0
LINE
8
CHANNEL
10
1351.0000
20
155.6433
30
0.0
11
1358.0000
21
155.8667
31
0.0
0
LINE
8
CHANNEL
10
1358.0000
20
155.8667
30
0.0
11
1365.0000
21
156.0934
31
0.0
0
LINE
8
CHANNEL
10
1365.0000
20
156.0934
30
0.0
11
1372.0000
21
156.3232
31
0.0
0
LINE
8
CHANNEL
10
1372.0000
20
156.3232
30
0.0
11
1379.0000
21
156.5563
31
0.0
0
LINE
8
CHANNEL
10
1379.0000
20
156.5563
30
0.0
11
1386.0000
21
156.7926
31
0.0
0
LINE
8
CHANNEL
10
1386.0000
20
156.7926
30
0.0
11
1393.0000
21
157.0322
31
0.0
0
LINE
8
CHANNEL
10
1393.0000
20
157.0322
30
0.0
11
1400.0000
21
157.2750
31
0.0
0
LINE
8
REG
10
0.0000
20
0.0000
30
0.0
11
1400.0000
21
0.0000
31
0.0
0
LINE
8
REG
10
1030.0000
20
0.0000
30
0.0
11
1030.0000
21
0.0000
31
0.0
0
LINE
8
REG
10
340.0000
20
0.0000
30
0.0
11
340.0000
21
0.0000
31
0.0
0
ENDSEC
0
EOF
