0
SECTION
2
ENTITIES
0
LINE
8
CUT
10
0.0000
20
8.0000
30
0.0
11
7.0000
21
7.6832
31
0.0
0
LINE
8
CUT
10
7.0000
20
7.6832
30
0.0
11
14.0000
21
7.3728
31
0.0
0
LINE
8
CUT
10
14.0000
20
7.3728
30
0.0
11
21.0000
21
7.0688
31
0.0
0
LINE
8
CUT
10
21.0000
20
7.0688
30
0.0
11
28.0000
21
6.7712
31
0.0
0
LINE
8
CUT
10
28.0000
20
6.7712
30
0.0
11
35.0000
21
6.4800
31
0.0
0
LINE
8
CUT
10
35.0000
20
6.4800
30
0.0
11
42.0000
21
6.1952
31
0.0
0
LINE
8
CUT
10
42.0000
20
6.1952
30
0.0
11
49.0000
21
5.9168
31
0.0
0
LINE
8
CUT
10
49.0000
20
5.9168
30
0.0
11
56.0000
21
5.6448
31
0.0
0
LINE
8
CUT
10
56.0000
20
5.6448
30
0.0
11
63.0000
21
5.3792
31
0.0
0
LINE
8
CUT
10
63.0000
20
5.3792
30
0.0
11
70.0000
21
5.1200
31
0.0
0
LINE
8
CUT
10
70.0000
20
5.1200
30
0.0
11
77.0000
21
4.8672
31
0.0
0
LINE
8
CUT
10
77.0000
20
4.8672
30
0.0
11
84.0000
21
4.6208
31
0.0
0
LINE
8
CUT
10
84.0000
20
4.6208
30
0.0
11
91.0000
21
4.3808
31
0.0
0
LINE
8
CUT
10
91.0000
20
4.3808
30
0.0
11
98.0000
21
4.1472
31
0.0
0
LINE
8
CUT
10
98.0000
20
4.1472
30
0.0
11
105.0000
21
3.9200
31
0.0
0
LINE
8
CUT
10
105.0000
20
3.9200
30
0.0
11
112.0000
21
3.6992
31
0.0
0
LINE
8
CUT
10
112.0000
20
3.6992
30
0.0
11
119.0000
21
3.4848
31
0.0
0
LINE
8
CUT
10
119.0000
20
3.4848
30
0.0
11
126.0000
21
3.2768
31
0.0
0
LINE
8
CUT
10
126.0000
20
3.2768
30
0.0
11
133.0000
21
3.0752
31
0.0
0
LINE
8
CUT
10
133.0000
20
3.0752
30
0.0
11
140.0000
21
2.8800
31
0.0
0
LINE
8
CUT
10
140.0000
20
2.8800
30
0.0
11
147.0000
21
2.6912
31
0.0
0
LINE
8
CUT
10
147.0000
20
2.6912
30
0.0
11
154.0000
21
2.5088
31
0.0
0
LINE
8
CUT
10
154.0000
20
2.5088
30
0.0
11
161.0000
21
2.3328
31
0.0
0
LINE
8
CUT
10
161.0000
20
2.3328
30
0.0
11
168.0000
21
2.1632
31
0.0
0
LINE
8
CUT
10
168.0000
20
2.1632
30
0.0
11
175.0000
21
2.0000
31
0.0
0
LINE
8
CUT
10
175.0000
20
2.0000
30
0.0
11
182.0000
21
1.8432
31
0.0
0
LINE
8
CUT
10
182.0000
20
1.8432
30
0.0
11
189.0000
21
1.6928
31
0.0
0
LINE
8
CUT
10
189.0000
20
1.6928
30
0.0
11
196.0000
21
1.5488
31
0.0
0
LINE
8
CUT
10
196.0000
20
1.5488
30
0.0
11
203.0000
21
1.4112
31
0.0
0
LINE
8
CUT
10
203.0000
20
1.4112
30
0.0
11
210.0000
21
1.2800
31
0.0
0
LINE
8
CUT
10
210.0000
20
1.2800
30
0.0
11
217.0000
21
1.1552
31
0.0
0
LINE
8
CUT
10
217.0000
20
1.1552
30
0.0
11
224.0000
21
1.0368
31
0.0
0
LINE
8
CUT
10
224.0000
20
1.0368
30
0.0
11
231.0000
21
0.9248
31
0.0
0
LINE
8
CUT
10
231.0000
20
0.9248
30
0.0
11
238.0000
21
0.8192
31
0.0
0
LINE
8
CUT
10
238.0000
20
0.8192
30
0.0
11
245.0000
21
0.7200
31
0.0
0
LINE
8
CUT
10
245.0000
20
0.7200
30
0.0
11
252.0000
21
0.6272
31
0.0
0
LINE
8
CUT
10
252.0000
20
0.6272
30
0.0
11
259.0000
21
0.5408
31
0.0
0
LINE
8
CUT
10
259.0000
20
0.5408
30
0.0
11
266.0000
21
0.4608
31
0.0
0
LINE
8
CUT
10
266.0000
20
0.4608
30
0.0
11
273.0000
21
0.3872
31
0.0
0
LINE
8
CUT
10
273.0000
20
0.3872
30
0.0
11
280.0000
21
0.3200
31
0.0
0
LINE
8
CUT
10
280.0000
20
0.3200
30
0.0
11
287.0000
21
0.2592
31
0.0
0
LINE
8
CUT
10
287.0000
20
0.2592
30
0.0
11
294.0000
21
0.2048
31
0.0
0
LINE
8
CUT
10
294.0000
20
0.2048
30
0.0
11
301.0000
21
0.1568
31
0.0
0
LINE
8
CUT
10
301.0000
20
0.1568
30
0.0
11
308.0000
21
0.1152
31
0.0
0
LINE
8
CUT
10
308.0000
20
0.1152
30
0.0
11
315.0000
21
0.0800
31
0.0
0
LINE
8
CUT
10
315.0000
20
0.0800
30
0.0
11
322.0000
21
0.0512
31
0.0
0
LINE
8
CUT
10
322.0000
20
0.0512
30
0.0
11
329.0000
21
0.0288
31
0.0
0
LINE
8
CUT
10
329.0000
20
0.0288
30
0.0
11
336.0000
21
0.0128
31
0.0
0
LINE
8
CUT
10
336.0000
20
0.0128
30
0.0
11
343.0000
21
0.0032
31
0.0
0
LINE
8
CUT
10
343.0000
20
0.0032
30
0.0
11
350.0000
21
0.0000
31
0.0
0
LINE
8
CUT
10
350.0000
20
0.0000
30
0.0
11
357.0000
21
0.0000
31
0.0
0
LINE
8
CUT
10
357.0000
20
0.0000
30
0.0
11
364.0000
21
0.0000
31
0.0
0
LINE
8
CUT
10
364.0000
20
0.0000
30
0.0
11
371.0000
21
0.0000
31
0.0
0
LINE
8
CUT
10
371.0000
20
0.0000
30
0.0
11
378.0000
21
0.0000
31
0.0
0
LINE
8
CUT
10
378.0000
20
0.0000
30
0.0
11
385.0000
21
0.0000
31
0.0
0
LINE
8
CUT
10
385.0000
20
0.0000
30
0.0
11
392.0000
21
0.0000
31
0.0
0
LINE
8
CUT
10
392.0000
20
0.0000
30
0.0
11
399.0000
21
0.0000
31
0.0
0
LINE
8
CUT
10
399.0000
20
0.0000
30
0.0
11
406.0000
21
0.0000
31
0.0
0
LINE
8
CUT
10
406.0000
20
0.0000
30
0.0
11
413.0000
21
0.0000
31
0.0
0
LINE
8
CUT
10
413.0000
20
0.0000
30
0.0
11
420.0000
21
0.0000
31
0.0
0
LINE
8
CUT
10
420.0000
20
0.0000
30
0.0
11
427.0000
21
0.0000
31
0.0
0
LINE
8
CUT
10
427.0000
20
0.0000
30
0.0
11
434.0000
21
0.0000
31
0.0
0
LINE
8
CUT
10
434.0000
20
0.0000
30
0.0
11
441.0000
21
0.0000
31
0.0
0
LINE
8
CUT
10
441.0000
20
0.0000
30
0.0
11
448.0000
21
0.0000
31
0.0
0
LINE
8
CUT
10
448.0000
20
0.0000
30
0.0
11
455.0000
21
0.0000
31
0.0
0
LINE
8
CUT
10
455.0000
20
0.0000
30
0.0
11
462.0000
21
0.0000
31
0.0
0
LINE
8
CUT
10
462.0000
20
0.0000
30
0.0
11
469.0000
21
0.0000
31
0.0
0
LINE
8
CUT
10
469.0000
20
0.0000
30
0.0
11
476.0000
21
0.0000
31
0.0
0
LINE
8
CUT
10
476.0000
20
0.0000
30
0.0
11
483.0000
21
0.0000
31
0.0
0
LINE
8
CUT
10
483.0000
20
0.0000
30
0.0
11
490.0000
21
0.0000
31
0.0
0
LINE
8
CUT
10
490.0000
20
0.0000
30
0.0
11
497.0000
21
0.0000
31
0.0
0
LINE
8
CUT
10
497.0000
20
0.0000
30
0.0
11
504.0000
21
0.0000
31
0.0
0
LINE
8
CUT
10
504.0000
20
0.0000
30
0.0
11
511.0000
21
0.0000
31
0.0
0
LINE
8
CUT
10
511.0000
20
0.0000
30
0.0
11
518.0000
21
0.0000
31
0.0
0
LINE
8
CUT
10
518.0000
20
0.0000
30
0.0
11
525.0000
21
0.0000
31
0.0
0
LINE
8
CUT
10
525.0000
20
0.0000
30
0.0
11
532.0000
21
0.0000
31
0.0
0
LINE
8
CUT
10
532.0000
20
0.0000
30
0.0
11
539.0000
21
0.0000
31
0.0
0
LINE
8
CUT
10
539.0000
20
0.0000
30
0.0
11
546.0000
21
0.0000
31
0.0
0
LINE
8
CUT
10
546.0000
20
0.0000
30
0.0
11
553.0000
21
0.0000
31
0.0
0
LINE
8
CUT
10
553.0000
20
0.0000
30
0.0
11
560.0000
21
0.0000
31
0.0
0
LINE
8
CUT
10
560.0000
20
0.0000
30
0.0
11
567.0000
21
0.0000
31
0.0
0
LINE
8
CUT
10
567.0000
20
0.0000
30
0.0
11
574.0000
21
0.0000
31
0.0
0
LINE
8
CUT
10
574.0000
20
0.0000
30
0.0
11
581.0000
21
0.0000
31
0.0
0
LINE
8
CUT
10
581.0000
20
0.0000
30
0.0
11
588.0000
21
0.0000
31
0.0
0
LINE
8
CUT
10
588.0000
20
0.0000
30
0.0
11
595.0000
21
0.0000
31
0.0
0
LINE
8
CUT
10
595.0000
20
0.0000
30
0.0
11
602.0000
21
0.0000
31
0.0
0
LINE
8
CUT
10
602.0000
20
0.0000
30
0.0
11
609.0000
21
0.0000
31
0.0
0
LINE
8
CUT
10
609.0000
20
0.0000
30
0.0
11
616.0000
21
0.0000
31
0.0
0
LINE
8
CUT
10
616.0000
20
0.0000
30
0.0
11
623.0000
21
0.0000
31
0.0
0
LINE
8
CUT
10
623.0000
20
0.0000
30
0.0
11
630.0000
21
0.0000
31
0.0
0
LINE
8
CUT
10
630.0000
20
0.0000
30
0.0
11
637.0000
21
0.0000
31
0.0
0
LINE
8
CUT
10
637.0000
20
0.0000
30
0.0
11
644.0000
21
0.0000
31
0.0
0
LINE
8
CUT
10
644.0000
20
0.0000
30
0.0
11
651.0000
21
0.0000
31
0.0
0
LINE
8
CUT
10
651.0000
20
0.0000
30
0.0
11
658.0000
21
0.0000
31
0.0
0
LINE
8
CUT
10
658.0000
20
0.0000
30
0.0
11
665.0000
21
0.0000
31
0.0
0
LINE
8
CUT
10
665.0000
20
0.0000
30
0.0
11
672.0000
21
0.0000
31
0.0
0
LINE
8
CUT
10
672.0000
20
0.0000
30
0.0
11
679.0000
21
0.0000
31
0.0
0
LINE
8
CUT
10
679.0000
20
0.0000
30
0.0
11
686.0000
21
0.0000
31
0.0
0
LINE
8
CUT
10
686.0000
20
0.0000
30
0.0
11
693.0000
21
0.0000
31
0.0
0
LINE
8
CUT
10
693.0000
20
0.0000
30
0.0
11
700.0000
21
0.0000
31
0.0
0
LINE
8
CUT
10
700.0000
20
0.0000
30
0.0
11
707.0000
21
0.0000
31
0.0
0
LINE
8
CUT
10
707.0000
20
0.0000
30
0.0
11
714.0000
21
0.0000
31
0.0
0
LINE
8
CUT
10
714.0000
20
0.0000
30
0.0
11
721.0000
21
0.0000
31
0.0
0
LINE
8
CUT
10
721.0000
20
0.0000
30
0.0
11
728.0000
21
0.0000
31
0.0
0
LINE
8
CUT
10
728.0000
20
0.0000
30
0.0
11
735.0000
21
0.0000
31
0.0
0
LINE
8
CUT
10
735.0000
20
0.0000
30
0.0
11
742.0000
21
0.0000
31
0.0
0
LINE
8
CUT
10
742.0000
20
0.0000
30
0.0
11
749.0000
21
0.0000
31
0.0
0
LINE
8
CUT
10
749.0000
20
0.0000
30
0.0
11
756.0000
21
0.0000
31
0.0
0
LINE
8
CUT
10
756.0000
20
0.0000
30
0.0
11
763.0000
21
0.0000
31
0.0
0
LINE
8
CUT
10
763.0000
20
0.0000
30
0.0
11
770.0000
21
0.0000
31
0.0
0
LINE
8
CUT
10
770.0000
20
0.0000
30
0.0
11
777.0000
21
0.0367
31
0.0
0
LINE
8
CUT
10
777.0000
20
0.0367
30
0.0
11
784.0000
21
0.1199
31
0.0
0
LINE
8
CUT
10
784.0000
20
0.1199
30
0.0
11
791.0000
21
0.2400
31
0.0
0
LINE
8
CUT
10
791.0000
20
0.2400
30
0.0
11
798.0000
21
0.3930
31
0.0
0
LINE
8
CUT
10
798.0000
20
0.3930
30
0.0
11
805.0000
21
0.5764
31
0.0
0
LINE
8
CUT
10
805.0000
20
0.5764
30
0.0
11
812.0000
21
0.7885
31
0.0
0
LINE
8
CUT
10
812.0000
20
0.7885
30
0.0
11
819.0000
21
1.0281
31
0.0
0
LINE
8
CUT
10
819.0000
20
1.0281
30
0.0
11
826.0000
21
1.2941
31
0.0
0
LINE
8
CUT
10
826.0000
20
1.2941
30
0.0
11
833.0000
21
1.5857
31
0.0
0
LINE
8
CUT
10
833.0000
20
1.5857
30
0.0
11
840.0000
21
1.9023
31
0.0
0
LINE
8
CUT
10
840.0000
20
1.9023
30
0.0
11
847.0000
21
2.2434
31
0.0
0
LINE
8
CUT
10
847.0000
20
2.2434
30
0.0
11
854.0000
21
2.6084
31
0.0
0
LINE
8
CUT
10
854.0000
20
2.6084
30
0.0
11
861.0000
21
2.9970
31
0.0
0
LINE
8
CUT
10
861.0000
20
2.9970
30
0.0
11
868.0000
21
3.4089
31
0.0
0
LINE
8
CUT
10
868.0000
20
3.4089
30
0.0
11
875.0000
21
3.8438
31
0.0
0
LINE
8
CUT
10
875.0000
20
3.8438
30
0.0
11
882.0000
21
4.3015
31
0.0
0
LINE
8
CUT
10
882.0000
20
4.3015
30
0.0
11
889.0000
21
4.7817
31
0.0
0
LINE
8
CUT
10
889.0000
20
4.7817
30
0.0
11
896.0000
21
5.2842
31
0.0
0
LINE
8
CUT
10
896.0000
20
5.2842
30
0.0
11
903.0000
21
5.8091
31
0.0
0
LINE
8
CUT
10
903.0000
20
5.8091
30
0.0
11
910.0000
21
6.3561
31
0.0
0
LINE
8
CUT
10
910.0000
20
6.3561
30
0.0
11
917.0000
21
6.9251
31
0.0
0
LINE
8
CUT
10
917.0000
20
6.9251
30
0.0
11
924.0000
21
7.5162
31
0.0
0
LINE
8
CUT
10
924.0000
20
7.5162
30
0.0
11
931.0000
21
8.1292
31
0.0
0
LINE
8
CUT
10
931.0000
20
8.1292
30
0.0
11
938.0000
21
8.7641
31
0.0
0
LINE
8
CUT
10
938.0000
20
8.7641
30
0.0
11
945.0000
21
9.4210
31
0.0
0
LINE
8
CUT
10
945.0000
20
9.4210
30
0.0
11
952.0000
21
10.0998
31
0.0
0
LINE
8
CUT
10
952.0000
20
10.0998
30
0.0
11
959.0000
21
10.8007
31
0.0
0
LINE
8
CUT
10
959.0000
20
10.8007
30
0.0
11
966.0000
21
11.5235
31
0.0
0
LINE
8
CUT
10
966.0000
20
11.5235
30
0.0
11
973.0000
21
12.2685
31
0.0
0
LINE
8
CUT
10
973.0000
20
12.2685
30
0.0
11
980.0000
21
13.0357
31
0.0
0
LINE
8
CUT
10
980.0000
20
13.0357
30
0.0
11
987.0000
21
13.8251
31
0.0
0
LINE
8
CUT
10
987.0000
20
13.8251
30
0.0
11
994.0000
21
14.6370
31
0.0
0
LINE
8
CUT
10
994.0000
20
14.6370
30
0.0
11
1001.0000
21
15.4714
31
0.0
0
LINE
8
CUT
10
1001.0000
20
15.4714
30
0.0
11
1008.0000
21
16.3285
31
0.0
0
LINE
8
CUT
10
1008.0000
20
16.3285
30
0.0
11
1015.0000
21
17.2084
31
0.0
0
LINE
8
CUT
10
1015.0000
20
17.2084
30
0.0
11
1022.0000
21
18.1114
31
0.0
0
LINE
8
CUT
10
1022.0000
20
18.1114
30
0.0
11
1029.0000
21
19.0376
31
0.0
0
LINE
8
CUT
10
1029.0000
20
19.0376
30
0.0
11
1036.0000
21
19.9873
31
0.0
0
LINE
8
CUT
10
1036.0000
20
19.9873
30
0.0
11
1043.0000
21
20.9607
31
0.0
0
LINE
8
CUT
10
1043.0000
20
20.9607
30
0.0
11
1050.0000
21
21.9580
31
0.0
0
LINE
8
CUT
10
1050.0000
20
21.9580
30
0.0
11
1057.0000
21
22.9795
31
0.0
0
LINE
8
CUT
10
1057.0000
20
22.9795
30
0.0
11
1064.0000
21
24.0256
31
0.0
0
LINE
8
CUT
10
1064.0000
20
24.0256
30
0.0
11
1071.0000
21
25.0965
31
0.0
0
LINE
8
CUT
10
1071.0000
20
25.0965
30
0.0
11
1078.0000
21
26.1926
31
0.0
0
LINE
8
CUT
10
1078.0000
20
26.1926
30
0.0
11
1085.0000
21
27.3142
31
0.0
0
LINE
8
CUT
10
1085.0000
20
27.3142
30
0.0
11
1092.0000
21
28.4618
31
0.0
0
LINE
8
CUT
10
1092.0000
20
28.4618
30
0.0
11
1099.0000
21
29.6358
31
0.0
0
LINE
8
CUT
10
1099.0000
20
29.6358
30
0.0
11
1106.0000
21
30.8366
31
0.0
0
LINE
8
CUT
10
1106.0000
20
30.8366
30
0.0
11
1113.0000
21
32.0646
31
0.0
0
LINE
8
CUT
10
1113.0000
20
32.0646
30
0.0
11
1120.0000
21
33.3205
31
0.0
0
LINE
8
CUT
10
1120.0000
20
33.3205
30
0.0
11
1127.0000
21
34.6047
31
0.0
0
LINE
8
CUT
10
1127.0000
20
34.6047
30
0.0
11
1134.0000
21
35.9179
31
0.0
0
LINE
8
CUT
10
1134.0000
20
35.9179
30
0.0
11
1141.0000
21
37.2607
31
0.0
0
LINE
8
CUT
10
1141.0000
20
37.2607
30
0.0
11
1148.0000
21
38.6338
31
0.0
0
LINE
8
CUT
10
1148.0000
20
38.6338
30
0.0
11
1155.0000
21
40.0379
31
0.0
0
LINE
8
CUT
10
1155.0000
20
40.0379
30
0.0
11
1162.0000
21
41.4737
31
0.0
0
LINE
8
CUT
10
1162.0000
20
41.4737
30
0.0
11
1169.0000
21
42.9422
31
0.0
0
LINE
8
CUT
10
1169.0000
20
42.9422
30
0.0
11
1176.0000
21
44.4442
31
0.0
0
LINE
8
CUT
10
1176.0000
20
44.4442
30
0.0
11
1183.0000
21
45.9808
31
0.0
0
LINE
8
CUT
10
1183.0000
20
45.9808
30
0.0
11
1190.0000
21
47.5529
31
0.0
0
LINE
8
CUT
10
1190.0000
20
47.5529
30
0.0
11
1197.0000
21
49.1618
31
0.0
0
LINE
8
CUT
10
1197.0000
20
49.1618
30
0.0
11
1204.0000
21
50.8087
31
0.0
0
LINE
8
CUT
10
1204.0000
20
50.8087
30
0.0
11
1211.0000
21
52.4949
31
0.0
0
LINE
8
CUT
10
1211.0000
20
52.4949
30
0.0
11
1218.0000
21
54.2220
31
0.0
0
LINE
8
CUT
10
1218.0000
20
54.2220
30
0.0
11
1225.0000
21
55.9916
31
0.0
0
LINE
8
CUT
10
1225.0000
20
55.9916
30
0.0
11
1232.0000
21
57.8055
31
0.0
0
LINE
8
CUT
10
1232.0000
20
57.8055
30
0.0
11
1239.0000
21
59.6656
31
0.0
0
LINE
8
CUT
10
1239.0000
20
59.6656
30
0.0
11
1246.0000
21
61.5742
31
0.0
0
LINE
8
CUT
10
1246.0000
20
61.5742
30
0.0
11
1253.0000
21
63.5336
31
0.0
0
LINE
8
CUT
10
1253.0000
20
63.5336
30
0.0
11
1260.0000
21
65.5466
31
0.0
0
LINE
8
CUT
10
1260.0000
20
65.5466
30
0.0
11
1267.0000
21
67.6163
31
0.0
0
LINE
8
CUT
10
1267.0000
20
67.6163
30
0.0
11
1274.0000
21
69.7460
31
0.0
0
LINE
8
CUT
10
1274.0000
20
69.7460
30
0.0
11
1281.0000
21
71.9397
31
0.0
0
LINE
8
CUT
10
1281.0000
20
71.9397
30
0.0
11
1288.0000
21
74.2017
31
0.0
0
LINE
8
CUT
10
1288.0000
20
74.2017
30
0.0
11
1295.0000
21
76.5374
31
0.0
0
LINE
8
CUT
10
1295.0000
20
76.5374
30
0.0
11
1302.0000
21
78.9525
31
0.0
0
LINE
8
CUT
10
1302.0000
20
78.9525
30
0.0
11
1309.0000
21
81.4541
31
0.0
0
LINE
8
CUT
10
1309.0000
20
81.4541
30
0.0
11
1316.0000
21
84.0505
31
0.0
0
LINE
8
CUT
10
1316.0000
20
84.0505
30
0.0
11
1323.0000
21
86.7517
31
0.0
0
LINE
8
CUT
10
1323.0000
20
86.7517
30
0.0
11
1330.0000
21
89.5699
31
0.0
0
LINE
8
CUT
10
1330.0000
20
89.5699
30
0.0
11
1337.0000
21
92.5204
31
0.0
0
LINE
8
CUT
10
1337.0000
20
92.5204
30
0.0
11
1344.0000
21
95.6225
31
0.0
0
LINE
8
CUT
10
1344.0000
20
95.6225
30
0.0
11
1351.0000
21
98.9016
31
0.0
0
LINE
8
CUT
10
1351.0000
20
98.9016
30
0.0
11
1358.0000
21
102.3920
31
0.0
0
LINE
8
CUT
10
1358.0000
20
102.3920
30
0.0
11
1365.0000
21
106.1425
31
0.0
0
LINE
8
CUT
10
1365.0000
20
106.1425
30
0.0
11
1372.0000
21
110.2266
31
0.0
0
LINE
8
CUT
10
1372.0000
20
110.2266
30
0.0
11
1379.0000
21
114.7655
31
0.0
0
LINE
8
CUT
10
1379.0000
20
114.7655
30
0.0
11
1386.0000
21
119.9892
31
0.0
0
LINE
8
CUT
10
1386.0000
20
119.9892
30
0.0
11
1393.0000
21
126.4684
31
0.0
0
LINE
8
CUT
10
1393.0000
20
126.4684
30
0.0
11
1400.0000
21
139.1920
31
0.0
0
LINE
8
CHANNEL
10
0.0000
20
31.0700
30
0.0
11
7.0000
21
101.4008
31
0.0
0
LINE
8
CHANNEL
10
7.0000
20
101.4008
30
0.0
11
14.0000
21
112.3980
31
0.0
0
LINE
8
CHANNEL
10
14.0000
20
112.3980
30
0.0
11
21.0000
21
119.3233
31
0.0
0
LINE
8
CHANNEL
10
21.0000
20
119.3233
30
0.0
11
28.0000
21
124.3850
31
0.0
0
LINE
8
CHANNEL
10
28.0000
20
124.3850
30
0.0
11
35.0000
21
128.3477
31
0.0
0
LINE
8
CHANNEL
10
35.0000
20
128.3477
30
0.0
11
42.0000
21
131.5757
31
0.0
0
LINE
8
CHANNEL
10
42.0000
20
131.5757
30
0.0
11
49.0000
21
134.2737
31
0.0
0
LINE
8
CHANNEL
10
49.0000
20
134.2737
30
0.0
11
56.0000
21
136.5694
31
0.0
0
LINE
8
CHANNEL
10
56.0000
20
136.5694
30
0.0
11
63.0000
21
138.5483
31
0.0
0
LINE
8
CHANNEL
10
63.0000
20
138.5483
30
0.0
11
70.0000
21
140.2707
31
0.0
0
LINE
8
CHANNEL
10
70.0000
20
140.2707
30
0.0
11
77.0000
21
141.7811
31
0.0
0
LINE
8
CHANNEL
10
77.0000
20
141.7811
30
0.0
11
84.0000
21
143.1131
31
0.0
0
LINE
8
CHANNEL
10
84.0000
20
143.1131
30
0.0
11
91.0000
21
144.2931
31
0.0
0
LINE
8
CHANNEL
10
91.0000
20
144.2931
30
0.0
11
98.0000
21
145.3419
31
0.0
0
LINE
8
CHANNEL
10
98.0000
20
145.3419
30
0.0
11
105.0000
21
146.2766
31
0.0
0
LINE
8
CHANNEL
10
105.0000
20
146.2766
30
0.0
11
112.0000
21
147.1111
31
0.0
0
LINE
8
CHANNEL
10
112.0000
20
147.1111
30
0.0
11
119.0000
21
147.8573
31
0.0
0
LINE
8
CHANNEL
10
119.0000
20
147.8573
30
0.0
11
126.0000
21
148.5249
31
0.0
0
LINE
8
CHANNEL
10
126.0000
20
148.5249
30
0.0
11
133.0000
21
149.1226
31
0.0
0
LINE
8
CHANNEL
10
133.0000
20
149.1226
30
0.0
11
140.0000
21
149.6576
31
0.0
0
LINE
8
CHANNEL
10
140.0000
20
149.6576
30
0.0
11
147.0000
21
150.1362
31
0.0
0
LINE
8
CHANNEL
10
147.0000
20
150.1362
30
0.0
11
154.0000
21
150.5642
31
0.0
0
LINE
8
CHANNEL
10
154.0000
20
150.5642
30
0.0
11
161.0000
21
150.9465
31
0.0
0
LINE
8
CHANNEL
10
161.0000
20
150.9465
30
0.0
11
168.0000
21
151.2875
31
0.0
0
LINE
8
CHANNEL
10
168.0000
20
151.2875
30
0.0
11
175.0000
21
151.5910
31
0.0
0
LINE
8
CHANNEL
10
175.0000
20
151.5910
30
0.0
11
182.0000
21
151.8608
31
0.0
0
LINE
8
CHANNEL
10
182.0000
20
151.8608
30
0.0
11
189.0000
21
152.0999
31
0.0
0
LINE
8
CHANNEL
10
189.0000
20
152.0999
30
0.0
11
196.0000
21
152.3113
31
0.0
0
LINE
8
CHANNEL
10
196.0000
20
152.3113
30
0.0
11
203.0000
21
152.4977
31
0.0
0
LINE
8
CHANNEL
10
203.0000
20
152.4977
30
0.0
11
210.0000
21
152.6614
31
0.0
0
LINE
8
CHANNEL
10
210.0000
20
152.6614
30
0.0
11
217.0000
21
152.8048
31
0.0
0
LINE
8
CHANNEL
10
217.0000
20
152.8048
30
0.0
11
224.0000
21
152.9298
31
0.0
0
LINE
8
CHANNEL
10
224.0000
20
152.9298
30
0.0
11
231.0000
21
153.0385
31
0.0
0
LINE
8
CHANNEL
10
231.0000
20
153.0385
30
0.0
11
238.0000
21
153.1325
31
0.0
0
LINE
8
CHANNEL
10
238.0000
20
153.1325
30
0.0
11
245.0000
21
153.2134
31
0.0
0
LINE
8
CHANNEL
10
245.0000
20
153.2134
30
0.0
11
252.0000
21
153.2829
31
0.0
0
LINE
8
CHANNEL
10
252.0000
20
153.2829
30
0.0
11
259.0000
21
153.3423
31
0.0
0
LINE
8
CHANNEL
10
259.0000
20
153.3423
30
0.0
11
266.0000
21
153.3930
31
0.0
0
LINE
8
CHANNEL
10
266.0000
20
153.3930
30
0.0
11
273.0000
21
153.4361
31
0.0
0
LINE
8
CHANNEL
10
273.0000
20
153.4361
30
0.0
11
280.0000
21
153.4728
31
0.0
0
LINE
8
CHANNEL
10
280.0000
20
153.4728
30
0.0
11
287.0000
21
153.5043
31
0.0
0
LINE
8
CHANNEL
10
287.0000
20
153.5043
30
0.0
11
294.0000
21
153.5314
31
0.0
0
LINE
8
CHANNEL
10
294.0000
20
153.5314
30
0.0
11
301.0000
21
153.5553
31
0.0
0
LINE
8
CHANNEL
10
301.0000
20
153.5553
30
0.0
11
308.0000
21
153.5767
31
0.0
0
LINE
8
CHANNEL
10
308.0000
20
153.5767
30
0.0
11
315.0000
21
153.5965
31
0.0
0
LINE
8
CHANNEL
10
315.0000
20
153.5965
30
0.0
11
322.0000
21
153.6154
31
0.0
0
LINE
8
CHANNEL
10
322.0000
20
153.6154
30
0.0
11
329.0000
21
153.6342
31
0.0
0
LINE
8
CHANNEL
10
329.0000
20
153.6342
30
0.0
11
336.0000
21
153.6536
31
0.0
0
LINE
8
CHANNEL
10
336.0000
20
153.6536
30
0.0
11
343.0000
21
153.6741
31
0.0
0
LINE
8
CHANNEL
10
343.0000
20
153.6741
30
0.0
11
350.0000
21
153.6964
31
0.0
0
LINE
8
CHANNEL
10
350.0000
20
153.6964
30
0.0
11
357.0000
21
153.7178
31
0.0
0
LINE
8
CHANNEL
10
357.0000
20
153.7178
30
0.0
11
364.0000
21
153.7355
31
0.0
0
LINE
8
CHANNEL
10
364.0000
20
153.7355
30
0.0
11
371.0000
21
153.7502
31
0.0
0
LINE
8
CHANNEL
10
371.0000
20
153.7502
30
0.0
11
378.0000
21
153.7621
31
0.0
0
LINE
8
CHANNEL
10
378.0000
20
153.7621
30
0.0
11
385.0000
21
153.7716
31
0.0
0
LINE
8
CHANNEL
10
385.0000
20
153.7716
30
0.0
11
392.0000
21
153.7792
31
0.0
0
LINE
8
CHANNEL
10
392.0000
20
153.7792
30
0.0
11
399.0000
21
153.7851
31
0.0
0
LINE
8
CHANNEL
10
399.0000
20
153.7851
30
0.0
11
406.0000
21
153.7896
31
0.0
0
LINE
8
CHANNEL
10
406.0000
20
153.7896
30
0.0
11
413.0000
21
153.7930
31
0.0
0
LINE
8
CHANNEL
10
413.0000
20
153.7930
30
0.0
11
420.0000
21
153.7954
31
0.0
0
LINE
8
CHANNEL
10
420.0000
20
153.7954
30
0.0
11
427.0000
21
153.7972
31
0.0
0
LINE
8
CHANNEL
10
427.0000
20
153.7972
30
0.0
11
434.0000
21
153.7983
31
0.0
0
LINE
8
CHANNEL
10
434.0000
20
153.7983
30
0.0
11
441.0000
21
153.7991
31
0.0
0
LINE
8
CHANNEL
10
441.0000
20
153.7991
30
0.0
11
448.0000
21
153.7995
31
0.0
0
LINE
8
CHANNEL
10
448.0000
20
153.7995
30
0.0
11
455.0000
21
153.7998
31
0.0
0
LINE
8
CHANNEL
10
455.0000
20
153.7998
30
0.0
11
462.0000
21
153.7999
31
0.0
0
LINE
8
CHANNEL
10
462.0000
20
153.7999
30
0.0
11
469.0000
21
153.8000
31
0.0
0
LINE
8
CHANNEL
10
469.0000
20
153.8000
30
0.0
11
476.0000
21
153.8000
31
0.0
0
LINE
8
CHANNEL
10
476.0000
20
153.8000
30
0.0
11
483.0000
21
153.8000
31
0.0
0
LINE
8
CHANNEL
10
483.0000
20
153.8000
30
0.0
11
490.0000
21
153.8000
31
0.0
0
LINE
8
CHANNEL
10
490.0000
20
153.8000
30
0.0
11
497.0000
21
153.8000
31
0.0
0
LINE
8
CHANNEL
10
497.0000
20
153.8000
30
0.0
11
504.0000
21
153.8000
31
0.0
0
LINE
8
CHANNEL
10
504.0000
20
153.8000
30
0.0
11
511.0000
21
153.8000
31
0.0
0
LINE
8
CHANNEL
10
511.0000
20
153.8000
30
0.0
11
518.0000
21
153.8000
31
0.0
0
LINE
8
CHANNEL
10
518.0000
20
153.8000
30
0.0
11
525.0000
21
153.8000
31
0.0
0
LINE
8
CHANNEL
10
525.0000
20
153.8000
30
0.0
11
532.0000
21
153.8000
31
0.0
0
LINE
8
CHANNEL
10
532.0000
20
153.8000
30
0.0
11
539.0000
21
153.8000
31
0.0
0
LINE
8
CHANNEL
10
539.0000
20
153.8000
30
0.0
11
546.0000
21
153.8000
31
0.0
0
LINE
8
CHANNEL
10
546.0000
20
153.8000
30
0.0
11
553.0000
21
153.8000
31
0.0
0
LINE
8
CHANNEL
10
553.0000
20
153.8000
30
0.0
11
560.0000
21
153.8000
31
0.0
0
LINE
8
CHANNEL
10
560.0000
20
153.8000
30
0.0
11
567.0000
21
153.8000
31
0.0
0
LINE
8
CHANNEL
10
567.0000
20
153.8000
30
0.0
11
574.0000
21
153.8000
31
0.0
0
LINE
8
CHANNEL
10
574.0000
20
153.8000
30
0.0
11
581.0000
21
153.8000
31
0.0
0
LINE
8
CHANNEL
10
581.0000
20
153.8000
30
0.0
11
588.0000
21
153.8000
31
0.0
0
LINE
8
CHANNEL
10
588.0000
20
153.8000
30
0.0
11
595.0000
21
153.8000
31
0.0
0
LINE
8
CHANNEL
10
595.0000
20
153.8000
30
0.0
11
602.0000
21
153.8000
31
0.0
0
LINE
8
CHANNEL
10
602.0000
20
153.8000
30
0.0
11
609.0000
21
153.8000
31
0.0
0
LINE
8
CHANNEL
10
609.0000
20
153.8000
30
0.0
11
616.0000
21
153.8000
31
0.0
0
LINE
8
CHANNEL
10
616.0000
20
153.8000
30
0.0
11
623.0000
21
153.8000
31
0.0
0
LINE
8
CHANNEL
10
623.0000
20
153.8000
30
0.0
11
630.0000
21
153.8000
31
0.0
0
LINE
8
CHANNEL
10
630.0000
20
153.8000
30
0.0
11
637.0000
21
153.8000
31
0.0
0
LINE
8
CHANNEL
10
637.0000
20
153.8000
30
0.0
11
644.0000
21
153.8000
31
0.0
0
LINE
8
CHANNEL
10
644.0000
20
153.8000
30
0.0
11
651.0000
21
153.8000
31
0.0
0
LINE
8
CHANNEL
10
651.0000
20
153.8000
30
0.0
11
658.0000
21
153.8000
31
0.0
0
LINE
8
CHANNEL
10
658.0000
20
153.8000
30
0.0
11
665.0000
21
153.8000
31
0.0
0
LINE
8
CHANNEL
10
665.0000
20
153.8000
30
0.0
11
672.0000
21
153.8000
31
0.0
0
LINE
8
CHANNEL
10
672.0000
20
153.8000
30
0.0
11
679.0000
21
153.8000
31
0.0
0
LINE
8
CHANNEL
10
679.0000
20
153.8000
30
0.0
11
686.0000
21
153.8000
31
0.0
0
LINE
8
CHANNEL
10
686.0000
20
153.8000
30
0.0
11
693.0000
21
153.8000
31
0.0
0
LINE
8
CHANNEL
10
693.0000
20
153.8000
30
0.0
11
700.0000
21
153.8000
31
0.0
0
LINE
8
CHANNEL
10
700.0000
20
153.8000
30
0.0
11
707.0000
21
153.8000
31
0.0
0
LINE
8
CHANNEL
10
707.0000
20
153.8000
30
0.0
11
714.0000
21
153.8000
31
0.0
0
LINE
8
CHANNEL
10
714.0000
20
153.8000
30
0.0
11
721.0000
21
153.8000
31
0.0
0
LINE
8
CHANNEL
10
721.0000
20
153.8000
30
0.0
11
728.0000
21
153.8000
31
0.0
0
LINE
8
CHANNEL
10
728.0000
20
153.8000
30
0.0
11
735.0000
21
153.8000
31
0.0
0
LINE
8
CHANNEL
10
735.0000
20
153.8000
30
0.0
11
742.0000
21
153.8000
31
0.0
0
LINE
8
CHANNEL
10
742.0000
20
153.8000
30
0.0
11
749.0000
21
153.8000
31
0.0
0
LINE
8
CHANNEL
10
749.0000
20
153.8000
30
0.0
11
756.0000
21
153.8000
31
0.0
0
LINE
8
CHANNEL
10
756.0000
20
153.8000
30
0.0
11
763.0000
21
153.8000
31
0.0
0
LINE
8
CHANNEL
10
763.0000
20
153.8000
30
0.0
11
770.0000
21
153.8000
31
0.0
0
LINE
8
CHANNEL
10
770.0000
20
153.8000
30
0.0
11
777.0000
21
153.8005
31
0.0
0
LINE
8
CHANNEL
10
777.0000
20
153.8005
30
0.0
11
784.0000
21
153.8023
31
0.0
0
LINE
8
CHANNEL
10
784.0000
20
153.8023
30
0.0
11
791.0000
21
153.8056
31
0.0
0
LINE
8
CHANNEL
10
791.0000
20
153.8056
30
0.0
11
798.0000
21
153.8106
31
0.0
0
LINE
8
CHANNEL
10
798.0000
20
153.8106
30
0.0
11
805.0000
21
153.8173
31
0.0
0
LINE
8
CHANNEL
10
805.0000
20
153.8173
30
0.0
11
812.0000
21
153.8259
31
0.0
0
LINE
8
CHANNEL
10
812.0000
20
153.8259
30
0.0
11
819.0000
21
153.8363
31
0.0
0
LINE
8
CHANNEL
10
819.0000
20
153.8363
30
0.0
11
826.0000
21
153.8487
31
0.0
0
LINE
8
CHANNEL
10
826.0000
20
153.8487
30
0.0
11
833.0000
21
153.8631
31
0.0
0
LINE
8
CHANNEL
10
833.0000
20
153.8631
30
0.0
11
840.0000
21
153.8796
31
0.0
0
LINE
8
CHANNEL
10
840.0000
20
153.8796
30
0.0
11
847.0000
21
153.8981
31
0.0
0
LINE
8
CHANNEL
10
847.0000
20
153.8981
30
0.0
11
854.0000
21
153.9188
31
0.0
0
LINE
8
CHANNEL
10
854.0000
20
153.9188
30
0.0
11
861.0000
21
153.9417
31
0.0
0
LINE
8
CHANNEL
10
861.0000
20
153.9417
30
0.0
11
868.0000
21
153.9668
31
0.0
0
LINE
8
CHANNEL
10
868.0000
20
153.9668
30
0.0
11
875.0000
21
153.9941
31
0.0
0
LINE
8
CHANNEL
10
875.0000
20
153.9941
30
0.0
11
882.0000
21
154.0237
31
0.0
0
LINE
8
CHANNEL
10
882.0000
20
154.0237
30
0.0
11
889.0000
21
154.0557
31
0.0
0
LINE
8
CHANNEL
10
889.0000
20
154.0557
30
0.0
11
896.0000
21
154.0899
31
0.0
0
LINE
8
CHANNEL
10
896.0000
20
154.0899
30
0.0
11
903.0000
21
154.1265
31
0.0
0
LINE
8
CHANNEL
10
903.0000
20
154.1265
30
0.0
11
910.0000
21
154.1655
31
0.0
0
LINE
8
CHANNEL
10
910.0000
20
154.1655
30
0.0
11
917.0000
21
154.2070
31
0.0
0
LINE
8
CHANNEL
10
917.0000
20
154.2070
30
0.0
11
924.0000
21
154.2508
31
0.0
0
LINE
8
CHANNEL
10
924.0000
20
154.2508
30
0.0
11
931.0000
21
154.2971
31
0.0
0
LINE
8
CHANNEL
10
931.0000
20
154.2971
30
0.0
11
938.0000
21
154.3459
31
0.0
0
LINE
8
CHANNEL
10
938.0000
20
154.3459
30
0.0
11
945.0000
21
154.3972
31
0.0
0
LINE
8
CHANNEL
10
945.0000
20
154.3972
30
0.0
11
952.0000
21
154.4510
31
0.0
0
LINE
8
CHANNEL
10
952.0000
20
154.4510
30
0.0
11
959.0000
21
154.5074
31
0.0
0
LINE
8
CHANNEL
10
959.0000
20
154.5074
30
0.0
11
966.0000
21
154.5663
31
0.0
0
LINE
8
CHANNEL
10
966.0000
20
154.5663
30
0.0
11
973.0000
21
154.6278
31
0.0
0
LINE
8
CHANNEL
10
973.0000
20
154.6278
30
0.0
11
980.0000
21
154.6919
31
0.0
0
LINE
8
CHANNEL
10
980.0000
20
154.6919
30
0.0
11
987.0000
21
154.7587
31
0.0
0
LINE
8
CHANNEL
10
987.0000
20
154.7587
30
0.0
11
994.0000
21
154.8280
31
0.0
0
LINE
8
CHANNEL
10
994.0000
20
154.8280
30
0.0
11
1001.0000
21
154.9000
31
0.0
0
LINE
8
CHANNEL
10
1001.0000
20
154.9000
30
0.0
11
1008.0000
21
154.9747
31
0.0
0
LINE
8
CHANNEL
10
1008.0000
20
154.9747
30
0.0
11
1015.0000
21
155.0520
31
0.0
0
LINE
8
CHANNEL
10
1015.0000
20
155.0520
30
0.0
11
1022.0000
21
155.1321
31
0.0
0
LINE
8
CHANNEL
10
1022.0000
20
155.1321
30
0.0
11
1029.0000
21
155.2148
31
0.0
0
LINE
8
CHANNEL
10
1029.0000
20
155.2148
30
0.0
11
1036.0000
21
155.3003
31
0.0
0
LINE
8
CHANNEL
10
1036.0000
20
155.3003
30
0.0
11
1043.0000
21
155.3886
31
0.0
0
LINE
8
CHANNEL
10
1043.0000
20
155.3886
30
0.0
11
1050.0000
21
155.4796
31
0.0
0
LINE
8
CHANNEL
10
1050.0000
20
155.4796
30
0.0
11
1057.0000
21
155.5733
31
0.0
0
LINE
8
CHANNEL
10
1057.0000
20
155.5733
30
0.0
11
1064.0000
21
155.6699
31
0.0
0
LINE
8
CHANNEL
10
1064.0000
20
155.6699
30
0.0
11
1071.0000
21
155.7692
31
0.0
0
LINE
8
CHANNEL
10
1071.0000
20
155.7692
30
0.0
11
1078.0000
21
155.8714
31
0.0
0
LINE
8
CHANNEL
10
1078.0000
20
155.8714
30
0.0
11
1085.0000
21
155.9764
31
0.0
0
LINE
8
CHANNEL
10
1085.0000
20
155.9764
30
0.0
11
1092.0000
21
156.0842
31
0.0
0
LINE
8
CHANNEL
10
1092.0000
20
156.0842
30
0.0
11
1099.0000
21
156.1949
31
0.0
0
LINE
8
CHANNEL
10
1099.0000
20
156.1949
30
0.0
11
1106.0000
21
156.3084
31
0.0
0
LINE
8
CHANNEL
10
1106.0000
20
156.3084
30
0.0
11
1113.0000
21
156.4248
31
0.0
0
LINE
8
CHANNEL
10
1113.0000
20
156.4248
30
0.0
11
1120.0000
21
156.5441
31
0.0
0
LINE
8
CHANNEL
10
1120.0000
20
156.5441
30
0.0
11
1127.0000
21
156.6663
31
0.0
0
LINE
8
CHANNEL
10
1127.0000
20
156.6663
30
0.0
11
1134.0000
21
156.7914
31
0.0
0
LINE
8
CHANNEL
10
1134.0000
20
156.7914
30
0.0
11
1141.0000
21
156.9194
31
0.0
0
LINE
8
CHANNEL
10
1141.0000
20
156.9194
30
0.0
11
1148.0000
21
157.0504
31
0.0
0
LINE
8
CHANNEL
10
1148.0000
20
157.0504
30
0.0
11
1155.0000
21
157.1843
31
0.0
0
LINE
8
CHANNEL
10
1155.0000
20
157.1843
30
0.0
11
1162.0000
21
157.3211
31
0.0
0
LINE
8
CHANNEL
10
1162.0000
20
157.3211
30
0.0
11
1169.0000
21
157.4609
31
0.0
0
LINE
8
CHANNEL
10
1169.0000
20
157.4609
30
0.0
11
1176.0000
21
157.6037
31
0.0
0
LINE
8
CHANNEL
10
1176.0000
20
157.6037
30
0.0
11
1183.0000
21
157.7495
31
0.0
0
LINE
8
CHANNEL
10
1183.0000
20
157.7495
30
0.0
11
1190.0000
21
157.8983
31
0.0
0
LINE
8
CHANNEL
10
1190.0000
20
157.8983
30
0.0
11
1197.0000
21
158.0500
31
0.0
0
LINE
8
CHANNEL
10
1197.0000
20
158.0500
30
0.0
11
1204.0000
21
158.2048
31
0.0
0
LINE
8
CHANNEL
10
1204.0000
20
158.2048
30
0.0
11
1211.0000
21
158.3626
31
0.0
0
LINE
8
CHANNEL
10
1211.0000
20
158.3626
30
0.0
11
1218.0000
21
158.5235
31
0.0
0
LINE
8
CHANNEL
10
1218.0000
20
158.5235
30
0.0
11
1225.0000
21
158.6874
31
0.0
0
LINE
8
CHANNEL
10
1225.0000
20
158.6874
30
0.0
11
1232.0000
21
158.8543
31
0.0
0
LINE
8
CHANNEL
10
1232.0000
20
158.8543
30
0.0
11
1239.0000
21
159.0243
31
0.0
0
LINE
8
CHANNEL
10
1239.0000
20
159.0243
30
0.0
11
1246.0000
21
159.1974
31
0.0
0
LINE
8
CHANNEL
10
1246.0000
20
159.1974
30
0.0
11
1253.0000
21
159.3736
31
0.0
0
LINE
8
CHANNEL
10
1253.0000
20
159.3736
30
0.0
11
1260.0000
21
159.5528
31
0.0
0
LINE
8
CHANNEL
10
1260.0000
20
159.5528
30
0.0
11
1267.0000
21
159.7352
31
0.0
0
LINE
8
CHANNEL
10
1267.0000
20
159.7352
30
0.0
11
1274.0000
21
159.9207
31
0.0
0
LINE
8
CHANNEL
10
1274.0000
20
159.9207
30
0.0
11
1281.0000
21
160.1092
31
0.0
0
LINE
8
CHANNEL
10
1281.0000
20
160.1092
30
0.0
11
1288.0000
21
160.3009
31
0.0
0
LINE
8
CHANNEL
10
1288.0000
20
160.3009
30
0.0
11
1295.0000
21
160.4958
31
0.0
0
LINE
8
CHANNEL
10
1295.0000
20
160.4958
30
0.0
11
1302.0000
21
160.6938
31
0.0
0
LINE
8
CHANNEL
10
1302.0000
20
160.6938
30
0.0
11
1309.0000
21
160.8949
31
0.0
0
LINE
8
CHANNEL
10
1309.0000
20
160.8949
30
0.0
11
1316.0000
21
161.0992
31
0.0
0
LINE
8
CHANNEL
10
1316.0000
20
161.0992
30
0.0
11
1323.0000
21
161.3066
31
0.0
0
LINE
8
CHANNEL
10
1323.0000
20
161.3066
30
0.0
11
1330.0000
21
161.5173
31
0.0
0
LINE
8
CHANNEL
10
1330.0000
20
161.5173
30
0.0
11
1337.0000
21
161.7311
31
0.0
0
LINE
8
CHANNEL
10
1337.0000
20
161.7311
30
0.0
11
1344.0000
21
161.9481
31
0.0
0
LINE
8
CHANNEL
10
1344.0000
20
161.9481
30
0.0
11
1351.0000
21
162.1683
31
0.0
0
LINE
8
CHANNEL
10
1351.0000
20
162.1683
30
0.0
11
1358.0000
21
162.3917
31
0.0
0
LINE
8
CHANNEL
10
1358.0000
20
162.3917
30
0.0
11
1365.0000
21
162.6184
31
0.0
0
LINE
8
CHANNEL
10
1365.0000
20
162.6184
30
0.0
11
1372.0000
21
162.8482
31
0.0
0
LINE
8
CHANNEL
10
1372.0000
20
162.8482
30
0.0
11
1379.0000
21
163.0813
31
0.0
0
LINE
8
CHANNEL
10
1379.0000
20
163.0813
30
0.0
11
1386.0000
21
163.3176
31
0.0
0
LINE
8
CHANNEL
10
1386.0000
20
163.3176
30
0.0
11
1393.0000
21
163.5572
31
0.0
0
LINE
8
CHANNEL
10
1393.0000
20
163.5572
30
0.0
11
1400.0000
21
163.8000
31
0.0
0
LINE
8
REG
10
0.0000
20
0.0000
30
0.0
11
1400.0000
21
0.0000
31
0.0
0
LINE
8
REG
10
1030.0000
20
0.0000
30
0.0
11
1030.0000
21
0.0000
31
0.0
0
LINE
8
REG
10
340.0000
20
0.0000
30
0.0
11
340.0000
21
0.0000
31
0.0
0
ENDSEC
0
EOF
