0
SECTION
2
ENTITIES
0
LINE
8
CUT
10
0.0000
20
8.0000
30
0.0
11
7.0000
21
7.6832
31
0.0
0
LINE
8
CUT
10
7.0000
20
7.6832
30
0.0
11
14.0000
21
7.3728
31
0.0
0
LINE
8
CUT
10
14.0000
20
7.3728
30
0.0
11
21.0000
21
7.0688
31
0.0
0
LINE
8
CUT
10
21.0000
20
7.0688
30
0.0
11
28.0000
21
6.7712
31
0.0
0
LINE
8
CUT
10
28.0000
20
6.7712
30
0.0
11
35.0000
21
6.4800
31
0.0
0
LINE
8
CUT
10
35.0000
20
6.4800
30
0.0
11
42.0000
21
6.1952
31
0.0
0
LINE
8
CUT
10
42.0000
20
6.1952
30
0.0
11
49.0000
21
5.9168
31
0.0
0
LINE
8
CUT
10
49.0000
20
5.9168
30
0.0
11
56.0000
21
5.6448
31
0.0
0
LINE
8
CUT
10
56.0000
20
5.6448
30
0.0
11
63.0000
21
5.3792
31
0.0
0
LINE
8
CUT
10
63.0000
20
5.3792
30
0.0
11
70.0000
21
5.1200
31
0.0
0
LINE
8
CUT
10
70.0000
20
5.1200
30
0.0
11
77.0000
21
4.8672
31
0.0
0
LINE
8
CUT
10
77.0000
20
4.8672
30
0.0
11
84.0000
21
4.6208
31
0.0
0
LINE
8
CUT
10
84.0000
20
4.6208
30
0.0
11
91.0000
21
4.3808
31
0.0
0
LINE
8
CUT
10
91.0000
20
4.3808
30
0.0
11
98.0000
21
4.1472
31
0.0
0
LINE
8
CUT
10
98.0000
20
4.1472
30
0.0
11
105.0000
21
3.9200
31
0.0
0
LINE
8
CUT
10
105.0000
20
3.9200
30
0.0
11
112.0000
21
3.6992
31
0.0
0
LINE
8
CUT
10
112.0000
20
3.6992
30
0.0
11
119.0000
21
3.4848
31
0.0
0
LINE
8
CUT
10
119.0000
20
3.4848
30
0.0
11
126.0000
21
3.2768
31
0.0
0
LINE
8
CUT
10
126.0000
20
3.2768
30
0.0
11
133.0000
21
3.0752
31
0.0
0
LINE
8
CUT
10
133.0000
20
3.0752
30
0.0
11
140.0000
21
2.8800
31
0.0
0
LINE
8
CUT
10
140.0000
20
2.8800
30
0.0
11
147.0000
21
2.6912
31
0.0
0
LINE
8
CUT
10
147.0000
20
2.6912
30
0.0
11
154.0000
21
2.5088
31
0.0
0
LINE
8
CUT
10
154.0000
20
2.5088
30
0.0
11
161.0000
21
2.3328
31
0.0
0
LINE
8
CUT
10
161.0000
20
2.3328
30
0.0
11
168.0000
21
2.1632
31
0.0
0
LINE
8
CUT
10
168.0000
20
2.1632
30
0.0
11
175.0000
21
2.0000
31
0.0
0
LINE
8
CUT
10
175.0000
20
2.0000
30
0.0
11
182.0000
21
1.8432
31
0.0
0
LINE
8
CUT
10
182.0000
20
1.8432
30
0.0
11
189.0000
21
1.6928
31
0.0
0
LINE
8
CUT
10
189.0000
20
1.6928
30
0.0
11
196.0000
21
1.5488
31
0.0
0
LINE
8
CUT
10
196.0000
20
1.5488
30
0.0
11
203.0000
21
1.4112
31
0.0
0
LINE
8
CUT
10
203.0000
20
1.4112
30
0.0
11
210.0000
21
1.2800
31
0.0
0
LINE
8
CUT
10
210.0000
20
1.2800
30
0.0
11
217.0000
21
1.1552
31
0.0
0
LINE
8
CUT
10
217.0000
20
1.1552
30
0.0
11
224.0000
21
1.0368
31
0.0
0
LINE
8
CUT
10
224.0000
20
1.0368
30
0.0
11
231.0000
21
0.9248
31
0.0
0
LINE
8
CUT
10
231.0000
20
0.9248
30
0.0
11
238.0000
21
0.8192
31
0.0
0
LINE
8
CUT
10
238.0000
20
0.8192
30
0.0
11
245.0000
21
0.7200
31
0.0
0
LINE
8
CUT
10
245.0000
20
0.7200
30
0.0
11
252.0000
21
0.6272
31
0.0
0
LINE
8
CUT
10
252.0000
20
0.6272
30
0.0
11
259.0000
21
0.5408
31
0.0
0
LINE
8
CUT
10
259.0000
20
0.5408
30
0.0
11
266.0000
21
0.4608
31
0.0
0
LINE
8
CUT
10
266.0000
20
0.4608
30
0.0
11
273.0000
21
0.3872
31
0.0
0
LINE
8
CUT
10
273.0000
20
0.3872
30
0.0
11
280.0000
21
0.3200
31
0.0
0
LINE
8
CUT
10
280.0000
20
0.3200
30
0.0
11
287.0000
21
0.2592
31
0.0
0
LINE
8
CUT
10
287.0000
20
0.2592
30
0.0
11
294.0000
21
0.2048
31
0.0
0
LINE
8
CUT
10
294.0000
20
0.2048
30
0.0
11
301.0000
21
0.1568
31
0.0
0
LINE
8
CUT
10
301.0000
20
0.1568
30
0.0
11
308.0000
21
0.1152
31
0.0
0
LINE
8
CUT
10
308.0000
20
0.1152
30
0.0
11
315.0000
21
0.0800
31
0.0
0
LINE
8
CUT
10
315.0000
20
0.0800
30
0.0
11
322.0000
21
0.0512
31
0.0
0
LINE
8
CUT
10
322.0000
20
0.0512
30
0.0
11
329.0000
21
0.0288
31
0.0
0
LINE
8
CUT
10
329.0000
20
0.0288
30
0.0
11
336.0000
21
0.0128
31
0.0
0
LINE
8
CUT
10
336.0000
20
0.0128
30
0.0
11
343.0000
21
0.0032
31
0.0
0
LINE
8
CUT
10
343.0000
20
0.0032
30
0.0
11
350.0000
21
0.0000
31
0.0
0
LINE
8
CUT
10
350.0000
20
0.0000
30
0.0
11
357.0000
21
0.0000
31
0.0
0
LINE
8
CUT
10
357.0000
20
0.0000
30
0.0
11
364.0000
21
0.0000
31
0.0
0
LINE
8
CUT
10
364.0000
20
0.0000
30
0.0
11
371.0000
21
0.0000
31
0.0
0
LINE
8
CUT
10
371.0000
20
0.0000
30
0.0
11
378.0000
21
0.0000
31
0.0
0
LINE
8
CUT
10
378.0000
20
0.0000
30
0.0
11
385.0000
21
0.0000
31
0.0
0
LINE
8
CUT
10
385.0000
20
0.0000
30
0.0
11
392.0000
21
0.0000
31
0.0
0
LINE
8
CUT
10
392.0000
20
0.0000
30
0.0
11
399.0000
21
0.0000
31
0.0
0
LINE
8
CUT
10
399.0000
20
0.0000
30
0.0
11
406.0000
21
0.0000
31
0.0
0
LINE
8
CUT
10
406.0000
20
0.0000
30
0.0
11
413.0000
21
0.0000
31
0.0
0
LINE
8
CUT
10
413.0000
20
0.0000
30
0.0
11
420.0000
21
0.0000
31
0.0
0
LINE
8
CUT
10
420.0000
20
0.0000
30
0.0
11
427.0000
21
0.0000
31
0.0
0
LINE
8
CUT
10
427.0000
20
0.0000
30
0.0
11
434.0000
21
0.0000
31
0.0
0
LINE
8
CUT
10
434.0000
20
0.0000
30
0.0
11
441.0000
21
0.0000
31
0.0
0
LINE
8
CUT
10
441.0000
20
0.0000
30
0.0
11
448.0000
21
0.0000
31
0.0
0
LINE
8
CUT
10
448.0000
20
0.0000
30
0.0
11
455.0000
21
0.0000
31
0.0
0
LINE
8
CUT
10
455.0000
20
0.0000
30
0.0
11
462.0000
21
0.0000
31
0.0
0
LINE
8
CUT
10
462.0000
20
0.0000
30
0.0
11
469.0000
21
0.0000
31
0.0
0
LINE
8
CUT
10
469.0000
20
0.0000
30
0.0
11
476.0000
21
0.0000
31
0.0
0
LINE
8
CUT
10
476.0000
20
0.0000
30
0.0
11
483.0000
21
0.0000
31
0.0
0
LINE
8
CUT
10
483.0000
20
0.0000
30
0.0
11
490.0000
21
0.0000
31
0.0
0
LINE
8
CUT
10
490.0000
20
0.0000
30
0.0
11
497.0000
21
0.0000
31
0.0
0
LINE
8
CUT
10
497.0000
20
0.0000
30
0.0
11
504.0000
21
0.0000
31
0.0
0
LINE
8
CUT
10
504.0000
20
0.0000
30
0.0
11
511.0000
21
0.0000
31
0.0
0
LINE
8
CUT
10
511.0000
20
0.0000
30
0.0
11
518.0000
21
0.0000
31
0.0
0
LINE
8
CUT
10
518.0000
20
0.0000
30
0.0
11
525.0000
21
0.0000
31
0.0
0
LINE
8
CUT
10
525.0000
20
0.0000
30
0.0
11
532.0000
21
0.0000
31
0.0
0
LINE
8
CUT
10
532.0000
20
0.0000
30
0.0
11
539.0000
21
0.0000
31
0.0
0
LINE
8
CUT
10
539.0000
20
0.0000
30
0.0
11
546.0000
21
0.0000
31
0.0
0
LINE
8
CUT
10
546.0000
20
0.0000
30
0.0
11
553.0000
21
0.0000
31
0.0
0
LINE
8
CUT
10
553.0000
20
0.0000
30
0.0
11
560.0000
21
0.0000
31
0.0
0
LINE
8
CUT
10
560.0000
20
0.0000
30
0.0
11
567.0000
21
0.0000
31
0.0
0
LINE
8
CUT
10
567.0000
20
0.0000
30
0.0
11
574.0000
21
0.0000
31
0.0
0
LINE
8
CUT
10
574.0000
20
0.0000
30
0.0
11
581.0000
21
0.0000
31
0.0
0
LINE
8
CUT
10
581.0000
20
0.0000
30
0.0
11
588.0000
21
0.0000
31
0.0
0
LINE
8
CUT
10
588.0000
20
0.0000
30
0.0
11
595.0000
21
0.0000
31
0.0
0
LINE
8
CUT
10
595.0000
20
0.0000
30
0.0
11
602.0000
21
0.0000
31
0.0
0
LINE
8
CUT
10
602.0000
20
0.0000
30
0.0
11
609.0000
21
0.0000
31
0.0
0
LINE
8
CUT
10
609.0000
20
0.0000
30
0.0
11
616.0000
21
0.0000
31
0.0
0
LINE
8
CUT
10
616.0000
20
0.0000
30
0.0
11
623.0000
21
0.0000
31
0.0
0
LINE
8
CUT
10
623.0000
20
0.0000
30
0.0
11
630.0000
21
0.0000
31
0.0
0
LINE
8
CUT
10
630.0000
20
0.0000
30
0.0
11
637.0000
21
0.0000
31
0.0
0
LINE
8
CUT
10
637.0000
20
0.0000
30
0.0
11
644.0000
21
0.0000
31
0.0
0
LINE
8
CUT
10
644.0000
20
0.0000
30
0.0
11
651.0000
21
0.0000
31
0.0
0
LINE
8
CUT
10
651.0000
20
0.0000
30
0.0
11
658.0000
21
0.0000
31
0.0
0
LINE
8
CUT
10
658.0000
20
0.0000
30
0.0
11
665.0000
21
0.0000
31
0.0
0
LINE
8
CUT
10
665.0000
20
0.0000
30
0.0
11
672.0000
21
0.0000
31
0.0
0
LINE
8
CUT
10
672.0000
20
0.0000
30
0.0
11
679.0000
21
0.0000
31
0.0
0
LINE
8
CUT
10
679.0000
20
0.0000
30
0.0
11
686.0000
21
0.0000
31
0.0
0
LINE
8
CUT
10
686.0000
20
0.0000
30
0.0
11
693.0000
21
0.0000
31
0.0
0
LINE
8
CUT
10
693.0000
20
0.0000
30
0.0
11
700.0000
21
0.0000
31
0.0
0
LINE
8
CUT
10
700.0000
20
0.0000
30
0.0
11
707.0000
21
0.0000
31
0.0
0
LINE
8
CUT
10
707.0000
20
0.0000
30
0.0
11
714.0000
21
0.0000
31
0.0
0
LINE
8
CUT
10
714.0000
20
0.0000
30
0.0
11
721.0000
21
0.0000
31
0.0
0
LINE
8
CUT
10
721.0000
20
0.0000
30
0.0
11
728.0000
21
0.0000
31
0.0
0
LINE
8
CUT
10
728.0000
20
0.0000
30
0.0
11
735.0000
21
0.0000
31
0.0
0
LINE
8
CUT
10
735.0000
20
0.0000
30
0.0
11
742.0000
21
0.0000
31
0.0
0
LINE
8
CUT
10
742.0000
20
0.0000
30
0.0
11
749.0000
21
0.0000
31
0.0
0
LINE
8
CUT
10
749.0000
20
0.0000
30
0.0
11
756.0000
21
0.0000
31
0.0
0
LINE
8
CUT
10
756.0000
20
0.0000
30
0.0
11
763.0000
21
0.0000
31
0.0
0
LINE
8
CUT
10
763.0000
20
0.0000
30
0.0
11
770.0000
21
0.0000
31
0.0
0
LINE
8
CUT
10
770.0000
20
0.0000
30
0.0
11
777.0000
21
0.0343
31
0.0
0
LINE
8
CUT
10
777.0000
20
0.0343
30
0.0
11
784.0000
21
0.1122
31
0.0
0
LINE
8
CUT
10
784.0000
20
0.1122
30
0.0
11
791.0000
21
0.2247
31
0.0
0
LINE
8
CUT
10
791.0000
20
0.2247
30
0.0
11
798.0000
21
0.3680
31
0.0
0
LINE
8
CUT
10
798.0000
20
0.3680
30
0.0
11
805.0000
21
0.5398
31
0.0
0
LINE
8
CUT
10
805.0000
20
0.5398
30
0.0
11
812.0000
21
0.7386
31
0.0
0
LINE
8
CUT
10
812.0000
20
0.7386
30
0.0
11
819.0000
21
0.9631
31
0.0
0
LINE
8
CUT
10
819.0000
20
0.9631
30
0.0
11
826.0000
21
1.2125
31
0.0
0
LINE
8
CUT
10
826.0000
20
1.2125
30
0.0
11
833.0000
21
1.4859
31
0.0
0
LINE
8
CUT
10
833.0000
20
1.4859
30
0.0
11
840.0000
21
1.7829
31
0.0
0
LINE
8
CUT
10
840.0000
20
1.7829
30
0.0
11
847.0000
21
2.1028
31
0.0
0
LINE
8
CUT
10
847.0000
20
2.1028
30
0.0
11
854.0000
21
2.4453
31
0.0
0
LINE
8
CUT
10
854.0000
20
2.4453
30
0.0
11
861.0000
21
2.8100
31
0.0
0
LINE
8
CUT
10
861.0000
20
2.8100
30
0.0
11
868.0000
21
3.1965
31
0.0
0
LINE
8
CUT
10
868.0000
20
3.1965
30
0.0
11
875.0000
21
3.6047
31
0.0
0
LINE
8
CUT
10
875.0000
20
3.6047
30
0.0
11
882.0000
21
4.0343
31
0.0
0
LINE
8
CUT
10
882.0000
20
4.0343
30
0.0
11
889.0000
21
4.4852
31
0.0
0
LINE
8
CUT
10
889.0000
20
4.4852
30
0.0
11
896.0000
21
4.9571
31
0.0
0
LINE
8
CUT
10
896.0000
20
4.9571
30
0.0
11
903.0000
21
5.4499
31
0.0
0
LINE
8
CUT
10
903.0000
20
5.4499
30
0.0
11
910.0000
21
5.9636
31
0.0
0
LINE
8
CUT
10
910.0000
20
5.9636
30
0.0
11
917.0000
21
6.4981
31
0.0
0
LINE
8
CUT
10
917.0000
20
6.4981
30
0.0
11
924.0000
21
7.0533
31
0.0
0
LINE
8
CUT
10
924.0000
20
7.0533
30
0.0
11
931.0000
21
7.6292
31
0.0
0
LINE
8
CUT
10
931.0000
20
7.6292
30
0.0
11
938.0000
21
8.2258
31
0.0
0
LINE
8
CUT
10
938.0000
20
8.2258
30
0.0
11
945.0000
21
8.8430
31
0.0
0
LINE
8
CUT
10
945.0000
20
8.8430
30
0.0
11
952.0000
21
9.4809
31
0.0
0
LINE
8
CUT
10
952.0000
20
9.4809
30
0.0
11
959.0000
21
10.1395
31
0.0
0
LINE
8
CUT
10
959.0000
20
10.1395
30
0.0
11
966.0000
21
10.8189
31
0.0
0
LINE
8
CUT
10
966.0000
20
10.8189
30
0.0
11
973.0000
21
11.5191
31
0.0
0
LINE
8
CUT
10
973.0000
20
11.5191
30
0.0
11
980.0000
21
12.2402
31
0.0
0
LINE
8
CUT
10
980.0000
20
12.2402
30
0.0
11
987.0000
21
12.9823
31
0.0
0
LINE
8
CUT
10
987.0000
20
12.9823
30
0.0
11
994.0000
21
13.7455
31
0.0
0
LINE
8
CUT
10
994.0000
20
13.7455
30
0.0
11
1001.0000
21
14.5300
31
0.0
0
LINE
8
CUT
10
1001.0000
20
14.5300
30
0.0
11
1008.0000
21
15.3358
31
0.0
0
LINE
8
CUT
10
1008.0000
20
15.3358
30
0.0
11
1015.0000
21
16.1632
31
0.0
0
LINE
8
CUT
10
1015.0000
20
16.1632
30
0.0
11
1022.0000
21
17.0122
31
0.0
0
LINE
8
CUT
10
1022.0000
20
17.0122
30
0.0
11
1029.0000
21
17.8832
31
0.0
0
LINE
8
CUT
10
1029.0000
20
17.8832
30
0.0
11
1036.0000
21
18.7763
31
0.0
0
LINE
8
CUT
10
1036.0000
20
18.7763
30
0.0
11
1043.0000
21
19.6917
31
0.0
0
LINE
8
CUT
10
1043.0000
20
19.6917
30
0.0
11
1050.0000
21
20.6296
31
0.0
0
LINE
8
CUT
10
1050.0000
20
20.6296
30
0.0
11
1057.0000
21
21.5904
31
0.0
0
LINE
8
CUT
10
1057.0000
20
21.5904
30
0.0
11
1064.0000
21
22.5742
31
0.0
0
LINE
8
CUT
10
1064.0000
20
22.5742
30
0.0
11
1071.0000
21
23.5815
31
0.0
0
LINE
8
CUT
10
1071.0000
20
23.5815
30
0.0
11
1078.0000
21
24.6125
31
0.0
0
LINE
8
CUT
10
1078.0000
20
24.6125
30
0.0
11
1085.0000
21
25.6675
31
0.0
0
LINE
8
CUT
10
1085.0000
20
25.6675
30
0.0
11
1092.0000
21
26.7470
31
0.0
0
LINE
8
CUT
10
1092.0000
20
26.7470
30
0.0
11
1099.0000
21
27.8513
31
0.0
0
LINE
8
CUT
10
1099.0000
20
27.8513
30
0.0
11
1106.0000
21
28.9809
31
0.0
0
LINE
8
CUT
10
1106.0000
20
28.9809
30
0.0
11
1113.0000
21
30.1361
31
0.0
0
LINE
8
CUT
10
1113.0000
20
30.1361
30
0.0
11
1120.0000
21
31.3175
31
0.0
0
LINE
8
CUT
10
1120.0000
20
31.3175
30
0.0
11
1127.0000
21
32.5256
31
0.0
0
LINE
8
CUT
10
1127.0000
20
32.5256
30
0.0
11
1134.0000
21
33.7610
31
0.0
0
LINE
8
CUT
10
1134.0000
20
33.7610
30
0.0
11
1141.0000
21
35.0242
31
0.0
0
LINE
8
CUT
10
1141.0000
20
35.0242
30
0.0
11
1148.0000
21
36.3159
31
0.0
0
LINE
8
CUT
10
1148.0000
20
36.3159
30
0.0
11
1155.0000
21
37.6368
31
0.0
0
LINE
8
CUT
10
1155.0000
20
37.6368
30
0.0
11
1162.0000
21
38.9875
31
0.0
0
LINE
8
CUT
10
1162.0000
20
38.9875
30
0.0
11
1169.0000
21
40.3690
31
0.0
0
LINE
8
CUT
10
1169.0000
20
40.3690
30
0.0
11
1176.0000
21
41.7820
31
0.0
0
LINE
8
CUT
10
1176.0000
20
41.7820
30
0.0
11
1183.0000
21
43.2274
31
0.0
0
LINE
8
CUT
10
1183.0000
20
43.2274
30
0.0
11
1190.0000
21
44.7063
31
0.0
0
LINE
8
CUT
10
1190.0000
20
44.7063
30
0.0
11
1197.0000
21
46.2197
31
0.0
0
LINE
8
CUT
10
1197.0000
20
46.2197
30
0.0
11
1204.0000
21
47.7689
31
0.0
0
LINE
8
CUT
10
1204.0000
20
47.7689
30
0.0
11
1211.0000
21
49.3550
31
0.0
0
LINE
8
CUT
10
1211.0000
20
49.3550
30
0.0
11
1218.0000
21
50.9795
31
0.0
0
LINE
8
CUT
10
1218.0000
20
50.9795
30
0.0
11
1225.0000
21
52.6439
31
0.0
0
LINE
8
CUT
10
1225.0000
20
52.6439
30
0.0
11
1232.0000
21
54.3499
31
0.0
0
LINE
8
CUT
10
1232.0000
20
54.3499
30
0.0
11
1239.0000
21
56.0993
31
0.0
0
LINE
8
CUT
10
1239.0000
20
56.0993
30
0.0
11
1246.0000
21
57.8942
31
0.0
0
LINE
8
CUT
10
1246.0000
20
57.8942
30
0.0
11
1253.0000
21
59.7368
31
0.0
0
LINE
8
CUT
10
1253.0000
20
59.7368
30
0.0
11
1260.0000
21
61.6297
31
0.0
0
LINE
8
CUT
10
1260.0000
20
61.6297
30
0.0
11
1267.0000
21
63.5757
31
0.0
0
LINE
8
CUT
10
1267.0000
20
63.5757
30
0.0
11
1274.0000
21
65.5781
31
0.0
0
LINE
8
CUT
10
1274.0000
20
65.5781
30
0.0
11
1281.0000
21
67.6404
31
0.0
0
LINE
8
CUT
10
1281.0000
20
67.6404
30
0.0
11
1288.0000
21
69.7669
31
0.0
0
LINE
8
CUT
10
1288.0000
20
69.7669
30
0.0
11
1295.0000
21
71.9622
31
0.0
0
LINE
8
CUT
10
1295.0000
20
71.9622
30
0.0
11
1302.0000
21
74.2321
31
0.0
0
LINE
8
CUT
10
1302.0000
20
74.2321
30
0.0
11
1309.0000
21
76.5830
31
0.0
0
LINE
8
CUT
10
1309.0000
20
76.5830
30
0.0
11
1316.0000
21
79.0227
31
0.0
0
LINE
8
CUT
10
1316.0000
20
79.0227
30
0.0
11
1323.0000
21
81.5606
31
0.0
0
LINE
8
CUT
10
1323.0000
20
81.5606
30
0.0
11
1330.0000
21
84.2080
31
0.0
0
LINE
8
CUT
10
1330.0000
20
84.2080
30
0.0
11
1337.0000
21
86.9792
31
0.0
0
LINE
8
CUT
10
1337.0000
20
86.9792
30
0.0
11
1344.0000
21
89.8923
31
0.0
0
LINE
8
CUT
10
1344.0000
20
89.8923
30
0.0
11
1351.0000
21
92.9710
31
0.0
0
LINE
8
CUT
10
1351.0000
20
92.9710
30
0.0
11
1358.0000
21
96.2474
31
0.0
0
LINE
8
CUT
10
1358.0000
20
96.2474
30
0.0
11
1365.0000
21
99.7671
31
0.0
0
LINE
8
CUT
10
1365.0000
20
99.7671
30
0.0
11
1372.0000
21
103.5987
31
0.0
0
LINE
8
CUT
10
1372.0000
20
103.5987
30
0.0
11
1379.0000
21
107.8556
31
0.0
0
LINE
8
CUT
10
1379.0000
20
107.8556
30
0.0
11
1386.0000
21
112.7525
31
0.0
0
LINE
8
CUT
10
1386.0000
20
112.7525
30
0.0
11
1393.0000
21
118.8230
31
0.0
0
LINE
8
CUT
10
1393.0000
20
118.8230
30
0.0
11
1400.0000
21
130.7290
31
0.0
0
LINE
8
CHANNEL
10
0.0000
20
29.5587
30
0.0
11
7.0000
21
95.2617
31
0.0
0
LINE
8
CHANNEL
10
7.0000
20
95.2617
30
0.0
11
14.0000
21
105.5181
31
0.0
0
LINE
8
CHANNEL
10
14.0000
20
105.5181
30
0.0
11
21.0000
21
111.9698
31
0.0
0
LINE
8
CHANNEL
10
21.0000
20
111.9698
30
0.0
11
28.0000
21
116.6805
31
0.0
0
LINE
8
CHANNEL
10
28.0000
20
116.6805
30
0.0
11
35.0000
21
120.3645
31
0.0
0
LINE
8
CHANNEL
10
35.0000
20
120.3645
30
0.0
11
42.0000
21
123.3624
31
0.0
0
LINE
8
CHANNEL
10
42.0000
20
123.3624
30
0.0
11
49.0000
21
125.8654
31
0.0
0
LINE
8
CHANNEL
10
49.0000
20
125.8654
30
0.0
11
56.0000
21
127.9929
31
0.0
0
LINE
8
CHANNEL
10
56.0000
20
127.9929
30
0.0
11
63.0000
21
129.8248
31
0.0
0
LINE
8
CHANNEL
10
63.0000
20
129.8248
30
0.0
11
70.0000
21
131.4174
31
0.0
0
LINE
8
CHANNEL
10
70.0000
20
131.4174
30
0.0
11
77.0000
21
132.8123
31
0.0
0
LINE
8
CHANNEL
10
77.0000
20
132.8123
30
0.0
11
84.0000
21
134.0409
31
0.0
0
LINE
8
CHANNEL
10
84.0000
20
134.0409
30
0.0
11
91.0000
21
135.1278
31
0.0
0
LINE
8
CHANNEL
10
91.0000
20
135.1278
30
0.0
11
98.0000
21
136.0926
31
0.0
0
LINE
8
CHANNEL
10
98.0000
20
136.0926
30
0.0
11
105.0000
21
136.9512
31
0.0
0
LINE
8
CHANNEL
10
105.0000
20
136.9512
30
0.0
11
112.0000
21
137.7166
31
0.0
0
LINE
8
CHANNEL
10
112.0000
20
137.7166
30
0.0
11
119.0000
21
138.3998
31
0.0
0
LINE
8
CHANNEL
10
119.0000
20
138.3998
30
0.0
11
126.0000
21
139.0101
31
0.0
0
LINE
8
CHANNEL
10
126.0000
20
139.0101
30
0.0
11
133.0000
21
139.5554
31
0.0
0
LINE
8
CHANNEL
10
133.0000
20
139.5554
30
0.0
11
140.0000
21
140.0426
31
0.0
0
LINE
8
CHANNEL
10
140.0000
20
140.0426
30
0.0
11
147.0000
21
140.4775
31
0.0
0
LINE
8
CHANNEL
10
147.0000
20
140.4775
30
0.0
11
154.0000
21
140.8656
31
0.0
0
LINE
8
CHANNEL
10
154.0000
20
140.8656
30
0.0
11
161.0000
21
141.2112
31
0.0
0
LINE
8
CHANNEL
10
161.0000
20
141.2112
30
0.0
11
168.0000
21
141.5187
31
0.0
0
LINE
8
CHANNEL
10
168.0000
20
141.5187
30
0.0
11
175.0000
21
141.7917
31
0.0
0
LINE
8
CHANNEL
10
175.0000
20
141.7917
30
0.0
11
182.0000
21
142.0335
31
0.0
0
LINE
8
CHANNEL
10
182.0000
20
142.0335
30
0.0
11
189.0000
21
142.2471
31
0.0
0
LINE
8
CHANNEL
10
189.0000
20
142.2471
30
0.0
11
196.0000
21
142.4353
31
0.0
0
LINE
8
CHANNEL
10
196.0000
20
142.4353
30
0.0
11
203.0000
21
142.6004
31
0.0
0
LINE
8
CHANNEL
10
203.0000
20
142.6004
30
0.0
11
210.0000
21
142.7448
31
0.0
0
LINE
8
CHANNEL
10
210.0000
20
142.7448
30
0.0
11
217.0000
21
142.8707
31
0.0
0
LINE
8
CHANNEL
10
217.0000
20
142.8707
30
0.0
11
224.0000
21
142.9798
31
0.0
0
LINE
8
CHANNEL
10
224.0000
20
142.9798
30
0.0
11
231.0000
21
143.0740
31
0.0
0
LINE
8
CHANNEL
10
231.0000
20
143.0740
30
0.0
11
238.0000
21
143.1549
31
0.0
0
LINE
8
CHANNEL
10
238.0000
20
143.1549
30
0.0
11
245.0000
21
143.2240
31
0.0
0
LINE
8
CHANNEL
10
245.0000
20
143.2240
30
0.0
11
252.0000
21
143.2829
31
0.0
0
LINE
8
CHANNEL
10
252.0000
20
143.2829
30
0.0
11
259.0000
21
143.3327
31
0.0
0
LINE
8
CHANNEL
10
259.0000
20
143.3327
30
0.0
11
266.0000
21
143.3748
31
0.0
0
LINE
8
CHANNEL
10
266.0000
20
143.3748
30
0.0
11
273.0000
21
143.4103
31
0.0
0
LINE
8
CHANNEL
10
273.0000
20
143.4103
30
0.0
11
280.0000
21
143.4402
31
0.0
0
LINE
8
CHANNEL
10
280.0000
20
143.4402
30
0.0
11
287.0000
21
143.4656
31
0.0
0
LINE
8
CHANNEL
10
287.0000
20
143.4656
30
0.0
11
294.0000
21
143.4875
31
0.0
0
LINE
8
CHANNEL
10
294.0000
20
143.4875
30
0.0
11
301.0000
21
143.5066
31
0.0
0
LINE
8
CHANNEL
10
301.0000
20
143.5066
30
0.0
11
308.0000
21
143.5239
31
0.0
0
LINE
8
CHANNEL
10
308.0000
20
143.5239
30
0.0
11
315.0000
21
143.5400
31
0.0
0
LINE
8
CHANNEL
10
315.0000
20
143.5400
30
0.0
11
322.0000
21
143.5558
31
0.0
0
LINE
8
CHANNEL
10
322.0000
20
143.5558
30
0.0
11
329.0000
21
143.5720
31
0.0
0
LINE
8
CHANNEL
10
329.0000
20
143.5720
30
0.0
11
336.0000
21
143.5890
31
0.0
0
LINE
8
CHANNEL
10
336.0000
20
143.5890
30
0.0
11
343.0000
21
143.6075
31
0.0
0
LINE
8
CHANNEL
10
343.0000
20
143.6075
30
0.0
11
350.0000
21
143.6282
31
0.0
0
LINE
8
CHANNEL
10
350.0000
20
143.6282
30
0.0
11
357.0000
21
143.6481
31
0.0
0
LINE
8
CHANNEL
10
357.0000
20
143.6481
30
0.0
11
364.0000
21
143.6648
31
0.0
0
LINE
8
CHANNEL
10
364.0000
20
143.6648
30
0.0
11
371.0000
21
143.6784
31
0.0
0
LINE
8
CHANNEL
10
371.0000
20
143.6784
30
0.0
11
378.0000
21
143.6896
31
0.0
0
LINE
8
CHANNEL
10
378.0000
20
143.6896
30
0.0
11
385.0000
21
143.6985
31
0.0
0
LINE
8
CHANNEL
10
385.0000
20
143.6985
30
0.0
11
392.0000
21
143.7056
31
0.0
0
LINE
8
CHANNEL
10
392.0000
20
143.7056
30
0.0
11
399.0000
21
143.7111
31
0.0
0
LINE
8
CHANNEL
10
399.0000
20
143.7111
30
0.0
11
406.0000
21
143.7153
31
0.0
0
LINE
8
CHANNEL
10
406.0000
20
143.7153
30
0.0
11
413.0000
21
143.7184
31
0.0
0
LINE
8
CHANNEL
10
413.0000
20
143.7184
30
0.0
11
420.0000
21
143.7207
31
0.0
0
LINE
8
CHANNEL
10
420.0000
20
143.7207
30
0.0
11
427.0000
21
143.7223
31
0.0
0
LINE
8
CHANNEL
10
427.0000
20
143.7223
30
0.0
11
434.0000
21
143.7234
31
0.0
0
LINE
8
CHANNEL
10
434.0000
20
143.7234
30
0.0
11
441.0000
21
143.7241
31
0.0
0
LINE
8
CHANNEL
10
441.0000
20
143.7241
30
0.0
11
448.0000
21
143.7246
31
0.0
0
LINE
8
CHANNEL
10
448.0000
20
143.7246
30
0.0
11
455.0000
21
143.7248
31
0.0
0
LINE
8
CHANNEL
10
455.0000
20
143.7248
30
0.0
11
462.0000
21
143.7249
31
0.0
0
LINE
8
CHANNEL
10
462.0000
20
143.7249
30
0.0
11
469.0000
21
143.7250
31
0.0
0
LINE
8
CHANNEL
10
469.0000
20
143.7250
30
0.0
11
476.0000
21
143.7250
31
0.0
0
LINE
8
CHANNEL
10
476.0000
20
143.7250
30
0.0
11
483.0000
21
143.7250
31
0.0
0
LINE
8
CHANNEL
10
483.0000
20
143.7250
30
0.0
11
490.0000
21
143.7250
31
0.0
0
LINE
8
CHANNEL
10
490.0000
20
143.7250
30
0.0
11
497.0000
21
143.7250
31
0.0
0
LINE
8
CHANNEL
10
497.0000
20
143.7250
30
0.0
11
504.0000
21
143.7250
31
0.0
0
LINE
8
CHANNEL
10
504.0000
20
143.7250
30
0.0
11
511.0000
21
143.7250
31
0.0
0
LINE
8
CHANNEL
10
511.0000
20
143.7250
30
0.0
11
518.0000
21
143.7250
31
0.0
0
LINE
8
CHANNEL
10
518.0000
20
143.7250
30
0.0
11
525.0000
21
143.7250
31
0.0
0
LINE
8
CHANNEL
10
525.0000
20
143.7250
30
0.0
11
532.0000
21
143.7250
31
0.0
0
LINE
8
CHANNEL
10
532.0000
20
143.7250
30
0.0
11
539.0000
21
143.7250
31
0.0
0
LINE
8
CHANNEL
10
539.0000
20
143.7250
30
0.0
11
546.0000
21
143.7250
31
0.0
0
LINE
8
CHANNEL
10
546.0000
20
143.7250
30
0.0
11
553.0000
21
143.7250
31
0.0
0
LINE
8
CHANNEL
10
553.0000
20
143.7250
30
0.0
11
560.0000
21
143.7250
31
0.0
0
LINE
8
CHANNEL
10
560.0000
20
143.7250
30
0.0
11
567.0000
21
143.7250
31
0.0
0
LINE
8
CHANNEL
10
567.0000
20
143.7250
30
0.0
11
574.0000
21
143.7250
31
0.0
0
LINE
8
CHANNEL
10
574.0000
20
143.7250
30
0.0
11
581.0000
21
143.7250
31
0.0
0
LINE
8
CHANNEL
10
581.0000
20
143.7250
30
0.0
11
588.0000
21
143.7250
31
0.0
0
LINE
8
CHANNEL
10
588.0000
20
143.7250
30
0.0
11
595.0000
21
143.7250
31
0.0
0
LINE
8
CHANNEL
10
595.0000
20
143.7250
30
0.0
11
602.0000
21
143.7250
31
0.0
0
LINE
8
CHANNEL
10
602.0000
20
143.7250
30
0.0
11
609.0000
21
143.7250
31
0.0
0
LINE
8
CHANNEL
10
609.0000
20
143.7250
30
0.0
11
616.0000
21
143.7250
31
0.0
0
LINE
8
CHANNEL
10
616.0000
20
143.7250
30
0.0
11
623.0000
21
143.7250
31
0.0
0
LINE
8
CHANNEL
10
623.0000
20
143.7250
30
0.0
11
630.0000
21
143.7250
31
0.0
0
LINE
8
CHANNEL
10
630.0000
20
143.7250
30
0.0
11
637.0000
21
143.7250
31
0.0
0
LINE
8
CHANNEL
10
637.0000
20
143.7250
30
0.0
11
644.0000
21
143.7250
31
0.0
0
LINE
8
CHANNEL
10
644.0000
20
143.7250
30
0.0
11
651.0000
21
143.7250
31
0.0
0
LINE
8
CHANNEL
10
651.0000
20
143.7250
30
0.0
11
658.0000
21
143.7250
31
0.0
0
LINE
8
CHANNEL
10
658.0000
20
143.7250
30
0.0
11
665.0000
21
143.7250
31
0.0
0
LINE
8
CHANNEL
10
665.0000
20
143.7250
30
0.0
11
672.0000
21
143.7250
31
0.0
0
LINE
8
CHANNEL
10
672.0000
20
143.7250
30
0.0
11
679.0000
21
143.7250
31
0.0
0
LINE
8
CHANNEL
10
679.0000
20
143.7250
30
0.0
11
686.0000
21
143.7250
31
0.0
0
LINE
8
CHANNEL
10
686.0000
20
143.7250
30
0.0
11
693.0000
21
143.7250
31
0.0
0
LINE
8
CHANNEL
10
693.0000
20
143.7250
30
0.0
11
700.0000
21
143.7250
31
0.0
0
LINE
8
CHANNEL
10
700.0000
20
143.7250
30
0.0
11
707.0000
21
143.7250
31
0.0
0
LINE
8
CHANNEL
10
707.0000
20
143.7250
30
0.0
11
714.0000
21
143.7250
31
0.0
0
LINE
8
CHANNEL
10
714.0000
20
143.7250
30
0.0
11
721.0000
21
143.7250
31
0.0
0
LINE
8
CHANNEL
10
721.0000
20
143.7250
30
0.0
11
728.0000
21
143.7250
31
0.0
0
LINE
8
CHANNEL
10
728.0000
20
143.7250
30
0.0
11
735.0000
21
143.7250
31
0.0
0
LINE
8
CHANNEL
10
735.0000
20
143.7250
30
0.0
11
742.0000
21
143.7250
31
0.0
0
LINE
8
CHANNEL
10
742.0000
20
143.7250
30
0.0
11
749.0000
21
143.7250
31
0.0
0
LINE
8
CHANNEL
10
749.0000
20
143.7250
30
0.0
11
756.0000
21
143.7250
31
0.0
0
LINE
8
CHANNEL
10
756.0000
20
143.7250
30
0.0
11
763.0000
21
143.7250
31
0.0
0
LINE
8
CHANNEL
10
763.0000
20
143.7250
30
0.0
11
770.0000
21
143.7250
31
0.0
0
LINE
8
CHANNEL
10
770.0000
20
143.7250
30
0.0
11
777.0000
21
143.7255
31
0.0
0
LINE
8
CHANNEL
10
777.0000
20
143.7255
30
0.0
11
784.0000
21
143.7273
31
0.0
0
LINE
8
CHANNEL
10
784.0000
20
143.7273
30
0.0
11
791.0000
21
143.7306
31
0.0
0
LINE
8
CHANNEL
10
791.0000
20
143.7306
30
0.0
11
798.0000
21
143.7356
31
0.0
0
LINE
8
CHANNEL
10
798.0000
20
143.7356
30
0.0
11
805.0000
21
143.7423
31
0.0
0
LINE
8
CHANNEL
10
805.0000
20
143.7423
30
0.0
11
812.0000
21
143.7509
31
0.0
0
LINE
8
CHANNEL
10
812.0000
20
143.7509
30
0.0
11
819.0000
21
143.7613
31
0.0
0
LINE
8
CHANNEL
10
819.0000
20
143.7613
30
0.0
11
826.0000
21
143.7737
31
0.0
0
LINE
8
CHANNEL
10
826.0000
20
143.7737
30
0.0
11
833.0000
21
143.7881
31
0.0
0
LINE
8
CHANNEL
10
833.0000
20
143.7881
30
0.0
11
840.0000
21
143.8046
31
0.0
0
LINE
8
CHANNEL
10
840.0000
20
143.8046
30
0.0
11
847.0000
21
143.8231
31
0.0
0
LINE
8
CHANNEL
10
847.0000
20
143.8231
30
0.0
11
854.0000
21
143.8438
31
0.0
0
LINE
8
CHANNEL
10
854.0000
20
143.8438
30
0.0
11
861.0000
21
143.8667
31
0.0
0
LINE
8
CHANNEL
10
861.0000
20
143.8667
30
0.0
11
868.0000
21
143.8918
31
0.0
0
LINE
8
CHANNEL
10
868.0000
20
143.8918
30
0.0
11
875.0000
21
143.9191
31
0.0
0
LINE
8
CHANNEL
10
875.0000
20
143.9191
30
0.0
11
882.0000
21
143.9487
31
0.0
0
LINE
8
CHANNEL
10
882.0000
20
143.9487
30
0.0
11
889.0000
21
143.9807
31
0.0
0
LINE
8
CHANNEL
10
889.0000
20
143.9807
30
0.0
11
896.0000
21
144.0149
31
0.0
0
LINE
8
CHANNEL
10
896.0000
20
144.0149
30
0.0
11
903.0000
21
144.0515
31
0.0
0
LINE
8
CHANNEL
10
903.0000
20
144.0515
30
0.0
11
910.0000
21
144.0905
31
0.0
0
LINE
8
CHANNEL
10
910.0000
20
144.0905
30
0.0
11
917.0000
21
144.1320
31
0.0
0
LINE
8
CHANNEL
10
917.0000
20
144.1320
30
0.0
11
924.0000
21
144.1758
31
0.0
0
LINE
8
CHANNEL
10
924.0000
20
144.1758
30
0.0
11
931.0000
21
144.2221
31
0.0
0
LINE
8
CHANNEL
10
931.0000
20
144.2221
30
0.0
11
938.0000
21
144.2709
31
0.0
0
LINE
8
CHANNEL
10
938.0000
20
144.2709
30
0.0
11
945.0000
21
144.3222
31
0.0
0
LINE
8
CHANNEL
10
945.0000
20
144.3222
30
0.0
11
952.0000
21
144.3760
31
0.0
0
LINE
8
CHANNEL
10
952.0000
20
144.3760
30
0.0
11
959.0000
21
144.4324
31
0.0
0
LINE
8
CHANNEL
10
959.0000
20
144.4324
30
0.0
11
966.0000
21
144.4913
31
0.0
0
LINE
8
CHANNEL
10
966.0000
20
144.4913
30
0.0
11
973.0000
21
144.5528
31
0.0
0
LINE
8
CHANNEL
10
973.0000
20
144.5528
30
0.0
11
980.0000
21
144.6169
31
0.0
0
LINE
8
CHANNEL
10
980.0000
20
144.6169
30
0.0
11
987.0000
21
144.6837
31
0.0
0
LINE
8
CHANNEL
10
987.0000
20
144.6837
30
0.0
11
994.0000
21
144.7530
31
0.0
0
LINE
8
CHANNEL
10
994.0000
20
144.7530
30
0.0
11
1001.0000
21
144.8250
31
0.0
0
LINE
8
CHANNEL
10
1001.0000
20
144.8250
30
0.0
11
1008.0000
21
144.8997
31
0.0
0
LINE
8
CHANNEL
10
1008.0000
20
144.8997
30
0.0
11
1015.0000
21
144.9770
31
0.0
0
LINE
8
CHANNEL
10
1015.0000
20
144.9770
30
0.0
11
1022.0000
21
145.0571
31
0.0
0
LINE
8
CHANNEL
10
1022.0000
20
145.0571
30
0.0
11
1029.0000
21
145.1398
31
0.0
0
LINE
8
CHANNEL
10
1029.0000
20
145.1398
30
0.0
11
1036.0000
21
145.2253
31
0.0
0
LINE
8
CHANNEL
10
1036.0000
20
145.2253
30
0.0
11
1043.0000
21
145.3136
31
0.0
0
LINE
8
CHANNEL
10
1043.0000
20
145.3136
30
0.0
11
1050.0000
21
145.4046
31
0.0
0
LINE
8
CHANNEL
10
1050.0000
20
145.4046
30
0.0
11
1057.0000
21
145.4983
31
0.0
0
LINE
8
CHANNEL
10
1057.0000
20
145.4983
30
0.0
11
1064.0000
21
145.5949
31
0.0
0
LINE
8
CHANNEL
10
1064.0000
20
145.5949
30
0.0
11
1071.0000
21
145.6942
31
0.0
0
LINE
8
CHANNEL
10
1071.0000
20
145.6942
30
0.0
11
1078.0000
21
145.7964
31
0.0
0
LINE
8
CHANNEL
10
1078.0000
20
145.7964
30
0.0
11
1085.0000
21
145.9014
31
0.0
0
LINE
8
CHANNEL
10
1085.0000
20
145.9014
30
0.0
11
1092.0000
21
146.0092
31
0.0
0
LINE
8
CHANNEL
10
1092.0000
20
146.0092
30
0.0
11
1099.0000
21
146.1199
31
0.0
0
LINE
8
CHANNEL
10
1099.0000
20
146.1199
30
0.0
11
1106.0000
21
146.2334
31
0.0
0
LINE
8
CHANNEL
10
1106.0000
20
146.2334
30
0.0
11
1113.0000
21
146.3498
31
0.0
0
LINE
8
CHANNEL
10
1113.0000
20
146.3498
30
0.0
11
1120.0000
21
146.4691
31
0.0
0
LINE
8
CHANNEL
10
1120.0000
20
146.4691
30
0.0
11
1127.0000
21
146.5913
31
0.0
0
LINE
8
CHANNEL
10
1127.0000
20
146.5913
30
0.0
11
1134.0000
21
146.7164
31
0.0
0
LINE
8
CHANNEL
10
1134.0000
20
146.7164
30
0.0
11
1141.0000
21
146.8444
31
0.0
0
LINE
8
CHANNEL
10
1141.0000
20
146.8444
30
0.0
11
1148.0000
21
146.9754
31
0.0
0
LINE
8
CHANNEL
10
1148.0000
20
146.9754
30
0.0
11
1155.0000
21
147.1093
31
0.0
0
LINE
8
CHANNEL
10
1155.0000
20
147.1093
30
0.0
11
1162.0000
21
147.2461
31
0.0
0
LINE
8
CHANNEL
10
1162.0000
20
147.2461
30
0.0
11
1169.0000
21
147.3859
31
0.0
0
LINE
8
CHANNEL
10
1169.0000
20
147.3859
30
0.0
11
1176.0000
21
147.5287
31
0.0
0
LINE
8
CHANNEL
10
1176.0000
20
147.5287
30
0.0
11
1183.0000
21
147.6745
31
0.0
0
LINE
8
CHANNEL
10
1183.0000
20
147.6745
30
0.0
11
1190.0000
21
147.8233
31
0.0
0
LINE
8
CHANNEL
10
1190.0000
20
147.8233
30
0.0
11
1197.0000
21
147.9750
31
0.0
0
LINE
8
CHANNEL
10
1197.0000
20
147.9750
30
0.0
11
1204.0000
21
148.1298
31
0.0
0
LINE
8
CHANNEL
10
1204.0000
20
148.1298
30
0.0
11
1211.0000
21
148.2876
31
0.0
0
LINE
8
CHANNEL
10
1211.0000
20
148.2876
30
0.0
11
1218.0000
21
148.4485
31
0.0
0
LINE
8
CHANNEL
10
1218.0000
20
148.4485
30
0.0
11
1225.0000
21
148.6124
31
0.0
0
LINE
8
CHANNEL
10
1225.0000
20
148.6124
30
0.0
11
1232.0000
21
148.7793
31
0.0
0
LINE
8
CHANNEL
10
1232.0000
20
148.7793
30
0.0
11
1239.0000
21
148.9493
31
0.0
0
LINE
8
CHANNEL
10
1239.0000
20
148.9493
30
0.0
11
1246.0000
21
149.1224
31
0.0
0
LINE
8
CHANNEL
10
1246.0000
20
149.1224
30
0.0
11
1253.0000
21
149.2986
31
0.0
0
LINE
8
CHANNEL
10
1253.0000
20
149.2986
30
0.0
11
1260.0000
21
149.4778
31
0.0
0
LINE
8
CHANNEL
10
1260.0000
20
149.4778
30
0.0
11
1267.0000
21
149.6602
31
0.0
0
LINE
8
CHANNEL
10
1267.0000
20
149.6602
30
0.0
11
1274.0000
21
149.8457
31
0.0
0
LINE
8
CHANNEL
10
1274.0000
20
149.8457
30
0.0
11
1281.0000
21
150.0342
31
0.0
0
LINE
8
CHANNEL
10
1281.0000
20
150.0342
30
0.0
11
1288.0000
21
150.2259
31
0.0
0
LINE
8
CHANNEL
10
1288.0000
20
150.2259
30
0.0
11
1295.0000
21
150.4208
31
0.0
0
LINE
8
CHANNEL
10
1295.0000
20
150.4208
30
0.0
11
1302.0000
21
150.6188
31
0.0
0
LINE
8
CHANNEL
10
1302.0000
20
150.6188
30
0.0
11
1309.0000
21
150.8199
31
0.0
0
LINE
8
CHANNEL
10
1309.0000
20
150.8199
30
0.0
11
1316.0000
21
151.0242
31
0.0
0
LINE
8
CHANNEL
10
1316.0000
20
151.0242
30
0.0
11
1323.0000
21
151.2316
31
0.0
0
LINE
8
CHANNEL
10
1323.0000
20
151.2316
30
0.0
11
1330.0000
21
151.4423
31
0.0
0
LINE
8
CHANNEL
10
1330.0000
20
151.4423
30
0.0
11
1337.0000
21
151.6561
31
0.0
0
LINE
8
CHANNEL
10
1337.0000
20
151.6561
30
0.0
11
1344.0000
21
151.8731
31
0.0
0
LINE
8
CHANNEL
10
1344.0000
20
151.8731
30
0.0
11
1351.0000
21
152.0933
31
0.0
0
LINE
8
CHANNEL
10
1351.0000
20
152.0933
30
0.0
11
1358.0000
21
152.3167
31
0.0
0
LINE
8
CHANNEL
10
1358.0000
20
152.3167
30
0.0
11
1365.0000
21
152.5434
31
0.0
0
LINE
8
CHANNEL
10
1365.0000
20
152.5434
30
0.0
11
1372.0000
21
152.7732
31
0.0
0
LINE
8
CHANNEL
10
1372.0000
20
152.7732
30
0.0
11
1379.0000
21
153.0063
31
0.0
0
LINE
8
CHANNEL
10
1379.0000
20
153.0063
30
0.0
11
1386.0000
21
153.2426
31
0.0
0
LINE
8
CHANNEL
10
1386.0000
20
153.2426
30
0.0
11
1393.0000
21
153.4822
31
0.0
0
LINE
8
CHANNEL
10
1393.0000
20
153.4822
30
0.0
11
1400.0000
21
153.7250
31
0.0
0
LINE
8
REG
10
0.0000
20
0.0000
30
0.0
11
1400.0000
21
0.0000
31
0.0
0
LINE
8
REG
10
1030.0000
20
0.0000
30
0.0
11
1030.0000
21
0.0000
31
0.0
0
LINE
8
REG
10
340.0000
20
0.0000
30
0.0
11
340.0000
21
0.0000
31
0.0
0
ENDSEC
0
EOF
