0
SECTION
2
ENTITIES
0
LINE
8
CUT
10
0.0000
20
0.0000
30
0.0
11
0.0000
21
136.3165
31
0.0
0
LINE
8
CUT
10
0.0000
20
136.3165
30
0.0
11
5.0051
21
234.8023
31
0.0
0
LINE
8
CUT
10
5.0051
20
234.8023
30
0.0
11
10.0101
21
259.1144
31
0.0
0
LINE
8
CUT
10
10.0101
20
259.1144
30
0.0
11
15.0150
21
276.1826
31
0.0
0
LINE
8
CUT
10
15.0150
20
276.1826
30
0.0
11
20.0197
21
289.7489
31
0.0
0
LINE
8
CUT
10
20.0197
20
289.7489
30
0.0
11
25.0243
21
301.1695
31
0.0
0
LINE
8
CUT
10
25.0243
20
301.1695
30
0.0
11
30.0287
21
311.1108
31
0.0
0
LINE
8
CUT
10
30.0287
20
311.1108
30
0.0
11
35.0330
21
319.9565
31
0.0
0
LINE
8
CUT
10
35.0330
20
319.9565
30
0.0
11
40.0372
21
327.9503
31
0.0
0
LINE
8
CUT
10
40.0372
20
327.9503
30
0.0
11
45.0412
21
335.2581
31
0.0
0
LINE
8
CUT
10
45.0412
20
335.2581
30
0.0
11
50.0451
21
341.9986
31
0.0
0
LINE
8
CUT
10
50.0451
20
341.9986
30
0.0
11
55.0489
21
348.2602
31
0.0
0
LINE
8
CUT
10
55.0489
20
348.2602
30
0.0
11
60.0525
21
354.1104
31
0.0
0
LINE
8
CUT
10
60.0525
20
354.1104
30
0.0
11
65.0561
21
359.6027
31
0.0
0
LINE
8
CUT
10
65.0561
20
359.6027
30
0.0
11
70.0595
21
364.7796
31
0.0
0
LINE
8
CUT
10
70.0595
20
364.7796
30
0.0
11
75.0627
21
369.6762
31
0.0
0
LINE
8
CUT
10
75.0627
20
369.6762
30
0.0
11
80.0659
21
374.3213
31
0.0
0
LINE
8
CUT
10
80.0659
20
374.3213
30
0.0
11
85.0690
21
378.7393
31
0.0
0
LINE
8
CUT
10
85.0690
20
378.7393
30
0.0
11
90.0719
21
382.9507
31
0.0
0
LINE
8
CUT
10
90.0719
20
382.9507
30
0.0
11
95.0747
21
386.9733
31
0.0
0
LINE
8
CUT
10
95.0747
20
386.9733
30
0.0
11
100.0774
21
390.8224
31
0.0
0
LINE
8
CUT
10
100.0774
20
390.8224
30
0.0
11
105.0801
21
394.5113
31
0.0
0
LINE
8
CUT
10
105.0801
20
394.5113
30
0.0
11
110.0826
21
398.0518
31
0.0
0
LINE
8
CUT
10
110.0826
20
398.0518
30
0.0
11
115.0850
21
401.4541
31
0.0
0
LINE
8
CUT
10
115.0850
20
401.4541
30
0.0
11
120.0873
21
404.7277
31
0.0
0
LINE
8
CUT
10
120.0873
20
404.7277
30
0.0
11
125.0895
21
407.8806
31
0.0
0
LINE
8
CUT
10
125.0895
20
407.8806
30
0.0
11
130.0916
21
410.9202
31
0.0
0
LINE
8
CUT
10
130.0916
20
410.9202
30
0.0
11
135.0936
21
413.8533
31
0.0
0
LINE
8
CUT
10
135.0936
20
413.8533
30
0.0
11
140.0955
21
416.6859
31
0.0
0
LINE
8
CUT
10
140.0955
20
416.6859
30
0.0
11
145.0974
21
419.4235
31
0.0
0
LINE
8
CUT
10
145.0974
20
419.4235
30
0.0
11
150.0991
21
422.0711
31
0.0
0
LINE
8
CUT
10
150.0991
20
422.0711
30
0.0
11
155.1008
21
424.6332
31
0.0
0
LINE
8
CUT
10
155.1008
20
424.6332
30
0.0
11
160.1024
21
427.1142
31
0.0
0
LINE
8
CUT
10
160.1024
20
427.1142
30
0.0
11
165.1039
21
429.5179
31
0.0
0
LINE
8
CUT
10
165.1039
20
429.5179
30
0.0
11
170.1053
21
431.8479
31
0.0
0
LINE
8
CUT
10
170.1053
20
431.8479
30
0.0
11
175.1066
21
434.1075
31
0.0
0
LINE
8
CUT
10
175.1066
20
434.1075
30
0.0
11
180.1079
21
436.2998
31
0.0
0
LINE
8
CUT
10
180.1079
20
436.2998
30
0.0
11
185.1091
21
438.4277
31
0.0
0
LINE
8
CUT
10
185.1091
20
438.4277
30
0.0
11
190.1102
21
440.4938
31
0.0
0
LINE
8
CUT
10
190.1102
20
440.4938
30
0.0
11
195.1113
21
442.5007
31
0.0
0
LINE
8
CUT
10
195.1113
20
442.5007
30
0.0
11
200.1123
21
444.4507
31
0.0
0
LINE
8
CUT
10
200.1123
20
444.4507
30
0.0
11
205.1132
21
446.3459
31
0.0
0
LINE
8
CUT
10
205.1132
20
446.3459
30
0.0
11
210.1141
21
448.1886
31
0.0
0
LINE
8
CUT
10
210.1141
20
448.1886
30
0.0
11
215.1149
21
449.9805
31
0.0
0
LINE
8
CUT
10
215.1149
20
449.9805
30
0.0
11
220.1156
21
451.7235
31
0.0
0
LINE
8
CUT
10
220.1156
20
451.7235
30
0.0
11
225.1163
21
453.4193
31
0.0
0
LINE
8
CUT
10
225.1163
20
453.4193
30
0.0
11
230.1169
21
455.0696
31
0.0
0
LINE
8
CUT
10
230.1169
20
455.0696
30
0.0
11
235.1175
21
456.6759
31
0.0
0
LINE
8
CUT
10
235.1175
20
456.6759
30
0.0
11
240.1181
21
458.2396
31
0.0
0
LINE
8
CUT
10
240.1181
20
458.2396
30
0.0
11
245.1186
21
459.7622
31
0.0
0
LINE
8
CUT
10
245.1186
20
459.7622
30
0.0
11
250.1190
21
461.2449
31
0.0
0
LINE
8
CUT
10
250.1190
20
461.2449
30
0.0
11
255.1194
21
462.6891
31
0.0
0
LINE
8
CUT
10
255.1194
20
462.6891
30
0.0
11
260.1198
21
464.0958
31
0.0
0
LINE
8
CUT
10
260.1198
20
464.0958
30
0.0
11
265.1201
21
465.4662
31
0.0
0
LINE
8
CUT
10
265.1201
20
465.4662
30
0.0
11
270.1204
21
466.8014
31
0.0
0
LINE
8
CUT
10
270.1204
20
466.8014
30
0.0
11
275.1207
21
468.1024
31
0.0
0
LINE
8
CUT
10
275.1207
20
468.1024
30
0.0
11
280.1209
21
469.3702
31
0.0
0
LINE
8
CUT
10
280.1209
20
469.3702
30
0.0
11
285.1211
21
470.6057
31
0.0
0
LINE
8
CUT
10
285.1211
20
470.6057
30
0.0
11
290.1212
21
471.8098
31
0.0
0
LINE
8
CUT
10
290.1212
20
471.8098
30
0.0
11
295.1214
21
472.9834
31
0.0
0
LINE
8
CUT
10
295.1214
20
472.9834
30
0.0
11
300.1215
21
474.1272
31
0.0
0
LINE
8
CUT
10
300.1215
20
474.1272
30
0.0
11
305.1216
21
475.2421
31
0.0
0
LINE
8
CUT
10
305.1216
20
475.2421
30
0.0
11
310.1217
21
476.3288
31
0.0
0
LINE
8
CUT
10
310.1217
20
476.3288
30
0.0
11
315.1217
21
477.3881
31
0.0
0
LINE
8
CUT
10
315.1217
20
477.3881
30
0.0
11
320.1218
21
478.4205
31
0.0
0
LINE
8
CUT
10
320.1218
20
478.4205
30
0.0
11
325.1218
21
479.4268
31
0.0
0
LINE
8
CUT
10
325.1218
20
479.4268
30
0.0
11
330.1218
21
480.4076
31
0.0
0
LINE
8
CUT
10
330.1218
20
480.4076
30
0.0
11
335.1219
21
481.3634
31
0.0
0
LINE
8
CUT
10
335.1219
20
481.3634
30
0.0
11
340.1219
21
482.2950
31
0.0
0
LINE
8
CUT
10
340.1219
20
482.2950
30
0.0
11
345.1219
21
483.2028
31
0.0
0
LINE
8
CUT
10
345.1219
20
483.2028
30
0.0
11
350.1219
21
484.0873
31
0.0
0
LINE
8
CUT
10
350.1219
20
484.0873
30
0.0
11
355.1219
21
484.9491
31
0.0
0
LINE
8
CUT
10
355.1219
20
484.9491
30
0.0
11
360.1219
21
485.7888
31
0.0
0
LINE
8
CUT
10
360.1219
20
485.7888
30
0.0
11
365.1219
21
486.6066
31
0.0
0
LINE
8
CUT
10
365.1219
20
486.6066
30
0.0
11
370.1219
21
487.4031
31
0.0
0
LINE
8
CUT
10
370.1219
20
487.4031
30
0.0
11
375.1219
21
488.1784
31
0.0
0
LINE
8
CUT
10
375.1219
20
488.1784
30
0.0
11
380.1219
21
488.9305
31
0.0
0
LINE
8
CUT
10
380.1219
20
488.9305
30
0.0
11
385.1219
21
489.6625
31
0.0
0
LINE
8
CUT
10
385.1219
20
489.6625
30
0.0
11
390.1219
21
490.3750
31
0.0
0
LINE
8
CUT
10
390.1219
20
490.3750
30
0.0
11
395.1219
21
491.0683
31
0.0
0
LINE
8
CUT
10
395.1219
20
491.0683
30
0.0
11
400.1219
21
491.7426
31
0.0
0
LINE
8
CUT
10
400.1219
20
491.7426
30
0.0
11
405.1219
21
492.3985
31
0.0
0
LINE
8
CUT
10
405.1219
20
492.3985
30
0.0
11
410.1219
21
493.0362
31
0.0
0
LINE
8
CUT
10
410.1219
20
493.0362
30
0.0
11
415.1219
21
493.6559
31
0.0
0
LINE
8
CUT
10
415.1219
20
493.6559
30
0.0
11
420.1219
21
494.2582
31
0.0
0
LINE
8
CUT
10
420.1219
20
494.2582
30
0.0
11
425.1219
21
494.8431
31
0.0
0
LINE
8
CUT
10
425.1219
20
494.8431
30
0.0
11
430.1219
21
495.4111
31
0.0
0
LINE
8
CUT
10
430.1219
20
495.4111
30
0.0
11
435.1219
21
495.9624
31
0.0
0
LINE
8
CUT
10
435.1219
20
495.9624
30
0.0
11
440.1219
21
496.4972
31
0.0
0
LINE
8
CUT
10
440.1219
20
496.4972
30
0.0
11
445.1219
21
497.0157
31
0.0
0
LINE
8
CUT
10
445.1219
20
497.0157
30
0.0
11
450.1219
21
497.5184
31
0.0
0
LINE
8
CUT
10
450.1219
20
497.5184
30
0.0
11
455.1219
21
498.0053
31
0.0
0
LINE
8
CUT
10
455.1219
20
498.0053
30
0.0
11
460.1219
21
498.4767
31
0.0
0
LINE
8
CUT
10
460.1219
20
498.4767
30
0.0
11
465.1219
21
498.9329
31
0.0
0
LINE
8
CUT
10
465.1219
20
498.9329
30
0.0
11
470.1219
21
499.3740
31
0.0
0
LINE
8
CUT
10
470.1219
20
499.3740
30
0.0
11
475.1219
21
499.8002
31
0.0
0
LINE
8
CUT
10
475.1219
20
499.8002
30
0.0
11
480.1219
21
500.2118
31
0.0
0
LINE
8
CUT
10
480.1219
20
500.2118
30
0.0
11
485.1219
21
500.6089
31
0.0
0
LINE
8
CUT
10
485.1219
20
500.6089
30
0.0
11
490.1219
21
500.9917
31
0.0
0
LINE
8
CUT
10
490.1219
20
500.9917
30
0.0
11
495.1219
21
501.3604
31
0.0
0
LINE
8
CUT
10
495.1219
20
501.3604
30
0.0
11
500.1219
21
501.7153
31
0.0
0
LINE
8
CUT
10
500.1219
20
501.7153
30
0.0
11
505.1219
21
502.0564
31
0.0
0
LINE
8
CUT
10
505.1219
20
502.0564
30
0.0
11
510.1219
21
502.3840
31
0.0
0
LINE
8
CUT
10
510.1219
20
502.3840
30
0.0
11
515.1219
21
502.6982
31
0.0
0
LINE
8
CUT
10
515.1219
20
502.6982
30
0.0
11
520.1219
21
502.9993
31
0.0
0
LINE
8
CUT
10
520.1219
20
502.9993
30
0.0
11
525.1219
21
503.2873
31
0.0
0
LINE
8
CUT
10
525.1219
20
503.2873
30
0.0
11
530.1219
21
503.5626
31
0.0
0
LINE
8
CUT
10
530.1219
20
503.5626
30
0.0
11
535.1219
21
503.8252
31
0.0
0
LINE
8
CUT
10
535.1219
20
503.8252
30
0.0
11
540.1219
21
504.0753
31
0.0
0
LINE
8
CUT
10
540.1219
20
504.0753
30
0.0
11
545.1219
21
504.3131
31
0.0
0
LINE
8
CUT
10
545.1219
20
504.3131
30
0.0
11
550.1219
21
504.5388
31
0.0
0
LINE
8
CUT
10
550.1219
20
504.5388
30
0.0
11
555.1219
21
504.7526
31
0.0
0
LINE
8
CUT
10
555.1219
20
504.7526
30
0.0
11
560.1219
21
504.9547
31
0.0
0
LINE
8
CUT
10
560.1219
20
504.9547
30
0.0
11
565.1219
21
505.1451
31
0.0
0
LINE
8
CUT
10
565.1219
20
505.1451
30
0.0
11
570.1219
21
505.3242
31
0.0
0
LINE
8
CUT
10
570.1219
20
505.3242
30
0.0
11
575.1219
21
505.4921
31
0.0
0
LINE
8
CUT
10
575.1219
20
505.4921
30
0.0
11
580.1219
21
505.6490
31
0.0
0
LINE
8
CUT
10
580.1219
20
505.6490
30
0.0
11
585.1219
21
505.7951
31
0.0
0
LINE
8
CUT
10
585.1219
20
505.7951
30
0.0
11
590.1219
21
505.9306
31
0.0
0
LINE
8
CUT
10
590.1219
20
505.9306
30
0.0
11
595.1219
21
506.0557
31
0.0
0
LINE
8
CUT
10
595.1219
20
506.0557
30
0.0
11
600.1219
21
506.1706
31
0.0
0
LINE
8
CUT
10
600.1219
20
506.1706
30
0.0
11
605.1219
21
506.2755
31
0.0
0
LINE
8
CUT
10
605.1219
20
506.2755
30
0.0
11
610.1219
21
506.3706
31
0.0
0
LINE
8
CUT
10
610.1219
20
506.3706
30
0.0
11
615.1219
21
506.4563
31
0.0
0
LINE
8
CUT
10
615.1219
20
506.4563
30
0.0
11
620.1219
21
506.5327
31
0.0
0
LINE
8
CUT
10
620.1219
20
506.5327
30
0.0
11
625.1219
21
506.6001
31
0.0
0
LINE
8
CUT
10
625.1219
20
506.6001
30
0.0
11
630.1219
21
506.6587
31
0.0
0
LINE
8
CUT
10
630.1219
20
506.6587
30
0.0
11
635.1219
21
506.7090
31
0.0
0
LINE
8
CUT
10
635.1219
20
506.7090
30
0.0
11
640.1219
21
506.7511
31
0.0
0
LINE
8
CUT
10
640.1219
20
506.7511
30
0.0
11
645.1219
21
506.7855
31
0.0
0
LINE
8
CUT
10
645.1219
20
506.7855
30
0.0
11
650.1219
21
506.8125
31
0.0
0
LINE
8
CUT
10
650.1219
20
506.8125
30
0.0
11
655.1219
21
506.8325
31
0.0
0
LINE
8
CUT
10
655.1219
20
506.8325
30
0.0
11
660.1219
21
506.8462
31
0.0
0
LINE
8
CUT
10
660.1219
20
506.8462
30
0.0
11
665.1219
21
506.8541
31
0.0
0
LINE
8
CUT
10
665.1219
20
506.8541
30
0.0
11
670.1219
21
506.8571
31
0.0
0
LINE
8
CUT
10
670.1219
20
506.8571
30
0.0
11
675.1219
21
506.8527
31
0.0
0
LINE
8
CUT
10
675.1219
20
506.8527
30
0.0
11
680.1219
21
506.8276
31
0.0
0
LINE
8
CUT
10
680.1219
20
506.8276
30
0.0
11
685.1219
21
506.7825
31
0.0
0
LINE
8
CUT
10
685.1219
20
506.7825
30
0.0
11
690.1219
21
506.7185
31
0.0
0
LINE
8
CUT
10
690.1219
20
506.7185
30
0.0
11
695.1219
21
506.6361
31
0.0
0
LINE
8
CUT
10
695.1219
20
506.6361
30
0.0
11
700.1219
21
506.5358
31
0.0
0
LINE
8
CUT
10
700.1219
20
506.5358
30
0.0
11
705.1219
21
506.4162
31
0.0
0
LINE
8
CUT
10
705.1219
20
506.4162
30
0.0
11
710.1219
21
506.2757
31
0.0
0
LINE
8
CUT
10
710.1219
20
506.2757
30
0.0
11
715.1219
21
506.1148
31
0.0
0
LINE
8
CUT
10
715.1219
20
506.1148
30
0.0
11
720.1219
21
505.9337
31
0.0
0
LINE
8
CUT
10
720.1219
20
505.9337
30
0.0
11
725.1219
21
505.7329
31
0.0
0
LINE
8
CUT
10
725.1219
20
505.7329
30
0.0
11
730.1219
21
505.5125
31
0.0
0
LINE
8
CUT
10
730.1219
20
505.5125
30
0.0
11
735.1219
21
505.2730
31
0.0
0
LINE
8
CUT
10
735.1219
20
505.2730
30
0.0
11
740.1219
21
505.0145
31
0.0
0
LINE
8
CUT
10
740.1219
20
505.0145
30
0.0
11
745.1219
21
504.7374
31
0.0
0
LINE
8
CUT
10
745.1219
20
504.7374
30
0.0
11
750.1219
21
504.4421
31
0.0
0
LINE
8
CUT
10
750.1219
20
504.4421
30
0.0
11
755.1219
21
504.1286
31
0.0
0
LINE
8
CUT
10
755.1219
20
504.1286
30
0.0
11
760.1219
21
503.7961
31
0.0
0
LINE
8
CUT
10
760.1219
20
503.7961
30
0.0
11
765.1219
21
503.4358
31
0.0
0
LINE
8
CUT
10
765.1219
20
503.4358
30
0.0
11
770.1219
21
503.0583
31
0.0
0
LINE
8
CUT
10
770.1219
20
503.0583
30
0.0
11
775.1219
21
502.6481
31
0.0
0
LINE
8
CUT
10
775.1219
20
502.6481
30
0.0
11
780.1221
21
502.2018
31
0.0
0
LINE
8
CUT
10
780.1221
20
502.2018
30
0.0
11
785.1225
21
501.7240
31
0.0
0
LINE
8
CUT
10
785.1225
20
501.7240
30
0.0
11
790.1232
21
501.2170
31
0.0
0
LINE
8
CUT
10
790.1232
20
501.2170
30
0.0
11
795.1242
21
500.6824
31
0.0
0
LINE
8
CUT
10
795.1242
20
500.6824
30
0.0
11
800.1255
21
500.1213
31
0.0
0
LINE
8
CUT
10
800.1255
20
500.1213
30
0.0
11
805.1271
21
499.5348
31
0.0
0
LINE
8
CUT
10
805.1271
20
499.5348
30
0.0
11
810.1292
21
498.9238
31
0.0
0
LINE
8
CUT
10
810.1292
20
498.9238
30
0.0
11
815.1316
21
498.2889
31
0.0
0
LINE
8
CUT
10
815.1316
20
498.2889
30
0.0
11
820.1345
21
497.6310
31
0.0
0
LINE
8
CUT
10
820.1345
20
497.6310
30
0.0
11
825.1378
21
496.9506
31
0.0
0
LINE
8
CUT
10
825.1378
20
496.9506
30
0.0
11
830.1416
21
496.2483
31
0.0
0
LINE
8
CUT
10
830.1416
20
496.2483
30
0.0
11
835.1459
21
495.5246
31
0.0
0
LINE
8
CUT
10
835.1459
20
495.5246
30
0.0
11
840.1507
21
494.7799
31
0.0
0
LINE
8
CUT
10
840.1507
20
494.7799
30
0.0
11
845.1560
21
494.0146
31
0.0
0
LINE
8
CUT
10
845.1560
20
494.0146
30
0.0
11
850.1620
21
493.2290
31
0.0
0
LINE
8
CUT
10
850.1620
20
493.2290
30
0.0
11
855.1685
21
492.4234
31
0.0
0
LINE
8
CUT
10
855.1685
20
492.4234
30
0.0
11
860.1756
21
491.5980
31
0.0
0
LINE
8
CUT
10
860.1756
20
491.5980
30
0.0
11
865.1833
21
490.7529
31
0.0
0
LINE
8
CUT
10
865.1833
20
490.7529
30
0.0
11
870.1916
21
489.8882
31
0.0
0
LINE
8
CUT
10
870.1916
20
489.8882
30
0.0
11
875.2007
21
489.0039
31
0.0
0
LINE
8
CUT
10
875.2007
20
489.0039
30
0.0
11
880.2104
21
488.1001
31
0.0
0
LINE
8
CUT
10
880.2104
20
488.1001
30
0.0
11
885.2208
21
487.1765
31
0.0
0
LINE
8
CUT
10
885.2208
20
487.1765
30
0.0
11
890.2319
21
486.2331
31
0.0
0
LINE
8
CUT
10
890.2319
20
486.2331
30
0.0
11
895.2438
21
485.2697
31
0.0
0
LINE
8
CUT
10
895.2438
20
485.2697
30
0.0
11
900.2564
21
484.2859
31
0.0
0
LINE
8
CUT
10
900.2564
20
484.2859
30
0.0
11
905.2698
21
483.2815
31
0.0
0
LINE
8
CUT
10
905.2698
20
483.2815
30
0.0
11
910.2841
21
482.2562
31
0.0
0
LINE
8
CUT
10
910.2841
20
482.2562
30
0.0
11
915.2991
21
481.2095
31
0.0
0
LINE
8
CUT
10
915.2991
20
481.2095
30
0.0
11
920.3150
21
480.1410
31
0.0
0
LINE
8
CUT
10
920.3150
20
480.1410
30
0.0
11
925.3318
21
479.0502
31
0.0
0
LINE
8
CUT
10
925.3318
20
479.0502
30
0.0
11
930.3495
21
477.9366
31
0.0
0
LINE
8
CUT
10
930.3495
20
477.9366
30
0.0
11
935.3681
21
476.7998
31
0.0
0
LINE
8
CUT
10
935.3681
20
476.7998
30
0.0
11
940.3876
21
475.6391
31
0.0
0
LINE
8
CUT
10
940.3876
20
475.6391
30
0.0
11
945.4081
21
474.4540
31
0.0
0
LINE
8
CUT
10
945.4081
20
474.4540
30
0.0
11
950.4295
21
473.2439
31
0.0
0
LINE
8
CUT
10
950.4295
20
473.2439
30
0.0
11
955.4520
21
472.0082
31
0.0
0
LINE
8
CUT
10
955.4520
20
472.0082
30
0.0
11
960.4755
21
470.7463
31
0.0
0
LINE
8
CUT
10
960.4755
20
470.7463
30
0.0
11
965.5001
21
469.4577
31
0.0
0
LINE
8
CUT
10
965.5001
20
469.4577
30
0.0
11
970.5257
21
468.1417
31
0.0
0
LINE
8
CUT
10
970.5257
20
468.1417
30
0.0
11
975.5525
21
466.7976
31
0.0
0
LINE
8
CUT
10
975.5525
20
466.7976
30
0.0
11
980.5803
21
465.4251
31
0.0
0
LINE
8
CUT
10
980.5803
20
465.4251
30
0.0
11
985.6094
21
464.0233
31
0.0
0
LINE
8
CUT
10
985.6094
20
464.0233
30
0.0
11
990.6396
21
462.5918
31
0.0
0
LINE
8
CUT
10
990.6396
20
462.5918
30
0.0
11
995.6711
21
461.1299
31
0.0
0
LINE
8
CUT
10
995.6711
20
461.1299
30
0.0
11
1000.7038
21
459.6371
31
0.0
0
LINE
8
CUT
10
1000.7038
20
459.6371
30
0.0
11
1005.7378
21
458.1128
31
0.0
0
LINE
8
CUT
10
1005.7378
20
458.1128
30
0.0
11
1010.7731
21
456.5565
31
0.0
0
LINE
8
CUT
10
1010.7731
20
456.5565
30
0.0
11
1015.8098
21
454.9676
31
0.0
0
LINE
8
CUT
10
1015.8098
20
454.9676
30
0.0
11
1020.8478
21
453.3457
31
0.0
0
LINE
8
CUT
10
1020.8478
20
453.3457
30
0.0
11
1025.8872
21
451.6900
31
0.0
0
LINE
8
CUT
10
1025.8872
20
451.6900
30
0.0
11
1030.9281
21
450.0003
31
0.0
0
LINE
8
CUT
10
1030.9281
20
450.0003
30
0.0
11
1035.9704
21
448.2759
31
0.0
0
LINE
8
CUT
10
1035.9704
20
448.2759
30
0.0
11
1041.0143
21
446.5164
31
0.0
0
LINE
8
CUT
10
1041.0143
20
446.5164
30
0.0
11
1046.0597
21
444.7212
31
0.0
0
LINE
8
CUT
10
1046.0597
20
444.7212
30
0.0
11
1051.1067
21
442.8900
31
0.0
0
LINE
8
CUT
10
1051.1067
20
442.8900
30
0.0
11
1056.1554
21
441.0250
31
0.0
0
LINE
8
CUT
10
1056.1554
20
441.0250
30
0.0
11
1061.2057
21
439.1287
31
0.0
0
LINE
8
CUT
10
1061.2057
20
439.1287
30
0.0
11
1066.2577
21
437.2007
31
0.0
0
LINE
8
CUT
10
1066.2577
20
437.2007
30
0.0
11
1071.3116
21
435.2406
31
0.0
0
LINE
8
CUT
10
1071.3116
20
435.2406
30
0.0
11
1076.3672
21
433.2479
31
0.0
0
LINE
8
CUT
10
1076.3672
20
433.2479
30
0.0
11
1081.4246
21
431.2222
31
0.0
0
LINE
8
CUT
10
1081.4246
20
431.2222
30
0.0
11
1086.4840
21
429.1630
31
0.0
0
LINE
8
CUT
10
1086.4840
20
429.1630
30
0.0
11
1091.5454
21
427.0697
31
0.0
0
LINE
8
CUT
10
1091.5454
20
427.0697
30
0.0
11
1096.6087
21
424.9419
31
0.0
0
LINE
8
CUT
10
1096.6087
20
424.9419
30
0.0
11
1101.6742
21
422.7789
31
0.0
0
LINE
8
CUT
10
1101.6742
20
422.7789
30
0.0
11
1106.7417
21
420.5803
31
0.0
0
LINE
8
CUT
10
1106.7417
20
420.5803
30
0.0
11
1111.8115
21
418.3454
31
0.0
0
LINE
8
CUT
10
1111.8115
20
418.3454
30
0.0
11
1116.8835
21
416.0736
31
0.0
0
LINE
8
CUT
10
1116.8835
20
416.0736
30
0.0
11
1121.9578
21
413.7642
31
0.0
0
LINE
8
CUT
10
1121.9578
20
413.7642
30
0.0
11
1127.0345
21
411.4166
31
0.0
0
LINE
8
CUT
10
1127.0345
20
411.4166
30
0.0
11
1132.1137
21
409.0300
31
0.0
0
LINE
8
CUT
10
1132.1137
20
409.0300
30
0.0
11
1137.1955
21
406.6036
31
0.0
0
LINE
8
CUT
10
1137.1955
20
406.6036
30
0.0
11
1142.2798
21
404.1367
31
0.0
0
LINE
8
CUT
10
1142.2798
20
404.1367
30
0.0
11
1147.3669
21
401.6284
31
0.0
0
LINE
8
CUT
10
1147.3669
20
401.6284
30
0.0
11
1152.4567
21
399.0778
31
0.0
0
LINE
8
CUT
10
1152.4567
20
399.0778
30
0.0
11
1157.5495
21
396.4841
31
0.0
0
LINE
8
CUT
10
1157.5495
20
396.4841
30
0.0
11
1162.6452
21
393.8463
31
0.0
0
LINE
8
CUT
10
1162.6452
20
393.8463
30
0.0
11
1167.7440
21
391.1633
31
0.0
0
LINE
8
CUT
10
1167.7440
20
391.1633
30
0.0
11
1172.8460
21
388.4340
31
0.0
0
LINE
8
CUT
10
1172.8460
20
388.4340
30
0.0
11
1177.9514
21
385.6573
31
0.0
0
LINE
8
CUT
10
1177.9514
20
385.6573
30
0.0
11
1183.0601
21
382.8321
31
0.0
0
LINE
8
CUT
10
1183.0601
20
382.8321
30
0.0
11
1188.1724
21
379.9570
31
0.0
0
LINE
8
CUT
10
1188.1724
20
379.9570
30
0.0
11
1193.2885
21
377.0308
31
0.0
0
LINE
8
CUT
10
1193.2885
20
377.0308
30
0.0
11
1198.4083
21
374.0519
31
0.0
0
LINE
8
CUT
10
1198.4083
20
374.0519
30
0.0
11
1203.5322
21
371.0189
31
0.0
0
LINE
8
CUT
10
1203.5322
20
371.0189
30
0.0
11
1208.6602
21
367.9301
31
0.0
0
LINE
8
CUT
10
1208.6602
20
367.9301
30
0.0
11
1213.7926
21
364.7839
31
0.0
0
LINE
8
CUT
10
1213.7926
20
364.7839
30
0.0
11
1218.9295
21
361.5785
31
0.0
0
LINE
8
CUT
10
1218.9295
20
361.5785
30
0.0
11
1224.0711
21
358.3119
31
0.0
0
LINE
8
CUT
10
1224.0711
20
358.3119
30
0.0
11
1229.2177
21
354.9820
31
0.0
0
LINE
8
CUT
10
1229.2177
20
354.9820
30
0.0
11
1234.3695
21
351.5867
31
0.0
0
LINE
8
CUT
10
1234.3695
20
351.5867
30
0.0
11
1239.5267
21
348.1235
31
0.0
0
LINE
8
CUT
10
1239.5267
20
348.1235
30
0.0
11
1244.6896
21
344.5898
31
0.0
0
LINE
8
CUT
10
1244.6896
20
344.5898
30
0.0
11
1249.8585
21
340.9830
31
0.0
0
LINE
8
CUT
10
1249.8585
20
340.9830
30
0.0
11
1255.0338
21
337.3000
31
0.0
0
LINE
8
CUT
10
1255.0338
20
337.3000
30
0.0
11
1260.2157
21
333.5377
31
0.0
0
LINE
8
CUT
10
1260.2157
20
333.5377
30
0.0
11
1265.4047
21
329.6925
31
0.0
0
LINE
8
CUT
10
1265.4047
20
329.6925
30
0.0
11
1270.6012
21
325.7606
31
0.0
0
LINE
8
CUT
10
1270.6012
20
325.7606
30
0.0
11
1275.8056
21
321.7379
31
0.0
0
LINE
8
CUT
10
1275.8056
20
321.7379
30
0.0
11
1281.0185
21
317.6199
31
0.0
0
LINE
8
CUT
10
1281.0185
20
317.6199
30
0.0
11
1286.2404
21
313.4015
31
0.0
0
LINE
8
CUT
10
1286.2404
20
313.4015
30
0.0
11
1291.4720
21
309.0772
31
0.0
0
LINE
8
CUT
10
1291.4720
20
309.0772
30
0.0
11
1296.7139
21
304.6411
31
0.0
0
LINE
8
CUT
10
1296.7139
20
304.6411
30
0.0
11
1301.9670
21
300.0862
31
0.0
0
LINE
8
CUT
10
1301.9670
20
300.0862
30
0.0
11
1307.2321
21
295.4051
31
0.0
0
LINE
8
CUT
10
1307.2321
20
295.4051
30
0.0
11
1312.5103
21
290.5892
31
0.0
0
LINE
8
CUT
10
1312.5103
20
290.5892
30
0.0
11
1317.8028
21
285.6290
31
0.0
0
LINE
8
CUT
10
1317.8028
20
285.6290
30
0.0
11
1323.1108
21
280.5134
31
0.0
0
LINE
8
CUT
10
1323.1108
20
280.5134
30
0.0
11
1328.4360
21
275.2301
31
0.0
0
LINE
8
CUT
10
1328.4360
20
275.2301
30
0.0
11
1333.7802
21
269.7646
31
0.0
0
LINE
8
CUT
10
1333.7802
20
269.7646
30
0.0
11
1339.1456
21
264.0999
31
0.0
0
LINE
8
CUT
10
1339.1456
20
264.0999
30
0.0
11
1344.5347
21
258.2164
31
0.0
0
LINE
8
CUT
10
1344.5347
20
258.2164
30
0.0
11
1349.9507
21
252.0904
31
0.0
0
LINE
8
CUT
10
1349.9507
20
252.0904
30
0.0
11
1355.3976
21
245.6934
31
0.0
0
LINE
8
CUT
10
1355.3976
20
245.6934
30
0.0
11
1360.8801
21
238.9903
31
0.0
0
LINE
8
CUT
10
1360.8801
20
238.9903
30
0.0
11
1366.4045
21
231.9375
31
0.0
0
LINE
8
CUT
10
1366.4045
20
231.9375
30
0.0
11
1371.9790
21
224.4790
31
0.0
0
LINE
8
CUT
10
1371.9790
20
224.4790
30
0.0
11
1377.6147
21
216.5409
31
0.0
0
LINE
8
CUT
10
1377.6147
20
216.5409
30
0.0
11
1383.3270
21
208.0227
31
0.0
0
LINE
8
CUT
10
1383.3270
20
208.0227
30
0.0
11
1389.1388
21
198.7808
31
0.0
0
LINE
8
CUT
10
1389.1388
20
198.7808
30
0.0
11
1395.0862
21
188.5969
31
0.0
0
LINE
8
CUT
10
1395.0862
20
188.5969
30
0.0
11
1401.2318
21
177.1071
31
0.0
0
LINE
8
CUT
10
1401.2318
20
177.1071
30
0.0
11
1407.7018
21
163.6122
31
0.0
0
LINE
8
CUT
10
1407.7018
20
163.6122
30
0.0
11
1414.8348
21
146.3422
31
0.0
0
LINE
8
CUT
10
1414.8348
20
146.3422
30
0.0
11
1426.0021
21
108.2972
31
0.0
0
LINE
8
CUT
10
1426.0021
20
108.2972
30
0.0
11
1426.0021
21
0.0000
31
0.0
0
LINE
8
CUT
10
1426.0021
20
0.0000
30
0.0
11
0.0000
21
0.0000
31
0.0
0
LINE
8
CHANNEL
10
0.0000
20
44.3880
30
0.0
11
5.0051
21
78.7615
31
0.0
0
LINE
8
CHANNEL
10
5.0051
20
78.7615
30
0.0
11
10.0101
21
90.7556
31
0.0
0
LINE
8
CHANNEL
10
10.0101
20
90.7556
30
0.0
11
15.0150
21
99.5792
31
0.0
0
LINE
8
CHANNEL
10
15.0150
20
99.5792
30
0.0
11
20.0197
21
106.8014
31
0.0
0
LINE
8
CHANNEL
10
20.0197
20
106.8014
30
0.0
11
25.0243
21
113.0148
31
0.0
0
LINE
8
CHANNEL
10
25.0243
20
113.0148
30
0.0
11
30.0287
21
118.5184
31
0.0
0
LINE
8
CHANNEL
10
30.0287
20
118.5184
30
0.0
11
35.0330
21
123.4878
31
0.0
0
LINE
8
CHANNEL
10
35.0330
20
123.4878
30
0.0
11
40.0372
21
128.0363
31
0.0
0
LINE
8
CHANNEL
10
40.0372
20
128.0363
30
0.0
11
45.0412
21
132.2420
31
0.0
0
LINE
8
CHANNEL
10
45.0412
20
132.2420
30
0.0
11
50.0451
21
136.1613
31
0.0
0
LINE
8
CHANNEL
10
50.0451
20
136.1613
30
0.0
11
55.0489
21
139.8367
31
0.0
0
LINE
8
CHANNEL
10
55.0489
20
139.8367
30
0.0
11
60.0525
21
143.3009
31
0.0
0
LINE
8
CHANNEL
10
60.0525
20
143.3009
30
0.0
11
65.0561
21
146.5799
31
0.0
0
LINE
8
CHANNEL
10
65.0561
20
146.5799
30
0.0
11
70.0595
21
149.6947
31
0.0
0
LINE
8
CHANNEL
10
70.0595
20
149.6947
30
0.0
11
75.0627
21
152.6624
31
0.0
0
LINE
8
CHANNEL
10
75.0627
20
152.6624
30
0.0
11
80.0659
21
155.4975
31
0.0
0
LINE
8
CHANNEL
10
80.0659
20
155.4975
30
0.0
11
85.0690
21
158.2121
31
0.0
0
LINE
8
CHANNEL
10
85.0690
20
158.2121
30
0.0
11
90.0719
21
160.8165
31
0.0
0
LINE
8
CHANNEL
10
90.0719
20
160.8165
30
0.0
11
95.0747
21
163.3195
31
0.0
0
LINE
8
CHANNEL
10
95.0747
20
163.3195
30
0.0
11
100.0774
21
165.7289
31
0.0
0
LINE
8
CHANNEL
10
100.0774
20
165.7289
30
0.0
11
105.0801
21
168.0515
31
0.0
0
LINE
8
CHANNEL
10
105.0801
20
168.0515
30
0.0
11
110.0826
21
170.2932
31
0.0
0
LINE
8
CHANNEL
10
110.0826
20
170.2932
30
0.0
11
115.0850
21
172.4593
31
0.0
0
LINE
8
CHANNEL
10
115.0850
20
172.4593
30
0.0
11
120.0873
21
174.5544
31
0.0
0
LINE
8
CHANNEL
10
120.0873
20
174.5544
30
0.0
11
125.0895
21
176.5828
31
0.0
0
LINE
8
CHANNEL
10
125.0895
20
176.5828
30
0.0
11
130.0916
21
178.5483
31
0.0
0
LINE
8
CHANNEL
10
130.0916
20
178.5483
30
0.0
11
135.0936
21
180.4542
31
0.0
0
LINE
8
CHANNEL
10
135.0936
20
180.4542
30
0.0
11
140.0955
21
182.3038
31
0.0
0
LINE
8
CHANNEL
10
140.0955
20
182.3038
30
0.0
11
145.0974
21
184.0997
31
0.0
0
LINE
8
CHANNEL
10
145.0974
20
184.0997
30
0.0
11
150.0991
21
185.8447
31
0.0
0
LINE
8
CHANNEL
10
150.0991
20
185.8447
30
0.0
11
155.1008
21
187.5410
31
0.0
0
LINE
8
CHANNEL
10
155.1008
20
187.5410
30
0.0
11
160.1024
21
189.1909
31
0.0
0
LINE
8
CHANNEL
10
160.1024
20
189.1909
30
0.0
11
165.1039
21
190.7964
31
0.0
0
LINE
8
CHANNEL
10
165.1039
20
190.7964
30
0.0
11
170.1053
21
192.3592
31
0.0
0
LINE
8
CHANNEL
10
170.1053
20
192.3592
30
0.0
11
175.1066
21
193.8812
31
0.0
0
LINE
8
CHANNEL
10
175.1066
20
193.8812
30
0.0
11
180.1079
21
195.3639
31
0.0
0
LINE
8
CHANNEL
10
180.1079
20
195.3639
30
0.0
11
185.1091
21
196.8089
31
0.0
0
LINE
8
CHANNEL
10
185.1091
20
196.8089
30
0.0
11
190.1102
21
198.2174
31
0.0
0
LINE
8
CHANNEL
10
190.1102
20
198.2174
30
0.0
11
195.1113
21
199.5908
31
0.0
0
LINE
8
CHANNEL
10
195.1113
20
199.5908
30
0.0
11
200.1123
21
200.9304
31
0.0
0
LINE
8
CHANNEL
10
200.1123
20
200.9304
30
0.0
11
205.1132
21
202.2371
31
0.0
0
LINE
8
CHANNEL
10
205.1132
20
202.2371
30
0.0
11
210.1141
21
203.5122
31
0.0
0
LINE
8
CHANNEL
10
210.1141
20
203.5122
30
0.0
11
215.1149
21
204.7566
31
0.0
0
LINE
8
CHANNEL
10
215.1149
20
204.7566
30
0.0
11
220.1156
21
205.9713
31
0.0
0
LINE
8
CHANNEL
10
220.1156
20
205.9713
30
0.0
11
225.1163
21
207.1571
31
0.0
0
LINE
8
CHANNEL
10
225.1163
20
207.1571
30
0.0
11
230.1169
21
208.3149
31
0.0
0
LINE
8
CHANNEL
10
230.1169
20
208.3149
30
0.0
11
235.1175
21
209.4455
31
0.0
0
LINE
8
CHANNEL
10
235.1175
20
209.4455
30
0.0
11
240.1181
21
210.5497
31
0.0
0
LINE
8
CHANNEL
10
240.1181
20
210.5497
30
0.0
11
245.1186
21
211.6281
31
0.0
0
LINE
8
CHANNEL
10
245.1186
20
211.6281
30
0.0
11
250.1190
21
212.6815
31
0.0
0
LINE
8
CHANNEL
10
250.1190
20
212.6815
30
0.0
11
255.1194
21
213.7104
31
0.0
0
LINE
8
CHANNEL
10
255.1194
20
213.7104
30
0.0
11
260.1198
21
214.7156
31
0.0
0
LINE
8
CHANNEL
10
260.1198
20
214.7156
30
0.0
11
265.1201
21
215.6976
31
0.0
0
LINE
8
CHANNEL
10
265.1201
20
215.6976
30
0.0
11
270.1204
21
216.6569
31
0.0
0
LINE
8
CHANNEL
10
270.1204
20
216.6569
30
0.0
11
275.1207
21
217.5940
31
0.0
0
LINE
8
CHANNEL
10
275.1207
20
217.5940
30
0.0
11
280.1209
21
218.5096
31
0.0
0
LINE
8
CHANNEL
10
280.1209
20
218.5096
30
0.0
11
285.1211
21
219.4041
31
0.0
0
LINE
8
CHANNEL
10
285.1211
20
219.4041
30
0.0
11
290.1212
21
220.2779
31
0.0
0
LINE
8
CHANNEL
10
290.1212
20
220.2779
30
0.0
11
295.1214
21
221.1315
31
0.0
0
LINE
8
CHANNEL
10
295.1214
20
221.1315
30
0.0
11
300.1215
21
221.9653
31
0.0
0
LINE
8
CHANNEL
10
300.1215
20
221.9653
30
0.0
11
305.1216
21
222.7798
31
0.0
0
LINE
8
CHANNEL
10
305.1216
20
222.7798
30
0.0
11
310.1217
21
223.5752
31
0.0
0
LINE
8
CHANNEL
10
310.1217
20
223.5752
30
0.0
11
315.1217
21
224.3521
31
0.0
0
LINE
8
CHANNEL
10
315.1217
20
224.3521
30
0.0
11
320.1218
21
225.1108
31
0.0
0
LINE
8
CHANNEL
10
320.1218
20
225.1108
30
0.0
11
325.1218
21
225.8515
31
0.0
0
LINE
8
CHANNEL
10
325.1218
20
225.8515
30
0.0
11
330.1218
21
226.5747
31
0.0
0
LINE
8
CHANNEL
10
330.1218
20
226.5747
30
0.0
11
335.1219
21
227.2807
31
0.0
0
LINE
8
CHANNEL
10
335.1219
20
227.2807
30
0.0
11
340.1219
21
227.9698
31
0.0
0
LINE
8
CHANNEL
10
340.1219
20
227.9698
30
0.0
11
345.1219
21
228.6422
31
0.0
0
LINE
8
CHANNEL
10
345.1219
20
228.6422
30
0.0
11
350.1219
21
229.2984
31
0.0
0
LINE
8
CHANNEL
10
350.1219
20
229.2984
30
0.0
11
355.1219
21
229.9385
31
0.0
0
LINE
8
CHANNEL
10
355.1219
20
229.9385
30
0.0
11
360.1219
21
230.5628
31
0.0
0
LINE
8
CHANNEL
10
360.1219
20
230.5628
30
0.0
11
365.1219
21
231.1717
31
0.0
0
LINE
8
CHANNEL
10
365.1219
20
231.1717
30
0.0
11
370.1219
21
231.7653
31
0.0
0
LINE
8
CHANNEL
10
370.1219
20
231.7653
30
0.0
11
375.1219
21
232.3439
31
0.0
0
LINE
8
CHANNEL
10
375.1219
20
232.3439
30
0.0
11
380.1219
21
232.9077
31
0.0
0
LINE
8
CHANNEL
10
380.1219
20
232.9077
30
0.0
11
385.1219
21
233.4570
31
0.0
0
LINE
8
CHANNEL
10
385.1219
20
233.4570
30
0.0
11
390.1219
21
233.9920
31
0.0
0
LINE
8
CHANNEL
10
390.1219
20
233.9920
30
0.0
11
395.1219
21
234.5130
31
0.0
0
LINE
8
CHANNEL
10
395.1219
20
234.5130
30
0.0
11
400.1219
21
235.0201
31
0.0
0
LINE
8
CHANNEL
10
400.1219
20
235.0201
30
0.0
11
405.1219
21
235.5135
31
0.0
0
LINE
8
CHANNEL
10
405.1219
20
235.5135
30
0.0
11
410.1219
21
235.9934
31
0.0
0
LINE
8
CHANNEL
10
410.1219
20
235.9934
30
0.0
11
415.1219
21
236.4601
31
0.0
0
LINE
8
CHANNEL
10
415.1219
20
236.4601
30
0.0
11
420.1219
21
236.9137
31
0.0
0
LINE
8
CHANNEL
10
420.1219
20
236.9137
30
0.0
11
425.1219
21
237.3545
31
0.0
0
LINE
8
CHANNEL
10
425.1219
20
237.3545
30
0.0
11
430.1219
21
237.7825
31
0.0
0
LINE
8
CHANNEL
10
430.1219
20
237.7825
30
0.0
11
435.1219
21
238.1980
31
0.0
0
LINE
8
CHANNEL
10
435.1219
20
238.1980
30
0.0
11
440.1219
21
238.6012
31
0.0
0
LINE
8
CHANNEL
10
440.1219
20
238.6012
30
0.0
11
445.1219
21
238.9922
31
0.0
0
LINE
8
CHANNEL
10
445.1219
20
238.9922
30
0.0
11
450.1219
21
239.3711
31
0.0
0
LINE
8
CHANNEL
10
450.1219
20
239.3711
30
0.0
11
455.1219
21
239.7383
31
0.0
0
LINE
8
CHANNEL
10
455.1219
20
239.7383
30
0.0
11
460.1219
21
240.0937
31
0.0
0
LINE
8
CHANNEL
10
460.1219
20
240.0937
30
0.0
11
465.1219
21
240.4376
31
0.0
0
LINE
8
CHANNEL
10
465.1219
20
240.4376
30
0.0
11
470.1219
21
240.7701
31
0.0
0
LINE
8
CHANNEL
10
470.1219
20
240.7701
30
0.0
11
475.1219
21
241.0914
31
0.0
0
LINE
8
CHANNEL
10
475.1219
20
241.0914
30
0.0
11
480.1219
21
241.4016
31
0.0
0
LINE
8
CHANNEL
10
480.1219
20
241.4016
30
0.0
11
485.1219
21
241.7009
31
0.0
0
LINE
8
CHANNEL
10
485.1219
20
241.7009
30
0.0
11
490.1219
21
241.9894
31
0.0
0
LINE
8
CHANNEL
10
490.1219
20
241.9894
30
0.0
11
495.1219
21
242.2673
31
0.0
0
LINE
8
CHANNEL
10
495.1219
20
242.2673
30
0.0
11
500.1219
21
242.5347
31
0.0
0
LINE
8
CHANNEL
10
500.1219
20
242.5347
30
0.0
11
505.1219
21
242.7917
31
0.0
0
LINE
8
CHANNEL
10
505.1219
20
242.7917
30
0.0
11
510.1219
21
243.0385
31
0.0
0
LINE
8
CHANNEL
10
510.1219
20
243.0385
30
0.0
11
515.1219
21
243.2752
31
0.0
0
LINE
8
CHANNEL
10
515.1219
20
243.2752
30
0.0
11
520.1219
21
243.5019
31
0.0
0
LINE
8
CHANNEL
10
520.1219
20
243.5019
30
0.0
11
525.1219
21
243.7189
31
0.0
0
LINE
8
CHANNEL
10
525.1219
20
243.7189
30
0.0
11
530.1219
21
243.9262
31
0.0
0
LINE
8
CHANNEL
10
530.1219
20
243.9262
30
0.0
11
535.1219
21
244.1239
31
0.0
0
LINE
8
CHANNEL
10
535.1219
20
244.1239
30
0.0
11
540.1219
21
244.3123
31
0.0
0
LINE
8
CHANNEL
10
540.1219
20
244.3123
30
0.0
11
545.1219
21
244.4914
31
0.0
0
LINE
8
CHANNEL
10
545.1219
20
244.4914
30
0.0
11
550.1219
21
244.6613
31
0.0
0
LINE
8
CHANNEL
10
550.1219
20
244.6613
30
0.0
11
555.1219
21
244.8223
31
0.0
0
LINE
8
CHANNEL
10
555.1219
20
244.8223
30
0.0
11
560.1219
21
244.9744
31
0.0
0
LINE
8
CHANNEL
10
560.1219
20
244.9744
30
0.0
11
565.1219
21
245.1178
31
0.0
0
LINE
8
CHANNEL
10
565.1219
20
245.1178
30
0.0
11
570.1219
21
245.2526
31
0.0
0
LINE
8
CHANNEL
10
570.1219
20
245.2526
30
0.0
11
575.1219
21
245.3790
31
0.0
0
LINE
8
CHANNEL
10
575.1219
20
245.3790
30
0.0
11
580.1219
21
245.4971
31
0.0
0
LINE
8
CHANNEL
10
580.1219
20
245.4971
30
0.0
11
585.1219
21
245.6071
31
0.0
0
LINE
8
CHANNEL
10
585.1219
20
245.6071
30
0.0
11
590.1219
21
245.7090
31
0.0
0
LINE
8
CHANNEL
10
590.1219
20
245.7090
30
0.0
11
595.1219
21
245.8032
31
0.0
0
LINE
8
CHANNEL
10
595.1219
20
245.8032
30
0.0
11
600.1219
21
245.8896
31
0.0
0
LINE
8
CHANNEL
10
600.1219
20
245.8896
30
0.0
11
605.1219
21
245.9686
31
0.0
0
LINE
8
CHANNEL
10
605.1219
20
245.9686
30
0.0
11
610.1219
21
246.0402
31
0.0
0
LINE
8
CHANNEL
10
610.1219
20
246.0402
30
0.0
11
615.1219
21
246.1047
31
0.0
0
LINE
8
CHANNEL
10
615.1219
20
246.1047
30
0.0
11
620.1219
21
246.1622
31
0.0
0
LINE
8
CHANNEL
10
620.1219
20
246.1622
30
0.0
11
625.1219
21
246.2129
31
0.0
0
LINE
8
CHANNEL
10
625.1219
20
246.2129
30
0.0
11
630.1219
21
246.2571
31
0.0
0
LINE
8
CHANNEL
10
630.1219
20
246.2571
30
0.0
11
635.1219
21
246.2949
31
0.0
0
LINE
8
CHANNEL
10
635.1219
20
246.2949
30
0.0
11
640.1219
21
246.3266
31
0.0
0
LINE
8
CHANNEL
10
640.1219
20
246.3266
30
0.0
11
645.1219
21
246.3524
31
0.0
0
LINE
8
CHANNEL
10
645.1219
20
246.3524
30
0.0
11
650.1219
21
246.3727
31
0.0
0
LINE
8
CHANNEL
10
650.1219
20
246.3727
30
0.0
11
655.1219
21
246.3878
31
0.0
0
LINE
8
CHANNEL
10
655.1219
20
246.3878
30
0.0
11
660.1219
21
246.3981
31
0.0
0
LINE
8
CHANNEL
10
660.1219
20
246.3981
30
0.0
11
665.1219
21
246.4041
31
0.0
0
LINE
8
CHANNEL
10
665.1219
20
246.4041
30
0.0
11
670.1219
21
246.4063
31
0.0
0
LINE
8
CHANNEL
10
670.1219
20
246.4063
30
0.0
11
675.1219
21
246.4030
31
0.0
0
LINE
8
CHANNEL
10
675.1219
20
246.4030
30
0.0
11
680.1219
21
246.3841
31
0.0
0
LINE
8
CHANNEL
10
680.1219
20
246.3841
30
0.0
11
685.1219
21
246.3502
31
0.0
0
LINE
8
CHANNEL
10
685.1219
20
246.3502
30
0.0
11
690.1219
21
246.3020
31
0.0
0
LINE
8
CHANNEL
10
690.1219
20
246.3020
30
0.0
11
695.1219
21
246.2400
31
0.0
0
LINE
8
CHANNEL
10
695.1219
20
246.2400
30
0.0
11
700.1219
21
246.1646
31
0.0
0
LINE
8
CHANNEL
10
700.1219
20
246.1646
30
0.0
11
705.1219
21
246.0759
31
0.0
0
LINE
8
CHANNEL
10
705.1219
20
246.0759
30
0.0
11
710.1219
21
245.9741
31
0.0
0
LINE
8
CHANNEL
10
710.1219
20
245.9741
30
0.0
11
715.1219
21
245.8596
31
0.0
0
LINE
8
CHANNEL
10
715.1219
20
245.8596
30
0.0
11
720.1219
21
245.7322
31
0.0
0
LINE
8
CHANNEL
10
720.1219
20
245.7322
30
0.0
11
725.1219
21
245.5923
31
0.0
0
LINE
8
CHANNEL
10
725.1219
20
245.5923
30
0.0
11
730.1219
21
245.4399
31
0.0
0
LINE
8
CHANNEL
10
730.1219
20
245.4399
30
0.0
11
735.1219
21
245.2751
31
0.0
0
LINE
8
CHANNEL
10
735.1219
20
245.2751
30
0.0
11
740.1219
21
245.0980
31
0.0
0
LINE
8
CHANNEL
10
740.1219
20
245.0980
30
0.0
11
745.1219
21
244.9086
31
0.0
0
LINE
8
CHANNEL
10
745.1219
20
244.9086
30
0.0
11
750.1219
21
244.7069
31
0.0
0
LINE
8
CHANNEL
10
750.1219
20
244.7069
30
0.0
11
755.1219
21
244.4932
31
0.0
0
LINE
8
CHANNEL
10
755.1219
20
244.4932
30
0.0
11
760.1219
21
244.2673
31
0.0
0
LINE
8
CHANNEL
10
760.1219
20
244.2673
30
0.0
11
765.1219
21
244.0293
31
0.0
0
LINE
8
CHANNEL
10
765.1219
20
244.0293
30
0.0
11
770.1219
21
243.7793
31
0.0
0
LINE
8
CHANNEL
10
770.1219
20
243.7793
30
0.0
11
775.1219
21
243.5172
31
0.0
0
LINE
8
CHANNEL
10
775.1219
20
243.5172
30
0.0
11
780.1221
21
243.2432
31
0.0
0
LINE
8
CHANNEL
10
780.1221
20
243.2432
30
0.0
11
785.1225
21
242.9572
31
0.0
0
LINE
8
CHANNEL
10
785.1225
20
242.9572
30
0.0
11
790.1232
21
242.6591
31
0.0
0
LINE
8
CHANNEL
10
790.1232
20
242.6591
30
0.0
11
795.1242
21
242.3492
31
0.0
0
LINE
8
CHANNEL
10
795.1242
20
242.3492
30
0.0
11
800.1255
21
242.0272
31
0.0
0
LINE
8
CHANNEL
10
800.1255
20
242.0272
30
0.0
11
805.1271
21
241.6933
31
0.0
0
LINE
8
CHANNEL
10
805.1271
20
241.6933
30
0.0
11
810.1292
21
241.3474
31
0.0
0
LINE
8
CHANNEL
10
810.1292
20
241.3474
30
0.0
11
815.1316
21
240.9895
31
0.0
0
LINE
8
CHANNEL
10
815.1316
20
240.9895
30
0.0
11
820.1345
21
240.6196
31
0.0
0
LINE
8
CHANNEL
10
820.1345
20
240.6196
30
0.0
11
825.1378
21
240.2377
31
0.0
0
LINE
8
CHANNEL
10
825.1378
20
240.2377
30
0.0
11
830.1416
21
239.8438
31
0.0
0
LINE
8
CHANNEL
10
830.1416
20
239.8438
30
0.0
11
835.1459
21
239.4379
31
0.0
0
LINE
8
CHANNEL
10
835.1459
20
239.4379
30
0.0
11
840.1507
21
239.0198
31
0.0
0
LINE
8
CHANNEL
10
840.1507
20
239.0198
30
0.0
11
845.1560
21
238.5897
31
0.0
0
LINE
8
CHANNEL
10
845.1560
20
238.5897
30
0.0
11
850.1620
21
238.1474
31
0.0
0
LINE
8
CHANNEL
10
850.1620
20
238.1474
30
0.0
11
855.1685
21
237.6929
31
0.0
0
LINE
8
CHANNEL
10
855.1685
20
237.6929
30
0.0
11
860.1756
21
237.2262
31
0.0
0
LINE
8
CHANNEL
10
860.1756
20
237.2262
30
0.0
11
865.1833
21
236.7473
31
0.0
0
LINE
8
CHANNEL
10
865.1833
20
236.7473
30
0.0
11
870.1916
21
236.2561
31
0.0
0
LINE
8
CHANNEL
10
870.1916
20
236.2561
30
0.0
11
875.2007
21
235.7525
31
0.0
0
LINE
8
CHANNEL
10
875.2007
20
235.7525
30
0.0
11
880.2104
21
235.2365
31
0.0
0
LINE
8
CHANNEL
10
880.2104
20
235.2365
30
0.0
11
885.2208
21
234.7081
31
0.0
0
LINE
8
CHANNEL
10
885.2208
20
234.7081
30
0.0
11
890.2319
21
234.1672
31
0.0
0
LINE
8
CHANNEL
10
890.2319
20
234.1672
30
0.0
11
895.2438
21
233.6137
31
0.0
0
LINE
8
CHANNEL
10
895.2438
20
233.6137
30
0.0
11
900.2564
21
233.0476
31
0.0
0
LINE
8
CHANNEL
10
900.2564
20
233.0476
30
0.0
11
905.2698
21
232.4688
31
0.0
0
LINE
8
CHANNEL
10
905.2698
20
232.4688
30
0.0
11
910.2841
21
231.8772
31
0.0
0
LINE
8
CHANNEL
10
910.2841
20
231.8772
30
0.0
11
915.2991
21
231.2728
31
0.0
0
LINE
8
CHANNEL
10
915.2991
20
231.2728
30
0.0
11
920.3150
21
230.6554
31
0.0
0
LINE
8
CHANNEL
10
920.3150
20
230.6554
30
0.0
11
925.3318
21
230.0251
31
0.0
0
LINE
8
CHANNEL
10
925.3318
20
230.0251
30
0.0
11
930.3495
21
229.3817
31
0.0
0
LINE
8
CHANNEL
10
930.3495
20
229.3817
30
0.0
11
935.3681
21
228.7251
31
0.0
0
LINE
8
CHANNEL
10
935.3681
20
228.7251
30
0.0
11
940.3876
21
228.0552
31
0.0
0
LINE
8
CHANNEL
10
940.3876
20
228.0552
30
0.0
11
945.4081
21
227.3720
31
0.0
0
LINE
8
CHANNEL
10
945.4081
20
227.3720
30
0.0
11
950.4295
21
226.6753
31
0.0
0
LINE
8
CHANNEL
10
950.4295
20
226.6753
30
0.0
11
955.4520
21
225.9650
31
0.0
0
LINE
8
CHANNEL
10
955.4520
20
225.9650
30
0.0
11
960.4755
21
225.2411
31
0.0
0
LINE
8
CHANNEL
10
960.4755
20
225.2411
30
0.0
11
965.5001
21
224.5034
31
0.0
0
LINE
8
CHANNEL
10
965.5001
20
224.5034
30
0.0
11
970.5257
21
223.7518
31
0.0
0
LINE
8
CHANNEL
10
970.5257
20
223.7518
30
0.0
11
975.5525
21
222.9862
31
0.0
0
LINE
8
CHANNEL
10
975.5525
20
222.9862
30
0.0
11
980.5803
21
222.2064
31
0.0
0
LINE
8
CHANNEL
10
980.5803
20
222.2064
30
0.0
11
985.6094
21
221.4123
31
0.0
0
LINE
8
CHANNEL
10
985.6094
20
221.4123
30
0.0
11
990.6396
21
220.6038
31
0.0
0
LINE
8
CHANNEL
10
990.6396
20
220.6038
30
0.0
11
995.6711
21
219.7807
31
0.0
0
LINE
8
CHANNEL
10
995.6711
20
219.7807
30
0.0
11
1000.7038
21
218.9430
31
0.0
0
LINE
8
CHANNEL
10
1000.7038
20
218.9430
30
0.0
11
1005.7378
21
218.0903
31
0.0
0
LINE
8
CHANNEL
10
1005.7378
20
218.0903
30
0.0
11
1010.7731
21
217.2227
31
0.0
0
LINE
8
CHANNEL
10
1010.7731
20
217.2227
30
0.0
11
1015.8098
21
216.3398
31
0.0
0
LINE
8
CHANNEL
10
1015.8098
20
216.3398
30
0.0
11
1020.8478
21
215.4416
31
0.0
0
LINE
8
CHANNEL
10
1020.8478
20
215.4416
30
0.0
11
1025.8872
21
214.5279
31
0.0
0
LINE
8
CHANNEL
10
1025.8872
20
214.5279
30
0.0
11
1030.9281
21
213.5984
31
0.0
0
LINE
8
CHANNEL
10
1030.9281
20
213.5984
30
0.0
11
1035.9704
21
212.6531
31
0.0
0
LINE
8
CHANNEL
10
1035.9704
20
212.6531
30
0.0
11
1041.0143
21
211.6916
31
0.0
0
LINE
8
CHANNEL
10
1041.0143
20
211.6916
30
0.0
11
1046.0597
21
210.7138
31
0.0
0
LINE
8
CHANNEL
10
1046.0597
20
210.7138
30
0.0
11
1051.1067
21
209.7194
31
0.0
0
LINE
8
CHANNEL
10
1051.1067
20
209.7194
30
0.0
11
1056.1554
21
208.7083
31
0.0
0
LINE
8
CHANNEL
10
1056.1554
20
208.7083
30
0.0
11
1061.2057
21
207.6802
31
0.0
0
LINE
8
CHANNEL
10
1061.2057
20
207.6802
30
0.0
11
1066.2577
21
206.6349
31
0.0
0
LINE
8
CHANNEL
10
1066.2577
20
206.6349
30
0.0
11
1071.3116
21
205.5720
31
0.0
0
LINE
8
CHANNEL
10
1071.3116
20
205.5720
30
0.0
11
1076.3672
21
204.4914
31
0.0
0
LINE
8
CHANNEL
10
1076.3672
20
204.4914
30
0.0
11
1081.4246
21
203.3928
31
0.0
0
LINE
8
CHANNEL
10
1081.4246
20
203.3928
30
0.0
11
1086.4840
21
202.2759
31
0.0
0
LINE
8
CHANNEL
10
1086.4840
20
202.2759
30
0.0
11
1091.5454
21
201.1403
31
0.0
0
LINE
8
CHANNEL
10
1091.5454
20
201.1403
30
0.0
11
1096.6087
21
199.9859
31
0.0
0
LINE
8
CHANNEL
10
1096.6087
20
199.9859
30
0.0
11
1101.6742
21
198.8122
31
0.0
0
LINE
8
CHANNEL
10
1101.6742
20
198.8122
30
0.0
11
1106.7417
21
197.6189
31
0.0
0
LINE
8
CHANNEL
10
1106.7417
20
197.6189
30
0.0
11
1111.8115
21
196.4057
31
0.0
0
LINE
8
CHANNEL
10
1111.8115
20
196.4057
30
0.0
11
1116.8835
21
195.1722
31
0.0
0
LINE
8
CHANNEL
10
1116.8835
20
195.1722
30
0.0
11
1121.9578
21
193.9180
31
0.0
0
LINE
8
CHANNEL
10
1121.9578
20
193.9180
30
0.0
11
1127.0345
21
192.6427
31
0.0
0
LINE
8
CHANNEL
10
1127.0345
20
192.6427
30
0.0
11
1132.1137
21
191.3459
31
0.0
0
LINE
8
CHANNEL
10
1132.1137
20
191.3459
30
0.0
11
1137.1955
21
190.0272
31
0.0
0
LINE
8
CHANNEL
10
1137.1955
20
190.0272
30
0.0
11
1142.2798
21
188.6860
31
0.0
0
LINE
8
CHANNEL
10
1142.2798
20
188.6860
30
0.0
11
1147.3669
21
187.3220
31
0.0
0
LINE
8
CHANNEL
10
1147.3669
20
187.3220
30
0.0
11
1152.4567
21
185.9345
31
0.0
0
LINE
8
CHANNEL
10
1152.4567
20
185.9345
30
0.0
11
1157.5495
21
184.5231
31
0.0
0
LINE
8
CHANNEL
10
1157.5495
20
184.5231
30
0.0
11
1162.6452
21
183.0873
31
0.0
0
LINE
8
CHANNEL
10
1162.6452
20
183.0873
30
0.0
11
1167.7440
21
181.6263
31
0.0
0
LINE
8
CHANNEL
10
1167.7440
20
181.6263
30
0.0
11
1172.8460
21
180.1396
31
0.0
0
LINE
8
CHANNEL
10
1172.8460
20
180.1396
30
0.0
11
1177.9514
21
178.6265
31
0.0
0
LINE
8
CHANNEL
10
1177.9514
20
178.6265
30
0.0
11
1183.0601
21
177.0864
31
0.0
0
LINE
8
CHANNEL
10
1183.0601
20
177.0864
30
0.0
11
1188.1724
21
175.5185
31
0.0
0
LINE
8
CHANNEL
10
1188.1724
20
175.5185
30
0.0
11
1193.2885
21
173.9220
31
0.0
0
LINE
8
CHANNEL
10
1193.2885
20
173.9220
30
0.0
11
1198.4083
21
172.2961
31
0.0
0
LINE
8
CHANNEL
10
1198.4083
20
172.2961
30
0.0
11
1203.5322
21
170.6400
31
0.0
0
LINE
8
CHANNEL
10
1203.5322
20
170.6400
30
0.0
11
1208.6602
21
168.9526
31
0.0
0
LINE
8
CHANNEL
10
1208.6602
20
168.9526
30
0.0
11
1213.7926
21
167.2331
31
0.0
0
LINE
8
CHANNEL
10
1213.7926
20
167.2331
30
0.0
11
1218.9295
21
165.4804
31
0.0
0
LINE
8
CHANNEL
10
1218.9295
20
165.4804
30
0.0
11
1224.0711
21
163.6933
31
0.0
0
LINE
8
CHANNEL
10
1224.0711
20
163.6933
30
0.0
11
1229.2177
21
161.8707
31
0.0
0
LINE
8
CHANNEL
10
1229.2177
20
161.8707
30
0.0
11
1234.3695
21
160.0112
31
0.0
0
LINE
8
CHANNEL
10
1234.3695
20
160.0112
30
0.0
11
1239.5267
21
158.1136
31
0.0
0
LINE
8
CHANNEL
10
1239.5267
20
158.1136
30
0.0
11
1244.6896
21
156.1763
31
0.0
0
LINE
8
CHANNEL
10
1244.6896
20
156.1763
30
0.0
11
1249.8585
21
154.1977
31
0.0
0
LINE
8
CHANNEL
10
1249.8585
20
154.1977
30
0.0
11
1255.0338
21
152.1762
31
0.0
0
LINE
8
CHANNEL
10
1255.0338
20
152.1762
30
0.0
11
1260.2157
21
150.1098
31
0.0
0
LINE
8
CHANNEL
10
1260.2157
20
150.1098
30
0.0
11
1265.4047
21
147.9966
31
0.0
0
LINE
8
CHANNEL
10
1265.4047
20
147.9966
30
0.0
11
1270.6012
21
145.8343
31
0.0
0
LINE
8
CHANNEL
10
1270.6012
20
145.8343
30
0.0
11
1275.8056
21
143.6206
31
0.0
0
LINE
8
CHANNEL
10
1275.8056
20
143.6206
30
0.0
11
1281.0185
21
141.3528
31
0.0
0
LINE
8
CHANNEL
10
1281.0185
20
141.3528
30
0.0
11
1286.2404
21
139.0280
31
0.0
0
LINE
8
CHANNEL
10
1286.2404
20
139.0280
30
0.0
11
1291.4720
21
136.6431
31
0.0
0
LINE
8
CHANNEL
10
1291.4720
20
136.6431
30
0.0
11
1296.7139
21
134.1945
31
0.0
0
LINE
8
CHANNEL
10
1296.7139
20
134.1945
30
0.0
11
1301.9670
21
131.6783
31
0.0
0
LINE
8
CHANNEL
10
1301.9670
20
131.6783
30
0.0
11
1307.2321
21
129.0901
31
0.0
0
LINE
8
CHANNEL
10
1307.2321
20
129.0901
30
0.0
11
1312.5103
21
126.4251
31
0.0
0
LINE
8
CHANNEL
10
1312.5103
20
126.4251
30
0.0
11
1317.8028
21
123.6775
31
0.0
0
LINE
8
CHANNEL
10
1317.8028
20
123.6775
30
0.0
11
1323.1108
21
120.8411
31
0.0
0
LINE
8
CHANNEL
10
1323.1108
20
120.8411
30
0.0
11
1328.4360
21
117.9087
31
0.0
0
LINE
8
CHANNEL
10
1328.4360
20
117.9087
30
0.0
11
1333.7802
21
114.8717
31
0.0
0
LINE
8
CHANNEL
10
1333.7802
20
114.8717
30
0.0
11
1339.1456
21
111.7204
31
0.0
0
LINE
8
CHANNEL
10
1339.1456
20
111.7204
30
0.0
11
1344.5347
21
108.4433
31
0.0
0
LINE
8
CHANNEL
10
1344.5347
20
108.4433
30
0.0
11
1349.9507
21
105.0265
31
0.0
0
LINE
8
CHANNEL
10
1349.9507
20
105.0265
30
0.0
11
1355.3976
21
101.4534
31
0.0
0
LINE
8
CHANNEL
10
1355.3976
20
101.4534
30
0.0
11
1360.8801
21
97.7035
31
0.0
0
LINE
8
CHANNEL
10
1360.8801
20
97.7035
30
0.0
11
1366.4045
21
93.7513
31
0.0
0
LINE
8
CHANNEL
10
1366.4045
20
93.7513
30
0.0
11
1371.9790
21
89.5637
31
0.0
0
LINE
8
CHANNEL
10
1371.9790
20
89.5637
30
0.0
11
1377.6147
21
85.0975
31
0.0
0
LINE
8
CHANNEL
10
1377.6147
20
85.0975
30
0.0
11
1383.3270
21
80.2934
31
0.0
0
LINE
8
CHANNEL
10
1383.3270
20
80.2934
30
0.0
11
1389.1388
21
75.0666
31
0.0
0
LINE
8
CHANNEL
10
1389.1388
20
75.0666
30
0.0
11
1395.0862
21
69.2877
31
0.0
0
LINE
8
CHANNEL
10
1395.0862
20
69.2877
30
0.0
11
1401.2318
21
62.7406
31
0.0
0
LINE
8
CHANNEL
10
1401.2318
20
62.7406
30
0.0
11
1407.7018
21
55.0076
31
0.0
0
LINE
8
CHANNEL
10
1407.7018
20
55.0076
30
0.0
11
1414.8348
21
45.0244
31
0.0
0
LINE
8
CHANNEL
10
1414.8348
20
45.0244
30
0.0
11
1426.0021
21
22.2479
31
0.0
0
LINE
8
HOLES
10
5.0051
20
234.8023
30
0.0
11
5.0051
21
88.7615
31
0.0
0
LINE
8
HOLES
10
10.0101
20
259.1144
30
0.0
11
10.0101
21
100.7556
31
0.0
0
LINE
8
HOLES
10
15.0150
20
276.1826
30
0.0
11
15.0150
21
109.5792
31
0.0
0
LINE
8
HOLES
10
25.0243
20
301.1695
30
0.0
11
25.0243
21
123.0148
31
0.0
0
LINE
8
HOLES
10
40.0372
20
327.9503
30
0.0
11
40.0372
21
138.0363
31
0.0
0
LINE
8
HOLES
10
60.0525
20
354.1104
30
0.0
11
60.0525
21
153.3009
31
0.0
0
LINE
8
HOLES
10
100.0774
20
390.8224
30
0.0
11
100.0774
21
175.7289
31
0.0
0
LINE
8
HOLES
10
165.1039
20
429.5179
30
0.0
11
165.1039
21
200.7964
31
0.0
0
LINE
8
HOLES
10
290.1212
20
471.8098
30
0.0
11
290.1212
21
230.2779
31
0.0
0
LINE
8
HOLES
10
560.1219
20
504.9547
30
0.0
11
560.1219
21
254.9744
31
0.0
0
LINE
8
HOLES
10
890.2319
20
486.2331
30
0.0
11
890.2319
21
244.1672
31
0.0
0
LINE
8
HOLES
10
1121.9578
20
413.7642
30
0.0
11
1121.9578
21
203.9180
31
0.0
0
LINE
8
HOLES
10
1255.0338
20
337.3000
30
0.0
11
1255.0338
21
162.1762
31
0.0
0
LINE
8
HOLES
10
1323.1108
20
280.5134
30
0.0
11
1323.1108
21
130.8411
31
0.0
0
LINE
8
HOLES
10
1360.8801
20
238.9903
30
0.0
11
1360.8801
21
107.7035
31
0.0
0
LINE
8
HOLES
10
1383.3270
20
208.0227
30
0.0
11
1383.3270
21
90.2934
31
0.0
0
LINE
8
HOLES
10
1401.2318
20
177.1071
30
0.0
11
1401.2318
21
72.7406
31
0.0
0
LINE
8
HOLES
10
1407.7018
20
163.6122
30
0.0
11
1407.7018
21
65.0076
31
0.0
0
LINE
8
HOLES
10
1414.8348
20
146.3422
30
0.0
11
1414.8348
21
55.0244
31
0.0
0
LINE
8
HOLES
10
1426.0021
20
108.2972
30
0.0
11
1426.0021
21
32.2479
31
0.0
0
LINE
8
HOLES
10
1426.0021
20
108.2972
30
0.0
11
1426.0021
21
32.2479
31
0.0
0
ENDSEC
0
EOF
