0
SECTION
2
ENTITIES
0
LINE
8
CUT
10
0.0000
20
0.0000
30
0.0
11
0.0000
21
137.0695
31
0.0
0
LINE
8
CUT
10
0.0000
20
137.0695
30
0.0
11
5.0051
21
238.2007
31
0.0
0
LINE
8
CUT
10
5.0051
20
238.2007
30
0.0
11
10.0101
21
262.9074
31
0.0
0
LINE
8
CUT
10
10.0101
20
262.9074
30
0.0
11
15.0150
21
280.2239
31
0.0
0
LINE
8
CUT
10
15.0150
20
280.2239
30
0.0
11
20.0197
21
293.9724
31
0.0
0
LINE
8
CUT
10
20.0197
20
293.9724
30
0.0
11
25.0243
21
305.5366
31
0.0
0
LINE
8
CUT
10
25.0243
20
305.5366
30
0.0
11
30.0287
21
315.5959
31
0.0
0
LINE
8
CUT
10
30.0287
20
315.5959
30
0.0
11
35.0330
21
324.5413
31
0.0
0
LINE
8
CUT
10
35.0330
20
324.5413
30
0.0
11
40.0372
21
332.6208
31
0.0
0
LINE
8
CUT
10
40.0372
20
332.6208
30
0.0
11
45.0412
21
340.0034
31
0.0
0
LINE
8
CUT
10
45.0412
20
340.0034
30
0.0
11
50.0451
21
346.8098
31
0.0
0
LINE
8
CUT
10
50.0451
20
346.8098
30
0.0
11
55.0489
21
353.1300
31
0.0
0
LINE
8
CUT
10
55.0489
20
353.1300
30
0.0
11
60.0525
21
359.0328
31
0.0
0
LINE
8
CUT
10
60.0525
20
359.0328
30
0.0
11
65.0561
21
364.5722
31
0.0
0
LINE
8
CUT
10
65.0561
20
364.5722
30
0.0
11
70.0595
21
369.7918
31
0.0
0
LINE
8
CUT
10
70.0595
20
369.7918
30
0.0
11
75.0627
21
374.7270
31
0.0
0
LINE
8
CUT
10
75.0627
20
374.7270
30
0.0
11
80.0659
21
379.4073
31
0.0
0
LINE
8
CUT
10
80.0659
20
379.4073
30
0.0
11
85.0690
21
383.8573
31
0.0
0
LINE
8
CUT
10
85.0690
20
383.8573
30
0.0
11
90.0719
21
388.0979
31
0.0
0
LINE
8
CUT
10
90.0719
20
388.0979
30
0.0
11
95.0747
21
392.1472
31
0.0
0
LINE
8
CUT
10
95.0747
20
392.1472
30
0.0
11
100.0774
21
396.0207
31
0.0
0
LINE
8
CUT
10
100.0774
20
396.0207
30
0.0
11
105.0801
21
399.7320
31
0.0
0
LINE
8
CUT
10
105.0801
20
399.7320
30
0.0
11
110.0826
21
403.2929
31
0.0
0
LINE
8
CUT
10
110.0826
20
403.2929
30
0.0
11
115.0850
21
406.7140
31
0.0
0
LINE
8
CUT
10
115.0850
20
406.7140
30
0.0
11
120.0873
21
410.0047
31
0.0
0
LINE
8
CUT
10
120.0873
20
410.0047
30
0.0
11
125.0895
21
413.1732
31
0.0
0
LINE
8
CUT
10
125.0895
20
413.1732
30
0.0
11
130.0916
21
416.2272
31
0.0
0
LINE
8
CUT
10
130.0916
20
416.2272
30
0.0
11
135.0936
21
419.1734
31
0.0
0
LINE
8
CUT
10
135.0936
20
419.1734
30
0.0
11
140.0955
21
422.0179
31
0.0
0
LINE
8
CUT
10
140.0955
20
422.0179
30
0.0
11
145.0974
21
424.7663
31
0.0
0
LINE
8
CUT
10
145.0974
20
424.7663
30
0.0
11
150.0991
21
427.4237
31
0.0
0
LINE
8
CUT
10
150.0991
20
427.4237
30
0.0
11
155.1008
21
429.9948
31
0.0
0
LINE
8
CUT
10
155.1008
20
429.9948
30
0.0
11
160.1024
21
432.4839
31
0.0
0
LINE
8
CUT
10
160.1024
20
432.4839
30
0.0
11
165.1039
21
434.8948
31
0.0
0
LINE
8
CUT
10
165.1039
20
434.8948
30
0.0
11
170.1053
21
437.2312
31
0.0
0
LINE
8
CUT
10
170.1053
20
437.2312
30
0.0
11
175.1066
21
439.4966
31
0.0
0
LINE
8
CUT
10
175.1066
20
439.4966
30
0.0
11
180.1079
21
441.6940
31
0.0
0
LINE
8
CUT
10
180.1079
20
441.6940
30
0.0
11
185.1091
21
443.8264
31
0.0
0
LINE
8
CUT
10
185.1091
20
443.8264
30
0.0
11
190.1102
21
445.8965
31
0.0
0
LINE
8
CUT
10
190.1102
20
445.8965
30
0.0
11
195.1113
21
447.9067
31
0.0
0
LINE
8
CUT
10
195.1113
20
447.9067
30
0.0
11
200.1123
21
449.8596
31
0.0
0
LINE
8
CUT
10
200.1123
20
449.8596
30
0.0
11
205.1132
21
451.7572
31
0.0
0
LINE
8
CUT
10
205.1132
20
451.7572
30
0.0
11
210.1141
21
453.6018
31
0.0
0
LINE
8
CUT
10
210.1141
20
453.6018
30
0.0
11
215.1149
21
455.3952
31
0.0
0
LINE
8
CUT
10
215.1149
20
455.3952
30
0.0
11
220.1156
21
457.1393
31
0.0
0
LINE
8
CUT
10
220.1156
20
457.1393
30
0.0
11
225.1163
21
458.8360
31
0.0
0
LINE
8
CUT
10
225.1163
20
458.8360
30
0.0
11
230.1169
21
460.4867
31
0.0
0
LINE
8
CUT
10
230.1169
20
460.4867
30
0.0
11
235.1175
21
462.0931
31
0.0
0
LINE
8
CUT
10
235.1175
20
462.0931
30
0.0
11
240.1181
21
463.6567
31
0.0
0
LINE
8
CUT
10
240.1181
20
463.6567
30
0.0
11
245.1186
21
465.1789
31
0.0
0
LINE
8
CUT
10
245.1186
20
465.1789
30
0.0
11
250.1190
21
466.6609
31
0.0
0
LINE
8
CUT
10
250.1190
20
466.6609
30
0.0
11
255.1194
21
468.1042
31
0.0
0
LINE
8
CUT
10
255.1194
20
468.1042
30
0.0
11
260.1198
21
469.5097
31
0.0
0
LINE
8
CUT
10
260.1198
20
469.5097
30
0.0
11
265.1201
21
470.8788
31
0.0
0
LINE
8
CUT
10
265.1201
20
470.8788
30
0.0
11
270.1204
21
472.2125
31
0.0
0
LINE
8
CUT
10
270.1204
20
472.2125
30
0.0
11
275.1207
21
473.5119
31
0.0
0
LINE
8
CUT
10
275.1207
20
473.5119
30
0.0
11
280.1209
21
474.7778
31
0.0
0
LINE
8
CUT
10
280.1209
20
474.7778
30
0.0
11
285.1211
21
476.0114
31
0.0
0
LINE
8
CUT
10
285.1211
20
476.0114
30
0.0
11
290.1212
21
477.2134
31
0.0
0
LINE
8
CUT
10
290.1212
20
477.2134
30
0.0
11
295.1214
21
478.3848
31
0.0
0
LINE
8
CUT
10
295.1214
20
478.3848
30
0.0
11
300.1215
21
479.5264
31
0.0
0
LINE
8
CUT
10
300.1215
20
479.5264
30
0.0
11
305.1216
21
480.6389
31
0.0
0
LINE
8
CUT
10
305.1216
20
480.6389
30
0.0
11
310.1217
21
481.7231
31
0.0
0
LINE
8
CUT
10
310.1217
20
481.7231
30
0.0
11
315.1217
21
482.7798
31
0.0
0
LINE
8
CUT
10
315.1217
20
482.7798
30
0.0
11
320.1218
21
483.8097
31
0.0
0
LINE
8
CUT
10
320.1218
20
483.8097
30
0.0
11
325.1218
21
484.8133
31
0.0
0
LINE
8
CUT
10
325.1218
20
484.8133
30
0.0
11
330.1218
21
485.7915
31
0.0
0
LINE
8
CUT
10
330.1218
20
485.7915
30
0.0
11
335.1219
21
486.7446
31
0.0
0
LINE
8
CUT
10
335.1219
20
486.7446
30
0.0
11
340.1219
21
487.6735
31
0.0
0
LINE
8
CUT
10
340.1219
20
487.6735
30
0.0
11
345.1219
21
488.5785
31
0.0
0
LINE
8
CUT
10
345.1219
20
488.5785
30
0.0
11
350.1219
21
489.4603
31
0.0
0
LINE
8
CUT
10
350.1219
20
489.4603
30
0.0
11
355.1219
21
490.3194
31
0.0
0
LINE
8
CUT
10
355.1219
20
490.3194
30
0.0
11
360.1219
21
491.1563
31
0.0
0
LINE
8
CUT
10
360.1219
20
491.1563
30
0.0
11
365.1219
21
491.9714
31
0.0
0
LINE
8
CUT
10
365.1219
20
491.9714
30
0.0
11
370.1219
21
492.7652
31
0.0
0
LINE
8
CUT
10
370.1219
20
492.7652
30
0.0
11
375.1219
21
493.5382
31
0.0
0
LINE
8
CUT
10
375.1219
20
493.5382
30
0.0
11
380.1219
21
494.2908
31
0.0
0
LINE
8
CUT
10
380.1219
20
494.2908
30
0.0
11
385.1219
21
495.0234
31
0.0
0
LINE
8
CUT
10
385.1219
20
495.0234
30
0.0
11
390.1219
21
495.7363
31
0.0
0
LINE
8
CUT
10
390.1219
20
495.7363
30
0.0
11
395.1219
21
496.4300
31
0.0
0
LINE
8
CUT
10
395.1219
20
496.4300
30
0.0
11
400.1219
21
497.1048
31
0.0
0
LINE
8
CUT
10
400.1219
20
497.1048
30
0.0
11
405.1219
21
497.7611
31
0.0
0
LINE
8
CUT
10
405.1219
20
497.7611
30
0.0
11
410.1219
21
498.3992
31
0.0
0
LINE
8
CUT
10
410.1219
20
498.3992
30
0.0
11
415.1219
21
499.0194
31
0.0
0
LINE
8
CUT
10
415.1219
20
499.0194
30
0.0
11
420.1219
21
499.6220
31
0.0
0
LINE
8
CUT
10
420.1219
20
499.6220
30
0.0
11
425.1219
21
500.2073
31
0.0
0
LINE
8
CUT
10
425.1219
20
500.2073
30
0.0
11
430.1219
21
500.7757
31
0.0
0
LINE
8
CUT
10
430.1219
20
500.7757
30
0.0
11
435.1219
21
501.3273
31
0.0
0
LINE
8
CUT
10
435.1219
20
501.3273
30
0.0
11
440.1219
21
501.8625
31
0.0
0
LINE
8
CUT
10
440.1219
20
501.8625
30
0.0
11
445.1219
21
502.3814
31
0.0
0
LINE
8
CUT
10
445.1219
20
502.3814
30
0.0
11
450.1219
21
502.8844
31
0.0
0
LINE
8
CUT
10
450.1219
20
502.8844
30
0.0
11
455.1219
21
503.3717
31
0.0
0
LINE
8
CUT
10
455.1219
20
503.3717
30
0.0
11
460.1219
21
503.8434
31
0.0
0
LINE
8
CUT
10
460.1219
20
503.8434
30
0.0
11
465.1219
21
504.2999
31
0.0
0
LINE
8
CUT
10
465.1219
20
504.2999
30
0.0
11
470.1219
21
504.7413
31
0.0
0
LINE
8
CUT
10
470.1219
20
504.7413
30
0.0
11
475.1219
21
505.1679
31
0.0
0
LINE
8
CUT
10
475.1219
20
505.1679
30
0.0
11
480.1219
21
505.5798
31
0.0
0
LINE
8
CUT
10
480.1219
20
505.5798
30
0.0
11
485.1219
21
505.9772
31
0.0
0
LINE
8
CUT
10
485.1219
20
505.9772
30
0.0
11
490.1219
21
506.3603
31
0.0
0
LINE
8
CUT
10
490.1219
20
506.3603
30
0.0
11
495.1219
21
506.7294
31
0.0
0
LINE
8
CUT
10
495.1219
20
506.7294
30
0.0
11
500.1219
21
507.0845
31
0.0
0
LINE
8
CUT
10
500.1219
20
507.0845
30
0.0
11
505.1219
21
507.4259
31
0.0
0
LINE
8
CUT
10
505.1219
20
507.4259
30
0.0
11
510.1219
21
507.7538
31
0.0
0
LINE
8
CUT
10
510.1219
20
507.7538
30
0.0
11
515.1219
21
508.0683
31
0.0
0
LINE
8
CUT
10
515.1219
20
508.0683
30
0.0
11
520.1219
21
508.3688
31
0.0
0
LINE
8
CUT
10
520.1219
20
508.3688
30
0.0
11
525.1219
21
508.6559
31
0.0
0
LINE
8
CUT
10
525.1219
20
508.6559
30
0.0
11
530.1219
21
508.9301
31
0.0
0
LINE
8
CUT
10
530.1219
20
508.9301
30
0.0
11
535.1219
21
509.1918
31
0.0
0
LINE
8
CUT
10
535.1219
20
509.1918
30
0.0
11
540.1219
21
509.4411
31
0.0
0
LINE
8
CUT
10
540.1219
20
509.4411
30
0.0
11
545.1219
21
509.6781
31
0.0
0
LINE
8
CUT
10
545.1219
20
509.6781
30
0.0
11
550.1219
21
509.9030
31
0.0
0
LINE
8
CUT
10
550.1219
20
509.9030
30
0.0
11
555.1219
21
510.1160
31
0.0
0
LINE
8
CUT
10
555.1219
20
510.1160
30
0.0
11
560.1219
21
510.3174
31
0.0
0
LINE
8
CUT
10
560.1219
20
510.3174
30
0.0
11
565.1219
21
510.5072
31
0.0
0
LINE
8
CUT
10
565.1219
20
510.5072
30
0.0
11
570.1219
21
510.6857
31
0.0
0
LINE
8
CUT
10
570.1219
20
510.6857
30
0.0
11
575.1219
21
510.8530
31
0.0
0
LINE
8
CUT
10
575.1219
20
510.8530
30
0.0
11
580.1219
21
511.0093
31
0.0
0
LINE
8
CUT
10
580.1219
20
511.0093
30
0.0
11
585.1219
21
511.1549
31
0.0
0
LINE
8
CUT
10
585.1219
20
511.1549
30
0.0
11
590.1219
21
511.2899
31
0.0
0
LINE
8
CUT
10
590.1219
20
511.2899
30
0.0
11
595.1219
21
511.4146
31
0.0
0
LINE
8
CUT
10
595.1219
20
511.4146
30
0.0
11
600.1219
21
511.5291
31
0.0
0
LINE
8
CUT
10
600.1219
20
511.5291
30
0.0
11
605.1219
21
511.6336
31
0.0
0
LINE
8
CUT
10
605.1219
20
511.6336
30
0.0
11
610.1219
21
511.7285
31
0.0
0
LINE
8
CUT
10
610.1219
20
511.7285
30
0.0
11
615.1219
21
511.8138
31
0.0
0
LINE
8
CUT
10
615.1219
20
511.8138
30
0.0
11
620.1219
21
511.8900
31
0.0
0
LINE
8
CUT
10
620.1219
20
511.8900
30
0.0
11
625.1219
21
511.9571
31
0.0
0
LINE
8
CUT
10
625.1219
20
511.9571
30
0.0
11
630.1219
21
512.0156
31
0.0
0
LINE
8
CUT
10
630.1219
20
512.0156
30
0.0
11
635.1219
21
512.0656
31
0.0
0
LINE
8
CUT
10
635.1219
20
512.0656
30
0.0
11
640.1219
21
512.1076
31
0.0
0
LINE
8
CUT
10
640.1219
20
512.1076
30
0.0
11
645.1219
21
512.1419
31
0.0
0
LINE
8
CUT
10
645.1219
20
512.1419
30
0.0
11
650.1219
21
512.1688
31
0.0
0
LINE
8
CUT
10
650.1219
20
512.1688
30
0.0
11
655.1219
21
512.1888
31
0.0
0
LINE
8
CUT
10
655.1219
20
512.1888
30
0.0
11
660.1219
21
512.2024
31
0.0
0
LINE
8
CUT
10
660.1219
20
512.2024
30
0.0
11
665.1219
21
512.2103
31
0.0
0
LINE
8
CUT
10
665.1219
20
512.2103
30
0.0
11
670.1219
21
512.2133
31
0.0
0
LINE
8
CUT
10
670.1219
20
512.2133
30
0.0
11
675.1219
21
512.2089
31
0.0
0
LINE
8
CUT
10
675.1219
20
512.2089
30
0.0
11
680.1219
21
512.1838
31
0.0
0
LINE
8
CUT
10
680.1219
20
512.1838
30
0.0
11
685.1219
21
512.1389
31
0.0
0
LINE
8
CUT
10
685.1219
20
512.1389
30
0.0
11
690.1219
21
512.0751
31
0.0
0
LINE
8
CUT
10
690.1219
20
512.0751
30
0.0
11
695.1219
21
511.9930
31
0.0
0
LINE
8
CUT
10
695.1219
20
511.9930
30
0.0
11
700.1219
21
511.8931
31
0.0
0
LINE
8
CUT
10
700.1219
20
511.8931
30
0.0
11
705.1219
21
511.7738
31
0.0
0
LINE
8
CUT
10
705.1219
20
511.7738
30
0.0
11
710.1219
21
511.6335
31
0.0
0
LINE
8
CUT
10
710.1219
20
511.6335
30
0.0
11
715.1219
21
511.4727
31
0.0
0
LINE
8
CUT
10
715.1219
20
511.4727
30
0.0
11
720.1219
21
511.2916
31
0.0
0
LINE
8
CUT
10
720.1219
20
511.2916
30
0.0
11
725.1219
21
511.0906
31
0.0
0
LINE
8
CUT
10
725.1219
20
511.0906
30
0.0
11
730.1219
21
510.8649
31
0.0
0
LINE
8
CUT
10
730.1219
20
510.8649
30
0.0
11
735.1219
21
510.6184
31
0.0
0
LINE
8
CUT
10
735.1219
20
510.6184
30
0.0
11
740.1219
21
510.3523
31
0.0
0
LINE
8
CUT
10
740.1219
20
510.3523
30
0.0
11
745.1219
21
510.0670
31
0.0
0
LINE
8
CUT
10
745.1219
20
510.0670
30
0.0
11
750.1219
21
509.7629
31
0.0
0
LINE
8
CUT
10
750.1219
20
509.7629
30
0.0
11
755.1219
21
509.4404
31
0.0
0
LINE
8
CUT
10
755.1219
20
509.4404
30
0.0
11
760.1219
21
509.1000
31
0.0
0
LINE
8
CUT
10
760.1219
20
509.1000
30
0.0
11
765.1219
21
508.7421
31
0.0
0
LINE
8
CUT
10
765.1219
20
508.7421
30
0.0
11
770.1219
21
508.3671
31
0.0
0
LINE
8
CUT
10
770.1219
20
508.3671
30
0.0
11
775.1219
21
507.9588
31
0.0
0
LINE
8
CUT
10
775.1219
20
507.9588
30
0.0
11
780.1221
21
507.5135
31
0.0
0
LINE
8
CUT
10
780.1221
20
507.5135
30
0.0
11
785.1226
21
507.0360
31
0.0
0
LINE
8
CUT
10
785.1226
20
507.0360
30
0.0
11
790.1233
21
506.5289
31
0.0
0
LINE
8
CUT
10
790.1233
20
506.5289
30
0.0
11
795.1244
21
505.9937
31
0.0
0
LINE
8
CUT
10
795.1244
20
505.9937
30
0.0
11
800.1258
21
505.4316
31
0.0
0
LINE
8
CUT
10
800.1258
20
505.4316
30
0.0
11
805.1276
21
504.8437
31
0.0
0
LINE
8
CUT
10
805.1276
20
504.8437
30
0.0
11
810.1298
21
504.2309
31
0.0
0
LINE
8
CUT
10
810.1298
20
504.2309
30
0.0
11
815.1324
21
503.5940
31
0.0
0
LINE
8
CUT
10
815.1324
20
503.5940
30
0.0
11
820.1356
21
502.9337
31
0.0
0
LINE
8
CUT
10
820.1356
20
502.9337
30
0.0
11
825.1392
21
502.2507
31
0.0
0
LINE
8
CUT
10
825.1392
20
502.2507
30
0.0
11
830.1433
21
501.5454
31
0.0
0
LINE
8
CUT
10
830.1433
20
501.5454
30
0.0
11
835.1480
21
500.8185
31
0.0
0
LINE
8
CUT
10
835.1480
20
500.8185
30
0.0
11
840.1532
21
500.0703
31
0.0
0
LINE
8
CUT
10
840.1532
20
500.0703
30
0.0
11
845.1590
21
499.3013
31
0.0
0
LINE
8
CUT
10
845.1590
20
499.3013
30
0.0
11
850.1654
21
498.5117
31
0.0
0
LINE
8
CUT
10
850.1654
20
498.5117
30
0.0
11
855.1725
21
497.7017
31
0.0
0
LINE
8
CUT
10
855.1725
20
497.7017
30
0.0
11
860.1802
21
496.8717
31
0.0
0
LINE
8
CUT
10
860.1802
20
496.8717
30
0.0
11
865.1885
21
496.0217
31
0.0
0
LINE
8
CUT
10
865.1885
20
496.0217
30
0.0
11
870.1976
21
495.1518
31
0.0
0
LINE
8
CUT
10
870.1976
20
495.1518
30
0.0
11
875.2074
21
494.2621
31
0.0
0
LINE
8
CUT
10
875.2074
20
494.2621
30
0.0
11
880.2179
21
493.3523
31
0.0
0
LINE
8
CUT
10
880.2179
20
493.3523
30
0.0
11
885.2292
21
492.4226
31
0.0
0
LINE
8
CUT
10
885.2292
20
492.4226
30
0.0
11
890.2413
21
491.4726
31
0.0
0
LINE
8
CUT
10
890.2413
20
491.4726
30
0.0
11
895.2541
21
490.5022
31
0.0
0
LINE
8
CUT
10
895.2541
20
490.5022
30
0.0
11
900.2678
21
489.5111
31
0.0
0
LINE
8
CUT
10
900.2678
20
489.5111
30
0.0
11
905.2824
21
488.4990
31
0.0
0
LINE
8
CUT
10
905.2824
20
488.4990
30
0.0
11
910.2978
21
487.4654
31
0.0
0
LINE
8
CUT
10
910.2978
20
487.4654
30
0.0
11
915.3141
21
486.4101
31
0.0
0
LINE
8
CUT
10
915.3141
20
486.4101
30
0.0
11
920.3313
21
485.3325
31
0.0
0
LINE
8
CUT
10
920.3313
20
485.3325
30
0.0
11
925.3495
21
484.2322
31
0.0
0
LINE
8
CUT
10
925.3495
20
484.2322
30
0.0
11
930.3686
21
483.1086
31
0.0
0
LINE
8
CUT
10
930.3686
20
483.1086
30
0.0
11
935.3888
21
481.9612
31
0.0
0
LINE
8
CUT
10
935.3888
20
481.9612
30
0.0
11
940.4099
21
480.7895
31
0.0
0
LINE
8
CUT
10
940.4099
20
480.7895
30
0.0
11
945.4321
21
479.5928
31
0.0
0
LINE
8
CUT
10
945.4321
20
479.5928
30
0.0
11
950.4553
21
478.3707
31
0.0
0
LINE
8
CUT
10
950.4553
20
478.3707
30
0.0
11
955.4797
21
477.1224
31
0.0
0
LINE
8
CUT
10
955.4797
20
477.1224
30
0.0
11
960.5051
21
475.8474
31
0.0
0
LINE
8
CUT
10
960.5051
20
475.8474
30
0.0
11
965.5317
21
474.5451
31
0.0
0
LINE
8
CUT
10
965.5317
20
474.5451
30
0.0
11
970.5594
21
473.2149
31
0.0
0
LINE
8
CUT
10
970.5594
20
473.2149
30
0.0
11
975.5884
21
471.8561
31
0.0
0
LINE
8
CUT
10
975.5884
20
471.8561
30
0.0
11
980.6186
21
470.4682
31
0.0
0
LINE
8
CUT
10
980.6186
20
470.4682
30
0.0
11
985.6500
21
469.0505
31
0.0
0
LINE
8
CUT
10
985.6500
20
469.0505
30
0.0
11
990.6828
21
467.6026
31
0.0
0
LINE
8
CUT
10
990.6828
20
467.6026
30
0.0
11
995.7168
21
466.1237
31
0.0
0
LINE
8
CUT
10
995.7168
20
466.1237
30
0.0
11
1000.7522
21
464.6133
31
0.0
0
LINE
8
CUT
10
1000.7522
20
464.6133
30
0.0
11
1005.7890
21
463.0709
31
0.0
0
LINE
8
CUT
10
1005.7890
20
463.0709
30
0.0
11
1010.8272
21
461.4959
31
0.0
0
LINE
8
CUT
10
1010.8272
20
461.4959
30
0.0
11
1015.8668
21
459.8877
31
0.0
0
LINE
8
CUT
10
1015.8668
20
459.8877
30
0.0
11
1020.9079
21
458.2459
31
0.0
0
LINE
8
CUT
10
1020.9079
20
458.2459
30
0.0
11
1025.9506
21
456.5699
31
0.0
0
LINE
8
CUT
10
1025.9506
20
456.5699
30
0.0
11
1030.9948
21
454.8591
31
0.0
0
LINE
8
CUT
10
1030.9948
20
454.8591
30
0.0
11
1036.0406
21
453.1131
31
0.0
0
LINE
8
CUT
10
1036.0406
20
453.1131
30
0.0
11
1041.0880
21
451.3314
31
0.0
0
LINE
8
CUT
10
1041.0880
20
451.3314
30
0.0
11
1046.1372
21
449.5135
31
0.0
0
LINE
8
CUT
10
1046.1372
20
449.5135
30
0.0
11
1051.1880
21
447.6589
31
0.0
0
LINE
8
CUT
10
1051.1880
20
447.6589
30
0.0
11
1056.2406
21
445.7700
31
0.0
0
LINE
8
CUT
10
1056.2406
20
445.7700
30
0.0
11
1061.2950
21
443.8495
31
0.0
0
LINE
8
CUT
10
1061.2950
20
443.8495
30
0.0
11
1066.3513
21
441.8968
31
0.0
0
LINE
8
CUT
10
1066.3513
20
441.8968
30
0.0
11
1071.4095
21
439.9117
31
0.0
0
LINE
8
CUT
10
1071.4095
20
439.9117
30
0.0
11
1076.4696
21
437.8935
31
0.0
0
LINE
8
CUT
10
1076.4696
20
437.8935
30
0.0
11
1081.5317
21
435.8419
31
0.0
0
LINE
8
CUT
10
1081.5317
20
435.8419
30
0.0
11
1086.5959
21
433.7563
31
0.0
0
LINE
8
CUT
10
1086.5959
20
433.7563
30
0.0
11
1091.6622
21
431.6363
31
0.0
0
LINE
8
CUT
10
1091.6622
20
431.6363
30
0.0
11
1096.7307
21
429.4813
31
0.0
0
LINE
8
CUT
10
1096.7307
20
429.4813
30
0.0
11
1101.8015
21
427.2908
31
0.0
0
LINE
8
CUT
10
1101.8015
20
427.2908
30
0.0
11
1106.8745
21
425.0641
31
0.0
0
LINE
8
CUT
10
1106.8745
20
425.0641
30
0.0
11
1111.9499
21
422.8007
31
0.0
0
LINE
8
CUT
10
1111.9499
20
422.8007
30
0.0
11
1117.0277
21
420.5000
31
0.0
0
LINE
8
CUT
10
1117.0277
20
420.5000
30
0.0
11
1122.1081
21
418.1612
31
0.0
0
LINE
8
CUT
10
1122.1081
20
418.1612
30
0.0
11
1127.1910
21
415.7837
31
0.0
0
LINE
8
CUT
10
1127.1910
20
415.7837
30
0.0
11
1132.2766
21
413.3668
31
0.0
0
LINE
8
CUT
10
1132.2766
20
413.3668
30
0.0
11
1137.3649
21
410.9096
31
0.0
0
LINE
8
CUT
10
1137.3649
20
410.9096
30
0.0
11
1142.4561
21
408.4114
31
0.0
0
LINE
8
CUT
10
1142.4561
20
408.4114
30
0.0
11
1147.5501
21
405.8713
31
0.0
0
LINE
8
CUT
10
1147.5501
20
405.8713
30
0.0
11
1152.6472
21
403.2885
31
0.0
0
LINE
8
CUT
10
1152.6472
20
403.2885
30
0.0
11
1157.7475
21
400.6620
31
0.0
0
LINE
8
CUT
10
1157.7475
20
400.6620
30
0.0
11
1162.8509
21
397.9908
31
0.0
0
LINE
8
CUT
10
1162.8509
20
397.9908
30
0.0
11
1167.9577
21
395.2739
31
0.0
0
LINE
8
CUT
10
1167.9577
20
395.2739
30
0.0
11
1173.0679
21
392.5103
31
0.0
0
LINE
8
CUT
10
1173.0679
20
392.5103
30
0.0
11
1178.1817
21
389.6987
31
0.0
0
LINE
8
CUT
10
1178.1817
20
389.6987
30
0.0
11
1183.2992
21
386.8379
31
0.0
0
LINE
8
CUT
10
1183.2992
20
386.8379
30
0.0
11
1188.4206
21
383.9268
31
0.0
0
LINE
8
CUT
10
1188.4206
20
383.9268
30
0.0
11
1193.5460
21
380.9638
31
0.0
0
LINE
8
CUT
10
1193.5460
20
380.9638
30
0.0
11
1198.6755
21
377.9476
31
0.0
0
LINE
8
CUT
10
1198.6755
20
377.9476
30
0.0
11
1203.8093
21
374.8767
31
0.0
0
LINE
8
CUT
10
1203.8093
20
374.8767
30
0.0
11
1208.9476
21
371.7494
31
0.0
0
LINE
8
CUT
10
1208.9476
20
371.7494
30
0.0
11
1214.0907
21
368.5641
31
0.0
0
LINE
8
CUT
10
1214.0907
20
368.5641
30
0.0
11
1219.2386
21
365.3188
31
0.0
0
LINE
8
CUT
10
1219.2386
20
365.3188
30
0.0
11
1224.3916
21
362.0116
31
0.0
0
LINE
8
CUT
10
1224.3916
20
362.0116
30
0.0
11
1229.5500
21
358.6404
31
0.0
0
LINE
8
CUT
10
1229.5500
20
358.6404
30
0.0
11
1234.7140
21
355.2030
31
0.0
0
LINE
8
CUT
10
1234.7140
20
355.2030
30
0.0
11
1239.8838
21
351.6970
31
0.0
0
LINE
8
CUT
10
1239.8838
20
351.6970
30
0.0
11
1245.0598
21
348.1198
31
0.0
0
LINE
8
CUT
10
1245.0598
20
348.1198
30
0.0
11
1250.2423
21
344.4686
31
0.0
0
LINE
8
CUT
10
1250.2423
20
344.4686
30
0.0
11
1255.4317
21
340.7404
31
0.0
0
LINE
8
CUT
10
1255.4317
20
340.7404
30
0.0
11
1260.6282
21
336.9319
31
0.0
0
LINE
8
CUT
10
1260.6282
20
336.9319
30
0.0
11
1265.8324
21
333.0397
31
0.0
0
LINE
8
CUT
10
1265.8324
20
333.0397
30
0.0
11
1271.0447
21
329.0599
31
0.0
0
LINE
8
CUT
10
1271.0447
20
329.0599
30
0.0
11
1276.2656
21
324.9882
31
0.0
0
LINE
8
CUT
10
1276.2656
20
324.9882
30
0.0
11
1281.4956
21
320.8202
31
0.0
0
LINE
8
CUT
10
1281.4956
20
320.8202
30
0.0
11
1286.7353
21
316.5507
31
0.0
0
LINE
8
CUT
10
1286.7353
20
316.5507
30
0.0
11
1291.9855
21
312.1742
31
0.0
0
LINE
8
CUT
10
1291.9855
20
312.1742
30
0.0
11
1297.2469
21
307.6846
31
0.0
0
LINE
8
CUT
10
1297.2469
20
307.6846
30
0.0
11
1302.5203
21
303.0751
31
0.0
0
LINE
8
CUT
10
1302.5203
20
303.0751
30
0.0
11
1307.8068
21
298.3379
31
0.0
0
LINE
8
CUT
10
1307.8068
20
298.3379
30
0.0
11
1313.1074
21
293.4645
31
0.0
0
LINE
8
CUT
10
1313.1074
20
293.4645
30
0.0
11
1318.4233
21
288.4453
31
0.0
0
LINE
8
CUT
10
1318.4233
20
288.4453
30
0.0
11
1323.7562
21
283.2691
31
0.0
0
LINE
8
CUT
10
1323.7562
20
283.2691
30
0.0
11
1329.1075
21
277.9234
31
0.0
0
LINE
8
CUT
10
1329.1075
20
277.9234
30
0.0
11
1334.4794
21
272.3935
31
0.0
0
LINE
8
CUT
10
1334.4794
20
272.3935
30
0.0
11
1339.8741
21
266.6626
31
0.0
0
LINE
8
CUT
10
1339.8741
20
266.6626
30
0.0
11
1345.2944
21
260.7104
31
0.0
0
LINE
8
CUT
10
1345.2944
20
260.7104
30
0.0
11
1350.7439
21
254.5134
31
0.0
0
LINE
8
CUT
10
1350.7439
20
254.5134
30
0.0
11
1356.2266
21
248.0425
31
0.0
0
LINE
8
CUT
10
1356.2266
20
248.0425
30
0.0
11
1361.7478
21
241.2626
31
0.0
0
LINE
8
CUT
10
1361.7478
20
241.2626
30
0.0
11
1367.3142
21
234.1293
31
0.0
0
LINE
8
CUT
10
1367.3142
20
234.1293
30
0.0
11
1372.9346
21
226.5863
31
0.0
0
LINE
8
CUT
10
1372.9346
20
226.5863
30
0.0
11
1378.6208
21
218.5590
31
0.0
0
LINE
8
CUT
10
1378.6208
20
218.5590
30
0.0
11
1384.3897
21
209.9461
31
0.0
0
LINE
8
CUT
10
1384.3897
20
209.9461
30
0.0
11
1390.2656
21
200.6024
31
0.0
0
LINE
8
CUT
10
1390.2656
20
200.6024
30
0.0
11
1396.2873
21
190.3077
31
0.0
0
LINE
8
CUT
10
1396.2873
20
190.3077
30
0.0
11
1402.5218
21
178.6950
31
0.0
0
LINE
8
CUT
10
1402.5218
20
178.6950
30
0.0
11
1409.1039
21
165.0589
31
0.0
0
LINE
8
CUT
10
1409.1039
20
165.0589
30
0.0
11
1416.3938
21
147.6144
31
0.0
0
LINE
8
CUT
10
1416.3938
20
147.6144
30
0.0
11
1427.9515
21
109.2386
31
0.0
0
LINE
8
CUT
10
1427.9515
20
109.2386
30
0.0
11
1427.9515
21
0.0000
31
0.0
0
LINE
8
CUT
10
1427.9515
20
0.0000
30
0.0
11
0.0000
21
0.0000
31
0.0
0
LINE
8
CHANNEL
10
0.0000
20
44.3880
30
0.0
11
5.0051
21
78.7615
31
0.0
0
LINE
8
CHANNEL
10
5.0051
20
78.7615
30
0.0
11
10.0101
21
90.7556
31
0.0
0
LINE
8
CHANNEL
10
10.0101
20
90.7556
30
0.0
11
15.0150
21
99.5792
31
0.0
0
LINE
8
CHANNEL
10
15.0150
20
99.5792
30
0.0
11
20.0197
21
106.8014
31
0.0
0
LINE
8
CHANNEL
10
20.0197
20
106.8014
30
0.0
11
25.0243
21
113.0148
31
0.0
0
LINE
8
CHANNEL
10
25.0243
20
113.0148
30
0.0
11
30.0287
21
118.5184
31
0.0
0
LINE
8
CHANNEL
10
30.0287
20
118.5184
30
0.0
11
35.0330
21
123.4878
31
0.0
0
LINE
8
CHANNEL
10
35.0330
20
123.4878
30
0.0
11
40.0372
21
128.0363
31
0.0
0
LINE
8
CHANNEL
10
40.0372
20
128.0363
30
0.0
11
45.0412
21
132.2420
31
0.0
0
LINE
8
CHANNEL
10
45.0412
20
132.2420
30
0.0
11
50.0451
21
136.1613
31
0.0
0
LINE
8
CHANNEL
10
50.0451
20
136.1613
30
0.0
11
55.0489
21
139.8367
31
0.0
0
LINE
8
CHANNEL
10
55.0489
20
139.8367
30
0.0
11
60.0525
21
143.3009
31
0.0
0
LINE
8
CHANNEL
10
60.0525
20
143.3009
30
0.0
11
65.0561
21
146.5799
31
0.0
0
LINE
8
CHANNEL
10
65.0561
20
146.5799
30
0.0
11
70.0595
21
149.6947
31
0.0
0
LINE
8
CHANNEL
10
70.0595
20
149.6947
30
0.0
11
75.0627
21
152.6624
31
0.0
0
LINE
8
CHANNEL
10
75.0627
20
152.6624
30
0.0
11
80.0659
21
155.4975
31
0.0
0
LINE
8
CHANNEL
10
80.0659
20
155.4975
30
0.0
11
85.0690
21
158.2121
31
0.0
0
LINE
8
CHANNEL
10
85.0690
20
158.2121
30
0.0
11
90.0719
21
160.8165
31
0.0
0
LINE
8
CHANNEL
10
90.0719
20
160.8165
30
0.0
11
95.0747
21
163.3195
31
0.0
0
LINE
8
CHANNEL
10
95.0747
20
163.3195
30
0.0
11
100.0774
21
165.7289
31
0.0
0
LINE
8
CHANNEL
10
100.0774
20
165.7289
30
0.0
11
105.0801
21
168.0515
31
0.0
0
LINE
8
CHANNEL
10
105.0801
20
168.0515
30
0.0
11
110.0826
21
170.2932
31
0.0
0
LINE
8
CHANNEL
10
110.0826
20
170.2932
30
0.0
11
115.0850
21
172.4593
31
0.0
0
LINE
8
CHANNEL
10
115.0850
20
172.4593
30
0.0
11
120.0873
21
174.5544
31
0.0
0
LINE
8
CHANNEL
10
120.0873
20
174.5544
30
0.0
11
125.0895
21
176.5828
31
0.0
0
LINE
8
CHANNEL
10
125.0895
20
176.5828
30
0.0
11
130.0916
21
178.5483
31
0.0
0
LINE
8
CHANNEL
10
130.0916
20
178.5483
30
0.0
11
135.0936
21
180.4542
31
0.0
0
LINE
8
CHANNEL
10
135.0936
20
180.4542
30
0.0
11
140.0955
21
182.3038
31
0.0
0
LINE
8
CHANNEL
10
140.0955
20
182.3038
30
0.0
11
145.0974
21
184.0997
31
0.0
0
LINE
8
CHANNEL
10
145.0974
20
184.0997
30
0.0
11
150.0991
21
185.8447
31
0.0
0
LINE
8
CHANNEL
10
150.0991
20
185.8447
30
0.0
11
155.1008
21
187.5410
31
0.0
0
LINE
8
CHANNEL
10
155.1008
20
187.5410
30
0.0
11
160.1024
21
189.1909
31
0.0
0
LINE
8
CHANNEL
10
160.1024
20
189.1909
30
0.0
11
165.1039
21
190.7964
31
0.0
0
LINE
8
CHANNEL
10
165.1039
20
190.7964
30
0.0
11
170.1053
21
192.3592
31
0.0
0
LINE
8
CHANNEL
10
170.1053
20
192.3592
30
0.0
11
175.1066
21
193.8812
31
0.0
0
LINE
8
CHANNEL
10
175.1066
20
193.8812
30
0.0
11
180.1079
21
195.3639
31
0.0
0
LINE
8
CHANNEL
10
180.1079
20
195.3639
30
0.0
11
185.1091
21
196.8089
31
0.0
0
LINE
8
CHANNEL
10
185.1091
20
196.8089
30
0.0
11
190.1102
21
198.2174
31
0.0
0
LINE
8
CHANNEL
10
190.1102
20
198.2174
30
0.0
11
195.1113
21
199.5908
31
0.0
0
LINE
8
CHANNEL
10
195.1113
20
199.5908
30
0.0
11
200.1123
21
200.9304
31
0.0
0
LINE
8
CHANNEL
10
200.1123
20
200.9304
30
0.0
11
205.1132
21
202.2371
31
0.0
0
LINE
8
CHANNEL
10
205.1132
20
202.2371
30
0.0
11
210.1141
21
203.5122
31
0.0
0
LINE
8
CHANNEL
10
210.1141
20
203.5122
30
0.0
11
215.1149
21
204.7566
31
0.0
0
LINE
8
CHANNEL
10
215.1149
20
204.7566
30
0.0
11
220.1156
21
205.9713
31
0.0
0
LINE
8
CHANNEL
10
220.1156
20
205.9713
30
0.0
11
225.1163
21
207.1571
31
0.0
0
LINE
8
CHANNEL
10
225.1163
20
207.1571
30
0.0
11
230.1169
21
208.3149
31
0.0
0
LINE
8
CHANNEL
10
230.1169
20
208.3149
30
0.0
11
235.1175
21
209.4455
31
0.0
0
LINE
8
CHANNEL
10
235.1175
20
209.4455
30
0.0
11
240.1181
21
210.5497
31
0.0
0
LINE
8
CHANNEL
10
240.1181
20
210.5497
30
0.0
11
245.1186
21
211.6281
31
0.0
0
LINE
8
CHANNEL
10
245.1186
20
211.6281
30
0.0
11
250.1190
21
212.6815
31
0.0
0
LINE
8
CHANNEL
10
250.1190
20
212.6815
30
0.0
11
255.1194
21
213.7104
31
0.0
0
LINE
8
CHANNEL
10
255.1194
20
213.7104
30
0.0
11
260.1198
21
214.7156
31
0.0
0
LINE
8
CHANNEL
10
260.1198
20
214.7156
30
0.0
11
265.1201
21
215.6976
31
0.0
0
LINE
8
CHANNEL
10
265.1201
20
215.6976
30
0.0
11
270.1204
21
216.6569
31
0.0
0
LINE
8
CHANNEL
10
270.1204
20
216.6569
30
0.0
11
275.1207
21
217.5940
31
0.0
0
LINE
8
CHANNEL
10
275.1207
20
217.5940
30
0.0
11
280.1209
21
218.5096
31
0.0
0
LINE
8
CHANNEL
10
280.1209
20
218.5096
30
0.0
11
285.1211
21
219.4041
31
0.0
0
LINE
8
CHANNEL
10
285.1211
20
219.4041
30
0.0
11
290.1212
21
220.2779
31
0.0
0
LINE
8
CHANNEL
10
290.1212
20
220.2779
30
0.0
11
295.1214
21
221.1315
31
0.0
0
LINE
8
CHANNEL
10
295.1214
20
221.1315
30
0.0
11
300.1215
21
221.9653
31
0.0
0
LINE
8
CHANNEL
10
300.1215
20
221.9653
30
0.0
11
305.1216
21
222.7798
31
0.0
0
LINE
8
CHANNEL
10
305.1216
20
222.7798
30
0.0
11
310.1217
21
223.5752
31
0.0
0
LINE
8
CHANNEL
10
310.1217
20
223.5752
30
0.0
11
315.1217
21
224.3521
31
0.0
0
LINE
8
CHANNEL
10
315.1217
20
224.3521
30
0.0
11
320.1218
21
225.1108
31
0.0
0
LINE
8
CHANNEL
10
320.1218
20
225.1108
30
0.0
11
325.1218
21
225.8515
31
0.0
0
LINE
8
CHANNEL
10
325.1218
20
225.8515
30
0.0
11
330.1218
21
226.5747
31
0.0
0
LINE
8
CHANNEL
10
330.1218
20
226.5747
30
0.0
11
335.1219
21
227.2807
31
0.0
0
LINE
8
CHANNEL
10
335.1219
20
227.2807
30
0.0
11
340.1219
21
227.9698
31
0.0
0
LINE
8
CHANNEL
10
340.1219
20
227.9698
30
0.0
11
345.1219
21
228.6422
31
0.0
0
LINE
8
CHANNEL
10
345.1219
20
228.6422
30
0.0
11
350.1219
21
229.2984
31
0.0
0
LINE
8
CHANNEL
10
350.1219
20
229.2984
30
0.0
11
355.1219
21
229.9385
31
0.0
0
LINE
8
CHANNEL
10
355.1219
20
229.9385
30
0.0
11
360.1219
21
230.5628
31
0.0
0
LINE
8
CHANNEL
10
360.1219
20
230.5628
30
0.0
11
365.1219
21
231.1717
31
0.0
0
LINE
8
CHANNEL
10
365.1219
20
231.1717
30
0.0
11
370.1219
21
231.7653
31
0.0
0
LINE
8
CHANNEL
10
370.1219
20
231.7653
30
0.0
11
375.1219
21
232.3439
31
0.0
0
LINE
8
CHANNEL
10
375.1219
20
232.3439
30
0.0
11
380.1219
21
232.9077
31
0.0
0
LINE
8
CHANNEL
10
380.1219
20
232.9077
30
0.0
11
385.1219
21
233.4570
31
0.0
0
LINE
8
CHANNEL
10
385.1219
20
233.4570
30
0.0
11
390.1219
21
233.9920
31
0.0
0
LINE
8
CHANNEL
10
390.1219
20
233.9920
30
0.0
11
395.1219
21
234.5130
31
0.0
0
LINE
8
CHANNEL
10
395.1219
20
234.5130
30
0.0
11
400.1219
21
235.0201
31
0.0
0
LINE
8
CHANNEL
10
400.1219
20
235.0201
30
0.0
11
405.1219
21
235.5135
31
0.0
0
LINE
8
CHANNEL
10
405.1219
20
235.5135
30
0.0
11
410.1219
21
235.9934
31
0.0
0
LINE
8
CHANNEL
10
410.1219
20
235.9934
30
0.0
11
415.1219
21
236.4601
31
0.0
0
LINE
8
CHANNEL
10
415.1219
20
236.4601
30
0.0
11
420.1219
21
236.9137
31
0.0
0
LINE
8
CHANNEL
10
420.1219
20
236.9137
30
0.0
11
425.1219
21
237.3545
31
0.0
0
LINE
8
CHANNEL
10
425.1219
20
237.3545
30
0.0
11
430.1219
21
237.7825
31
0.0
0
LINE
8
CHANNEL
10
430.1219
20
237.7825
30
0.0
11
435.1219
21
238.1980
31
0.0
0
LINE
8
CHANNEL
10
435.1219
20
238.1980
30
0.0
11
440.1219
21
238.6012
31
0.0
0
LINE
8
CHANNEL
10
440.1219
20
238.6012
30
0.0
11
445.1219
21
238.9922
31
0.0
0
LINE
8
CHANNEL
10
445.1219
20
238.9922
30
0.0
11
450.1219
21
239.3711
31
0.0
0
LINE
8
CHANNEL
10
450.1219
20
239.3711
30
0.0
11
455.1219
21
239.7383
31
0.0
0
LINE
8
CHANNEL
10
455.1219
20
239.7383
30
0.0
11
460.1219
21
240.0937
31
0.0
0
LINE
8
CHANNEL
10
460.1219
20
240.0937
30
0.0
11
465.1219
21
240.4376
31
0.0
0
LINE
8
CHANNEL
10
465.1219
20
240.4376
30
0.0
11
470.1219
21
240.7701
31
0.0
0
LINE
8
CHANNEL
10
470.1219
20
240.7701
30
0.0
11
475.1219
21
241.0914
31
0.0
0
LINE
8
CHANNEL
10
475.1219
20
241.0914
30
0.0
11
480.1219
21
241.4016
31
0.0
0
LINE
8
CHANNEL
10
480.1219
20
241.4016
30
0.0
11
485.1219
21
241.7009
31
0.0
0
LINE
8
CHANNEL
10
485.1219
20
241.7009
30
0.0
11
490.1219
21
241.9894
31
0.0
0
LINE
8
CHANNEL
10
490.1219
20
241.9894
30
0.0
11
495.1219
21
242.2673
31
0.0
0
LINE
8
CHANNEL
10
495.1219
20
242.2673
30
0.0
11
500.1219
21
242.5347
31
0.0
0
LINE
8
CHANNEL
10
500.1219
20
242.5347
30
0.0
11
505.1219
21
242.7917
31
0.0
0
LINE
8
CHANNEL
10
505.1219
20
242.7917
30
0.0
11
510.1219
21
243.0385
31
0.0
0
LINE
8
CHANNEL
10
510.1219
20
243.0385
30
0.0
11
515.1219
21
243.2752
31
0.0
0
LINE
8
CHANNEL
10
515.1219
20
243.2752
30
0.0
11
520.1219
21
243.5019
31
0.0
0
LINE
8
CHANNEL
10
520.1219
20
243.5019
30
0.0
11
525.1219
21
243.7189
31
0.0
0
LINE
8
CHANNEL
10
525.1219
20
243.7189
30
0.0
11
530.1219
21
243.9262
31
0.0
0
LINE
8
CHANNEL
10
530.1219
20
243.9262
30
0.0
11
535.1219
21
244.1239
31
0.0
0
LINE
8
CHANNEL
10
535.1219
20
244.1239
30
0.0
11
540.1219
21
244.3123
31
0.0
0
LINE
8
CHANNEL
10
540.1219
20
244.3123
30
0.0
11
545.1219
21
244.4914
31
0.0
0
LINE
8
CHANNEL
10
545.1219
20
244.4914
30
0.0
11
550.1219
21
244.6613
31
0.0
0
LINE
8
CHANNEL
10
550.1219
20
244.6613
30
0.0
11
555.1219
21
244.8223
31
0.0
0
LINE
8
CHANNEL
10
555.1219
20
244.8223
30
0.0
11
560.1219
21
244.9744
31
0.0
0
LINE
8
CHANNEL
10
560.1219
20
244.9744
30
0.0
11
565.1219
21
245.1178
31
0.0
0
LINE
8
CHANNEL
10
565.1219
20
245.1178
30
0.0
11
570.1219
21
245.2526
31
0.0
0
LINE
8
CHANNEL
10
570.1219
20
245.2526
30
0.0
11
575.1219
21
245.3790
31
0.0
0
LINE
8
CHANNEL
10
575.1219
20
245.3790
30
0.0
11
580.1219
21
245.4971
31
0.0
0
LINE
8
CHANNEL
10
580.1219
20
245.4971
30
0.0
11
585.1219
21
245.6071
31
0.0
0
LINE
8
CHANNEL
10
585.1219
20
245.6071
30
0.0
11
590.1219
21
245.7090
31
0.0
0
LINE
8
CHANNEL
10
590.1219
20
245.7090
30
0.0
11
595.1219
21
245.8032
31
0.0
0
LINE
8
CHANNEL
10
595.1219
20
245.8032
30
0.0
11
600.1219
21
245.8896
31
0.0
0
LINE
8
CHANNEL
10
600.1219
20
245.8896
30
0.0
11
605.1219
21
245.9686
31
0.0
0
LINE
8
CHANNEL
10
605.1219
20
245.9686
30
0.0
11
610.1219
21
246.0402
31
0.0
0
LINE
8
CHANNEL
10
610.1219
20
246.0402
30
0.0
11
615.1219
21
246.1047
31
0.0
0
LINE
8
CHANNEL
10
615.1219
20
246.1047
30
0.0
11
620.1219
21
246.1622
31
0.0
0
LINE
8
CHANNEL
10
620.1219
20
246.1622
30
0.0
11
625.1219
21
246.2129
31
0.0
0
LINE
8
CHANNEL
10
625.1219
20
246.2129
30
0.0
11
630.1219
21
246.2571
31
0.0
0
LINE
8
CHANNEL
10
630.1219
20
246.2571
30
0.0
11
635.1219
21
246.2949
31
0.0
0
LINE
8
CHANNEL
10
635.1219
20
246.2949
30
0.0
11
640.1219
21
246.3266
31
0.0
0
LINE
8
CHANNEL
10
640.1219
20
246.3266
30
0.0
11
645.1219
21
246.3524
31
0.0
0
LINE
8
CHANNEL
10
645.1219
20
246.3524
30
0.0
11
650.1219
21
246.3727
31
0.0
0
LINE
8
CHANNEL
10
650.1219
20
246.3727
30
0.0
11
655.1219
21
246.3878
31
0.0
0
LINE
8
CHANNEL
10
655.1219
20
246.3878
30
0.0
11
660.1219
21
246.3981
31
0.0
0
LINE
8
CHANNEL
10
660.1219
20
246.3981
30
0.0
11
665.1219
21
246.4041
31
0.0
0
LINE
8
CHANNEL
10
665.1219
20
246.4041
30
0.0
11
670.1219
21
246.4063
31
0.0
0
LINE
8
CHANNEL
10
670.1219
20
246.4063
30
0.0
11
675.1219
21
246.4030
31
0.0
0
LINE
8
CHANNEL
10
675.1219
20
246.4030
30
0.0
11
680.1219
21
246.3841
31
0.0
0
LINE
8
CHANNEL
10
680.1219
20
246.3841
30
0.0
11
685.1219
21
246.3502
31
0.0
0
LINE
8
CHANNEL
10
685.1219
20
246.3502
30
0.0
11
690.1219
21
246.3020
31
0.0
0
LINE
8
CHANNEL
10
690.1219
20
246.3020
30
0.0
11
695.1219
21
246.2400
31
0.0
0
LINE
8
CHANNEL
10
695.1219
20
246.2400
30
0.0
11
700.1219
21
246.1646
31
0.0
0
LINE
8
CHANNEL
10
700.1219
20
246.1646
30
0.0
11
705.1219
21
246.0759
31
0.0
0
LINE
8
CHANNEL
10
705.1219
20
246.0759
30
0.0
11
710.1219
21
245.9741
31
0.0
0
LINE
8
CHANNEL
10
710.1219
20
245.9741
30
0.0
11
715.1219
21
245.8596
31
0.0
0
LINE
8
CHANNEL
10
715.1219
20
245.8596
30
0.0
11
720.1219
21
245.7322
31
0.0
0
LINE
8
CHANNEL
10
720.1219
20
245.7322
30
0.0
11
725.1219
21
245.5923
31
0.0
0
LINE
8
CHANNEL
10
725.1219
20
245.5923
30
0.0
11
730.1219
21
245.4399
31
0.0
0
LINE
8
CHANNEL
10
730.1219
20
245.4399
30
0.0
11
735.1219
21
245.2751
31
0.0
0
LINE
8
CHANNEL
10
735.1219
20
245.2751
30
0.0
11
740.1219
21
245.0980
31
0.0
0
LINE
8
CHANNEL
10
740.1219
20
245.0980
30
0.0
11
745.1219
21
244.9086
31
0.0
0
LINE
8
CHANNEL
10
745.1219
20
244.9086
30
0.0
11
750.1219
21
244.7069
31
0.0
0
LINE
8
CHANNEL
10
750.1219
20
244.7069
30
0.0
11
755.1219
21
244.4932
31
0.0
0
LINE
8
CHANNEL
10
755.1219
20
244.4932
30
0.0
11
760.1219
21
244.2673
31
0.0
0
LINE
8
CHANNEL
10
760.1219
20
244.2673
30
0.0
11
765.1219
21
244.0293
31
0.0
0
LINE
8
CHANNEL
10
765.1219
20
244.0293
30
0.0
11
770.1219
21
243.7793
31
0.0
0
LINE
8
CHANNEL
10
770.1219
20
243.7793
30
0.0
11
775.1219
21
243.5172
31
0.0
0
LINE
8
CHANNEL
10
775.1219
20
243.5172
30
0.0
11
780.1221
21
243.2432
31
0.0
0
LINE
8
CHANNEL
10
780.1221
20
243.2432
30
0.0
11
785.1226
21
242.9572
31
0.0
0
LINE
8
CHANNEL
10
785.1226
20
242.9572
30
0.0
11
790.1233
21
242.6591
31
0.0
0
LINE
8
CHANNEL
10
790.1233
20
242.6591
30
0.0
11
795.1244
21
242.3492
31
0.0
0
LINE
8
CHANNEL
10
795.1244
20
242.3492
30
0.0
11
800.1258
21
242.0272
31
0.0
0
LINE
8
CHANNEL
10
800.1258
20
242.0272
30
0.0
11
805.1276
21
241.6933
31
0.0
0
LINE
8
CHANNEL
10
805.1276
20
241.6933
30
0.0
11
810.1298
21
241.3474
31
0.0
0
LINE
8
CHANNEL
10
810.1298
20
241.3474
30
0.0
11
815.1324
21
240.9895
31
0.0
0
LINE
8
CHANNEL
10
815.1324
20
240.9895
30
0.0
11
820.1356
21
240.6196
31
0.0
0
LINE
8
CHANNEL
10
820.1356
20
240.6196
30
0.0
11
825.1392
21
240.2377
31
0.0
0
LINE
8
CHANNEL
10
825.1392
20
240.2377
30
0.0
11
830.1433
21
239.8438
31
0.0
0
LINE
8
CHANNEL
10
830.1433
20
239.8438
30
0.0
11
835.1480
21
239.4379
31
0.0
0
LINE
8
CHANNEL
10
835.1480
20
239.4379
30
0.0
11
840.1532
21
239.0198
31
0.0
0
LINE
8
CHANNEL
10
840.1532
20
239.0198
30
0.0
11
845.1590
21
238.5897
31
0.0
0
LINE
8
CHANNEL
10
845.1590
20
238.5897
30
0.0
11
850.1654
21
238.1474
31
0.0
0
LINE
8
CHANNEL
10
850.1654
20
238.1474
30
0.0
11
855.1725
21
237.6929
31
0.0
0
LINE
8
CHANNEL
10
855.1725
20
237.6929
30
0.0
11
860.1802
21
237.2262
31
0.0
0
LINE
8
CHANNEL
10
860.1802
20
237.2262
30
0.0
11
865.1885
21
236.7473
31
0.0
0
LINE
8
CHANNEL
10
865.1885
20
236.7473
30
0.0
11
870.1976
21
236.2561
31
0.0
0
LINE
8
CHANNEL
10
870.1976
20
236.2561
30
0.0
11
875.2074
21
235.7525
31
0.0
0
LINE
8
CHANNEL
10
875.2074
20
235.7525
30
0.0
11
880.2179
21
235.2365
31
0.0
0
LINE
8
CHANNEL
10
880.2179
20
235.2365
30
0.0
11
885.2292
21
234.7081
31
0.0
0
LINE
8
CHANNEL
10
885.2292
20
234.7081
30
0.0
11
890.2413
21
234.1672
31
0.0
0
LINE
8
CHANNEL
10
890.2413
20
234.1672
30
0.0
11
895.2541
21
233.6137
31
0.0
0
LINE
8
CHANNEL
10
895.2541
20
233.6137
30
0.0
11
900.2678
21
233.0476
31
0.0
0
LINE
8
CHANNEL
10
900.2678
20
233.0476
30
0.0
11
905.2824
21
232.4688
31
0.0
0
LINE
8
CHANNEL
10
905.2824
20
232.4688
30
0.0
11
910.2978
21
231.8772
31
0.0
0
LINE
8
CHANNEL
10
910.2978
20
231.8772
30
0.0
11
915.3141
21
231.2728
31
0.0
0
LINE
8
CHANNEL
10
915.3141
20
231.2728
30
0.0
11
920.3313
21
230.6554
31
0.0
0
LINE
8
CHANNEL
10
920.3313
20
230.6554
30
0.0
11
925.3495
21
230.0251
31
0.0
0
LINE
8
CHANNEL
10
925.3495
20
230.0251
30
0.0
11
930.3686
21
229.3817
31
0.0
0
LINE
8
CHANNEL
10
930.3686
20
229.3817
30
0.0
11
935.3888
21
228.7251
31
0.0
0
LINE
8
CHANNEL
10
935.3888
20
228.7251
30
0.0
11
940.4099
21
228.0552
31
0.0
0
LINE
8
CHANNEL
10
940.4099
20
228.0552
30
0.0
11
945.4321
21
227.3720
31
0.0
0
LINE
8
CHANNEL
10
945.4321
20
227.3720
30
0.0
11
950.4553
21
226.6753
31
0.0
0
LINE
8
CHANNEL
10
950.4553
20
226.6753
30
0.0
11
955.4797
21
225.9650
31
0.0
0
LINE
8
CHANNEL
10
955.4797
20
225.9650
30
0.0
11
960.5051
21
225.2411
31
0.0
0
LINE
8
CHANNEL
10
960.5051
20
225.2411
30
0.0
11
965.5317
21
224.5034
31
0.0
0
LINE
8
CHANNEL
10
965.5317
20
224.5034
30
0.0
11
970.5594
21
223.7518
31
0.0
0
LINE
8
CHANNEL
10
970.5594
20
223.7518
30
0.0
11
975.5884
21
222.9862
31
0.0
0
LINE
8
CHANNEL
10
975.5884
20
222.9862
30
0.0
11
980.6186
21
222.2064
31
0.0
0
LINE
8
CHANNEL
10
980.6186
20
222.2064
30
0.0
11
985.6500
21
221.4123
31
0.0
0
LINE
8
CHANNEL
10
985.6500
20
221.4123
30
0.0
11
990.6828
21
220.6038
31
0.0
0
LINE
8
CHANNEL
10
990.6828
20
220.6038
30
0.0
11
995.7168
21
219.7807
31
0.0
0
LINE
8
CHANNEL
10
995.7168
20
219.7807
30
0.0
11
1000.7522
21
218.9430
31
0.0
0
LINE
8
CHANNEL
10
1000.7522
20
218.9430
30
0.0
11
1005.7890
21
218.0903
31
0.0
0
LINE
8
CHANNEL
10
1005.7890
20
218.0903
30
0.0
11
1010.8272
21
217.2227
31
0.0
0
LINE
8
CHANNEL
10
1010.8272
20
217.2227
30
0.0
11
1015.8668
21
216.3398
31
0.0
0
LINE
8
CHANNEL
10
1015.8668
20
216.3398
30
0.0
11
1020.9079
21
215.4416
31
0.0
0
LINE
8
CHANNEL
10
1020.9079
20
215.4416
30
0.0
11
1025.9506
21
214.5279
31
0.0
0
LINE
8
CHANNEL
10
1025.9506
20
214.5279
30
0.0
11
1030.9948
21
213.5984
31
0.0
0
LINE
8
CHANNEL
10
1030.9948
20
213.5984
30
0.0
11
1036.0406
21
212.6531
31
0.0
0
LINE
8
CHANNEL
10
1036.0406
20
212.6531
30
0.0
11
1041.0880
21
211.6916
31
0.0
0
LINE
8
CHANNEL
10
1041.0880
20
211.6916
30
0.0
11
1046.1372
21
210.7138
31
0.0
0
LINE
8
CHANNEL
10
1046.1372
20
210.7138
30
0.0
11
1051.1880
21
209.7194
31
0.0
0
LINE
8
CHANNEL
10
1051.1880
20
209.7194
30
0.0
11
1056.2406
21
208.7083
31
0.0
0
LINE
8
CHANNEL
10
1056.2406
20
208.7083
30
0.0
11
1061.2950
21
207.6802
31
0.0
0
LINE
8
CHANNEL
10
1061.2950
20
207.6802
30
0.0
11
1066.3513
21
206.6349
31
0.0
0
LINE
8
CHANNEL
10
1066.3513
20
206.6349
30
0.0
11
1071.4095
21
205.5720
31
0.0
0
LINE
8
CHANNEL
10
1071.4095
20
205.5720
30
0.0
11
1076.4696
21
204.4914
31
0.0
0
LINE
8
CHANNEL
10
1076.4696
20
204.4914
30
0.0
11
1081.5317
21
203.3928
31
0.0
0
LINE
8
CHANNEL
10
1081.5317
20
203.3928
30
0.0
11
1086.5959
21
202.2759
31
0.0
0
LINE
8
CHANNEL
10
1086.5959
20
202.2759
30
0.0
11
1091.6622
21
201.1403
31
0.0
0
LINE
8
CHANNEL
10
1091.6622
20
201.1403
30
0.0
11
1096.7307
21
199.9859
31
0.0
0
LINE
8
CHANNEL
10
1096.7307
20
199.9859
30
0.0
11
1101.8015
21
198.8122
31
0.0
0
LINE
8
CHANNEL
10
1101.8015
20
198.8122
30
0.0
11
1106.8745
21
197.6189
31
0.0
0
LINE
8
CHANNEL
10
1106.8745
20
197.6189
30
0.0
11
1111.9499
21
196.4057
31
0.0
0
LINE
8
CHANNEL
10
1111.9499
20
196.4057
30
0.0
11
1117.0277
21
195.1722
31
0.0
0
LINE
8
CHANNEL
10
1117.0277
20
195.1722
30
0.0
11
1122.1081
21
193.9180
31
0.0
0
LINE
8
CHANNEL
10
1122.1081
20
193.9180
30
0.0
11
1127.1910
21
192.6427
31
0.0
0
LINE
8
CHANNEL
10
1127.1910
20
192.6427
30
0.0
11
1132.2766
21
191.3459
31
0.0
0
LINE
8
CHANNEL
10
1132.2766
20
191.3459
30
0.0
11
1137.3649
21
190.0272
31
0.0
0
LINE
8
CHANNEL
10
1137.3649
20
190.0272
30
0.0
11
1142.4561
21
188.6860
31
0.0
0
LINE
8
CHANNEL
10
1142.4561
20
188.6860
30
0.0
11
1147.5501
21
187.3220
31
0.0
0
LINE
8
CHANNEL
10
1147.5501
20
187.3220
30
0.0
11
1152.6472
21
185.9345
31
0.0
0
LINE
8
CHANNEL
10
1152.6472
20
185.9345
30
0.0
11
1157.7475
21
184.5231
31
0.0
0
LINE
8
CHANNEL
10
1157.7475
20
184.5231
30
0.0
11
1162.8509
21
183.0873
31
0.0
0
LINE
8
CHANNEL
10
1162.8509
20
183.0873
30
0.0
11
1167.9577
21
181.6263
31
0.0
0
LINE
8
CHANNEL
10
1167.9577
20
181.6263
30
0.0
11
1173.0679
21
180.1396
31
0.0
0
LINE
8
CHANNEL
10
1173.0679
20
180.1396
30
0.0
11
1178.1817
21
178.6265
31
0.0
0
LINE
8
CHANNEL
10
1178.1817
20
178.6265
30
0.0
11
1183.2992
21
177.0864
31
0.0
0
LINE
8
CHANNEL
10
1183.2992
20
177.0864
30
0.0
11
1188.4206
21
175.5185
31
0.0
0
LINE
8
CHANNEL
10
1188.4206
20
175.5185
30
0.0
11
1193.5460
21
173.9220
31
0.0
0
LINE
8
CHANNEL
10
1193.5460
20
173.9220
30
0.0
11
1198.6755
21
172.2961
31
0.0
0
LINE
8
CHANNEL
10
1198.6755
20
172.2961
30
0.0
11
1203.8093
21
170.6400
31
0.0
0
LINE
8
CHANNEL
10
1203.8093
20
170.6400
30
0.0
11
1208.9476
21
168.9526
31
0.0
0
LINE
8
CHANNEL
10
1208.9476
20
168.9526
30
0.0
11
1214.0907
21
167.2331
31
0.0
0
LINE
8
CHANNEL
10
1214.0907
20
167.2331
30
0.0
11
1219.2386
21
165.4804
31
0.0
0
LINE
8
CHANNEL
10
1219.2386
20
165.4804
30
0.0
11
1224.3916
21
163.6933
31
0.0
0
LINE
8
CHANNEL
10
1224.3916
20
163.6933
30
0.0
11
1229.5500
21
161.8707
31
0.0
0
LINE
8
CHANNEL
10
1229.5500
20
161.8707
30
0.0
11
1234.7140
21
160.0112
31
0.0
0
LINE
8
CHANNEL
10
1234.7140
20
160.0112
30
0.0
11
1239.8838
21
158.1136
31
0.0
0
LINE
8
CHANNEL
10
1239.8838
20
158.1136
30
0.0
11
1245.0598
21
156.1763
31
0.0
0
LINE
8
CHANNEL
10
1245.0598
20
156.1763
30
0.0
11
1250.2423
21
154.1977
31
0.0
0
LINE
8
CHANNEL
10
1250.2423
20
154.1977
30
0.0
11
1255.4317
21
152.1762
31
0.0
0
LINE
8
CHANNEL
10
1255.4317
20
152.1762
30
0.0
11
1260.6282
21
150.1098
31
0.0
0
LINE
8
CHANNEL
10
1260.6282
20
150.1098
30
0.0
11
1265.8324
21
147.9966
31
0.0
0
LINE
8
CHANNEL
10
1265.8324
20
147.9966
30
0.0
11
1271.0447
21
145.8343
31
0.0
0
LINE
8
CHANNEL
10
1271.0447
20
145.8343
30
0.0
11
1276.2656
21
143.6206
31
0.0
0
LINE
8
CHANNEL
10
1276.2656
20
143.6206
30
0.0
11
1281.4956
21
141.3528
31
0.0
0
LINE
8
CHANNEL
10
1281.4956
20
141.3528
30
0.0
11
1286.7353
21
139.0280
31
0.0
0
LINE
8
CHANNEL
10
1286.7353
20
139.0280
30
0.0
11
1291.9855
21
136.6431
31
0.0
0
LINE
8
CHANNEL
10
1291.9855
20
136.6431
30
0.0
11
1297.2469
21
134.1945
31
0.0
0
LINE
8
CHANNEL
10
1297.2469
20
134.1945
30
0.0
11
1302.5203
21
131.6783
31
0.0
0
LINE
8
CHANNEL
10
1302.5203
20
131.6783
30
0.0
11
1307.8068
21
129.0901
31
0.0
0
LINE
8
CHANNEL
10
1307.8068
20
129.0901
30
0.0
11
1313.1074
21
126.4251
31
0.0
0
LINE
8
CHANNEL
10
1313.1074
20
126.4251
30
0.0
11
1318.4233
21
123.6775
31
0.0
0
LINE
8
CHANNEL
10
1318.4233
20
123.6775
30
0.0
11
1323.7562
21
120.8411
31
0.0
0
LINE
8
CHANNEL
10
1323.7562
20
120.8411
30
0.0
11
1329.1075
21
117.9087
31
0.0
0
LINE
8
CHANNEL
10
1329.1075
20
117.9087
30
0.0
11
1334.4794
21
114.8717
31
0.0
0
LINE
8
CHANNEL
10
1334.4794
20
114.8717
30
0.0
11
1339.8741
21
111.7204
31
0.0
0
LINE
8
CHANNEL
10
1339.8741
20
111.7204
30
0.0
11
1345.2944
21
108.4433
31
0.0
0
LINE
8
CHANNEL
10
1345.2944
20
108.4433
30
0.0
11
1350.7439
21
105.0265
31
0.0
0
LINE
8
CHANNEL
10
1350.7439
20
105.0265
30
0.0
11
1356.2266
21
101.4534
31
0.0
0
LINE
8
CHANNEL
10
1356.2266
20
101.4534
30
0.0
11
1361.7478
21
97.7035
31
0.0
0
LINE
8
CHANNEL
10
1361.7478
20
97.7035
30
0.0
11
1367.3142
21
93.7513
31
0.0
0
LINE
8
CHANNEL
10
1367.3142
20
93.7513
30
0.0
11
1372.9346
21
89.5637
31
0.0
0
LINE
8
CHANNEL
10
1372.9346
20
89.5637
30
0.0
11
1378.6208
21
85.0975
31
0.0
0
LINE
8
CHANNEL
10
1378.6208
20
85.0975
30
0.0
11
1384.3897
21
80.2934
31
0.0
0
LINE
8
CHANNEL
10
1384.3897
20
80.2934
30
0.0
11
1390.2656
21
75.0666
31
0.0
0
LINE
8
CHANNEL
10
1390.2656
20
75.0666
30
0.0
11
1396.2873
21
69.2877
31
0.0
0
LINE
8
CHANNEL
10
1396.2873
20
69.2877
30
0.0
11
1402.5218
21
62.7406
31
0.0
0
LINE
8
CHANNEL
10
1402.5218
20
62.7406
30
0.0
11
1409.1039
21
55.0076
31
0.0
0
LINE
8
CHANNEL
10
1409.1039
20
55.0076
30
0.0
11
1416.3938
21
45.0244
31
0.0
0
LINE
8
CHANNEL
10
1416.3938
20
45.0244
30
0.0
11
1427.9515
21
22.2479
31
0.0
0
LINE
8
HOLES
10
5.0051
20
238.2007
30
0.0
11
5.0051
21
88.7615
31
0.0
0
LINE
8
HOLES
10
10.0101
20
262.9074
30
0.0
11
10.0101
21
100.7556
31
0.0
0
LINE
8
HOLES
10
15.0150
20
280.2239
30
0.0
11
15.0150
21
109.5792
31
0.0
0
LINE
8
HOLES
10
25.0243
20
305.5366
30
0.0
11
25.0243
21
123.0148
31
0.0
0
LINE
8
HOLES
10
40.0372
20
332.6208
30
0.0
11
40.0372
21
138.0363
31
0.0
0
LINE
8
HOLES
10
60.0525
20
359.0328
30
0.0
11
60.0525
21
153.3009
31
0.0
0
LINE
8
HOLES
10
100.0774
20
396.0207
30
0.0
11
100.0774
21
175.7289
31
0.0
0
LINE
8
HOLES
10
165.1039
20
434.8948
30
0.0
11
165.1039
21
200.7964
31
0.0
0
LINE
8
HOLES
10
290.1212
20
477.2134
30
0.0
11
290.1212
21
230.2779
31
0.0
0
LINE
8
HOLES
10
560.1219
20
510.3174
30
0.0
11
560.1219
21
254.9744
31
0.0
0
LINE
8
HOLES
10
890.2413
20
491.4726
30
0.0
11
890.2413
21
244.1672
31
0.0
0
LINE
8
HOLES
10
1122.1081
20
418.1612
30
0.0
11
1122.1081
21
203.9180
31
0.0
0
LINE
8
HOLES
10
1255.4317
20
340.7404
30
0.0
11
1255.4317
21
162.1762
31
0.0
0
LINE
8
HOLES
10
1323.7562
20
283.2691
30
0.0
11
1323.7562
21
130.8411
31
0.0
0
LINE
8
HOLES
10
1361.7478
20
241.2626
30
0.0
11
1361.7478
21
107.7035
31
0.0
0
LINE
8
HOLES
10
1384.3897
20
209.9461
30
0.0
11
1384.3897
21
90.2934
31
0.0
0
LINE
8
HOLES
10
1402.5218
20
178.6950
30
0.0
11
1402.5218
21
72.7406
31
0.0
0
LINE
8
HOLES
10
1409.1039
20
165.0589
30
0.0
11
1409.1039
21
65.0076
31
0.0
0
LINE
8
HOLES
10
1416.3938
20
147.6144
30
0.0
11
1416.3938
21
55.0244
31
0.0
0
LINE
8
HOLES
10
1427.9515
20
109.2386
30
0.0
11
1427.9515
21
32.2479
31
0.0
0
LINE
8
HOLES
10
1427.9515
20
109.2386
30
0.0
11
1427.9515
21
32.2479
31
0.0
0
ENDSEC
0
EOF
