0
SECTION
2
ENTITIES
0
LINE
8
CUT
10
0.0000
20
0.0000
30
0.0
11
0.0000
21
128.9694
31
0.0
0
LINE
8
CUT
10
0.0000
20
128.9694
30
0.0
11
65.6259
21
223.8638
31
0.0
0
LINE
8
CUT
10
65.6259
20
223.8638
30
0.0
11
77.1720
21
246.3920
31
0.0
0
LINE
8
CUT
10
77.1720
20
246.3920
30
0.0
11
85.4854
21
262.1054
31
0.0
0
LINE
8
CUT
10
85.4854
20
262.1054
30
0.0
11
92.5006
21
274.5417
31
0.0
0
LINE
8
CUT
10
92.5006
20
274.5417
30
0.0
11
98.8455
21
284.9769
31
0.0
0
LINE
8
CUT
10
98.8455
20
284.9769
30
0.0
11
104.7970
21
294.0361
31
0.0
0
LINE
8
CUT
10
104.7970
20
294.0361
30
0.0
11
110.4979
21
302.0783
31
0.0
0
LINE
8
CUT
10
110.4979
20
302.0783
30
0.0
11
116.0298
21
309.3312
31
0.0
0
LINE
8
CUT
10
116.0298
20
309.3312
30
0.0
11
121.4427
21
315.9495
31
0.0
0
LINE
8
CUT
10
121.4427
20
315.9495
30
0.0
11
126.7691
21
322.0436
31
0.0
0
LINE
8
CUT
10
126.7691
20
322.0436
30
0.0
11
132.0307
21
327.6958
31
0.0
0
LINE
8
CUT
10
132.0307
20
327.6958
30
0.0
11
137.2430
21
332.9689
31
0.0
0
LINE
8
CUT
10
137.2430
20
332.9689
30
0.0
11
142.4168
21
337.9124
31
0.0
0
LINE
8
CUT
10
142.4168
20
337.9124
30
0.0
11
147.5602
21
342.5659
31
0.0
0
LINE
8
CUT
10
147.5602
20
342.5659
30
0.0
11
152.6794
21
346.9617
31
0.0
0
LINE
8
CUT
10
152.6794
20
346.9617
30
0.0
11
157.7791
21
351.1266
31
0.0
0
LINE
8
CUT
10
157.7791
20
351.1266
30
0.0
11
162.8627
21
355.0832
31
0.0
0
LINE
8
CUT
10
162.8627
20
355.0832
30
0.0
11
167.9332
21
358.8504
31
0.0
0
LINE
8
CUT
10
167.9332
20
358.8504
30
0.0
11
172.9928
21
362.4447
31
0.0
0
LINE
8
CUT
10
172.9928
20
362.4447
30
0.0
11
178.0433
21
365.8803
31
0.0
0
LINE
8
CUT
10
178.0433
20
365.8803
30
0.0
11
183.0862
21
369.1694
31
0.0
0
LINE
8
CUT
10
183.0862
20
369.1694
30
0.0
11
188.1228
21
372.3228
31
0.0
0
LINE
8
CUT
10
188.1228
20
372.3228
30
0.0
11
193.1539
21
375.3502
31
0.0
0
LINE
8
CUT
10
193.1539
20
375.3502
30
0.0
11
198.1805
21
378.2600
31
0.0
0
LINE
8
CUT
10
198.1805
20
378.2600
30
0.0
11
203.2032
21
381.0599
31
0.0
0
LINE
8
CUT
10
203.2032
20
381.0599
30
0.0
11
208.2225
21
383.7566
31
0.0
0
LINE
8
CUT
10
208.2225
20
383.7566
30
0.0
11
213.2391
21
386.3563
31
0.0
0
LINE
8
CUT
10
213.2391
20
386.3563
30
0.0
11
218.2532
21
388.8646
31
0.0
0
LINE
8
CUT
10
218.2532
20
388.8646
30
0.0
11
223.2652
21
391.2865
31
0.0
0
LINE
8
CUT
10
223.2652
20
391.2865
30
0.0
11
228.2755
21
393.6268
31
0.0
0
LINE
8
CUT
10
228.2755
20
393.6268
30
0.0
11
233.2843
21
395.8895
31
0.0
0
LINE
8
CUT
10
233.2843
20
395.8895
30
0.0
11
238.2917
21
398.0786
31
0.0
0
LINE
8
CUT
10
238.2917
20
398.0786
30
0.0
11
243.2980
21
400.1977
31
0.0
0
LINE
8
CUT
10
243.2980
20
400.1977
30
0.0
11
248.3034
21
402.2500
31
0.0
0
LINE
8
CUT
10
248.3034
20
402.2500
30
0.0
11
253.3080
21
404.2387
31
0.0
0
LINE
8
CUT
10
253.3080
20
404.2387
30
0.0
11
258.3118
21
406.1666
31
0.0
0
LINE
8
CUT
10
258.3118
20
406.1666
30
0.0
11
263.3150
21
408.0363
31
0.0
0
LINE
8
CUT
10
263.3150
20
408.0363
30
0.0
11
268.3177
21
409.8503
31
0.0
0
LINE
8
CUT
10
268.3177
20
409.8503
30
0.0
11
273.3200
21
411.6109
31
0.0
0
LINE
8
CUT
10
273.3200
20
411.6109
30
0.0
11
278.3219
21
413.3203
31
0.0
0
LINE
8
CUT
10
278.3219
20
413.3203
30
0.0
11
283.3235
21
414.9804
31
0.0
0
LINE
8
CUT
10
283.3235
20
414.9804
30
0.0
11
288.3248
21
416.5931
31
0.0
0
LINE
8
CUT
10
288.3248
20
416.5931
30
0.0
11
293.3259
21
418.1603
31
0.0
0
LINE
8
CUT
10
293.3259
20
418.1603
30
0.0
11
298.3268
21
419.6837
31
0.0
0
LINE
8
CUT
10
298.3268
20
419.6837
30
0.0
11
303.3275
21
421.1647
31
0.0
0
LINE
8
CUT
10
303.3275
20
421.1647
30
0.0
11
308.3282
21
422.6050
31
0.0
0
LINE
8
CUT
10
308.3282
20
422.6050
30
0.0
11
313.3286
21
424.0059
31
0.0
0
LINE
8
CUT
10
313.3286
20
424.0059
30
0.0
11
318.3290
21
425.3688
31
0.0
0
LINE
8
CUT
10
318.3290
20
425.3688
30
0.0
11
323.3294
21
426.6949
31
0.0
0
LINE
8
CUT
10
323.3294
20
426.6949
30
0.0
11
328.3296
21
427.9854
31
0.0
0
LINE
8
CUT
10
328.3296
20
427.9854
30
0.0
11
333.3298
21
429.2416
31
0.0
0
LINE
8
CUT
10
333.3298
20
429.2416
30
0.0
11
338.3300
21
430.4645
31
0.0
0
LINE
8
CUT
10
338.3300
20
430.4645
30
0.0
11
343.3301
21
431.6550
31
0.0
0
LINE
8
CUT
10
343.3301
20
431.6550
30
0.0
11
348.3302
21
432.8143
31
0.0
0
LINE
8
CUT
10
348.3302
20
432.8143
30
0.0
11
353.3303
21
433.9433
31
0.0
0
LINE
8
CUT
10
353.3303
20
433.9433
30
0.0
11
358.3304
21
435.0428
31
0.0
0
LINE
8
CUT
10
358.3304
20
435.0428
30
0.0
11
363.3304
21
436.1138
31
0.0
0
LINE
8
CUT
10
363.3304
20
436.1138
30
0.0
11
368.3305
21
437.1570
31
0.0
0
LINE
8
CUT
10
368.3305
20
437.1570
30
0.0
11
373.3305
21
438.1732
31
0.0
0
LINE
8
CUT
10
373.3305
20
438.1732
30
0.0
11
378.3305
21
439.1631
31
0.0
0
LINE
8
CUT
10
378.3305
20
439.1631
30
0.0
11
383.3306
21
440.1276
31
0.0
0
LINE
8
CUT
10
383.3306
20
440.1276
30
0.0
11
388.3306
21
441.0672
31
0.0
0
LINE
8
CUT
10
388.3306
20
441.0672
30
0.0
11
393.3306
21
441.9827
31
0.0
0
LINE
8
CUT
10
393.3306
20
441.9827
30
0.0
11
398.3306
21
442.8746
31
0.0
0
LINE
8
CUT
10
398.3306
20
442.8746
30
0.0
11
403.3306
21
443.7436
31
0.0
0
LINE
8
CUT
10
403.3306
20
443.7436
30
0.0
11
408.3306
21
444.5903
31
0.0
0
LINE
8
CUT
10
408.3306
20
444.5903
30
0.0
11
413.3307
21
445.4151
31
0.0
0
LINE
8
CUT
10
413.3307
20
445.4151
30
0.0
11
418.3307
21
446.2187
31
0.0
0
LINE
8
CUT
10
418.3307
20
446.2187
30
0.0
11
423.3307
21
447.0015
31
0.0
0
LINE
8
CUT
10
423.3307
20
447.0015
30
0.0
11
428.3307
21
447.7640
31
0.0
0
LINE
8
CUT
10
428.3307
20
447.7640
30
0.0
11
433.3308
21
448.5067
31
0.0
0
LINE
8
CUT
10
433.3308
20
448.5067
30
0.0
11
438.3308
21
449.2301
31
0.0
0
LINE
8
CUT
10
438.3308
20
449.2301
30
0.0
11
443.3308
21
449.9345
31
0.0
0
LINE
8
CUT
10
443.3308
20
449.9345
30
0.0
11
448.3308
21
450.6205
31
0.0
0
LINE
8
CUT
10
448.3308
20
450.6205
30
0.0
11
453.3308
21
451.2883
31
0.0
0
LINE
8
CUT
10
453.3308
20
451.2883
30
0.0
11
458.3308
21
451.9383
31
0.0
0
LINE
8
CUT
10
458.3308
20
451.9383
30
0.0
11
463.3308
21
452.5710
31
0.0
0
LINE
8
CUT
10
463.3308
20
452.5710
30
0.0
11
468.3308
21
453.1867
31
0.0
0
LINE
8
CUT
10
468.3308
20
453.1867
30
0.0
11
473.3308
21
453.7857
31
0.0
0
LINE
8
CUT
10
473.3308
20
453.7857
30
0.0
11
478.3308
21
454.3684
31
0.0
0
LINE
8
CUT
10
478.3308
20
454.3684
30
0.0
11
483.3308
21
454.9349
31
0.0
0
LINE
8
CUT
10
483.3308
20
454.9349
30
0.0
11
488.3308
21
455.4858
31
0.0
0
LINE
8
CUT
10
488.3308
20
455.4858
30
0.0
11
493.3308
21
456.0211
31
0.0
0
LINE
8
CUT
10
493.3308
20
456.0211
30
0.0
11
498.3308
21
456.5413
31
0.0
0
LINE
8
CUT
10
498.3308
20
456.5413
30
0.0
11
503.3308
21
457.0465
31
0.0
0
LINE
8
CUT
10
503.3308
20
457.0465
30
0.0
11
508.3308
21
457.5370
31
0.0
0
LINE
8
CUT
10
508.3308
20
457.5370
30
0.0
11
513.3308
21
458.0131
31
0.0
0
LINE
8
CUT
10
513.3308
20
458.0131
30
0.0
11
518.3308
21
458.4749
31
0.0
0
LINE
8
CUT
10
518.3308
20
458.4749
30
0.0
11
523.3308
21
458.9228
31
0.0
0
LINE
8
CUT
10
523.3308
20
458.9228
30
0.0
11
528.3308
21
459.3569
31
0.0
0
LINE
8
CUT
10
528.3308
20
459.3569
30
0.0
11
533.3308
21
459.7774
31
0.0
0
LINE
8
CUT
10
533.3308
20
459.7774
30
0.0
11
538.3308
21
460.1846
31
0.0
0
LINE
8
CUT
10
538.3308
20
460.1846
30
0.0
11
543.3308
21
460.5785
31
0.0
0
LINE
8
CUT
10
543.3308
20
460.5785
30
0.0
11
548.3308
21
460.9595
31
0.0
0
LINE
8
CUT
10
548.3308
20
460.9595
30
0.0
11
553.3308
21
461.3276
31
0.0
0
LINE
8
CUT
10
553.3308
20
461.3276
30
0.0
11
558.3308
21
461.6831
31
0.0
0
LINE
8
CUT
10
558.3308
20
461.6831
30
0.0
11
563.3308
21
462.0261
31
0.0
0
LINE
8
CUT
10
563.3308
20
462.0261
30
0.0
11
568.3308
21
462.3568
31
0.0
0
LINE
8
CUT
10
568.3308
20
462.3568
30
0.0
11
573.3308
21
462.6754
31
0.0
0
LINE
8
CUT
10
573.3308
20
462.6754
30
0.0
11
578.3308
21
462.9819
31
0.0
0
LINE
8
CUT
10
578.3308
20
462.9819
30
0.0
11
583.3308
21
463.2766
31
0.0
0
LINE
8
CUT
10
583.3308
20
463.2766
30
0.0
11
588.3308
21
463.5596
31
0.0
0
LINE
8
CUT
10
588.3308
20
463.5596
30
0.0
11
593.3308
21
463.8311
31
0.0
0
LINE
8
CUT
10
593.3308
20
463.8311
30
0.0
11
598.3308
21
464.0903
31
0.0
0
LINE
8
CUT
10
598.3308
20
464.0903
30
0.0
11
603.3308
21
464.3380
31
0.0
0
LINE
8
CUT
10
603.3308
20
464.3380
30
0.0
11
608.3308
21
464.5746
31
0.0
0
LINE
8
CUT
10
608.3308
20
464.5746
30
0.0
11
613.3308
21
464.8003
31
0.0
0
LINE
8
CUT
10
613.3308
20
464.8003
30
0.0
11
618.3308
21
465.0153
31
0.0
0
LINE
8
CUT
10
618.3308
20
465.0153
30
0.0
11
623.3308
21
465.2197
31
0.0
0
LINE
8
CUT
10
623.3308
20
465.2197
30
0.0
11
628.3308
21
465.4138
31
0.0
0
LINE
8
CUT
10
628.3308
20
465.4138
30
0.0
11
633.3308
21
465.5976
31
0.0
0
LINE
8
CUT
10
633.3308
20
465.5976
30
0.0
11
638.3308
21
465.7713
31
0.0
0
LINE
8
CUT
10
638.3308
20
465.7713
30
0.0
11
643.3308
21
465.9350
31
0.0
0
LINE
8
CUT
10
643.3308
20
465.9350
30
0.0
11
648.3308
21
466.0890
31
0.0
0
LINE
8
CUT
10
648.3308
20
466.0890
30
0.0
11
653.3308
21
466.2333
31
0.0
0
LINE
8
CUT
10
653.3308
20
466.2333
30
0.0
11
658.3308
21
466.3682
31
0.0
0
LINE
8
CUT
10
658.3308
20
466.3682
30
0.0
11
663.3308
21
466.4938
31
0.0
0
LINE
8
CUT
10
663.3308
20
466.4938
30
0.0
11
668.3308
21
466.6102
31
0.0
0
LINE
8
CUT
10
668.3308
20
466.6102
30
0.0
11
673.3308
21
466.7178
31
0.0
0
LINE
8
CUT
10
673.3308
20
466.7178
30
0.0
11
678.3308
21
466.8166
31
0.0
0
LINE
8
CUT
10
678.3308
20
466.8166
30
0.0
11
683.3308
21
466.9068
31
0.0
0
LINE
8
CUT
10
683.3308
20
466.9068
30
0.0
11
688.3308
21
466.9886
31
0.0
0
LINE
8
CUT
10
688.3308
20
466.9886
30
0.0
11
693.3308
21
467.0622
31
0.0
0
LINE
8
CUT
10
693.3308
20
467.0622
30
0.0
11
698.3308
21
467.1279
31
0.0
0
LINE
8
CUT
10
698.3308
20
467.1279
30
0.0
11
703.3308
21
467.1858
31
0.0
0
LINE
8
CUT
10
703.3308
20
467.1858
30
0.0
11
708.3308
21
467.2363
31
0.0
0
LINE
8
CUT
10
708.3308
20
467.2363
30
0.0
11
713.3308
21
467.2794
31
0.0
0
LINE
8
CUT
10
713.3308
20
467.2794
30
0.0
11
718.3308
21
467.3157
31
0.0
0
LINE
8
CUT
10
718.3308
20
467.3157
30
0.0
11
723.3308
21
467.3452
31
0.0
0
LINE
8
CUT
10
723.3308
20
467.3452
30
0.0
11
728.3308
21
467.3684
31
0.0
0
LINE
8
CUT
10
728.3308
20
467.3684
30
0.0
11
733.3308
21
467.3857
31
0.0
0
LINE
8
CUT
10
733.3308
20
467.3857
30
0.0
11
738.3308
21
467.3974
31
0.0
0
LINE
8
CUT
10
738.3308
20
467.3974
30
0.0
11
743.3308
21
467.4042
31
0.0
0
LINE
8
CUT
10
743.3308
20
467.4042
30
0.0
11
748.3308
21
467.4068
31
0.0
0
LINE
8
CUT
10
748.3308
20
467.4068
30
0.0
11
753.3308
21
467.4030
31
0.0
0
LINE
8
CUT
10
753.3308
20
467.4030
30
0.0
11
758.3308
21
467.3814
31
0.0
0
LINE
8
CUT
10
758.3308
20
467.3814
30
0.0
11
763.3308
21
467.3427
31
0.0
0
LINE
8
CUT
10
763.3308
20
467.3427
30
0.0
11
768.3308
21
467.2876
31
0.0
0
LINE
8
CUT
10
768.3308
20
467.2876
30
0.0
11
773.3308
21
467.2168
31
0.0
0
LINE
8
CUT
10
773.3308
20
467.2168
30
0.0
11
778.3308
21
467.1306
31
0.0
0
LINE
8
CUT
10
778.3308
20
467.1306
30
0.0
11
783.3308
21
467.0274
31
0.0
0
LINE
8
CUT
10
783.3308
20
467.0274
30
0.0
11
788.3308
21
466.9056
31
0.0
0
LINE
8
CUT
10
788.3308
20
466.9056
30
0.0
11
793.3308
21
466.7656
31
0.0
0
LINE
8
CUT
10
793.3308
20
466.7656
30
0.0
11
798.3308
21
466.6077
31
0.0
0
LINE
8
CUT
10
798.3308
20
466.6077
30
0.0
11
803.3308
21
466.4322
31
0.0
0
LINE
8
CUT
10
803.3308
20
466.4322
30
0.0
11
808.3308
21
466.2341
31
0.0
0
LINE
8
CUT
10
808.3308
20
466.2341
30
0.0
11
813.3308
21
466.0176
31
0.0
0
LINE
8
CUT
10
813.3308
20
466.0176
30
0.0
11
818.3308
21
465.7837
31
0.0
0
LINE
8
CUT
10
818.3308
20
465.7837
30
0.0
11
823.3308
21
465.5328
31
0.0
0
LINE
8
CUT
10
823.3308
20
465.5328
30
0.0
11
828.3308
21
465.2653
31
0.0
0
LINE
8
CUT
10
828.3308
20
465.2653
30
0.0
11
833.3308
21
464.9817
31
0.0
0
LINE
8
CUT
10
833.3308
20
464.9817
30
0.0
11
838.3308
21
464.6824
31
0.0
0
LINE
8
CUT
10
838.3308
20
464.6824
30
0.0
11
843.3308
21
464.3677
31
0.0
0
LINE
8
CUT
10
843.3308
20
464.3677
30
0.0
11
848.3308
21
464.0382
31
0.0
0
LINE
8
CUT
10
848.3308
20
464.0382
30
0.0
11
853.3308
21
463.6776
31
0.0
0
LINE
8
CUT
10
853.3308
20
463.6776
30
0.0
11
858.3308
21
463.2821
31
0.0
0
LINE
8
CUT
10
858.3308
20
463.2821
30
0.0
11
863.3308
21
462.8566
31
0.0
0
LINE
8
CUT
10
863.3308
20
462.8566
30
0.0
11
868.3308
21
462.4037
31
0.0
0
LINE
8
CUT
10
868.3308
20
462.4037
30
0.0
11
873.3308
21
461.9248
31
0.0
0
LINE
8
CUT
10
873.3308
20
461.9248
30
0.0
11
878.3308
21
461.4212
31
0.0
0
LINE
8
CUT
10
878.3308
20
461.4212
30
0.0
11
883.3308
21
460.8940
31
0.0
0
LINE
8
CUT
10
883.3308
20
460.8940
30
0.0
11
888.3308
21
460.3441
31
0.0
0
LINE
8
CUT
10
888.3308
20
460.3441
30
0.0
11
893.3308
21
459.7723
31
0.0
0
LINE
8
CUT
10
893.3308
20
459.7723
30
0.0
11
898.3309
21
459.1792
31
0.0
0
LINE
8
CUT
10
898.3309
20
459.1792
30
0.0
11
903.3309
21
458.5656
31
0.0
0
LINE
8
CUT
10
903.3309
20
458.5656
30
0.0
11
908.3309
21
457.9320
31
0.0
0
LINE
8
CUT
10
908.3309
20
457.9320
30
0.0
11
913.3309
21
457.2789
31
0.0
0
LINE
8
CUT
10
913.3309
20
457.2789
30
0.0
11
918.3309
21
456.6067
31
0.0
0
LINE
8
CUT
10
918.3309
20
456.6067
30
0.0
11
923.3309
21
455.9159
31
0.0
0
LINE
8
CUT
10
923.3309
20
455.9159
30
0.0
11
928.3309
21
455.2066
31
0.0
0
LINE
8
CUT
10
928.3309
20
455.2066
30
0.0
11
933.3310
21
454.4793
31
0.0
0
LINE
8
CUT
10
933.3310
20
454.4793
30
0.0
11
938.3310
21
453.7342
31
0.0
0
LINE
8
CUT
10
938.3310
20
453.7342
30
0.0
11
943.3310
21
452.9712
31
0.0
0
LINE
8
CUT
10
943.3310
20
452.9712
30
0.0
11
948.3310
21
452.1907
31
0.0
0
LINE
8
CUT
10
948.3310
20
452.1907
30
0.0
11
953.3311
21
451.3924
31
0.0
0
LINE
8
CUT
10
953.3311
20
451.3924
30
0.0
11
958.3311
21
450.5765
31
0.0
0
LINE
8
CUT
10
958.3311
20
450.5765
30
0.0
11
963.3312
21
449.7428
31
0.0
0
LINE
8
CUT
10
963.3312
20
449.7428
30
0.0
11
968.3312
21
448.8912
31
0.0
0
LINE
8
CUT
10
968.3312
20
448.8912
30
0.0
11
973.3313
21
448.0214
31
0.0
0
LINE
8
CUT
10
973.3313
20
448.0214
30
0.0
11
978.3314
21
447.1332
31
0.0
0
LINE
8
CUT
10
978.3314
20
447.1332
30
0.0
11
983.3314
21
446.2263
31
0.0
0
LINE
8
CUT
10
983.3314
20
446.2263
30
0.0
11
988.3315
21
445.3003
31
0.0
0
LINE
8
CUT
10
988.3315
20
445.3003
30
0.0
11
993.3316
21
444.3549
31
0.0
0
LINE
8
CUT
10
993.3316
20
444.3549
30
0.0
11
998.3317
21
443.3895
31
0.0
0
LINE
8
CUT
10
998.3317
20
443.3895
30
0.0
11
1003.3318
21
442.4037
31
0.0
0
LINE
8
CUT
10
1003.3318
20
442.4037
30
0.0
11
1008.3319
21
441.3971
31
0.0
0
LINE
8
CUT
10
1008.3319
20
441.3971
30
0.0
11
1013.3320
21
440.3691
31
0.0
0
LINE
8
CUT
10
1013.3320
20
440.3691
30
0.0
11
1018.3321
21
439.3192
31
0.0
0
LINE
8
CUT
10
1018.3321
20
439.3192
30
0.0
11
1023.3323
21
438.2467
31
0.0
0
LINE
8
CUT
10
1023.3323
20
438.2467
30
0.0
11
1028.3324
21
437.1512
31
0.0
0
LINE
8
CUT
10
1028.3324
20
437.1512
30
0.0
11
1033.3326
21
436.0321
31
0.0
0
LINE
8
CUT
10
1033.3326
20
436.0321
30
0.0
11
1038.3328
21
434.8887
31
0.0
0
LINE
8
CUT
10
1038.3328
20
434.8887
30
0.0
11
1043.3329
21
433.7205
31
0.0
0
LINE
8
CUT
10
1043.3329
20
433.7205
30
0.0
11
1048.3331
21
432.5269
31
0.0
0
LINE
8
CUT
10
1048.3331
20
432.5269
30
0.0
11
1053.3333
21
431.3073
31
0.0
0
LINE
8
CUT
10
1053.3333
20
431.3073
30
0.0
11
1058.3335
21
430.0612
31
0.0
0
LINE
8
CUT
10
1058.3335
20
430.0612
30
0.0
11
1063.3338
21
428.7879
31
0.0
0
LINE
8
CUT
10
1063.3338
20
428.7879
30
0.0
11
1068.3340
21
427.4869
31
0.0
0
LINE
8
CUT
10
1068.3340
20
427.4869
30
0.0
11
1073.3342
21
426.1576
31
0.0
0
LINE
8
CUT
10
1073.3342
20
426.1576
30
0.0
11
1078.3345
21
424.7995
31
0.0
0
LINE
8
CUT
10
1078.3345
20
424.7995
30
0.0
11
1083.3348
21
423.4121
31
0.0
0
LINE
8
CUT
10
1083.3348
20
423.4121
30
0.0
11
1088.3351
21
421.9948
31
0.0
0
LINE
8
CUT
10
1088.3351
20
421.9948
30
0.0
11
1093.3354
21
420.5472
31
0.0
0
LINE
8
CUT
10
1093.3354
20
420.5472
30
0.0
11
1098.3357
21
419.0686
31
0.0
0
LINE
8
CUT
10
1098.3357
20
419.0686
30
0.0
11
1103.3361
21
417.5587
31
0.0
0
LINE
8
CUT
10
1103.3361
20
417.5587
30
0.0
11
1108.3364
21
416.0169
31
0.0
0
LINE
8
CUT
10
1108.3364
20
416.0169
30
0.0
11
1113.3368
21
414.4428
31
0.0
0
LINE
8
CUT
10
1113.3368
20
414.4428
30
0.0
11
1118.3372
21
412.8358
31
0.0
0
LINE
8
CUT
10
1118.3372
20
412.8358
30
0.0
11
1123.3376
21
411.1957
31
0.0
0
LINE
8
CUT
10
1123.3376
20
411.1957
30
0.0
11
1128.3380
21
409.5218
31
0.0
0
LINE
8
CUT
10
1128.3380
20
409.5218
30
0.0
11
1133.3384
21
407.8168
31
0.0
0
LINE
8
CUT
10
1133.3384
20
407.8168
30
0.0
11
1138.3389
21
406.0832
31
0.0
0
LINE
8
CUT
10
1138.3389
20
406.0832
30
0.0
11
1143.3394
21
404.3205
31
0.0
0
LINE
8
CUT
10
1143.3394
20
404.3205
30
0.0
11
1148.3399
21
402.5286
31
0.0
0
LINE
8
CUT
10
1148.3399
20
402.5286
30
0.0
11
1153.3404
21
400.7068
31
0.0
0
LINE
8
CUT
10
1153.3404
20
400.7068
30
0.0
11
1158.3410
21
398.8549
31
0.0
0
LINE
8
CUT
10
1158.3410
20
398.8549
30
0.0
11
1163.3415
21
396.9724
31
0.0
0
LINE
8
CUT
10
1163.3415
20
396.9724
30
0.0
11
1168.3421
21
395.0588
31
0.0
0
LINE
8
CUT
10
1168.3421
20
395.0588
30
0.0
11
1173.3427
21
393.1137
31
0.0
0
LINE
8
CUT
10
1173.3427
20
393.1137
30
0.0
11
1178.3434
21
391.1365
31
0.0
0
LINE
8
CUT
10
1178.3434
20
391.1365
30
0.0
11
1183.3440
21
389.1268
31
0.0
0
LINE
8
CUT
10
1183.3440
20
389.1268
30
0.0
11
1188.3447
21
387.0840
31
0.0
0
LINE
8
CUT
10
1188.3447
20
387.0840
30
0.0
11
1193.3454
21
385.0074
31
0.0
0
LINE
8
CUT
10
1193.3454
20
385.0074
30
0.0
11
1198.3461
21
382.8967
31
0.0
0
LINE
8
CUT
10
1198.3461
20
382.8967
30
0.0
11
1203.3469
21
380.7510
31
0.0
0
LINE
8
CUT
10
1203.3469
20
380.7510
30
0.0
11
1208.3477
21
378.5698
31
0.0
0
LINE
8
CUT
10
1208.3477
20
378.5698
30
0.0
11
1213.3485
21
376.3523
31
0.0
0
LINE
8
CUT
10
1213.3485
20
376.3523
30
0.0
11
1218.3493
21
374.0979
31
0.0
0
LINE
8
CUT
10
1218.3493
20
374.0979
30
0.0
11
1223.3502
21
371.8058
31
0.0
0
LINE
8
CUT
10
1223.3502
20
371.8058
30
0.0
11
1228.3511
21
369.4752
31
0.0
0
LINE
8
CUT
10
1228.3511
20
369.4752
30
0.0
11
1233.3520
21
367.1053
31
0.0
0
LINE
8
CUT
10
1233.3520
20
367.1053
30
0.0
11
1238.3530
21
364.6951
31
0.0
0
LINE
8
CUT
10
1238.3530
20
364.6951
30
0.0
11
1243.3539
21
362.2438
31
0.0
0
LINE
8
CUT
10
1243.3539
20
362.2438
30
0.0
11
1248.3549
21
359.7504
31
0.0
0
LINE
8
CUT
10
1248.3549
20
359.7504
30
0.0
11
1253.3560
21
357.2138
31
0.0
0
LINE
8
CUT
10
1253.3560
20
357.2138
30
0.0
11
1258.3571
21
354.6330
31
0.0
0
LINE
8
CUT
10
1258.3571
20
354.6330
30
0.0
11
1263.3582
21
352.0069
31
0.0
0
LINE
8
CUT
10
1263.3582
20
352.0069
30
0.0
11
1268.3593
21
349.3341
31
0.0
0
LINE
8
CUT
10
1268.3593
20
349.3341
30
0.0
11
1273.3605
21
346.6135
31
0.0
0
LINE
8
CUT
10
1273.3605
20
346.6135
30
0.0
11
1278.3617
21
343.8436
31
0.0
0
LINE
8
CUT
10
1278.3617
20
343.8436
30
0.0
11
1283.3629
21
341.0230
31
0.0
0
LINE
8
CUT
10
1283.3629
20
341.0230
30
0.0
11
1288.3642
21
338.1502
31
0.0
0
LINE
8
CUT
10
1288.3642
20
338.1502
30
0.0
11
1293.3655
21
335.2235
31
0.0
0
LINE
8
CUT
10
1293.3655
20
335.2235
30
0.0
11
1298.3668
21
332.2412
31
0.0
0
LINE
8
CUT
10
1298.3668
20
332.2412
30
0.0
11
1303.3682
21
329.2013
31
0.0
0
LINE
8
CUT
10
1303.3682
20
329.2013
30
0.0
11
1308.3696
21
326.1019
31
0.0
0
LINE
8
CUT
10
1308.3696
20
326.1019
30
0.0
11
1313.3711
21
322.9408
31
0.0
0
LINE
8
CUT
10
1313.3711
20
322.9408
30
0.0
11
1318.3726
21
319.7157
31
0.0
0
LINE
8
CUT
10
1318.3726
20
319.7157
30
0.0
11
1323.3741
21
316.4242
31
0.0
0
LINE
8
CUT
10
1323.3741
20
316.4242
30
0.0
11
1328.3756
21
313.0634
31
0.0
0
LINE
8
CUT
10
1328.3756
20
313.0634
30
0.0
11
1333.3773
21
309.6305
31
0.0
0
LINE
8
CUT
10
1333.3773
20
309.6305
30
0.0
11
1338.3789
21
306.1224
31
0.0
0
LINE
8
CUT
10
1338.3789
20
306.1224
30
0.0
11
1343.3806
21
302.5356
31
0.0
0
LINE
8
CUT
10
1343.3806
20
302.5356
30
0.0
11
1348.3823
21
298.8663
31
0.0
0
LINE
8
CUT
10
1348.3823
20
298.8663
30
0.0
11
1353.3841
21
295.1104
31
0.0
0
LINE
8
CUT
10
1353.3841
20
295.1104
30
0.0
11
1358.3859
21
291.2635
31
0.0
0
LINE
8
CUT
10
1358.3859
20
291.2635
30
0.0
11
1363.3878
21
287.3205
31
0.0
0
LINE
8
CUT
10
1363.3878
20
287.3205
30
0.0
11
1368.3897
21
283.2759
31
0.0
0
LINE
8
CUT
10
1368.3897
20
283.2759
30
0.0
11
1373.3916
21
279.1236
31
0.0
0
LINE
8
CUT
10
1373.3916
20
279.1236
30
0.0
11
1378.3936
21
274.8568
31
0.0
0
LINE
8
CUT
10
1378.3936
20
274.8568
30
0.0
11
1383.3956
21
270.4678
31
0.0
0
LINE
8
CUT
10
1383.3956
20
270.4678
30
0.0
11
1388.3977
21
265.9479
31
0.0
0
LINE
8
CUT
10
1388.3977
20
265.9479
30
0.0
11
1393.3998
21
261.2872
31
0.0
0
LINE
8
CUT
10
1393.3998
20
261.2872
30
0.0
11
1398.4020
21
256.4744
31
0.0
0
LINE
8
CUT
10
1398.4020
20
256.4744
30
0.0
11
1403.4042
21
251.4964
31
0.0
0
LINE
8
CUT
10
1403.4042
20
251.4964
30
0.0
11
1408.4065
21
246.3381
31
0.0
0
LINE
8
CUT
10
1408.4065
20
246.3381
30
0.0
11
1413.4088
21
240.9814
31
0.0
0
LINE
8
CUT
10
1413.4088
20
240.9814
30
0.0
11
1418.4112
21
235.4052
31
0.0
0
LINE
8
CUT
10
1418.4112
20
235.4052
30
0.0
11
1423.4136
21
229.5835
31
0.0
0
LINE
8
CUT
10
1423.4136
20
229.5835
30
0.0
11
1428.4161
21
223.4849
31
0.0
0
LINE
8
CUT
10
1428.4161
20
223.4849
30
0.0
11
1433.4186
21
217.0697
31
0.0
0
LINE
8
CUT
10
1433.4186
20
217.0697
30
0.0
11
1438.4212
21
210.2874
31
0.0
0
LINE
8
CUT
10
1438.4212
20
210.2874
30
0.0
11
1443.4238
21
203.0714
31
0.0
0
LINE
8
CUT
10
1443.4238
20
203.0714
30
0.0
11
1448.4265
21
195.3310
31
0.0
0
LINE
8
CUT
10
1448.4265
20
195.3310
30
0.0
11
1453.4293
21
186.9365
31
0.0
0
LINE
8
CUT
10
1453.4293
20
186.9365
30
0.0
11
1458.4321
21
177.6911
31
0.0
0
LINE
8
CUT
10
1458.4321
20
177.6911
30
0.0
11
1463.4349
21
167.2668
31
0.0
0
LINE
8
CUT
10
1463.4349
20
167.2668
30
0.0
11
1468.4378
21
155.0337
31
0.0
0
LINE
8
CUT
10
1468.4378
20
155.0337
30
0.0
11
1473.4408
21
139.3991
31
0.0
0
LINE
8
CUT
10
1473.4408
20
139.3991
30
0.0
11
1478.4438
21
105.1347
31
0.0
0
LINE
8
CUT
10
1478.4438
20
105.1347
30
0.0
11
1478.4438
21
0.0000
31
0.0
0
LINE
8
CUT
10
1478.4438
20
0.0000
30
0.0
11
0.0000
21
0.0000
31
0.0
0
LINE
8
CHANNEL
10
0.0000
20
36.2880
30
0.0
11
65.6259
21
64.4246
31
0.0
0
LINE
8
CHANNEL
10
65.6259
20
64.4246
30
0.0
11
77.1720
21
74.2402
31
0.0
0
LINE
8
CHANNEL
10
77.1720
20
74.2402
30
0.0
11
85.4854
21
81.4608
31
0.0
0
LINE
8
CHANNEL
10
85.4854
20
81.4608
30
0.0
11
92.5006
21
87.3707
31
0.0
0
LINE
8
CHANNEL
10
92.5006
20
87.3707
30
0.0
11
98.8455
21
92.4551
31
0.0
0
LINE
8
CHANNEL
10
98.8455
20
92.4551
30
0.0
11
104.7970
21
96.9586
31
0.0
0
LINE
8
CHANNEL
10
104.7970
20
96.9586
30
0.0
11
110.4979
21
101.0249
31
0.0
0
LINE
8
CHANNEL
10
110.4979
20
101.0249
30
0.0
11
116.0298
21
104.7468
31
0.0
0
LINE
8
CHANNEL
10
116.0298
20
104.7468
30
0.0
11
121.4427
21
108.1881
31
0.0
0
LINE
8
CHANNEL
10
121.4427
20
108.1881
30
0.0
11
126.7691
21
111.3951
31
0.0
0
LINE
8
CHANNEL
10
126.7691
20
111.3951
30
0.0
11
132.0307
21
114.4025
31
0.0
0
LINE
8
CHANNEL
10
132.0307
20
114.4025
30
0.0
11
137.2430
21
117.2370
31
0.0
0
LINE
8
CHANNEL
10
137.2430
20
117.2370
30
0.0
11
142.4168
21
119.9201
31
0.0
0
LINE
8
CHANNEL
10
142.4168
20
119.9201
30
0.0
11
147.5602
21
122.4687
31
0.0
0
LINE
8
CHANNEL
10
147.5602
20
122.4687
30
0.0
11
152.6794
21
124.8970
31
0.0
0
LINE
8
CHANNEL
10
152.6794
20
124.8970
30
0.0
11
157.7791
21
127.2168
31
0.0
0
LINE
8
CHANNEL
10
157.7791
20
127.2168
30
0.0
11
162.8627
21
129.4380
31
0.0
0
LINE
8
CHANNEL
10
162.8627
20
129.4380
30
0.0
11
167.9332
21
131.5690
31
0.0
0
LINE
8
CHANNEL
10
167.9332
20
131.5690
30
0.0
11
172.9928
21
133.6170
31
0.0
0
LINE
8
CHANNEL
10
172.9928
20
133.6170
30
0.0
11
178.0433
21
135.5885
31
0.0
0
LINE
8
CHANNEL
10
178.0433
20
135.5885
30
0.0
11
183.0862
21
137.4889
31
0.0
0
LINE
8
CHANNEL
10
183.0862
20
137.4889
30
0.0
11
188.1228
21
139.3231
31
0.0
0
LINE
8
CHANNEL
10
188.1228
20
139.3231
30
0.0
11
193.1539
21
141.0955
31
0.0
0
LINE
8
CHANNEL
10
193.1539
20
141.0955
30
0.0
11
198.1805
21
142.8098
31
0.0
0
LINE
8
CHANNEL
10
198.1805
20
142.8098
30
0.0
11
203.2032
21
144.4694
31
0.0
0
LINE
8
CHANNEL
10
203.2032
20
144.4694
30
0.0
11
208.2225
21
146.0776
31
0.0
0
LINE
8
CHANNEL
10
208.2225
20
146.0776
30
0.0
11
213.2391
21
147.6371
31
0.0
0
LINE
8
CHANNEL
10
213.2391
20
147.6371
30
0.0
11
218.2532
21
149.1505
31
0.0
0
LINE
8
CHANNEL
10
218.2532
20
149.1505
30
0.0
11
223.2652
21
150.6200
31
0.0
0
LINE
8
CHANNEL
10
223.2652
20
150.6200
30
0.0
11
228.2755
21
152.0477
31
0.0
0
LINE
8
CHANNEL
10
228.2755
20
152.0477
30
0.0
11
233.2843
21
153.4357
31
0.0
0
LINE
8
CHANNEL
10
233.2843
20
153.4357
30
0.0
11
238.2917
21
154.7857
31
0.0
0
LINE
8
CHANNEL
10
238.2917
20
154.7857
30
0.0
11
243.2980
21
156.0993
31
0.0
0
LINE
8
CHANNEL
10
243.2980
20
156.0993
30
0.0
11
248.3034
21
157.3780
31
0.0
0
LINE
8
CHANNEL
10
248.3034
20
157.3780
30
0.0
11
253.3080
21
158.6233
31
0.0
0
LINE
8
CHANNEL
10
253.3080
20
158.6233
30
0.0
11
258.3118
21
159.8365
31
0.0
0
LINE
8
CHANNEL
10
258.3118
20
159.8365
30
0.0
11
263.3150
21
161.0188
31
0.0
0
LINE
8
CHANNEL
10
263.3150
20
161.0188
30
0.0
11
268.3177
21
162.1713
31
0.0
0
LINE
8
CHANNEL
10
268.3177
20
162.1713
30
0.0
11
273.3200
21
163.2950
31
0.0
0
LINE
8
CHANNEL
10
273.3200
20
163.2950
30
0.0
11
278.3219
21
164.3911
31
0.0
0
LINE
8
CHANNEL
10
278.3219
20
164.3911
30
0.0
11
283.3235
21
165.4603
31
0.0
0
LINE
8
CHANNEL
10
283.3235
20
165.4603
30
0.0
11
288.3248
21
166.5036
31
0.0
0
LINE
8
CHANNEL
10
288.3248
20
166.5036
30
0.0
11
293.3259
21
167.5218
31
0.0
0
LINE
8
CHANNEL
10
293.3259
20
167.5218
30
0.0
11
298.3268
21
168.5156
31
0.0
0
LINE
8
CHANNEL
10
298.3268
20
168.5156
30
0.0
11
303.3275
21
169.4859
31
0.0
0
LINE
8
CHANNEL
10
303.3275
20
169.4859
30
0.0
11
308.3282
21
170.4332
31
0.0
0
LINE
8
CHANNEL
10
308.3282
20
170.4332
30
0.0
11
313.3286
21
171.3583
31
0.0
0
LINE
8
CHANNEL
10
313.3286
20
171.3583
30
0.0
11
318.3290
21
172.2617
31
0.0
0
LINE
8
CHANNEL
10
318.3290
20
172.2617
30
0.0
11
323.3294
21
173.1441
31
0.0
0
LINE
8
CHANNEL
10
323.3294
20
173.1441
30
0.0
11
328.3296
21
174.0060
31
0.0
0
LINE
8
CHANNEL
10
328.3296
20
174.0060
30
0.0
11
333.3298
21
174.8479
31
0.0
0
LINE
8
CHANNEL
10
333.3298
20
174.8479
30
0.0
11
338.3300
21
175.6703
31
0.0
0
LINE
8
CHANNEL
10
338.3300
20
175.6703
30
0.0
11
343.3301
21
176.4738
31
0.0
0
LINE
8
CHANNEL
10
343.3301
20
176.4738
30
0.0
11
348.3302
21
177.2587
31
0.0
0
LINE
8
CHANNEL
10
348.3302
20
177.2587
30
0.0
11
353.3303
21
178.0255
31
0.0
0
LINE
8
CHANNEL
10
353.3303
20
178.0255
30
0.0
11
358.3304
21
178.7746
31
0.0
0
LINE
8
CHANNEL
10
358.3304
20
178.7746
30
0.0
11
363.3304
21
179.5065
31
0.0
0
LINE
8
CHANNEL
10
363.3304
20
179.5065
30
0.0
11
368.3305
21
180.2214
31
0.0
0
LINE
8
CHANNEL
10
368.3305
20
180.2214
30
0.0
11
373.3305
21
180.9199
31
0.0
0
LINE
8
CHANNEL
10
373.3305
20
180.9199
30
0.0
11
378.3305
21
181.6021
31
0.0
0
LINE
8
CHANNEL
10
378.3305
20
181.6021
30
0.0
11
383.3306
21
182.2685
31
0.0
0
LINE
8
CHANNEL
10
383.3306
20
182.2685
30
0.0
11
388.3306
21
182.9194
31
0.0
0
LINE
8
CHANNEL
10
388.3306
20
182.9194
30
0.0
11
393.3306
21
183.5550
31
0.0
0
LINE
8
CHANNEL
10
393.3306
20
183.5550
30
0.0
11
398.3306
21
184.1757
31
0.0
0
LINE
8
CHANNEL
10
398.3306
20
184.1757
30
0.0
11
403.3306
21
184.7818
31
0.0
0
LINE
8
CHANNEL
10
403.3306
20
184.7818
30
0.0
11
408.3306
21
185.3735
31
0.0
0
LINE
8
CHANNEL
10
408.3306
20
185.3735
30
0.0
11
413.3307
21
185.9512
31
0.0
0
LINE
8
CHANNEL
10
413.3307
20
185.9512
30
0.0
11
418.3307
21
186.5150
31
0.0
0
LINE
8
CHANNEL
10
418.3307
20
186.5150
30
0.0
11
423.3307
21
187.0652
31
0.0
0
LINE
8
CHANNEL
10
423.3307
20
187.0652
30
0.0
11
428.3307
21
187.6020
31
0.0
0
LINE
8
CHANNEL
10
428.3307
20
187.6020
30
0.0
11
433.3308
21
188.1258
31
0.0
0
LINE
8
CHANNEL
10
433.3308
20
188.1258
30
0.0
11
438.3308
21
188.6366
31
0.0
0
LINE
8
CHANNEL
10
438.3308
20
188.6366
30
0.0
11
443.3308
21
189.1348
31
0.0
0
LINE
8
CHANNEL
10
443.3308
20
189.1348
30
0.0
11
448.3308
21
189.6205
31
0.0
0
LINE
8
CHANNEL
10
448.3308
20
189.6205
30
0.0
11
453.3308
21
190.0939
31
0.0
0
LINE
8
CHANNEL
10
453.3308
20
190.0939
30
0.0
11
458.3308
21
190.5552
31
0.0
0
LINE
8
CHANNEL
10
458.3308
20
190.5552
30
0.0
11
463.3308
21
191.0047
31
0.0
0
LINE
8
CHANNEL
10
463.3308
20
191.0047
30
0.0
11
468.3308
21
191.4424
31
0.0
0
LINE
8
CHANNEL
10
468.3308
20
191.4424
30
0.0
11
473.3308
21
191.8687
31
0.0
0
LINE
8
CHANNEL
10
473.3308
20
191.8687
30
0.0
11
478.3308
21
192.2836
31
0.0
0
LINE
8
CHANNEL
10
478.3308
20
192.2836
30
0.0
11
483.3308
21
192.6873
31
0.0
0
LINE
8
CHANNEL
10
483.3308
20
192.6873
30
0.0
11
488.3308
21
193.0800
31
0.0
0
LINE
8
CHANNEL
10
488.3308
20
193.0800
30
0.0
11
493.3308
21
193.4618
31
0.0
0
LINE
8
CHANNEL
10
493.3308
20
193.4618
30
0.0
11
498.3308
21
193.8330
31
0.0
0
LINE
8
CHANNEL
10
498.3308
20
193.8330
30
0.0
11
503.3308
21
194.1936
31
0.0
0
LINE
8
CHANNEL
10
503.3308
20
194.1936
30
0.0
11
508.3308
21
194.5438
31
0.0
0
LINE
8
CHANNEL
10
508.3308
20
194.5438
30
0.0
11
513.3308
21
194.8838
31
0.0
0
LINE
8
CHANNEL
10
513.3308
20
194.8838
30
0.0
11
518.3308
21
195.2137
31
0.0
0
LINE
8
CHANNEL
10
518.3308
20
195.2137
30
0.0
11
523.3308
21
195.5336
31
0.0
0
LINE
8
CHANNEL
10
523.3308
20
195.5336
30
0.0
11
528.3308
21
195.8437
31
0.0
0
LINE
8
CHANNEL
10
528.3308
20
195.8437
30
0.0
11
533.3308
21
196.1440
31
0.0
0
LINE
8
CHANNEL
10
533.3308
20
196.1440
30
0.0
11
538.3308
21
196.4349
31
0.0
0
LINE
8
CHANNEL
10
538.3308
20
196.4349
30
0.0
11
543.3308
21
196.7162
31
0.0
0
LINE
8
CHANNEL
10
543.3308
20
196.7162
30
0.0
11
548.3308
21
196.9883
31
0.0
0
LINE
8
CHANNEL
10
548.3308
20
196.9883
30
0.0
11
553.3308
21
197.2512
31
0.0
0
LINE
8
CHANNEL
10
553.3308
20
197.2512
30
0.0
11
558.3308
21
197.5050
31
0.0
0
LINE
8
CHANNEL
10
558.3308
20
197.5050
30
0.0
11
563.3308
21
197.7499
31
0.0
0
LINE
8
CHANNEL
10
563.3308
20
197.7499
30
0.0
11
568.3308
21
197.9860
31
0.0
0
LINE
8
CHANNEL
10
568.3308
20
197.9860
30
0.0
11
573.3308
21
198.2133
31
0.0
0
LINE
8
CHANNEL
10
573.3308
20
198.2133
30
0.0
11
578.3308
21
198.4321
31
0.0
0
LINE
8
CHANNEL
10
578.3308
20
198.4321
30
0.0
11
583.3308
21
198.6424
31
0.0
0
LINE
8
CHANNEL
10
583.3308
20
198.6424
30
0.0
11
588.3308
21
198.8443
31
0.0
0
LINE
8
CHANNEL
10
588.3308
20
198.8443
30
0.0
11
593.3308
21
199.0380
31
0.0
0
LINE
8
CHANNEL
10
593.3308
20
199.0380
30
0.0
11
598.3308
21
199.2235
31
0.0
0
LINE
8
CHANNEL
10
598.3308
20
199.2235
30
0.0
11
603.3308
21
199.4010
31
0.0
0
LINE
8
CHANNEL
10
603.3308
20
199.4010
30
0.0
11
608.3308
21
199.5706
31
0.0
0
LINE
8
CHANNEL
10
608.3308
20
199.5706
30
0.0
11
613.3308
21
199.7324
31
0.0
0
LINE
8
CHANNEL
10
613.3308
20
199.7324
30
0.0
11
618.3308
21
199.8865
31
0.0
0
LINE
8
CHANNEL
10
618.3308
20
199.8865
30
0.0
11
623.3308
21
200.0330
31
0.0
0
LINE
8
CHANNEL
10
623.3308
20
200.0330
30
0.0
11
628.3308
21
200.1721
31
0.0
0
LINE
8
CHANNEL
10
628.3308
20
200.1721
30
0.0
11
633.3308
21
200.3038
31
0.0
0
LINE
8
CHANNEL
10
633.3308
20
200.3038
30
0.0
11
638.3308
21
200.4283
31
0.0
0
LINE
8
CHANNEL
10
638.3308
20
200.4283
30
0.0
11
643.3308
21
200.5456
31
0.0
0
LINE
8
CHANNEL
10
643.3308
20
200.5456
30
0.0
11
648.3308
21
200.6559
31
0.0
0
LINE
8
CHANNEL
10
648.3308
20
200.6559
30
0.0
11
653.3308
21
200.7593
31
0.0
0
LINE
8
CHANNEL
10
653.3308
20
200.7593
30
0.0
11
658.3308
21
200.8559
31
0.0
0
LINE
8
CHANNEL
10
658.3308
20
200.8559
30
0.0
11
663.3308
21
200.9459
31
0.0
0
LINE
8
CHANNEL
10
663.3308
20
200.9459
30
0.0
11
668.3308
21
201.0293
31
0.0
0
LINE
8
CHANNEL
10
668.3308
20
201.0293
30
0.0
11
673.3308
21
201.1064
31
0.0
0
LINE
8
CHANNEL
10
673.3308
20
201.1064
30
0.0
11
678.3308
21
201.1771
31
0.0
0
LINE
8
CHANNEL
10
678.3308
20
201.1771
30
0.0
11
683.3308
21
201.2417
31
0.0
0
LINE
8
CHANNEL
10
683.3308
20
201.2417
30
0.0
11
688.3308
21
201.3003
31
0.0
0
LINE
8
CHANNEL
10
688.3308
20
201.3003
30
0.0
11
693.3308
21
201.3531
31
0.0
0
LINE
8
CHANNEL
10
693.3308
20
201.3531
30
0.0
11
698.3308
21
201.4001
31
0.0
0
LINE
8
CHANNEL
10
698.3308
20
201.4001
30
0.0
11
703.3308
21
201.4416
31
0.0
0
LINE
8
CHANNEL
10
703.3308
20
201.4416
30
0.0
11
708.3308
21
201.4777
31
0.0
0
LINE
8
CHANNEL
10
708.3308
20
201.4777
30
0.0
11
713.3308
21
201.5087
31
0.0
0
LINE
8
CHANNEL
10
713.3308
20
201.5087
30
0.0
11
718.3308
21
201.5346
31
0.0
0
LINE
8
CHANNEL
10
718.3308
20
201.5346
30
0.0
11
723.3308
21
201.5558
31
0.0
0
LINE
8
CHANNEL
10
723.3308
20
201.5558
30
0.0
11
728.3308
21
201.5724
31
0.0
0
LINE
8
CHANNEL
10
728.3308
20
201.5724
30
0.0
11
733.3308
21
201.5847
31
0.0
0
LINE
8
CHANNEL
10
733.3308
20
201.5847
30
0.0
11
738.3308
21
201.5931
31
0.0
0
LINE
8
CHANNEL
10
738.3308
20
201.5931
30
0.0
11
743.3308
21
201.5980
31
0.0
0
LINE
8
CHANNEL
10
743.3308
20
201.5980
30
0.0
11
748.3308
21
201.5999
31
0.0
0
LINE
8
CHANNEL
10
748.3308
20
201.5999
30
0.0
11
753.3308
21
201.5972
31
0.0
0
LINE
8
CHANNEL
10
753.3308
20
201.5972
30
0.0
11
758.3308
21
201.5817
31
0.0
0
LINE
8
CHANNEL
10
758.3308
20
201.5817
30
0.0
11
763.3308
21
201.5539
31
0.0
0
LINE
8
CHANNEL
10
763.3308
20
201.5539
30
0.0
11
768.3308
21
201.5145
31
0.0
0
LINE
8
CHANNEL
10
768.3308
20
201.5145
30
0.0
11
773.3308
21
201.4638
31
0.0
0
LINE
8
CHANNEL
10
773.3308
20
201.4638
30
0.0
11
778.3308
21
201.4021
31
0.0
0
LINE
8
CHANNEL
10
778.3308
20
201.4021
30
0.0
11
783.3308
21
201.3295
31
0.0
0
LINE
8
CHANNEL
10
783.3308
20
201.3295
30
0.0
11
788.3308
21
201.2463
31
0.0
0
LINE
8
CHANNEL
10
788.3308
20
201.2463
30
0.0
11
793.3308
21
201.1525
31
0.0
0
LINE
8
CHANNEL
10
793.3308
20
201.1525
30
0.0
11
798.3308
21
201.0483
31
0.0
0
LINE
8
CHANNEL
10
798.3308
20
201.0483
30
0.0
11
803.3308
21
200.9339
31
0.0
0
LINE
8
CHANNEL
10
803.3308
20
200.9339
30
0.0
11
808.3308
21
200.8092
31
0.0
0
LINE
8
CHANNEL
10
808.3308
20
200.8092
30
0.0
11
813.3308
21
200.6743
31
0.0
0
LINE
8
CHANNEL
10
813.3308
20
200.6743
30
0.0
11
818.3308
21
200.5294
31
0.0
0
LINE
8
CHANNEL
10
818.3308
20
200.5294
30
0.0
11
823.3308
21
200.3744
31
0.0
0
LINE
8
CHANNEL
10
823.3308
20
200.3744
30
0.0
11
828.3308
21
200.2094
31
0.0
0
LINE
8
CHANNEL
10
828.3308
20
200.2094
30
0.0
11
833.3308
21
200.0345
31
0.0
0
LINE
8
CHANNEL
10
833.3308
20
200.0345
30
0.0
11
838.3308
21
199.8497
31
0.0
0
LINE
8
CHANNEL
10
838.3308
20
199.8497
30
0.0
11
843.3308
21
199.6550
31
0.0
0
LINE
8
CHANNEL
10
843.3308
20
199.6550
30
0.0
11
848.3308
21
199.4504
31
0.0
0
LINE
8
CHANNEL
10
848.3308
20
199.4504
30
0.0
11
853.3308
21
199.2360
31
0.0
0
LINE
8
CHANNEL
10
853.3308
20
199.2360
30
0.0
11
858.3308
21
199.0118
31
0.0
0
LINE
8
CHANNEL
10
858.3308
20
199.0118
30
0.0
11
863.3308
21
198.7777
31
0.0
0
LINE
8
CHANNEL
10
863.3308
20
198.7777
30
0.0
11
868.3308
21
198.5339
31
0.0
0
LINE
8
CHANNEL
10
868.3308
20
198.5339
30
0.0
11
873.3308
21
198.2803
31
0.0
0
LINE
8
CHANNEL
10
873.3308
20
198.2803
30
0.0
11
878.3308
21
198.0169
31
0.0
0
LINE
8
CHANNEL
10
878.3308
20
198.0169
30
0.0
11
883.3308
21
197.7436
31
0.0
0
LINE
8
CHANNEL
10
883.3308
20
197.7436
30
0.0
11
888.3308
21
197.4606
31
0.0
0
LINE
8
CHANNEL
10
888.3308
20
197.4606
30
0.0
11
893.3308
21
197.1678
31
0.0
0
LINE
8
CHANNEL
10
893.3308
20
197.1678
30
0.0
11
898.3309
21
196.8652
31
0.0
0
LINE
8
CHANNEL
10
898.3309
20
196.8652
30
0.0
11
903.3309
21
196.5527
31
0.0
0
LINE
8
CHANNEL
10
903.3309
20
196.5527
30
0.0
11
908.3309
21
196.2304
31
0.0
0
LINE
8
CHANNEL
10
908.3309
20
196.2304
30
0.0
11
913.3309
21
195.8982
31
0.0
0
LINE
8
CHANNEL
10
913.3309
20
195.8982
30
0.0
11
918.3309
21
195.5562
31
0.0
0
LINE
8
CHANNEL
10
918.3309
20
195.5562
30
0.0
11
923.3309
21
195.2042
31
0.0
0
LINE
8
CHANNEL
10
923.3309
20
195.2042
30
0.0
11
928.3309
21
194.8424
31
0.0
0
LINE
8
CHANNEL
10
928.3309
20
194.8424
30
0.0
11
933.3310
21
194.4705
31
0.0
0
LINE
8
CHANNEL
10
933.3310
20
194.4705
30
0.0
11
938.3310
21
194.0887
31
0.0
0
LINE
8
CHANNEL
10
938.3310
20
194.0887
30
0.0
11
943.3310
21
193.6968
31
0.0
0
LINE
8
CHANNEL
10
943.3310
20
193.6968
30
0.0
11
948.3310
21
193.2949
31
0.0
0
LINE
8
CHANNEL
10
948.3310
20
193.2949
30
0.0
11
953.3311
21
192.8829
31
0.0
0
LINE
8
CHANNEL
10
953.3311
20
192.8829
30
0.0
11
958.3311
21
192.4607
31
0.0
0
LINE
8
CHANNEL
10
958.3311
20
192.4607
30
0.0
11
963.3312
21
192.0284
31
0.0
0
LINE
8
CHANNEL
10
963.3312
20
192.0284
30
0.0
11
968.3312
21
191.5858
31
0.0
0
LINE
8
CHANNEL
10
968.3312
20
191.5858
30
0.0
11
973.3313
21
191.1329
31
0.0
0
LINE
8
CHANNEL
10
973.3313
20
191.1329
30
0.0
11
978.3314
21
190.6697
31
0.0
0
LINE
8
CHANNEL
10
978.3314
20
190.6697
30
0.0
11
983.3314
21
190.1961
31
0.0
0
LINE
8
CHANNEL
10
983.3314
20
190.1961
30
0.0
11
988.3315
21
189.7121
31
0.0
0
LINE
8
CHANNEL
10
988.3315
20
189.7121
30
0.0
11
993.3316
21
189.2175
31
0.0
0
LINE
8
CHANNEL
10
993.3316
20
189.2175
30
0.0
11
998.3317
21
188.7124
31
0.0
0
LINE
8
CHANNEL
10
998.3317
20
188.7124
30
0.0
11
1003.3318
21
188.1967
31
0.0
0
LINE
8
CHANNEL
10
1003.3318
20
188.1967
30
0.0
11
1008.3319
21
187.6702
31
0.0
0
LINE
8
CHANNEL
10
1008.3319
20
187.6702
30
0.0
11
1013.3320
21
187.1330
31
0.0
0
LINE
8
CHANNEL
10
1013.3320
20
187.1330
30
0.0
11
1018.3321
21
186.5849
31
0.0
0
LINE
8
CHANNEL
10
1018.3321
20
186.5849
30
0.0
11
1023.3323
21
186.0259
31
0.0
0
LINE
8
CHANNEL
10
1023.3323
20
186.0259
30
0.0
11
1028.3324
21
185.4558
31
0.0
0
LINE
8
CHANNEL
10
1028.3324
20
185.4558
30
0.0
11
1033.3326
21
184.8747
31
0.0
0
LINE
8
CHANNEL
10
1033.3326
20
184.8747
30
0.0
11
1038.3328
21
184.2824
31
0.0
0
LINE
8
CHANNEL
10
1038.3328
20
184.2824
30
0.0
11
1043.3329
21
183.6788
31
0.0
0
LINE
8
CHANNEL
10
1043.3329
20
183.6788
30
0.0
11
1048.3331
21
183.0638
31
0.0
0
LINE
8
CHANNEL
10
1048.3331
20
183.0638
30
0.0
11
1053.3333
21
182.4374
31
0.0
0
LINE
8
CHANNEL
10
1053.3333
20
182.4374
30
0.0
11
1058.3335
21
181.7993
31
0.0
0
LINE
8
CHANNEL
10
1058.3335
20
181.7993
30
0.0
11
1063.3338
21
181.1496
31
0.0
0
LINE
8
CHANNEL
10
1063.3338
20
181.1496
30
0.0
11
1068.3340
21
180.4881
31
0.0
0
LINE
8
CHANNEL
10
1068.3340
20
180.4881
30
0.0
11
1073.3342
21
179.8147
31
0.0
0
LINE
8
CHANNEL
10
1073.3342
20
179.8147
30
0.0
11
1078.3345
21
179.1292
31
0.0
0
LINE
8
CHANNEL
10
1078.3345
20
179.1292
30
0.0
11
1083.3348
21
178.4316
31
0.0
0
LINE
8
CHANNEL
10
1083.3348
20
178.4316
30
0.0
11
1088.3351
21
177.7216
31
0.0
0
LINE
8
CHANNEL
10
1088.3351
20
177.7216
30
0.0
11
1093.3354
21
176.9993
31
0.0
0
LINE
8
CHANNEL
10
1093.3354
20
176.9993
30
0.0
11
1098.3357
21
176.2644
31
0.0
0
LINE
8
CHANNEL
10
1098.3357
20
176.2644
30
0.0
11
1103.3361
21
175.5167
31
0.0
0
LINE
8
CHANNEL
10
1103.3361
20
175.5167
30
0.0
11
1108.3364
21
174.7562
31
0.0
0
LINE
8
CHANNEL
10
1108.3364
20
174.7562
30
0.0
11
1113.3368
21
173.9827
31
0.0
0
LINE
8
CHANNEL
10
1113.3368
20
173.9827
30
0.0
11
1118.3372
21
173.1960
31
0.0
0
LINE
8
CHANNEL
10
1118.3372
20
173.1960
30
0.0
11
1123.3376
21
172.3960
31
0.0
0
LINE
8
CHANNEL
10
1123.3376
20
172.3960
30
0.0
11
1128.3380
21
171.5824
31
0.0
0
LINE
8
CHANNEL
10
1128.3380
20
171.5824
30
0.0
11
1133.3384
21
170.7551
31
0.0
0
LINE
8
CHANNEL
10
1133.3384
20
170.7551
30
0.0
11
1138.3389
21
169.9139
31
0.0
0
LINE
8
CHANNEL
10
1138.3389
20
169.9139
30
0.0
11
1143.3394
21
169.0586
31
0.0
0
LINE
8
CHANNEL
10
1143.3394
20
169.0586
30
0.0
11
1148.3399
21
168.1889
31
0.0
0
LINE
8
CHANNEL
10
1148.3399
20
168.1889
30
0.0
11
1153.3404
21
167.3048
31
0.0
0
LINE
8
CHANNEL
10
1153.3404
20
167.3048
30
0.0
11
1158.3410
21
166.4059
31
0.0
0
LINE
8
CHANNEL
10
1158.3410
20
166.4059
30
0.0
11
1163.3415
21
165.4920
31
0.0
0
LINE
8
CHANNEL
10
1163.3415
20
165.4920
30
0.0
11
1168.3421
21
164.5629
31
0.0
0
LINE
8
CHANNEL
10
1168.3421
20
164.5629
30
0.0
11
1173.3427
21
163.6183
31
0.0
0
LINE
8
CHANNEL
10
1173.3427
20
163.6183
30
0.0
11
1178.3434
21
162.6579
31
0.0
0
LINE
8
CHANNEL
10
1178.3434
20
162.6579
30
0.0
11
1183.3440
21
161.6816
31
0.0
0
LINE
8
CHANNEL
10
1183.3440
20
161.6816
30
0.0
11
1188.3447
21
160.6889
31
0.0
0
LINE
8
CHANNEL
10
1188.3447
20
160.6889
30
0.0
11
1193.3454
21
159.6796
31
0.0
0
LINE
8
CHANNEL
10
1193.3454
20
159.6796
30
0.0
11
1198.3461
21
158.6534
31
0.0
0
LINE
8
CHANNEL
10
1198.3461
20
158.6534
30
0.0
11
1203.3469
21
157.6100
31
0.0
0
LINE
8
CHANNEL
10
1203.3469
20
157.6100
30
0.0
11
1208.3477
21
156.5489
31
0.0
0
LINE
8
CHANNEL
10
1208.3477
20
156.5489
30
0.0
11
1213.3485
21
155.4699
31
0.0
0
LINE
8
CHANNEL
10
1213.3485
20
155.4699
30
0.0
11
1218.3493
21
154.3725
31
0.0
0
LINE
8
CHANNEL
10
1218.3493
20
154.3725
30
0.0
11
1223.3502
21
153.2564
31
0.0
0
LINE
8
CHANNEL
10
1223.3502
20
153.2564
30
0.0
11
1228.3511
21
152.1212
31
0.0
0
LINE
8
CHANNEL
10
1228.3511
20
152.1212
30
0.0
11
1233.3520
21
150.9664
31
0.0
0
LINE
8
CHANNEL
10
1233.3520
20
150.9664
30
0.0
11
1238.3530
21
149.7915
31
0.0
0
LINE
8
CHANNEL
10
1238.3530
20
149.7915
30
0.0
11
1243.3539
21
148.5961
31
0.0
0
LINE
8
CHANNEL
10
1243.3539
20
148.5961
30
0.0
11
1248.3549
21
147.3797
31
0.0
0
LINE
8
CHANNEL
10
1248.3549
20
147.3797
30
0.0
11
1253.3560
21
146.1417
31
0.0
0
LINE
8
CHANNEL
10
1253.3560
20
146.1417
30
0.0
11
1258.3571
21
144.8815
31
0.0
0
LINE
8
CHANNEL
10
1258.3571
20
144.8815
30
0.0
11
1263.3582
21
143.5986
31
0.0
0
LINE
8
CHANNEL
10
1263.3582
20
143.5986
30
0.0
11
1268.3593
21
142.2923
31
0.0
0
LINE
8
CHANNEL
10
1268.3593
20
142.2923
30
0.0
11
1273.3605
21
140.9620
31
0.0
0
LINE
8
CHANNEL
10
1273.3605
20
140.9620
30
0.0
11
1278.3617
21
139.6069
31
0.0
0
LINE
8
CHANNEL
10
1278.3617
20
139.6069
30
0.0
11
1283.3629
21
138.2262
31
0.0
0
LINE
8
CHANNEL
10
1283.3629
20
138.2262
30
0.0
11
1288.3642
21
136.8193
31
0.0
0
LINE
8
CHANNEL
10
1288.3642
20
136.8193
30
0.0
11
1293.3655
21
135.3851
31
0.0
0
LINE
8
CHANNEL
10
1293.3655
20
135.3851
30
0.0
11
1298.3668
21
133.9229
31
0.0
0
LINE
8
CHANNEL
10
1298.3668
20
133.9229
30
0.0
11
1303.3682
21
132.4316
31
0.0
0
LINE
8
CHANNEL
10
1303.3682
20
132.4316
30
0.0
11
1308.3696
21
130.9101
31
0.0
0
LINE
8
CHANNEL
10
1308.3696
20
130.9101
30
0.0
11
1313.3711
21
129.3574
31
0.0
0
LINE
8
CHANNEL
10
1313.3711
20
129.3574
30
0.0
11
1318.3726
21
127.7722
31
0.0
0
LINE
8
CHANNEL
10
1318.3726
20
127.7722
30
0.0
11
1323.3741
21
126.1533
31
0.0
0
LINE
8
CHANNEL
10
1323.3741
20
126.1533
30
0.0
11
1328.3756
21
124.4992
31
0.0
0
LINE
8
CHANNEL
10
1328.3756
20
124.4992
30
0.0
11
1333.3773
21
122.8084
31
0.0
0
LINE
8
CHANNEL
10
1333.3773
20
122.8084
30
0.0
11
1338.3789
21
121.0793
31
0.0
0
LINE
8
CHANNEL
10
1338.3789
20
121.0793
30
0.0
11
1343.3806
21
119.3100
31
0.0
0
LINE
8
CHANNEL
10
1343.3806
20
119.3100
30
0.0
11
1348.3823
21
117.4986
31
0.0
0
LINE
8
CHANNEL
10
1348.3823
20
117.4986
30
0.0
11
1353.3841
21
115.6430
31
0.0
0
LINE
8
CHANNEL
10
1353.3841
20
115.6430
30
0.0
11
1358.3859
21
113.7408
31
0.0
0
LINE
8
CHANNEL
10
1358.3859
20
113.7408
30
0.0
11
1363.3878
21
111.7893
31
0.0
0
LINE
8
CHANNEL
10
1363.3878
20
111.7893
30
0.0
11
1368.3897
21
109.7857
31
0.0
0
LINE
8
CHANNEL
10
1368.3897
20
109.7857
30
0.0
11
1373.3916
21
107.7269
31
0.0
0
LINE
8
CHANNEL
10
1373.3916
20
107.7269
30
0.0
11
1378.3936
21
105.6091
31
0.0
0
LINE
8
CHANNEL
10
1378.3936
20
105.6091
30
0.0
11
1383.3956
21
103.4284
31
0.0
0
LINE
8
CHANNEL
10
1383.3956
20
103.4284
30
0.0
11
1388.3977
21
101.1801
31
0.0
0
LINE
8
CHANNEL
10
1388.3977
20
101.1801
30
0.0
11
1393.3998
21
98.8592
31
0.0
0
LINE
8
CHANNEL
10
1393.3998
20
98.8592
30
0.0
11
1398.4020
21
96.4596
31
0.0
0
LINE
8
CHANNEL
10
1398.4020
20
96.4596
30
0.0
11
1403.4042
21
93.9745
31
0.0
0
LINE
8
CHANNEL
10
1403.4042
20
93.9745
30
0.0
11
1408.4065
21
91.3959
31
0.0
0
LINE
8
CHANNEL
10
1408.4065
20
91.3959
30
0.0
11
1413.4088
21
88.7143
31
0.0
0
LINE
8
CHANNEL
10
1413.4088
20
88.7143
30
0.0
11
1418.4112
21
85.9183
31
0.0
0
LINE
8
CHANNEL
10
1418.4112
20
85.9183
30
0.0
11
1423.4136
21
82.9944
31
0.0
0
LINE
8
CHANNEL
10
1423.4136
20
82.9944
30
0.0
11
1428.4161
21
79.9259
31
0.0
0
LINE
8
CHANNEL
10
1428.4161
20
79.9259
30
0.0
11
1433.4186
21
76.6916
31
0.0
0
LINE
8
CHANNEL
10
1433.4186
20
76.6916
30
0.0
11
1438.4212
21
73.2648
31
0.0
0
LINE
8
CHANNEL
10
1438.4212
20
73.2648
30
0.0
11
1443.4238
21
69.6099
31
0.0
0
LINE
8
CHANNEL
10
1443.4238
20
69.6099
30
0.0
11
1448.4265
21
65.6783
31
0.0
0
LINE
8
CHANNEL
10
1448.4265
20
65.6783
30
0.0
11
1453.4293
21
61.4007
31
0.0
0
LINE
8
CHANNEL
10
1453.4293
20
61.4007
30
0.0
11
1458.4321
21
56.6711
31
0.0
0
LINE
8
CHANNEL
10
1458.4321
20
56.6711
30
0.0
11
1463.4349
21
51.3124
31
0.0
0
LINE
8
CHANNEL
10
1463.4349
20
51.3124
30
0.0
11
1468.4378
21
44.9824
31
0.0
0
LINE
8
CHANNEL
10
1468.4378
20
44.9824
30
0.0
11
1473.4408
21
36.8091
31
0.0
0
LINE
8
CHANNEL
10
1473.4408
20
36.8091
30
0.0
11
1478.4438
21
18.1440
31
0.0
0
LINE
8
HOLES
10
65.6259
20
223.8638
30
0.0
11
65.6259
21
74.4246
31
0.0
0
LINE
8
HOLES
10
65.6259
20
223.8638
30
0.0
11
65.6259
21
74.4246
31
0.0
0
LINE
8
HOLES
10
77.1720
20
246.3920
30
0.0
11
77.1720
21
84.2402
31
0.0
0
LINE
8
HOLES
10
92.5006
20
274.5417
30
0.0
11
92.5006
21
97.3707
31
0.0
0
LINE
8
HOLES
10
104.7970
20
294.0361
30
0.0
11
104.7970
21
106.9586
31
0.0
0
LINE
8
HOLES
10
126.7691
20
322.0436
30
0.0
11
126.7691
21
121.3951
31
0.0
0
LINE
8
HOLES
10
162.8627
20
355.0832
30
0.0
11
162.8627
21
139.4380
31
0.0
0
LINE
8
HOLES
10
228.2755
20
393.6268
30
0.0
11
228.2755
21
162.0477
31
0.0
0
LINE
8
HOLES
10
373.3305
20
438.1732
30
0.0
11
373.3305
21
190.9199
31
0.0
0
LINE
8
HOLES
10
753.3308
20
467.4030
30
0.0
11
753.3308
21
211.5972
31
0.0
0
LINE
8
HOLES
10
1083.3348
20
423.4121
30
0.0
11
1083.3348
21
188.4316
31
0.0
0
LINE
8
HOLES
10
1293.3655
20
335.2235
30
0.0
11
1293.3655
21
145.3851
31
0.0
0
LINE
8
HOLES
10
1383.3956
20
270.4678
30
0.0
11
1383.3956
21
113.4284
31
0.0
0
LINE
8
HOLES
10
1428.4161
20
223.4849
30
0.0
11
1428.4161
21
89.9259
31
0.0
0
LINE
8
HOLES
10
1448.4265
20
195.3310
30
0.0
11
1448.4265
21
75.6783
31
0.0
0
LINE
8
HOLES
10
1463.4349
20
167.2668
30
0.0
11
1463.4349
21
61.3124
31
0.0
0
LINE
8
HOLES
10
1468.4378
20
155.0337
30
0.0
11
1468.4378
21
54.9824
31
0.0
0
LINE
8
HOLES
10
1473.4408
20
139.3991
30
0.0
11
1473.4408
21
46.8091
31
0.0
0
LINE
8
HOLES
10
1473.4408
20
139.3991
30
0.0
11
1473.4408
21
46.8091
31
0.0
0
LINE
8
HOLES
10
1478.4438
20
105.1347
30
0.0
11
1478.4438
21
28.1440
31
0.0
0
LINE
8
HOLES
10
1478.4438
20
105.1347
30
0.0
11
1478.4438
21
28.1440
31
0.0
0
ENDSEC
0
EOF
