0
SECTION
2
ENTITIES
0
LINE
8
CUT
10
0.0000
20
0.0000
30
0.0
11
0.0000
21
128.2165
31
0.0
0
LINE
8
CUT
10
0.0000
20
128.2165
30
0.0
11
62.8486
21
220.4654
31
0.0
0
LINE
8
CUT
10
62.8486
20
220.4654
30
0.0
11
73.9899
21
242.5990
31
0.0
0
LINE
8
CUT
10
73.9899
20
242.5990
30
0.0
11
82.0726
21
258.0642
31
0.0
0
LINE
8
CUT
10
82.0726
20
258.0642
30
0.0
11
88.9366
21
270.3182
31
0.0
0
LINE
8
CUT
10
88.9366
20
270.3182
30
0.0
11
95.1755
21
280.6098
31
0.0
0
LINE
8
CUT
10
95.1755
20
280.6098
30
0.0
11
101.0491
21
289.5510
31
0.0
0
LINE
8
CUT
10
101.0491
20
289.5510
30
0.0
11
106.6911
21
297.4936
31
0.0
0
LINE
8
CUT
10
106.6911
20
297.4936
30
0.0
11
112.1772
21
304.6607
31
0.0
0
LINE
8
CUT
10
112.1772
20
304.6607
30
0.0
11
117.5539
21
311.2042
31
0.0
0
LINE
8
CUT
10
117.5539
20
311.2042
30
0.0
11
122.8511
21
317.2324
31
0.0
0
LINE
8
CUT
10
122.8511
20
317.2324
30
0.0
11
128.0891
21
322.8260
31
0.0
0
LINE
8
CUT
10
128.0891
20
322.8260
30
0.0
11
133.2818
21
328.0466
31
0.0
0
LINE
8
CUT
10
133.2818
20
328.0466
30
0.0
11
138.4394
21
332.9429
31
0.0
0
LINE
8
CUT
10
138.4394
20
332.9429
30
0.0
11
143.5694
21
337.5537
31
0.0
0
LINE
8
CUT
10
143.5694
20
337.5537
30
0.0
11
148.6772
21
341.9108
31
0.0
0
LINE
8
CUT
10
148.6772
20
341.9108
30
0.0
11
153.7672
21
346.0406
31
0.0
0
LINE
8
CUT
10
153.7672
20
346.0406
30
0.0
11
158.8427
21
349.9652
31
0.0
0
LINE
8
CUT
10
158.8427
20
349.9652
30
0.0
11
163.9062
21
353.7032
31
0.0
0
LINE
8
CUT
10
163.9062
20
353.7032
30
0.0
11
168.9598
21
357.2708
31
0.0
0
LINE
8
CUT
10
168.9598
20
357.2708
30
0.0
11
174.0053
21
360.6820
31
0.0
0
LINE
8
CUT
10
174.0053
20
360.6820
30
0.0
11
179.0438
21
363.9487
31
0.0
0
LINE
8
CUT
10
179.0438
20
363.9487
30
0.0
11
184.0765
21
367.0817
31
0.0
0
LINE
8
CUT
10
184.0765
20
367.0817
30
0.0
11
189.1044
21
370.0903
31
0.0
0
LINE
8
CUT
10
189.1044
20
370.0903
30
0.0
11
194.1281
21
372.9830
31
0.0
0
LINE
8
CUT
10
194.1281
20
372.9830
30
0.0
11
199.1484
21
375.7672
31
0.0
0
LINE
8
CUT
10
199.1484
20
375.7672
30
0.0
11
204.1656
21
378.4496
31
0.0
0
LINE
8
CUT
10
204.1656
20
378.4496
30
0.0
11
209.1803
21
381.0362
31
0.0
0
LINE
8
CUT
10
209.1803
20
381.0362
30
0.0
11
214.1929
21
383.5326
31
0.0
0
LINE
8
CUT
10
214.1929
20
383.5326
30
0.0
11
219.2035
21
385.9437
31
0.0
0
LINE
8
CUT
10
219.2035
20
385.9437
30
0.0
11
224.2126
21
388.2741
31
0.0
0
LINE
8
CUT
10
224.2126
20
388.2741
30
0.0
11
229.2203
21
390.5279
31
0.0
0
LINE
8
CUT
10
229.2203
20
390.5279
30
0.0
11
234.2269
21
392.7090
31
0.0
0
LINE
8
CUT
10
234.2269
20
392.7090
30
0.0
11
239.2324
21
394.8208
31
0.0
0
LINE
8
CUT
10
239.2324
20
394.8208
30
0.0
11
244.2371
21
396.8667
31
0.0
0
LINE
8
CUT
10
244.2371
20
396.8667
30
0.0
11
249.2411
21
398.8496
31
0.0
0
LINE
8
CUT
10
249.2411
20
398.8496
30
0.0
11
254.2444
21
400.7724
31
0.0
0
LINE
8
CUT
10
254.2444
20
400.7724
30
0.0
11
259.2472
21
402.6376
31
0.0
0
LINE
8
CUT
10
259.2472
20
402.6376
30
0.0
11
264.2496
21
404.4477
31
0.0
0
LINE
8
CUT
10
264.2496
20
404.4477
30
0.0
11
269.2516
21
406.2049
31
0.0
0
LINE
8
CUT
10
269.2516
20
406.2049
30
0.0
11
274.2532
21
407.9114
31
0.0
0
LINE
8
CUT
10
274.2532
20
407.9114
30
0.0
11
279.2546
21
409.5691
31
0.0
0
LINE
8
CUT
10
279.2546
20
409.5691
30
0.0
11
284.2557
21
411.1799
31
0.0
0
LINE
8
CUT
10
284.2557
20
411.1799
30
0.0
11
289.2566
21
412.7456
31
0.0
0
LINE
8
CUT
10
289.2566
20
412.7456
30
0.0
11
294.2574
21
414.2678
31
0.0
0
LINE
8
CUT
10
294.2574
20
414.2678
30
0.0
11
299.2580
21
415.7480
31
0.0
0
LINE
8
CUT
10
299.2580
20
415.7480
30
0.0
11
304.2585
21
417.1879
31
0.0
0
LINE
8
CUT
10
304.2585
20
417.1879
30
0.0
11
309.2589
21
418.5886
31
0.0
0
LINE
8
CUT
10
309.2589
20
418.5886
30
0.0
11
314.2592
21
419.9517
31
0.0
0
LINE
8
CUT
10
314.2592
20
419.9517
30
0.0
11
319.2595
21
421.2782
31
0.0
0
LINE
8
CUT
10
319.2595
20
421.2782
30
0.0
11
324.2597
21
422.5694
31
0.0
0
LINE
8
CUT
10
324.2597
20
422.5694
30
0.0
11
329.2599
21
423.8265
31
0.0
0
LINE
8
CUT
10
329.2599
20
423.8265
30
0.0
11
334.2600
21
425.0505
31
0.0
0
LINE
8
CUT
10
334.2600
20
425.0505
30
0.0
11
339.2601
21
426.2424
31
0.0
0
LINE
8
CUT
10
339.2601
20
426.2424
30
0.0
11
344.2602
21
427.4032
31
0.0
0
LINE
8
CUT
10
344.2602
20
427.4032
30
0.0
11
349.2602
21
428.5338
31
0.0
0
LINE
8
CUT
10
349.2602
20
428.5338
30
0.0
11
354.2603
21
429.6352
31
0.0
0
LINE
8
CUT
10
354.2603
20
429.6352
30
0.0
11
359.2603
21
430.7081
31
0.0
0
LINE
8
CUT
10
359.2603
20
430.7081
30
0.0
11
364.2604
21
431.7533
31
0.0
0
LINE
8
CUT
10
364.2604
20
431.7533
30
0.0
11
369.2604
21
432.7717
31
0.0
0
LINE
8
CUT
10
369.2604
20
432.7717
30
0.0
11
374.2604
21
433.7640
31
0.0
0
LINE
8
CUT
10
374.2604
20
433.7640
30
0.0
11
379.2604
21
434.7308
31
0.0
0
LINE
8
CUT
10
379.2604
20
434.7308
30
0.0
11
384.2604
21
435.6729
31
0.0
0
LINE
8
CUT
10
384.2604
20
435.6729
30
0.0
11
389.2605
21
436.5909
31
0.0
0
LINE
8
CUT
10
389.2605
20
436.5909
30
0.0
11
394.2605
21
437.4854
31
0.0
0
LINE
8
CUT
10
394.2605
20
437.4854
30
0.0
11
399.2605
21
438.3571
31
0.0
0
LINE
8
CUT
10
399.2605
20
438.3571
30
0.0
11
404.2605
21
439.2064
31
0.0
0
LINE
8
CUT
10
404.2605
20
439.2064
30
0.0
11
409.2605
21
440.0339
31
0.0
0
LINE
8
CUT
10
409.2605
20
440.0339
30
0.0
11
414.2605
21
440.8402
31
0.0
0
LINE
8
CUT
10
414.2605
20
440.8402
30
0.0
11
419.2606
21
441.6257
31
0.0
0
LINE
8
CUT
10
419.2606
20
441.6257
30
0.0
11
424.2606
21
442.3910
31
0.0
0
LINE
8
CUT
10
424.2606
20
442.3910
30
0.0
11
429.2606
21
443.1365
31
0.0
0
LINE
8
CUT
10
429.2606
20
443.1365
30
0.0
11
434.2606
21
443.8626
31
0.0
0
LINE
8
CUT
10
434.2606
20
443.8626
30
0.0
11
439.2606
21
444.5697
31
0.0
0
LINE
8
CUT
10
439.2606
20
444.5697
30
0.0
11
444.2606
21
445.2584
31
0.0
0
LINE
8
CUT
10
444.2606
20
445.2584
30
0.0
11
449.2606
21
445.9285
31
0.0
0
LINE
8
CUT
10
449.2606
20
445.9285
30
0.0
11
454.2607
21
446.5780
31
0.0
0
LINE
8
CUT
10
454.2607
20
446.5780
30
0.0
11
459.2607
21
447.2102
31
0.0
0
LINE
8
CUT
10
459.2607
20
447.2102
30
0.0
11
464.2607
21
447.8254
31
0.0
0
LINE
8
CUT
10
464.2607
20
447.8254
30
0.0
11
469.2607
21
448.4240
31
0.0
0
LINE
8
CUT
10
469.2607
20
448.4240
30
0.0
11
474.2607
21
449.0061
31
0.0
0
LINE
8
CUT
10
474.2607
20
449.0061
30
0.0
11
479.2607
21
449.5723
31
0.0
0
LINE
8
CUT
10
479.2607
20
449.5723
30
0.0
11
484.2607
21
450.1227
31
0.0
0
LINE
8
CUT
10
484.2607
20
450.1227
30
0.0
11
489.2607
21
450.6577
31
0.0
0
LINE
8
CUT
10
489.2607
20
450.6577
30
0.0
11
494.2607
21
451.1774
31
0.0
0
LINE
8
CUT
10
494.2607
20
451.1774
30
0.0
11
499.2607
21
451.6823
31
0.0
0
LINE
8
CUT
10
499.2607
20
451.6823
30
0.0
11
504.2607
21
452.1724
31
0.0
0
LINE
8
CUT
10
504.2607
20
452.1724
30
0.0
11
509.2607
21
452.6481
31
0.0
0
LINE
8
CUT
10
509.2607
20
452.6481
30
0.0
11
514.2607
21
453.1096
31
0.0
0
LINE
8
CUT
10
514.2607
20
453.1096
30
0.0
11
519.2607
21
453.5572
31
0.0
0
LINE
8
CUT
10
519.2607
20
453.5572
30
0.0
11
524.2607
21
453.9909
31
0.0
0
LINE
8
CUT
10
524.2607
20
453.9909
30
0.0
11
529.2607
21
454.4111
31
0.0
0
LINE
8
CUT
10
529.2607
20
454.4111
30
0.0
11
534.2607
21
454.8179
31
0.0
0
LINE
8
CUT
10
534.2607
20
454.8179
30
0.0
11
539.2607
21
455.2115
31
0.0
0
LINE
8
CUT
10
539.2607
20
455.2115
30
0.0
11
544.2607
21
455.5921
31
0.0
0
LINE
8
CUT
10
544.2607
20
455.5921
30
0.0
11
549.2607
21
455.9600
31
0.0
0
LINE
8
CUT
10
549.2607
20
455.9600
30
0.0
11
554.2607
21
456.3151
31
0.0
0
LINE
8
CUT
10
554.2607
20
456.3151
30
0.0
11
559.2607
21
456.6578
31
0.0
0
LINE
8
CUT
10
559.2607
20
456.6578
30
0.0
11
564.2607
21
456.9882
31
0.0
0
LINE
8
CUT
10
564.2607
20
456.9882
30
0.0
11
569.2607
21
457.3064
31
0.0
0
LINE
8
CUT
10
569.2607
20
457.3064
30
0.0
11
574.2607
21
457.6127
31
0.0
0
LINE
8
CUT
10
574.2607
20
457.6127
30
0.0
11
579.2607
21
457.9071
31
0.0
0
LINE
8
CUT
10
579.2607
20
457.9071
30
0.0
11
584.2607
21
458.1898
31
0.0
0
LINE
8
CUT
10
584.2607
20
458.1898
30
0.0
11
589.2607
21
458.4610
31
0.0
0
LINE
8
CUT
10
589.2607
20
458.4610
30
0.0
11
594.2607
21
458.7208
31
0.0
0
LINE
8
CUT
10
594.2607
20
458.7208
30
0.0
11
599.2607
21
458.9695
31
0.0
0
LINE
8
CUT
10
599.2607
20
458.9695
30
0.0
11
604.2607
21
459.2070
31
0.0
0
LINE
8
CUT
10
604.2607
20
459.2070
30
0.0
11
609.2607
21
459.4336
31
0.0
0
LINE
8
CUT
10
609.2607
20
459.4336
30
0.0
11
614.2607
21
459.6495
31
0.0
0
LINE
8
CUT
10
614.2607
20
459.6495
30
0.0
11
619.2607
21
459.8548
31
0.0
0
LINE
8
CUT
10
619.2607
20
459.8548
30
0.0
11
624.2607
21
460.0496
31
0.0
0
LINE
8
CUT
10
624.2607
20
460.0496
30
0.0
11
629.2607
21
460.2341
31
0.0
0
LINE
8
CUT
10
629.2607
20
460.2341
30
0.0
11
634.2607
21
460.4085
31
0.0
0
LINE
8
CUT
10
634.2607
20
460.4085
30
0.0
11
639.2607
21
460.5729
31
0.0
0
LINE
8
CUT
10
639.2607
20
460.5729
30
0.0
11
644.2607
21
460.7275
31
0.0
0
LINE
8
CUT
10
644.2607
20
460.7275
30
0.0
11
649.2607
21
460.8724
31
0.0
0
LINE
8
CUT
10
649.2607
20
460.8724
30
0.0
11
654.2607
21
461.0079
31
0.0
0
LINE
8
CUT
10
654.2607
20
461.0079
30
0.0
11
659.2607
21
461.1340
31
0.0
0
LINE
8
CUT
10
659.2607
20
461.1340
30
0.0
11
664.2607
21
461.2509
31
0.0
0
LINE
8
CUT
10
664.2607
20
461.2509
30
0.0
11
669.2607
21
461.3589
31
0.0
0
LINE
8
CUT
10
669.2607
20
461.3589
30
0.0
11
674.2607
21
461.4580
31
0.0
0
LINE
8
CUT
10
674.2607
20
461.4580
30
0.0
11
679.2607
21
461.5486
31
0.0
0
LINE
8
CUT
10
679.2607
20
461.5486
30
0.0
11
684.2607
21
461.6307
31
0.0
0
LINE
8
CUT
10
684.2607
20
461.6307
30
0.0
11
689.2607
21
461.7047
31
0.0
0
LINE
8
CUT
10
689.2607
20
461.7047
30
0.0
11
694.2607
21
461.7706
31
0.0
0
LINE
8
CUT
10
694.2607
20
461.7706
30
0.0
11
699.2607
21
461.8288
31
0.0
0
LINE
8
CUT
10
699.2607
20
461.8288
30
0.0
11
704.2607
21
461.8794
31
0.0
0
LINE
8
CUT
10
704.2607
20
461.8794
30
0.0
11
709.2607
21
461.9228
31
0.0
0
LINE
8
CUT
10
709.2607
20
461.9228
30
0.0
11
714.2607
21
461.9591
31
0.0
0
LINE
8
CUT
10
714.2607
20
461.9591
30
0.0
11
719.2607
21
461.9888
31
0.0
0
LINE
8
CUT
10
719.2607
20
461.9888
30
0.0
11
724.2607
21
462.0121
31
0.0
0
LINE
8
CUT
10
724.2607
20
462.0121
30
0.0
11
729.2607
21
462.0294
31
0.0
0
LINE
8
CUT
10
729.2607
20
462.0294
30
0.0
11
734.2607
21
462.0412
31
0.0
0
LINE
8
CUT
10
734.2607
20
462.0412
30
0.0
11
739.2607
21
462.0480
31
0.0
0
LINE
8
CUT
10
739.2607
20
462.0480
30
0.0
11
744.2607
21
462.0507
31
0.0
0
LINE
8
CUT
10
744.2607
20
462.0507
30
0.0
11
749.2607
21
462.0468
31
0.0
0
LINE
8
CUT
10
749.2607
20
462.0468
30
0.0
11
754.2607
21
462.0252
31
0.0
0
LINE
8
CUT
10
754.2607
20
462.0252
30
0.0
11
759.2607
21
461.9863
31
0.0
0
LINE
8
CUT
10
759.2607
20
461.9863
30
0.0
11
764.2607
21
461.9310
31
0.0
0
LINE
8
CUT
10
764.2607
20
461.9310
30
0.0
11
769.2607
21
461.8599
31
0.0
0
LINE
8
CUT
10
769.2607
20
461.8599
30
0.0
11
774.2607
21
461.7733
31
0.0
0
LINE
8
CUT
10
774.2607
20
461.7733
30
0.0
11
779.2607
21
461.6698
31
0.0
0
LINE
8
CUT
10
779.2607
20
461.6698
30
0.0
11
784.2607
21
461.5478
31
0.0
0
LINE
8
CUT
10
784.2607
20
461.5478
30
0.0
11
789.2607
21
461.4077
31
0.0
0
LINE
8
CUT
10
789.2607
20
461.4077
30
0.0
11
794.2607
21
461.2498
31
0.0
0
LINE
8
CUT
10
794.2607
20
461.2498
30
0.0
11
799.2607
21
461.0744
31
0.0
0
LINE
8
CUT
10
799.2607
20
461.0744
30
0.0
11
804.2607
21
460.8817
31
0.0
0
LINE
8
CUT
10
804.2607
20
460.8817
30
0.0
11
809.2607
21
460.6722
31
0.0
0
LINE
8
CUT
10
809.2607
20
460.6722
30
0.0
11
814.2607
21
460.4459
31
0.0
0
LINE
8
CUT
10
814.2607
20
460.4459
30
0.0
11
819.2607
21
460.2033
31
0.0
0
LINE
8
CUT
10
819.2607
20
460.2033
30
0.0
11
824.2607
21
459.9445
31
0.0
0
LINE
8
CUT
10
824.2607
20
459.9445
30
0.0
11
829.2607
21
459.6700
31
0.0
0
LINE
8
CUT
10
829.2607
20
459.6700
30
0.0
11
834.2607
21
459.3785
31
0.0
0
LINE
8
CUT
10
834.2607
20
459.3785
30
0.0
11
839.2607
21
459.0615
31
0.0
0
LINE
8
CUT
10
839.2607
20
459.0615
30
0.0
11
844.2607
21
458.7294
31
0.0
0
LINE
8
CUT
10
844.2607
20
458.7294
30
0.0
11
849.2607
21
458.3669
31
0.0
0
LINE
8
CUT
10
849.2607
20
458.3669
30
0.0
11
854.2607
21
457.9704
31
0.0
0
LINE
8
CUT
10
854.2607
20
457.9704
30
0.0
11
859.2607
21
457.5446
31
0.0
0
LINE
8
CUT
10
859.2607
20
457.5446
30
0.0
11
864.2607
21
457.0918
31
0.0
0
LINE
8
CUT
10
864.2607
20
457.0918
30
0.0
11
869.2607
21
456.6135
31
0.0
0
LINE
8
CUT
10
869.2607
20
456.6135
30
0.0
11
874.2607
21
456.1110
31
0.0
0
LINE
8
CUT
10
874.2607
20
456.1110
30
0.0
11
879.2607
21
455.5852
31
0.0
0
LINE
8
CUT
10
879.2607
20
455.5852
30
0.0
11
884.2607
21
455.0370
31
0.0
0
LINE
8
CUT
10
884.2607
20
455.0370
30
0.0
11
889.2607
21
454.4672
31
0.0
0
LINE
8
CUT
10
889.2607
20
454.4672
30
0.0
11
894.2607
21
453.8766
31
0.0
0
LINE
8
CUT
10
894.2607
20
453.8766
30
0.0
11
899.2607
21
453.2656
31
0.0
0
LINE
8
CUT
10
899.2607
20
453.2656
30
0.0
11
904.2607
21
452.6349
31
0.0
0
LINE
8
CUT
10
904.2607
20
452.6349
30
0.0
11
909.2607
21
451.9850
31
0.0
0
LINE
8
CUT
10
909.2607
20
451.9850
30
0.0
11
914.2607
21
451.3163
31
0.0
0
LINE
8
CUT
10
914.2607
20
451.3163
30
0.0
11
919.2607
21
450.6292
31
0.0
0
LINE
8
CUT
10
919.2607
20
450.6292
30
0.0
11
924.2608
21
449.9240
31
0.0
0
LINE
8
CUT
10
924.2608
20
449.9240
30
0.0
11
929.2608
21
449.2010
31
0.0
0
LINE
8
CUT
10
929.2608
20
449.2010
30
0.0
11
934.2608
21
448.4604
31
0.0
0
LINE
8
CUT
10
934.2608
20
448.4604
30
0.0
11
939.2608
21
447.7024
31
0.0
0
LINE
8
CUT
10
939.2608
20
447.7024
30
0.0
11
944.2609
21
446.9270
31
0.0
0
LINE
8
CUT
10
944.2609
20
446.9270
30
0.0
11
949.2609
21
446.1343
31
0.0
0
LINE
8
CUT
10
949.2609
20
446.1343
30
0.0
11
954.2610
21
445.3242
31
0.0
0
LINE
8
CUT
10
954.2610
20
445.3242
30
0.0
11
959.2610
21
444.4968
31
0.0
0
LINE
8
CUT
10
959.2610
20
444.4968
30
0.0
11
964.2611
21
443.6517
31
0.0
0
LINE
8
CUT
10
964.2611
20
443.6517
30
0.0
11
969.2611
21
442.7889
31
0.0
0
LINE
8
CUT
10
969.2611
20
442.7889
30
0.0
11
974.2612
21
441.9080
31
0.0
0
LINE
8
CUT
10
974.2612
20
441.9080
30
0.0
11
979.2613
21
441.0089
31
0.0
0
LINE
8
CUT
10
979.2613
20
441.0089
30
0.0
11
984.2613
21
440.0911
31
0.0
0
LINE
8
CUT
10
984.2613
20
440.0911
30
0.0
11
989.2614
21
439.1542
31
0.0
0
LINE
8
CUT
10
989.2614
20
439.1542
30
0.0
11
994.2615
21
438.1979
31
0.0
0
LINE
8
CUT
10
994.2615
20
438.1979
30
0.0
11
999.2616
21
437.2217
31
0.0
0
LINE
8
CUT
10
999.2616
20
437.2217
30
0.0
11
1004.2617
21
436.2252
31
0.0
0
LINE
8
CUT
10
1004.2617
20
436.2252
30
0.0
11
1009.2619
21
435.2077
31
0.0
0
LINE
8
CUT
10
1009.2619
20
435.2077
30
0.0
11
1014.2620
21
434.1687
31
0.0
0
LINE
8
CUT
10
1014.2620
20
434.1687
30
0.0
11
1019.2621
21
433.1078
31
0.0
0
LINE
8
CUT
10
1019.2621
20
433.1078
30
0.0
11
1024.2623
21
432.0244
31
0.0
0
LINE
8
CUT
10
1024.2623
20
432.0244
30
0.0
11
1029.2624
21
430.9178
31
0.0
0
LINE
8
CUT
10
1029.2624
20
430.9178
30
0.0
11
1034.2626
21
429.7876
31
0.0
0
LINE
8
CUT
10
1034.2626
20
429.7876
30
0.0
11
1039.2628
21
428.6331
31
0.0
0
LINE
8
CUT
10
1039.2628
20
428.6331
30
0.0
11
1044.2630
21
427.4537
31
0.0
0
LINE
8
CUT
10
1044.2630
20
427.4537
30
0.0
11
1049.2632
21
426.2488
31
0.0
0
LINE
8
CUT
10
1049.2632
20
426.2488
30
0.0
11
1054.2634
21
425.0180
31
0.0
0
LINE
8
CUT
10
1054.2634
20
425.0180
30
0.0
11
1059.2636
21
423.7606
31
0.0
0
LINE
8
CUT
10
1059.2636
20
423.7606
30
0.0
11
1064.2638
21
422.4760
31
0.0
0
LINE
8
CUT
10
1064.2638
20
422.4760
30
0.0
11
1069.2641
21
421.1638
31
0.0
0
LINE
8
CUT
10
1069.2641
20
421.1638
30
0.0
11
1074.2643
21
419.8233
31
0.0
0
LINE
8
CUT
10
1074.2643
20
419.8233
30
0.0
11
1079.2646
21
418.4540
31
0.0
0
LINE
8
CUT
10
1079.2646
20
418.4540
30
0.0
11
1084.2649
21
417.0555
31
0.0
0
LINE
8
CUT
10
1084.2649
20
417.0555
30
0.0
11
1089.2652
21
415.6271
31
0.0
0
LINE
8
CUT
10
1089.2652
20
415.6271
30
0.0
11
1094.2655
21
414.1684
31
0.0
0
LINE
8
CUT
10
1094.2655
20
414.1684
30
0.0
11
1099.2659
21
412.6789
31
0.0
0
LINE
8
CUT
10
1099.2659
20
412.6789
30
0.0
11
1104.2662
21
411.1581
31
0.0
0
LINE
8
CUT
10
1104.2662
20
411.1581
30
0.0
11
1109.2666
21
409.6056
31
0.0
0
LINE
8
CUT
10
1109.2666
20
409.6056
30
0.0
11
1114.2670
21
408.0208
31
0.0
0
LINE
8
CUT
10
1114.2670
20
408.0208
30
0.0
11
1119.2674
21
406.4034
31
0.0
0
LINE
8
CUT
10
1119.2674
20
406.4034
30
0.0
11
1124.2678
21
404.7529
31
0.0
0
LINE
8
CUT
10
1124.2678
20
404.7529
30
0.0
11
1129.2683
21
403.0718
31
0.0
0
LINE
8
CUT
10
1129.2683
20
403.0718
30
0.0
11
1134.2687
21
401.3624
31
0.0
0
LINE
8
CUT
10
1134.2687
20
401.3624
30
0.0
11
1139.2692
21
399.6244
31
0.0
0
LINE
8
CUT
10
1139.2692
20
399.6244
30
0.0
11
1144.2697
21
397.8575
31
0.0
0
LINE
8
CUT
10
1144.2697
20
397.8575
30
0.0
11
1149.2703
21
396.0613
31
0.0
0
LINE
8
CUT
10
1149.2703
20
396.0613
30
0.0
11
1154.2708
21
394.2353
31
0.0
0
LINE
8
CUT
10
1154.2708
20
394.2353
30
0.0
11
1159.2714
21
392.3791
31
0.0
0
LINE
8
CUT
10
1159.2714
20
392.3791
30
0.0
11
1164.2720
21
390.4922
31
0.0
0
LINE
8
CUT
10
1164.2720
20
390.4922
30
0.0
11
1169.2726
21
388.5743
31
0.0
0
LINE
8
CUT
10
1169.2726
20
388.5743
30
0.0
11
1174.2732
21
386.6247
31
0.0
0
LINE
8
CUT
10
1174.2732
20
386.6247
30
0.0
11
1179.2739
21
384.6430
31
0.0
0
LINE
8
CUT
10
1179.2739
20
384.6430
30
0.0
11
1184.2745
21
382.6286
31
0.0
0
LINE
8
CUT
10
1184.2745
20
382.6286
30
0.0
11
1189.2752
21
380.5811
31
0.0
0
LINE
8
CUT
10
1189.2752
20
380.5811
30
0.0
11
1194.2760
21
378.4997
31
0.0
0
LINE
8
CUT
10
1194.2760
20
378.4997
30
0.0
11
1199.2767
21
376.3839
31
0.0
0
LINE
8
CUT
10
1199.2767
20
376.3839
30
0.0
11
1204.2775
21
374.2330
31
0.0
0
LINE
8
CUT
10
1204.2775
20
374.2330
30
0.0
11
1209.2783
21
372.0463
31
0.0
0
LINE
8
CUT
10
1209.2783
20
372.0463
30
0.0
11
1214.2792
21
369.8232
31
0.0
0
LINE
8
CUT
10
1214.2792
20
369.8232
30
0.0
11
1219.2800
21
367.5629
31
0.0
0
LINE
8
CUT
10
1219.2800
20
367.5629
30
0.0
11
1224.2809
21
365.2645
31
0.0
0
LINE
8
CUT
10
1224.2809
20
365.2645
30
0.0
11
1229.2818
21
362.9274
31
0.0
0
LINE
8
CUT
10
1229.2818
20
362.9274
30
0.0
11
1234.2828
21
360.5505
31
0.0
0
LINE
8
CUT
10
1234.2828
20
360.5505
30
0.0
11
1239.2838
21
358.1331
31
0.0
0
LINE
8
CUT
10
1239.2838
20
358.1331
30
0.0
11
1244.2848
21
355.6741
31
0.0
0
LINE
8
CUT
10
1244.2848
20
355.6741
30
0.0
11
1249.2858
21
353.1725
31
0.0
0
LINE
8
CUT
10
1249.2858
20
353.1725
30
0.0
11
1254.2869
21
350.6272
31
0.0
0
LINE
8
CUT
10
1254.2869
20
350.6272
30
0.0
11
1259.2880
21
348.0371
31
0.0
0
LINE
8
CUT
10
1259.2880
20
348.0371
30
0.0
11
1264.2891
21
345.4011
31
0.0
0
LINE
8
CUT
10
1264.2891
20
345.4011
30
0.0
11
1269.2903
21
342.7177
31
0.0
0
LINE
8
CUT
10
1269.2903
20
342.7177
30
0.0
11
1274.2915
21
339.9857
31
0.0
0
LINE
8
CUT
10
1274.2915
20
339.9857
30
0.0
11
1279.2927
21
337.2037
31
0.0
0
LINE
8
CUT
10
1279.2927
20
337.2037
30
0.0
11
1284.2940
21
334.3701
31
0.0
0
LINE
8
CUT
10
1284.2940
20
334.3701
30
0.0
11
1289.2953
21
331.4833
31
0.0
0
LINE
8
CUT
10
1289.2953
20
331.4833
30
0.0
11
1294.2967
21
328.5415
31
0.0
0
LINE
8
CUT
10
1294.2967
20
328.5415
30
0.0
11
1299.2980
21
325.5429
31
0.0
0
LINE
8
CUT
10
1299.2980
20
325.5429
30
0.0
11
1304.2994
21
322.4856
31
0.0
0
LINE
8
CUT
10
1304.2994
20
322.4856
30
0.0
11
1309.3009
21
319.3673
31
0.0
0
LINE
8
CUT
10
1309.3009
20
319.3673
30
0.0
11
1314.3024
21
316.1857
31
0.0
0
LINE
8
CUT
10
1314.3024
20
316.1857
30
0.0
11
1319.3039
21
312.9386
31
0.0
0
LINE
8
CUT
10
1319.3039
20
312.9386
30
0.0
11
1324.3055
21
309.6230
31
0.0
0
LINE
8
CUT
10
1324.3055
20
309.6230
30
0.0
11
1329.3071
21
306.2363
31
0.0
0
LINE
8
CUT
10
1329.3071
20
306.2363
30
0.0
11
1334.3087
21
302.7752
31
0.0
0
LINE
8
CUT
10
1334.3087
20
302.7752
30
0.0
11
1339.3104
21
299.2363
31
0.0
0
LINE
8
CUT
10
1339.3104
20
299.2363
30
0.0
11
1344.3122
21
295.6160
31
0.0
0
LINE
8
CUT
10
1344.3122
20
295.6160
30
0.0
11
1349.3139
21
291.9101
31
0.0
0
LINE
8
CUT
10
1349.3139
20
291.9101
30
0.0
11
1354.3157
21
288.1143
31
0.0
0
LINE
8
CUT
10
1354.3157
20
288.1143
30
0.0
11
1359.3176
21
284.2235
31
0.0
0
LINE
8
CUT
10
1359.3176
20
284.2235
30
0.0
11
1364.3195
21
280.2323
31
0.0
0
LINE
8
CUT
10
1364.3195
20
280.2323
30
0.0
11
1369.3214
21
276.1348
31
0.0
0
LINE
8
CUT
10
1369.3214
20
276.1348
30
0.0
11
1374.3234
21
271.9240
31
0.0
0
LINE
8
CUT
10
1374.3234
20
271.9240
30
0.0
11
1379.3255
21
267.5925
31
0.0
0
LINE
8
CUT
10
1379.3255
20
267.5925
30
0.0
11
1384.3276
21
263.1316
31
0.0
0
LINE
8
CUT
10
1384.3276
20
263.1316
30
0.0
11
1389.3297
21
258.5315
31
0.0
0
LINE
8
CUT
10
1389.3297
20
258.5315
30
0.0
11
1394.3319
21
253.7811
31
0.0
0
LINE
8
CUT
10
1394.3319
20
253.7811
30
0.0
11
1399.3341
21
248.8674
31
0.0
0
LINE
8
CUT
10
1399.3341
20
248.8674
30
0.0
11
1404.3364
21
243.7754
31
0.0
0
LINE
8
CUT
10
1404.3364
20
243.7754
30
0.0
11
1409.3387
21
238.4874
31
0.0
0
LINE
8
CUT
10
1409.3387
20
238.4874
30
0.0
11
1414.3410
21
232.9822
31
0.0
0
LINE
8
CUT
10
1414.3410
20
232.9822
30
0.0
11
1419.3435
21
227.2344
31
0.0
0
LINE
8
CUT
10
1419.3435
20
227.2344
30
0.0
11
1424.3459
21
221.2127
31
0.0
0
LINE
8
CUT
10
1424.3459
20
221.2127
30
0.0
11
1429.3485
21
214.8779
31
0.0
0
LINE
8
CUT
10
1429.3485
20
214.8779
30
0.0
11
1434.3510
21
208.1801
31
0.0
0
LINE
8
CUT
10
1434.3510
20
208.1801
30
0.0
11
1439.3537
21
201.0532
31
0.0
0
LINE
8
CUT
10
1439.3537
20
201.0532
30
0.0
11
1444.3564
21
193.4076
31
0.0
0
LINE
8
CUT
10
1444.3564
20
193.4076
30
0.0
11
1449.3591
21
185.1149
31
0.0
0
LINE
8
CUT
10
1449.3591
20
185.1149
30
0.0
11
1454.3619
21
175.9802
31
0.0
0
LINE
8
CUT
10
1454.3619
20
175.9802
30
0.0
11
1459.3647
21
165.6789
31
0.0
0
LINE
8
CUT
10
1459.3647
20
165.6789
30
0.0
11
1464.3676
21
153.5870
31
0.0
0
LINE
8
CUT
10
1464.3676
20
153.5870
30
0.0
11
1469.3706
21
138.1269
31
0.0
0
LINE
8
CUT
10
1469.3706
20
138.1269
30
0.0
11
1474.3736
21
104.1933
31
0.0
0
LINE
8
CUT
10
1474.3736
20
104.1933
30
0.0
11
1474.3736
21
0.0000
31
0.0
0
LINE
8
CUT
10
1474.3736
20
0.0000
30
0.0
11
0.0000
21
0.0000
31
0.0
0
LINE
8
CHANNEL
10
0.0000
20
36.2880
30
0.0
11
62.8486
21
64.4246
31
0.0
0
LINE
8
CHANNEL
10
62.8486
20
64.4246
30
0.0
11
73.9899
21
74.2402
31
0.0
0
LINE
8
CHANNEL
10
73.9899
20
74.2402
30
0.0
11
82.0726
21
81.4608
31
0.0
0
LINE
8
CHANNEL
10
82.0726
20
81.4608
30
0.0
11
88.9366
21
87.3707
31
0.0
0
LINE
8
CHANNEL
10
88.9366
20
87.3707
30
0.0
11
95.1755
21
92.4551
31
0.0
0
LINE
8
CHANNEL
10
95.1755
20
92.4551
30
0.0
11
101.0491
21
96.9586
31
0.0
0
LINE
8
CHANNEL
10
101.0491
20
96.9586
30
0.0
11
106.6911
21
101.0249
31
0.0
0
LINE
8
CHANNEL
10
106.6911
20
101.0249
30
0.0
11
112.1772
21
104.7468
31
0.0
0
LINE
8
CHANNEL
10
112.1772
20
104.7468
30
0.0
11
117.5539
21
108.1881
31
0.0
0
LINE
8
CHANNEL
10
117.5539
20
108.1881
30
0.0
11
122.8511
21
111.3951
31
0.0
0
LINE
8
CHANNEL
10
122.8511
20
111.3951
30
0.0
11
128.0891
21
114.4025
31
0.0
0
LINE
8
CHANNEL
10
128.0891
20
114.4025
30
0.0
11
133.2818
21
117.2370
31
0.0
0
LINE
8
CHANNEL
10
133.2818
20
117.2370
30
0.0
11
138.4394
21
119.9201
31
0.0
0
LINE
8
CHANNEL
10
138.4394
20
119.9201
30
0.0
11
143.5694
21
122.4687
31
0.0
0
LINE
8
CHANNEL
10
143.5694
20
122.4687
30
0.0
11
148.6772
21
124.8970
31
0.0
0
LINE
8
CHANNEL
10
148.6772
20
124.8970
30
0.0
11
153.7672
21
127.2168
31
0.0
0
LINE
8
CHANNEL
10
153.7672
20
127.2168
30
0.0
11
158.8427
21
129.4380
31
0.0
0
LINE
8
CHANNEL
10
158.8427
20
129.4380
30
0.0
11
163.9062
21
131.5690
31
0.0
0
LINE
8
CHANNEL
10
163.9062
20
131.5690
30
0.0
11
168.9598
21
133.6170
31
0.0
0
LINE
8
CHANNEL
10
168.9598
20
133.6170
30
0.0
11
174.0053
21
135.5885
31
0.0
0
LINE
8
CHANNEL
10
174.0053
20
135.5885
30
0.0
11
179.0438
21
137.4889
31
0.0
0
LINE
8
CHANNEL
10
179.0438
20
137.4889
30
0.0
11
184.0765
21
139.3231
31
0.0
0
LINE
8
CHANNEL
10
184.0765
20
139.3231
30
0.0
11
189.1044
21
141.0955
31
0.0
0
LINE
8
CHANNEL
10
189.1044
20
141.0955
30
0.0
11
194.1281
21
142.8098
31
0.0
0
LINE
8
CHANNEL
10
194.1281
20
142.8098
30
0.0
11
199.1484
21
144.4694
31
0.0
0
LINE
8
CHANNEL
10
199.1484
20
144.4694
30
0.0
11
204.1656
21
146.0776
31
0.0
0
LINE
8
CHANNEL
10
204.1656
20
146.0776
30
0.0
11
209.1803
21
147.6371
31
0.0
0
LINE
8
CHANNEL
10
209.1803
20
147.6371
30
0.0
11
214.1929
21
149.1505
31
0.0
0
LINE
8
CHANNEL
10
214.1929
20
149.1505
30
0.0
11
219.2035
21
150.6200
31
0.0
0
LINE
8
CHANNEL
10
219.2035
20
150.6200
30
0.0
11
224.2126
21
152.0477
31
0.0
0
LINE
8
CHANNEL
10
224.2126
20
152.0477
30
0.0
11
229.2203
21
153.4357
31
0.0
0
LINE
8
CHANNEL
10
229.2203
20
153.4357
30
0.0
11
234.2269
21
154.7857
31
0.0
0
LINE
8
CHANNEL
10
234.2269
20
154.7857
30
0.0
11
239.2324
21
156.0993
31
0.0
0
LINE
8
CHANNEL
10
239.2324
20
156.0993
30
0.0
11
244.2371
21
157.3780
31
0.0
0
LINE
8
CHANNEL
10
244.2371
20
157.3780
30
0.0
11
249.2411
21
158.6233
31
0.0
0
LINE
8
CHANNEL
10
249.2411
20
158.6233
30
0.0
11
254.2444
21
159.8365
31
0.0
0
LINE
8
CHANNEL
10
254.2444
20
159.8365
30
0.0
11
259.2472
21
161.0188
31
0.0
0
LINE
8
CHANNEL
10
259.2472
20
161.0188
30
0.0
11
264.2496
21
162.1713
31
0.0
0
LINE
8
CHANNEL
10
264.2496
20
162.1713
30
0.0
11
269.2516
21
163.2950
31
0.0
0
LINE
8
CHANNEL
10
269.2516
20
163.2950
30
0.0
11
274.2532
21
164.3911
31
0.0
0
LINE
8
CHANNEL
10
274.2532
20
164.3911
30
0.0
11
279.2546
21
165.4603
31
0.0
0
LINE
8
CHANNEL
10
279.2546
20
165.4603
30
0.0
11
284.2557
21
166.5036
31
0.0
0
LINE
8
CHANNEL
10
284.2557
20
166.5036
30
0.0
11
289.2566
21
167.5218
31
0.0
0
LINE
8
CHANNEL
10
289.2566
20
167.5218
30
0.0
11
294.2574
21
168.5156
31
0.0
0
LINE
8
CHANNEL
10
294.2574
20
168.5156
30
0.0
11
299.2580
21
169.4859
31
0.0
0
LINE
8
CHANNEL
10
299.2580
20
169.4859
30
0.0
11
304.2585
21
170.4332
31
0.0
0
LINE
8
CHANNEL
10
304.2585
20
170.4332
30
0.0
11
309.2589
21
171.3583
31
0.0
0
LINE
8
CHANNEL
10
309.2589
20
171.3583
30
0.0
11
314.2592
21
172.2617
31
0.0
0
LINE
8
CHANNEL
10
314.2592
20
172.2617
30
0.0
11
319.2595
21
173.1441
31
0.0
0
LINE
8
CHANNEL
10
319.2595
20
173.1441
30
0.0
11
324.2597
21
174.0060
31
0.0
0
LINE
8
CHANNEL
10
324.2597
20
174.0060
30
0.0
11
329.2599
21
174.8479
31
0.0
0
LINE
8
CHANNEL
10
329.2599
20
174.8479
30
0.0
11
334.2600
21
175.6703
31
0.0
0
LINE
8
CHANNEL
10
334.2600
20
175.6703
30
0.0
11
339.2601
21
176.4738
31
0.0
0
LINE
8
CHANNEL
10
339.2601
20
176.4738
30
0.0
11
344.2602
21
177.2587
31
0.0
0
LINE
8
CHANNEL
10
344.2602
20
177.2587
30
0.0
11
349.2602
21
178.0255
31
0.0
0
LINE
8
CHANNEL
10
349.2602
20
178.0255
30
0.0
11
354.2603
21
178.7746
31
0.0
0
LINE
8
CHANNEL
10
354.2603
20
178.7746
30
0.0
11
359.2603
21
179.5065
31
0.0
0
LINE
8
CHANNEL
10
359.2603
20
179.5065
30
0.0
11
364.2604
21
180.2214
31
0.0
0
LINE
8
CHANNEL
10
364.2604
20
180.2214
30
0.0
11
369.2604
21
180.9199
31
0.0
0
LINE
8
CHANNEL
10
369.2604
20
180.9199
30
0.0
11
374.2604
21
181.6021
31
0.0
0
LINE
8
CHANNEL
10
374.2604
20
181.6021
30
0.0
11
379.2604
21
182.2685
31
0.0
0
LINE
8
CHANNEL
10
379.2604
20
182.2685
30
0.0
11
384.2604
21
182.9194
31
0.0
0
LINE
8
CHANNEL
10
384.2604
20
182.9194
30
0.0
11
389.2605
21
183.5550
31
0.0
0
LINE
8
CHANNEL
10
389.2605
20
183.5550
30
0.0
11
394.2605
21
184.1757
31
0.0
0
LINE
8
CHANNEL
10
394.2605
20
184.1757
30
0.0
11
399.2605
21
184.7818
31
0.0
0
LINE
8
CHANNEL
10
399.2605
20
184.7818
30
0.0
11
404.2605
21
185.3735
31
0.0
0
LINE
8
CHANNEL
10
404.2605
20
185.3735
30
0.0
11
409.2605
21
185.9512
31
0.0
0
LINE
8
CHANNEL
10
409.2605
20
185.9512
30
0.0
11
414.2605
21
186.5150
31
0.0
0
LINE
8
CHANNEL
10
414.2605
20
186.5150
30
0.0
11
419.2606
21
187.0652
31
0.0
0
LINE
8
CHANNEL
10
419.2606
20
187.0652
30
0.0
11
424.2606
21
187.6020
31
0.0
0
LINE
8
CHANNEL
10
424.2606
20
187.6020
30
0.0
11
429.2606
21
188.1258
31
0.0
0
LINE
8
CHANNEL
10
429.2606
20
188.1258
30
0.0
11
434.2606
21
188.6366
31
0.0
0
LINE
8
CHANNEL
10
434.2606
20
188.6366
30
0.0
11
439.2606
21
189.1348
31
0.0
0
LINE
8
CHANNEL
10
439.2606
20
189.1348
30
0.0
11
444.2606
21
189.6205
31
0.0
0
LINE
8
CHANNEL
10
444.2606
20
189.6205
30
0.0
11
449.2606
21
190.0939
31
0.0
0
LINE
8
CHANNEL
10
449.2606
20
190.0939
30
0.0
11
454.2607
21
190.5552
31
0.0
0
LINE
8
CHANNEL
10
454.2607
20
190.5552
30
0.0
11
459.2607
21
191.0047
31
0.0
0
LINE
8
CHANNEL
10
459.2607
20
191.0047
30
0.0
11
464.2607
21
191.4424
31
0.0
0
LINE
8
CHANNEL
10
464.2607
20
191.4424
30
0.0
11
469.2607
21
191.8687
31
0.0
0
LINE
8
CHANNEL
10
469.2607
20
191.8687
30
0.0
11
474.2607
21
192.2836
31
0.0
0
LINE
8
CHANNEL
10
474.2607
20
192.2836
30
0.0
11
479.2607
21
192.6873
31
0.0
0
LINE
8
CHANNEL
10
479.2607
20
192.6873
30
0.0
11
484.2607
21
193.0800
31
0.0
0
LINE
8
CHANNEL
10
484.2607
20
193.0800
30
0.0
11
489.2607
21
193.4618
31
0.0
0
LINE
8
CHANNEL
10
489.2607
20
193.4618
30
0.0
11
494.2607
21
193.8330
31
0.0
0
LINE
8
CHANNEL
10
494.2607
20
193.8330
30
0.0
11
499.2607
21
194.1936
31
0.0
0
LINE
8
CHANNEL
10
499.2607
20
194.1936
30
0.0
11
504.2607
21
194.5438
31
0.0
0
LINE
8
CHANNEL
10
504.2607
20
194.5438
30
0.0
11
509.2607
21
194.8838
31
0.0
0
LINE
8
CHANNEL
10
509.2607
20
194.8838
30
0.0
11
514.2607
21
195.2137
31
0.0
0
LINE
8
CHANNEL
10
514.2607
20
195.2137
30
0.0
11
519.2607
21
195.5336
31
0.0
0
LINE
8
CHANNEL
10
519.2607
20
195.5336
30
0.0
11
524.2607
21
195.8437
31
0.0
0
LINE
8
CHANNEL
10
524.2607
20
195.8437
30
0.0
11
529.2607
21
196.1440
31
0.0
0
LINE
8
CHANNEL
10
529.2607
20
196.1440
30
0.0
11
534.2607
21
196.4349
31
0.0
0
LINE
8
CHANNEL
10
534.2607
20
196.4349
30
0.0
11
539.2607
21
196.7162
31
0.0
0
LINE
8
CHANNEL
10
539.2607
20
196.7162
30
0.0
11
544.2607
21
196.9883
31
0.0
0
LINE
8
CHANNEL
10
544.2607
20
196.9883
30
0.0
11
549.2607
21
197.2512
31
0.0
0
LINE
8
CHANNEL
10
549.2607
20
197.2512
30
0.0
11
554.2607
21
197.5050
31
0.0
0
LINE
8
CHANNEL
10
554.2607
20
197.5050
30
0.0
11
559.2607
21
197.7499
31
0.0
0
LINE
8
CHANNEL
10
559.2607
20
197.7499
30
0.0
11
564.2607
21
197.9860
31
0.0
0
LINE
8
CHANNEL
10
564.2607
20
197.9860
30
0.0
11
569.2607
21
198.2133
31
0.0
0
LINE
8
CHANNEL
10
569.2607
20
198.2133
30
0.0
11
574.2607
21
198.4321
31
0.0
0
LINE
8
CHANNEL
10
574.2607
20
198.4321
30
0.0
11
579.2607
21
198.6424
31
0.0
0
LINE
8
CHANNEL
10
579.2607
20
198.6424
30
0.0
11
584.2607
21
198.8443
31
0.0
0
LINE
8
CHANNEL
10
584.2607
20
198.8443
30
0.0
11
589.2607
21
199.0380
31
0.0
0
LINE
8
CHANNEL
10
589.2607
20
199.0380
30
0.0
11
594.2607
21
199.2235
31
0.0
0
LINE
8
CHANNEL
10
594.2607
20
199.2235
30
0.0
11
599.2607
21
199.4010
31
0.0
0
LINE
8
CHANNEL
10
599.2607
20
199.4010
30
0.0
11
604.2607
21
199.5706
31
0.0
0
LINE
8
CHANNEL
10
604.2607
20
199.5706
30
0.0
11
609.2607
21
199.7324
31
0.0
0
LINE
8
CHANNEL
10
609.2607
20
199.7324
30
0.0
11
614.2607
21
199.8865
31
0.0
0
LINE
8
CHANNEL
10
614.2607
20
199.8865
30
0.0
11
619.2607
21
200.0330
31
0.0
0
LINE
8
CHANNEL
10
619.2607
20
200.0330
30
0.0
11
624.2607
21
200.1721
31
0.0
0
LINE
8
CHANNEL
10
624.2607
20
200.1721
30
0.0
11
629.2607
21
200.3038
31
0.0
0
LINE
8
CHANNEL
10
629.2607
20
200.3038
30
0.0
11
634.2607
21
200.4283
31
0.0
0
LINE
8
CHANNEL
10
634.2607
20
200.4283
30
0.0
11
639.2607
21
200.5456
31
0.0
0
LINE
8
CHANNEL
10
639.2607
20
200.5456
30
0.0
11
644.2607
21
200.6559
31
0.0
0
LINE
8
CHANNEL
10
644.2607
20
200.6559
30
0.0
11
649.2607
21
200.7593
31
0.0
0
LINE
8
CHANNEL
10
649.2607
20
200.7593
30
0.0
11
654.2607
21
200.8559
31
0.0
0
LINE
8
CHANNEL
10
654.2607
20
200.8559
30
0.0
11
659.2607
21
200.9459
31
0.0
0
LINE
8
CHANNEL
10
659.2607
20
200.9459
30
0.0
11
664.2607
21
201.0293
31
0.0
0
LINE
8
CHANNEL
10
664.2607
20
201.0293
30
0.0
11
669.2607
21
201.1064
31
0.0
0
LINE
8
CHANNEL
10
669.2607
20
201.1064
30
0.0
11
674.2607
21
201.1771
31
0.0
0
LINE
8
CHANNEL
10
674.2607
20
201.1771
30
0.0
11
679.2607
21
201.2417
31
0.0
0
LINE
8
CHANNEL
10
679.2607
20
201.2417
30
0.0
11
684.2607
21
201.3003
31
0.0
0
LINE
8
CHANNEL
10
684.2607
20
201.3003
30
0.0
11
689.2607
21
201.3531
31
0.0
0
LINE
8
CHANNEL
10
689.2607
20
201.3531
30
0.0
11
694.2607
21
201.4001
31
0.0
0
LINE
8
CHANNEL
10
694.2607
20
201.4001
30
0.0
11
699.2607
21
201.4416
31
0.0
0
LINE
8
CHANNEL
10
699.2607
20
201.4416
30
0.0
11
704.2607
21
201.4777
31
0.0
0
LINE
8
CHANNEL
10
704.2607
20
201.4777
30
0.0
11
709.2607
21
201.5087
31
0.0
0
LINE
8
CHANNEL
10
709.2607
20
201.5087
30
0.0
11
714.2607
21
201.5346
31
0.0
0
LINE
8
CHANNEL
10
714.2607
20
201.5346
30
0.0
11
719.2607
21
201.5558
31
0.0
0
LINE
8
CHANNEL
10
719.2607
20
201.5558
30
0.0
11
724.2607
21
201.5724
31
0.0
0
LINE
8
CHANNEL
10
724.2607
20
201.5724
30
0.0
11
729.2607
21
201.5847
31
0.0
0
LINE
8
CHANNEL
10
729.2607
20
201.5847
30
0.0
11
734.2607
21
201.5931
31
0.0
0
LINE
8
CHANNEL
10
734.2607
20
201.5931
30
0.0
11
739.2607
21
201.5980
31
0.0
0
LINE
8
CHANNEL
10
739.2607
20
201.5980
30
0.0
11
744.2607
21
201.5999
31
0.0
0
LINE
8
CHANNEL
10
744.2607
20
201.5999
30
0.0
11
749.2607
21
201.5972
31
0.0
0
LINE
8
CHANNEL
10
749.2607
20
201.5972
30
0.0
11
754.2607
21
201.5817
31
0.0
0
LINE
8
CHANNEL
10
754.2607
20
201.5817
30
0.0
11
759.2607
21
201.5539
31
0.0
0
LINE
8
CHANNEL
10
759.2607
20
201.5539
30
0.0
11
764.2607
21
201.5145
31
0.0
0
LINE
8
CHANNEL
10
764.2607
20
201.5145
30
0.0
11
769.2607
21
201.4638
31
0.0
0
LINE
8
CHANNEL
10
769.2607
20
201.4638
30
0.0
11
774.2607
21
201.4021
31
0.0
0
LINE
8
CHANNEL
10
774.2607
20
201.4021
30
0.0
11
779.2607
21
201.3295
31
0.0
0
LINE
8
CHANNEL
10
779.2607
20
201.3295
30
0.0
11
784.2607
21
201.2463
31
0.0
0
LINE
8
CHANNEL
10
784.2607
20
201.2463
30
0.0
11
789.2607
21
201.1525
31
0.0
0
LINE
8
CHANNEL
10
789.2607
20
201.1525
30
0.0
11
794.2607
21
201.0483
31
0.0
0
LINE
8
CHANNEL
10
794.2607
20
201.0483
30
0.0
11
799.2607
21
200.9339
31
0.0
0
LINE
8
CHANNEL
10
799.2607
20
200.9339
30
0.0
11
804.2607
21
200.8092
31
0.0
0
LINE
8
CHANNEL
10
804.2607
20
200.8092
30
0.0
11
809.2607
21
200.6743
31
0.0
0
LINE
8
CHANNEL
10
809.2607
20
200.6743
30
0.0
11
814.2607
21
200.5294
31
0.0
0
LINE
8
CHANNEL
10
814.2607
20
200.5294
30
0.0
11
819.2607
21
200.3744
31
0.0
0
LINE
8
CHANNEL
10
819.2607
20
200.3744
30
0.0
11
824.2607
21
200.2094
31
0.0
0
LINE
8
CHANNEL
10
824.2607
20
200.2094
30
0.0
11
829.2607
21
200.0345
31
0.0
0
LINE
8
CHANNEL
10
829.2607
20
200.0345
30
0.0
11
834.2607
21
199.8497
31
0.0
0
LINE
8
CHANNEL
10
834.2607
20
199.8497
30
0.0
11
839.2607
21
199.6550
31
0.0
0
LINE
8
CHANNEL
10
839.2607
20
199.6550
30
0.0
11
844.2607
21
199.4504
31
0.0
0
LINE
8
CHANNEL
10
844.2607
20
199.4504
30
0.0
11
849.2607
21
199.2360
31
0.0
0
LINE
8
CHANNEL
10
849.2607
20
199.2360
30
0.0
11
854.2607
21
199.0118
31
0.0
0
LINE
8
CHANNEL
10
854.2607
20
199.0118
30
0.0
11
859.2607
21
198.7777
31
0.0
0
LINE
8
CHANNEL
10
859.2607
20
198.7777
30
0.0
11
864.2607
21
198.5339
31
0.0
0
LINE
8
CHANNEL
10
864.2607
20
198.5339
30
0.0
11
869.2607
21
198.2803
31
0.0
0
LINE
8
CHANNEL
10
869.2607
20
198.2803
30
0.0
11
874.2607
21
198.0169
31
0.0
0
LINE
8
CHANNEL
10
874.2607
20
198.0169
30
0.0
11
879.2607
21
197.7436
31
0.0
0
LINE
8
CHANNEL
10
879.2607
20
197.7436
30
0.0
11
884.2607
21
197.4606
31
0.0
0
LINE
8
CHANNEL
10
884.2607
20
197.4606
30
0.0
11
889.2607
21
197.1678
31
0.0
0
LINE
8
CHANNEL
10
889.2607
20
197.1678
30
0.0
11
894.2607
21
196.8652
31
0.0
0
LINE
8
CHANNEL
10
894.2607
20
196.8652
30
0.0
11
899.2607
21
196.5527
31
0.0
0
LINE
8
CHANNEL
10
899.2607
20
196.5527
30
0.0
11
904.2607
21
196.2304
31
0.0
0
LINE
8
CHANNEL
10
904.2607
20
196.2304
30
0.0
11
909.2607
21
195.8982
31
0.0
0
LINE
8
CHANNEL
10
909.2607
20
195.8982
30
0.0
11
914.2607
21
195.5562
31
0.0
0
LINE
8
CHANNEL
10
914.2607
20
195.5562
30
0.0
11
919.2607
21
195.2042
31
0.0
0
LINE
8
CHANNEL
10
919.2607
20
195.2042
30
0.0
11
924.2608
21
194.8424
31
0.0
0
LINE
8
CHANNEL
10
924.2608
20
194.8424
30
0.0
11
929.2608
21
194.4705
31
0.0
0
LINE
8
CHANNEL
10
929.2608
20
194.4705
30
0.0
11
934.2608
21
194.0887
31
0.0
0
LINE
8
CHANNEL
10
934.2608
20
194.0887
30
0.0
11
939.2608
21
193.6968
31
0.0
0
LINE
8
CHANNEL
10
939.2608
20
193.6968
30
0.0
11
944.2609
21
193.2949
31
0.0
0
LINE
8
CHANNEL
10
944.2609
20
193.2949
30
0.0
11
949.2609
21
192.8829
31
0.0
0
LINE
8
CHANNEL
10
949.2609
20
192.8829
30
0.0
11
954.2610
21
192.4607
31
0.0
0
LINE
8
CHANNEL
10
954.2610
20
192.4607
30
0.0
11
959.2610
21
192.0284
31
0.0
0
LINE
8
CHANNEL
10
959.2610
20
192.0284
30
0.0
11
964.2611
21
191.5858
31
0.0
0
LINE
8
CHANNEL
10
964.2611
20
191.5858
30
0.0
11
969.2611
21
191.1329
31
0.0
0
LINE
8
CHANNEL
10
969.2611
20
191.1329
30
0.0
11
974.2612
21
190.6697
31
0.0
0
LINE
8
CHANNEL
10
974.2612
20
190.6697
30
0.0
11
979.2613
21
190.1961
31
0.0
0
LINE
8
CHANNEL
10
979.2613
20
190.1961
30
0.0
11
984.2613
21
189.7121
31
0.0
0
LINE
8
CHANNEL
10
984.2613
20
189.7121
30
0.0
11
989.2614
21
189.2175
31
0.0
0
LINE
8
CHANNEL
10
989.2614
20
189.2175
30
0.0
11
994.2615
21
188.7124
31
0.0
0
LINE
8
CHANNEL
10
994.2615
20
188.7124
30
0.0
11
999.2616
21
188.1967
31
0.0
0
LINE
8
CHANNEL
10
999.2616
20
188.1967
30
0.0
11
1004.2617
21
187.6702
31
0.0
0
LINE
8
CHANNEL
10
1004.2617
20
187.6702
30
0.0
11
1009.2619
21
187.1330
31
0.0
0
LINE
8
CHANNEL
10
1009.2619
20
187.1330
30
0.0
11
1014.2620
21
186.5849
31
0.0
0
LINE
8
CHANNEL
10
1014.2620
20
186.5849
30
0.0
11
1019.2621
21
186.0259
31
0.0
0
LINE
8
CHANNEL
10
1019.2621
20
186.0259
30
0.0
11
1024.2623
21
185.4558
31
0.0
0
LINE
8
CHANNEL
10
1024.2623
20
185.4558
30
0.0
11
1029.2624
21
184.8747
31
0.0
0
LINE
8
CHANNEL
10
1029.2624
20
184.8747
30
0.0
11
1034.2626
21
184.2824
31
0.0
0
LINE
8
CHANNEL
10
1034.2626
20
184.2824
30
0.0
11
1039.2628
21
183.6788
31
0.0
0
LINE
8
CHANNEL
10
1039.2628
20
183.6788
30
0.0
11
1044.2630
21
183.0638
31
0.0
0
LINE
8
CHANNEL
10
1044.2630
20
183.0638
30
0.0
11
1049.2632
21
182.4374
31
0.0
0
LINE
8
CHANNEL
10
1049.2632
20
182.4374
30
0.0
11
1054.2634
21
181.7993
31
0.0
0
LINE
8
CHANNEL
10
1054.2634
20
181.7993
30
0.0
11
1059.2636
21
181.1496
31
0.0
0
LINE
8
CHANNEL
10
1059.2636
20
181.1496
30
0.0
11
1064.2638
21
180.4881
31
0.0
0
LINE
8
CHANNEL
10
1064.2638
20
180.4881
30
0.0
11
1069.2641
21
179.8147
31
0.0
0
LINE
8
CHANNEL
10
1069.2641
20
179.8147
30
0.0
11
1074.2643
21
179.1292
31
0.0
0
LINE
8
CHANNEL
10
1074.2643
20
179.1292
30
0.0
11
1079.2646
21
178.4316
31
0.0
0
LINE
8
CHANNEL
10
1079.2646
20
178.4316
30
0.0
11
1084.2649
21
177.7216
31
0.0
0
LINE
8
CHANNEL
10
1084.2649
20
177.7216
30
0.0
11
1089.2652
21
176.9993
31
0.0
0
LINE
8
CHANNEL
10
1089.2652
20
176.9993
30
0.0
11
1094.2655
21
176.2644
31
0.0
0
LINE
8
CHANNEL
10
1094.2655
20
176.2644
30
0.0
11
1099.2659
21
175.5167
31
0.0
0
LINE
8
CHANNEL
10
1099.2659
20
175.5167
30
0.0
11
1104.2662
21
174.7562
31
0.0
0
LINE
8
CHANNEL
10
1104.2662
20
174.7562
30
0.0
11
1109.2666
21
173.9827
31
0.0
0
LINE
8
CHANNEL
10
1109.2666
20
173.9827
30
0.0
11
1114.2670
21
173.1960
31
0.0
0
LINE
8
CHANNEL
10
1114.2670
20
173.1960
30
0.0
11
1119.2674
21
172.3960
31
0.0
0
LINE
8
CHANNEL
10
1119.2674
20
172.3960
30
0.0
11
1124.2678
21
171.5824
31
0.0
0
LINE
8
CHANNEL
10
1124.2678
20
171.5824
30
0.0
11
1129.2683
21
170.7551
31
0.0
0
LINE
8
CHANNEL
10
1129.2683
20
170.7551
30
0.0
11
1134.2687
21
169.9139
31
0.0
0
LINE
8
CHANNEL
10
1134.2687
20
169.9139
30
0.0
11
1139.2692
21
169.0586
31
0.0
0
LINE
8
CHANNEL
10
1139.2692
20
169.0586
30
0.0
11
1144.2697
21
168.1889
31
0.0
0
LINE
8
CHANNEL
10
1144.2697
20
168.1889
30
0.0
11
1149.2703
21
167.3048
31
0.0
0
LINE
8
CHANNEL
10
1149.2703
20
167.3048
30
0.0
11
1154.2708
21
166.4059
31
0.0
0
LINE
8
CHANNEL
10
1154.2708
20
166.4059
30
0.0
11
1159.2714
21
165.4920
31
0.0
0
LINE
8
CHANNEL
10
1159.2714
20
165.4920
30
0.0
11
1164.2720
21
164.5629
31
0.0
0
LINE
8
CHANNEL
10
1164.2720
20
164.5629
30
0.0
11
1169.2726
21
163.6183
31
0.0
0
LINE
8
CHANNEL
10
1169.2726
20
163.6183
30
0.0
11
1174.2732
21
162.6579
31
0.0
0
LINE
8
CHANNEL
10
1174.2732
20
162.6579
30
0.0
11
1179.2739
21
161.6816
31
0.0
0
LINE
8
CHANNEL
10
1179.2739
20
161.6816
30
0.0
11
1184.2745
21
160.6889
31
0.0
0
LINE
8
CHANNEL
10
1184.2745
20
160.6889
30
0.0
11
1189.2752
21
159.6796
31
0.0
0
LINE
8
CHANNEL
10
1189.2752
20
159.6796
30
0.0
11
1194.2760
21
158.6534
31
0.0
0
LINE
8
CHANNEL
10
1194.2760
20
158.6534
30
0.0
11
1199.2767
21
157.6100
31
0.0
0
LINE
8
CHANNEL
10
1199.2767
20
157.6100
30
0.0
11
1204.2775
21
156.5489
31
0.0
0
LINE
8
CHANNEL
10
1204.2775
20
156.5489
30
0.0
11
1209.2783
21
155.4699
31
0.0
0
LINE
8
CHANNEL
10
1209.2783
20
155.4699
30
0.0
11
1214.2792
21
154.3725
31
0.0
0
LINE
8
CHANNEL
10
1214.2792
20
154.3725
30
0.0
11
1219.2800
21
153.2564
31
0.0
0
LINE
8
CHANNEL
10
1219.2800
20
153.2564
30
0.0
11
1224.2809
21
152.1212
31
0.0
0
LINE
8
CHANNEL
10
1224.2809
20
152.1212
30
0.0
11
1229.2818
21
150.9664
31
0.0
0
LINE
8
CHANNEL
10
1229.2818
20
150.9664
30
0.0
11
1234.2828
21
149.7915
31
0.0
0
LINE
8
CHANNEL
10
1234.2828
20
149.7915
30
0.0
11
1239.2838
21
148.5961
31
0.0
0
LINE
8
CHANNEL
10
1239.2838
20
148.5961
30
0.0
11
1244.2848
21
147.3797
31
0.0
0
LINE
8
CHANNEL
10
1244.2848
20
147.3797
30
0.0
11
1249.2858
21
146.1417
31
0.0
0
LINE
8
CHANNEL
10
1249.2858
20
146.1417
30
0.0
11
1254.2869
21
144.8815
31
0.0
0
LINE
8
CHANNEL
10
1254.2869
20
144.8815
30
0.0
11
1259.2880
21
143.5986
31
0.0
0
LINE
8
CHANNEL
10
1259.2880
20
143.5986
30
0.0
11
1264.2891
21
142.2923
31
0.0
0
LINE
8
CHANNEL
10
1264.2891
20
142.2923
30
0.0
11
1269.2903
21
140.9620
31
0.0
0
LINE
8
CHANNEL
10
1269.2903
20
140.9620
30
0.0
11
1274.2915
21
139.6069
31
0.0
0
LINE
8
CHANNEL
10
1274.2915
20
139.6069
30
0.0
11
1279.2927
21
138.2262
31
0.0
0
LINE
8
CHANNEL
10
1279.2927
20
138.2262
30
0.0
11
1284.2940
21
136.8193
31
0.0
0
LINE
8
CHANNEL
10
1284.2940
20
136.8193
30
0.0
11
1289.2953
21
135.3851
31
0.0
0
LINE
8
CHANNEL
10
1289.2953
20
135.3851
30
0.0
11
1294.2967
21
133.9229
31
0.0
0
LINE
8
CHANNEL
10
1294.2967
20
133.9229
30
0.0
11
1299.2980
21
132.4316
31
0.0
0
LINE
8
CHANNEL
10
1299.2980
20
132.4316
30
0.0
11
1304.2994
21
130.9101
31
0.0
0
LINE
8
CHANNEL
10
1304.2994
20
130.9101
30
0.0
11
1309.3009
21
129.3574
31
0.0
0
LINE
8
CHANNEL
10
1309.3009
20
129.3574
30
0.0
11
1314.3024
21
127.7722
31
0.0
0
LINE
8
CHANNEL
10
1314.3024
20
127.7722
30
0.0
11
1319.3039
21
126.1533
31
0.0
0
LINE
8
CHANNEL
10
1319.3039
20
126.1533
30
0.0
11
1324.3055
21
124.4992
31
0.0
0
LINE
8
CHANNEL
10
1324.3055
20
124.4992
30
0.0
11
1329.3071
21
122.8084
31
0.0
0
LINE
8
CHANNEL
10
1329.3071
20
122.8084
30
0.0
11
1334.3087
21
121.0793
31
0.0
0
LINE
8
CHANNEL
10
1334.3087
20
121.0793
30
0.0
11
1339.3104
21
119.3100
31
0.0
0
LINE
8
CHANNEL
10
1339.3104
20
119.3100
30
0.0
11
1344.3122
21
117.4986
31
0.0
0
LINE
8
CHANNEL
10
1344.3122
20
117.4986
30
0.0
11
1349.3139
21
115.6430
31
0.0
0
LINE
8
CHANNEL
10
1349.3139
20
115.6430
30
0.0
11
1354.3157
21
113.7408
31
0.0
0
LINE
8
CHANNEL
10
1354.3157
20
113.7408
30
0.0
11
1359.3176
21
111.7893
31
0.0
0
LINE
8
CHANNEL
10
1359.3176
20
111.7893
30
0.0
11
1364.3195
21
109.7857
31
0.0
0
LINE
8
CHANNEL
10
1364.3195
20
109.7857
30
0.0
11
1369.3214
21
107.7269
31
0.0
0
LINE
8
CHANNEL
10
1369.3214
20
107.7269
30
0.0
11
1374.3234
21
105.6091
31
0.0
0
LINE
8
CHANNEL
10
1374.3234
20
105.6091
30
0.0
11
1379.3255
21
103.4284
31
0.0
0
LINE
8
CHANNEL
10
1379.3255
20
103.4284
30
0.0
11
1384.3276
21
101.1801
31
0.0
0
LINE
8
CHANNEL
10
1384.3276
20
101.1801
30
0.0
11
1389.3297
21
98.8592
31
0.0
0
LINE
8
CHANNEL
10
1389.3297
20
98.8592
30
0.0
11
1394.3319
21
96.4596
31
0.0
0
LINE
8
CHANNEL
10
1394.3319
20
96.4596
30
0.0
11
1399.3341
21
93.9745
31
0.0
0
LINE
8
CHANNEL
10
1399.3341
20
93.9745
30
0.0
11
1404.3364
21
91.3959
31
0.0
0
LINE
8
CHANNEL
10
1404.3364
20
91.3959
30
0.0
11
1409.3387
21
88.7143
31
0.0
0
LINE
8
CHANNEL
10
1409.3387
20
88.7143
30
0.0
11
1414.3410
21
85.9183
31
0.0
0
LINE
8
CHANNEL
10
1414.3410
20
85.9183
30
0.0
11
1419.3435
21
82.9944
31
0.0
0
LINE
8
CHANNEL
10
1419.3435
20
82.9944
30
0.0
11
1424.3459
21
79.9259
31
0.0
0
LINE
8
CHANNEL
10
1424.3459
20
79.9259
30
0.0
11
1429.3485
21
76.6916
31
0.0
0
LINE
8
CHANNEL
10
1429.3485
20
76.6916
30
0.0
11
1434.3510
21
73.2648
31
0.0
0
LINE
8
CHANNEL
10
1434.3510
20
73.2648
30
0.0
11
1439.3537
21
69.6099
31
0.0
0
LINE
8
CHANNEL
10
1439.3537
20
69.6099
30
0.0
11
1444.3564
21
65.6783
31
0.0
0
LINE
8
CHANNEL
10
1444.3564
20
65.6783
30
0.0
11
1449.3591
21
61.4007
31
0.0
0
LINE
8
CHANNEL
10
1449.3591
20
61.4007
30
0.0
11
1454.3619
21
56.6711
31
0.0
0
LINE
8
CHANNEL
10
1454.3619
20
56.6711
30
0.0
11
1459.3647
21
51.3124
31
0.0
0
LINE
8
CHANNEL
10
1459.3647
20
51.3124
30
0.0
11
1464.3676
21
44.9824
31
0.0
0
LINE
8
CHANNEL
10
1464.3676
20
44.9824
30
0.0
11
1469.3706
21
36.8091
31
0.0
0
LINE
8
CHANNEL
10
1469.3706
20
36.8091
30
0.0
11
1474.3736
21
18.1440
31
0.0
0
LINE
8
HOLES
10
62.8486
20
220.4654
30
0.0
11
62.8486
21
74.4246
31
0.0
0
LINE
8
HOLES
10
62.8486
20
220.4654
30
0.0
11
62.8486
21
74.4246
31
0.0
0
LINE
8
HOLES
10
73.9899
20
242.5990
30
0.0
11
73.9899
21
84.2402
31
0.0
0
LINE
8
HOLES
10
88.9366
20
270.3182
30
0.0
11
88.9366
21
97.3707
31
0.0
0
LINE
8
HOLES
10
101.0491
20
289.5510
30
0.0
11
101.0491
21
106.9586
31
0.0
0
LINE
8
HOLES
10
122.8511
20
317.2324
30
0.0
11
122.8511
21
121.3951
31
0.0
0
LINE
8
HOLES
10
158.8427
20
349.9652
30
0.0
11
158.8427
21
139.4380
31
0.0
0
LINE
8
HOLES
10
224.2126
20
388.2741
30
0.0
11
224.2126
21
162.0477
31
0.0
0
LINE
8
HOLES
10
369.2604
20
432.7717
30
0.0
11
369.2604
21
190.9199
31
0.0
0
LINE
8
HOLES
10
749.2607
20
462.0468
30
0.0
11
749.2607
21
211.5972
31
0.0
0
LINE
8
HOLES
10
1079.2646
20
418.4540
30
0.0
11
1079.2646
21
188.4316
31
0.0
0
LINE
8
HOLES
10
1289.2953
20
331.4833
30
0.0
11
1289.2953
21
145.3851
31
0.0
0
LINE
8
HOLES
10
1379.3255
20
267.5925
30
0.0
11
1379.3255
21
113.4284
31
0.0
0
LINE
8
HOLES
10
1424.3459
20
221.2127
30
0.0
11
1424.3459
21
89.9259
31
0.0
0
LINE
8
HOLES
10
1444.3564
20
193.4076
30
0.0
11
1444.3564
21
75.6783
31
0.0
0
LINE
8
HOLES
10
1459.3647
20
165.6789
30
0.0
11
1459.3647
21
61.3124
31
0.0
0
LINE
8
HOLES
10
1464.3676
20
153.5870
30
0.0
11
1464.3676
21
54.9824
31
0.0
0
LINE
8
HOLES
10
1469.3706
20
138.1269
30
0.0
11
1469.3706
21
46.8091
31
0.0
0
LINE
8
HOLES
10
1469.3706
20
138.1269
30
0.0
11
1469.3706
21
46.8091
31
0.0
0
LINE
8
HOLES
10
1474.3736
20
104.1933
30
0.0
11
1474.3736
21
28.1440
31
0.0
0
LINE
8
HOLES
10
1474.3736
20
104.1933
30
0.0
11
1474.3736
21
28.1440
31
0.0
0
ENDSEC
0
EOF
