0
SECTION
2
ENTITIES
0
LINE
8
CUT
10
530.1000
20
0.0000
30
0.0
11
534.9807
21
0.2131
31
0.0
0
LINE
8
CUT
10
534.9807
20
0.2131
30
0.0
11
539.8243
21
0.8508
31
0.0
0
LINE
8
CUT
10
539.8243
20
0.8508
30
0.0
11
544.5939
21
1.9082
31
0.0
0
LINE
8
CUT
10
544.5939
20
1.9082
30
0.0
11
549.2531
21
3.3772
31
0.0
0
LINE
8
CUT
10
549.2531
20
3.3772
30
0.0
11
553.7666
21
5.2468
31
0.0
0
LINE
8
CUT
10
553.7666
20
5.2468
30
0.0
11
558.1000
21
7.5026
31
0.0
0
LINE
8
CUT
10
558.1000
20
7.5026
30
0.0
11
562.2203
21
10.1275
31
0.0
0
LINE
8
CUT
10
562.2203
20
10.1275
30
0.0
11
566.0961
21
13.1015
31
0.0
0
LINE
8
CUT
10
566.0961
20
13.1015
30
0.0
11
569.6980
21
16.4020
31
0.0
0
LINE
8
CUT
10
569.6980
20
16.4020
30
0.0
11
572.9985
21
20.0039
31
0.0
0
LINE
8
CUT
10
572.9985
20
20.0039
30
0.0
11
575.9725
21
23.8797
31
0.0
0
LINE
8
CUT
10
575.9725
20
23.8797
30
0.0
11
578.5974
21
28.0000
31
0.0
0
LINE
8
CUT
10
578.5974
20
28.0000
30
0.0
11
580.8532
21
32.3334
31
0.0
0
LINE
8
CUT
10
580.8532
20
32.3334
30
0.0
11
582.7228
21
36.8469
31
0.0
0
LINE
8
CUT
10
582.7228
20
36.8469
30
0.0
11
584.1918
21
41.5061
31
0.0
0
LINE
8
CUT
10
584.1918
20
41.5061
30
0.0
11
585.2492
21
46.2757
31
0.0
0
LINE
8
CUT
10
585.2492
20
46.2757
30
0.0
11
585.8869
21
51.1193
31
0.0
0
LINE
8
CUT
10
585.8869
20
51.1193
30
0.0
11
586.1000
21
56.0000
31
0.0
0
LINE
8
CUT
10
586.1000
20
56.0000
30
0.0
11
586.1000
21
335.4000
31
0.0
0
LINE
8
CUT
10
586.1000
20
335.4000
30
0.0
11
585.8869
21
340.2807
31
0.0
0
LINE
8
CUT
10
585.8869
20
340.2807
30
0.0
11
585.2492
21
345.1243
31
0.0
0
LINE
8
CUT
10
585.2492
20
345.1243
30
0.0
11
584.1918
21
349.8939
31
0.0
0
LINE
8
CUT
10
584.1918
20
349.8939
30
0.0
11
582.7228
21
354.5531
31
0.0
0
LINE
8
CUT
10
582.7228
20
354.5531
30
0.0
11
580.8532
21
359.0666
31
0.0
0
LINE
8
CUT
10
580.8532
20
359.0666
30
0.0
11
578.5974
21
363.4000
31
0.0
0
LINE
8
CUT
10
578.5974
20
363.4000
30
0.0
11
575.9725
21
367.5203
31
0.0
0
LINE
8
CUT
10
575.9725
20
367.5203
30
0.0
11
572.9985
21
371.3961
31
0.0
0
LINE
8
CUT
10
572.9985
20
371.3961
30
0.0
11
569.6980
21
374.9980
31
0.0
0
LINE
8
CUT
10
569.6980
20
374.9980
30
0.0
11
566.0961
21
378.2985
31
0.0
0
LINE
8
CUT
10
566.0961
20
378.2985
30
0.0
11
562.2203
21
381.2725
31
0.0
0
LINE
8
CUT
10
562.2203
20
381.2725
30
0.0
11
558.1000
21
383.8974
31
0.0
0
LINE
8
CUT
10
558.1000
20
383.8974
30
0.0
11
553.7666
21
386.1532
31
0.0
0
LINE
8
CUT
10
553.7666
20
386.1532
30
0.0
11
549.2531
21
388.0228
31
0.0
0
LINE
8
CUT
10
549.2531
20
388.0228
30
0.0
11
544.5939
21
389.4918
31
0.0
0
LINE
8
CUT
10
544.5939
20
389.4918
30
0.0
11
539.8243
21
390.5492
31
0.0
0
LINE
8
CUT
10
539.8243
20
390.5492
30
0.0
11
534.9807
21
391.1869
31
0.0
0
LINE
8
CUT
10
534.9807
20
391.1869
30
0.0
11
530.1000
21
391.4000
31
0.0
0
LINE
8
CUT
10
530.1000
20
391.4000
30
0.0
11
56.0000
21
391.4000
31
0.0
0
LINE
8
CUT
10
56.0000
20
391.4000
30
0.0
11
51.1193
21
391.1869
31
0.0
0
LINE
8
CUT
10
51.1193
20
391.1869
30
0.0
11
46.2757
21
390.5492
31
0.0
0
LINE
8
CUT
10
46.2757
20
390.5492
30
0.0
11
41.5061
21
389.4918
31
0.0
0
LINE
8
CUT
10
41.5061
20
389.4918
30
0.0
11
36.8469
21
388.0228
31
0.0
0
LINE
8
CUT
10
36.8469
20
388.0228
30
0.0
11
32.3334
21
386.1532
31
0.0
0
LINE
8
CUT
10
32.3334
20
386.1532
30
0.0
11
28.0000
21
383.8974
31
0.0
0
LINE
8
CUT
10
28.0000
20
383.8974
30
0.0
11
23.8797
21
381.2725
31
0.0
0
LINE
8
CUT
10
23.8797
20
381.2725
30
0.0
11
20.0039
21
378.2985
31
0.0
0
LINE
8
CUT
10
20.0039
20
378.2985
30
0.0
11
16.4020
21
374.9980
31
0.0
0
LINE
8
CUT
10
16.4020
20
374.9980
30
0.0
11
13.1015
21
371.3961
31
0.0
0
LINE
8
CUT
10
13.1015
20
371.3961
30
0.0
11
10.1275
21
367.5203
31
0.0
0
LINE
8
CUT
10
10.1275
20
367.5203
30
0.0
11
7.5026
21
363.4000
31
0.0
0
LINE
8
CUT
10
7.5026
20
363.4000
30
0.0
11
5.2468
21
359.0666
31
0.0
0
LINE
8
CUT
10
5.2468
20
359.0666
30
0.0
11
3.3772
21
354.5531
31
0.0
0
LINE
8
CUT
10
3.3772
20
354.5531
30
0.0
11
1.9082
21
349.8939
31
0.0
0
LINE
8
CUT
10
1.9082
20
349.8939
30
0.0
11
0.8508
21
345.1243
31
0.0
0
LINE
8
CUT
10
0.8508
20
345.1243
30
0.0
11
0.2131
21
340.2807
31
0.0
0
LINE
8
CUT
10
0.2131
20
340.2807
30
0.0
11
0.0000
21
335.4000
31
0.0
0
LINE
8
CUT
10
0.0000
20
335.4000
30
0.0
11
0.0000
21
56.0000
31
0.0
0
LINE
8
CUT
10
0.0000
20
56.0000
30
0.0
11
0.2131
21
51.1193
31
0.0
0
LINE
8
CUT
10
0.2131
20
51.1193
30
0.0
11
0.8508
21
46.2757
31
0.0
0
LINE
8
CUT
10
0.8508
20
46.2757
30
0.0
11
1.9082
21
41.5061
31
0.0
0
LINE
8
CUT
10
1.9082
20
41.5061
30
0.0
11
3.3772
21
36.8469
31
0.0
0
LINE
8
CUT
10
3.3772
20
36.8469
30
0.0
11
5.2468
21
32.3334
31
0.0
0
LINE
8
CUT
10
5.2468
20
32.3334
30
0.0
11
7.5026
21
28.0000
31
0.0
0
LINE
8
CUT
10
7.5026
20
28.0000
30
0.0
11
10.1275
21
23.8797
31
0.0
0
LINE
8
CUT
10
10.1275
20
23.8797
30
0.0
11
13.1015
21
20.0039
31
0.0
0
LINE
8
CUT
10
13.1015
20
20.0039
30
0.0
11
16.4020
21
16.4020
31
0.0
0
LINE
8
CUT
10
16.4020
20
16.4020
30
0.0
11
20.0039
21
13.1015
31
0.0
0
LINE
8
CUT
10
20.0039
20
13.1015
30
0.0
11
23.8797
21
10.1275
31
0.0
0
LINE
8
CUT
10
23.8797
20
10.1275
30
0.0
11
28.0000
21
7.5026
31
0.0
0
LINE
8
CUT
10
28.0000
20
7.5026
30
0.0
11
32.3334
21
5.2468
31
0.0
0
LINE
8
CUT
10
32.3334
20
5.2468
30
0.0
11
36.8469
21
3.3772
31
0.0
0
LINE
8
CUT
10
36.8469
20
3.3772
30
0.0
11
41.5061
21
1.9082
31
0.0
0
LINE
8
CUT
10
41.5061
20
1.9082
30
0.0
11
46.2757
21
0.8508
31
0.0
0
LINE
8
CUT
10
46.2757
20
0.8508
30
0.0
11
51.1193
21
0.2131
31
0.0
0
LINE
8
CUT
10
51.1193
20
0.2131
30
0.0
11
56.0000
21
0.0000
31
0.0
0
LINE
8
CUT
10
56.0000
20
0.0000
30
0.0
11
530.1000
21
0.0000
31
0.0
0
LINE
8
CUT
10
530.1000
20
34.0000
30
0.0
11
532.0174
21
34.0837
31
0.0
0
LINE
8
CUT
10
532.0174
20
34.0837
30
0.0
11
533.9203
21
34.3342
31
0.0
0
LINE
8
CUT
10
533.9203
20
34.3342
30
0.0
11
535.7940
21
34.7496
31
0.0
0
LINE
8
CUT
10
535.7940
20
34.7496
30
0.0
11
537.6244
21
35.3268
31
0.0
0
LINE
8
CUT
10
537.6244
20
35.3268
30
0.0
11
539.3976
21
36.0612
31
0.0
0
LINE
8
CUT
10
539.3976
20
36.0612
30
0.0
11
541.1000
21
36.9474
31
0.0
0
LINE
8
CUT
10
541.1000
20
36.9474
30
0.0
11
542.7187
21
37.9787
31
0.0
0
LINE
8
CUT
10
542.7187
20
37.9787
30
0.0
11
544.2413
21
39.1470
31
0.0
0
LINE
8
CUT
10
544.2413
20
39.1470
30
0.0
11
545.6563
21
40.4437
31
0.0
0
LINE
8
CUT
10
545.6563
20
40.4437
30
0.0
11
546.9530
21
41.8587
31
0.0
0
LINE
8
CUT
10
546.9530
20
41.8587
30
0.0
11
548.1213
21
43.3813
31
0.0
0
LINE
8
CUT
10
548.1213
20
43.3813
30
0.0
11
549.1526
21
45.0000
31
0.0
0
LINE
8
CUT
10
549.1526
20
45.0000
30
0.0
11
550.0388
21
46.7024
31
0.0
0
LINE
8
CUT
10
550.0388
20
46.7024
30
0.0
11
550.7732
21
48.4756
31
0.0
0
LINE
8
CUT
10
550.7732
20
48.4756
30
0.0
11
551.3504
21
50.3060
31
0.0
0
LINE
8
CUT
10
551.3504
20
50.3060
30
0.0
11
551.7658
21
52.1797
31
0.0
0
LINE
8
CUT
10
551.7658
20
52.1797
30
0.0
11
552.0163
21
54.0826
31
0.0
0
LINE
8
CUT
10
552.0163
20
54.0826
30
0.0
11
552.1000
21
56.0000
31
0.0
0
LINE
8
CUT
10
552.1000
20
56.0000
30
0.0
11
552.1000
21
335.4000
31
0.0
0
LINE
8
CUT
10
552.1000
20
335.4000
30
0.0
11
552.0163
21
337.3174
31
0.0
0
LINE
8
CUT
10
552.0163
20
337.3174
30
0.0
11
551.7658
21
339.2203
31
0.0
0
LINE
8
CUT
10
551.7658
20
339.2203
30
0.0
11
551.3504
21
341.0940
31
0.0
0
LINE
8
CUT
10
551.3504
20
341.0940
30
0.0
11
550.7732
21
342.9244
31
0.0
0
LINE
8
CUT
10
550.7732
20
342.9244
30
0.0
11
550.0388
21
344.6976
31
0.0
0
LINE
8
CUT
10
550.0388
20
344.6976
30
0.0
11
549.1526
21
346.4000
31
0.0
0
LINE
8
CUT
10
549.1526
20
346.4000
30
0.0
11
548.1213
21
348.0187
31
0.0
0
LINE
8
CUT
10
548.1213
20
348.0187
30
0.0
11
546.9530
21
349.5413
31
0.0
0
LINE
8
CUT
10
546.9530
20
349.5413
30
0.0
11
545.6563
21
350.9563
31
0.0
0
LINE
8
CUT
10
545.6563
20
350.9563
30
0.0
11
544.2413
21
352.2530
31
0.0
0
LINE
8
CUT
10
544.2413
20
352.2530
30
0.0
11
542.7187
21
353.4213
31
0.0
0
LINE
8
CUT
10
542.7187
20
353.4213
30
0.0
11
541.1000
21
354.4526
31
0.0
0
LINE
8
CUT
10
541.1000
20
354.4526
30
0.0
11
539.3976
21
355.3388
31
0.0
0
LINE
8
CUT
10
539.3976
20
355.3388
30
0.0
11
537.6244
21
356.0732
31
0.0
0
LINE
8
CUT
10
537.6244
20
356.0732
30
0.0
11
535.7940
21
356.6504
31
0.0
0
LINE
8
CUT
10
535.7940
20
356.6504
30
0.0
11
533.9203
21
357.0658
31
0.0
0
LINE
8
CUT
10
533.9203
20
357.0658
30
0.0
11
532.0174
21
357.3163
31
0.0
0
LINE
8
CUT
10
532.0174
20
357.3163
30
0.0
11
530.1000
21
357.4000
31
0.0
0
LINE
8
CUT
10
530.1000
20
357.4000
30
0.0
11
56.0000
21
357.4000
31
0.0
0
LINE
8
CUT
10
56.0000
20
357.4000
30
0.0
11
54.0826
21
357.3163
31
0.0
0
LINE
8
CUT
10
54.0826
20
357.3163
30
0.0
11
52.1797
21
357.0658
31
0.0
0
LINE
8
CUT
10
52.1797
20
357.0658
30
0.0
11
50.3060
21
356.6504
31
0.0
0
LINE
8
CUT
10
50.3060
20
356.6504
30
0.0
11
48.4756
21
356.0732
31
0.0
0
LINE
8
CUT
10
48.4756
20
356.0732
30
0.0
11
46.7024
21
355.3388
31
0.0
0
LINE
8
CUT
10
46.7024
20
355.3388
30
0.0
11
45.0000
21
354.4526
31
0.0
0
LINE
8
CUT
10
45.0000
20
354.4526
30
0.0
11
43.3813
21
353.4213
31
0.0
0
LINE
8
CUT
10
43.3813
20
353.4213
30
0.0
11
41.8587
21
352.2530
31
0.0
0
LINE
8
CUT
10
41.8587
20
352.2530
30
0.0
11
40.4437
21
350.9563
31
0.0
0
LINE
8
CUT
10
40.4437
20
350.9563
30
0.0
11
39.1470
21
349.5413
31
0.0
0
LINE
8
CUT
10
39.1470
20
349.5413
30
0.0
11
37.9787
21
348.0187
31
0.0
0
LINE
8
CUT
10
37.9787
20
348.0187
30
0.0
11
36.9474
21
346.4000
31
0.0
0
LINE
8
CUT
10
36.9474
20
346.4000
30
0.0
11
36.0612
21
344.6976
31
0.0
0
LINE
8
CUT
10
36.0612
20
344.6976
30
0.0
11
35.3268
21
342.9244
31
0.0
0
LINE
8
CUT
10
35.3268
20
342.9244
30
0.0
11
34.7496
21
341.0940
31
0.0
0
LINE
8
CUT
10
34.7496
20
341.0940
30
0.0
11
34.3342
21
339.2203
31
0.0
0
LINE
8
CUT
10
34.3342
20
339.2203
30
0.0
11
34.0837
21
337.3174
31
0.0
0
LINE
8
CUT
10
34.0837
20
337.3174
30
0.0
11
34.0000
21
335.4000
31
0.0
0
LINE
8
CUT
10
34.0000
20
335.4000
30
0.0
11
34.0000
21
56.0000
31
0.0
0
LINE
8
CUT
10
34.0000
20
56.0000
30
0.0
11
34.0837
21
54.0826
31
0.0
0
LINE
8
CUT
10
34.0837
20
54.0826
30
0.0
11
34.3342
21
52.1797
31
0.0
0
LINE
8
CUT
10
34.3342
20
52.1797
30
0.0
11
34.7496
21
50.3060
31
0.0
0
LINE
8
CUT
10
34.7496
20
50.3060
30
0.0
11
35.3268
21
48.4756
31
0.0
0
LINE
8
CUT
10
35.3268
20
48.4756
30
0.0
11
36.0612
21
46.7024
31
0.0
0
LINE
8
CUT
10
36.0612
20
46.7024
30
0.0
11
36.9474
21
45.0000
31
0.0
0
LINE
8
CUT
10
36.9474
20
45.0000
30
0.0
11
37.9787
21
43.3813
31
0.0
0
LINE
8
CUT
10
37.9787
20
43.3813
30
0.0
11
39.1470
21
41.8587
31
0.0
0
LINE
8
CUT
10
39.1470
20
41.8587
30
0.0
11
40.4437
21
40.4437
31
0.0
0
LINE
8
CUT
10
40.4437
20
40.4437
30
0.0
11
41.8587
21
39.1470
31
0.0
0
LINE
8
CUT
10
41.8587
20
39.1470
30
0.0
11
43.3813
21
37.9787
31
0.0
0
LINE
8
CUT
10
43.3813
20
37.9787
30
0.0
11
45.0000
21
36.9474
31
0.0
0
LINE
8
CUT
10
45.0000
20
36.9474
30
0.0
11
46.7024
21
36.0612
31
0.0
0
LINE
8
CUT
10
46.7024
20
36.0612
30
0.0
11
48.4756
21
35.3268
31
0.0
0
LINE
8
CUT
10
48.4756
20
35.3268
30
0.0
11
50.3060
21
34.7496
31
0.0
0
LINE
8
CUT
10
50.3060
20
34.7496
30
0.0
11
52.1797
21
34.3342
31
0.0
0
LINE
8
CUT
10
52.1797
20
34.3342
30
0.0
11
54.0826
21
34.0837
31
0.0
0
LINE
8
CUT
10
54.0826
20
34.0837
30
0.0
11
56.0000
21
34.0000
31
0.0
0
LINE
8
CUT
10
56.0000
20
34.0000
30
0.0
11
530.1000
21
34.0000
31
0.0
0
LINE
8
CHANNEL
10
530.1000
20
26.0000
30
0.0
11
532.7147
21
26.1142
31
0.0
0
LINE
8
CHANNEL
10
532.7147
20
26.1142
30
0.0
11
535.3094
21
26.4558
31
0.0
0
LINE
8
CHANNEL
10
535.3094
20
26.4558
30
0.0
11
537.8646
21
27.0222
31
0.0
0
LINE
8
CHANNEL
10
537.8646
20
27.0222
30
0.0
11
540.3606
21
27.8092
31
0.0
0
LINE
8
CHANNEL
10
540.3606
20
27.8092
30
0.0
11
542.7785
21
28.8108
31
0.0
0
LINE
8
CHANNEL
10
542.7785
20
28.8108
30
0.0
11
545.1000
21
30.0192
31
0.0
0
LINE
8
CHANNEL
10
545.1000
20
30.0192
30
0.0
11
547.3073
21
31.4254
31
0.0
0
LINE
8
CHANNEL
10
547.3073
20
31.4254
30
0.0
11
549.3836
21
33.0187
31
0.0
0
LINE
8
CHANNEL
10
549.3836
20
33.0187
30
0.0
11
551.3132
21
34.7868
31
0.0
0
LINE
8
CHANNEL
10
551.3132
20
34.7868
30
0.0
11
553.0813
21
36.7164
31
0.0
0
LINE
8
CHANNEL
10
553.0813
20
36.7164
30
0.0
11
554.6746
21
38.7927
31
0.0
0
LINE
8
CHANNEL
10
554.6746
20
38.7927
30
0.0
11
556.0808
21
41.0000
31
0.0
0
LINE
8
CHANNEL
10
556.0808
20
41.0000
30
0.0
11
557.2892
21
43.3215
31
0.0
0
LINE
8
CHANNEL
10
557.2892
20
43.3215
30
0.0
11
558.2908
21
45.7394
31
0.0
0
LINE
8
CHANNEL
10
558.2908
20
45.7394
30
0.0
11
559.0778
21
48.2354
31
0.0
0
LINE
8
CHANNEL
10
559.0778
20
48.2354
30
0.0
11
559.6442
21
50.7906
31
0.0
0
LINE
8
CHANNEL
10
559.6442
20
50.7906
30
0.0
11
559.9858
21
53.3853
31
0.0
0
LINE
8
CHANNEL
10
559.9858
20
53.3853
30
0.0
11
560.1000
21
56.0000
31
0.0
0
LINE
8
CHANNEL
10
560.1000
20
56.0000
30
0.0
11
560.1000
21
335.4000
31
0.0
0
LINE
8
CHANNEL
10
560.1000
20
335.4000
30
0.0
11
559.9858
21
338.0147
31
0.0
0
LINE
8
CHANNEL
10
559.9858
20
338.0147
30
0.0
11
559.6442
21
340.6094
31
0.0
0
LINE
8
CHANNEL
10
559.6442
20
340.6094
30
0.0
11
559.0778
21
343.1646
31
0.0
0
LINE
8
CHANNEL
10
559.0778
20
343.1646
30
0.0
11
558.2908
21
345.6606
31
0.0
0
LINE
8
CHANNEL
10
558.2908
20
345.6606
30
0.0
11
557.2892
21
348.0785
31
0.0
0
LINE
8
CHANNEL
10
557.2892
20
348.0785
30
0.0
11
556.0808
21
350.4000
31
0.0
0
LINE
8
CHANNEL
10
556.0808
20
350.4000
30
0.0
11
554.6746
21
352.6073
31
0.0
0
LINE
8
CHANNEL
10
554.6746
20
352.6073
30
0.0
11
553.0813
21
354.6836
31
0.0
0
LINE
8
CHANNEL
10
553.0813
20
354.6836
30
0.0
11
551.3132
21
356.6132
31
0.0
0
LINE
8
CHANNEL
10
551.3132
20
356.6132
30
0.0
11
549.3836
21
358.3813
31
0.0
0
LINE
8
CHANNEL
10
549.3836
20
358.3813
30
0.0
11
547.3073
21
359.9746
31
0.0
0
LINE
8
CHANNEL
10
547.3073
20
359.9746
30
0.0
11
545.1000
21
361.3808
31
0.0
0
LINE
8
CHANNEL
10
545.1000
20
361.3808
30
0.0
11
542.7785
21
362.5892
31
0.0
0
LINE
8
CHANNEL
10
542.7785
20
362.5892
30
0.0
11
540.3606
21
363.5908
31
0.0
0
LINE
8
CHANNEL
10
540.3606
20
363.5908
30
0.0
11
537.8646
21
364.3778
31
0.0
0
LINE
8
CHANNEL
10
537.8646
20
364.3778
30
0.0
11
535.3094
21
364.9442
31
0.0
0
LINE
8
CHANNEL
10
535.3094
20
364.9442
30
0.0
11
532.7147
21
365.2858
31
0.0
0
LINE
8
CHANNEL
10
532.7147
20
365.2858
30
0.0
11
530.1000
21
365.4000
31
0.0
0
LINE
8
CHANNEL
10
530.1000
20
365.4000
30
0.0
11
56.0000
21
365.4000
31
0.0
0
LINE
8
CHANNEL
10
56.0000
20
365.4000
30
0.0
11
53.3853
21
365.2858
31
0.0
0
LINE
8
CHANNEL
10
53.3853
20
365.2858
30
0.0
11
50.7906
21
364.9442
31
0.0
0
LINE
8
CHANNEL
10
50.7906
20
364.9442
30
0.0
11
48.2354
21
364.3778
31
0.0
0
LINE
8
CHANNEL
10
48.2354
20
364.3778
30
0.0
11
45.7394
21
363.5908
31
0.0
0
LINE
8
CHANNEL
10
45.7394
20
363.5908
30
0.0
11
43.3215
21
362.5892
31
0.0
0
LINE
8
CHANNEL
10
43.3215
20
362.5892
30
0.0
11
41.0000
21
361.3808
31
0.0
0
LINE
8
CHANNEL
10
41.0000
20
361.3808
30
0.0
11
38.7927
21
359.9746
31
0.0
0
LINE
8
CHANNEL
10
38.7927
20
359.9746
30
0.0
11
36.7164
21
358.3813
31
0.0
0
LINE
8
CHANNEL
10
36.7164
20
358.3813
30
0.0
11
34.7868
21
356.6132
31
0.0
0
LINE
8
CHANNEL
10
34.7868
20
356.6132
30
0.0
11
33.0187
21
354.6836
31
0.0
0
LINE
8
CHANNEL
10
33.0187
20
354.6836
30
0.0
11
31.4254
21
352.6073
31
0.0
0
LINE
8
CHANNEL
10
31.4254
20
352.6073
30
0.0
11
30.0192
21
350.4000
31
0.0
0
LINE
8
CHANNEL
10
30.0192
20
350.4000
30
0.0
11
28.8108
21
348.0785
31
0.0
0
LINE
8
CHANNEL
10
28.8108
20
348.0785
30
0.0
11
27.8092
21
345.6606
31
0.0
0
LINE
8
CHANNEL
10
27.8092
20
345.6606
30
0.0
11
27.0222
21
343.1646
31
0.0
0
LINE
8
CHANNEL
10
27.0222
20
343.1646
30
0.0
11
26.4558
21
340.6094
31
0.0
0
LINE
8
CHANNEL
10
26.4558
20
340.6094
30
0.0
11
26.1142
21
338.0147
31
0.0
0
LINE
8
CHANNEL
10
26.1142
20
338.0147
30
0.0
11
26.0000
21
335.4000
31
0.0
0
LINE
8
CHANNEL
10
26.0000
20
335.4000
30
0.0
11
26.0000
21
56.0000
31
0.0
0
LINE
8
CHANNEL
10
26.0000
20
56.0000
30
0.0
11
26.1142
21
53.3853
31
0.0
0
LINE
8
CHANNEL
10
26.1142
20
53.3853
30
0.0
11
26.4558
21
50.7906
31
0.0
0
LINE
8
CHANNEL
10
26.4558
20
50.7906
30
0.0
11
27.0222
21
48.2354
31
0.0
0
LINE
8
CHANNEL
10
27.0222
20
48.2354
30
0.0
11
27.8092
21
45.7394
31
0.0
0
LINE
8
CHANNEL
10
27.8092
20
45.7394
30
0.0
11
28.8108
21
43.3215
31
0.0
0
LINE
8
CHANNEL
10
28.8108
20
43.3215
30
0.0
11
30.0192
21
41.0000
31
0.0
0
LINE
8
CHANNEL
10
30.0192
20
41.0000
30
0.0
11
31.4254
21
38.7927
31
0.0
0
LINE
8
CHANNEL
10
31.4254
20
38.7927
30
0.0
11
33.0187
21
36.7164
31
0.0
0
LINE
8
CHANNEL
10
33.0187
20
36.7164
30
0.0
11
34.7868
21
34.7868
31
0.0
0
LINE
8
CHANNEL
10
34.7868
20
34.7868
30
0.0
11
36.7164
21
33.0187
31
0.0
0
LINE
8
CHANNEL
10
36.7164
20
33.0187
30
0.0
11
38.7927
21
31.4254
31
0.0
0
LINE
8
CHANNEL
10
38.7927
20
31.4254
30
0.0
11
41.0000
21
30.0192
31
0.0
0
LINE
8
CHANNEL
10
41.0000
20
30.0192
30
0.0
11
43.3215
21
28.8108
31
0.0
0
LINE
8
CHANNEL
10
43.3215
20
28.8108
30
0.0
11
45.7394
21
27.8092
31
0.0
0
LINE
8
CHANNEL
10
45.7394
20
27.8092
30
0.0
11
48.2354
21
27.0222
31
0.0
0
LINE
8
CHANNEL
10
48.2354
20
27.0222
30
0.0
11
50.7906
21
26.4558
31
0.0
0
LINE
8
CHANNEL
10
50.7906
20
26.4558
30
0.0
11
53.3853
21
26.1142
31
0.0
0
LINE
8
CHANNEL
10
53.3853
20
26.1142
30
0.0
11
56.0000
21
26.0000
31
0.0
0
LINE
8
CHANNEL
10
56.0000
20
26.0000
30
0.0
11
530.1000
21
26.0000
31
0.0
0
LINE
8
CHANNEL
10
530.1000
20
22.0000
30
0.0
11
533.0633
21
22.1294
31
0.0
0
LINE
8
CHANNEL
10
533.0633
20
22.1294
30
0.0
11
536.0040
21
22.5165
31
0.0
0
LINE
8
CHANNEL
10
536.0040
20
22.5165
30
0.0
11
538.8998
21
23.1585
31
0.0
0
LINE
8
CHANNEL
10
538.8998
20
23.1585
30
0.0
11
541.7287
21
24.0505
31
0.0
0
LINE
8
CHANNEL
10
541.7287
20
24.0505
30
0.0
11
544.4690
21
25.1855
31
0.0
0
LINE
8
CHANNEL
10
544.4690
20
25.1855
30
0.0
11
547.1000
21
26.5551
31
0.0
0
LINE
8
CHANNEL
10
547.1000
20
26.5551
30
0.0
11
549.6016
21
28.1488
31
0.0
0
LINE
8
CHANNEL
10
549.6016
20
28.1488
30
0.0
11
551.9548
21
29.9545
31
0.0
0
LINE
8
CHANNEL
10
551.9548
20
29.9545
30
0.0
11
554.1416
21
31.9584
31
0.0
0
LINE
8
CHANNEL
10
554.1416
20
31.9584
30
0.0
11
556.1455
21
34.1452
31
0.0
0
LINE
8
CHANNEL
10
556.1455
20
34.1452
30
0.0
11
557.9512
21
36.4984
31
0.0
0
LINE
8
CHANNEL
10
557.9512
20
36.4984
30
0.0
11
559.5449
21
39.0000
31
0.0
0
LINE
8
CHANNEL
10
559.5449
20
39.0000
30
0.0
11
560.9145
21
41.6310
31
0.0
0
LINE
8
CHANNEL
10
560.9145
20
41.6310
30
0.0
11
562.0495
21
44.3713
31
0.0
0
LINE
8
CHANNEL
10
562.0495
20
44.3713
30
0.0
11
562.9415
21
47.2002
31
0.0
0
LINE
8
CHANNEL
10
562.9415
20
47.2002
30
0.0
11
563.5835
21
50.0960
31
0.0
0
LINE
8
CHANNEL
10
563.5835
20
50.0960
30
0.0
11
563.9706
21
53.0367
31
0.0
0
LINE
8
CHANNEL
10
563.9706
20
53.0367
30
0.0
11
564.1000
21
56.0000
31
0.0
0
LINE
8
CHANNEL
10
564.1000
20
56.0000
30
0.0
11
564.1000
21
335.4000
31
0.0
0
LINE
8
CHANNEL
10
564.1000
20
335.4000
30
0.0
11
563.9706
21
338.3633
31
0.0
0
LINE
8
CHANNEL
10
563.9706
20
338.3633
30
0.0
11
563.5835
21
341.3040
31
0.0
0
LINE
8
CHANNEL
10
563.5835
20
341.3040
30
0.0
11
562.9415
21
344.1998
31
0.0
0
LINE
8
CHANNEL
10
562.9415
20
344.1998
30
0.0
11
562.0495
21
347.0287
31
0.0
0
LINE
8
CHANNEL
10
562.0495
20
347.0287
30
0.0
11
560.9145
21
349.7690
31
0.0
0
LINE
8
CHANNEL
10
560.9145
20
349.7690
30
0.0
11
559.5449
21
352.4000
31
0.0
0
LINE
8
CHANNEL
10
559.5449
20
352.4000
30
0.0
11
557.9512
21
354.9016
31
0.0
0
LINE
8
CHANNEL
10
557.9512
20
354.9016
30
0.0
11
556.1455
21
357.2548
31
0.0
0
LINE
8
CHANNEL
10
556.1455
20
357.2548
30
0.0
11
554.1416
21
359.4416
31
0.0
0
LINE
8
CHANNEL
10
554.1416
20
359.4416
30
0.0
11
551.9548
21
361.4455
31
0.0
0
LINE
8
CHANNEL
10
551.9548
20
361.4455
30
0.0
11
549.6016
21
363.2512
31
0.0
0
LINE
8
CHANNEL
10
549.6016
20
363.2512
30
0.0
11
547.1000
21
364.8449
31
0.0
0
LINE
8
CHANNEL
10
547.1000
20
364.8449
30
0.0
11
544.4690
21
366.2145
31
0.0
0
LINE
8
CHANNEL
10
544.4690
20
366.2145
30
0.0
11
541.7287
21
367.3495
31
0.0
0
LINE
8
CHANNEL
10
541.7287
20
367.3495
30
0.0
11
538.8998
21
368.2415
31
0.0
0
LINE
8
CHANNEL
10
538.8998
20
368.2415
30
0.0
11
536.0040
21
368.8835
31
0.0
0
LINE
8
CHANNEL
10
536.0040
20
368.8835
30
0.0
11
533.0633
21
369.2706
31
0.0
0
LINE
8
CHANNEL
10
533.0633
20
369.2706
30
0.0
11
530.1000
21
369.4000
31
0.0
0
LINE
8
CHANNEL
10
530.1000
20
369.4000
30
0.0
11
56.0000
21
369.4000
31
0.0
0
LINE
8
CHANNEL
10
56.0000
20
369.4000
30
0.0
11
53.0367
21
369.2706
31
0.0
0
LINE
8
CHANNEL
10
53.0367
20
369.2706
30
0.0
11
50.0960
21
368.8835
31
0.0
0
LINE
8
CHANNEL
10
50.0960
20
368.8835
30
0.0
11
47.2002
21
368.2415
31
0.0
0
LINE
8
CHANNEL
10
47.2002
20
368.2415
30
0.0
11
44.3713
21
367.3495
31
0.0
0
LINE
8
CHANNEL
10
44.3713
20
367.3495
30
0.0
11
41.6310
21
366.2145
31
0.0
0
LINE
8
CHANNEL
10
41.6310
20
366.2145
30
0.0
11
39.0000
21
364.8449
31
0.0
0
LINE
8
CHANNEL
10
39.0000
20
364.8449
30
0.0
11
36.4984
21
363.2512
31
0.0
0
LINE
8
CHANNEL
10
36.4984
20
363.2512
30
0.0
11
34.1452
21
361.4455
31
0.0
0
LINE
8
CHANNEL
10
34.1452
20
361.4455
30
0.0
11
31.9584
21
359.4416
31
0.0
0
LINE
8
CHANNEL
10
31.9584
20
359.4416
30
0.0
11
29.9545
21
357.2548
31
0.0
0
LINE
8
CHANNEL
10
29.9545
20
357.2548
30
0.0
11
28.1488
21
354.9016
31
0.0
0
LINE
8
CHANNEL
10
28.1488
20
354.9016
30
0.0
11
26.5551
21
352.4000
31
0.0
0
LINE
8
CHANNEL
10
26.5551
20
352.4000
30
0.0
11
25.1855
21
349.7690
31
0.0
0
LINE
8
CHANNEL
10
25.1855
20
349.7690
30
0.0
11
24.0505
21
347.0287
31
0.0
0
LINE
8
CHANNEL
10
24.0505
20
347.0287
30
0.0
11
23.1585
21
344.1998
31
0.0
0
LINE
8
CHANNEL
10
23.1585
20
344.1998
30
0.0
11
22.5165
21
341.3040
31
0.0
0
LINE
8
CHANNEL
10
22.5165
20
341.3040
30
0.0
11
22.1294
21
338.3633
31
0.0
0
LINE
8
CHANNEL
10
22.1294
20
338.3633
30
0.0
11
22.0000
21
335.4000
31
0.0
0
LINE
8
CHANNEL
10
22.0000
20
335.4000
30
0.0
11
22.0000
21
56.0000
31
0.0
0
LINE
8
CHANNEL
10
22.0000
20
56.0000
30
0.0
11
22.1294
21
53.0367
31
0.0
0
LINE
8
CHANNEL
10
22.1294
20
53.0367
30
0.0
11
22.5165
21
50.0960
31
0.0
0
LINE
8
CHANNEL
10
22.5165
20
50.0960
30
0.0
11
23.1585
21
47.2002
31
0.0
0
LINE
8
CHANNEL
10
23.1585
20
47.2002
30
0.0
11
24.0505
21
44.3713
31
0.0
0
LINE
8
CHANNEL
10
24.0505
20
44.3713
30
0.0
11
25.1855
21
41.6310
31
0.0
0
LINE
8
CHANNEL
10
25.1855
20
41.6310
30
0.0
11
26.5551
21
39.0000
31
0.0
0
LINE
8
CHANNEL
10
26.5551
20
39.0000
30
0.0
11
28.1488
21
36.4984
31
0.0
0
LINE
8
CHANNEL
10
28.1488
20
36.4984
30
0.0
11
29.9545
21
34.1452
31
0.0
0
LINE
8
CHANNEL
10
29.9545
20
34.1452
30
0.0
11
31.9584
21
31.9584
31
0.0
0
LINE
8
CHANNEL
10
31.9584
20
31.9584
30
0.0
11
34.1452
21
29.9545
31
0.0
0
LINE
8
CHANNEL
10
34.1452
20
29.9545
30
0.0
11
36.4984
21
28.1488
31
0.0
0
LINE
8
CHANNEL
10
36.4984
20
28.1488
30
0.0
11
39.0000
21
26.5551
31
0.0
0
LINE
8
CHANNEL
10
39.0000
20
26.5551
30
0.0
11
41.6310
21
25.1855
31
0.0
0
LINE
8
CHANNEL
10
41.6310
20
25.1855
30
0.0
11
44.3713
21
24.0505
31
0.0
0
LINE
8
CHANNEL
10
44.3713
20
24.0505
30
0.0
11
47.2002
21
23.1585
31
0.0
0
LINE
8
CHANNEL
10
47.2002
20
23.1585
30
0.0
11
50.0960
21
22.5165
31
0.0
0
LINE
8
CHANNEL
10
50.0960
20
22.5165
30
0.0
11
53.0367
21
22.1294
31
0.0
0
LINE
8
CHANNEL
10
53.0367
20
22.1294
30
0.0
11
56.0000
21
22.0000
31
0.0
0
LINE
8
CHANNEL
10
56.0000
20
22.0000
30
0.0
11
530.1000
21
22.0000
31
0.0
0
CIRCLE
8
HOLES
10
530.1000
20
12.0000
30
0.0
40
3.2000
0
CIRCLE
8
HOLES
10
574.1000
20
135.5251
30
0.0
40
3.2000
0
CIRCLE
8
HOLES
10
574.1000
20
284.1376
30
0.0
40
3.2000
0
CIRCLE
8
HOLES
10
501.8373
20
379.4000
30
0.0
40
3.2000
0
CIRCLE
8
HOLES
10
353.2249
20
379.4000
30
0.0
40
3.2000
0
CIRCLE
8
HOLES
10
204.6124
20
379.4000
30
0.0
40
3.2000
0
CIRCLE
8
HOLES
10
56.0000
20
379.4000
30
0.0
40
3.2000
0
CIRCLE
8
HOLES
10
12.0000
20
255.8749
30
0.0
40
3.2000
0
CIRCLE
8
HOLES
10
12.0000
20
107.2624
30
0.0
40
3.2000
0
CIRCLE
8
HOLES
10
84.2627
20
12.0000
30
0.0
40
3.2000
0
CIRCLE
8
HOLES
10
232.8751
20
12.0000
30
0.0
40
3.2000
0
CIRCLE
8
HOLES
10
381.4876
20
12.0000
30
0.0
40
3.2000
0
ENDSEC
0
EOF
