0
SECTION
2
ENTITIES
0
LINE
8
CUT
10
536.7000
20
0.0000
30
0.0
11
541.5807
21
0.2131
31
0.0
0
LINE
8
CUT
10
541.5807
20
0.2131
30
0.0
11
546.4243
21
0.8508
31
0.0
0
LINE
8
CUT
10
546.4243
20
0.8508
30
0.0
11
551.1939
21
1.9082
31
0.0
0
LINE
8
CUT
10
551.1939
20
1.9082
30
0.0
11
555.8531
21
3.3772
31
0.0
0
LINE
8
CUT
10
555.8531
20
3.3772
30
0.0
11
560.3666
21
5.2468
31
0.0
0
LINE
8
CUT
10
560.3666
20
5.2468
30
0.0
11
564.7000
21
7.5026
31
0.0
0
LINE
8
CUT
10
564.7000
20
7.5026
30
0.0
11
568.8203
21
10.1275
31
0.0
0
LINE
8
CUT
10
568.8203
20
10.1275
30
0.0
11
572.6961
21
13.1015
31
0.0
0
LINE
8
CUT
10
572.6961
20
13.1015
30
0.0
11
576.2980
21
16.4020
31
0.0
0
LINE
8
CUT
10
576.2980
20
16.4020
30
0.0
11
579.5985
21
20.0039
31
0.0
0
LINE
8
CUT
10
579.5985
20
20.0039
30
0.0
11
582.5725
21
23.8797
31
0.0
0
LINE
8
CUT
10
582.5725
20
23.8797
30
0.0
11
585.1974
21
28.0000
31
0.0
0
LINE
8
CUT
10
585.1974
20
28.0000
30
0.0
11
587.4532
21
32.3334
31
0.0
0
LINE
8
CUT
10
587.4532
20
32.3334
30
0.0
11
589.3228
21
36.8469
31
0.0
0
LINE
8
CUT
10
589.3228
20
36.8469
30
0.0
11
590.7918
21
41.5061
31
0.0
0
LINE
8
CUT
10
590.7918
20
41.5061
30
0.0
11
591.8492
21
46.2757
31
0.0
0
LINE
8
CUT
10
591.8492
20
46.2757
30
0.0
11
592.4869
21
51.1193
31
0.0
0
LINE
8
CUT
10
592.4869
20
51.1193
30
0.0
11
592.7000
21
56.0000
31
0.0
0
LINE
8
CUT
10
592.7000
20
56.0000
30
0.0
11
592.7000
21
331.4000
31
0.0
0
LINE
8
CUT
10
592.7000
20
331.4000
30
0.0
11
592.4869
21
336.2807
31
0.0
0
LINE
8
CUT
10
592.4869
20
336.2807
30
0.0
11
591.8492
21
341.1243
31
0.0
0
LINE
8
CUT
10
591.8492
20
341.1243
30
0.0
11
590.7918
21
345.8939
31
0.0
0
LINE
8
CUT
10
590.7918
20
345.8939
30
0.0
11
589.3228
21
350.5531
31
0.0
0
LINE
8
CUT
10
589.3228
20
350.5531
30
0.0
11
587.4532
21
355.0666
31
0.0
0
LINE
8
CUT
10
587.4532
20
355.0666
30
0.0
11
585.1974
21
359.4000
31
0.0
0
LINE
8
CUT
10
585.1974
20
359.4000
30
0.0
11
582.5725
21
363.5203
31
0.0
0
LINE
8
CUT
10
582.5725
20
363.5203
30
0.0
11
579.5985
21
367.3961
31
0.0
0
LINE
8
CUT
10
579.5985
20
367.3961
30
0.0
11
576.2980
21
370.9980
31
0.0
0
LINE
8
CUT
10
576.2980
20
370.9980
30
0.0
11
572.6961
21
374.2985
31
0.0
0
LINE
8
CUT
10
572.6961
20
374.2985
30
0.0
11
568.8203
21
377.2725
31
0.0
0
LINE
8
CUT
10
568.8203
20
377.2725
30
0.0
11
564.7000
21
379.8974
31
0.0
0
LINE
8
CUT
10
564.7000
20
379.8974
30
0.0
11
560.3666
21
382.1532
31
0.0
0
LINE
8
CUT
10
560.3666
20
382.1532
30
0.0
11
555.8531
21
384.0228
31
0.0
0
LINE
8
CUT
10
555.8531
20
384.0228
30
0.0
11
551.1939
21
385.4918
31
0.0
0
LINE
8
CUT
10
551.1939
20
385.4918
30
0.0
11
546.4243
21
386.5492
31
0.0
0
LINE
8
CUT
10
546.4243
20
386.5492
30
0.0
11
541.5807
21
387.1869
31
0.0
0
LINE
8
CUT
10
541.5807
20
387.1869
30
0.0
11
536.7000
21
387.4000
31
0.0
0
LINE
8
CUT
10
536.7000
20
387.4000
30
0.0
11
56.0000
21
387.4000
31
0.0
0
LINE
8
CUT
10
56.0000
20
387.4000
30
0.0
11
51.1193
21
387.1869
31
0.0
0
LINE
8
CUT
10
51.1193
20
387.1869
30
0.0
11
46.2757
21
386.5492
31
0.0
0
LINE
8
CUT
10
46.2757
20
386.5492
30
0.0
11
41.5061
21
385.4918
31
0.0
0
LINE
8
CUT
10
41.5061
20
385.4918
30
0.0
11
36.8469
21
384.0228
31
0.0
0
LINE
8
CUT
10
36.8469
20
384.0228
30
0.0
11
32.3334
21
382.1532
31
0.0
0
LINE
8
CUT
10
32.3334
20
382.1532
30
0.0
11
28.0000
21
379.8974
31
0.0
0
LINE
8
CUT
10
28.0000
20
379.8974
30
0.0
11
23.8797
21
377.2725
31
0.0
0
LINE
8
CUT
10
23.8797
20
377.2725
30
0.0
11
20.0039
21
374.2985
31
0.0
0
LINE
8
CUT
10
20.0039
20
374.2985
30
0.0
11
16.4020
21
370.9980
31
0.0
0
LINE
8
CUT
10
16.4020
20
370.9980
30
0.0
11
13.1015
21
367.3961
31
0.0
0
LINE
8
CUT
10
13.1015
20
367.3961
30
0.0
11
10.1275
21
363.5203
31
0.0
0
LINE
8
CUT
10
10.1275
20
363.5203
30
0.0
11
7.5026
21
359.4000
31
0.0
0
LINE
8
CUT
10
7.5026
20
359.4000
30
0.0
11
5.2468
21
355.0666
31
0.0
0
LINE
8
CUT
10
5.2468
20
355.0666
30
0.0
11
3.3772
21
350.5531
31
0.0
0
LINE
8
CUT
10
3.3772
20
350.5531
30
0.0
11
1.9082
21
345.8939
31
0.0
0
LINE
8
CUT
10
1.9082
20
345.8939
30
0.0
11
0.8508
21
341.1243
31
0.0
0
LINE
8
CUT
10
0.8508
20
341.1243
30
0.0
11
0.2131
21
336.2807
31
0.0
0
LINE
8
CUT
10
0.2131
20
336.2807
30
0.0
11
0.0000
21
331.4000
31
0.0
0
LINE
8
CUT
10
0.0000
20
331.4000
30
0.0
11
0.0000
21
56.0000
31
0.0
0
LINE
8
CUT
10
0.0000
20
56.0000
30
0.0
11
0.2131
21
51.1193
31
0.0
0
LINE
8
CUT
10
0.2131
20
51.1193
30
0.0
11
0.8508
21
46.2757
31
0.0
0
LINE
8
CUT
10
0.8508
20
46.2757
30
0.0
11
1.9082
21
41.5061
31
0.0
0
LINE
8
CUT
10
1.9082
20
41.5061
30
0.0
11
3.3772
21
36.8469
31
0.0
0
LINE
8
CUT
10
3.3772
20
36.8469
30
0.0
11
5.2468
21
32.3334
31
0.0
0
LINE
8
CUT
10
5.2468
20
32.3334
30
0.0
11
7.5026
21
28.0000
31
0.0
0
LINE
8
CUT
10
7.5026
20
28.0000
30
0.0
11
10.1275
21
23.8797
31
0.0
0
LINE
8
CUT
10
10.1275
20
23.8797
30
0.0
11
13.1015
21
20.0039
31
0.0
0
LINE
8
CUT
10
13.1015
20
20.0039
30
0.0
11
16.4020
21
16.4020
31
0.0
0
LINE
8
CUT
10
16.4020
20
16.4020
30
0.0
11
20.0039
21
13.1015
31
0.0
0
LINE
8
CUT
10
20.0039
20
13.1015
30
0.0
11
23.8797
21
10.1275
31
0.0
0
LINE
8
CUT
10
23.8797
20
10.1275
30
0.0
11
28.0000
21
7.5026
31
0.0
0
LINE
8
CUT
10
28.0000
20
7.5026
30
0.0
11
32.3334
21
5.2468
31
0.0
0
LINE
8
CUT
10
32.3334
20
5.2468
30
0.0
11
36.8469
21
3.3772
31
0.0
0
LINE
8
CUT
10
36.8469
20
3.3772
30
0.0
11
41.5061
21
1.9082
31
0.0
0
LINE
8
CUT
10
41.5061
20
1.9082
30
0.0
11
46.2757
21
0.8508
31
0.0
0
LINE
8
CUT
10
46.2757
20
0.8508
30
0.0
11
51.1193
21
0.2131
31
0.0
0
LINE
8
CUT
10
51.1193
20
0.2131
30
0.0
11
56.0000
21
0.0000
31
0.0
0
LINE
8
CUT
10
56.0000
20
0.0000
30
0.0
11
536.7000
21
0.0000
31
0.0
0
LINE
8
CUT
10
536.7000
20
34.0000
30
0.0
11
538.6174
21
34.0837
31
0.0
0
LINE
8
CUT
10
538.6174
20
34.0837
30
0.0
11
540.5203
21
34.3342
31
0.0
0
LINE
8
CUT
10
540.5203
20
34.3342
30
0.0
11
542.3940
21
34.7496
31
0.0
0
LINE
8
CUT
10
542.3940
20
34.7496
30
0.0
11
544.2244
21
35.3268
31
0.0
0
LINE
8
CUT
10
544.2244
20
35.3268
30
0.0
11
545.9976
21
36.0612
31
0.0
0
LINE
8
CUT
10
545.9976
20
36.0612
30
0.0
11
547.7000
21
36.9474
31
0.0
0
LINE
8
CUT
10
547.7000
20
36.9474
30
0.0
11
549.3187
21
37.9787
31
0.0
0
LINE
8
CUT
10
549.3187
20
37.9787
30
0.0
11
550.8413
21
39.1470
31
0.0
0
LINE
8
CUT
10
550.8413
20
39.1470
30
0.0
11
552.2563
21
40.4437
31
0.0
0
LINE
8
CUT
10
552.2563
20
40.4437
30
0.0
11
553.5530
21
41.8587
31
0.0
0
LINE
8
CUT
10
553.5530
20
41.8587
30
0.0
11
554.7213
21
43.3813
31
0.0
0
LINE
8
CUT
10
554.7213
20
43.3813
30
0.0
11
555.7526
21
45.0000
31
0.0
0
LINE
8
CUT
10
555.7526
20
45.0000
30
0.0
11
556.6388
21
46.7024
31
0.0
0
LINE
8
CUT
10
556.6388
20
46.7024
30
0.0
11
557.3732
21
48.4756
31
0.0
0
LINE
8
CUT
10
557.3732
20
48.4756
30
0.0
11
557.9504
21
50.3060
31
0.0
0
LINE
8
CUT
10
557.9504
20
50.3060
30
0.0
11
558.3658
21
52.1797
31
0.0
0
LINE
8
CUT
10
558.3658
20
52.1797
30
0.0
11
558.6163
21
54.0826
31
0.0
0
LINE
8
CUT
10
558.6163
20
54.0826
30
0.0
11
558.7000
21
56.0000
31
0.0
0
LINE
8
CUT
10
558.7000
20
56.0000
30
0.0
11
558.7000
21
331.4000
31
0.0
0
LINE
8
CUT
10
558.7000
20
331.4000
30
0.0
11
558.6163
21
333.3174
31
0.0
0
LINE
8
CUT
10
558.6163
20
333.3174
30
0.0
11
558.3658
21
335.2203
31
0.0
0
LINE
8
CUT
10
558.3658
20
335.2203
30
0.0
11
557.9504
21
337.0940
31
0.0
0
LINE
8
CUT
10
557.9504
20
337.0940
30
0.0
11
557.3732
21
338.9244
31
0.0
0
LINE
8
CUT
10
557.3732
20
338.9244
30
0.0
11
556.6388
21
340.6976
31
0.0
0
LINE
8
CUT
10
556.6388
20
340.6976
30
0.0
11
555.7526
21
342.4000
31
0.0
0
LINE
8
CUT
10
555.7526
20
342.4000
30
0.0
11
554.7213
21
344.0187
31
0.0
0
LINE
8
CUT
10
554.7213
20
344.0187
30
0.0
11
553.5530
21
345.5413
31
0.0
0
LINE
8
CUT
10
553.5530
20
345.5413
30
0.0
11
552.2563
21
346.9563
31
0.0
0
LINE
8
CUT
10
552.2563
20
346.9563
30
0.0
11
550.8413
21
348.2530
31
0.0
0
LINE
8
CUT
10
550.8413
20
348.2530
30
0.0
11
549.3187
21
349.4213
31
0.0
0
LINE
8
CUT
10
549.3187
20
349.4213
30
0.0
11
547.7000
21
350.4526
31
0.0
0
LINE
8
CUT
10
547.7000
20
350.4526
30
0.0
11
545.9976
21
351.3388
31
0.0
0
LINE
8
CUT
10
545.9976
20
351.3388
30
0.0
11
544.2244
21
352.0732
31
0.0
0
LINE
8
CUT
10
544.2244
20
352.0732
30
0.0
11
542.3940
21
352.6504
31
0.0
0
LINE
8
CUT
10
542.3940
20
352.6504
30
0.0
11
540.5203
21
353.0658
31
0.0
0
LINE
8
CUT
10
540.5203
20
353.0658
30
0.0
11
538.6174
21
353.3163
31
0.0
0
LINE
8
CUT
10
538.6174
20
353.3163
30
0.0
11
536.7000
21
353.4000
31
0.0
0
LINE
8
CUT
10
536.7000
20
353.4000
30
0.0
11
56.0000
21
353.4000
31
0.0
0
LINE
8
CUT
10
56.0000
20
353.4000
30
0.0
11
54.0826
21
353.3163
31
0.0
0
LINE
8
CUT
10
54.0826
20
353.3163
30
0.0
11
52.1797
21
353.0658
31
0.0
0
LINE
8
CUT
10
52.1797
20
353.0658
30
0.0
11
50.3060
21
352.6504
31
0.0
0
LINE
8
CUT
10
50.3060
20
352.6504
30
0.0
11
48.4756
21
352.0732
31
0.0
0
LINE
8
CUT
10
48.4756
20
352.0732
30
0.0
11
46.7024
21
351.3388
31
0.0
0
LINE
8
CUT
10
46.7024
20
351.3388
30
0.0
11
45.0000
21
350.4526
31
0.0
0
LINE
8
CUT
10
45.0000
20
350.4526
30
0.0
11
43.3813
21
349.4213
31
0.0
0
LINE
8
CUT
10
43.3813
20
349.4213
30
0.0
11
41.8587
21
348.2530
31
0.0
0
LINE
8
CUT
10
41.8587
20
348.2530
30
0.0
11
40.4437
21
346.9563
31
0.0
0
LINE
8
CUT
10
40.4437
20
346.9563
30
0.0
11
39.1470
21
345.5413
31
0.0
0
LINE
8
CUT
10
39.1470
20
345.5413
30
0.0
11
37.9787
21
344.0187
31
0.0
0
LINE
8
CUT
10
37.9787
20
344.0187
30
0.0
11
36.9474
21
342.4000
31
0.0
0
LINE
8
CUT
10
36.9474
20
342.4000
30
0.0
11
36.0612
21
340.6976
31
0.0
0
LINE
8
CUT
10
36.0612
20
340.6976
30
0.0
11
35.3268
21
338.9244
31
0.0
0
LINE
8
CUT
10
35.3268
20
338.9244
30
0.0
11
34.7496
21
337.0940
31
0.0
0
LINE
8
CUT
10
34.7496
20
337.0940
30
0.0
11
34.3342
21
335.2203
31
0.0
0
LINE
8
CUT
10
34.3342
20
335.2203
30
0.0
11
34.0837
21
333.3174
31
0.0
0
LINE
8
CUT
10
34.0837
20
333.3174
30
0.0
11
34.0000
21
331.4000
31
0.0
0
LINE
8
CUT
10
34.0000
20
331.4000
30
0.0
11
34.0000
21
56.0000
31
0.0
0
LINE
8
CUT
10
34.0000
20
56.0000
30
0.0
11
34.0837
21
54.0826
31
0.0
0
LINE
8
CUT
10
34.0837
20
54.0826
30
0.0
11
34.3342
21
52.1797
31
0.0
0
LINE
8
CUT
10
34.3342
20
52.1797
30
0.0
11
34.7496
21
50.3060
31
0.0
0
LINE
8
CUT
10
34.7496
20
50.3060
30
0.0
11
35.3268
21
48.4756
31
0.0
0
LINE
8
CUT
10
35.3268
20
48.4756
30
0.0
11
36.0612
21
46.7024
31
0.0
0
LINE
8
CUT
10
36.0612
20
46.7024
30
0.0
11
36.9474
21
45.0000
31
0.0
0
LINE
8
CUT
10
36.9474
20
45.0000
30
0.0
11
37.9787
21
43.3813
31
0.0
0
LINE
8
CUT
10
37.9787
20
43.3813
30
0.0
11
39.1470
21
41.8587
31
0.0
0
LINE
8
CUT
10
39.1470
20
41.8587
30
0.0
11
40.4437
21
40.4437
31
0.0
0
LINE
8
CUT
10
40.4437
20
40.4437
30
0.0
11
41.8587
21
39.1470
31
0.0
0
LINE
8
CUT
10
41.8587
20
39.1470
30
0.0
11
43.3813
21
37.9787
31
0.0
0
LINE
8
CUT
10
43.3813
20
37.9787
30
0.0
11
45.0000
21
36.9474
31
0.0
0
LINE
8
CUT
10
45.0000
20
36.9474
30
0.0
11
46.7024
21
36.0612
31
0.0
0
LINE
8
CUT
10
46.7024
20
36.0612
30
0.0
11
48.4756
21
35.3268
31
0.0
0
LINE
8
CUT
10
48.4756
20
35.3268
30
0.0
11
50.3060
21
34.7496
31
0.0
0
LINE
8
CUT
10
50.3060
20
34.7496
30
0.0
11
52.1797
21
34.3342
31
0.0
0
LINE
8
CUT
10
52.1797
20
34.3342
30
0.0
11
54.0826
21
34.0837
31
0.0
0
LINE
8
CUT
10
54.0826
20
34.0837
30
0.0
11
56.0000
21
34.0000
31
0.0
0
LINE
8
CUT
10
56.0000
20
34.0000
30
0.0
11
536.7000
21
34.0000
31
0.0
0
LINE
8
CHANNEL
10
536.7000
20
26.0000
30
0.0
11
539.3147
21
26.1142
31
0.0
0
LINE
8
CHANNEL
10
539.3147
20
26.1142
30
0.0
11
541.9094
21
26.4558
31
0.0
0
LINE
8
CHANNEL
10
541.9094
20
26.4558
30
0.0
11
544.4646
21
27.0222
31
0.0
0
LINE
8
CHANNEL
10
544.4646
20
27.0222
30
0.0
11
546.9606
21
27.8092
31
0.0
0
LINE
8
CHANNEL
10
546.9606
20
27.8092
30
0.0
11
549.3785
21
28.8108
31
0.0
0
LINE
8
CHANNEL
10
549.3785
20
28.8108
30
0.0
11
551.7000
21
30.0192
31
0.0
0
LINE
8
CHANNEL
10
551.7000
20
30.0192
30
0.0
11
553.9073
21
31.4254
31
0.0
0
LINE
8
CHANNEL
10
553.9073
20
31.4254
30
0.0
11
555.9836
21
33.0187
31
0.0
0
LINE
8
CHANNEL
10
555.9836
20
33.0187
30
0.0
11
557.9132
21
34.7868
31
0.0
0
LINE
8
CHANNEL
10
557.9132
20
34.7868
30
0.0
11
559.6813
21
36.7164
31
0.0
0
LINE
8
CHANNEL
10
559.6813
20
36.7164
30
0.0
11
561.2746
21
38.7927
31
0.0
0
LINE
8
CHANNEL
10
561.2746
20
38.7927
30
0.0
11
562.6808
21
41.0000
31
0.0
0
LINE
8
CHANNEL
10
562.6808
20
41.0000
30
0.0
11
563.8892
21
43.3215
31
0.0
0
LINE
8
CHANNEL
10
563.8892
20
43.3215
30
0.0
11
564.8908
21
45.7394
31
0.0
0
LINE
8
CHANNEL
10
564.8908
20
45.7394
30
0.0
11
565.6778
21
48.2354
31
0.0
0
LINE
8
CHANNEL
10
565.6778
20
48.2354
30
0.0
11
566.2442
21
50.7906
31
0.0
0
LINE
8
CHANNEL
10
566.2442
20
50.7906
30
0.0
11
566.5858
21
53.3853
31
0.0
0
LINE
8
CHANNEL
10
566.5858
20
53.3853
30
0.0
11
566.7000
21
56.0000
31
0.0
0
LINE
8
CHANNEL
10
566.7000
20
56.0000
30
0.0
11
566.7000
21
331.4000
31
0.0
0
LINE
8
CHANNEL
10
566.7000
20
331.4000
30
0.0
11
566.5858
21
334.0147
31
0.0
0
LINE
8
CHANNEL
10
566.5858
20
334.0147
30
0.0
11
566.2442
21
336.6094
31
0.0
0
LINE
8
CHANNEL
10
566.2442
20
336.6094
30
0.0
11
565.6778
21
339.1646
31
0.0
0
LINE
8
CHANNEL
10
565.6778
20
339.1646
30
0.0
11
564.8908
21
341.6606
31
0.0
0
LINE
8
CHANNEL
10
564.8908
20
341.6606
30
0.0
11
563.8892
21
344.0785
31
0.0
0
LINE
8
CHANNEL
10
563.8892
20
344.0785
30
0.0
11
562.6808
21
346.4000
31
0.0
0
LINE
8
CHANNEL
10
562.6808
20
346.4000
30
0.0
11
561.2746
21
348.6073
31
0.0
0
LINE
8
CHANNEL
10
561.2746
20
348.6073
30
0.0
11
559.6813
21
350.6836
31
0.0
0
LINE
8
CHANNEL
10
559.6813
20
350.6836
30
0.0
11
557.9132
21
352.6132
31
0.0
0
LINE
8
CHANNEL
10
557.9132
20
352.6132
30
0.0
11
555.9836
21
354.3813
31
0.0
0
LINE
8
CHANNEL
10
555.9836
20
354.3813
30
0.0
11
553.9073
21
355.9746
31
0.0
0
LINE
8
CHANNEL
10
553.9073
20
355.9746
30
0.0
11
551.7000
21
357.3808
31
0.0
0
LINE
8
CHANNEL
10
551.7000
20
357.3808
30
0.0
11
549.3785
21
358.5892
31
0.0
0
LINE
8
CHANNEL
10
549.3785
20
358.5892
30
0.0
11
546.9606
21
359.5908
31
0.0
0
LINE
8
CHANNEL
10
546.9606
20
359.5908
30
0.0
11
544.4646
21
360.3778
31
0.0
0
LINE
8
CHANNEL
10
544.4646
20
360.3778
30
0.0
11
541.9094
21
360.9442
31
0.0
0
LINE
8
CHANNEL
10
541.9094
20
360.9442
30
0.0
11
539.3147
21
361.2858
31
0.0
0
LINE
8
CHANNEL
10
539.3147
20
361.2858
30
0.0
11
536.7000
21
361.4000
31
0.0
0
LINE
8
CHANNEL
10
536.7000
20
361.4000
30
0.0
11
56.0000
21
361.4000
31
0.0
0
LINE
8
CHANNEL
10
56.0000
20
361.4000
30
0.0
11
53.3853
21
361.2858
31
0.0
0
LINE
8
CHANNEL
10
53.3853
20
361.2858
30
0.0
11
50.7906
21
360.9442
31
0.0
0
LINE
8
CHANNEL
10
50.7906
20
360.9442
30
0.0
11
48.2354
21
360.3778
31
0.0
0
LINE
8
CHANNEL
10
48.2354
20
360.3778
30
0.0
11
45.7394
21
359.5908
31
0.0
0
LINE
8
CHANNEL
10
45.7394
20
359.5908
30
0.0
11
43.3215
21
358.5892
31
0.0
0
LINE
8
CHANNEL
10
43.3215
20
358.5892
30
0.0
11
41.0000
21
357.3808
31
0.0
0
LINE
8
CHANNEL
10
41.0000
20
357.3808
30
0.0
11
38.7927
21
355.9746
31
0.0
0
LINE
8
CHANNEL
10
38.7927
20
355.9746
30
0.0
11
36.7164
21
354.3813
31
0.0
0
LINE
8
CHANNEL
10
36.7164
20
354.3813
30
0.0
11
34.7868
21
352.6132
31
0.0
0
LINE
8
CHANNEL
10
34.7868
20
352.6132
30
0.0
11
33.0187
21
350.6836
31
0.0
0
LINE
8
CHANNEL
10
33.0187
20
350.6836
30
0.0
11
31.4254
21
348.6073
31
0.0
0
LINE
8
CHANNEL
10
31.4254
20
348.6073
30
0.0
11
30.0192
21
346.4000
31
0.0
0
LINE
8
CHANNEL
10
30.0192
20
346.4000
30
0.0
11
28.8108
21
344.0785
31
0.0
0
LINE
8
CHANNEL
10
28.8108
20
344.0785
30
0.0
11
27.8092
21
341.6606
31
0.0
0
LINE
8
CHANNEL
10
27.8092
20
341.6606
30
0.0
11
27.0222
21
339.1646
31
0.0
0
LINE
8
CHANNEL
10
27.0222
20
339.1646
30
0.0
11
26.4558
21
336.6094
31
0.0
0
LINE
8
CHANNEL
10
26.4558
20
336.6094
30
0.0
11
26.1142
21
334.0147
31
0.0
0
LINE
8
CHANNEL
10
26.1142
20
334.0147
30
0.0
11
26.0000
21
331.4000
31
0.0
0
LINE
8
CHANNEL
10
26.0000
20
331.4000
30
0.0
11
26.0000
21
56.0000
31
0.0
0
LINE
8
CHANNEL
10
26.0000
20
56.0000
30
0.0
11
26.1142
21
53.3853
31
0.0
0
LINE
8
CHANNEL
10
26.1142
20
53.3853
30
0.0
11
26.4558
21
50.7906
31
0.0
0
LINE
8
CHANNEL
10
26.4558
20
50.7906
30
0.0
11
27.0222
21
48.2354
31
0.0
0
LINE
8
CHANNEL
10
27.0222
20
48.2354
30
0.0
11
27.8092
21
45.7394
31
0.0
0
LINE
8
CHANNEL
10
27.8092
20
45.7394
30
0.0
11
28.8108
21
43.3215
31
0.0
0
LINE
8
CHANNEL
10
28.8108
20
43.3215
30
0.0
11
30.0192
21
41.0000
31
0.0
0
LINE
8
CHANNEL
10
30.0192
20
41.0000
30
0.0
11
31.4254
21
38.7927
31
0.0
0
LINE
8
CHANNEL
10
31.4254
20
38.7927
30
0.0
11
33.0187
21
36.7164
31
0.0
0
LINE
8
CHANNEL
10
33.0187
20
36.7164
30
0.0
11
34.7868
21
34.7868
31
0.0
0
LINE
8
CHANNEL
10
34.7868
20
34.7868
30
0.0
11
36.7164
21
33.0187
31
0.0
0
LINE
8
CHANNEL
10
36.7164
20
33.0187
30
0.0
11
38.7927
21
31.4254
31
0.0
0
LINE
8
CHANNEL
10
38.7927
20
31.4254
30
0.0
11
41.0000
21
30.0192
31
0.0
0
LINE
8
CHANNEL
10
41.0000
20
30.0192
30
0.0
11
43.3215
21
28.8108
31
0.0
0
LINE
8
CHANNEL
10
43.3215
20
28.8108
30
0.0
11
45.7394
21
27.8092
31
0.0
0
LINE
8
CHANNEL
10
45.7394
20
27.8092
30
0.0
11
48.2354
21
27.0222
31
0.0
0
LINE
8
CHANNEL
10
48.2354
20
27.0222
30
0.0
11
50.7906
21
26.4558
31
0.0
0
LINE
8
CHANNEL
10
50.7906
20
26.4558
30
0.0
11
53.3853
21
26.1142
31
0.0
0
LINE
8
CHANNEL
10
53.3853
20
26.1142
30
0.0
11
56.0000
21
26.0000
31
0.0
0
LINE
8
CHANNEL
10
56.0000
20
26.0000
30
0.0
11
536.7000
21
26.0000
31
0.0
0
LINE
8
CHANNEL
10
536.7000
20
22.0000
30
0.0
11
539.6633
21
22.1294
31
0.0
0
LINE
8
CHANNEL
10
539.6633
20
22.1294
30
0.0
11
542.6040
21
22.5165
31
0.0
0
LINE
8
CHANNEL
10
542.6040
20
22.5165
30
0.0
11
545.4998
21
23.1585
31
0.0
0
LINE
8
CHANNEL
10
545.4998
20
23.1585
30
0.0
11
548.3287
21
24.0505
31
0.0
0
LINE
8
CHANNEL
10
548.3287
20
24.0505
30
0.0
11
551.0690
21
25.1855
31
0.0
0
LINE
8
CHANNEL
10
551.0690
20
25.1855
30
0.0
11
553.7000
21
26.5551
31
0.0
0
LINE
8
CHANNEL
10
553.7000
20
26.5551
30
0.0
11
556.2016
21
28.1488
31
0.0
0
LINE
8
CHANNEL
10
556.2016
20
28.1488
30
0.0
11
558.5548
21
29.9545
31
0.0
0
LINE
8
CHANNEL
10
558.5548
20
29.9545
30
0.0
11
560.7416
21
31.9584
31
0.0
0
LINE
8
CHANNEL
10
560.7416
20
31.9584
30
0.0
11
562.7455
21
34.1452
31
0.0
0
LINE
8
CHANNEL
10
562.7455
20
34.1452
30
0.0
11
564.5512
21
36.4984
31
0.0
0
LINE
8
CHANNEL
10
564.5512
20
36.4984
30
0.0
11
566.1449
21
39.0000
31
0.0
0
LINE
8
CHANNEL
10
566.1449
20
39.0000
30
0.0
11
567.5145
21
41.6310
31
0.0
0
LINE
8
CHANNEL
10
567.5145
20
41.6310
30
0.0
11
568.6495
21
44.3713
31
0.0
0
LINE
8
CHANNEL
10
568.6495
20
44.3713
30
0.0
11
569.5415
21
47.2002
31
0.0
0
LINE
8
CHANNEL
10
569.5415
20
47.2002
30
0.0
11
570.1835
21
50.0960
31
0.0
0
LINE
8
CHANNEL
10
570.1835
20
50.0960
30
0.0
11
570.5706
21
53.0367
31
0.0
0
LINE
8
CHANNEL
10
570.5706
20
53.0367
30
0.0
11
570.7000
21
56.0000
31
0.0
0
LINE
8
CHANNEL
10
570.7000
20
56.0000
30
0.0
11
570.7000
21
331.4000
31
0.0
0
LINE
8
CHANNEL
10
570.7000
20
331.4000
30
0.0
11
570.5706
21
334.3633
31
0.0
0
LINE
8
CHANNEL
10
570.5706
20
334.3633
30
0.0
11
570.1835
21
337.3040
31
0.0
0
LINE
8
CHANNEL
10
570.1835
20
337.3040
30
0.0
11
569.5415
21
340.1998
31
0.0
0
LINE
8
CHANNEL
10
569.5415
20
340.1998
30
0.0
11
568.6495
21
343.0287
31
0.0
0
LINE
8
CHANNEL
10
568.6495
20
343.0287
30
0.0
11
567.5145
21
345.7690
31
0.0
0
LINE
8
CHANNEL
10
567.5145
20
345.7690
30
0.0
11
566.1449
21
348.4000
31
0.0
0
LINE
8
CHANNEL
10
566.1449
20
348.4000
30
0.0
11
564.5512
21
350.9016
31
0.0
0
LINE
8
CHANNEL
10
564.5512
20
350.9016
30
0.0
11
562.7455
21
353.2548
31
0.0
0
LINE
8
CHANNEL
10
562.7455
20
353.2548
30
0.0
11
560.7416
21
355.4416
31
0.0
0
LINE
8
CHANNEL
10
560.7416
20
355.4416
30
0.0
11
558.5548
21
357.4455
31
0.0
0
LINE
8
CHANNEL
10
558.5548
20
357.4455
30
0.0
11
556.2016
21
359.2512
31
0.0
0
LINE
8
CHANNEL
10
556.2016
20
359.2512
30
0.0
11
553.7000
21
360.8449
31
0.0
0
LINE
8
CHANNEL
10
553.7000
20
360.8449
30
0.0
11
551.0690
21
362.2145
31
0.0
0
LINE
8
CHANNEL
10
551.0690
20
362.2145
30
0.0
11
548.3287
21
363.3495
31
0.0
0
LINE
8
CHANNEL
10
548.3287
20
363.3495
30
0.0
11
545.4998
21
364.2415
31
0.0
0
LINE
8
CHANNEL
10
545.4998
20
364.2415
30
0.0
11
542.6040
21
364.8835
31
0.0
0
LINE
8
CHANNEL
10
542.6040
20
364.8835
30
0.0
11
539.6633
21
365.2706
31
0.0
0
LINE
8
CHANNEL
10
539.6633
20
365.2706
30
0.0
11
536.7000
21
365.4000
31
0.0
0
LINE
8
CHANNEL
10
536.7000
20
365.4000
30
0.0
11
56.0000
21
365.4000
31
0.0
0
LINE
8
CHANNEL
10
56.0000
20
365.4000
30
0.0
11
53.0367
21
365.2706
31
0.0
0
LINE
8
CHANNEL
10
53.0367
20
365.2706
30
0.0
11
50.0960
21
364.8835
31
0.0
0
LINE
8
CHANNEL
10
50.0960
20
364.8835
30
0.0
11
47.2002
21
364.2415
31
0.0
0
LINE
8
CHANNEL
10
47.2002
20
364.2415
30
0.0
11
44.3713
21
363.3495
31
0.0
0
LINE
8
CHANNEL
10
44.3713
20
363.3495
30
0.0
11
41.6310
21
362.2145
31
0.0
0
LINE
8
CHANNEL
10
41.6310
20
362.2145
30
0.0
11
39.0000
21
360.8449
31
0.0
0
LINE
8
CHANNEL
10
39.0000
20
360.8449
30
0.0
11
36.4984
21
359.2512
31
0.0
0
LINE
8
CHANNEL
10
36.4984
20
359.2512
30
0.0
11
34.1452
21
357.4455
31
0.0
0
LINE
8
CHANNEL
10
34.1452
20
357.4455
30
0.0
11
31.9584
21
355.4416
31
0.0
0
LINE
8
CHANNEL
10
31.9584
20
355.4416
30
0.0
11
29.9545
21
353.2548
31
0.0
0
LINE
8
CHANNEL
10
29.9545
20
353.2548
30
0.0
11
28.1488
21
350.9016
31
0.0
0
LINE
8
CHANNEL
10
28.1488
20
350.9016
30
0.0
11
26.5551
21
348.4000
31
0.0
0
LINE
8
CHANNEL
10
26.5551
20
348.4000
30
0.0
11
25.1855
21
345.7690
31
0.0
0
LINE
8
CHANNEL
10
25.1855
20
345.7690
30
0.0
11
24.0505
21
343.0287
31
0.0
0
LINE
8
CHANNEL
10
24.0505
20
343.0287
30
0.0
11
23.1585
21
340.1998
31
0.0
0
LINE
8
CHANNEL
10
23.1585
20
340.1998
30
0.0
11
22.5165
21
337.3040
31
0.0
0
LINE
8
CHANNEL
10
22.5165
20
337.3040
30
0.0
11
22.1294
21
334.3633
31
0.0
0
LINE
8
CHANNEL
10
22.1294
20
334.3633
30
0.0
11
22.0000
21
331.4000
31
0.0
0
LINE
8
CHANNEL
10
22.0000
20
331.4000
30
0.0
11
22.0000
21
56.0000
31
0.0
0
LINE
8
CHANNEL
10
22.0000
20
56.0000
30
0.0
11
22.1294
21
53.0367
31
0.0
0
LINE
8
CHANNEL
10
22.1294
20
53.0367
30
0.0
11
22.5165
21
50.0960
31
0.0
0
LINE
8
CHANNEL
10
22.5165
20
50.0960
30
0.0
11
23.1585
21
47.2002
31
0.0
0
LINE
8
CHANNEL
10
23.1585
20
47.2002
30
0.0
11
24.0505
21
44.3713
31
0.0
0
LINE
8
CHANNEL
10
24.0505
20
44.3713
30
0.0
11
25.1855
21
41.6310
31
0.0
0
LINE
8
CHANNEL
10
25.1855
20
41.6310
30
0.0
11
26.5551
21
39.0000
31
0.0
0
LINE
8
CHANNEL
10
26.5551
20
39.0000
30
0.0
11
28.1488
21
36.4984
31
0.0
0
LINE
8
CHANNEL
10
28.1488
20
36.4984
30
0.0
11
29.9545
21
34.1452
31
0.0
0
LINE
8
CHANNEL
10
29.9545
20
34.1452
30
0.0
11
31.9584
21
31.9584
31
0.0
0
LINE
8
CHANNEL
10
31.9584
20
31.9584
30
0.0
11
34.1452
21
29.9545
31
0.0
0
LINE
8
CHANNEL
10
34.1452
20
29.9545
30
0.0
11
36.4984
21
28.1488
31
0.0
0
LINE
8
CHANNEL
10
36.4984
20
28.1488
30
0.0
11
39.0000
21
26.5551
31
0.0
0
LINE
8
CHANNEL
10
39.0000
20
26.5551
30
0.0
11
41.6310
21
25.1855
31
0.0
0
LINE
8
CHANNEL
10
41.6310
20
25.1855
30
0.0
11
44.3713
21
24.0505
31
0.0
0
LINE
8
CHANNEL
10
44.3713
20
24.0505
30
0.0
11
47.2002
21
23.1585
31
0.0
0
LINE
8
CHANNEL
10
47.2002
20
23.1585
30
0.0
11
50.0960
21
22.5165
31
0.0
0
LINE
8
CHANNEL
10
50.0960
20
22.5165
30
0.0
11
53.0367
21
22.1294
31
0.0
0
LINE
8
CHANNEL
10
53.0367
20
22.1294
30
0.0
11
56.0000
21
22.0000
31
0.0
0
LINE
8
CHANNEL
10
56.0000
20
22.0000
30
0.0
11
536.7000
21
22.0000
31
0.0
0
CIRCLE
8
HOLES
10
536.7000
20
12.0000
30
0.0
40
3.2000
0
CIRCLE
8
HOLES
10
580.7000
20
135.9585
30
0.0
40
3.2000
0
CIRCLE
8
HOLES
10
580.7000
20
285.0042
30
0.0
40
3.2000
0
CIRCLE
8
HOLES
10
503.1373
20
375.4000
30
0.0
40
3.2000
0
CIRCLE
8
HOLES
10
354.0915
20
375.4000
30
0.0
40
3.2000
0
CIRCLE
8
HOLES
10
205.0458
20
375.4000
30
0.0
40
3.2000
0
CIRCLE
8
HOLES
10
56.0000
20
375.4000
30
0.0
40
3.2000
0
CIRCLE
8
HOLES
10
12.0000
20
251.4415
30
0.0
40
3.2000
0
CIRCLE
8
HOLES
10
12.0000
20
102.3958
30
0.0
40
3.2000
0
CIRCLE
8
HOLES
10
89.5627
20
12.0000
30
0.0
40
3.2000
0
CIRCLE
8
HOLES
10
238.6085
20
12.0000
30
0.0
40
3.2000
0
CIRCLE
8
HOLES
10
387.6542
20
12.0000
30
0.0
40
3.2000
0
ENDSEC
0
EOF
