0
SECTION
2
ENTITIES
0
LINE
8
CUT
10
535.0500
20
0.0000
30
0.0
11
539.9307
21
0.2131
31
0.0
0
LINE
8
CUT
10
539.9307
20
0.2131
30
0.0
11
544.7743
21
0.8508
31
0.0
0
LINE
8
CUT
10
544.7743
20
0.8508
30
0.0
11
549.5439
21
1.9082
31
0.0
0
LINE
8
CUT
10
549.5439
20
1.9082
30
0.0
11
554.2031
21
3.3772
31
0.0
0
LINE
8
CUT
10
554.2031
20
3.3772
30
0.0
11
558.7166
21
5.2468
31
0.0
0
LINE
8
CUT
10
558.7166
20
5.2468
30
0.0
11
563.0500
21
7.5026
31
0.0
0
LINE
8
CUT
10
563.0500
20
7.5026
30
0.0
11
567.1703
21
10.1275
31
0.0
0
LINE
8
CUT
10
567.1703
20
10.1275
30
0.0
11
571.0461
21
13.1015
31
0.0
0
LINE
8
CUT
10
571.0461
20
13.1015
30
0.0
11
574.6480
21
16.4020
31
0.0
0
LINE
8
CUT
10
574.6480
20
16.4020
30
0.0
11
577.9485
21
20.0039
31
0.0
0
LINE
8
CUT
10
577.9485
20
20.0039
30
0.0
11
580.9225
21
23.8797
31
0.0
0
LINE
8
CUT
10
580.9225
20
23.8797
30
0.0
11
583.5474
21
28.0000
31
0.0
0
LINE
8
CUT
10
583.5474
20
28.0000
30
0.0
11
585.8032
21
32.3334
31
0.0
0
LINE
8
CUT
10
585.8032
20
32.3334
30
0.0
11
587.6728
21
36.8469
31
0.0
0
LINE
8
CUT
10
587.6728
20
36.8469
30
0.0
11
589.1418
21
41.5061
31
0.0
0
LINE
8
CUT
10
589.1418
20
41.5061
30
0.0
11
590.1992
21
46.2757
31
0.0
0
LINE
8
CUT
10
590.1992
20
46.2757
30
0.0
11
590.8369
21
51.1193
31
0.0
0
LINE
8
CUT
10
590.8369
20
51.1193
30
0.0
11
591.0500
21
56.0000
31
0.0
0
LINE
8
CUT
10
591.0500
20
56.0000
30
0.0
11
591.0500
21
329.7500
31
0.0
0
LINE
8
CUT
10
591.0500
20
329.7500
30
0.0
11
590.8369
21
334.6307
31
0.0
0
LINE
8
CUT
10
590.8369
20
334.6307
30
0.0
11
590.1992
21
339.4743
31
0.0
0
LINE
8
CUT
10
590.1992
20
339.4743
30
0.0
11
589.1418
21
344.2439
31
0.0
0
LINE
8
CUT
10
589.1418
20
344.2439
30
0.0
11
587.6728
21
348.9031
31
0.0
0
LINE
8
CUT
10
587.6728
20
348.9031
30
0.0
11
585.8032
21
353.4166
31
0.0
0
LINE
8
CUT
10
585.8032
20
353.4166
30
0.0
11
583.5474
21
357.7500
31
0.0
0
LINE
8
CUT
10
583.5474
20
357.7500
30
0.0
11
580.9225
21
361.8703
31
0.0
0
LINE
8
CUT
10
580.9225
20
361.8703
30
0.0
11
577.9485
21
365.7461
31
0.0
0
LINE
8
CUT
10
577.9485
20
365.7461
30
0.0
11
574.6480
21
369.3480
31
0.0
0
LINE
8
CUT
10
574.6480
20
369.3480
30
0.0
11
571.0461
21
372.6485
31
0.0
0
LINE
8
CUT
10
571.0461
20
372.6485
30
0.0
11
567.1703
21
375.6225
31
0.0
0
LINE
8
CUT
10
567.1703
20
375.6225
30
0.0
11
563.0500
21
378.2474
31
0.0
0
LINE
8
CUT
10
563.0500
20
378.2474
30
0.0
11
558.7166
21
380.5032
31
0.0
0
LINE
8
CUT
10
558.7166
20
380.5032
30
0.0
11
554.2031
21
382.3728
31
0.0
0
LINE
8
CUT
10
554.2031
20
382.3728
30
0.0
11
549.5439
21
383.8418
31
0.0
0
LINE
8
CUT
10
549.5439
20
383.8418
30
0.0
11
544.7743
21
384.8992
31
0.0
0
LINE
8
CUT
10
544.7743
20
384.8992
30
0.0
11
539.9307
21
385.5369
31
0.0
0
LINE
8
CUT
10
539.9307
20
385.5369
30
0.0
11
535.0500
21
385.7500
31
0.0
0
LINE
8
CUT
10
535.0500
20
385.7500
30
0.0
11
56.0000
21
385.7500
31
0.0
0
LINE
8
CUT
10
56.0000
20
385.7500
30
0.0
11
51.1193
21
385.5369
31
0.0
0
LINE
8
CUT
10
51.1193
20
385.5369
30
0.0
11
46.2757
21
384.8992
31
0.0
0
LINE
8
CUT
10
46.2757
20
384.8992
30
0.0
11
41.5061
21
383.8418
31
0.0
0
LINE
8
CUT
10
41.5061
20
383.8418
30
0.0
11
36.8469
21
382.3728
31
0.0
0
LINE
8
CUT
10
36.8469
20
382.3728
30
0.0
11
32.3334
21
380.5032
31
0.0
0
LINE
8
CUT
10
32.3334
20
380.5032
30
0.0
11
28.0000
21
378.2474
31
0.0
0
LINE
8
CUT
10
28.0000
20
378.2474
30
0.0
11
23.8797
21
375.6225
31
0.0
0
LINE
8
CUT
10
23.8797
20
375.6225
30
0.0
11
20.0039
21
372.6485
31
0.0
0
LINE
8
CUT
10
20.0039
20
372.6485
30
0.0
11
16.4020
21
369.3480
31
0.0
0
LINE
8
CUT
10
16.4020
20
369.3480
30
0.0
11
13.1015
21
365.7461
31
0.0
0
LINE
8
CUT
10
13.1015
20
365.7461
30
0.0
11
10.1275
21
361.8703
31
0.0
0
LINE
8
CUT
10
10.1275
20
361.8703
30
0.0
11
7.5026
21
357.7500
31
0.0
0
LINE
8
CUT
10
7.5026
20
357.7500
30
0.0
11
5.2468
21
353.4166
31
0.0
0
LINE
8
CUT
10
5.2468
20
353.4166
30
0.0
11
3.3772
21
348.9031
31
0.0
0
LINE
8
CUT
10
3.3772
20
348.9031
30
0.0
11
1.9082
21
344.2439
31
0.0
0
LINE
8
CUT
10
1.9082
20
344.2439
30
0.0
11
0.8508
21
339.4743
31
0.0
0
LINE
8
CUT
10
0.8508
20
339.4743
30
0.0
11
0.2131
21
334.6307
31
0.0
0
LINE
8
CUT
10
0.2131
20
334.6307
30
0.0
11
0.0000
21
329.7500
31
0.0
0
LINE
8
CUT
10
0.0000
20
329.7500
30
0.0
11
0.0000
21
56.0000
31
0.0
0
LINE
8
CUT
10
0.0000
20
56.0000
30
0.0
11
0.2131
21
51.1193
31
0.0
0
LINE
8
CUT
10
0.2131
20
51.1193
30
0.0
11
0.8508
21
46.2757
31
0.0
0
LINE
8
CUT
10
0.8508
20
46.2757
30
0.0
11
1.9082
21
41.5061
31
0.0
0
LINE
8
CUT
10
1.9082
20
41.5061
30
0.0
11
3.3772
21
36.8469
31
0.0
0
LINE
8
CUT
10
3.3772
20
36.8469
30
0.0
11
5.2468
21
32.3334
31
0.0
0
LINE
8
CUT
10
5.2468
20
32.3334
30
0.0
11
7.5026
21
28.0000
31
0.0
0
LINE
8
CUT
10
7.5026
20
28.0000
30
0.0
11
10.1275
21
23.8797
31
0.0
0
LINE
8
CUT
10
10.1275
20
23.8797
30
0.0
11
13.1015
21
20.0039
31
0.0
0
LINE
8
CUT
10
13.1015
20
20.0039
30
0.0
11
16.4020
21
16.4020
31
0.0
0
LINE
8
CUT
10
16.4020
20
16.4020
30
0.0
11
20.0039
21
13.1015
31
0.0
0
LINE
8
CUT
10
20.0039
20
13.1015
30
0.0
11
23.8797
21
10.1275
31
0.0
0
LINE
8
CUT
10
23.8797
20
10.1275
30
0.0
11
28.0000
21
7.5026
31
0.0
0
LINE
8
CUT
10
28.0000
20
7.5026
30
0.0
11
32.3334
21
5.2468
31
0.0
0
LINE
8
CUT
10
32.3334
20
5.2468
30
0.0
11
36.8469
21
3.3772
31
0.0
0
LINE
8
CUT
10
36.8469
20
3.3772
30
0.0
11
41.5061
21
1.9082
31
0.0
0
LINE
8
CUT
10
41.5061
20
1.9082
30
0.0
11
46.2757
21
0.8508
31
0.0
0
LINE
8
CUT
10
46.2757
20
0.8508
30
0.0
11
51.1193
21
0.2131
31
0.0
0
LINE
8
CUT
10
51.1193
20
0.2131
30
0.0
11
56.0000
21
0.0000
31
0.0
0
LINE
8
CUT
10
56.0000
20
0.0000
30
0.0
11
535.0500
21
0.0000
31
0.0
0
LINE
8
CUT
10
535.0500
20
34.0000
30
0.0
11
536.9674
21
34.0837
31
0.0
0
LINE
8
CUT
10
536.9674
20
34.0837
30
0.0
11
538.8703
21
34.3342
31
0.0
0
LINE
8
CUT
10
538.8703
20
34.3342
30
0.0
11
540.7440
21
34.7496
31
0.0
0
LINE
8
CUT
10
540.7440
20
34.7496
30
0.0
11
542.5744
21
35.3268
31
0.0
0
LINE
8
CUT
10
542.5744
20
35.3268
30
0.0
11
544.3476
21
36.0612
31
0.0
0
LINE
8
CUT
10
544.3476
20
36.0612
30
0.0
11
546.0500
21
36.9474
31
0.0
0
LINE
8
CUT
10
546.0500
20
36.9474
30
0.0
11
547.6687
21
37.9787
31
0.0
0
LINE
8
CUT
10
547.6687
20
37.9787
30
0.0
11
549.1913
21
39.1470
31
0.0
0
LINE
8
CUT
10
549.1913
20
39.1470
30
0.0
11
550.6063
21
40.4437
31
0.0
0
LINE
8
CUT
10
550.6063
20
40.4437
30
0.0
11
551.9030
21
41.8587
31
0.0
0
LINE
8
CUT
10
551.9030
20
41.8587
30
0.0
11
553.0713
21
43.3813
31
0.0
0
LINE
8
CUT
10
553.0713
20
43.3813
30
0.0
11
554.1026
21
45.0000
31
0.0
0
LINE
8
CUT
10
554.1026
20
45.0000
30
0.0
11
554.9888
21
46.7024
31
0.0
0
LINE
8
CUT
10
554.9888
20
46.7024
30
0.0
11
555.7232
21
48.4756
31
0.0
0
LINE
8
CUT
10
555.7232
20
48.4756
30
0.0
11
556.3004
21
50.3060
31
0.0
0
LINE
8
CUT
10
556.3004
20
50.3060
30
0.0
11
556.7158
21
52.1797
31
0.0
0
LINE
8
CUT
10
556.7158
20
52.1797
30
0.0
11
556.9663
21
54.0826
31
0.0
0
LINE
8
CUT
10
556.9663
20
54.0826
30
0.0
11
557.0500
21
56.0000
31
0.0
0
LINE
8
CUT
10
557.0500
20
56.0000
30
0.0
11
557.0500
21
329.7500
31
0.0
0
LINE
8
CUT
10
557.0500
20
329.7500
30
0.0
11
556.9663
21
331.6674
31
0.0
0
LINE
8
CUT
10
556.9663
20
331.6674
30
0.0
11
556.7158
21
333.5703
31
0.0
0
LINE
8
CUT
10
556.7158
20
333.5703
30
0.0
11
556.3004
21
335.4440
31
0.0
0
LINE
8
CUT
10
556.3004
20
335.4440
30
0.0
11
555.7232
21
337.2744
31
0.0
0
LINE
8
CUT
10
555.7232
20
337.2744
30
0.0
11
554.9888
21
339.0476
31
0.0
0
LINE
8
CUT
10
554.9888
20
339.0476
30
0.0
11
554.1026
21
340.7500
31
0.0
0
LINE
8
CUT
10
554.1026
20
340.7500
30
0.0
11
553.0713
21
342.3687
31
0.0
0
LINE
8
CUT
10
553.0713
20
342.3687
30
0.0
11
551.9030
21
343.8913
31
0.0
0
LINE
8
CUT
10
551.9030
20
343.8913
30
0.0
11
550.6063
21
345.3063
31
0.0
0
LINE
8
CUT
10
550.6063
20
345.3063
30
0.0
11
549.1913
21
346.6030
31
0.0
0
LINE
8
CUT
10
549.1913
20
346.6030
30
0.0
11
547.6687
21
347.7713
31
0.0
0
LINE
8
CUT
10
547.6687
20
347.7713
30
0.0
11
546.0500
21
348.8026
31
0.0
0
LINE
8
CUT
10
546.0500
20
348.8026
30
0.0
11
544.3476
21
349.6888
31
0.0
0
LINE
8
CUT
10
544.3476
20
349.6888
30
0.0
11
542.5744
21
350.4232
31
0.0
0
LINE
8
CUT
10
542.5744
20
350.4232
30
0.0
11
540.7440
21
351.0004
31
0.0
0
LINE
8
CUT
10
540.7440
20
351.0004
30
0.0
11
538.8703
21
351.4158
31
0.0
0
LINE
8
CUT
10
538.8703
20
351.4158
30
0.0
11
536.9674
21
351.6663
31
0.0
0
LINE
8
CUT
10
536.9674
20
351.6663
30
0.0
11
535.0500
21
351.7500
31
0.0
0
LINE
8
CUT
10
535.0500
20
351.7500
30
0.0
11
56.0000
21
351.7500
31
0.0
0
LINE
8
CUT
10
56.0000
20
351.7500
30
0.0
11
54.0826
21
351.6663
31
0.0
0
LINE
8
CUT
10
54.0826
20
351.6663
30
0.0
11
52.1797
21
351.4158
31
0.0
0
LINE
8
CUT
10
52.1797
20
351.4158
30
0.0
11
50.3060
21
351.0004
31
0.0
0
LINE
8
CUT
10
50.3060
20
351.0004
30
0.0
11
48.4756
21
350.4232
31
0.0
0
LINE
8
CUT
10
48.4756
20
350.4232
30
0.0
11
46.7024
21
349.6888
31
0.0
0
LINE
8
CUT
10
46.7024
20
349.6888
30
0.0
11
45.0000
21
348.8026
31
0.0
0
LINE
8
CUT
10
45.0000
20
348.8026
30
0.0
11
43.3813
21
347.7713
31
0.0
0
LINE
8
CUT
10
43.3813
20
347.7713
30
0.0
11
41.8587
21
346.6030
31
0.0
0
LINE
8
CUT
10
41.8587
20
346.6030
30
0.0
11
40.4437
21
345.3063
31
0.0
0
LINE
8
CUT
10
40.4437
20
345.3063
30
0.0
11
39.1470
21
343.8913
31
0.0
0
LINE
8
CUT
10
39.1470
20
343.8913
30
0.0
11
37.9787
21
342.3687
31
0.0
0
LINE
8
CUT
10
37.9787
20
342.3687
30
0.0
11
36.9474
21
340.7500
31
0.0
0
LINE
8
CUT
10
36.9474
20
340.7500
30
0.0
11
36.0612
21
339.0476
31
0.0
0
LINE
8
CUT
10
36.0612
20
339.0476
30
0.0
11
35.3268
21
337.2744
31
0.0
0
LINE
8
CUT
10
35.3268
20
337.2744
30
0.0
11
34.7496
21
335.4440
31
0.0
0
LINE
8
CUT
10
34.7496
20
335.4440
30
0.0
11
34.3342
21
333.5703
31
0.0
0
LINE
8
CUT
10
34.3342
20
333.5703
30
0.0
11
34.0837
21
331.6674
31
0.0
0
LINE
8
CUT
10
34.0837
20
331.6674
30
0.0
11
34.0000
21
329.7500
31
0.0
0
LINE
8
CUT
10
34.0000
20
329.7500
30
0.0
11
34.0000
21
56.0000
31
0.0
0
LINE
8
CUT
10
34.0000
20
56.0000
30
0.0
11
34.0837
21
54.0826
31
0.0
0
LINE
8
CUT
10
34.0837
20
54.0826
30
0.0
11
34.3342
21
52.1797
31
0.0
0
LINE
8
CUT
10
34.3342
20
52.1797
30
0.0
11
34.7496
21
50.3060
31
0.0
0
LINE
8
CUT
10
34.7496
20
50.3060
30
0.0
11
35.3268
21
48.4756
31
0.0
0
LINE
8
CUT
10
35.3268
20
48.4756
30
0.0
11
36.0612
21
46.7024
31
0.0
0
LINE
8
CUT
10
36.0612
20
46.7024
30
0.0
11
36.9474
21
45.0000
31
0.0
0
LINE
8
CUT
10
36.9474
20
45.0000
30
0.0
11
37.9787
21
43.3813
31
0.0
0
LINE
8
CUT
10
37.9787
20
43.3813
30
0.0
11
39.1470
21
41.8587
31
0.0
0
LINE
8
CUT
10
39.1470
20
41.8587
30
0.0
11
40.4437
21
40.4437
31
0.0
0
LINE
8
CUT
10
40.4437
20
40.4437
30
0.0
11
41.8587
21
39.1470
31
0.0
0
LINE
8
CUT
10
41.8587
20
39.1470
30
0.0
11
43.3813
21
37.9787
31
0.0
0
LINE
8
CUT
10
43.3813
20
37.9787
30
0.0
11
45.0000
21
36.9474
31
0.0
0
LINE
8
CUT
10
45.0000
20
36.9474
30
0.0
11
46.7024
21
36.0612
31
0.0
0
LINE
8
CUT
10
46.7024
20
36.0612
30
0.0
11
48.4756
21
35.3268
31
0.0
0
LINE
8
CUT
10
48.4756
20
35.3268
30
0.0
11
50.3060
21
34.7496
31
0.0
0
LINE
8
CUT
10
50.3060
20
34.7496
30
0.0
11
52.1797
21
34.3342
31
0.0
0
LINE
8
CUT
10
52.1797
20
34.3342
30
0.0
11
54.0826
21
34.0837
31
0.0
0
LINE
8
CUT
10
54.0826
20
34.0837
30
0.0
11
56.0000
21
34.0000
31
0.0
0
LINE
8
CUT
10
56.0000
20
34.0000
30
0.0
11
535.0500
21
34.0000
31
0.0
0
LINE
8
CHANNEL
10
535.0500
20
26.0000
30
0.0
11
537.6647
21
26.1142
31
0.0
0
LINE
8
CHANNEL
10
537.6647
20
26.1142
30
0.0
11
540.2594
21
26.4558
31
0.0
0
LINE
8
CHANNEL
10
540.2594
20
26.4558
30
0.0
11
542.8146
21
27.0222
31
0.0
0
LINE
8
CHANNEL
10
542.8146
20
27.0222
30
0.0
11
545.3106
21
27.8092
31
0.0
0
LINE
8
CHANNEL
10
545.3106
20
27.8092
30
0.0
11
547.7285
21
28.8108
31
0.0
0
LINE
8
CHANNEL
10
547.7285
20
28.8108
30
0.0
11
550.0500
21
30.0192
31
0.0
0
LINE
8
CHANNEL
10
550.0500
20
30.0192
30
0.0
11
552.2573
21
31.4254
31
0.0
0
LINE
8
CHANNEL
10
552.2573
20
31.4254
30
0.0
11
554.3336
21
33.0187
31
0.0
0
LINE
8
CHANNEL
10
554.3336
20
33.0187
30
0.0
11
556.2632
21
34.7868
31
0.0
0
LINE
8
CHANNEL
10
556.2632
20
34.7868
30
0.0
11
558.0313
21
36.7164
31
0.0
0
LINE
8
CHANNEL
10
558.0313
20
36.7164
30
0.0
11
559.6246
21
38.7927
31
0.0
0
LINE
8
CHANNEL
10
559.6246
20
38.7927
30
0.0
11
561.0308
21
41.0000
31
0.0
0
LINE
8
CHANNEL
10
561.0308
20
41.0000
30
0.0
11
562.2392
21
43.3215
31
0.0
0
LINE
8
CHANNEL
10
562.2392
20
43.3215
30
0.0
11
563.2408
21
45.7394
31
0.0
0
LINE
8
CHANNEL
10
563.2408
20
45.7394
30
0.0
11
564.0278
21
48.2354
31
0.0
0
LINE
8
CHANNEL
10
564.0278
20
48.2354
30
0.0
11
564.5942
21
50.7906
31
0.0
0
LINE
8
CHANNEL
10
564.5942
20
50.7906
30
0.0
11
564.9358
21
53.3853
31
0.0
0
LINE
8
CHANNEL
10
564.9358
20
53.3853
30
0.0
11
565.0500
21
56.0000
31
0.0
0
LINE
8
CHANNEL
10
565.0500
20
56.0000
30
0.0
11
565.0500
21
329.7500
31
0.0
0
LINE
8
CHANNEL
10
565.0500
20
329.7500
30
0.0
11
564.9358
21
332.3647
31
0.0
0
LINE
8
CHANNEL
10
564.9358
20
332.3647
30
0.0
11
564.5942
21
334.9594
31
0.0
0
LINE
8
CHANNEL
10
564.5942
20
334.9594
30
0.0
11
564.0278
21
337.5146
31
0.0
0
LINE
8
CHANNEL
10
564.0278
20
337.5146
30
0.0
11
563.2408
21
340.0106
31
0.0
0
LINE
8
CHANNEL
10
563.2408
20
340.0106
30
0.0
11
562.2392
21
342.4285
31
0.0
0
LINE
8
CHANNEL
10
562.2392
20
342.4285
30
0.0
11
561.0308
21
344.7500
31
0.0
0
LINE
8
CHANNEL
10
561.0308
20
344.7500
30
0.0
11
559.6246
21
346.9573
31
0.0
0
LINE
8
CHANNEL
10
559.6246
20
346.9573
30
0.0
11
558.0313
21
349.0336
31
0.0
0
LINE
8
CHANNEL
10
558.0313
20
349.0336
30
0.0
11
556.2632
21
350.9632
31
0.0
0
LINE
8
CHANNEL
10
556.2632
20
350.9632
30
0.0
11
554.3336
21
352.7313
31
0.0
0
LINE
8
CHANNEL
10
554.3336
20
352.7313
30
0.0
11
552.2573
21
354.3246
31
0.0
0
LINE
8
CHANNEL
10
552.2573
20
354.3246
30
0.0
11
550.0500
21
355.7308
31
0.0
0
LINE
8
CHANNEL
10
550.0500
20
355.7308
30
0.0
11
547.7285
21
356.9392
31
0.0
0
LINE
8
CHANNEL
10
547.7285
20
356.9392
30
0.0
11
545.3106
21
357.9408
31
0.0
0
LINE
8
CHANNEL
10
545.3106
20
357.9408
30
0.0
11
542.8146
21
358.7278
31
0.0
0
LINE
8
CHANNEL
10
542.8146
20
358.7278
30
0.0
11
540.2594
21
359.2942
31
0.0
0
LINE
8
CHANNEL
10
540.2594
20
359.2942
30
0.0
11
537.6647
21
359.6358
31
0.0
0
LINE
8
CHANNEL
10
537.6647
20
359.6358
30
0.0
11
535.0500
21
359.7500
31
0.0
0
LINE
8
CHANNEL
10
535.0500
20
359.7500
30
0.0
11
56.0000
21
359.7500
31
0.0
0
LINE
8
CHANNEL
10
56.0000
20
359.7500
30
0.0
11
53.3853
21
359.6358
31
0.0
0
LINE
8
CHANNEL
10
53.3853
20
359.6358
30
0.0
11
50.7906
21
359.2942
31
0.0
0
LINE
8
CHANNEL
10
50.7906
20
359.2942
30
0.0
11
48.2354
21
358.7278
31
0.0
0
LINE
8
CHANNEL
10
48.2354
20
358.7278
30
0.0
11
45.7394
21
357.9408
31
0.0
0
LINE
8
CHANNEL
10
45.7394
20
357.9408
30
0.0
11
43.3215
21
356.9392
31
0.0
0
LINE
8
CHANNEL
10
43.3215
20
356.9392
30
0.0
11
41.0000
21
355.7308
31
0.0
0
LINE
8
CHANNEL
10
41.0000
20
355.7308
30
0.0
11
38.7927
21
354.3246
31
0.0
0
LINE
8
CHANNEL
10
38.7927
20
354.3246
30
0.0
11
36.7164
21
352.7313
31
0.0
0
LINE
8
CHANNEL
10
36.7164
20
352.7313
30
0.0
11
34.7868
21
350.9632
31
0.0
0
LINE
8
CHANNEL
10
34.7868
20
350.9632
30
0.0
11
33.0187
21
349.0336
31
0.0
0
LINE
8
CHANNEL
10
33.0187
20
349.0336
30
0.0
11
31.4254
21
346.9573
31
0.0
0
LINE
8
CHANNEL
10
31.4254
20
346.9573
30
0.0
11
30.0192
21
344.7500
31
0.0
0
LINE
8
CHANNEL
10
30.0192
20
344.7500
30
0.0
11
28.8108
21
342.4285
31
0.0
0
LINE
8
CHANNEL
10
28.8108
20
342.4285
30
0.0
11
27.8092
21
340.0106
31
0.0
0
LINE
8
CHANNEL
10
27.8092
20
340.0106
30
0.0
11
27.0222
21
337.5146
31
0.0
0
LINE
8
CHANNEL
10
27.0222
20
337.5146
30
0.0
11
26.4558
21
334.9594
31
0.0
0
LINE
8
CHANNEL
10
26.4558
20
334.9594
30
0.0
11
26.1142
21
332.3647
31
0.0
0
LINE
8
CHANNEL
10
26.1142
20
332.3647
30
0.0
11
26.0000
21
329.7500
31
0.0
0
LINE
8
CHANNEL
10
26.0000
20
329.7500
30
0.0
11
26.0000
21
56.0000
31
0.0
0
LINE
8
CHANNEL
10
26.0000
20
56.0000
30
0.0
11
26.1142
21
53.3853
31
0.0
0
LINE
8
CHANNEL
10
26.1142
20
53.3853
30
0.0
11
26.4558
21
50.7906
31
0.0
0
LINE
8
CHANNEL
10
26.4558
20
50.7906
30
0.0
11
27.0222
21
48.2354
31
0.0
0
LINE
8
CHANNEL
10
27.0222
20
48.2354
30
0.0
11
27.8092
21
45.7394
31
0.0
0
LINE
8
CHANNEL
10
27.8092
20
45.7394
30
0.0
11
28.8108
21
43.3215
31
0.0
0
LINE
8
CHANNEL
10
28.8108
20
43.3215
30
0.0
11
30.0192
21
41.0000
31
0.0
0
LINE
8
CHANNEL
10
30.0192
20
41.0000
30
0.0
11
31.4254
21
38.7927
31
0.0
0
LINE
8
CHANNEL
10
31.4254
20
38.7927
30
0.0
11
33.0187
21
36.7164
31
0.0
0
LINE
8
CHANNEL
10
33.0187
20
36.7164
30
0.0
11
34.7868
21
34.7868
31
0.0
0
LINE
8
CHANNEL
10
34.7868
20
34.7868
30
0.0
11
36.7164
21
33.0187
31
0.0
0
LINE
8
CHANNEL
10
36.7164
20
33.0187
30
0.0
11
38.7927
21
31.4254
31
0.0
0
LINE
8
CHANNEL
10
38.7927
20
31.4254
30
0.0
11
41.0000
21
30.0192
31
0.0
0
LINE
8
CHANNEL
10
41.0000
20
30.0192
30
0.0
11
43.3215
21
28.8108
31
0.0
0
LINE
8
CHANNEL
10
43.3215
20
28.8108
30
0.0
11
45.7394
21
27.8092
31
0.0
0
LINE
8
CHANNEL
10
45.7394
20
27.8092
30
0.0
11
48.2354
21
27.0222
31
0.0
0
LINE
8
CHANNEL
10
48.2354
20
27.0222
30
0.0
11
50.7906
21
26.4558
31
0.0
0
LINE
8
CHANNEL
10
50.7906
20
26.4558
30
0.0
11
53.3853
21
26.1142
31
0.0
0
LINE
8
CHANNEL
10
53.3853
20
26.1142
30
0.0
11
56.0000
21
26.0000
31
0.0
0
LINE
8
CHANNEL
10
56.0000
20
26.0000
30
0.0
11
535.0500
21
26.0000
31
0.0
0
LINE
8
CHANNEL
10
535.0500
20
22.0000
30
0.0
11
538.0133
21
22.1294
31
0.0
0
LINE
8
CHANNEL
10
538.0133
20
22.1294
30
0.0
11
540.9540
21
22.5165
31
0.0
0
LINE
8
CHANNEL
10
540.9540
20
22.5165
30
0.0
11
543.8498
21
23.1585
31
0.0
0
LINE
8
CHANNEL
10
543.8498
20
23.1585
30
0.0
11
546.6787
21
24.0505
31
0.0
0
LINE
8
CHANNEL
10
546.6787
20
24.0505
30
0.0
11
549.4190
21
25.1855
31
0.0
0
LINE
8
CHANNEL
10
549.4190
20
25.1855
30
0.0
11
552.0500
21
26.5551
31
0.0
0
LINE
8
CHANNEL
10
552.0500
20
26.5551
30
0.0
11
554.5516
21
28.1488
31
0.0
0
LINE
8
CHANNEL
10
554.5516
20
28.1488
30
0.0
11
556.9048
21
29.9545
31
0.0
0
LINE
8
CHANNEL
10
556.9048
20
29.9545
30
0.0
11
559.0916
21
31.9584
31
0.0
0
LINE
8
CHANNEL
10
559.0916
20
31.9584
30
0.0
11
561.0955
21
34.1452
31
0.0
0
LINE
8
CHANNEL
10
561.0955
20
34.1452
30
0.0
11
562.9012
21
36.4984
31
0.0
0
LINE
8
CHANNEL
10
562.9012
20
36.4984
30
0.0
11
564.4949
21
39.0000
31
0.0
0
LINE
8
CHANNEL
10
564.4949
20
39.0000
30
0.0
11
565.8645
21
41.6310
31
0.0
0
LINE
8
CHANNEL
10
565.8645
20
41.6310
30
0.0
11
566.9995
21
44.3713
31
0.0
0
LINE
8
CHANNEL
10
566.9995
20
44.3713
30
0.0
11
567.8915
21
47.2002
31
0.0
0
LINE
8
CHANNEL
10
567.8915
20
47.2002
30
0.0
11
568.5335
21
50.0960
31
0.0
0
LINE
8
CHANNEL
10
568.5335
20
50.0960
30
0.0
11
568.9206
21
53.0367
31
0.0
0
LINE
8
CHANNEL
10
568.9206
20
53.0367
30
0.0
11
569.0500
21
56.0000
31
0.0
0
LINE
8
CHANNEL
10
569.0500
20
56.0000
30
0.0
11
569.0500
21
329.7500
31
0.0
0
LINE
8
CHANNEL
10
569.0500
20
329.7500
30
0.0
11
568.9206
21
332.7133
31
0.0
0
LINE
8
CHANNEL
10
568.9206
20
332.7133
30
0.0
11
568.5335
21
335.6540
31
0.0
0
LINE
8
CHANNEL
10
568.5335
20
335.6540
30
0.0
11
567.8915
21
338.5498
31
0.0
0
LINE
8
CHANNEL
10
567.8915
20
338.5498
30
0.0
11
566.9995
21
341.3787
31
0.0
0
LINE
8
CHANNEL
10
566.9995
20
341.3787
30
0.0
11
565.8645
21
344.1190
31
0.0
0
LINE
8
CHANNEL
10
565.8645
20
344.1190
30
0.0
11
564.4949
21
346.7500
31
0.0
0
LINE
8
CHANNEL
10
564.4949
20
346.7500
30
0.0
11
562.9012
21
349.2516
31
0.0
0
LINE
8
CHANNEL
10
562.9012
20
349.2516
30
0.0
11
561.0955
21
351.6048
31
0.0
0
LINE
8
CHANNEL
10
561.0955
20
351.6048
30
0.0
11
559.0916
21
353.7916
31
0.0
0
LINE
8
CHANNEL
10
559.0916
20
353.7916
30
0.0
11
556.9048
21
355.7955
31
0.0
0
LINE
8
CHANNEL
10
556.9048
20
355.7955
30
0.0
11
554.5516
21
357.6012
31
0.0
0
LINE
8
CHANNEL
10
554.5516
20
357.6012
30
0.0
11
552.0500
21
359.1949
31
0.0
0
LINE
8
CHANNEL
10
552.0500
20
359.1949
30
0.0
11
549.4190
21
360.5645
31
0.0
0
LINE
8
CHANNEL
10
549.4190
20
360.5645
30
0.0
11
546.6787
21
361.6995
31
0.0
0
LINE
8
CHANNEL
10
546.6787
20
361.6995
30
0.0
11
543.8498
21
362.5915
31
0.0
0
LINE
8
CHANNEL
10
543.8498
20
362.5915
30
0.0
11
540.9540
21
363.2335
31
0.0
0
LINE
8
CHANNEL
10
540.9540
20
363.2335
30
0.0
11
538.0133
21
363.6206
31
0.0
0
LINE
8
CHANNEL
10
538.0133
20
363.6206
30
0.0
11
535.0500
21
363.7500
31
0.0
0
LINE
8
CHANNEL
10
535.0500
20
363.7500
30
0.0
11
56.0000
21
363.7500
31
0.0
0
LINE
8
CHANNEL
10
56.0000
20
363.7500
30
0.0
11
53.0367
21
363.6206
31
0.0
0
LINE
8
CHANNEL
10
53.0367
20
363.6206
30
0.0
11
50.0960
21
363.2335
31
0.0
0
LINE
8
CHANNEL
10
50.0960
20
363.2335
30
0.0
11
47.2002
21
362.5915
31
0.0
0
LINE
8
CHANNEL
10
47.2002
20
362.5915
30
0.0
11
44.3713
21
361.6995
31
0.0
0
LINE
8
CHANNEL
10
44.3713
20
361.6995
30
0.0
11
41.6310
21
360.5645
31
0.0
0
LINE
8
CHANNEL
10
41.6310
20
360.5645
30
0.0
11
39.0000
21
359.1949
31
0.0
0
LINE
8
CHANNEL
10
39.0000
20
359.1949
30
0.0
11
36.4984
21
357.6012
31
0.0
0
LINE
8
CHANNEL
10
36.4984
20
357.6012
30
0.0
11
34.1452
21
355.7955
31
0.0
0
LINE
8
CHANNEL
10
34.1452
20
355.7955
30
0.0
11
31.9584
21
353.7916
31
0.0
0
LINE
8
CHANNEL
10
31.9584
20
353.7916
30
0.0
11
29.9545
21
351.6048
31
0.0
0
LINE
8
CHANNEL
10
29.9545
20
351.6048
30
0.0
11
28.1488
21
349.2516
31
0.0
0
LINE
8
CHANNEL
10
28.1488
20
349.2516
30
0.0
11
26.5551
21
346.7500
31
0.0
0
LINE
8
CHANNEL
10
26.5551
20
346.7500
30
0.0
11
25.1855
21
344.1190
31
0.0
0
LINE
8
CHANNEL
10
25.1855
20
344.1190
30
0.0
11
24.0505
21
341.3787
31
0.0
0
LINE
8
CHANNEL
10
24.0505
20
341.3787
30
0.0
11
23.1585
21
338.5498
31
0.0
0
LINE
8
CHANNEL
10
23.1585
20
338.5498
30
0.0
11
22.5165
21
335.6540
31
0.0
0
LINE
8
CHANNEL
10
22.5165
20
335.6540
30
0.0
11
22.1294
21
332.7133
31
0.0
0
LINE
8
CHANNEL
10
22.1294
20
332.7133
30
0.0
11
22.0000
21
329.7500
31
0.0
0
LINE
8
CHANNEL
10
22.0000
20
329.7500
30
0.0
11
22.0000
21
56.0000
31
0.0
0
LINE
8
CHANNEL
10
22.0000
20
56.0000
30
0.0
11
22.1294
21
53.0367
31
0.0
0
LINE
8
CHANNEL
10
22.1294
20
53.0367
30
0.0
11
22.5165
21
50.0960
31
0.0
0
LINE
8
CHANNEL
10
22.5165
20
50.0960
30
0.0
11
23.1585
21
47.2002
31
0.0
0
LINE
8
CHANNEL
10
23.1585
20
47.2002
30
0.0
11
24.0505
21
44.3713
31
0.0
0
LINE
8
CHANNEL
10
24.0505
20
44.3713
30
0.0
11
25.1855
21
41.6310
31
0.0
0
LINE
8
CHANNEL
10
25.1855
20
41.6310
30
0.0
11
26.5551
21
39.0000
31
0.0
0
LINE
8
CHANNEL
10
26.5551
20
39.0000
30
0.0
11
28.1488
21
36.4984
31
0.0
0
LINE
8
CHANNEL
10
28.1488
20
36.4984
30
0.0
11
29.9545
21
34.1452
31
0.0
0
LINE
8
CHANNEL
10
29.9545
20
34.1452
30
0.0
11
31.9584
21
31.9584
31
0.0
0
LINE
8
CHANNEL
10
31.9584
20
31.9584
30
0.0
11
34.1452
21
29.9545
31
0.0
0
LINE
8
CHANNEL
10
34.1452
20
29.9545
30
0.0
11
36.4984
21
28.1488
31
0.0
0
LINE
8
CHANNEL
10
36.4984
20
28.1488
30
0.0
11
39.0000
21
26.5551
31
0.0
0
LINE
8
CHANNEL
10
39.0000
20
26.5551
30
0.0
11
41.6310
21
25.1855
31
0.0
0
LINE
8
CHANNEL
10
41.6310
20
25.1855
30
0.0
11
44.3713
21
24.0505
31
0.0
0
LINE
8
CHANNEL
10
44.3713
20
24.0505
30
0.0
11
47.2002
21
23.1585
31
0.0
0
LINE
8
CHANNEL
10
47.2002
20
23.1585
30
0.0
11
50.0960
21
22.5165
31
0.0
0
LINE
8
CHANNEL
10
50.0960
20
22.5165
30
0.0
11
53.0367
21
22.1294
31
0.0
0
LINE
8
CHANNEL
10
53.0367
20
22.1294
30
0.0
11
56.0000
21
22.0000
31
0.0
0
LINE
8
CHANNEL
10
56.0000
20
22.0000
30
0.0
11
535.0500
21
22.0000
31
0.0
0
CIRCLE
8
HOLES
10
535.0500
20
12.0000
30
0.0
40
2.7000
0
CIRCLE
8
HOLES
10
579.0500
20
135.4085
30
0.0
40
2.7000
0
CIRCLE
8
HOLES
10
579.0500
20
283.9042
30
0.0
40
2.7000
0
CIRCLE
8
HOLES
10
501.4873
20
373.7500
30
0.0
40
2.7000
0
CIRCLE
8
HOLES
10
352.9915
20
373.7500
30
0.0
40
2.7000
0
CIRCLE
8
HOLES
10
204.4958
20
373.7500
30
0.0
40
2.7000
0
CIRCLE
8
HOLES
10
56.0000
20
373.7500
30
0.0
40
2.7000
0
CIRCLE
8
HOLES
10
12.0000
20
250.3415
30
0.0
40
2.7000
0
CIRCLE
8
HOLES
10
12.0000
20
101.8458
30
0.0
40
2.7000
0
CIRCLE
8
HOLES
10
89.5627
20
12.0000
30
0.0
40
2.7000
0
CIRCLE
8
HOLES
10
238.0585
20
12.0000
30
0.0
40
2.7000
0
CIRCLE
8
HOLES
10
386.5542
20
12.0000
30
0.0
40
2.7000
0
ENDSEC
0
EOF
