0
SECTION
2
ENTITIES
0
LINE
8
CUT
10
0.0000
20
66.0000
30
0.0
11
0.0000
21
56.0000
31
0.0
0
LINE
8
CUT
10
0.0000
20
56.0000
30
0.0
11
0.0000
21
56.0000
31
0.0
0
LINE
8
CUT
10
0.0000
20
56.0000
30
0.0
11
0.1199
21
52.3374
31
0.0
0
LINE
8
CUT
10
0.1199
20
52.3374
30
0.0
11
0.4791
21
48.6905
31
0.0
0
LINE
8
CUT
10
0.4791
20
48.6905
30
0.0
11
1.0760
21
45.0749
31
0.0
0
LINE
8
CUT
10
1.0760
20
45.0749
30
0.0
11
1.9082
21
41.5061
31
0.0
0
LINE
8
CUT
10
1.9082
20
41.5061
30
0.0
11
2.9719
21
37.9994
31
0.0
0
LINE
8
CUT
10
2.9719
20
37.9994
30
0.0
11
4.2627
21
34.5697
31
0.0
0
LINE
8
CUT
10
4.2627
20
34.5697
30
0.0
11
5.7751
21
31.2318
31
0.0
0
LINE
8
CUT
10
5.7751
20
31.2318
30
0.0
11
7.5026
21
28.0000
31
0.0
0
LINE
8
CUT
10
7.5026
20
28.0000
30
0.0
11
9.4377
21
24.8881
31
0.0
0
LINE
8
CUT
10
9.4377
20
24.8881
30
0.0
11
11.5722
21
21.9094
31
0.0
0
LINE
8
CUT
10
11.5722
20
21.9094
30
0.0
11
13.8970
21
19.0766
31
0.0
0
LINE
8
CUT
10
13.8970
20
19.0766
30
0.0
11
16.4020
21
16.4020
31
0.0
0
LINE
8
CUT
10
16.4020
20
16.4020
30
0.0
11
19.0766
21
13.8970
31
0.0
0
LINE
8
CUT
10
19.0766
20
13.8970
30
0.0
11
21.9094
21
11.5722
31
0.0
0
LINE
8
CUT
10
21.9094
20
11.5722
30
0.0
11
24.8881
21
9.4377
31
0.0
0
LINE
8
CUT
10
24.8881
20
9.4377
30
0.0
11
28.0000
21
7.5026
31
0.0
0
LINE
8
CUT
10
28.0000
20
7.5026
30
0.0
11
31.2318
21
5.7751
31
0.0
0
LINE
8
CUT
10
31.2318
20
5.7751
30
0.0
11
34.5697
21
4.2627
31
0.0
0
LINE
8
CUT
10
34.5697
20
4.2627
30
0.0
11
37.9994
21
2.9719
31
0.0
0
LINE
8
CUT
10
37.9994
20
2.9719
30
0.0
11
41.5061
21
1.9082
31
0.0
0
LINE
8
CUT
10
41.5061
20
1.9082
30
0.0
11
45.0749
21
1.0760
31
0.0
0
LINE
8
CUT
10
45.0749
20
1.0760
30
0.0
11
48.6905
21
0.4791
31
0.0
0
LINE
8
CUT
10
48.6905
20
0.4791
30
0.0
11
52.3374
21
0.1199
31
0.0
0
LINE
8
CUT
10
52.3374
20
0.1199
30
0.0
11
56.0000
21
0.0000
31
0.0
0
LINE
8
CUT
10
56.0000
20
0.0000
30
0.0
11
535.0500
21
0.0000
31
0.0
0
LINE
8
CUT
10
535.0500
20
0.0000
30
0.0
11
535.0500
21
0.0000
31
0.0
0
LINE
8
CUT
10
535.0500
20
0.0000
30
0.0
11
538.7126
21
0.1199
31
0.0
0
LINE
8
CUT
10
538.7126
20
0.1199
30
0.0
11
542.3595
21
0.4791
31
0.0
0
LINE
8
CUT
10
542.3595
20
0.4791
30
0.0
11
545.9751
21
1.0760
31
0.0
0
LINE
8
CUT
10
545.9751
20
1.0760
30
0.0
11
549.5439
21
1.9082
31
0.0
0
LINE
8
CUT
10
549.5439
20
1.9082
30
0.0
11
553.0506
21
2.9719
31
0.0
0
LINE
8
CUT
10
553.0506
20
2.9719
30
0.0
11
556.4803
21
4.2627
31
0.0
0
LINE
8
CUT
10
556.4803
20
4.2627
30
0.0
11
559.8182
21
5.7751
31
0.0
0
LINE
8
CUT
10
559.8182
20
5.7751
30
0.0
11
563.0500
21
7.5026
31
0.0
0
LINE
8
CUT
10
563.0500
20
7.5026
30
0.0
11
566.1619
21
9.4377
31
0.0
0
LINE
8
CUT
10
566.1619
20
9.4377
30
0.0
11
569.1406
21
11.5722
31
0.0
0
LINE
8
CUT
10
569.1406
20
11.5722
30
0.0
11
571.9734
21
13.8970
31
0.0
0
LINE
8
CUT
10
571.9734
20
13.8970
30
0.0
11
574.6480
21
16.4020
31
0.0
0
LINE
8
CUT
10
574.6480
20
16.4020
30
0.0
11
577.1530
21
19.0766
31
0.0
0
LINE
8
CUT
10
577.1530
20
19.0766
30
0.0
11
579.4778
21
21.9094
31
0.0
0
LINE
8
CUT
10
579.4778
20
21.9094
30
0.0
11
581.6123
21
24.8881
31
0.0
0
LINE
8
CUT
10
581.6123
20
24.8881
30
0.0
11
583.5474
21
28.0000
31
0.0
0
LINE
8
CUT
10
583.5474
20
28.0000
30
0.0
11
585.2749
21
31.2318
31
0.0
0
LINE
8
CUT
10
585.2749
20
31.2318
30
0.0
11
586.7873
21
34.5697
31
0.0
0
LINE
8
CUT
10
586.7873
20
34.5697
30
0.0
11
588.0781
21
37.9994
31
0.0
0
LINE
8
CUT
10
588.0781
20
37.9994
30
0.0
11
589.1418
21
41.5061
31
0.0
0
LINE
8
CUT
10
589.1418
20
41.5061
30
0.0
11
589.9740
21
45.0749
31
0.0
0
LINE
8
CUT
10
589.9740
20
45.0749
30
0.0
11
590.5709
21
48.6905
31
0.0
0
LINE
8
CUT
10
590.5709
20
48.6905
30
0.0
11
590.9301
21
52.3374
31
0.0
0
LINE
8
CUT
10
590.9301
20
52.3374
30
0.0
11
591.0500
21
56.0000
31
0.0
0
LINE
8
CUT
10
591.0500
20
56.0000
30
0.0
11
591.0500
21
66.0000
31
0.0
0
LINE
8
CUT
10
591.0500
20
66.0000
30
0.0
11
557.0500
21
66.0000
31
0.0
0
LINE
8
CUT
10
557.0500
20
66.0000
30
0.0
11
557.0500
21
56.0000
31
0.0
0
LINE
8
CUT
10
557.0500
20
56.0000
30
0.0
11
557.0500
21
56.0000
31
0.0
0
LINE
8
CUT
10
557.0500
20
56.0000
30
0.0
11
557.0029
21
54.5611
31
0.0
0
LINE
8
CUT
10
557.0029
20
54.5611
30
0.0
11
556.8618
21
53.1284
31
0.0
0
LINE
8
CUT
10
556.8618
20
53.1284
30
0.0
11
556.6273
21
51.7080
31
0.0
0
LINE
8
CUT
10
556.6273
20
51.7080
30
0.0
11
556.3004
21
50.3060
31
0.0
0
LINE
8
CUT
10
556.3004
20
50.3060
30
0.0
11
555.8825
21
48.9283
31
0.0
0
LINE
8
CUT
10
555.8825
20
48.9283
30
0.0
11
555.3753
21
47.5810
31
0.0
0
LINE
8
CUT
10
555.3753
20
47.5810
30
0.0
11
554.7812
21
46.2696
31
0.0
0
LINE
8
CUT
10
554.7812
20
46.2696
30
0.0
11
554.1026
21
45.0000
31
0.0
0
LINE
8
CUT
10
554.1026
20
45.0000
30
0.0
11
553.3423
21
43.7775
31
0.0
0
LINE
8
CUT
10
553.3423
20
43.7775
30
0.0
11
552.5038
21
42.6072
31
0.0
0
LINE
8
CUT
10
552.5038
20
42.6072
30
0.0
11
551.5905
21
41.4944
31
0.0
0
LINE
8
CUT
10
551.5905
20
41.4944
30
0.0
11
550.6063
21
40.4437
31
0.0
0
LINE
8
CUT
10
550.6063
20
40.4437
30
0.0
11
549.5556
21
39.4595
31
0.0
0
LINE
8
CUT
10
549.5556
20
39.4595
30
0.0
11
548.4428
21
38.5462
31
0.0
0
LINE
8
CUT
10
548.4428
20
38.5462
30
0.0
11
547.2725
21
37.7077
31
0.0
0
LINE
8
CUT
10
547.2725
20
37.7077
30
0.0
11
546.0500
21
36.9474
31
0.0
0
LINE
8
CUT
10
546.0500
20
36.9474
30
0.0
11
544.7804
21
36.2688
31
0.0
0
LINE
8
CUT
10
544.7804
20
36.2688
30
0.0
11
543.4690
21
35.6747
31
0.0
0
LINE
8
CUT
10
543.4690
20
35.6747
30
0.0
11
542.1217
21
35.1675
31
0.0
0
LINE
8
CUT
10
542.1217
20
35.1675
30
0.0
11
540.7440
21
34.7496
31
0.0
0
LINE
8
CUT
10
540.7440
20
34.7496
30
0.0
11
539.3420
21
34.4227
31
0.0
0
LINE
8
CUT
10
539.3420
20
34.4227
30
0.0
11
537.9216
21
34.1882
31
0.0
0
LINE
8
CUT
10
537.9216
20
34.1882
30
0.0
11
536.4889
21
34.0471
31
0.0
0
LINE
8
CUT
10
536.4889
20
34.0471
30
0.0
11
535.0500
21
34.0000
31
0.0
0
LINE
8
CUT
10
535.0500
20
34.0000
30
0.0
11
56.0000
21
34.0000
31
0.0
0
LINE
8
CUT
10
56.0000
20
34.0000
30
0.0
11
56.0000
21
34.0000
31
0.0
0
LINE
8
CUT
10
56.0000
20
34.0000
30
0.0
11
54.5611
21
34.0471
31
0.0
0
LINE
8
CUT
10
54.5611
20
34.0471
30
0.0
11
53.1284
21
34.1882
31
0.0
0
LINE
8
CUT
10
53.1284
20
34.1882
30
0.0
11
51.7080
21
34.4227
31
0.0
0
LINE
8
CUT
10
51.7080
20
34.4227
30
0.0
11
50.3060
21
34.7496
31
0.0
0
LINE
8
CUT
10
50.3060
20
34.7496
30
0.0
11
48.9283
21
35.1675
31
0.0
0
LINE
8
CUT
10
48.9283
20
35.1675
30
0.0
11
47.5810
21
35.6747
31
0.0
0
LINE
8
CUT
10
47.5810
20
35.6747
30
0.0
11
46.2696
21
36.2688
31
0.0
0
LINE
8
CUT
10
46.2696
20
36.2688
30
0.0
11
45.0000
21
36.9474
31
0.0
0
LINE
8
CUT
10
45.0000
20
36.9474
30
0.0
11
43.7775
21
37.7077
31
0.0
0
LINE
8
CUT
10
43.7775
20
37.7077
30
0.0
11
42.6072
21
38.5462
31
0.0
0
LINE
8
CUT
10
42.6072
20
38.5462
30
0.0
11
41.4944
21
39.4595
31
0.0
0
LINE
8
CUT
10
41.4944
20
39.4595
30
0.0
11
40.4437
21
40.4437
31
0.0
0
LINE
8
CUT
10
40.4437
20
40.4437
30
0.0
11
39.4595
21
41.4944
31
0.0
0
LINE
8
CUT
10
39.4595
20
41.4944
30
0.0
11
38.5462
21
42.6072
31
0.0
0
LINE
8
CUT
10
38.5462
20
42.6072
30
0.0
11
37.7077
21
43.7775
31
0.0
0
LINE
8
CUT
10
37.7077
20
43.7775
30
0.0
11
36.9474
21
45.0000
31
0.0
0
LINE
8
CUT
10
36.9474
20
45.0000
30
0.0
11
36.2688
21
46.2696
31
0.0
0
LINE
8
CUT
10
36.2688
20
46.2696
30
0.0
11
35.6747
21
47.5810
31
0.0
0
LINE
8
CUT
10
35.6747
20
47.5810
30
0.0
11
35.1675
21
48.9283
31
0.0
0
LINE
8
CUT
10
35.1675
20
48.9283
30
0.0
11
34.7496
21
50.3060
31
0.0
0
LINE
8
CUT
10
34.7496
20
50.3060
30
0.0
11
34.4227
21
51.7080
31
0.0
0
LINE
8
CUT
10
34.4227
20
51.7080
30
0.0
11
34.1882
21
53.1284
31
0.0
0
LINE
8
CUT
10
34.1882
20
53.1284
30
0.0
11
34.0471
21
54.5611
31
0.0
0
LINE
8
CUT
10
34.0471
20
54.5611
30
0.0
11
34.0000
21
56.0000
31
0.0
0
LINE
8
CUT
10
34.0000
20
56.0000
30
0.0
11
34.0000
21
66.0000
31
0.0
0
LINE
8
CUT
10
34.0000
20
66.0000
30
0.0
11
0.0000
21
66.0000
31
0.0
0
CIRCLE
8
HOLES
10
535.0500
20
12.0000
30
0.0
40
2.7000
0
CIRCLE
8
HOLES
10
89.5627
20
12.0000
30
0.0
40
2.7000
0
CIRCLE
8
HOLES
10
238.0585
20
12.0000
30
0.0
40
2.7000
0
CIRCLE
8
HOLES
10
386.5542
20
12.0000
30
0.0
40
2.7000
0
ENDSEC
0
EOF
