0
SECTION
2
ENTITIES
0
LINE
8
CUT
10
533.5500
20
0.0000
30
0.0
11
538.3000
21
0.2074
31
0.0
0
LINE
8
CUT
10
538.3000
20
0.2074
30
0.0
11
543.0138
21
0.8280
31
0.0
0
LINE
8
CUT
10
543.0138
20
0.8280
30
0.0
11
547.6556
21
1.8570
31
0.0
0
LINE
8
CUT
10
547.6556
20
1.8570
30
0.0
11
552.1901
21
3.2868
31
0.0
0
LINE
8
CUT
10
552.1901
20
3.2868
30
0.0
11
556.5827
21
5.1062
31
0.0
0
LINE
8
CUT
10
556.5827
20
5.1062
30
0.0
11
560.8000
21
7.3016
31
0.0
0
LINE
8
CUT
10
560.8000
20
7.3016
30
0.0
11
564.8099
21
9.8562
31
0.0
0
LINE
8
CUT
10
564.8099
20
9.8562
30
0.0
11
568.5819
21
12.7506
31
0.0
0
LINE
8
CUT
10
568.5819
20
12.7506
30
0.0
11
572.0873
21
15.9627
31
0.0
0
LINE
8
CUT
10
572.0873
20
15.9627
30
0.0
11
575.2994
21
19.4681
31
0.0
0
LINE
8
CUT
10
575.2994
20
19.4681
30
0.0
11
578.1938
21
23.2401
31
0.0
0
LINE
8
CUT
10
578.1938
20
23.2401
30
0.0
11
580.7484
21
27.2500
31
0.0
0
LINE
8
CUT
10
580.7484
20
27.2500
30
0.0
11
582.9438
21
31.4673
31
0.0
0
LINE
8
CUT
10
582.9438
20
31.4673
30
0.0
11
584.7632
21
35.8599
31
0.0
0
LINE
8
CUT
10
584.7632
20
35.8599
30
0.0
11
586.1930
21
40.3944
31
0.0
0
LINE
8
CUT
10
586.1930
20
40.3944
30
0.0
11
587.2220
21
45.0362
31
0.0
0
LINE
8
CUT
10
587.2220
20
45.0362
30
0.0
11
587.8426
21
49.7500
31
0.0
0
LINE
8
CUT
10
587.8426
20
49.7500
30
0.0
11
588.0500
21
54.5000
31
0.0
0
LINE
8
CUT
10
588.0500
20
54.5000
30
0.0
11
588.0500
21
328.2500
31
0.0
0
LINE
8
CUT
10
588.0500
20
328.2500
30
0.0
11
587.8426
21
333.0000
31
0.0
0
LINE
8
CUT
10
587.8426
20
333.0000
30
0.0
11
587.2220
21
337.7138
31
0.0
0
LINE
8
CUT
10
587.2220
20
337.7138
30
0.0
11
586.1930
21
342.3556
31
0.0
0
LINE
8
CUT
10
586.1930
20
342.3556
30
0.0
11
584.7632
21
346.8901
31
0.0
0
LINE
8
CUT
10
584.7632
20
346.8901
30
0.0
11
582.9438
21
351.2827
31
0.0
0
LINE
8
CUT
10
582.9438
20
351.2827
30
0.0
11
580.7484
21
355.5000
31
0.0
0
LINE
8
CUT
10
580.7484
20
355.5000
30
0.0
11
578.1938
21
359.5099
31
0.0
0
LINE
8
CUT
10
578.1938
20
359.5099
30
0.0
11
575.2994
21
363.2819
31
0.0
0
LINE
8
CUT
10
575.2994
20
363.2819
30
0.0
11
572.0873
21
366.7873
31
0.0
0
LINE
8
CUT
10
572.0873
20
366.7873
30
0.0
11
568.5819
21
369.9994
31
0.0
0
LINE
8
CUT
10
568.5819
20
369.9994
30
0.0
11
564.8099
21
372.8938
31
0.0
0
LINE
8
CUT
10
564.8099
20
372.8938
30
0.0
11
560.8000
21
375.4484
31
0.0
0
LINE
8
CUT
10
560.8000
20
375.4484
30
0.0
11
556.5827
21
377.6438
31
0.0
0
LINE
8
CUT
10
556.5827
20
377.6438
30
0.0
11
552.1901
21
379.4632
31
0.0
0
LINE
8
CUT
10
552.1901
20
379.4632
30
0.0
11
547.6556
21
380.8930
31
0.0
0
LINE
8
CUT
10
547.6556
20
380.8930
30
0.0
11
543.0138
21
381.9220
31
0.0
0
LINE
8
CUT
10
543.0138
20
381.9220
30
0.0
11
538.3000
21
382.5426
31
0.0
0
LINE
8
CUT
10
538.3000
20
382.5426
30
0.0
11
533.5500
21
382.7500
31
0.0
0
LINE
8
CUT
10
533.5500
20
382.7500
30
0.0
11
54.5000
21
382.7500
31
0.0
0
LINE
8
CUT
10
54.5000
20
382.7500
30
0.0
11
49.7500
21
382.5426
31
0.0
0
LINE
8
CUT
10
49.7500
20
382.5426
30
0.0
11
45.0362
21
381.9220
31
0.0
0
LINE
8
CUT
10
45.0362
20
381.9220
30
0.0
11
40.3944
21
380.8930
31
0.0
0
LINE
8
CUT
10
40.3944
20
380.8930
30
0.0
11
35.8599
21
379.4632
31
0.0
0
LINE
8
CUT
10
35.8599
20
379.4632
30
0.0
11
31.4673
21
377.6438
31
0.0
0
LINE
8
CUT
10
31.4673
20
377.6438
30
0.0
11
27.2500
21
375.4484
31
0.0
0
LINE
8
CUT
10
27.2500
20
375.4484
30
0.0
11
23.2401
21
372.8938
31
0.0
0
LINE
8
CUT
10
23.2401
20
372.8938
30
0.0
11
19.4681
21
369.9994
31
0.0
0
LINE
8
CUT
10
19.4681
20
369.9994
30
0.0
11
15.9627
21
366.7873
31
0.0
0
LINE
8
CUT
10
15.9627
20
366.7873
30
0.0
11
12.7506
21
363.2819
31
0.0
0
LINE
8
CUT
10
12.7506
20
363.2819
30
0.0
11
9.8562
21
359.5099
31
0.0
0
LINE
8
CUT
10
9.8562
20
359.5099
30
0.0
11
7.3016
21
355.5000
31
0.0
0
LINE
8
CUT
10
7.3016
20
355.5000
30
0.0
11
5.1062
21
351.2827
31
0.0
0
LINE
8
CUT
10
5.1062
20
351.2827
30
0.0
11
3.2868
21
346.8901
31
0.0
0
LINE
8
CUT
10
3.2868
20
346.8901
30
0.0
11
1.8570
21
342.3556
31
0.0
0
LINE
8
CUT
10
1.8570
20
342.3556
30
0.0
11
0.8280
21
337.7138
31
0.0
0
LINE
8
CUT
10
0.8280
20
337.7138
30
0.0
11
0.2074
21
333.0000
31
0.0
0
LINE
8
CUT
10
0.2074
20
333.0000
30
0.0
11
0.0000
21
328.2500
31
0.0
0
LINE
8
CUT
10
0.0000
20
328.2500
30
0.0
11
0.0000
21
54.5000
31
0.0
0
LINE
8
CUT
10
0.0000
20
54.5000
30
0.0
11
0.2074
21
49.7500
31
0.0
0
LINE
8
CUT
10
0.2074
20
49.7500
30
0.0
11
0.8280
21
45.0362
31
0.0
0
LINE
8
CUT
10
0.8280
20
45.0362
30
0.0
11
1.8570
21
40.3944
31
0.0
0
LINE
8
CUT
10
1.8570
20
40.3944
30
0.0
11
3.2868
21
35.8599
31
0.0
0
LINE
8
CUT
10
3.2868
20
35.8599
30
0.0
11
5.1062
21
31.4673
31
0.0
0
LINE
8
CUT
10
5.1062
20
31.4673
30
0.0
11
7.3016
21
27.2500
31
0.0
0
LINE
8
CUT
10
7.3016
20
27.2500
30
0.0
11
9.8562
21
23.2401
31
0.0
0
LINE
8
CUT
10
9.8562
20
23.2401
30
0.0
11
12.7506
21
19.4681
31
0.0
0
LINE
8
CUT
10
12.7506
20
19.4681
30
0.0
11
15.9627
21
15.9627
31
0.0
0
LINE
8
CUT
10
15.9627
20
15.9627
30
0.0
11
19.4681
21
12.7506
31
0.0
0
LINE
8
CUT
10
19.4681
20
12.7506
30
0.0
11
23.2401
21
9.8562
31
0.0
0
LINE
8
CUT
10
23.2401
20
9.8562
30
0.0
11
27.2500
21
7.3016
31
0.0
0
LINE
8
CUT
10
27.2500
20
7.3016
30
0.0
11
31.4673
21
5.1062
31
0.0
0
LINE
8
CUT
10
31.4673
20
5.1062
30
0.0
11
35.8599
21
3.2868
31
0.0
0
LINE
8
CUT
10
35.8599
20
3.2868
30
0.0
11
40.3944
21
1.8570
31
0.0
0
LINE
8
CUT
10
40.3944
20
1.8570
30
0.0
11
45.0362
21
0.8280
31
0.0
0
LINE
8
CUT
10
45.0362
20
0.8280
30
0.0
11
49.7500
21
0.2074
31
0.0
0
LINE
8
CUT
10
49.7500
20
0.2074
30
0.0
11
54.5000
21
0.0000
31
0.0
0
LINE
8
CUT
10
54.5000
20
0.0000
30
0.0
11
533.5500
21
0.0000
31
0.0
0
CIRCLE
8
HOLES
10
533.5500
20
10.5000
30
0.0
40
2.8000
0
CIRCLE
8
HOLES
10
577.5500
20
133.9085
30
0.0
40
2.8000
0
CIRCLE
8
HOLES
10
577.5500
20
282.4042
30
0.0
40
2.8000
0
CIRCLE
8
HOLES
10
499.9873
20
372.2500
30
0.0
40
2.8000
0
CIRCLE
8
HOLES
10
351.4915
20
372.2500
30
0.0
40
2.8000
0
CIRCLE
8
HOLES
10
202.9958
20
372.2500
30
0.0
40
2.8000
0
CIRCLE
8
HOLES
10
54.5000
20
372.2500
30
0.0
40
2.8000
0
CIRCLE
8
HOLES
10
10.5000
20
248.8415
30
0.0
40
2.8000
0
CIRCLE
8
HOLES
10
10.5000
20
100.3458
30
0.0
40
2.8000
0
CIRCLE
8
HOLES
10
88.0627
20
10.5000
30
0.0
40
2.8000
0
CIRCLE
8
HOLES
10
236.5585
20
10.5000
30
0.0
40
2.8000
0
CIRCLE
8
HOLES
10
385.0542
20
10.5000
30
0.0
40
2.8000
0
ENDSEC
0
EOF
