0
SECTION
2
ENTITIES
0
LINE
8
CUT
10
528.6000
20
0.0000
30
0.0
11
533.3500
21
0.2074
31
0.0
0
LINE
8
CUT
10
533.3500
20
0.2074
30
0.0
11
538.0638
21
0.8280
31
0.0
0
LINE
8
CUT
10
538.0638
20
0.8280
30
0.0
11
542.7056
21
1.8570
31
0.0
0
LINE
8
CUT
10
542.7056
20
1.8570
30
0.0
11
547.2401
21
3.2868
31
0.0
0
LINE
8
CUT
10
547.2401
20
3.2868
30
0.0
11
551.6327
21
5.1062
31
0.0
0
LINE
8
CUT
10
551.6327
20
5.1062
30
0.0
11
555.8500
21
7.3016
31
0.0
0
LINE
8
CUT
10
555.8500
20
7.3016
30
0.0
11
559.8599
21
9.8562
31
0.0
0
LINE
8
CUT
10
559.8599
20
9.8562
30
0.0
11
563.6319
21
12.7506
31
0.0
0
LINE
8
CUT
10
563.6319
20
12.7506
30
0.0
11
567.1373
21
15.9627
31
0.0
0
LINE
8
CUT
10
567.1373
20
15.9627
30
0.0
11
570.3494
21
19.4681
31
0.0
0
LINE
8
CUT
10
570.3494
20
19.4681
30
0.0
11
573.2438
21
23.2401
31
0.0
0
LINE
8
CUT
10
573.2438
20
23.2401
30
0.0
11
575.7984
21
27.2500
31
0.0
0
LINE
8
CUT
10
575.7984
20
27.2500
30
0.0
11
577.9938
21
31.4673
31
0.0
0
LINE
8
CUT
10
577.9938
20
31.4673
30
0.0
11
579.8132
21
35.8599
31
0.0
0
LINE
8
CUT
10
579.8132
20
35.8599
30
0.0
11
581.2430
21
40.3944
31
0.0
0
LINE
8
CUT
10
581.2430
20
40.3944
30
0.0
11
582.2720
21
45.0362
31
0.0
0
LINE
8
CUT
10
582.2720
20
45.0362
30
0.0
11
582.8926
21
49.7500
31
0.0
0
LINE
8
CUT
10
582.8926
20
49.7500
30
0.0
11
583.1000
21
54.5000
31
0.0
0
LINE
8
CUT
10
583.1000
20
54.5000
30
0.0
11
583.1000
21
333.9000
31
0.0
0
LINE
8
CUT
10
583.1000
20
333.9000
30
0.0
11
582.8926
21
338.6500
31
0.0
0
LINE
8
CUT
10
582.8926
20
338.6500
30
0.0
11
582.2720
21
343.3638
31
0.0
0
LINE
8
CUT
10
582.2720
20
343.3638
30
0.0
11
581.2430
21
348.0056
31
0.0
0
LINE
8
CUT
10
581.2430
20
348.0056
30
0.0
11
579.8132
21
352.5401
31
0.0
0
LINE
8
CUT
10
579.8132
20
352.5401
30
0.0
11
577.9938
21
356.9327
31
0.0
0
LINE
8
CUT
10
577.9938
20
356.9327
30
0.0
11
575.7984
21
361.1500
31
0.0
0
LINE
8
CUT
10
575.7984
20
361.1500
30
0.0
11
573.2438
21
365.1599
31
0.0
0
LINE
8
CUT
10
573.2438
20
365.1599
30
0.0
11
570.3494
21
368.9319
31
0.0
0
LINE
8
CUT
10
570.3494
20
368.9319
30
0.0
11
567.1373
21
372.4373
31
0.0
0
LINE
8
CUT
10
567.1373
20
372.4373
30
0.0
11
563.6319
21
375.6494
31
0.0
0
LINE
8
CUT
10
563.6319
20
375.6494
30
0.0
11
559.8599
21
378.5438
31
0.0
0
LINE
8
CUT
10
559.8599
20
378.5438
30
0.0
11
555.8500
21
381.0984
31
0.0
0
LINE
8
CUT
10
555.8500
20
381.0984
30
0.0
11
551.6327
21
383.2938
31
0.0
0
LINE
8
CUT
10
551.6327
20
383.2938
30
0.0
11
547.2401
21
385.1132
31
0.0
0
LINE
8
CUT
10
547.2401
20
385.1132
30
0.0
11
542.7056
21
386.5430
31
0.0
0
LINE
8
CUT
10
542.7056
20
386.5430
30
0.0
11
538.0638
21
387.5720
31
0.0
0
LINE
8
CUT
10
538.0638
20
387.5720
30
0.0
11
533.3500
21
388.1926
31
0.0
0
LINE
8
CUT
10
533.3500
20
388.1926
30
0.0
11
528.6000
21
388.4000
31
0.0
0
LINE
8
CUT
10
528.6000
20
388.4000
30
0.0
11
54.5000
21
388.4000
31
0.0
0
LINE
8
CUT
10
54.5000
20
388.4000
30
0.0
11
49.7500
21
388.1926
31
0.0
0
LINE
8
CUT
10
49.7500
20
388.1926
30
0.0
11
45.0362
21
387.5720
31
0.0
0
LINE
8
CUT
10
45.0362
20
387.5720
30
0.0
11
40.3944
21
386.5430
31
0.0
0
LINE
8
CUT
10
40.3944
20
386.5430
30
0.0
11
35.8599
21
385.1132
31
0.0
0
LINE
8
CUT
10
35.8599
20
385.1132
30
0.0
11
31.4673
21
383.2938
31
0.0
0
LINE
8
CUT
10
31.4673
20
383.2938
30
0.0
11
27.2500
21
381.0984
31
0.0
0
LINE
8
CUT
10
27.2500
20
381.0984
30
0.0
11
23.2401
21
378.5438
31
0.0
0
LINE
8
CUT
10
23.2401
20
378.5438
30
0.0
11
19.4681
21
375.6494
31
0.0
0
LINE
8
CUT
10
19.4681
20
375.6494
30
0.0
11
15.9627
21
372.4373
31
0.0
0
LINE
8
CUT
10
15.9627
20
372.4373
30
0.0
11
12.7506
21
368.9319
31
0.0
0
LINE
8
CUT
10
12.7506
20
368.9319
30
0.0
11
9.8562
21
365.1599
31
0.0
0
LINE
8
CUT
10
9.8562
20
365.1599
30
0.0
11
7.3016
21
361.1500
31
0.0
0
LINE
8
CUT
10
7.3016
20
361.1500
30
0.0
11
5.1062
21
356.9327
31
0.0
0
LINE
8
CUT
10
5.1062
20
356.9327
30
0.0
11
3.2868
21
352.5401
31
0.0
0
LINE
8
CUT
10
3.2868
20
352.5401
30
0.0
11
1.8570
21
348.0056
31
0.0
0
LINE
8
CUT
10
1.8570
20
348.0056
30
0.0
11
0.8280
21
343.3638
31
0.0
0
LINE
8
CUT
10
0.8280
20
343.3638
30
0.0
11
0.2074
21
338.6500
31
0.0
0
LINE
8
CUT
10
0.2074
20
338.6500
30
0.0
11
0.0000
21
333.9000
31
0.0
0
LINE
8
CUT
10
0.0000
20
333.9000
30
0.0
11
0.0000
21
54.5000
31
0.0
0
LINE
8
CUT
10
0.0000
20
54.5000
30
0.0
11
0.2074
21
49.7500
31
0.0
0
LINE
8
CUT
10
0.2074
20
49.7500
30
0.0
11
0.8280
21
45.0362
31
0.0
0
LINE
8
CUT
10
0.8280
20
45.0362
30
0.0
11
1.8570
21
40.3944
31
0.0
0
LINE
8
CUT
10
1.8570
20
40.3944
30
0.0
11
3.2868
21
35.8599
31
0.0
0
LINE
8
CUT
10
3.2868
20
35.8599
30
0.0
11
5.1062
21
31.4673
31
0.0
0
LINE
8
CUT
10
5.1062
20
31.4673
30
0.0
11
7.3016
21
27.2500
31
0.0
0
LINE
8
CUT
10
7.3016
20
27.2500
30
0.0
11
9.8562
21
23.2401
31
0.0
0
LINE
8
CUT
10
9.8562
20
23.2401
30
0.0
11
12.7506
21
19.4681
31
0.0
0
LINE
8
CUT
10
12.7506
20
19.4681
30
0.0
11
15.9627
21
15.9627
31
0.0
0
LINE
8
CUT
10
15.9627
20
15.9627
30
0.0
11
19.4681
21
12.7506
31
0.0
0
LINE
8
CUT
10
19.4681
20
12.7506
30
0.0
11
23.2401
21
9.8562
31
0.0
0
LINE
8
CUT
10
23.2401
20
9.8562
30
0.0
11
27.2500
21
7.3016
31
0.0
0
LINE
8
CUT
10
27.2500
20
7.3016
30
0.0
11
31.4673
21
5.1062
31
0.0
0
LINE
8
CUT
10
31.4673
20
5.1062
30
0.0
11
35.8599
21
3.2868
31
0.0
0
LINE
8
CUT
10
35.8599
20
3.2868
30
0.0
11
40.3944
21
1.8570
31
0.0
0
LINE
8
CUT
10
40.3944
20
1.8570
30
0.0
11
45.0362
21
0.8280
31
0.0
0
LINE
8
CUT
10
45.0362
20
0.8280
30
0.0
11
49.7500
21
0.2074
31
0.0
0
LINE
8
CUT
10
49.7500
20
0.2074
30
0.0
11
54.5000
21
0.0000
31
0.0
0
LINE
8
CUT
10
54.5000
20
0.0000
30
0.0
11
528.6000
21
0.0000
31
0.0
0
CIRCLE
8
HOLES
10
528.6000
20
10.5000
30
0.0
40
2.8000
0
CIRCLE
8
HOLES
10
572.6000
20
134.0251
30
0.0
40
2.8000
0
CIRCLE
8
HOLES
10
572.6000
20
282.6376
30
0.0
40
2.8000
0
CIRCLE
8
HOLES
10
500.3373
20
377.9000
30
0.0
40
2.8000
0
CIRCLE
8
HOLES
10
351.7249
20
377.9000
30
0.0
40
2.8000
0
CIRCLE
8
HOLES
10
203.1124
20
377.9000
30
0.0
40
2.8000
0
CIRCLE
8
HOLES
10
54.5000
20
377.9000
30
0.0
40
2.8000
0
CIRCLE
8
HOLES
10
10.5000
20
254.3749
30
0.0
40
2.8000
0
CIRCLE
8
HOLES
10
10.5000
20
105.7624
30
0.0
40
2.8000
0
CIRCLE
8
HOLES
10
82.7627
20
10.5000
30
0.0
40
2.8000
0
CIRCLE
8
HOLES
10
231.3751
20
10.5000
30
0.0
40
2.8000
0
CIRCLE
8
HOLES
10
379.9876
20
10.5000
30
0.0
40
2.8000
0
ENDSEC
0
EOF
