0
SECTION
2
ENTITIES
0
LINE
8
CUT
10
533.5500
20
2.0000
30
0.0
11
538.1257
21
2.1998
31
0.0
0
LINE
8
CUT
10
538.1257
20
2.1998
30
0.0
11
542.6665
21
2.7976
31
0.0
0
LINE
8
CUT
10
542.6665
20
2.7976
30
0.0
11
547.1380
21
3.7889
31
0.0
0
LINE
8
CUT
10
547.1380
20
3.7889
30
0.0
11
551.5061
21
5.1661
31
0.0
0
LINE
8
CUT
10
551.5061
20
5.1661
30
0.0
11
555.7375
21
6.9188
31
0.0
0
LINE
8
CUT
10
555.7375
20
6.9188
30
0.0
11
559.8000
21
9.0337
31
0.0
0
LINE
8
CUT
10
559.8000
20
9.0337
30
0.0
11
563.6628
21
11.4945
31
0.0
0
LINE
8
CUT
10
563.6628
20
11.4945
30
0.0
11
567.2963
21
14.2827
31
0.0
0
LINE
8
CUT
10
567.2963
20
14.2827
30
0.0
11
570.6731
21
17.3769
31
0.0
0
LINE
8
CUT
10
570.6731
20
17.3769
30
0.0
11
573.7673
21
20.7537
31
0.0
0
LINE
8
CUT
10
573.7673
20
20.7537
30
0.0
11
576.5555
21
24.3872
31
0.0
0
LINE
8
CUT
10
576.5555
20
24.3872
30
0.0
11
579.0163
21
28.2500
31
0.0
0
LINE
8
CUT
10
579.0163
20
28.2500
30
0.0
11
581.1312
21
32.3125
31
0.0
0
LINE
8
CUT
10
581.1312
20
32.3125
30
0.0
11
582.8839
21
36.5439
31
0.0
0
LINE
8
CUT
10
582.8839
20
36.5439
30
0.0
11
584.2611
21
40.9120
31
0.0
0
LINE
8
CUT
10
584.2611
20
40.9120
30
0.0
11
585.2524
21
45.3835
31
0.0
0
LINE
8
CUT
10
585.2524
20
45.3835
30
0.0
11
585.8502
21
49.9243
31
0.0
0
LINE
8
CUT
10
585.8502
20
49.9243
30
0.0
11
586.0500
21
54.5000
31
0.0
0
LINE
8
CUT
10
586.0500
20
54.5000
30
0.0
11
586.0500
21
328.2500
31
0.0
0
LINE
8
CUT
10
586.0500
20
328.2500
30
0.0
11
585.8502
21
332.8257
31
0.0
0
LINE
8
CUT
10
585.8502
20
332.8257
30
0.0
11
585.2524
21
337.3665
31
0.0
0
LINE
8
CUT
10
585.2524
20
337.3665
30
0.0
11
584.2611
21
341.8380
31
0.0
0
LINE
8
CUT
10
584.2611
20
341.8380
30
0.0
11
582.8839
21
346.2061
31
0.0
0
LINE
8
CUT
10
582.8839
20
346.2061
30
0.0
11
581.1312
21
350.4375
31
0.0
0
LINE
8
CUT
10
581.1312
20
350.4375
30
0.0
11
579.0163
21
354.5000
31
0.0
0
LINE
8
CUT
10
579.0163
20
354.5000
30
0.0
11
576.5555
21
358.3628
31
0.0
0
LINE
8
CUT
10
576.5555
20
358.3628
30
0.0
11
573.7673
21
361.9963
31
0.0
0
LINE
8
CUT
10
573.7673
20
361.9963
30
0.0
11
570.6731
21
365.3731
31
0.0
0
LINE
8
CUT
10
570.6731
20
365.3731
30
0.0
11
567.2963
21
368.4673
31
0.0
0
LINE
8
CUT
10
567.2963
20
368.4673
30
0.0
11
563.6628
21
371.2555
31
0.0
0
LINE
8
CUT
10
563.6628
20
371.2555
30
0.0
11
559.8000
21
373.7163
31
0.0
0
LINE
8
CUT
10
559.8000
20
373.7163
30
0.0
11
555.7375
21
375.8312
31
0.0
0
LINE
8
CUT
10
555.7375
20
375.8312
30
0.0
11
551.5061
21
377.5839
31
0.0
0
LINE
8
CUT
10
551.5061
20
377.5839
30
0.0
11
547.1380
21
378.9611
31
0.0
0
LINE
8
CUT
10
547.1380
20
378.9611
30
0.0
11
542.6665
21
379.9524
31
0.0
0
LINE
8
CUT
10
542.6665
20
379.9524
30
0.0
11
538.1257
21
380.5502
31
0.0
0
LINE
8
CUT
10
538.1257
20
380.5502
30
0.0
11
533.5500
21
380.7500
31
0.0
0
LINE
8
CUT
10
533.5500
20
380.7500
30
0.0
11
54.5000
21
380.7500
31
0.0
0
LINE
8
CUT
10
54.5000
20
380.7500
30
0.0
11
49.9243
21
380.5502
31
0.0
0
LINE
8
CUT
10
49.9243
20
380.5502
30
0.0
11
45.3835
21
379.9524
31
0.0
0
LINE
8
CUT
10
45.3835
20
379.9524
30
0.0
11
40.9120
21
378.9611
31
0.0
0
LINE
8
CUT
10
40.9120
20
378.9611
30
0.0
11
36.5439
21
377.5839
31
0.0
0
LINE
8
CUT
10
36.5439
20
377.5839
30
0.0
11
32.3125
21
375.8312
31
0.0
0
LINE
8
CUT
10
32.3125
20
375.8312
30
0.0
11
28.2500
21
373.7163
31
0.0
0
LINE
8
CUT
10
28.2500
20
373.7163
30
0.0
11
24.3872
21
371.2555
31
0.0
0
LINE
8
CUT
10
24.3872
20
371.2555
30
0.0
11
20.7537
21
368.4673
31
0.0
0
LINE
8
CUT
10
20.7537
20
368.4673
30
0.0
11
17.3769
21
365.3731
31
0.0
0
LINE
8
CUT
10
17.3769
20
365.3731
30
0.0
11
14.2827
21
361.9963
31
0.0
0
LINE
8
CUT
10
14.2827
20
361.9963
30
0.0
11
11.4945
21
358.3628
31
0.0
0
LINE
8
CUT
10
11.4945
20
358.3628
30
0.0
11
9.0337
21
354.5000
31
0.0
0
LINE
8
CUT
10
9.0337
20
354.5000
30
0.0
11
6.9188
21
350.4375
31
0.0
0
LINE
8
CUT
10
6.9188
20
350.4375
30
0.0
11
5.1661
21
346.2061
31
0.0
0
LINE
8
CUT
10
5.1661
20
346.2061
30
0.0
11
3.7889
21
341.8380
31
0.0
0
LINE
8
CUT
10
3.7889
20
341.8380
30
0.0
11
2.7976
21
337.3665
31
0.0
0
LINE
8
CUT
10
2.7976
20
337.3665
30
0.0
11
2.1998
21
332.8257
31
0.0
0
LINE
8
CUT
10
2.1998
20
332.8257
30
0.0
11
2.0000
21
328.2500
31
0.0
0
LINE
8
CUT
10
2.0000
20
328.2500
30
0.0
11
2.0000
21
54.5000
31
0.0
0
LINE
8
CUT
10
2.0000
20
54.5000
30
0.0
11
2.1998
21
49.9243
31
0.0
0
LINE
8
CUT
10
2.1998
20
49.9243
30
0.0
11
2.7976
21
45.3835
31
0.0
0
LINE
8
CUT
10
2.7976
20
45.3835
30
0.0
11
3.7889
21
40.9120
31
0.0
0
LINE
8
CUT
10
3.7889
20
40.9120
30
0.0
11
5.1661
21
36.5439
31
0.0
0
LINE
8
CUT
10
5.1661
20
36.5439
30
0.0
11
6.9188
21
32.3125
31
0.0
0
LINE
8
CUT
10
6.9188
20
32.3125
30
0.0
11
9.0337
21
28.2500
31
0.0
0
LINE
8
CUT
10
9.0337
20
28.2500
30
0.0
11
11.4945
21
24.3872
31
0.0
0
LINE
8
CUT
10
11.4945
20
24.3872
30
0.0
11
14.2827
21
20.7537
31
0.0
0
LINE
8
CUT
10
14.2827
20
20.7537
30
0.0
11
17.3769
21
17.3769
31
0.0
0
LINE
8
CUT
10
17.3769
20
17.3769
30
0.0
11
20.7537
21
14.2827
31
0.0
0
LINE
8
CUT
10
20.7537
20
14.2827
30
0.0
11
24.3872
21
11.4945
31
0.0
0
LINE
8
CUT
10
24.3872
20
11.4945
30
0.0
11
28.2500
21
9.0337
31
0.0
0
LINE
8
CUT
10
28.2500
20
9.0337
30
0.0
11
32.3125
21
6.9188
31
0.0
0
LINE
8
CUT
10
32.3125
20
6.9188
30
0.0
11
36.5439
21
5.1661
31
0.0
0
LINE
8
CUT
10
36.5439
20
5.1661
30
0.0
11
40.9120
21
3.7889
31
0.0
0
LINE
8
CUT
10
40.9120
20
3.7889
30
0.0
11
45.3835
21
2.7976
31
0.0
0
LINE
8
CUT
10
45.3835
20
2.7976
30
0.0
11
49.9243
21
2.1998
31
0.0
0
LINE
8
CUT
10
49.9243
20
2.1998
30
0.0
11
54.5000
21
2.0000
31
0.0
0
LINE
8
CUT
10
54.5000
20
2.0000
30
0.0
11
533.5500
21
2.0000
31
0.0
0
ENDSEC
0
EOF
