0
SECTION
2
ENTITIES
0
LINE
8
CUT
10
535.2000
20
2.0000
30
0.0
11
539.7757
21
2.1998
31
0.0
0
LINE
8
CUT
10
539.7757
20
2.1998
30
0.0
11
544.3165
21
2.7976
31
0.0
0
LINE
8
CUT
10
544.3165
20
2.7976
30
0.0
11
548.7880
21
3.7889
31
0.0
0
LINE
8
CUT
10
548.7880
20
3.7889
30
0.0
11
553.1561
21
5.1661
31
0.0
0
LINE
8
CUT
10
553.1561
20
5.1661
30
0.0
11
557.3875
21
6.9188
31
0.0
0
LINE
8
CUT
10
557.3875
20
6.9188
30
0.0
11
561.4500
21
9.0337
31
0.0
0
LINE
8
CUT
10
561.4500
20
9.0337
30
0.0
11
565.3128
21
11.4945
31
0.0
0
LINE
8
CUT
10
565.3128
20
11.4945
30
0.0
11
568.9463
21
14.2827
31
0.0
0
LINE
8
CUT
10
568.9463
20
14.2827
30
0.0
11
572.3231
21
17.3769
31
0.0
0
LINE
8
CUT
10
572.3231
20
17.3769
30
0.0
11
575.4173
21
20.7537
31
0.0
0
LINE
8
CUT
10
575.4173
20
20.7537
30
0.0
11
578.2055
21
24.3872
31
0.0
0
LINE
8
CUT
10
578.2055
20
24.3872
30
0.0
11
580.6663
21
28.2500
31
0.0
0
LINE
8
CUT
10
580.6663
20
28.2500
30
0.0
11
582.7812
21
32.3125
31
0.0
0
LINE
8
CUT
10
582.7812
20
32.3125
30
0.0
11
584.5339
21
36.5439
31
0.0
0
LINE
8
CUT
10
584.5339
20
36.5439
30
0.0
11
585.9111
21
40.9120
31
0.0
0
LINE
8
CUT
10
585.9111
20
40.9120
30
0.0
11
586.9024
21
45.3835
31
0.0
0
LINE
8
CUT
10
586.9024
20
45.3835
30
0.0
11
587.5002
21
49.9243
31
0.0
0
LINE
8
CUT
10
587.5002
20
49.9243
30
0.0
11
587.7000
21
54.5000
31
0.0
0
LINE
8
CUT
10
587.7000
20
54.5000
30
0.0
11
587.7000
21
329.9000
31
0.0
0
LINE
8
CUT
10
587.7000
20
329.9000
30
0.0
11
587.5002
21
334.4757
31
0.0
0
LINE
8
CUT
10
587.5002
20
334.4757
30
0.0
11
586.9024
21
339.0165
31
0.0
0
LINE
8
CUT
10
586.9024
20
339.0165
30
0.0
11
585.9111
21
343.4880
31
0.0
0
LINE
8
CUT
10
585.9111
20
343.4880
30
0.0
11
584.5339
21
347.8561
31
0.0
0
LINE
8
CUT
10
584.5339
20
347.8561
30
0.0
11
582.7812
21
352.0875
31
0.0
0
LINE
8
CUT
10
582.7812
20
352.0875
30
0.0
11
580.6663
21
356.1500
31
0.0
0
LINE
8
CUT
10
580.6663
20
356.1500
30
0.0
11
578.2055
21
360.0128
31
0.0
0
LINE
8
CUT
10
578.2055
20
360.0128
30
0.0
11
575.4173
21
363.6463
31
0.0
0
LINE
8
CUT
10
575.4173
20
363.6463
30
0.0
11
572.3231
21
367.0231
31
0.0
0
LINE
8
CUT
10
572.3231
20
367.0231
30
0.0
11
568.9463
21
370.1173
31
0.0
0
LINE
8
CUT
10
568.9463
20
370.1173
30
0.0
11
565.3128
21
372.9055
31
0.0
0
LINE
8
CUT
10
565.3128
20
372.9055
30
0.0
11
561.4500
21
375.3663
31
0.0
0
LINE
8
CUT
10
561.4500
20
375.3663
30
0.0
11
557.3875
21
377.4812
31
0.0
0
LINE
8
CUT
10
557.3875
20
377.4812
30
0.0
11
553.1561
21
379.2339
31
0.0
0
LINE
8
CUT
10
553.1561
20
379.2339
30
0.0
11
548.7880
21
380.6111
31
0.0
0
LINE
8
CUT
10
548.7880
20
380.6111
30
0.0
11
544.3165
21
381.6024
31
0.0
0
LINE
8
CUT
10
544.3165
20
381.6024
30
0.0
11
539.7757
21
382.2002
31
0.0
0
LINE
8
CUT
10
539.7757
20
382.2002
30
0.0
11
535.2000
21
382.4000
31
0.0
0
LINE
8
CUT
10
535.2000
20
382.4000
30
0.0
11
54.5000
21
382.4000
31
0.0
0
LINE
8
CUT
10
54.5000
20
382.4000
30
0.0
11
49.9243
21
382.2002
31
0.0
0
LINE
8
CUT
10
49.9243
20
382.2002
30
0.0
11
45.3835
21
381.6024
31
0.0
0
LINE
8
CUT
10
45.3835
20
381.6024
30
0.0
11
40.9120
21
380.6111
31
0.0
0
LINE
8
CUT
10
40.9120
20
380.6111
30
0.0
11
36.5439
21
379.2339
31
0.0
0
LINE
8
CUT
10
36.5439
20
379.2339
30
0.0
11
32.3125
21
377.4812
31
0.0
0
LINE
8
CUT
10
32.3125
20
377.4812
30
0.0
11
28.2500
21
375.3663
31
0.0
0
LINE
8
CUT
10
28.2500
20
375.3663
30
0.0
11
24.3872
21
372.9055
31
0.0
0
LINE
8
CUT
10
24.3872
20
372.9055
30
0.0
11
20.7537
21
370.1173
31
0.0
0
LINE
8
CUT
10
20.7537
20
370.1173
30
0.0
11
17.3769
21
367.0231
31
0.0
0
LINE
8
CUT
10
17.3769
20
367.0231
30
0.0
11
14.2827
21
363.6463
31
0.0
0
LINE
8
CUT
10
14.2827
20
363.6463
30
0.0
11
11.4945
21
360.0128
31
0.0
0
LINE
8
CUT
10
11.4945
20
360.0128
30
0.0
11
9.0337
21
356.1500
31
0.0
0
LINE
8
CUT
10
9.0337
20
356.1500
30
0.0
11
6.9188
21
352.0875
31
0.0
0
LINE
8
CUT
10
6.9188
20
352.0875
30
0.0
11
5.1661
21
347.8561
31
0.0
0
LINE
8
CUT
10
5.1661
20
347.8561
30
0.0
11
3.7889
21
343.4880
31
0.0
0
LINE
8
CUT
10
3.7889
20
343.4880
30
0.0
11
2.7976
21
339.0165
31
0.0
0
LINE
8
CUT
10
2.7976
20
339.0165
30
0.0
11
2.1998
21
334.4757
31
0.0
0
LINE
8
CUT
10
2.1998
20
334.4757
30
0.0
11
2.0000
21
329.9000
31
0.0
0
LINE
8
CUT
10
2.0000
20
329.9000
30
0.0
11
2.0000
21
54.5000
31
0.0
0
LINE
8
CUT
10
2.0000
20
54.5000
30
0.0
11
2.1998
21
49.9243
31
0.0
0
LINE
8
CUT
10
2.1998
20
49.9243
30
0.0
11
2.7976
21
45.3835
31
0.0
0
LINE
8
CUT
10
2.7976
20
45.3835
30
0.0
11
3.7889
21
40.9120
31
0.0
0
LINE
8
CUT
10
3.7889
20
40.9120
30
0.0
11
5.1661
21
36.5439
31
0.0
0
LINE
8
CUT
10
5.1661
20
36.5439
30
0.0
11
6.9188
21
32.3125
31
0.0
0
LINE
8
CUT
10
6.9188
20
32.3125
30
0.0
11
9.0337
21
28.2500
31
0.0
0
LINE
8
CUT
10
9.0337
20
28.2500
30
0.0
11
11.4945
21
24.3872
31
0.0
0
LINE
8
CUT
10
11.4945
20
24.3872
30
0.0
11
14.2827
21
20.7537
31
0.0
0
LINE
8
CUT
10
14.2827
20
20.7537
30
0.0
11
17.3769
21
17.3769
31
0.0
0
LINE
8
CUT
10
17.3769
20
17.3769
30
0.0
11
20.7537
21
14.2827
31
0.0
0
LINE
8
CUT
10
20.7537
20
14.2827
30
0.0
11
24.3872
21
11.4945
31
0.0
0
LINE
8
CUT
10
24.3872
20
11.4945
30
0.0
11
28.2500
21
9.0337
31
0.0
0
LINE
8
CUT
10
28.2500
20
9.0337
30
0.0
11
32.3125
21
6.9188
31
0.0
0
LINE
8
CUT
10
32.3125
20
6.9188
30
0.0
11
36.5439
21
5.1661
31
0.0
0
LINE
8
CUT
10
36.5439
20
5.1661
30
0.0
11
40.9120
21
3.7889
31
0.0
0
LINE
8
CUT
10
40.9120
20
3.7889
30
0.0
11
45.3835
21
2.7976
31
0.0
0
LINE
8
CUT
10
45.3835
20
2.7976
30
0.0
11
49.9243
21
2.1998
31
0.0
0
LINE
8
CUT
10
49.9243
20
2.1998
30
0.0
11
54.5000
21
2.0000
31
0.0
0
LINE
8
CUT
10
54.5000
20
2.0000
30
0.0
11
535.2000
21
2.0000
31
0.0
0
ENDSEC
0
EOF
