0
SECTION
2
ENTITIES
0
LINE
8
CUT
10
528.6000
20
2.0000
30
0.0
11
533.1757
21
2.1998
31
0.0
0
LINE
8
CUT
10
533.1757
20
2.1998
30
0.0
11
537.7165
21
2.7976
31
0.0
0
LINE
8
CUT
10
537.7165
20
2.7976
30
0.0
11
542.1880
21
3.7889
31
0.0
0
LINE
8
CUT
10
542.1880
20
3.7889
30
0.0
11
546.5561
21
5.1661
31
0.0
0
LINE
8
CUT
10
546.5561
20
5.1661
30
0.0
11
550.7875
21
6.9188
31
0.0
0
LINE
8
CUT
10
550.7875
20
6.9188
30
0.0
11
554.8500
21
9.0337
31
0.0
0
LINE
8
CUT
10
554.8500
20
9.0337
30
0.0
11
558.7128
21
11.4945
31
0.0
0
LINE
8
CUT
10
558.7128
20
11.4945
30
0.0
11
562.3463
21
14.2827
31
0.0
0
LINE
8
CUT
10
562.3463
20
14.2827
30
0.0
11
565.7231
21
17.3769
31
0.0
0
LINE
8
CUT
10
565.7231
20
17.3769
30
0.0
11
568.8173
21
20.7537
31
0.0
0
LINE
8
CUT
10
568.8173
20
20.7537
30
0.0
11
571.6055
21
24.3872
31
0.0
0
LINE
8
CUT
10
571.6055
20
24.3872
30
0.0
11
574.0663
21
28.2500
31
0.0
0
LINE
8
CUT
10
574.0663
20
28.2500
30
0.0
11
576.1812
21
32.3125
31
0.0
0
LINE
8
CUT
10
576.1812
20
32.3125
30
0.0
11
577.9339
21
36.5439
31
0.0
0
LINE
8
CUT
10
577.9339
20
36.5439
30
0.0
11
579.3111
21
40.9120
31
0.0
0
LINE
8
CUT
10
579.3111
20
40.9120
30
0.0
11
580.3024
21
45.3835
31
0.0
0
LINE
8
CUT
10
580.3024
20
45.3835
30
0.0
11
580.9002
21
49.9243
31
0.0
0
LINE
8
CUT
10
580.9002
20
49.9243
30
0.0
11
581.1000
21
54.5000
31
0.0
0
LINE
8
CUT
10
581.1000
20
54.5000
30
0.0
11
581.1000
21
333.9000
31
0.0
0
LINE
8
CUT
10
581.1000
20
333.9000
30
0.0
11
580.9002
21
338.4757
31
0.0
0
LINE
8
CUT
10
580.9002
20
338.4757
30
0.0
11
580.3024
21
343.0165
31
0.0
0
LINE
8
CUT
10
580.3024
20
343.0165
30
0.0
11
579.3111
21
347.4880
31
0.0
0
LINE
8
CUT
10
579.3111
20
347.4880
30
0.0
11
577.9339
21
351.8561
31
0.0
0
LINE
8
CUT
10
577.9339
20
351.8561
30
0.0
11
576.1812
21
356.0875
31
0.0
0
LINE
8
CUT
10
576.1812
20
356.0875
30
0.0
11
574.0663
21
360.1500
31
0.0
0
LINE
8
CUT
10
574.0663
20
360.1500
30
0.0
11
571.6055
21
364.0128
31
0.0
0
LINE
8
CUT
10
571.6055
20
364.0128
30
0.0
11
568.8173
21
367.6463
31
0.0
0
LINE
8
CUT
10
568.8173
20
367.6463
30
0.0
11
565.7231
21
371.0231
31
0.0
0
LINE
8
CUT
10
565.7231
20
371.0231
30
0.0
11
562.3463
21
374.1173
31
0.0
0
LINE
8
CUT
10
562.3463
20
374.1173
30
0.0
11
558.7128
21
376.9055
31
0.0
0
LINE
8
CUT
10
558.7128
20
376.9055
30
0.0
11
554.8500
21
379.3663
31
0.0
0
LINE
8
CUT
10
554.8500
20
379.3663
30
0.0
11
550.7875
21
381.4812
31
0.0
0
LINE
8
CUT
10
550.7875
20
381.4812
30
0.0
11
546.5561
21
383.2339
31
0.0
0
LINE
8
CUT
10
546.5561
20
383.2339
30
0.0
11
542.1880
21
384.6111
31
0.0
0
LINE
8
CUT
10
542.1880
20
384.6111
30
0.0
11
537.7165
21
385.6024
31
0.0
0
LINE
8
CUT
10
537.7165
20
385.6024
30
0.0
11
533.1757
21
386.2002
31
0.0
0
LINE
8
CUT
10
533.1757
20
386.2002
30
0.0
11
528.6000
21
386.4000
31
0.0
0
LINE
8
CUT
10
528.6000
20
386.4000
30
0.0
11
54.5000
21
386.4000
31
0.0
0
LINE
8
CUT
10
54.5000
20
386.4000
30
0.0
11
49.9243
21
386.2002
31
0.0
0
LINE
8
CUT
10
49.9243
20
386.2002
30
0.0
11
45.3835
21
385.6024
31
0.0
0
LINE
8
CUT
10
45.3835
20
385.6024
30
0.0
11
40.9120
21
384.6111
31
0.0
0
LINE
8
CUT
10
40.9120
20
384.6111
30
0.0
11
36.5439
21
383.2339
31
0.0
0
LINE
8
CUT
10
36.5439
20
383.2339
30
0.0
11
32.3125
21
381.4812
31
0.0
0
LINE
8
CUT
10
32.3125
20
381.4812
30
0.0
11
28.2500
21
379.3663
31
0.0
0
LINE
8
CUT
10
28.2500
20
379.3663
30
0.0
11
24.3872
21
376.9055
31
0.0
0
LINE
8
CUT
10
24.3872
20
376.9055
30
0.0
11
20.7537
21
374.1173
31
0.0
0
LINE
8
CUT
10
20.7537
20
374.1173
30
0.0
11
17.3769
21
371.0231
31
0.0
0
LINE
8
CUT
10
17.3769
20
371.0231
30
0.0
11
14.2827
21
367.6463
31
0.0
0
LINE
8
CUT
10
14.2827
20
367.6463
30
0.0
11
11.4945
21
364.0128
31
0.0
0
LINE
8
CUT
10
11.4945
20
364.0128
30
0.0
11
9.0337
21
360.1500
31
0.0
0
LINE
8
CUT
10
9.0337
20
360.1500
30
0.0
11
6.9188
21
356.0875
31
0.0
0
LINE
8
CUT
10
6.9188
20
356.0875
30
0.0
11
5.1661
21
351.8561
31
0.0
0
LINE
8
CUT
10
5.1661
20
351.8561
30
0.0
11
3.7889
21
347.4880
31
0.0
0
LINE
8
CUT
10
3.7889
20
347.4880
30
0.0
11
2.7976
21
343.0165
31
0.0
0
LINE
8
CUT
10
2.7976
20
343.0165
30
0.0
11
2.1998
21
338.4757
31
0.0
0
LINE
8
CUT
10
2.1998
20
338.4757
30
0.0
11
2.0000
21
333.9000
31
0.0
0
LINE
8
CUT
10
2.0000
20
333.9000
30
0.0
11
2.0000
21
54.5000
31
0.0
0
LINE
8
CUT
10
2.0000
20
54.5000
30
0.0
11
2.1998
21
49.9243
31
0.0
0
LINE
8
CUT
10
2.1998
20
49.9243
30
0.0
11
2.7976
21
45.3835
31
0.0
0
LINE
8
CUT
10
2.7976
20
45.3835
30
0.0
11
3.7889
21
40.9120
31
0.0
0
LINE
8
CUT
10
3.7889
20
40.9120
30
0.0
11
5.1661
21
36.5439
31
0.0
0
LINE
8
CUT
10
5.1661
20
36.5439
30
0.0
11
6.9188
21
32.3125
31
0.0
0
LINE
8
CUT
10
6.9188
20
32.3125
30
0.0
11
9.0337
21
28.2500
31
0.0
0
LINE
8
CUT
10
9.0337
20
28.2500
30
0.0
11
11.4945
21
24.3872
31
0.0
0
LINE
8
CUT
10
11.4945
20
24.3872
30
0.0
11
14.2827
21
20.7537
31
0.0
0
LINE
8
CUT
10
14.2827
20
20.7537
30
0.0
11
17.3769
21
17.3769
31
0.0
0
LINE
8
CUT
10
17.3769
20
17.3769
30
0.0
11
20.7537
21
14.2827
31
0.0
0
LINE
8
CUT
10
20.7537
20
14.2827
30
0.0
11
24.3872
21
11.4945
31
0.0
0
LINE
8
CUT
10
24.3872
20
11.4945
30
0.0
11
28.2500
21
9.0337
31
0.0
0
LINE
8
CUT
10
28.2500
20
9.0337
30
0.0
11
32.3125
21
6.9188
31
0.0
0
LINE
8
CUT
10
32.3125
20
6.9188
30
0.0
11
36.5439
21
5.1661
31
0.0
0
LINE
8
CUT
10
36.5439
20
5.1661
30
0.0
11
40.9120
21
3.7889
31
0.0
0
LINE
8
CUT
10
40.9120
20
3.7889
30
0.0
11
45.3835
21
2.7976
31
0.0
0
LINE
8
CUT
10
45.3835
20
2.7976
30
0.0
11
49.9243
21
2.1998
31
0.0
0
LINE
8
CUT
10
49.9243
20
2.1998
30
0.0
11
54.5000
21
2.0000
31
0.0
0
LINE
8
CUT
10
54.5000
20
2.0000
30
0.0
11
528.6000
21
2.0000
31
0.0
0
ENDSEC
0
EOF
