0
SECTION
2
ENTITIES
0
LINE
8
CUT
10
522.2000
20
-6.0000
30
0.0
11
527.4729
21
-5.7698
31
0.0
0
LINE
8
CUT
10
527.4729
20
-5.7698
30
0.0
11
532.7057
21
-5.0809
31
0.0
0
LINE
8
CUT
10
532.7057
20
-5.0809
30
0.0
11
537.8586
21
-3.9385
31
0.0
0
LINE
8
CUT
10
537.8586
20
-3.9385
30
0.0
11
542.8922
21
-2.3514
31
0.0
0
LINE
8
CUT
10
542.8922
20
-2.3514
30
0.0
11
547.7684
21
-0.3316
31
0.0
0
LINE
8
CUT
10
547.7684
20
-0.3316
30
0.0
11
552.4500
21
2.1055
31
0.0
0
LINE
8
CUT
10
552.4500
20
2.1055
30
0.0
11
556.9014
21
4.9413
31
0.0
0
LINE
8
CUT
10
556.9014
20
4.9413
30
0.0
11
561.0887
21
8.1543
31
0.0
0
LINE
8
CUT
10
561.0887
20
8.1543
30
0.0
11
564.9800
21
11.7200
31
0.0
0
LINE
8
CUT
10
564.9800
20
11.7200
30
0.0
11
568.5457
21
15.6113
31
0.0
0
LINE
8
CUT
10
568.5457
20
15.6113
30
0.0
11
571.7587
21
19.7986
31
0.0
0
LINE
8
CUT
10
571.7587
20
19.7986
30
0.0
11
574.5945
21
24.2500
31
0.0
0
LINE
8
CUT
10
574.5945
20
24.2500
30
0.0
11
577.0316
21
28.9316
31
0.0
0
LINE
8
CUT
10
577.0316
20
28.9316
30
0.0
11
579.0514
21
33.8078
31
0.0
0
LINE
8
CUT
10
579.0514
20
33.8078
30
0.0
11
580.6385
21
38.8414
31
0.0
0
LINE
8
CUT
10
580.6385
20
38.8414
30
0.0
11
581.7809
21
43.9943
31
0.0
0
LINE
8
CUT
10
581.7809
20
43.9943
30
0.0
11
582.4698
21
49.2271
31
0.0
0
LINE
8
CUT
10
582.4698
20
49.2271
30
0.0
11
582.7000
21
54.5000
31
0.0
0
LINE
8
CUT
10
582.7000
20
54.5000
30
0.0
11
582.7000
21
333.9000
31
0.0
0
LINE
8
CUT
10
582.7000
20
333.9000
30
0.0
11
582.4698
21
339.1729
31
0.0
0
LINE
8
CUT
10
582.4698
20
339.1729
30
0.0
11
581.7809
21
344.4057
31
0.0
0
LINE
8
CUT
10
581.7809
20
344.4057
30
0.0
11
580.6385
21
349.5586
31
0.0
0
LINE
8
CUT
10
580.6385
20
349.5586
30
0.0
11
579.0514
21
354.5922
31
0.0
0
LINE
8
CUT
10
579.0514
20
354.5922
30
0.0
11
577.0316
21
359.4684
31
0.0
0
LINE
8
CUT
10
577.0316
20
359.4684
30
0.0
11
574.5945
21
364.1500
31
0.0
0
LINE
8
CUT
10
574.5945
20
364.1500
30
0.0
11
571.7587
21
368.6014
31
0.0
0
LINE
8
CUT
10
571.7587
20
368.6014
30
0.0
11
568.5457
21
372.7887
31
0.0
0
LINE
8
CUT
10
568.5457
20
372.7887
30
0.0
11
564.9800
21
376.6800
31
0.0
0
LINE
8
CUT
10
564.9800
20
376.6800
30
0.0
11
561.0887
21
380.2457
31
0.0
0
LINE
8
CUT
10
561.0887
20
380.2457
30
0.0
11
556.9014
21
383.4587
31
0.0
0
LINE
8
CUT
10
556.9014
20
383.4587
30
0.0
11
552.4500
21
386.2945
31
0.0
0
LINE
8
CUT
10
552.4500
20
386.2945
30
0.0
11
547.7684
21
388.7316
31
0.0
0
LINE
8
CUT
10
547.7684
20
388.7316
30
0.0
11
542.8922
21
390.7514
31
0.0
0
LINE
8
CUT
10
542.8922
20
390.7514
30
0.0
11
537.8586
21
392.3385
31
0.0
0
LINE
8
CUT
10
537.8586
20
392.3385
30
0.0
11
532.7057
21
393.4809
31
0.0
0
LINE
8
CUT
10
532.7057
20
393.4809
30
0.0
11
527.4729
21
394.1698
31
0.0
0
LINE
8
CUT
10
527.4729
20
394.1698
30
0.0
11
522.2000
21
394.4000
31
0.0
0
LINE
8
CUT
10
522.2000
20
394.4000
30
0.0
11
54.5000
21
394.4000
31
0.0
0
LINE
8
CUT
10
54.5000
20
394.4000
30
0.0
11
49.2271
21
394.1698
31
0.0
0
LINE
8
CUT
10
49.2271
20
394.1698
30
0.0
11
43.9943
21
393.4809
31
0.0
0
LINE
8
CUT
10
43.9943
20
393.4809
30
0.0
11
38.8414
21
392.3385
31
0.0
0
LINE
8
CUT
10
38.8414
20
392.3385
30
0.0
11
33.8078
21
390.7514
31
0.0
0
LINE
8
CUT
10
33.8078
20
390.7514
30
0.0
11
28.9316
21
388.7316
31
0.0
0
LINE
8
CUT
10
28.9316
20
388.7316
30
0.0
11
24.2500
21
386.2945
31
0.0
0
LINE
8
CUT
10
24.2500
20
386.2945
30
0.0
11
19.7986
21
383.4587
31
0.0
0
LINE
8
CUT
10
19.7986
20
383.4587
30
0.0
11
15.6113
21
380.2457
31
0.0
0
LINE
8
CUT
10
15.6113
20
380.2457
30
0.0
11
11.7200
21
376.6800
31
0.0
0
LINE
8
CUT
10
11.7200
20
376.6800
30
0.0
11
8.1543
21
372.7887
31
0.0
0
LINE
8
CUT
10
8.1543
20
372.7887
30
0.0
11
4.9413
21
368.6014
31
0.0
0
LINE
8
CUT
10
4.9413
20
368.6014
30
0.0
11
2.1055
21
364.1500
31
0.0
0
LINE
8
CUT
10
2.1055
20
364.1500
30
0.0
11
-0.3316
21
359.4684
31
0.0
0
LINE
8
CUT
10
-0.3316
20
359.4684
30
0.0
11
-2.3514
21
354.5922
31
0.0
0
LINE
8
CUT
10
-2.3514
20
354.5922
30
0.0
11
-3.9385
21
349.5586
31
0.0
0
LINE
8
CUT
10
-3.9385
20
349.5586
30
0.0
11
-5.0809
21
344.4057
31
0.0
0
LINE
8
CUT
10
-5.0809
20
344.4057
30
0.0
11
-5.7698
21
339.1729
31
0.0
0
LINE
8
CUT
10
-5.7698
20
339.1729
30
0.0
11
-6.0000
21
333.9000
31
0.0
0
LINE
8
CUT
10
-6.0000
20
333.9000
30
0.0
11
-6.0000
21
54.5000
31
0.0
0
LINE
8
CUT
10
-6.0000
20
54.5000
30
0.0
11
-5.7698
21
49.2271
31
0.0
0
LINE
8
CUT
10
-5.7698
20
49.2271
30
0.0
11
-5.0809
21
43.9943
31
0.0
0
LINE
8
CUT
10
-5.0809
20
43.9943
30
0.0
11
-3.9385
21
38.8414
31
0.0
0
LINE
8
CUT
10
-3.9385
20
38.8414
30
0.0
11
-2.3514
21
33.8078
31
0.0
0
LINE
8
CUT
10
-2.3514
20
33.8078
30
0.0
11
-0.3316
21
28.9316
31
0.0
0
LINE
8
CUT
10
-0.3316
20
28.9316
30
0.0
11
2.1055
21
24.2500
31
0.0
0
LINE
8
CUT
10
2.1055
20
24.2500
30
0.0
11
4.9413
21
19.7986
31
0.0
0
LINE
8
CUT
10
4.9413
20
19.7986
30
0.0
11
8.1543
21
15.6113
31
0.0
0
LINE
8
CUT
10
8.1543
20
15.6113
30
0.0
11
11.7200
21
11.7200
31
0.0
0
LINE
8
CUT
10
11.7200
20
11.7200
30
0.0
11
15.6113
21
8.1543
31
0.0
0
LINE
8
CUT
10
15.6113
20
8.1543
30
0.0
11
19.7986
21
4.9413
31
0.0
0
LINE
8
CUT
10
19.7986
20
4.9413
30
0.0
11
24.2500
21
2.1055
31
0.0
0
LINE
8
CUT
10
24.2500
20
2.1055
30
0.0
11
28.9316
21
-0.3316
31
0.0
0
LINE
8
CUT
10
28.9316
20
-0.3316
30
0.0
11
33.8078
21
-2.3514
31
0.0
0
LINE
8
CUT
10
33.8078
20
-2.3514
30
0.0
11
38.8414
21
-3.9385
31
0.0
0
LINE
8
CUT
10
38.8414
20
-3.9385
30
0.0
11
43.9943
21
-5.0809
31
0.0
0
LINE
8
CUT
10
43.9943
20
-5.0809
30
0.0
11
49.2271
21
-5.7698
31
0.0
0
LINE
8
CUT
10
49.2271
20
-5.7698
30
0.0
11
54.5000
21
-6.0000
31
0.0
0
LINE
8
CUT
10
54.5000
20
-6.0000
30
0.0
11
522.2000
21
-6.0000
31
0.0
0
CIRCLE
8
HOLES
10
522.2000
20
10.5000
30
0.0
40
8.0750
0
CIRCLE
8
HOLES
10
566.2000
20
132.9585
30
0.0
40
8.0750
0
CIRCLE
8
HOLES
10
566.2000
20
280.5042
30
0.0
40
8.0750
0
CIRCLE
8
HOLES
10
497.1373
20
377.9000
30
0.0
40
8.0750
0
CIRCLE
8
HOLES
10
349.5915
20
377.9000
30
0.0
40
8.0750
0
CIRCLE
8
HOLES
10
202.0458
20
377.9000
30
0.0
40
8.0750
0
CIRCLE
8
HOLES
10
54.5000
20
377.9000
30
0.0
40
8.0750
0
CIRCLE
8
HOLES
10
10.5000
20
255.4415
30
0.0
40
8.0750
0
CIRCLE
8
HOLES
10
10.5000
20
107.8958
30
0.0
40
8.0750
0
CIRCLE
8
HOLES
10
79.5627
20
10.5000
30
0.0
40
8.0750
0
CIRCLE
8
HOLES
10
227.1085
20
10.5000
30
0.0
40
8.0750
0
CIRCLE
8
HOLES
10
374.6542
20
10.5000
30
0.0
40
8.0750
0
ENDSEC
0
EOF
