0
SECTION
2
ENTITIES
0
CIRCLE
8
HOLES
10
0.0000
20
0.0000
30
0.0
40
7.9375
0
CIRCLE
8
HOLES
10
24.0000
20
0.0000
30
0.0
40
7.9375
0
CIRCLE
8
HOLES
10
48.0000
20
0.0000
30
0.0
40
7.9375
0
CIRCLE
8
HOLES
10
72.0000
20
0.0000
30
0.0
40
7.9375
0
CIRCLE
8
HOLES
10
96.0000
20
0.0000
30
0.0
40
7.9375
0
CIRCLE
8
HOLES
10
120.0000
20
0.0000
30
0.0
40
7.9375
0
CIRCLE
8
HOLES
10
0.0000
20
24.0000
30
0.0
40
7.9375
0
CIRCLE
8
HOLES
10
24.0000
20
24.0000
30
0.0
40
7.9375
0
CIRCLE
8
HOLES
10
48.0000
20
24.0000
30
0.0
40
7.9375
0
CIRCLE
8
HOLES
10
72.0000
20
24.0000
30
0.0
40
7.9375
0
CIRCLE
8
HOLES
10
96.0000
20
24.0000
30
0.0
40
7.9375
0
CIRCLE
8
HOLES
10
120.0000
20
24.0000
30
0.0
40
7.9375
0
ENDSEC
0
EOF
