0
SECTION
2
ENTITIES
0
LINE
8
CUT
10
0.0000
20
0.0000
30
0.0
11
451.2000
21
0.0000
31
0.0
0
LINE
8
CUT
10
451.2000
20
0.0000
30
0.0
11
451.2000
21
292.4000
31
0.0
0
LINE
8
CUT
10
451.2000
20
292.4000
30
0.0
11
0.0000
21
292.4000
31
0.0
0
LINE
8
CUT
10
0.0000
20
292.4000
30
0.0
11
0.0000
21
0.0000
31
0.0
0
LINE
8
CUT
10
0.1500
20
0.1500
30
0.0
11
451.0500
21
0.1500
31
0.0
0
LINE
8
CUT
10
451.0500
20
0.1500
30
0.0
11
451.0500
21
3.8500
31
0.0
0
LINE
8
CUT
10
451.0500
20
3.8500
30
0.0
11
0.1500
21
3.8500
31
0.0
0
LINE
8
CUT
10
0.1500
20
3.8500
30
0.0
11
0.1500
21
0.1500
31
0.0
0
LINE
8
CUT
10
0.1500
20
288.5500
30
0.0
11
451.0500
21
288.5500
31
0.0
0
LINE
8
CUT
10
451.0500
20
288.5500
30
0.0
11
451.0500
21
292.2500
31
0.0
0
LINE
8
CUT
10
451.0500
20
292.2500
30
0.0
11
0.1500
21
292.2500
31
0.0
0
LINE
8
CUT
10
0.1500
20
292.2500
30
0.0
11
0.1500
21
288.5500
31
0.0
0
LINE
8
CUT
10
0.1500
20
0.1500
30
0.0
11
3.8500
21
0.1500
31
0.0
0
LINE
8
CUT
10
3.8500
20
0.1500
30
0.0
11
3.8500
21
292.2500
31
0.0
0
LINE
8
CUT
10
3.8500
20
292.2500
30
0.0
11
0.1500
21
292.2500
31
0.0
0
LINE
8
CUT
10
0.1500
20
292.2500
30
0.0
11
0.1500
21
0.1500
31
0.0
0
LINE
8
CUT
10
447.3500
20
0.1500
30
0.0
11
451.0500
21
0.1500
31
0.0
0
LINE
8
CUT
10
451.0500
20
0.1500
30
0.0
11
451.0500
21
292.2500
31
0.0
0
LINE
8
CUT
10
451.0500
20
292.2500
30
0.0
11
447.3500
21
292.2500
31
0.0
0
LINE
8
CUT
10
447.3500
20
292.2500
30
0.0
11
447.3500
21
0.1500
31
0.0
0
ENDSEC
0
EOF
