0
SECTION
2
ENTITIES
0
LINE
8
CUT
10
0.0000
20
0.0000
30
0.0
11
443.2000
21
0.0000
31
0.0
0
LINE
8
CUT
10
443.2000
20
0.0000
30
0.0
11
443.2000
21
20.0000
31
0.0
0
LINE
8
CUT
10
443.2000
20
20.0000
30
0.0
11
0.0000
21
20.0000
31
0.0
0
LINE
8
CUT
10
0.0000
20
20.0000
30
0.0
11
0.0000
21
0.0000
31
0.0
0
CIRCLE
8
HOLES
10
6.5000
20
6.5000
30
0.0
40
1.6500
0
CIRCLE
8
HOLES
10
84.4556
20
6.5000
30
0.0
40
1.6500
0
CIRCLE
8
HOLES
10
162.4111
20
6.5000
30
0.0
40
1.6500
0
CIRCLE
8
HOLES
10
240.3667
20
6.5000
30
0.0
40
1.6500
0
CIRCLE
8
HOLES
10
318.3222
20
6.5000
30
0.0
40
1.6500
0
CIRCLE
8
HOLES
10
396.2778
20
6.5000
30
0.0
40
1.6500
0
ENDSEC
0
EOF
