0
SECTION
2
ENTITIES
0
LINE
8
CUT
10
0.0000
20
0.0000
30
0.0
11
244.4000
21
0.0000
31
0.0
0
LINE
8
CUT
10
244.4000
20
0.0000
30
0.0
11
244.4000
21
20.0000
31
0.0
0
LINE
8
CUT
10
244.4000
20
20.0000
30
0.0
11
0.0000
21
20.0000
31
0.0
0
LINE
8
CUT
10
0.0000
20
20.0000
30
0.0
11
0.0000
21
0.0000
31
0.0
0
CIRCLE
8
HOLES
10
-13.5000
20
6.5000
30
0.0
40
1.6500
0
CIRCLE
8
HOLES
10
220.3667
20
6.5000
30
0.0
40
1.6500
0
CIRCLE
8
HOLES
10
142.4111
20
6.5000
30
0.0
40
1.6500
0
CIRCLE
8
HOLES
10
64.4556
20
6.5000
30
0.0
40
1.6500
0
ENDSEC
0
EOF
