0
SECTION
2
ENTITIES
0
LINE
8
CUT
10
426.2000
20
0.0000
30
0.0
11
427.6816
21
0.0647
31
0.0
0
LINE
8
CUT
10
427.6816
20
0.0647
30
0.0
11
429.1520
21
0.2583
31
0.0
0
LINE
8
CUT
10
429.1520
20
0.2583
30
0.0
11
430.5999
21
0.5793
31
0.0
0
LINE
8
CUT
10
430.5999
20
0.5793
30
0.0
11
432.0143
21
1.0252
31
0.0
0
LINE
8
CUT
10
432.0143
20
1.0252
30
0.0
11
433.3845
21
1.5928
31
0.0
0
LINE
8
CUT
10
433.3845
20
1.5928
30
0.0
11
434.7000
21
2.2776
31
0.0
0
LINE
8
CUT
10
434.7000
20
2.2776
30
0.0
11
435.9508
21
3.0744
31
0.0
0
LINE
8
CUT
10
435.9508
20
3.0744
30
0.0
11
437.1274
21
3.9772
31
0.0
0
LINE
8
CUT
10
437.1274
20
3.9772
30
0.0
11
438.2208
21
4.9792
31
0.0
0
LINE
8
CUT
10
438.2208
20
4.9792
30
0.0
11
439.2228
21
6.0726
31
0.0
0
LINE
8
CUT
10
439.2228
20
6.0726
30
0.0
11
440.1256
21
7.2492
31
0.0
0
LINE
8
CUT
10
440.1256
20
7.2492
30
0.0
11
440.9224
21
8.5000
31
0.0
0
LINE
8
CUT
10
440.9224
20
8.5000
30
0.0
11
441.6072
21
9.8155
31
0.0
0
LINE
8
CUT
10
441.6072
20
9.8155
30
0.0
11
442.1748
21
11.1857
31
0.0
0
LINE
8
CUT
10
442.1748
20
11.1857
30
0.0
11
442.6207
21
12.6001
31
0.0
0
LINE
8
CUT
10
442.6207
20
12.6001
30
0.0
11
442.9417
21
14.0480
31
0.0
0
LINE
8
CUT
10
442.9417
20
14.0480
30
0.0
11
443.1353
21
15.5184
31
0.0
0
LINE
8
CUT
10
443.1353
20
15.5184
30
0.0
11
443.2000
21
17.0000
31
0.0
0
LINE
8
CUT
10
443.2000
20
17.0000
30
0.0
11
443.2000
21
297.4000
31
0.0
0
LINE
8
CUT
10
443.2000
20
297.4000
30
0.0
11
443.1353
21
298.8816
31
0.0
0
LINE
8
CUT
10
443.1353
20
298.8816
30
0.0
11
442.9417
21
300.3520
31
0.0
0
LINE
8
CUT
10
442.9417
20
300.3520
30
0.0
11
442.6207
21
301.7999
31
0.0
0
LINE
8
CUT
10
442.6207
20
301.7999
30
0.0
11
442.1748
21
303.2143
31
0.0
0
LINE
8
CUT
10
442.1748
20
303.2143
30
0.0
11
441.6072
21
304.5845
31
0.0
0
LINE
8
CUT
10
441.6072
20
304.5845
30
0.0
11
440.9224
21
305.9000
31
0.0
0
LINE
8
CUT
10
440.9224
20
305.9000
30
0.0
11
440.1256
21
307.1508
31
0.0
0
LINE
8
CUT
10
440.1256
20
307.1508
30
0.0
11
439.2228
21
308.3274
31
0.0
0
LINE
8
CUT
10
439.2228
20
308.3274
30
0.0
11
438.2208
21
309.4208
31
0.0
0
LINE
8
CUT
10
438.2208
20
309.4208
30
0.0
11
437.1274
21
310.4228
31
0.0
0
LINE
8
CUT
10
437.1274
20
310.4228
30
0.0
11
435.9508
21
311.3256
31
0.0
0
LINE
8
CUT
10
435.9508
20
311.3256
30
0.0
11
434.7000
21
312.1224
31
0.0
0
LINE
8
CUT
10
434.7000
20
312.1224
30
0.0
11
433.3845
21
312.8072
31
0.0
0
LINE
8
CUT
10
433.3845
20
312.8072
30
0.0
11
432.0143
21
313.3748
31
0.0
0
LINE
8
CUT
10
432.0143
20
313.3748
30
0.0
11
430.5999
21
313.8207
31
0.0
0
LINE
8
CUT
10
430.5999
20
313.8207
30
0.0
11
429.1520
21
314.1417
31
0.0
0
LINE
8
CUT
10
429.1520
20
314.1417
30
0.0
11
427.6816
21
314.3353
31
0.0
0
LINE
8
CUT
10
427.6816
20
314.3353
30
0.0
11
426.2000
21
314.4000
31
0.0
0
LINE
8
CUT
10
426.2000
20
314.4000
30
0.0
11
17.0000
21
314.4000
31
0.0
0
LINE
8
CUT
10
17.0000
20
314.4000
30
0.0
11
15.5184
21
314.3353
31
0.0
0
LINE
8
CUT
10
15.5184
20
314.3353
30
0.0
11
14.0480
21
314.1417
31
0.0
0
LINE
8
CUT
10
14.0480
20
314.1417
30
0.0
11
12.6001
21
313.8207
31
0.0
0
LINE
8
CUT
10
12.6001
20
313.8207
30
0.0
11
11.1857
21
313.3748
31
0.0
0
LINE
8
CUT
10
11.1857
20
313.3748
30
0.0
11
9.8155
21
312.8072
31
0.0
0
LINE
8
CUT
10
9.8155
20
312.8072
30
0.0
11
8.5000
21
312.1224
31
0.0
0
LINE
8
CUT
10
8.5000
20
312.1224
30
0.0
11
7.2492
21
311.3256
31
0.0
0
LINE
8
CUT
10
7.2492
20
311.3256
30
0.0
11
6.0726
21
310.4228
31
0.0
0
LINE
8
CUT
10
6.0726
20
310.4228
30
0.0
11
4.9792
21
309.4208
31
0.0
0
LINE
8
CUT
10
4.9792
20
309.4208
30
0.0
11
3.9772
21
308.3274
31
0.0
0
LINE
8
CUT
10
3.9772
20
308.3274
30
0.0
11
3.0744
21
307.1508
31
0.0
0
LINE
8
CUT
10
3.0744
20
307.1508
30
0.0
11
2.2776
21
305.9000
31
0.0
0
LINE
8
CUT
10
2.2776
20
305.9000
30
0.0
11
1.5928
21
304.5845
31
0.0
0
LINE
8
CUT
10
1.5928
20
304.5845
30
0.0
11
1.0252
21
303.2143
31
0.0
0
LINE
8
CUT
10
1.0252
20
303.2143
30
0.0
11
0.5793
21
301.7999
31
0.0
0
LINE
8
CUT
10
0.5793
20
301.7999
30
0.0
11
0.2583
21
300.3520
31
0.0
0
LINE
8
CUT
10
0.2583
20
300.3520
30
0.0
11
0.0647
21
298.8816
31
0.0
0
LINE
8
CUT
10
0.0647
20
298.8816
30
0.0
11
0.0000
21
297.4000
31
0.0
0
LINE
8
CUT
10
0.0000
20
297.4000
30
0.0
11
0.0000
21
17.0000
31
0.0
0
LINE
8
CUT
10
0.0000
20
17.0000
30
0.0
11
0.0647
21
15.5184
31
0.0
0
LINE
8
CUT
10
0.0647
20
15.5184
30
0.0
11
0.2583
21
14.0480
31
0.0
0
LINE
8
CUT
10
0.2583
20
14.0480
30
0.0
11
0.5793
21
12.6001
31
0.0
0
LINE
8
CUT
10
0.5793
20
12.6001
30
0.0
11
1.0252
21
11.1857
31
0.0
0
LINE
8
CUT
10
1.0252
20
11.1857
30
0.0
11
1.5928
21
9.8155
31
0.0
0
LINE
8
CUT
10
1.5928
20
9.8155
30
0.0
11
2.2776
21
8.5000
31
0.0
0
LINE
8
CUT
10
2.2776
20
8.5000
30
0.0
11
3.0744
21
7.2492
31
0.0
0
LINE
8
CUT
10
3.0744
20
7.2492
30
0.0
11
3.9772
21
6.0726
31
0.0
0
LINE
8
CUT
10
3.9772
20
6.0726
30
0.0
11
4.9792
21
4.9792
31
0.0
0
LINE
8
CUT
10
4.9792
20
4.9792
30
0.0
11
6.0726
21
3.9772
31
0.0
0
LINE
8
CUT
10
6.0726
20
3.9772
30
0.0
11
7.2492
21
3.0744
31
0.0
0
LINE
8
CUT
10
7.2492
20
3.0744
30
0.0
11
8.5000
21
2.2776
31
0.0
0
LINE
8
CUT
10
8.5000
20
2.2776
30
0.0
11
9.8155
21
1.5928
31
0.0
0
LINE
8
CUT
10
9.8155
20
1.5928
30
0.0
11
11.1857
21
1.0252
31
0.0
0
LINE
8
CUT
10
11.1857
20
1.0252
30
0.0
11
12.6001
21
0.5793
31
0.0
0
LINE
8
CUT
10
12.6001
20
0.5793
30
0.0
11
14.0480
21
0.2583
31
0.0
0
LINE
8
CUT
10
14.0480
20
0.2583
30
0.0
11
15.5184
21
0.0647
31
0.0
0
LINE
8
CUT
10
15.5184
20
0.0647
30
0.0
11
17.0000
21
0.0000
31
0.0
0
LINE
8
CUT
10
17.0000
20
0.0000
30
0.0
11
426.2000
21
0.0000
31
0.0
0
CIRCLE
8
HOLES
10
426.2000
20
8.0000
30
0.0
40
2.5000
0
CIRCLE
8
HOLES
10
435.2000
20
82.6300
30
0.0
40
2.5000
0
CIRCLE
8
HOLES
10
435.2000
20
162.3900
30
0.0
40
2.5000
0
CIRCLE
8
HOLES
10
435.2000
20
242.1600
30
0.0
40
2.5000
0
CIRCLE
8
HOLES
10
415.8100
20
306.4000
30
0.0
40
2.5000
0
CIRCLE
8
HOLES
10
336.0500
20
306.4000
30
0.0
40
2.5000
0
CIRCLE
8
HOLES
10
256.2900
20
306.4000
30
0.0
40
2.5000
0
CIRCLE
8
HOLES
10
176.5300
20
306.4000
30
0.0
40
2.5000
0
CIRCLE
8
HOLES
10
96.7600
20
306.4000
30
0.0
40
2.5000
0
CIRCLE
8
HOLES
10
17.0000
20
306.4000
30
0.0
40
2.5000
0
CIRCLE
8
HOLES
10
8.0000
20
231.7700
30
0.0
40
2.5000
0
CIRCLE
8
HOLES
10
8.0000
20
152.0100
30
0.0
40
2.5000
0
CIRCLE
8
HOLES
10
8.0000
20
72.2400
30
0.0
40
2.5000
0
CIRCLE
8
HOLES
10
27.3900
20
8.0000
30
0.0
40
2.5000
0
CIRCLE
8
HOLES
10
107.1500
20
8.0000
30
0.0
40
2.5000
0
CIRCLE
8
HOLES
10
186.9100
20
8.0000
30
0.0
40
2.5000
0
CIRCLE
8
HOLES
10
266.6700
20
8.0000
30
0.0
40
2.5000
0
CIRCLE
8
HOLES
10
346.4400
20
8.0000
30
0.0
40
2.5000
0
ENDSEC
0
EOF
