0
SECTION
2
ENTITIES
0
LINE
8
CUT
10
0.0000
20
0.0000
30
0.0
11
434.6000
21
0.0000
31
0.0
0
LINE
8
CUT
10
434.6000
20
0.0000
30
0.0
11
434.6000
21
292.4000
31
0.0
0
LINE
8
CUT
10
434.6000
20
292.4000
30
0.0
11
0.0000
21
292.4000
31
0.0
0
LINE
8
CUT
10
0.0000
20
292.4000
30
0.0
11
0.0000
21
0.0000
31
0.0
0
CIRCLE
8
HOLES
10
10.5000
20
10.5000
30
0.0
40
2.5000
0
CIRCLE
8
HOLES
10
91.0882
20
10.5000
30
0.0
40
2.5000
0
CIRCLE
8
HOLES
10
171.6765
20
10.5000
30
0.0
40
2.5000
0
CIRCLE
8
HOLES
10
252.2647
20
10.5000
30
0.0
40
2.5000
0
CIRCLE
8
HOLES
10
332.8529
20
10.5000
30
0.0
40
2.5000
0
CIRCLE
8
HOLES
10
413.4412
20
10.5000
30
0.0
40
2.5000
0
CIRCLE
8
HOLES
10
424.1000
20
80.4294
30
0.0
40
2.5000
0
CIRCLE
8
HOLES
10
424.1000
20
161.0176
30
0.0
40
2.5000
0
CIRCLE
8
HOLES
10
424.1000
20
241.6059
30
0.0
40
2.5000
0
CIRCLE
8
HOLES
10
383.8059
20
281.9000
30
0.0
40
2.5000
0
CIRCLE
8
HOLES
10
303.2176
20
281.9000
30
0.0
40
2.5000
0
CIRCLE
8
HOLES
10
222.6294
20
281.9000
30
0.0
40
2.5000
0
CIRCLE
8
HOLES
10
142.0412
20
281.9000
30
0.0
40
2.5000
0
CIRCLE
8
HOLES
10
61.4529
20
281.9000
30
0.0
40
2.5000
0
CIRCLE
8
HOLES
10
10.5000
20
252.2647
30
0.0
40
2.5000
0
CIRCLE
8
HOLES
10
10.5000
20
171.6765
30
0.0
40
2.5000
0
CIRCLE
8
HOLES
10
10.5000
20
91.0882
30
0.0
40
2.5000
0
ENDSEC
0
EOF
