0
SECTION
2
ENTITIES
0
LINE
8
CUT
10
426.2000
20
-6.0000
30
0.0
11
428.2046
21
-5.9125
31
0.0
0
LINE
8
CUT
10
428.2046
20
-5.9125
30
0.0
11
430.1939
21
-5.6506
31
0.0
0
LINE
8
CUT
10
430.1939
20
-5.6506
30
0.0
11
432.1528
21
-5.2163
31
0.0
0
LINE
8
CUT
10
432.1528
20
-5.2163
30
0.0
11
434.0665
21
-4.6129
31
0.0
0
LINE
8
CUT
10
434.0665
20
-4.6129
30
0.0
11
435.9202
21
-3.8451
31
0.0
0
LINE
8
CUT
10
435.9202
20
-3.8451
30
0.0
11
437.7000
21
-2.9186
31
0.0
0
LINE
8
CUT
10
437.7000
20
-2.9186
30
0.0
11
439.3923
21
-1.8405
31
0.0
0
LINE
8
CUT
10
439.3923
20
-1.8405
30
0.0
11
440.9841
21
-0.6190
31
0.0
0
LINE
8
CUT
10
440.9841
20
-0.6190
30
0.0
11
442.4635
21
0.7365
31
0.0
0
LINE
8
CUT
10
442.4635
20
0.7365
30
0.0
11
443.8190
21
2.2159
31
0.0
0
LINE
8
CUT
10
443.8190
20
2.2159
30
0.0
11
445.0405
21
3.8077
31
0.0
0
LINE
8
CUT
10
445.0405
20
3.8077
30
0.0
11
446.1186
21
5.5000
31
0.0
0
LINE
8
CUT
10
446.1186
20
5.5000
30
0.0
11
447.0451
21
7.2798
31
0.0
0
LINE
8
CUT
10
447.0451
20
7.2798
30
0.0
11
447.8129
21
9.1335
31
0.0
0
LINE
8
CUT
10
447.8129
20
9.1335
30
0.0
11
448.4163
21
11.0472
31
0.0
0
LINE
8
CUT
10
448.4163
20
11.0472
30
0.0
11
448.8506
21
13.0061
31
0.0
0
LINE
8
CUT
10
448.8506
20
13.0061
30
0.0
11
449.1125
21
14.9954
31
0.0
0
LINE
8
CUT
10
449.1125
20
14.9954
30
0.0
11
449.2000
21
17.0000
31
0.0
0
LINE
8
CUT
10
449.2000
20
17.0000
30
0.0
11
449.2000
21
297.4000
31
0.0
0
LINE
8
CUT
10
449.2000
20
297.4000
30
0.0
11
449.1125
21
299.4046
31
0.0
0
LINE
8
CUT
10
449.1125
20
299.4046
30
0.0
11
448.8506
21
301.3939
31
0.0
0
LINE
8
CUT
10
448.8506
20
301.3939
30
0.0
11
448.4163
21
303.3528
31
0.0
0
LINE
8
CUT
10
448.4163
20
303.3528
30
0.0
11
447.8129
21
305.2665
31
0.0
0
LINE
8
CUT
10
447.8129
20
305.2665
30
0.0
11
447.0451
21
307.1202
31
0.0
0
LINE
8
CUT
10
447.0451
20
307.1202
30
0.0
11
446.1186
21
308.9000
31
0.0
0
LINE
8
CUT
10
446.1186
20
308.9000
30
0.0
11
445.0405
21
310.5923
31
0.0
0
LINE
8
CUT
10
445.0405
20
310.5923
30
0.0
11
443.8190
21
312.1841
31
0.0
0
LINE
8
CUT
10
443.8190
20
312.1841
30
0.0
11
442.4635
21
313.6635
31
0.0
0
LINE
8
CUT
10
442.4635
20
313.6635
30
0.0
11
440.9841
21
315.0190
31
0.0
0
LINE
8
CUT
10
440.9841
20
315.0190
30
0.0
11
439.3923
21
316.2405
31
0.0
0
LINE
8
CUT
10
439.3923
20
316.2405
30
0.0
11
437.7000
21
317.3186
31
0.0
0
LINE
8
CUT
10
437.7000
20
317.3186
30
0.0
11
435.9202
21
318.2451
31
0.0
0
LINE
8
CUT
10
435.9202
20
318.2451
30
0.0
11
434.0665
21
319.0129
31
0.0
0
LINE
8
CUT
10
434.0665
20
319.0129
30
0.0
11
432.1528
21
319.6163
31
0.0
0
LINE
8
CUT
10
432.1528
20
319.6163
30
0.0
11
430.1939
21
320.0506
31
0.0
0
LINE
8
CUT
10
430.1939
20
320.0506
30
0.0
11
428.2046
21
320.3125
31
0.0
0
LINE
8
CUT
10
428.2046
20
320.3125
30
0.0
11
426.2000
21
320.4000
31
0.0
0
LINE
8
CUT
10
426.2000
20
320.4000
30
0.0
11
17.0000
21
320.4000
31
0.0
0
LINE
8
CUT
10
17.0000
20
320.4000
30
0.0
11
14.9954
21
320.3125
31
0.0
0
LINE
8
CUT
10
14.9954
20
320.3125
30
0.0
11
13.0061
21
320.0506
31
0.0
0
LINE
8
CUT
10
13.0061
20
320.0506
30
0.0
11
11.0472
21
319.6163
31
0.0
0
LINE
8
CUT
10
11.0472
20
319.6163
30
0.0
11
9.1335
21
319.0129
31
0.0
0
LINE
8
CUT
10
9.1335
20
319.0129
30
0.0
11
7.2798
21
318.2451
31
0.0
0
LINE
8
CUT
10
7.2798
20
318.2451
30
0.0
11
5.5000
21
317.3186
31
0.0
0
LINE
8
CUT
10
5.5000
20
317.3186
30
0.0
11
3.8077
21
316.2405
31
0.0
0
LINE
8
CUT
10
3.8077
20
316.2405
30
0.0
11
2.2159
21
315.0190
31
0.0
0
LINE
8
CUT
10
2.2159
20
315.0190
30
0.0
11
0.7365
21
313.6635
31
0.0
0
LINE
8
CUT
10
0.7365
20
313.6635
30
0.0
11
-0.6190
21
312.1841
31
0.0
0
LINE
8
CUT
10
-0.6190
20
312.1841
30
0.0
11
-1.8405
21
310.5923
31
0.0
0
LINE
8
CUT
10
-1.8405
20
310.5923
30
0.0
11
-2.9186
21
308.9000
31
0.0
0
LINE
8
CUT
10
-2.9186
20
308.9000
30
0.0
11
-3.8451
21
307.1202
31
0.0
0
LINE
8
CUT
10
-3.8451
20
307.1202
30
0.0
11
-4.6129
21
305.2665
31
0.0
0
LINE
8
CUT
10
-4.6129
20
305.2665
30
0.0
11
-5.2163
21
303.3528
31
0.0
0
LINE
8
CUT
10
-5.2163
20
303.3528
30
0.0
11
-5.6506
21
301.3939
31
0.0
0
LINE
8
CUT
10
-5.6506
20
301.3939
30
0.0
11
-5.9125
21
299.4046
31
0.0
0
LINE
8
CUT
10
-5.9125
20
299.4046
30
0.0
11
-6.0000
21
297.4000
31
0.0
0
LINE
8
CUT
10
-6.0000
20
297.4000
30
0.0
11
-6.0000
21
17.0000
31
0.0
0
LINE
8
CUT
10
-6.0000
20
17.0000
30
0.0
11
-5.9125
21
14.9954
31
0.0
0
LINE
8
CUT
10
-5.9125
20
14.9954
30
0.0
11
-5.6506
21
13.0061
31
0.0
0
LINE
8
CUT
10
-5.6506
20
13.0061
30
0.0
11
-5.2163
21
11.0472
31
0.0
0
LINE
8
CUT
10
-5.2163
20
11.0472
30
0.0
11
-4.6129
21
9.1335
31
0.0
0
LINE
8
CUT
10
-4.6129
20
9.1335
30
0.0
11
-3.8451
21
7.2798
31
0.0
0
LINE
8
CUT
10
-3.8451
20
7.2798
30
0.0
11
-2.9186
21
5.5000
31
0.0
0
LINE
8
CUT
10
-2.9186
20
5.5000
30
0.0
11
-1.8405
21
3.8077
31
0.0
0
LINE
8
CUT
10
-1.8405
20
3.8077
30
0.0
11
-0.6190
21
2.2159
31
0.0
0
LINE
8
CUT
10
-0.6190
20
2.2159
30
0.0
11
0.7365
21
0.7365
31
0.0
0
LINE
8
CUT
10
0.7365
20
0.7365
30
0.0
11
2.2159
21
-0.6190
31
0.0
0
LINE
8
CUT
10
2.2159
20
-0.6190
30
0.0
11
3.8077
21
-1.8405
31
0.0
0
LINE
8
CUT
10
3.8077
20
-1.8405
30
0.0
11
5.5000
21
-2.9186
31
0.0
0
LINE
8
CUT
10
5.5000
20
-2.9186
30
0.0
11
7.2798
21
-3.8451
31
0.0
0
LINE
8
CUT
10
7.2798
20
-3.8451
30
0.0
11
9.1335
21
-4.6129
31
0.0
0
LINE
8
CUT
10
9.1335
20
-4.6129
30
0.0
11
11.0472
21
-5.2163
31
0.0
0
LINE
8
CUT
10
11.0472
20
-5.2163
30
0.0
11
13.0061
21
-5.6506
31
0.0
0
LINE
8
CUT
10
13.0061
20
-5.6506
30
0.0
11
14.9954
21
-5.9125
31
0.0
0
LINE
8
CUT
10
14.9954
20
-5.9125
30
0.0
11
17.0000
21
-6.0000
31
0.0
0
LINE
8
CUT
10
17.0000
20
-6.0000
30
0.0
11
426.2000
21
-6.0000
31
0.0
0
CIRCLE
8
HOLES
10
426.2000
20
8.0000
30
0.0
40
6.0000
0
CIRCLE
8
HOLES
10
435.2000
20
82.6300
30
0.0
40
6.0000
0
CIRCLE
8
HOLES
10
435.2000
20
162.3900
30
0.0
40
6.0000
0
CIRCLE
8
HOLES
10
435.2000
20
242.1600
30
0.0
40
6.0000
0
CIRCLE
8
HOLES
10
415.8100
20
306.4000
30
0.0
40
6.0000
0
CIRCLE
8
HOLES
10
336.0500
20
306.4000
30
0.0
40
6.0000
0
CIRCLE
8
HOLES
10
256.2900
20
306.4000
30
0.0
40
6.0000
0
CIRCLE
8
HOLES
10
176.5300
20
306.4000
30
0.0
40
6.0000
0
CIRCLE
8
HOLES
10
96.7600
20
306.4000
30
0.0
40
6.0000
0
CIRCLE
8
HOLES
10
17.0000
20
306.4000
30
0.0
40
6.0000
0
CIRCLE
8
HOLES
10
8.0000
20
231.7700
30
0.0
40
6.0000
0
CIRCLE
8
HOLES
10
8.0000
20
152.0100
30
0.0
40
6.0000
0
CIRCLE
8
HOLES
10
8.0000
20
72.2400
30
0.0
40
6.0000
0
CIRCLE
8
HOLES
10
27.3900
20
8.0000
30
0.0
40
6.0000
0
CIRCLE
8
HOLES
10
107.1500
20
8.0000
30
0.0
40
6.0000
0
CIRCLE
8
HOLES
10
186.9100
20
8.0000
30
0.0
40
6.0000
0
CIRCLE
8
HOLES
10
266.6700
20
8.0000
30
0.0
40
6.0000
0
CIRCLE
8
HOLES
10
346.4400
20
8.0000
30
0.0
40
6.0000
0
ENDSEC
0
EOF
