0
SECTION
2
ENTITIES
0
LINE
8
CUT
10
0.0000
20
0.0000
30
0.0
11
250.0000
21
0.0000
31
0.0
0
LINE
8
CUT
10
250.0000
20
0.0000
30
0.0
11
250.0000
21
175.0000
31
0.0
0
LINE
8
CUT
10
250.0000
20
175.0000
30
0.0
11
0.0000
21
175.0000
31
0.0
0
LINE
8
CUT
10
0.0000
20
175.0000
30
0.0
11
0.0000
21
0.0000
31
0.0
0
CIRCLE
8
HOLES
10
42.5000
20
42.5000
30
0.0
40
10.0000
0
CIRCLE
8
HOLES
10
42.5000
20
132.5000
30
0.0
40
10.0000
0
CIRCLE
8
HOLES
10
207.5000
20
42.5000
30
0.0
40
10.0000
0
CIRCLE
8
HOLES
10
207.5000
20
132.5000
30
0.0
40
10.0000
0
ENDSEC
0
EOF
