0
SECTION
2
ENTITIES
0
LINE
8
CUT
10
488.7000
20
0.0000
30
0.0
11
490.6174
21
0.0837
31
0.0
0
LINE
8
CUT
10
490.6174
20
0.0837
30
0.0
11
492.5203
21
0.3342
31
0.0
0
LINE
8
CUT
10
492.5203
20
0.3342
30
0.0
11
494.3940
21
0.7496
31
0.0
0
LINE
8
CUT
10
494.3940
20
0.7496
30
0.0
11
496.2244
21
1.3268
31
0.0
0
LINE
8
CUT
10
496.2244
20
1.3268
30
0.0
11
497.9976
21
2.0612
31
0.0
0
LINE
8
CUT
10
497.9976
20
2.0612
30
0.0
11
499.7000
21
2.9474
31
0.0
0
LINE
8
CUT
10
499.7000
20
2.9474
30
0.0
11
501.3187
21
3.9787
31
0.0
0
LINE
8
CUT
10
501.3187
20
3.9787
30
0.0
11
502.8413
21
5.1470
31
0.0
0
LINE
8
CUT
10
502.8413
20
5.1470
30
0.0
11
504.2563
21
6.4437
31
0.0
0
LINE
8
CUT
10
504.2563
20
6.4437
30
0.0
11
505.5530
21
7.8587
31
0.0
0
LINE
8
CUT
10
505.5530
20
7.8587
30
0.0
11
506.7213
21
9.3813
31
0.0
0
LINE
8
CUT
10
506.7213
20
9.3813
30
0.0
11
507.7526
21
11.0000
31
0.0
0
LINE
8
CUT
10
507.7526
20
11.0000
30
0.0
11
508.6388
21
12.7024
31
0.0
0
LINE
8
CUT
10
508.6388
20
12.7024
30
0.0
11
509.3732
21
14.4756
31
0.0
0
LINE
8
CUT
10
509.3732
20
14.4756
30
0.0
11
509.9504
21
16.3060
31
0.0
0
LINE
8
CUT
10
509.9504
20
16.3060
30
0.0
11
510.3658
21
18.1797
31
0.0
0
LINE
8
CUT
10
510.3658
20
18.1797
30
0.0
11
510.6163
21
20.0826
31
0.0
0
LINE
8
CUT
10
510.6163
20
20.0826
30
0.0
11
510.7000
21
22.0000
31
0.0
0
LINE
8
CUT
10
510.7000
20
22.0000
30
0.0
11
510.7000
21
300.4000
31
0.0
0
LINE
8
CUT
10
510.7000
20
300.4000
30
0.0
11
510.6163
21
302.3174
31
0.0
0
LINE
8
CUT
10
510.6163
20
302.3174
30
0.0
11
510.3658
21
304.2203
31
0.0
0
LINE
8
CUT
10
510.3658
20
304.2203
30
0.0
11
509.9504
21
306.0940
31
0.0
0
LINE
8
CUT
10
509.9504
20
306.0940
30
0.0
11
509.3732
21
307.9244
31
0.0
0
LINE
8
CUT
10
509.3732
20
307.9244
30
0.0
11
508.6388
21
309.6976
31
0.0
0
LINE
8
CUT
10
508.6388
20
309.6976
30
0.0
11
507.7526
21
311.4000
31
0.0
0
LINE
8
CUT
10
507.7526
20
311.4000
30
0.0
11
506.7213
21
313.0187
31
0.0
0
LINE
8
CUT
10
506.7213
20
313.0187
30
0.0
11
505.5530
21
314.5413
31
0.0
0
LINE
8
CUT
10
505.5530
20
314.5413
30
0.0
11
504.2563
21
315.9563
31
0.0
0
LINE
8
CUT
10
504.2563
20
315.9563
30
0.0
11
502.8413
21
317.2530
31
0.0
0
LINE
8
CUT
10
502.8413
20
317.2530
30
0.0
11
501.3187
21
318.4213
31
0.0
0
LINE
8
CUT
10
501.3187
20
318.4213
30
0.0
11
499.7000
21
319.4526
31
0.0
0
LINE
8
CUT
10
499.7000
20
319.4526
30
0.0
11
497.9976
21
320.3388
31
0.0
0
LINE
8
CUT
10
497.9976
20
320.3388
30
0.0
11
496.2244
21
321.0732
31
0.0
0
LINE
8
CUT
10
496.2244
20
321.0732
30
0.0
11
494.3940
21
321.6504
31
0.0
0
LINE
8
CUT
10
494.3940
20
321.6504
30
0.0
11
492.5203
21
322.0658
31
0.0
0
LINE
8
CUT
10
492.5203
20
322.0658
30
0.0
11
490.6174
21
322.3163
31
0.0
0
LINE
8
CUT
10
490.6174
20
322.3163
30
0.0
11
488.7000
21
322.4000
31
0.0
0
LINE
8
CUT
10
488.7000
20
322.4000
30
0.0
11
22.0000
21
322.4000
31
0.0
0
LINE
8
CUT
10
22.0000
20
322.4000
30
0.0
11
20.0826
21
322.3163
31
0.0
0
LINE
8
CUT
10
20.0826
20
322.3163
30
0.0
11
18.1797
21
322.0658
31
0.0
0
LINE
8
CUT
10
18.1797
20
322.0658
30
0.0
11
16.3060
21
321.6504
31
0.0
0
LINE
8
CUT
10
16.3060
20
321.6504
30
0.0
11
14.4756
21
321.0732
31
0.0
0
LINE
8
CUT
10
14.4756
20
321.0732
30
0.0
11
12.7024
21
320.3388
31
0.0
0
LINE
8
CUT
10
12.7024
20
320.3388
30
0.0
11
11.0000
21
319.4526
31
0.0
0
LINE
8
CUT
10
11.0000
20
319.4526
30
0.0
11
9.3813
21
318.4213
31
0.0
0
LINE
8
CUT
10
9.3813
20
318.4213
30
0.0
11
7.8587
21
317.2530
31
0.0
0
LINE
8
CUT
10
7.8587
20
317.2530
30
0.0
11
6.4437
21
315.9563
31
0.0
0
LINE
8
CUT
10
6.4437
20
315.9563
30
0.0
11
5.1470
21
314.5413
31
0.0
0
LINE
8
CUT
10
5.1470
20
314.5413
30
0.0
11
3.9787
21
313.0187
31
0.0
0
LINE
8
CUT
10
3.9787
20
313.0187
30
0.0
11
2.9474
21
311.4000
31
0.0
0
LINE
8
CUT
10
2.9474
20
311.4000
30
0.0
11
2.0612
21
309.6976
31
0.0
0
LINE
8
CUT
10
2.0612
20
309.6976
30
0.0
11
1.3268
21
307.9244
31
0.0
0
LINE
8
CUT
10
1.3268
20
307.9244
30
0.0
11
0.7496
21
306.0940
31
0.0
0
LINE
8
CUT
10
0.7496
20
306.0940
30
0.0
11
0.3342
21
304.2203
31
0.0
0
LINE
8
CUT
10
0.3342
20
304.2203
30
0.0
11
0.0837
21
302.3174
31
0.0
0
LINE
8
CUT
10
0.0837
20
302.3174
30
0.0
11
0.0000
21
300.4000
31
0.0
0
LINE
8
CUT
10
0.0000
20
300.4000
30
0.0
11
0.0000
21
22.0000
31
0.0
0
LINE
8
CUT
10
0.0000
20
22.0000
30
0.0
11
0.0837
21
20.0826
31
0.0
0
LINE
8
CUT
10
0.0837
20
20.0826
30
0.0
11
0.3342
21
18.1797
31
0.0
0
LINE
8
CUT
10
0.3342
20
18.1797
30
0.0
11
0.7496
21
16.3060
31
0.0
0
LINE
8
CUT
10
0.7496
20
16.3060
30
0.0
11
1.3268
21
14.4756
31
0.0
0
LINE
8
CUT
10
1.3268
20
14.4756
30
0.0
11
2.0612
21
12.7024
31
0.0
0
LINE
8
CUT
10
2.0612
20
12.7024
30
0.0
11
2.9474
21
11.0000
31
0.0
0
LINE
8
CUT
10
2.9474
20
11.0000
30
0.0
11
3.9787
21
9.3813
31
0.0
0
LINE
8
CUT
10
3.9787
20
9.3813
30
0.0
11
5.1470
21
7.8587
31
0.0
0
LINE
8
CUT
10
5.1470
20
7.8587
30
0.0
11
6.4437
21
6.4437
31
0.0
0
LINE
8
CUT
10
6.4437
20
6.4437
30
0.0
11
7.8587
21
5.1470
31
0.0
0
LINE
8
CUT
10
7.8587
20
5.1470
30
0.0
11
9.3813
21
3.9787
31
0.0
0
LINE
8
CUT
10
9.3813
20
3.9787
30
0.0
11
11.0000
21
2.9474
31
0.0
0
LINE
8
CUT
10
11.0000
20
2.9474
30
0.0
11
12.7024
21
2.0612
31
0.0
0
LINE
8
CUT
10
12.7024
20
2.0612
30
0.0
11
14.4756
21
1.3268
31
0.0
0
LINE
8
CUT
10
14.4756
20
1.3268
30
0.0
11
16.3060
21
0.7496
31
0.0
0
LINE
8
CUT
10
16.3060
20
0.7496
30
0.0
11
18.1797
21
0.3342
31
0.0
0
LINE
8
CUT
10
18.1797
20
0.3342
30
0.0
11
20.0826
21
0.0837
31
0.0
0
LINE
8
CUT
10
20.0826
20
0.0837
30
0.0
11
22.0000
21
0.0000
31
0.0
0
LINE
8
CUT
10
22.0000
20
0.0000
30
0.0
11
488.7000
21
0.0000
31
0.0
0
ENDSEC
0
EOF
