0
SECTION
2
ENTITIES
0
LINE
8
CUT
10
501.7000
20
0.0000
30
0.0
11
503.6174
21
0.0837
31
0.0
0
LINE
8
CUT
10
503.6174
20
0.0837
30
0.0
11
505.5203
21
0.3342
31
0.0
0
LINE
8
CUT
10
505.5203
20
0.3342
30
0.0
11
507.3940
21
0.7496
31
0.0
0
LINE
8
CUT
10
507.3940
20
0.7496
30
0.0
11
509.2244
21
1.3268
31
0.0
0
LINE
8
CUT
10
509.2244
20
1.3268
30
0.0
11
510.9976
21
2.0612
31
0.0
0
LINE
8
CUT
10
510.9976
20
2.0612
30
0.0
11
512.7000
21
2.9474
31
0.0
0
LINE
8
CUT
10
512.7000
20
2.9474
30
0.0
11
514.3187
21
3.9787
31
0.0
0
LINE
8
CUT
10
514.3187
20
3.9787
30
0.0
11
515.8413
21
5.1470
31
0.0
0
LINE
8
CUT
10
515.8413
20
5.1470
30
0.0
11
517.2563
21
6.4437
31
0.0
0
LINE
8
CUT
10
517.2563
20
6.4437
30
0.0
11
518.5530
21
7.8587
31
0.0
0
LINE
8
CUT
10
518.5530
20
7.8587
30
0.0
11
519.7213
21
9.3813
31
0.0
0
LINE
8
CUT
10
519.7213
20
9.3813
30
0.0
11
520.7526
21
11.0000
31
0.0
0
LINE
8
CUT
10
520.7526
20
11.0000
30
0.0
11
521.6388
21
12.7024
31
0.0
0
LINE
8
CUT
10
521.6388
20
12.7024
30
0.0
11
522.3732
21
14.4756
31
0.0
0
LINE
8
CUT
10
522.3732
20
14.4756
30
0.0
11
522.9504
21
16.3060
31
0.0
0
LINE
8
CUT
10
522.9504
20
16.3060
30
0.0
11
523.3658
21
18.1797
31
0.0
0
LINE
8
CUT
10
523.3658
20
18.1797
30
0.0
11
523.6163
21
20.0826
31
0.0
0
LINE
8
CUT
10
523.6163
20
20.0826
30
0.0
11
523.7000
21
22.0000
31
0.0
0
LINE
8
CUT
10
523.7000
20
22.0000
30
0.0
11
523.7000
21
296.4000
31
0.0
0
LINE
8
CUT
10
523.7000
20
296.4000
30
0.0
11
523.6163
21
298.3174
31
0.0
0
LINE
8
CUT
10
523.6163
20
298.3174
30
0.0
11
523.3658
21
300.2203
31
0.0
0
LINE
8
CUT
10
523.3658
20
300.2203
30
0.0
11
522.9504
21
302.0940
31
0.0
0
LINE
8
CUT
10
522.9504
20
302.0940
30
0.0
11
522.3732
21
303.9244
31
0.0
0
LINE
8
CUT
10
522.3732
20
303.9244
30
0.0
11
521.6388
21
305.6976
31
0.0
0
LINE
8
CUT
10
521.6388
20
305.6976
30
0.0
11
520.7526
21
307.4000
31
0.0
0
LINE
8
CUT
10
520.7526
20
307.4000
30
0.0
11
519.7213
21
309.0187
31
0.0
0
LINE
8
CUT
10
519.7213
20
309.0187
30
0.0
11
518.5530
21
310.5413
31
0.0
0
LINE
8
CUT
10
518.5530
20
310.5413
30
0.0
11
517.2563
21
311.9563
31
0.0
0
LINE
8
CUT
10
517.2563
20
311.9563
30
0.0
11
515.8413
21
313.2530
31
0.0
0
LINE
8
CUT
10
515.8413
20
313.2530
30
0.0
11
514.3187
21
314.4213
31
0.0
0
LINE
8
CUT
10
514.3187
20
314.4213
30
0.0
11
512.7000
21
315.4526
31
0.0
0
LINE
8
CUT
10
512.7000
20
315.4526
30
0.0
11
510.9976
21
316.3388
31
0.0
0
LINE
8
CUT
10
510.9976
20
316.3388
30
0.0
11
509.2244
21
317.0732
31
0.0
0
LINE
8
CUT
10
509.2244
20
317.0732
30
0.0
11
507.3940
21
317.6504
31
0.0
0
LINE
8
CUT
10
507.3940
20
317.6504
30
0.0
11
505.5203
21
318.0658
31
0.0
0
LINE
8
CUT
10
505.5203
20
318.0658
30
0.0
11
503.6174
21
318.3163
31
0.0
0
LINE
8
CUT
10
503.6174
20
318.3163
30
0.0
11
501.7000
21
318.4000
31
0.0
0
LINE
8
CUT
10
501.7000
20
318.4000
30
0.0
11
22.0000
21
318.4000
31
0.0
0
LINE
8
CUT
10
22.0000
20
318.4000
30
0.0
11
20.0826
21
318.3163
31
0.0
0
LINE
8
CUT
10
20.0826
20
318.3163
30
0.0
11
18.1797
21
318.0658
31
0.0
0
LINE
8
CUT
10
18.1797
20
318.0658
30
0.0
11
16.3060
21
317.6504
31
0.0
0
LINE
8
CUT
10
16.3060
20
317.6504
30
0.0
11
14.4756
21
317.0732
31
0.0
0
LINE
8
CUT
10
14.4756
20
317.0732
30
0.0
11
12.7024
21
316.3388
31
0.0
0
LINE
8
CUT
10
12.7024
20
316.3388
30
0.0
11
11.0000
21
315.4526
31
0.0
0
LINE
8
CUT
10
11.0000
20
315.4526
30
0.0
11
9.3813
21
314.4213
31
0.0
0
LINE
8
CUT
10
9.3813
20
314.4213
30
0.0
11
7.8587
21
313.2530
31
0.0
0
LINE
8
CUT
10
7.8587
20
313.2530
30
0.0
11
6.4437
21
311.9563
31
0.0
0
LINE
8
CUT
10
6.4437
20
311.9563
30
0.0
11
5.1470
21
310.5413
31
0.0
0
LINE
8
CUT
10
5.1470
20
310.5413
30
0.0
11
3.9787
21
309.0187
31
0.0
0
LINE
8
CUT
10
3.9787
20
309.0187
30
0.0
11
2.9474
21
307.4000
31
0.0
0
LINE
8
CUT
10
2.9474
20
307.4000
30
0.0
11
2.0612
21
305.6976
31
0.0
0
LINE
8
CUT
10
2.0612
20
305.6976
30
0.0
11
1.3268
21
303.9244
31
0.0
0
LINE
8
CUT
10
1.3268
20
303.9244
30
0.0
11
0.7496
21
302.0940
31
0.0
0
LINE
8
CUT
10
0.7496
20
302.0940
30
0.0
11
0.3342
21
300.2203
31
0.0
0
LINE
8
CUT
10
0.3342
20
300.2203
30
0.0
11
0.0837
21
298.3174
31
0.0
0
LINE
8
CUT
10
0.0837
20
298.3174
30
0.0
11
0.0000
21
296.4000
31
0.0
0
LINE
8
CUT
10
0.0000
20
296.4000
30
0.0
11
0.0000
21
22.0000
31
0.0
0
LINE
8
CUT
10
0.0000
20
22.0000
30
0.0
11
0.0837
21
20.0826
31
0.0
0
LINE
8
CUT
10
0.0837
20
20.0826
30
0.0
11
0.3342
21
18.1797
31
0.0
0
LINE
8
CUT
10
0.3342
20
18.1797
30
0.0
11
0.7496
21
16.3060
31
0.0
0
LINE
8
CUT
10
0.7496
20
16.3060
30
0.0
11
1.3268
21
14.4756
31
0.0
0
LINE
8
CUT
10
1.3268
20
14.4756
30
0.0
11
2.0612
21
12.7024
31
0.0
0
LINE
8
CUT
10
2.0612
20
12.7024
30
0.0
11
2.9474
21
11.0000
31
0.0
0
LINE
8
CUT
10
2.9474
20
11.0000
30
0.0
11
3.9787
21
9.3813
31
0.0
0
LINE
8
CUT
10
3.9787
20
9.3813
30
0.0
11
5.1470
21
7.8587
31
0.0
0
LINE
8
CUT
10
5.1470
20
7.8587
30
0.0
11
6.4437
21
6.4437
31
0.0
0
LINE
8
CUT
10
6.4437
20
6.4437
30
0.0
11
7.8587
21
5.1470
31
0.0
0
LINE
8
CUT
10
7.8587
20
5.1470
30
0.0
11
9.3813
21
3.9787
31
0.0
0
LINE
8
CUT
10
9.3813
20
3.9787
30
0.0
11
11.0000
21
2.9474
31
0.0
0
LINE
8
CUT
10
11.0000
20
2.9474
30
0.0
11
12.7024
21
2.0612
31
0.0
0
LINE
8
CUT
10
12.7024
20
2.0612
30
0.0
11
14.4756
21
1.3268
31
0.0
0
LINE
8
CUT
10
14.4756
20
1.3268
30
0.0
11
16.3060
21
0.7496
31
0.0
0
LINE
8
CUT
10
16.3060
20
0.7496
30
0.0
11
18.1797
21
0.3342
31
0.0
0
LINE
8
CUT
10
18.1797
20
0.3342
30
0.0
11
20.0826
21
0.0837
31
0.0
0
LINE
8
CUT
10
20.0826
20
0.0837
30
0.0
11
22.0000
21
0.0000
31
0.0
0
LINE
8
CUT
10
22.0000
20
0.0000
30
0.0
11
501.7000
21
0.0000
31
0.0
0
ENDSEC
0
EOF
