0
SECTION
2
ENTITIES
0
LINE
8
CUT
10
500.0500
20
0.0000
30
0.0
11
501.9674
21
0.0837
31
0.0
0
LINE
8
CUT
10
501.9674
20
0.0837
30
0.0
11
503.8703
21
0.3342
31
0.0
0
LINE
8
CUT
10
503.8703
20
0.3342
30
0.0
11
505.7440
21
0.7496
31
0.0
0
LINE
8
CUT
10
505.7440
20
0.7496
30
0.0
11
507.5744
21
1.3268
31
0.0
0
LINE
8
CUT
10
507.5744
20
1.3268
30
0.0
11
509.3476
21
2.0612
31
0.0
0
LINE
8
CUT
10
509.3476
20
2.0612
30
0.0
11
511.0500
21
2.9474
31
0.0
0
LINE
8
CUT
10
511.0500
20
2.9474
30
0.0
11
512.6687
21
3.9787
31
0.0
0
LINE
8
CUT
10
512.6687
20
3.9787
30
0.0
11
514.1913
21
5.1470
31
0.0
0
LINE
8
CUT
10
514.1913
20
5.1470
30
0.0
11
515.6063
21
6.4437
31
0.0
0
LINE
8
CUT
10
515.6063
20
6.4437
30
0.0
11
516.9030
21
7.8587
31
0.0
0
LINE
8
CUT
10
516.9030
20
7.8587
30
0.0
11
518.0713
21
9.3813
31
0.0
0
LINE
8
CUT
10
518.0713
20
9.3813
30
0.0
11
519.1026
21
11.0000
31
0.0
0
LINE
8
CUT
10
519.1026
20
11.0000
30
0.0
11
519.9888
21
12.7024
31
0.0
0
LINE
8
CUT
10
519.9888
20
12.7024
30
0.0
11
520.7232
21
14.4756
31
0.0
0
LINE
8
CUT
10
520.7232
20
14.4756
30
0.0
11
521.3004
21
16.3060
31
0.0
0
LINE
8
CUT
10
521.3004
20
16.3060
30
0.0
11
521.7158
21
18.1797
31
0.0
0
LINE
8
CUT
10
521.7158
20
18.1797
30
0.0
11
521.9663
21
20.0826
31
0.0
0
LINE
8
CUT
10
521.9663
20
20.0826
30
0.0
11
522.0500
21
22.0000
31
0.0
0
LINE
8
CUT
10
522.0500
20
22.0000
30
0.0
11
522.0500
21
294.7500
31
0.0
0
LINE
8
CUT
10
522.0500
20
294.7500
30
0.0
11
521.9663
21
296.6674
31
0.0
0
LINE
8
CUT
10
521.9663
20
296.6674
30
0.0
11
521.7158
21
298.5703
31
0.0
0
LINE
8
CUT
10
521.7158
20
298.5703
30
0.0
11
521.3004
21
300.4440
31
0.0
0
LINE
8
CUT
10
521.3004
20
300.4440
30
0.0
11
520.7232
21
302.2744
31
0.0
0
LINE
8
CUT
10
520.7232
20
302.2744
30
0.0
11
519.9888
21
304.0476
31
0.0
0
LINE
8
CUT
10
519.9888
20
304.0476
30
0.0
11
519.1026
21
305.7500
31
0.0
0
LINE
8
CUT
10
519.1026
20
305.7500
30
0.0
11
518.0713
21
307.3687
31
0.0
0
LINE
8
CUT
10
518.0713
20
307.3687
30
0.0
11
516.9030
21
308.8913
31
0.0
0
LINE
8
CUT
10
516.9030
20
308.8913
30
0.0
11
515.6063
21
310.3063
31
0.0
0
LINE
8
CUT
10
515.6063
20
310.3063
30
0.0
11
514.1913
21
311.6030
31
0.0
0
LINE
8
CUT
10
514.1913
20
311.6030
30
0.0
11
512.6687
21
312.7713
31
0.0
0
LINE
8
CUT
10
512.6687
20
312.7713
30
0.0
11
511.0500
21
313.8026
31
0.0
0
LINE
8
CUT
10
511.0500
20
313.8026
30
0.0
11
509.3476
21
314.6888
31
0.0
0
LINE
8
CUT
10
509.3476
20
314.6888
30
0.0
11
507.5744
21
315.4232
31
0.0
0
LINE
8
CUT
10
507.5744
20
315.4232
30
0.0
11
505.7440
21
316.0004
31
0.0
0
LINE
8
CUT
10
505.7440
20
316.0004
30
0.0
11
503.8703
21
316.4158
31
0.0
0
LINE
8
CUT
10
503.8703
20
316.4158
30
0.0
11
501.9674
21
316.6663
31
0.0
0
LINE
8
CUT
10
501.9674
20
316.6663
30
0.0
11
500.0500
21
316.7500
31
0.0
0
LINE
8
CUT
10
500.0500
20
316.7500
30
0.0
11
22.0000
21
316.7500
31
0.0
0
LINE
8
CUT
10
22.0000
20
316.7500
30
0.0
11
20.0826
21
316.6663
31
0.0
0
LINE
8
CUT
10
20.0826
20
316.6663
30
0.0
11
18.1797
21
316.4158
31
0.0
0
LINE
8
CUT
10
18.1797
20
316.4158
30
0.0
11
16.3060
21
316.0004
31
0.0
0
LINE
8
CUT
10
16.3060
20
316.0004
30
0.0
11
14.4756
21
315.4232
31
0.0
0
LINE
8
CUT
10
14.4756
20
315.4232
30
0.0
11
12.7024
21
314.6888
31
0.0
0
LINE
8
CUT
10
12.7024
20
314.6888
30
0.0
11
11.0000
21
313.8026
31
0.0
0
LINE
8
CUT
10
11.0000
20
313.8026
30
0.0
11
9.3813
21
312.7713
31
0.0
0
LINE
8
CUT
10
9.3813
20
312.7713
30
0.0
11
7.8587
21
311.6030
31
0.0
0
LINE
8
CUT
10
7.8587
20
311.6030
30
0.0
11
6.4437
21
310.3063
31
0.0
0
LINE
8
CUT
10
6.4437
20
310.3063
30
0.0
11
5.1470
21
308.8913
31
0.0
0
LINE
8
CUT
10
5.1470
20
308.8913
30
0.0
11
3.9787
21
307.3687
31
0.0
0
LINE
8
CUT
10
3.9787
20
307.3687
30
0.0
11
2.9474
21
305.7500
31
0.0
0
LINE
8
CUT
10
2.9474
20
305.7500
30
0.0
11
2.0612
21
304.0476
31
0.0
0
LINE
8
CUT
10
2.0612
20
304.0476
30
0.0
11
1.3268
21
302.2744
31
0.0
0
LINE
8
CUT
10
1.3268
20
302.2744
30
0.0
11
0.7496
21
300.4440
31
0.0
0
LINE
8
CUT
10
0.7496
20
300.4440
30
0.0
11
0.3342
21
298.5703
31
0.0
0
LINE
8
CUT
10
0.3342
20
298.5703
30
0.0
11
0.0837
21
296.6674
31
0.0
0
LINE
8
CUT
10
0.0837
20
296.6674
30
0.0
11
0.0000
21
294.7500
31
0.0
0
LINE
8
CUT
10
0.0000
20
294.7500
30
0.0
11
0.0000
21
22.0000
31
0.0
0
LINE
8
CUT
10
0.0000
20
22.0000
30
0.0
11
0.0837
21
20.0826
31
0.0
0
LINE
8
CUT
10
0.0837
20
20.0826
30
0.0
11
0.3342
21
18.1797
31
0.0
0
LINE
8
CUT
10
0.3342
20
18.1797
30
0.0
11
0.7496
21
16.3060
31
0.0
0
LINE
8
CUT
10
0.7496
20
16.3060
30
0.0
11
1.3268
21
14.4756
31
0.0
0
LINE
8
CUT
10
1.3268
20
14.4756
30
0.0
11
2.0612
21
12.7024
31
0.0
0
LINE
8
CUT
10
2.0612
20
12.7024
30
0.0
11
2.9474
21
11.0000
31
0.0
0
LINE
8
CUT
10
2.9474
20
11.0000
30
0.0
11
3.9787
21
9.3813
31
0.0
0
LINE
8
CUT
10
3.9787
20
9.3813
30
0.0
11
5.1470
21
7.8587
31
0.0
0
LINE
8
CUT
10
5.1470
20
7.8587
30
0.0
11
6.4437
21
6.4437
31
0.0
0
LINE
8
CUT
10
6.4437
20
6.4437
30
0.0
11
7.8587
21
5.1470
31
0.0
0
LINE
8
CUT
10
7.8587
20
5.1470
30
0.0
11
9.3813
21
3.9787
31
0.0
0
LINE
8
CUT
10
9.3813
20
3.9787
30
0.0
11
11.0000
21
2.9474
31
0.0
0
LINE
8
CUT
10
11.0000
20
2.9474
30
0.0
11
12.7024
21
2.0612
31
0.0
0
LINE
8
CUT
10
12.7024
20
2.0612
30
0.0
11
14.4756
21
1.3268
31
0.0
0
LINE
8
CUT
10
14.4756
20
1.3268
30
0.0
11
16.3060
21
0.7496
31
0.0
0
LINE
8
CUT
10
16.3060
20
0.7496
30
0.0
11
18.1797
21
0.3342
31
0.0
0
LINE
8
CUT
10
18.1797
20
0.3342
30
0.0
11
20.0826
21
0.0837
31
0.0
0
LINE
8
CUT
10
20.0826
20
0.0837
30
0.0
11
22.0000
21
0.0000
31
0.0
0
LINE
8
CUT
10
22.0000
20
0.0000
30
0.0
11
500.0500
21
0.0000
31
0.0
0
ENDSEC
0
EOF
