0
SECTION
2
ENTITIES
0
LINE
8
CUT
10
523.7000
20
19.0000
30
0.0
11
526.9248
21
19.1408
31
0.0
0
LINE
8
CUT
10
526.9248
20
19.1408
30
0.0
11
530.1250
21
19.5621
31
0.0
0
LINE
8
CUT
10
530.1250
20
19.5621
30
0.0
11
533.2763
21
20.2607
31
0.0
0
LINE
8
CUT
10
533.2763
20
20.2607
30
0.0
11
536.3547
21
21.2314
31
0.0
0
LINE
8
CUT
10
536.3547
20
21.2314
30
0.0
11
539.3369
21
22.4666
31
0.0
0
LINE
8
CUT
10
539.3369
20
22.4666
30
0.0
11
542.2000
21
23.9571
31
0.0
0
LINE
8
CUT
10
542.2000
20
23.9571
30
0.0
11
544.9223
21
25.6914
31
0.0
0
LINE
8
CUT
10
544.9223
20
25.6914
30
0.0
11
547.4831
21
27.6564
31
0.0
0
LINE
8
CUT
10
547.4831
20
27.6564
30
0.0
11
549.8630
21
29.8370
31
0.0
0
LINE
8
CUT
10
549.8630
20
29.8370
30
0.0
11
552.0436
21
32.2169
31
0.0
0
LINE
8
CUT
10
552.0436
20
32.2169
30
0.0
11
554.0086
21
34.7777
31
0.0
0
LINE
8
CUT
10
554.0086
20
34.7777
30
0.0
11
555.7429
21
37.5000
31
0.0
0
LINE
8
CUT
10
555.7429
20
37.5000
30
0.0
11
557.2334
21
40.3631
31
0.0
0
LINE
8
CUT
10
557.2334
20
40.3631
30
0.0
11
558.4686
21
43.3453
31
0.0
0
LINE
8
CUT
10
558.4686
20
43.3453
30
0.0
11
559.4393
21
46.4237
31
0.0
0
LINE
8
CUT
10
559.4393
20
46.4237
30
0.0
11
560.1379
21
49.5750
31
0.0
0
LINE
8
CUT
10
560.1379
20
49.5750
30
0.0
11
560.5592
21
52.7752
31
0.0
0
LINE
8
CUT
10
560.5592
20
52.7752
30
0.0
11
560.7000
21
56.0000
31
0.0
0
LINE
8
CUT
10
560.7000
20
56.0000
30
0.0
11
560.7000
21
335.4000
31
0.0
0
LINE
8
CUT
10
560.7000
20
335.4000
30
0.0
11
560.5592
21
338.6248
31
0.0
0
LINE
8
CUT
10
560.5592
20
338.6248
30
0.0
11
560.1379
21
341.8250
31
0.0
0
LINE
8
CUT
10
560.1379
20
341.8250
30
0.0
11
559.4393
21
344.9763
31
0.0
0
LINE
8
CUT
10
559.4393
20
344.9763
30
0.0
11
558.4686
21
348.0547
31
0.0
0
LINE
8
CUT
10
558.4686
20
348.0547
30
0.0
11
557.2334
21
351.0369
31
0.0
0
LINE
8
CUT
10
557.2334
20
351.0369
30
0.0
11
555.7429
21
353.9000
31
0.0
0
LINE
8
CUT
10
555.7429
20
353.9000
30
0.0
11
554.0086
21
356.6223
31
0.0
0
LINE
8
CUT
10
554.0086
20
356.6223
30
0.0
11
552.0436
21
359.1831
31
0.0
0
LINE
8
CUT
10
552.0436
20
359.1831
30
0.0
11
549.8630
21
361.5630
31
0.0
0
LINE
8
CUT
10
549.8630
20
361.5630
30
0.0
11
547.4831
21
363.7436
31
0.0
0
LINE
8
CUT
10
547.4831
20
363.7436
30
0.0
11
544.9223
21
365.7086
31
0.0
0
LINE
8
CUT
10
544.9223
20
365.7086
30
0.0
11
542.2000
21
367.4429
31
0.0
0
LINE
8
CUT
10
542.2000
20
367.4429
30
0.0
11
539.3369
21
368.9334
31
0.0
0
LINE
8
CUT
10
539.3369
20
368.9334
30
0.0
11
536.3547
21
370.1686
31
0.0
0
LINE
8
CUT
10
536.3547
20
370.1686
30
0.0
11
533.2763
21
371.1393
31
0.0
0
LINE
8
CUT
10
533.2763
20
371.1393
30
0.0
11
530.1250
21
371.8379
31
0.0
0
LINE
8
CUT
10
530.1250
20
371.8379
30
0.0
11
526.9248
21
372.2592
31
0.0
0
LINE
8
CUT
10
526.9248
20
372.2592
30
0.0
11
523.7000
21
372.4000
31
0.0
0
LINE
8
CUT
10
523.7000
20
372.4000
30
0.0
11
56.0000
21
372.4000
31
0.0
0
LINE
8
CUT
10
56.0000
20
372.4000
30
0.0
11
52.7752
21
372.2592
31
0.0
0
LINE
8
CUT
10
52.7752
20
372.2592
30
0.0
11
49.5750
21
371.8379
31
0.0
0
LINE
8
CUT
10
49.5750
20
371.8379
30
0.0
11
46.4237
21
371.1393
31
0.0
0
LINE
8
CUT
10
46.4237
20
371.1393
30
0.0
11
43.3453
21
370.1686
31
0.0
0
LINE
8
CUT
10
43.3453
20
370.1686
30
0.0
11
40.3631
21
368.9334
31
0.0
0
LINE
8
CUT
10
40.3631
20
368.9334
30
0.0
11
37.5000
21
367.4429
31
0.0
0
LINE
8
CUT
10
37.5000
20
367.4429
30
0.0
11
34.7777
21
365.7086
31
0.0
0
LINE
8
CUT
10
34.7777
20
365.7086
30
0.0
11
32.2169
21
363.7436
31
0.0
0
LINE
8
CUT
10
32.2169
20
363.7436
30
0.0
11
29.8370
21
361.5630
31
0.0
0
LINE
8
CUT
10
29.8370
20
361.5630
30
0.0
11
27.6564
21
359.1831
31
0.0
0
LINE
8
CUT
10
27.6564
20
359.1831
30
0.0
11
25.6914
21
356.6223
31
0.0
0
LINE
8
CUT
10
25.6914
20
356.6223
30
0.0
11
23.9571
21
353.9000
31
0.0
0
LINE
8
CUT
10
23.9571
20
353.9000
30
0.0
11
22.4666
21
351.0369
31
0.0
0
LINE
8
CUT
10
22.4666
20
351.0369
30
0.0
11
21.2314
21
348.0547
31
0.0
0
LINE
8
CUT
10
21.2314
20
348.0547
30
0.0
11
20.2607
21
344.9763
31
0.0
0
LINE
8
CUT
10
20.2607
20
344.9763
30
0.0
11
19.5621
21
341.8250
31
0.0
0
LINE
8
CUT
10
19.5621
20
341.8250
30
0.0
11
19.1408
21
338.6248
31
0.0
0
LINE
8
CUT
10
19.1408
20
338.6248
30
0.0
11
19.0000
21
335.4000
31
0.0
0
LINE
8
CUT
10
19.0000
20
335.4000
30
0.0
11
19.0000
21
56.0000
31
0.0
0
LINE
8
CUT
10
19.0000
20
56.0000
30
0.0
11
19.1408
21
52.7752
31
0.0
0
LINE
8
CUT
10
19.1408
20
52.7752
30
0.0
11
19.5621
21
49.5750
31
0.0
0
LINE
8
CUT
10
19.5621
20
49.5750
30
0.0
11
20.2607
21
46.4237
31
0.0
0
LINE
8
CUT
10
20.2607
20
46.4237
30
0.0
11
21.2314
21
43.3453
31
0.0
0
LINE
8
CUT
10
21.2314
20
43.3453
30
0.0
11
22.4666
21
40.3631
31
0.0
0
LINE
8
CUT
10
22.4666
20
40.3631
30
0.0
11
23.9571
21
37.5000
31
0.0
0
LINE
8
CUT
10
23.9571
20
37.5000
30
0.0
11
25.6914
21
34.7777
31
0.0
0
LINE
8
CUT
10
25.6914
20
34.7777
30
0.0
11
27.6564
21
32.2169
31
0.0
0
LINE
8
CUT
10
27.6564
20
32.2169
30
0.0
11
29.8370
21
29.8370
31
0.0
0
LINE
8
CUT
10
29.8370
20
29.8370
30
0.0
11
32.2169
21
27.6564
31
0.0
0
LINE
8
CUT
10
32.2169
20
27.6564
30
0.0
11
34.7777
21
25.6914
31
0.0
0
LINE
8
CUT
10
34.7777
20
25.6914
30
0.0
11
37.5000
21
23.9571
31
0.0
0
LINE
8
CUT
10
37.5000
20
23.9571
30
0.0
11
40.3631
21
22.4666
31
0.0
0
LINE
8
CUT
10
40.3631
20
22.4666
30
0.0
11
43.3453
21
21.2314
31
0.0
0
LINE
8
CUT
10
43.3453
20
21.2314
30
0.0
11
46.4237
21
20.2607
31
0.0
0
LINE
8
CUT
10
46.4237
20
20.2607
30
0.0
11
49.5750
21
19.5621
31
0.0
0
LINE
8
CUT
10
49.5750
20
19.5621
30
0.0
11
52.7752
21
19.1408
31
0.0
0
LINE
8
CUT
10
52.7752
20
19.1408
30
0.0
11
56.0000
21
19.0000
31
0.0
0
LINE
8
CUT
10
56.0000
20
19.0000
30
0.0
11
523.7000
21
19.0000
31
0.0
0
LINE
8
CHANNEL
10
523.7000
20
0.0000
30
0.0
11
528.5807
21
0.2131
31
0.0
0
LINE
8
CHANNEL
10
528.5807
20
0.2131
30
0.0
11
533.4243
21
0.8508
31
0.0
0
LINE
8
CHANNEL
10
533.4243
20
0.8508
30
0.0
11
538.1939
21
1.9082
31
0.0
0
LINE
8
CHANNEL
10
538.1939
20
1.9082
30
0.0
11
542.8531
21
3.3772
31
0.0
0
LINE
8
CHANNEL
10
542.8531
20
3.3772
30
0.0
11
547.3666
21
5.2468
31
0.0
0
LINE
8
CHANNEL
10
547.3666
20
5.2468
30
0.0
11
551.7000
21
7.5026
31
0.0
0
LINE
8
CHANNEL
10
551.7000
20
7.5026
30
0.0
11
555.8203
21
10.1275
31
0.0
0
LINE
8
CHANNEL
10
555.8203
20
10.1275
30
0.0
11
559.6961
21
13.1015
31
0.0
0
LINE
8
CHANNEL
10
559.6961
20
13.1015
30
0.0
11
563.2980
21
16.4020
31
0.0
0
LINE
8
CHANNEL
10
563.2980
20
16.4020
30
0.0
11
566.5985
21
20.0039
31
0.0
0
LINE
8
CHANNEL
10
566.5985
20
20.0039
30
0.0
11
569.5725
21
23.8797
31
0.0
0
LINE
8
CHANNEL
10
569.5725
20
23.8797
30
0.0
11
572.1974
21
28.0000
31
0.0
0
LINE
8
CHANNEL
10
572.1974
20
28.0000
30
0.0
11
574.4532
21
32.3334
31
0.0
0
LINE
8
CHANNEL
10
574.4532
20
32.3334
30
0.0
11
576.3228
21
36.8469
31
0.0
0
LINE
8
CHANNEL
10
576.3228
20
36.8469
30
0.0
11
577.7918
21
41.5061
31
0.0
0
LINE
8
CHANNEL
10
577.7918
20
41.5061
30
0.0
11
578.8492
21
46.2757
31
0.0
0
LINE
8
CHANNEL
10
578.8492
20
46.2757
30
0.0
11
579.4869
21
51.1193
31
0.0
0
LINE
8
CHANNEL
10
579.4869
20
51.1193
30
0.0
11
579.7000
21
56.0000
31
0.0
0
LINE
8
CHANNEL
10
579.7000
20
56.0000
30
0.0
11
579.7000
21
335.4000
31
0.0
0
LINE
8
CHANNEL
10
579.7000
20
335.4000
30
0.0
11
579.4869
21
340.2807
31
0.0
0
LINE
8
CHANNEL
10
579.4869
20
340.2807
30
0.0
11
578.8492
21
345.1243
31
0.0
0
LINE
8
CHANNEL
10
578.8492
20
345.1243
30
0.0
11
577.7918
21
349.8939
31
0.0
0
LINE
8
CHANNEL
10
577.7918
20
349.8939
30
0.0
11
576.3228
21
354.5531
31
0.0
0
LINE
8
CHANNEL
10
576.3228
20
354.5531
30
0.0
11
574.4532
21
359.0666
31
0.0
0
LINE
8
CHANNEL
10
574.4532
20
359.0666
30
0.0
11
572.1974
21
363.4000
31
0.0
0
LINE
8
CHANNEL
10
572.1974
20
363.4000
30
0.0
11
569.5725
21
367.5203
31
0.0
0
LINE
8
CHANNEL
10
569.5725
20
367.5203
30
0.0
11
566.5985
21
371.3961
31
0.0
0
LINE
8
CHANNEL
10
566.5985
20
371.3961
30
0.0
11
563.2980
21
374.9980
31
0.0
0
LINE
8
CHANNEL
10
563.2980
20
374.9980
30
0.0
11
559.6961
21
378.2985
31
0.0
0
LINE
8
CHANNEL
10
559.6961
20
378.2985
30
0.0
11
555.8203
21
381.2725
31
0.0
0
LINE
8
CHANNEL
10
555.8203
20
381.2725
30
0.0
11
551.7000
21
383.8974
31
0.0
0
LINE
8
CHANNEL
10
551.7000
20
383.8974
30
0.0
11
547.3666
21
386.1532
31
0.0
0
LINE
8
CHANNEL
10
547.3666
20
386.1532
30
0.0
11
542.8531
21
388.0228
31
0.0
0
LINE
8
CHANNEL
10
542.8531
20
388.0228
30
0.0
11
538.1939
21
389.4918
31
0.0
0
LINE
8
CHANNEL
10
538.1939
20
389.4918
30
0.0
11
533.4243
21
390.5492
31
0.0
0
LINE
8
CHANNEL
10
533.4243
20
390.5492
30
0.0
11
528.5807
21
391.1869
31
0.0
0
LINE
8
CHANNEL
10
528.5807
20
391.1869
30
0.0
11
523.7000
21
391.4000
31
0.0
0
LINE
8
CHANNEL
10
523.7000
20
391.4000
30
0.0
11
56.0000
21
391.4000
31
0.0
0
LINE
8
CHANNEL
10
56.0000
20
391.4000
30
0.0
11
51.1193
21
391.1869
31
0.0
0
LINE
8
CHANNEL
10
51.1193
20
391.1869
30
0.0
11
46.2757
21
390.5492
31
0.0
0
LINE
8
CHANNEL
10
46.2757
20
390.5492
30
0.0
11
41.5061
21
389.4918
31
0.0
0
LINE
8
CHANNEL
10
41.5061
20
389.4918
30
0.0
11
36.8469
21
388.0228
31
0.0
0
LINE
8
CHANNEL
10
36.8469
20
388.0228
30
0.0
11
32.3334
21
386.1532
31
0.0
0
LINE
8
CHANNEL
10
32.3334
20
386.1532
30
0.0
11
28.0000
21
383.8974
31
0.0
0
LINE
8
CHANNEL
10
28.0000
20
383.8974
30
0.0
11
23.8797
21
381.2725
31
0.0
0
LINE
8
CHANNEL
10
23.8797
20
381.2725
30
0.0
11
20.0039
21
378.2985
31
0.0
0
LINE
8
CHANNEL
10
20.0039
20
378.2985
30
0.0
11
16.4020
21
374.9980
31
0.0
0
LINE
8
CHANNEL
10
16.4020
20
374.9980
30
0.0
11
13.1015
21
371.3961
31
0.0
0
LINE
8
CHANNEL
10
13.1015
20
371.3961
30
0.0
11
10.1275
21
367.5203
31
0.0
0
LINE
8
CHANNEL
10
10.1275
20
367.5203
30
0.0
11
7.5026
21
363.4000
31
0.0
0
LINE
8
CHANNEL
10
7.5026
20
363.4000
30
0.0
11
5.2468
21
359.0666
31
0.0
0
LINE
8
CHANNEL
10
5.2468
20
359.0666
30
0.0
11
3.3772
21
354.5531
31
0.0
0
LINE
8
CHANNEL
10
3.3772
20
354.5531
30
0.0
11
1.9082
21
349.8939
31
0.0
0
LINE
8
CHANNEL
10
1.9082
20
349.8939
30
0.0
11
0.8508
21
345.1243
31
0.0
0
LINE
8
CHANNEL
10
0.8508
20
345.1243
30
0.0
11
0.2131
21
340.2807
31
0.0
0
LINE
8
CHANNEL
10
0.2131
20
340.2807
30
0.0
11
0.0000
21
335.4000
31
0.0
0
LINE
8
CHANNEL
10
0.0000
20
335.4000
30
0.0
11
0.0000
21
56.0000
31
0.0
0
LINE
8
CHANNEL
10
0.0000
20
56.0000
30
0.0
11
0.2131
21
51.1193
31
0.0
0
LINE
8
CHANNEL
10
0.2131
20
51.1193
30
0.0
11
0.8508
21
46.2757
31
0.0
0
LINE
8
CHANNEL
10
0.8508
20
46.2757
30
0.0
11
1.9082
21
41.5061
31
0.0
0
LINE
8
CHANNEL
10
1.9082
20
41.5061
30
0.0
11
3.3772
21
36.8469
31
0.0
0
LINE
8
CHANNEL
10
3.3772
20
36.8469
30
0.0
11
5.2468
21
32.3334
31
0.0
0
LINE
8
CHANNEL
10
5.2468
20
32.3334
30
0.0
11
7.5026
21
28.0000
31
0.0
0
LINE
8
CHANNEL
10
7.5026
20
28.0000
30
0.0
11
10.1275
21
23.8797
31
0.0
0
LINE
8
CHANNEL
10
10.1275
20
23.8797
30
0.0
11
13.1015
21
20.0039
31
0.0
0
LINE
8
CHANNEL
10
13.1015
20
20.0039
30
0.0
11
16.4020
21
16.4020
31
0.0
0
LINE
8
CHANNEL
10
16.4020
20
16.4020
30
0.0
11
20.0039
21
13.1015
31
0.0
0
LINE
8
CHANNEL
10
20.0039
20
13.1015
30
0.0
11
23.8797
21
10.1275
31
0.0
0
LINE
8
CHANNEL
10
23.8797
20
10.1275
30
0.0
11
28.0000
21
7.5026
31
0.0
0
LINE
8
CHANNEL
10
28.0000
20
7.5026
30
0.0
11
32.3334
21
5.2468
31
0.0
0
LINE
8
CHANNEL
10
32.3334
20
5.2468
30
0.0
11
36.8469
21
3.3772
31
0.0
0
LINE
8
CHANNEL
10
36.8469
20
3.3772
30
0.0
11
41.5061
21
1.9082
31
0.0
0
LINE
8
CHANNEL
10
41.5061
20
1.9082
30
0.0
11
46.2757
21
0.8508
31
0.0
0
LINE
8
CHANNEL
10
46.2757
20
0.8508
30
0.0
11
51.1193
21
0.2131
31
0.0
0
LINE
8
CHANNEL
10
51.1193
20
0.2131
30
0.0
11
56.0000
21
0.0000
31
0.0
0
LINE
8
CHANNEL
10
56.0000
20
0.0000
30
0.0
11
523.7000
21
0.0000
31
0.0
0
ENDSEC
0
EOF
