0
SECTION
2
ENTITIES
0
LINE
8
CUT
10
536.7000
20
19.0000
30
0.0
11
539.9248
21
19.1408
31
0.0
0
LINE
8
CUT
10
539.9248
20
19.1408
30
0.0
11
543.1250
21
19.5621
31
0.0
0
LINE
8
CUT
10
543.1250
20
19.5621
30
0.0
11
546.2763
21
20.2607
31
0.0
0
LINE
8
CUT
10
546.2763
20
20.2607
30
0.0
11
549.3547
21
21.2314
31
0.0
0
LINE
8
CUT
10
549.3547
20
21.2314
30
0.0
11
552.3369
21
22.4666
31
0.0
0
LINE
8
CUT
10
552.3369
20
22.4666
30
0.0
11
555.2000
21
23.9571
31
0.0
0
LINE
8
CUT
10
555.2000
20
23.9571
30
0.0
11
557.9223
21
25.6914
31
0.0
0
LINE
8
CUT
10
557.9223
20
25.6914
30
0.0
11
560.4831
21
27.6564
31
0.0
0
LINE
8
CUT
10
560.4831
20
27.6564
30
0.0
11
562.8630
21
29.8370
31
0.0
0
LINE
8
CUT
10
562.8630
20
29.8370
30
0.0
11
565.0436
21
32.2169
31
0.0
0
LINE
8
CUT
10
565.0436
20
32.2169
30
0.0
11
567.0086
21
34.7777
31
0.0
0
LINE
8
CUT
10
567.0086
20
34.7777
30
0.0
11
568.7429
21
37.5000
31
0.0
0
LINE
8
CUT
10
568.7429
20
37.5000
30
0.0
11
570.2334
21
40.3631
31
0.0
0
LINE
8
CUT
10
570.2334
20
40.3631
30
0.0
11
571.4686
21
43.3453
31
0.0
0
LINE
8
CUT
10
571.4686
20
43.3453
30
0.0
11
572.4393
21
46.4237
31
0.0
0
LINE
8
CUT
10
572.4393
20
46.4237
30
0.0
11
573.1379
21
49.5750
31
0.0
0
LINE
8
CUT
10
573.1379
20
49.5750
30
0.0
11
573.5592
21
52.7752
31
0.0
0
LINE
8
CUT
10
573.5592
20
52.7752
30
0.0
11
573.7000
21
56.0000
31
0.0
0
LINE
8
CUT
10
573.7000
20
56.0000
30
0.0
11
573.7000
21
331.4000
31
0.0
0
LINE
8
CUT
10
573.7000
20
331.4000
30
0.0
11
573.5592
21
334.6248
31
0.0
0
LINE
8
CUT
10
573.5592
20
334.6248
30
0.0
11
573.1379
21
337.8250
31
0.0
0
LINE
8
CUT
10
573.1379
20
337.8250
30
0.0
11
572.4393
21
340.9763
31
0.0
0
LINE
8
CUT
10
572.4393
20
340.9763
30
0.0
11
571.4686
21
344.0547
31
0.0
0
LINE
8
CUT
10
571.4686
20
344.0547
30
0.0
11
570.2334
21
347.0369
31
0.0
0
LINE
8
CUT
10
570.2334
20
347.0369
30
0.0
11
568.7429
21
349.9000
31
0.0
0
LINE
8
CUT
10
568.7429
20
349.9000
30
0.0
11
567.0086
21
352.6223
31
0.0
0
LINE
8
CUT
10
567.0086
20
352.6223
30
0.0
11
565.0436
21
355.1831
31
0.0
0
LINE
8
CUT
10
565.0436
20
355.1831
30
0.0
11
562.8630
21
357.5630
31
0.0
0
LINE
8
CUT
10
562.8630
20
357.5630
30
0.0
11
560.4831
21
359.7436
31
0.0
0
LINE
8
CUT
10
560.4831
20
359.7436
30
0.0
11
557.9223
21
361.7086
31
0.0
0
LINE
8
CUT
10
557.9223
20
361.7086
30
0.0
11
555.2000
21
363.4429
31
0.0
0
LINE
8
CUT
10
555.2000
20
363.4429
30
0.0
11
552.3369
21
364.9334
31
0.0
0
LINE
8
CUT
10
552.3369
20
364.9334
30
0.0
11
549.3547
21
366.1686
31
0.0
0
LINE
8
CUT
10
549.3547
20
366.1686
30
0.0
11
546.2763
21
367.1393
31
0.0
0
LINE
8
CUT
10
546.2763
20
367.1393
30
0.0
11
543.1250
21
367.8379
31
0.0
0
LINE
8
CUT
10
543.1250
20
367.8379
30
0.0
11
539.9248
21
368.2592
31
0.0
0
LINE
8
CUT
10
539.9248
20
368.2592
30
0.0
11
536.7000
21
368.4000
31
0.0
0
LINE
8
CUT
10
536.7000
20
368.4000
30
0.0
11
56.0000
21
368.4000
31
0.0
0
LINE
8
CUT
10
56.0000
20
368.4000
30
0.0
11
52.7752
21
368.2592
31
0.0
0
LINE
8
CUT
10
52.7752
20
368.2592
30
0.0
11
49.5750
21
367.8379
31
0.0
0
LINE
8
CUT
10
49.5750
20
367.8379
30
0.0
11
46.4237
21
367.1393
31
0.0
0
LINE
8
CUT
10
46.4237
20
367.1393
30
0.0
11
43.3453
21
366.1686
31
0.0
0
LINE
8
CUT
10
43.3453
20
366.1686
30
0.0
11
40.3631
21
364.9334
31
0.0
0
LINE
8
CUT
10
40.3631
20
364.9334
30
0.0
11
37.5000
21
363.4429
31
0.0
0
LINE
8
CUT
10
37.5000
20
363.4429
30
0.0
11
34.7777
21
361.7086
31
0.0
0
LINE
8
CUT
10
34.7777
20
361.7086
30
0.0
11
32.2169
21
359.7436
31
0.0
0
LINE
8
CUT
10
32.2169
20
359.7436
30
0.0
11
29.8370
21
357.5630
31
0.0
0
LINE
8
CUT
10
29.8370
20
357.5630
30
0.0
11
27.6564
21
355.1831
31
0.0
0
LINE
8
CUT
10
27.6564
20
355.1831
30
0.0
11
25.6914
21
352.6223
31
0.0
0
LINE
8
CUT
10
25.6914
20
352.6223
30
0.0
11
23.9571
21
349.9000
31
0.0
0
LINE
8
CUT
10
23.9571
20
349.9000
30
0.0
11
22.4666
21
347.0369
31
0.0
0
LINE
8
CUT
10
22.4666
20
347.0369
30
0.0
11
21.2314
21
344.0547
31
0.0
0
LINE
8
CUT
10
21.2314
20
344.0547
30
0.0
11
20.2607
21
340.9763
31
0.0
0
LINE
8
CUT
10
20.2607
20
340.9763
30
0.0
11
19.5621
21
337.8250
31
0.0
0
LINE
8
CUT
10
19.5621
20
337.8250
30
0.0
11
19.1408
21
334.6248
31
0.0
0
LINE
8
CUT
10
19.1408
20
334.6248
30
0.0
11
19.0000
21
331.4000
31
0.0
0
LINE
8
CUT
10
19.0000
20
331.4000
30
0.0
11
19.0000
21
56.0000
31
0.0
0
LINE
8
CUT
10
19.0000
20
56.0000
30
0.0
11
19.1408
21
52.7752
31
0.0
0
LINE
8
CUT
10
19.1408
20
52.7752
30
0.0
11
19.5621
21
49.5750
31
0.0
0
LINE
8
CUT
10
19.5621
20
49.5750
30
0.0
11
20.2607
21
46.4237
31
0.0
0
LINE
8
CUT
10
20.2607
20
46.4237
30
0.0
11
21.2314
21
43.3453
31
0.0
0
LINE
8
CUT
10
21.2314
20
43.3453
30
0.0
11
22.4666
21
40.3631
31
0.0
0
LINE
8
CUT
10
22.4666
20
40.3631
30
0.0
11
23.9571
21
37.5000
31
0.0
0
LINE
8
CUT
10
23.9571
20
37.5000
30
0.0
11
25.6914
21
34.7777
31
0.0
0
LINE
8
CUT
10
25.6914
20
34.7777
30
0.0
11
27.6564
21
32.2169
31
0.0
0
LINE
8
CUT
10
27.6564
20
32.2169
30
0.0
11
29.8370
21
29.8370
31
0.0
0
LINE
8
CUT
10
29.8370
20
29.8370
30
0.0
11
32.2169
21
27.6564
31
0.0
0
LINE
8
CUT
10
32.2169
20
27.6564
30
0.0
11
34.7777
21
25.6914
31
0.0
0
LINE
8
CUT
10
34.7777
20
25.6914
30
0.0
11
37.5000
21
23.9571
31
0.0
0
LINE
8
CUT
10
37.5000
20
23.9571
30
0.0
11
40.3631
21
22.4666
31
0.0
0
LINE
8
CUT
10
40.3631
20
22.4666
30
0.0
11
43.3453
21
21.2314
31
0.0
0
LINE
8
CUT
10
43.3453
20
21.2314
30
0.0
11
46.4237
21
20.2607
31
0.0
0
LINE
8
CUT
10
46.4237
20
20.2607
30
0.0
11
49.5750
21
19.5621
31
0.0
0
LINE
8
CUT
10
49.5750
20
19.5621
30
0.0
11
52.7752
21
19.1408
31
0.0
0
LINE
8
CUT
10
52.7752
20
19.1408
30
0.0
11
56.0000
21
19.0000
31
0.0
0
LINE
8
CUT
10
56.0000
20
19.0000
30
0.0
11
536.7000
21
19.0000
31
0.0
0
LINE
8
CHANNEL
10
536.7000
20
0.0000
30
0.0
11
541.5807
21
0.2131
31
0.0
0
LINE
8
CHANNEL
10
541.5807
20
0.2131
30
0.0
11
546.4243
21
0.8508
31
0.0
0
LINE
8
CHANNEL
10
546.4243
20
0.8508
30
0.0
11
551.1939
21
1.9082
31
0.0
0
LINE
8
CHANNEL
10
551.1939
20
1.9082
30
0.0
11
555.8531
21
3.3772
31
0.0
0
LINE
8
CHANNEL
10
555.8531
20
3.3772
30
0.0
11
560.3666
21
5.2468
31
0.0
0
LINE
8
CHANNEL
10
560.3666
20
5.2468
30
0.0
11
564.7000
21
7.5026
31
0.0
0
LINE
8
CHANNEL
10
564.7000
20
7.5026
30
0.0
11
568.8203
21
10.1275
31
0.0
0
LINE
8
CHANNEL
10
568.8203
20
10.1275
30
0.0
11
572.6961
21
13.1015
31
0.0
0
LINE
8
CHANNEL
10
572.6961
20
13.1015
30
0.0
11
576.2980
21
16.4020
31
0.0
0
LINE
8
CHANNEL
10
576.2980
20
16.4020
30
0.0
11
579.5985
21
20.0039
31
0.0
0
LINE
8
CHANNEL
10
579.5985
20
20.0039
30
0.0
11
582.5725
21
23.8797
31
0.0
0
LINE
8
CHANNEL
10
582.5725
20
23.8797
30
0.0
11
585.1974
21
28.0000
31
0.0
0
LINE
8
CHANNEL
10
585.1974
20
28.0000
30
0.0
11
587.4532
21
32.3334
31
0.0
0
LINE
8
CHANNEL
10
587.4532
20
32.3334
30
0.0
11
589.3228
21
36.8469
31
0.0
0
LINE
8
CHANNEL
10
589.3228
20
36.8469
30
0.0
11
590.7918
21
41.5061
31
0.0
0
LINE
8
CHANNEL
10
590.7918
20
41.5061
30
0.0
11
591.8492
21
46.2757
31
0.0
0
LINE
8
CHANNEL
10
591.8492
20
46.2757
30
0.0
11
592.4869
21
51.1193
31
0.0
0
LINE
8
CHANNEL
10
592.4869
20
51.1193
30
0.0
11
592.7000
21
56.0000
31
0.0
0
LINE
8
CHANNEL
10
592.7000
20
56.0000
30
0.0
11
592.7000
21
331.4000
31
0.0
0
LINE
8
CHANNEL
10
592.7000
20
331.4000
30
0.0
11
592.4869
21
336.2807
31
0.0
0
LINE
8
CHANNEL
10
592.4869
20
336.2807
30
0.0
11
591.8492
21
341.1243
31
0.0
0
LINE
8
CHANNEL
10
591.8492
20
341.1243
30
0.0
11
590.7918
21
345.8939
31
0.0
0
LINE
8
CHANNEL
10
590.7918
20
345.8939
30
0.0
11
589.3228
21
350.5531
31
0.0
0
LINE
8
CHANNEL
10
589.3228
20
350.5531
30
0.0
11
587.4532
21
355.0666
31
0.0
0
LINE
8
CHANNEL
10
587.4532
20
355.0666
30
0.0
11
585.1974
21
359.4000
31
0.0
0
LINE
8
CHANNEL
10
585.1974
20
359.4000
30
0.0
11
582.5725
21
363.5203
31
0.0
0
LINE
8
CHANNEL
10
582.5725
20
363.5203
30
0.0
11
579.5985
21
367.3961
31
0.0
0
LINE
8
CHANNEL
10
579.5985
20
367.3961
30
0.0
11
576.2980
21
370.9980
31
0.0
0
LINE
8
CHANNEL
10
576.2980
20
370.9980
30
0.0
11
572.6961
21
374.2985
31
0.0
0
LINE
8
CHANNEL
10
572.6961
20
374.2985
30
0.0
11
568.8203
21
377.2725
31
0.0
0
LINE
8
CHANNEL
10
568.8203
20
377.2725
30
0.0
11
564.7000
21
379.8974
31
0.0
0
LINE
8
CHANNEL
10
564.7000
20
379.8974
30
0.0
11
560.3666
21
382.1532
31
0.0
0
LINE
8
CHANNEL
10
560.3666
20
382.1532
30
0.0
11
555.8531
21
384.0228
31
0.0
0
LINE
8
CHANNEL
10
555.8531
20
384.0228
30
0.0
11
551.1939
21
385.4918
31
0.0
0
LINE
8
CHANNEL
10
551.1939
20
385.4918
30
0.0
11
546.4243
21
386.5492
31
0.0
0
LINE
8
CHANNEL
10
546.4243
20
386.5492
30
0.0
11
541.5807
21
387.1869
31
0.0
0
LINE
8
CHANNEL
10
541.5807
20
387.1869
30
0.0
11
536.7000
21
387.4000
31
0.0
0
LINE
8
CHANNEL
10
536.7000
20
387.4000
30
0.0
11
56.0000
21
387.4000
31
0.0
0
LINE
8
CHANNEL
10
56.0000
20
387.4000
30
0.0
11
51.1193
21
387.1869
31
0.0
0
LINE
8
CHANNEL
10
51.1193
20
387.1869
30
0.0
11
46.2757
21
386.5492
31
0.0
0
LINE
8
CHANNEL
10
46.2757
20
386.5492
30
0.0
11
41.5061
21
385.4918
31
0.0
0
LINE
8
CHANNEL
10
41.5061
20
385.4918
30
0.0
11
36.8469
21
384.0228
31
0.0
0
LINE
8
CHANNEL
10
36.8469
20
384.0228
30
0.0
11
32.3334
21
382.1532
31
0.0
0
LINE
8
CHANNEL
10
32.3334
20
382.1532
30
0.0
11
28.0000
21
379.8974
31
0.0
0
LINE
8
CHANNEL
10
28.0000
20
379.8974
30
0.0
11
23.8797
21
377.2725
31
0.0
0
LINE
8
CHANNEL
10
23.8797
20
377.2725
30
0.0
11
20.0039
21
374.2985
31
0.0
0
LINE
8
CHANNEL
10
20.0039
20
374.2985
30
0.0
11
16.4020
21
370.9980
31
0.0
0
LINE
8
CHANNEL
10
16.4020
20
370.9980
30
0.0
11
13.1015
21
367.3961
31
0.0
0
LINE
8
CHANNEL
10
13.1015
20
367.3961
30
0.0
11
10.1275
21
363.5203
31
0.0
0
LINE
8
CHANNEL
10
10.1275
20
363.5203
30
0.0
11
7.5026
21
359.4000
31
0.0
0
LINE
8
CHANNEL
10
7.5026
20
359.4000
30
0.0
11
5.2468
21
355.0666
31
0.0
0
LINE
8
CHANNEL
10
5.2468
20
355.0666
30
0.0
11
3.3772
21
350.5531
31
0.0
0
LINE
8
CHANNEL
10
3.3772
20
350.5531
30
0.0
11
1.9082
21
345.8939
31
0.0
0
LINE
8
CHANNEL
10
1.9082
20
345.8939
30
0.0
11
0.8508
21
341.1243
31
0.0
0
LINE
8
CHANNEL
10
0.8508
20
341.1243
30
0.0
11
0.2131
21
336.2807
31
0.0
0
LINE
8
CHANNEL
10
0.2131
20
336.2807
30
0.0
11
0.0000
21
331.4000
31
0.0
0
LINE
8
CHANNEL
10
0.0000
20
331.4000
30
0.0
11
0.0000
21
56.0000
31
0.0
0
LINE
8
CHANNEL
10
0.0000
20
56.0000
30
0.0
11
0.2131
21
51.1193
31
0.0
0
LINE
8
CHANNEL
10
0.2131
20
51.1193
30
0.0
11
0.8508
21
46.2757
31
0.0
0
LINE
8
CHANNEL
10
0.8508
20
46.2757
30
0.0
11
1.9082
21
41.5061
31
0.0
0
LINE
8
CHANNEL
10
1.9082
20
41.5061
30
0.0
11
3.3772
21
36.8469
31
0.0
0
LINE
8
CHANNEL
10
3.3772
20
36.8469
30
0.0
11
5.2468
21
32.3334
31
0.0
0
LINE
8
CHANNEL
10
5.2468
20
32.3334
30
0.0
11
7.5026
21
28.0000
31
0.0
0
LINE
8
CHANNEL
10
7.5026
20
28.0000
30
0.0
11
10.1275
21
23.8797
31
0.0
0
LINE
8
CHANNEL
10
10.1275
20
23.8797
30
0.0
11
13.1015
21
20.0039
31
0.0
0
LINE
8
CHANNEL
10
13.1015
20
20.0039
30
0.0
11
16.4020
21
16.4020
31
0.0
0
LINE
8
CHANNEL
10
16.4020
20
16.4020
30
0.0
11
20.0039
21
13.1015
31
0.0
0
LINE
8
CHANNEL
10
20.0039
20
13.1015
30
0.0
11
23.8797
21
10.1275
31
0.0
0
LINE
8
CHANNEL
10
23.8797
20
10.1275
30
0.0
11
28.0000
21
7.5026
31
0.0
0
LINE
8
CHANNEL
10
28.0000
20
7.5026
30
0.0
11
32.3334
21
5.2468
31
0.0
0
LINE
8
CHANNEL
10
32.3334
20
5.2468
30
0.0
11
36.8469
21
3.3772
31
0.0
0
LINE
8
CHANNEL
10
36.8469
20
3.3772
30
0.0
11
41.5061
21
1.9082
31
0.0
0
LINE
8
CHANNEL
10
41.5061
20
1.9082
30
0.0
11
46.2757
21
0.8508
31
0.0
0
LINE
8
CHANNEL
10
46.2757
20
0.8508
30
0.0
11
51.1193
21
0.2131
31
0.0
0
LINE
8
CHANNEL
10
51.1193
20
0.2131
30
0.0
11
56.0000
21
0.0000
31
0.0
0
LINE
8
CHANNEL
10
56.0000
20
0.0000
30
0.0
11
536.7000
21
0.0000
31
0.0
0
ENDSEC
0
EOF
