0
SECTION
2
ENTITIES
0
LINE
8
CUT
10
535.0500
20
19.0000
30
0.0
11
538.2748
21
19.1408
31
0.0
0
LINE
8
CUT
10
538.2748
20
19.1408
30
0.0
11
541.4750
21
19.5621
31
0.0
0
LINE
8
CUT
10
541.4750
20
19.5621
30
0.0
11
544.6263
21
20.2607
31
0.0
0
LINE
8
CUT
10
544.6263
20
20.2607
30
0.0
11
547.7047
21
21.2314
31
0.0
0
LINE
8
CUT
10
547.7047
20
21.2314
30
0.0
11
550.6869
21
22.4666
31
0.0
0
LINE
8
CUT
10
550.6869
20
22.4666
30
0.0
11
553.5500
21
23.9571
31
0.0
0
LINE
8
CUT
10
553.5500
20
23.9571
30
0.0
11
556.2723
21
25.6914
31
0.0
0
LINE
8
CUT
10
556.2723
20
25.6914
30
0.0
11
558.8331
21
27.6564
31
0.0
0
LINE
8
CUT
10
558.8331
20
27.6564
30
0.0
11
561.2130
21
29.8370
31
0.0
0
LINE
8
CUT
10
561.2130
20
29.8370
30
0.0
11
563.3936
21
32.2169
31
0.0
0
LINE
8
CUT
10
563.3936
20
32.2169
30
0.0
11
565.3586
21
34.7777
31
0.0
0
LINE
8
CUT
10
565.3586
20
34.7777
30
0.0
11
567.0929
21
37.5000
31
0.0
0
LINE
8
CUT
10
567.0929
20
37.5000
30
0.0
11
568.5834
21
40.3631
31
0.0
0
LINE
8
CUT
10
568.5834
20
40.3631
30
0.0
11
569.8186
21
43.3453
31
0.0
0
LINE
8
CUT
10
569.8186
20
43.3453
30
0.0
11
570.7893
21
46.4237
31
0.0
0
LINE
8
CUT
10
570.7893
20
46.4237
30
0.0
11
571.4879
21
49.5750
31
0.0
0
LINE
8
CUT
10
571.4879
20
49.5750
30
0.0
11
571.9092
21
52.7752
31
0.0
0
LINE
8
CUT
10
571.9092
20
52.7752
30
0.0
11
572.0500
21
56.0000
31
0.0
0
LINE
8
CUT
10
572.0500
20
56.0000
30
0.0
11
572.0500
21
329.7500
31
0.0
0
LINE
8
CUT
10
572.0500
20
329.7500
30
0.0
11
571.9092
21
332.9748
31
0.0
0
LINE
8
CUT
10
571.9092
20
332.9748
30
0.0
11
571.4879
21
336.1750
31
0.0
0
LINE
8
CUT
10
571.4879
20
336.1750
30
0.0
11
570.7893
21
339.3263
31
0.0
0
LINE
8
CUT
10
570.7893
20
339.3263
30
0.0
11
569.8186
21
342.4047
31
0.0
0
LINE
8
CUT
10
569.8186
20
342.4047
30
0.0
11
568.5834
21
345.3869
31
0.0
0
LINE
8
CUT
10
568.5834
20
345.3869
30
0.0
11
567.0929
21
348.2500
31
0.0
0
LINE
8
CUT
10
567.0929
20
348.2500
30
0.0
11
565.3586
21
350.9723
31
0.0
0
LINE
8
CUT
10
565.3586
20
350.9723
30
0.0
11
563.3936
21
353.5331
31
0.0
0
LINE
8
CUT
10
563.3936
20
353.5331
30
0.0
11
561.2130
21
355.9130
31
0.0
0
LINE
8
CUT
10
561.2130
20
355.9130
30
0.0
11
558.8331
21
358.0936
31
0.0
0
LINE
8
CUT
10
558.8331
20
358.0936
30
0.0
11
556.2723
21
360.0586
31
0.0
0
LINE
8
CUT
10
556.2723
20
360.0586
30
0.0
11
553.5500
21
361.7929
31
0.0
0
LINE
8
CUT
10
553.5500
20
361.7929
30
0.0
11
550.6869
21
363.2834
31
0.0
0
LINE
8
CUT
10
550.6869
20
363.2834
30
0.0
11
547.7047
21
364.5186
31
0.0
0
LINE
8
CUT
10
547.7047
20
364.5186
30
0.0
11
544.6263
21
365.4893
31
0.0
0
LINE
8
CUT
10
544.6263
20
365.4893
30
0.0
11
541.4750
21
366.1879
31
0.0
0
LINE
8
CUT
10
541.4750
20
366.1879
30
0.0
11
538.2748
21
366.6092
31
0.0
0
LINE
8
CUT
10
538.2748
20
366.6092
30
0.0
11
535.0500
21
366.7500
31
0.0
0
LINE
8
CUT
10
535.0500
20
366.7500
30
0.0
11
56.0000
21
366.7500
31
0.0
0
LINE
8
CUT
10
56.0000
20
366.7500
30
0.0
11
52.7752
21
366.6092
31
0.0
0
LINE
8
CUT
10
52.7752
20
366.6092
30
0.0
11
49.5750
21
366.1879
31
0.0
0
LINE
8
CUT
10
49.5750
20
366.1879
30
0.0
11
46.4237
21
365.4893
31
0.0
0
LINE
8
CUT
10
46.4237
20
365.4893
30
0.0
11
43.3453
21
364.5186
31
0.0
0
LINE
8
CUT
10
43.3453
20
364.5186
30
0.0
11
40.3631
21
363.2834
31
0.0
0
LINE
8
CUT
10
40.3631
20
363.2834
30
0.0
11
37.5000
21
361.7929
31
0.0
0
LINE
8
CUT
10
37.5000
20
361.7929
30
0.0
11
34.7777
21
360.0586
31
0.0
0
LINE
8
CUT
10
34.7777
20
360.0586
30
0.0
11
32.2169
21
358.0936
31
0.0
0
LINE
8
CUT
10
32.2169
20
358.0936
30
0.0
11
29.8370
21
355.9130
31
0.0
0
LINE
8
CUT
10
29.8370
20
355.9130
30
0.0
11
27.6564
21
353.5331
31
0.0
0
LINE
8
CUT
10
27.6564
20
353.5331
30
0.0
11
25.6914
21
350.9723
31
0.0
0
LINE
8
CUT
10
25.6914
20
350.9723
30
0.0
11
23.9571
21
348.2500
31
0.0
0
LINE
8
CUT
10
23.9571
20
348.2500
30
0.0
11
22.4666
21
345.3869
31
0.0
0
LINE
8
CUT
10
22.4666
20
345.3869
30
0.0
11
21.2314
21
342.4047
31
0.0
0
LINE
8
CUT
10
21.2314
20
342.4047
30
0.0
11
20.2607
21
339.3263
31
0.0
0
LINE
8
CUT
10
20.2607
20
339.3263
30
0.0
11
19.5621
21
336.1750
31
0.0
0
LINE
8
CUT
10
19.5621
20
336.1750
30
0.0
11
19.1408
21
332.9748
31
0.0
0
LINE
8
CUT
10
19.1408
20
332.9748
30
0.0
11
19.0000
21
329.7500
31
0.0
0
LINE
8
CUT
10
19.0000
20
329.7500
30
0.0
11
19.0000
21
56.0000
31
0.0
0
LINE
8
CUT
10
19.0000
20
56.0000
30
0.0
11
19.1408
21
52.7752
31
0.0
0
LINE
8
CUT
10
19.1408
20
52.7752
30
0.0
11
19.5621
21
49.5750
31
0.0
0
LINE
8
CUT
10
19.5621
20
49.5750
30
0.0
11
20.2607
21
46.4237
31
0.0
0
LINE
8
CUT
10
20.2607
20
46.4237
30
0.0
11
21.2314
21
43.3453
31
0.0
0
LINE
8
CUT
10
21.2314
20
43.3453
30
0.0
11
22.4666
21
40.3631
31
0.0
0
LINE
8
CUT
10
22.4666
20
40.3631
30
0.0
11
23.9571
21
37.5000
31
0.0
0
LINE
8
CUT
10
23.9571
20
37.5000
30
0.0
11
25.6914
21
34.7777
31
0.0
0
LINE
8
CUT
10
25.6914
20
34.7777
30
0.0
11
27.6564
21
32.2169
31
0.0
0
LINE
8
CUT
10
27.6564
20
32.2169
30
0.0
11
29.8370
21
29.8370
31
0.0
0
LINE
8
CUT
10
29.8370
20
29.8370
30
0.0
11
32.2169
21
27.6564
31
0.0
0
LINE
8
CUT
10
32.2169
20
27.6564
30
0.0
11
34.7777
21
25.6914
31
0.0
0
LINE
8
CUT
10
34.7777
20
25.6914
30
0.0
11
37.5000
21
23.9571
31
0.0
0
LINE
8
CUT
10
37.5000
20
23.9571
30
0.0
11
40.3631
21
22.4666
31
0.0
0
LINE
8
CUT
10
40.3631
20
22.4666
30
0.0
11
43.3453
21
21.2314
31
0.0
0
LINE
8
CUT
10
43.3453
20
21.2314
30
0.0
11
46.4237
21
20.2607
31
0.0
0
LINE
8
CUT
10
46.4237
20
20.2607
30
0.0
11
49.5750
21
19.5621
31
0.0
0
LINE
8
CUT
10
49.5750
20
19.5621
30
0.0
11
52.7752
21
19.1408
31
0.0
0
LINE
8
CUT
10
52.7752
20
19.1408
30
0.0
11
56.0000
21
19.0000
31
0.0
0
LINE
8
CUT
10
56.0000
20
19.0000
30
0.0
11
535.0500
21
19.0000
31
0.0
0
LINE
8
CHANNEL
10
535.0500
20
0.0000
30
0.0
11
539.9307
21
0.2131
31
0.0
0
LINE
8
CHANNEL
10
539.9307
20
0.2131
30
0.0
11
544.7743
21
0.8508
31
0.0
0
LINE
8
CHANNEL
10
544.7743
20
0.8508
30
0.0
11
549.5439
21
1.9082
31
0.0
0
LINE
8
CHANNEL
10
549.5439
20
1.9082
30
0.0
11
554.2031
21
3.3772
31
0.0
0
LINE
8
CHANNEL
10
554.2031
20
3.3772
30
0.0
11
558.7166
21
5.2468
31
0.0
0
LINE
8
CHANNEL
10
558.7166
20
5.2468
30
0.0
11
563.0500
21
7.5026
31
0.0
0
LINE
8
CHANNEL
10
563.0500
20
7.5026
30
0.0
11
567.1703
21
10.1275
31
0.0
0
LINE
8
CHANNEL
10
567.1703
20
10.1275
30
0.0
11
571.0461
21
13.1015
31
0.0
0
LINE
8
CHANNEL
10
571.0461
20
13.1015
30
0.0
11
574.6480
21
16.4020
31
0.0
0
LINE
8
CHANNEL
10
574.6480
20
16.4020
30
0.0
11
577.9485
21
20.0039
31
0.0
0
LINE
8
CHANNEL
10
577.9485
20
20.0039
30
0.0
11
580.9225
21
23.8797
31
0.0
0
LINE
8
CHANNEL
10
580.9225
20
23.8797
30
0.0
11
583.5474
21
28.0000
31
0.0
0
LINE
8
CHANNEL
10
583.5474
20
28.0000
30
0.0
11
585.8032
21
32.3334
31
0.0
0
LINE
8
CHANNEL
10
585.8032
20
32.3334
30
0.0
11
587.6728
21
36.8469
31
0.0
0
LINE
8
CHANNEL
10
587.6728
20
36.8469
30
0.0
11
589.1418
21
41.5061
31
0.0
0
LINE
8
CHANNEL
10
589.1418
20
41.5061
30
0.0
11
590.1992
21
46.2757
31
0.0
0
LINE
8
CHANNEL
10
590.1992
20
46.2757
30
0.0
11
590.8369
21
51.1193
31
0.0
0
LINE
8
CHANNEL
10
590.8369
20
51.1193
30
0.0
11
591.0500
21
56.0000
31
0.0
0
LINE
8
CHANNEL
10
591.0500
20
56.0000
30
0.0
11
591.0500
21
329.7500
31
0.0
0
LINE
8
CHANNEL
10
591.0500
20
329.7500
30
0.0
11
590.8369
21
334.6307
31
0.0
0
LINE
8
CHANNEL
10
590.8369
20
334.6307
30
0.0
11
590.1992
21
339.4743
31
0.0
0
LINE
8
CHANNEL
10
590.1992
20
339.4743
30
0.0
11
589.1418
21
344.2439
31
0.0
0
LINE
8
CHANNEL
10
589.1418
20
344.2439
30
0.0
11
587.6728
21
348.9031
31
0.0
0
LINE
8
CHANNEL
10
587.6728
20
348.9031
30
0.0
11
585.8032
21
353.4166
31
0.0
0
LINE
8
CHANNEL
10
585.8032
20
353.4166
30
0.0
11
583.5474
21
357.7500
31
0.0
0
LINE
8
CHANNEL
10
583.5474
20
357.7500
30
0.0
11
580.9225
21
361.8703
31
0.0
0
LINE
8
CHANNEL
10
580.9225
20
361.8703
30
0.0
11
577.9485
21
365.7461
31
0.0
0
LINE
8
CHANNEL
10
577.9485
20
365.7461
30
0.0
11
574.6480
21
369.3480
31
0.0
0
LINE
8
CHANNEL
10
574.6480
20
369.3480
30
0.0
11
571.0461
21
372.6485
31
0.0
0
LINE
8
CHANNEL
10
571.0461
20
372.6485
30
0.0
11
567.1703
21
375.6225
31
0.0
0
LINE
8
CHANNEL
10
567.1703
20
375.6225
30
0.0
11
563.0500
21
378.2474
31
0.0
0
LINE
8
CHANNEL
10
563.0500
20
378.2474
30
0.0
11
558.7166
21
380.5032
31
0.0
0
LINE
8
CHANNEL
10
558.7166
20
380.5032
30
0.0
11
554.2031
21
382.3728
31
0.0
0
LINE
8
CHANNEL
10
554.2031
20
382.3728
30
0.0
11
549.5439
21
383.8418
31
0.0
0
LINE
8
CHANNEL
10
549.5439
20
383.8418
30
0.0
11
544.7743
21
384.8992
31
0.0
0
LINE
8
CHANNEL
10
544.7743
20
384.8992
30
0.0
11
539.9307
21
385.5369
31
0.0
0
LINE
8
CHANNEL
10
539.9307
20
385.5369
30
0.0
11
535.0500
21
385.7500
31
0.0
0
LINE
8
CHANNEL
10
535.0500
20
385.7500
30
0.0
11
56.0000
21
385.7500
31
0.0
0
LINE
8
CHANNEL
10
56.0000
20
385.7500
30
0.0
11
51.1193
21
385.5369
31
0.0
0
LINE
8
CHANNEL
10
51.1193
20
385.5369
30
0.0
11
46.2757
21
384.8992
31
0.0
0
LINE
8
CHANNEL
10
46.2757
20
384.8992
30
0.0
11
41.5061
21
383.8418
31
0.0
0
LINE
8
CHANNEL
10
41.5061
20
383.8418
30
0.0
11
36.8469
21
382.3728
31
0.0
0
LINE
8
CHANNEL
10
36.8469
20
382.3728
30
0.0
11
32.3334
21
380.5032
31
0.0
0
LINE
8
CHANNEL
10
32.3334
20
380.5032
30
0.0
11
28.0000
21
378.2474
31
0.0
0
LINE
8
CHANNEL
10
28.0000
20
378.2474
30
0.0
11
23.8797
21
375.6225
31
0.0
0
LINE
8
CHANNEL
10
23.8797
20
375.6225
30
0.0
11
20.0039
21
372.6485
31
0.0
0
LINE
8
CHANNEL
10
20.0039
20
372.6485
30
0.0
11
16.4020
21
369.3480
31
0.0
0
LINE
8
CHANNEL
10
16.4020
20
369.3480
30
0.0
11
13.1015
21
365.7461
31
0.0
0
LINE
8
CHANNEL
10
13.1015
20
365.7461
30
0.0
11
10.1275
21
361.8703
31
0.0
0
LINE
8
CHANNEL
10
10.1275
20
361.8703
30
0.0
11
7.5026
21
357.7500
31
0.0
0
LINE
8
CHANNEL
10
7.5026
20
357.7500
30
0.0
11
5.2468
21
353.4166
31
0.0
0
LINE
8
CHANNEL
10
5.2468
20
353.4166
30
0.0
11
3.3772
21
348.9031
31
0.0
0
LINE
8
CHANNEL
10
3.3772
20
348.9031
30
0.0
11
1.9082
21
344.2439
31
0.0
0
LINE
8
CHANNEL
10
1.9082
20
344.2439
30
0.0
11
0.8508
21
339.4743
31
0.0
0
LINE
8
CHANNEL
10
0.8508
20
339.4743
30
0.0
11
0.2131
21
334.6307
31
0.0
0
LINE
8
CHANNEL
10
0.2131
20
334.6307
30
0.0
11
0.0000
21
329.7500
31
0.0
0
LINE
8
CHANNEL
10
0.0000
20
329.7500
30
0.0
11
0.0000
21
56.0000
31
0.0
0
LINE
8
CHANNEL
10
0.0000
20
56.0000
30
0.0
11
0.2131
21
51.1193
31
0.0
0
LINE
8
CHANNEL
10
0.2131
20
51.1193
30
0.0
11
0.8508
21
46.2757
31
0.0
0
LINE
8
CHANNEL
10
0.8508
20
46.2757
30
0.0
11
1.9082
21
41.5061
31
0.0
0
LINE
8
CHANNEL
10
1.9082
20
41.5061
30
0.0
11
3.3772
21
36.8469
31
0.0
0
LINE
8
CHANNEL
10
3.3772
20
36.8469
30
0.0
11
5.2468
21
32.3334
31
0.0
0
LINE
8
CHANNEL
10
5.2468
20
32.3334
30
0.0
11
7.5026
21
28.0000
31
0.0
0
LINE
8
CHANNEL
10
7.5026
20
28.0000
30
0.0
11
10.1275
21
23.8797
31
0.0
0
LINE
8
CHANNEL
10
10.1275
20
23.8797
30
0.0
11
13.1015
21
20.0039
31
0.0
0
LINE
8
CHANNEL
10
13.1015
20
20.0039
30
0.0
11
16.4020
21
16.4020
31
0.0
0
LINE
8
CHANNEL
10
16.4020
20
16.4020
30
0.0
11
20.0039
21
13.1015
31
0.0
0
LINE
8
CHANNEL
10
20.0039
20
13.1015
30
0.0
11
23.8797
21
10.1275
31
0.0
0
LINE
8
CHANNEL
10
23.8797
20
10.1275
30
0.0
11
28.0000
21
7.5026
31
0.0
0
LINE
8
CHANNEL
10
28.0000
20
7.5026
30
0.0
11
32.3334
21
5.2468
31
0.0
0
LINE
8
CHANNEL
10
32.3334
20
5.2468
30
0.0
11
36.8469
21
3.3772
31
0.0
0
LINE
8
CHANNEL
10
36.8469
20
3.3772
30
0.0
11
41.5061
21
1.9082
31
0.0
0
LINE
8
CHANNEL
10
41.5061
20
1.9082
30
0.0
11
46.2757
21
0.8508
31
0.0
0
LINE
8
CHANNEL
10
46.2757
20
0.8508
30
0.0
11
51.1193
21
0.2131
31
0.0
0
LINE
8
CHANNEL
10
51.1193
20
0.2131
30
0.0
11
56.0000
21
0.0000
31
0.0
0
LINE
8
CHANNEL
10
56.0000
20
0.0000
30
0.0
11
535.0500
21
0.0000
31
0.0
0
ENDSEC
0
EOF
