0
SECTION
2
ENTITIES
0
LINE
8
CHANNEL
10
0.0000
20
0.0000
30
0.0
11
2400.0000
21
0.0000
31
0.0
0
LINE
8
CHANNEL
10
2400.0000
20
0.0000
30
0.0
11
2400.0000
21
600.0000
31
0.0
0
LINE
8
CHANNEL
10
2400.0000
20
600.0000
30
0.0
11
0.0000
21
600.0000
31
0.0
0
LINE
8
CHANNEL
10
0.0000
20
600.0000
30
0.0
11
0.0000
21
0.0000
31
0.0
0
LINE
8
CHANNEL
10
0.0000
20
0.0000
30
0.0
11
0.0000
21
0.0000
31
0.0
0
LINE
8
CUT
10
0.0000
20
308.9000
30
0.0
11
4.9700
21
325.2869
31
0.0
0
LINE
8
CUT
10
4.9700
20
325.2869
30
0.0
11
9.9400
21
330.9829
31
0.0
0
LINE
8
CUT
10
9.9400
20
330.9829
30
0.0
11
14.9100
21
334.5395
31
0.0
0
LINE
8
CUT
10
14.9100
20
334.5395
30
0.0
11
19.8800
21
336.7874
31
0.0
0
LINE
8
CUT
10
19.8800
20
336.7874
30
0.0
11
24.8500
21
338.0312
31
0.0
0
LINE
8
CUT
10
24.8500
20
338.0312
30
0.0
11
29.8200
21
338.4000
31
0.0
0
LINE
8
CUT
10
29.8200
20
338.4000
30
0.0
11
34.7900
21
338.4000
31
0.0
0
LINE
8
CUT
10
34.7900
20
338.4000
30
0.0
11
39.7600
21
338.4000
31
0.0
0
LINE
8
CUT
10
39.7600
20
338.4000
30
0.0
11
44.7300
21
338.4000
31
0.0
0
LINE
8
CUT
10
44.7300
20
338.4000
30
0.0
11
49.7000
21
338.4000
31
0.0
0
LINE
8
CUT
10
49.7000
20
338.4000
30
0.0
11
54.6700
21
338.4000
31
0.0
0
LINE
8
CUT
10
54.6700
20
338.4000
30
0.0
11
59.6400
21
338.4000
31
0.0
0
LINE
8
CUT
10
59.6400
20
338.4000
30
0.0
11
64.6100
21
338.4000
31
0.0
0
LINE
8
CUT
10
64.6100
20
338.4000
30
0.0
11
69.5800
21
338.4000
31
0.0
0
LINE
8
CUT
10
69.5800
20
338.4000
30
0.0
11
74.5500
21
338.4000
31
0.0
0
LINE
8
CUT
10
74.5500
20
338.4000
30
0.0
11
79.5200
21
338.4000
31
0.0
0
LINE
8
CUT
10
79.5200
20
338.4000
30
0.0
11
84.4900
21
338.4000
31
0.0
0
LINE
8
CUT
10
84.4900
20
338.4000
30
0.0
11
89.4600
21
338.4000
31
0.0
0
LINE
8
CUT
10
89.4600
20
338.4000
30
0.0
11
94.4300
21
338.4000
31
0.0
0
LINE
8
CUT
10
94.4300
20
338.4000
30
0.0
11
99.4000
21
338.4000
31
0.0
0
LINE
8
CUT
10
99.4000
20
338.4000
30
0.0
11
104.3700
21
338.4000
31
0.0
0
LINE
8
CUT
10
104.3700
20
338.4000
30
0.0
11
109.3400
21
338.4000
31
0.0
0
LINE
8
CUT
10
109.3400
20
338.4000
30
0.0
11
114.3100
21
338.4000
31
0.0
0
LINE
8
CUT
10
114.3100
20
338.4000
30
0.0
11
119.2800
21
338.4000
31
0.0
0
LINE
8
CUT
10
119.2800
20
338.4000
30
0.0
11
124.2500
21
338.4000
31
0.0
0
LINE
8
CUT
10
124.2500
20
338.4000
30
0.0
11
129.2200
21
338.4000
31
0.0
0
LINE
8
CUT
10
129.2200
20
338.4000
30
0.0
11
134.1900
21
338.4000
31
0.0
0
LINE
8
CUT
10
134.1900
20
338.4000
30
0.0
11
139.1600
21
338.4000
31
0.0
0
LINE
8
CUT
10
139.1600
20
338.4000
30
0.0
11
144.1300
21
338.4000
31
0.0
0
LINE
8
CUT
10
144.1300
20
338.4000
30
0.0
11
149.1000
21
338.4000
31
0.0
0
LINE
8
CUT
10
149.1000
20
338.4000
30
0.0
11
154.0700
21
338.4000
31
0.0
0
LINE
8
CUT
10
154.0700
20
338.4000
30
0.0
11
159.0400
21
338.4000
31
0.0
0
LINE
8
CUT
10
159.0400
20
338.4000
30
0.0
11
164.0100
21
338.4000
31
0.0
0
LINE
8
CUT
10
164.0100
20
338.4000
30
0.0
11
168.9800
21
338.4000
31
0.0
0
LINE
8
CUT
10
168.9800
20
338.4000
30
0.0
11
173.9500
21
338.4000
31
0.0
0
LINE
8
CUT
10
173.9500
20
338.4000
30
0.0
11
178.9200
21
338.4000
31
0.0
0
LINE
8
CUT
10
178.9200
20
338.4000
30
0.0
11
183.8900
21
338.4000
31
0.0
0
LINE
8
CUT
10
183.8900
20
338.4000
30
0.0
11
188.8600
21
338.4000
31
0.0
0
LINE
8
CUT
10
188.8600
20
338.4000
30
0.0
11
193.8300
21
338.4000
31
0.0
0
LINE
8
CUT
10
193.8300
20
338.4000
30
0.0
11
198.8000
21
338.4000
31
0.0
0
LINE
8
CUT
10
198.8000
20
338.4000
30
0.0
11
203.7700
21
338.4000
31
0.0
0
LINE
8
CUT
10
203.7700
20
338.4000
30
0.0
11
208.7400
21
338.4000
31
0.0
0
LINE
8
CUT
10
208.7400
20
338.4000
30
0.0
11
213.7100
21
338.4000
31
0.0
0
LINE
8
CUT
10
213.7100
20
338.4000
30
0.0
11
218.6800
21
338.4000
31
0.0
0
LINE
8
CUT
10
218.6800
20
338.4000
30
0.0
11
223.6500
21
338.4000
31
0.0
0
LINE
8
CUT
10
223.6500
20
338.4000
30
0.0
11
228.6200
21
338.4000
31
0.0
0
LINE
8
CUT
10
228.6200
20
338.4000
30
0.0
11
233.5900
21
338.4000
31
0.0
0
LINE
8
CUT
10
233.5900
20
338.4000
30
0.0
11
238.5600
21
338.4000
31
0.0
0
LINE
8
CUT
10
238.5600
20
338.4000
30
0.0
11
243.5300
21
338.4000
31
0.0
0
LINE
8
CUT
10
243.5300
20
338.4000
30
0.0
11
248.5000
21
338.4000
31
0.0
0
LINE
8
CUT
10
248.5000
20
338.4000
30
0.0
11
253.4700
21
338.4000
31
0.0
0
LINE
8
CUT
10
253.4700
20
338.4000
30
0.0
11
258.4400
21
338.4000
31
0.0
0
LINE
8
CUT
10
258.4400
20
338.4000
30
0.0
11
263.4100
21
338.4000
31
0.0
0
LINE
8
CUT
10
263.4100
20
338.4000
30
0.0
11
268.3800
21
338.4000
31
0.0
0
LINE
8
CUT
10
268.3800
20
338.4000
30
0.0
11
273.3500
21
338.4000
31
0.0
0
LINE
8
CUT
10
273.3500
20
338.4000
30
0.0
11
278.3200
21
338.4000
31
0.0
0
LINE
8
CUT
10
278.3200
20
338.4000
30
0.0
11
283.2900
21
338.4000
31
0.0
0
LINE
8
CUT
10
283.2900
20
338.4000
30
0.0
11
288.2600
21
338.4000
31
0.0
0
LINE
8
CUT
10
288.2600
20
338.4000
30
0.0
11
293.2300
21
338.4000
31
0.0
0
LINE
8
CUT
10
293.2300
20
338.4000
30
0.0
11
298.2000
21
338.4000
31
0.0
0
LINE
8
CUT
10
298.2000
20
338.4000
30
0.0
11
303.1700
21
338.4000
31
0.0
0
LINE
8
CUT
10
303.1700
20
338.4000
30
0.0
11
308.1400
21
338.4000
31
0.0
0
LINE
8
CUT
10
308.1400
20
338.4000
30
0.0
11
313.1100
21
338.4000
31
0.0
0
LINE
8
CUT
10
313.1100
20
338.4000
30
0.0
11
318.0800
21
338.4000
31
0.0
0
LINE
8
CUT
10
318.0800
20
338.4000
30
0.0
11
323.0500
21
338.4000
31
0.0
0
LINE
8
CUT
10
323.0500
20
338.4000
30
0.0
11
328.0200
21
338.4000
31
0.0
0
LINE
8
CUT
10
328.0200
20
338.4000
30
0.0
11
332.9900
21
338.4000
31
0.0
0
LINE
8
CUT
10
332.9900
20
338.4000
30
0.0
11
337.9600
21
338.4000
31
0.0
0
LINE
8
CUT
10
337.9600
20
338.4000
30
0.0
11
342.9300
21
338.4000
31
0.0
0
LINE
8
CUT
10
342.9300
20
338.4000
30
0.0
11
347.9000
21
338.4000
31
0.0
0
LINE
8
CUT
10
347.9000
20
338.4000
30
0.0
11
352.8700
21
338.4000
31
0.0
0
LINE
8
CUT
10
352.8700
20
338.4000
30
0.0
11
357.8400
21
338.4000
31
0.0
0
LINE
8
CUT
10
357.8400
20
338.4000
30
0.0
11
362.8100
21
338.4000
31
0.0
0
LINE
8
CUT
10
362.8100
20
338.4000
30
0.0
11
367.7800
21
338.4000
31
0.0
0
LINE
8
CUT
10
367.7800
20
338.4000
30
0.0
11
372.7500
21
338.4000
31
0.0
0
LINE
8
CUT
10
372.7500
20
338.4000
30
0.0
11
377.7200
21
338.4000
31
0.0
0
LINE
8
CUT
10
377.7200
20
338.4000
30
0.0
11
382.6900
21
338.4000
31
0.0
0
LINE
8
CUT
10
382.6900
20
338.4000
30
0.0
11
387.6600
21
338.4000
31
0.0
0
LINE
8
CUT
10
387.6600
20
338.4000
30
0.0
11
392.6300
21
338.4000
31
0.0
0
LINE
8
CUT
10
392.6300
20
338.4000
30
0.0
11
397.6000
21
338.4000
31
0.0
0
LINE
8
CUT
10
397.6000
20
338.4000
30
0.0
11
402.5700
21
338.4000
31
0.0
0
LINE
8
CUT
10
402.5700
20
338.4000
30
0.0
11
407.5400
21
338.4000
31
0.0
0
LINE
8
CUT
10
407.5400
20
338.4000
30
0.0
11
412.5100
21
338.4000
31
0.0
0
LINE
8
CUT
10
412.5100
20
338.4000
30
0.0
11
417.4800
21
338.4000
31
0.0
0
LINE
8
CUT
10
417.4800
20
338.4000
30
0.0
11
422.4500
21
338.4000
31
0.0
0
LINE
8
CUT
10
422.4500
20
338.4000
30
0.0
11
427.4200
21
338.4000
31
0.0
0
LINE
8
CUT
10
427.4200
20
338.4000
30
0.0
11
432.3900
21
338.4000
31
0.0
0
LINE
8
CUT
10
432.3900
20
338.4000
30
0.0
11
437.3600
21
338.4000
31
0.0
0
LINE
8
CUT
10
437.3600
20
338.4000
30
0.0
11
442.3300
21
338.4000
31
0.0
0
LINE
8
CUT
10
442.3300
20
338.4000
30
0.0
11
447.3000
21
338.4000
31
0.0
0
LINE
8
CUT
10
447.3000
20
338.4000
30
0.0
11
452.2700
21
338.4000
31
0.0
0
LINE
8
CUT
10
452.2700
20
338.4000
30
0.0
11
457.2400
21
338.4000
31
0.0
0
LINE
8
CUT
10
457.2400
20
338.4000
30
0.0
11
462.2100
21
338.4000
31
0.0
0
LINE
8
CUT
10
462.2100
20
338.4000
30
0.0
11
467.1800
21
338.4000
31
0.0
0
LINE
8
CUT
10
467.1800
20
338.4000
30
0.0
11
472.1500
21
338.4000
31
0.0
0
LINE
8
CUT
10
472.1500
20
338.4000
30
0.0
11
477.1200
21
338.4000
31
0.0
0
LINE
8
CUT
10
477.1200
20
338.4000
30
0.0
11
482.0900
21
338.4000
31
0.0
0
LINE
8
CUT
10
482.0900
20
338.4000
30
0.0
11
487.0600
21
338.4000
31
0.0
0
LINE
8
CUT
10
487.0600
20
338.4000
30
0.0
11
492.0300
21
338.4000
31
0.0
0
LINE
8
CUT
10
492.0300
20
338.4000
30
0.0
11
497.0000
21
338.4000
31
0.0
0
LINE
8
CUT
10
497.0000
20
338.4000
30
0.0
11
501.9700
21
338.4000
31
0.0
0
LINE
8
CUT
10
501.9700
20
338.4000
30
0.0
11
506.9400
21
338.4000
31
0.0
0
LINE
8
CUT
10
506.9400
20
338.4000
30
0.0
11
511.9100
21
338.4000
31
0.0
0
LINE
8
CUT
10
511.9100
20
338.4000
30
0.0
11
516.8800
21
338.4000
31
0.0
0
LINE
8
CUT
10
516.8800
20
338.4000
30
0.0
11
521.8500
21
338.0312
31
0.0
0
LINE
8
CUT
10
521.8500
20
338.0312
30
0.0
11
526.8200
21
336.7874
31
0.0
0
LINE
8
CUT
10
526.8200
20
336.7874
30
0.0
11
531.7900
21
334.5395
31
0.0
0
LINE
8
CUT
10
531.7900
20
334.5395
30
0.0
11
536.7600
21
330.9829
31
0.0
0
LINE
8
CUT
10
536.7600
20
330.9829
30
0.0
11
541.7300
21
325.2869
31
0.0
0
LINE
8
CUT
10
541.7300
20
325.2869
30
0.0
11
546.7000
21
308.9000
31
0.0
0
LINE
8
CUT
10
546.7000
20
308.9000
30
0.0
11
546.7000
21
29.5000
31
0.0
0
LINE
8
CUT
10
546.7000
20
29.5000
30
0.0
11
541.7300
21
13.1131
31
0.0
0
LINE
8
CUT
10
541.7300
20
13.1131
30
0.0
11
536.7600
21
7.4171
31
0.0
0
LINE
8
CUT
10
536.7600
20
7.4171
30
0.0
11
531.7900
21
3.8605
31
0.0
0
LINE
8
CUT
10
531.7900
20
3.8605
30
0.0
11
526.8200
21
1.6126
31
0.0
0
LINE
8
CUT
10
526.8200
20
1.6126
30
0.0
11
521.8500
21
0.3688
31
0.0
0
LINE
8
CUT
10
521.8500
20
0.3688
30
0.0
11
516.8800
21
0.0000
31
0.0
0
LINE
8
CUT
10
516.8800
20
0.0000
30
0.0
11
511.9100
21
0.0000
31
0.0
0
LINE
8
CUT
10
511.9100
20
0.0000
30
0.0
11
506.9400
21
0.0000
31
0.0
0
LINE
8
CUT
10
506.9400
20
0.0000
30
0.0
11
501.9700
21
0.0000
31
0.0
0
LINE
8
CUT
10
501.9700
20
0.0000
30
0.0
11
497.0000
21
0.0000
31
0.0
0
LINE
8
CUT
10
497.0000
20
0.0000
30
0.0
11
492.0300
21
0.0000
31
0.0
0
LINE
8
CUT
10
492.0300
20
0.0000
30
0.0
11
487.0600
21
0.0000
31
0.0
0
LINE
8
CUT
10
487.0600
20
0.0000
30
0.0
11
482.0900
21
0.0000
31
0.0
0
LINE
8
CUT
10
482.0900
20
0.0000
30
0.0
11
477.1200
21
0.0000
31
0.0
0
LINE
8
CUT
10
477.1200
20
0.0000
30
0.0
11
472.1500
21
0.0000
31
0.0
0
LINE
8
CUT
10
472.1500
20
0.0000
30
0.0
11
467.1800
21
0.0000
31
0.0
0
LINE
8
CUT
10
467.1800
20
0.0000
30
0.0
11
462.2100
21
0.0000
31
0.0
0
LINE
8
CUT
10
462.2100
20
0.0000
30
0.0
11
457.2400
21
0.0000
31
0.0
0
LINE
8
CUT
10
457.2400
20
0.0000
30
0.0
11
452.2700
21
0.0000
31
0.0
0
LINE
8
CUT
10
452.2700
20
0.0000
30
0.0
11
447.3000
21
0.0000
31
0.0
0
LINE
8
CUT
10
447.3000
20
0.0000
30
0.0
11
442.3300
21
0.0000
31
0.0
0
LINE
8
CUT
10
442.3300
20
0.0000
30
0.0
11
437.3600
21
0.0000
31
0.0
0
LINE
8
CUT
10
437.3600
20
0.0000
30
0.0
11
432.3900
21
0.0000
31
0.0
0
LINE
8
CUT
10
432.3900
20
0.0000
30
0.0
11
427.4200
21
0.0000
31
0.0
0
LINE
8
CUT
10
427.4200
20
0.0000
30
0.0
11
422.4500
21
0.0000
31
0.0
0
LINE
8
CUT
10
422.4500
20
0.0000
30
0.0
11
417.4800
21
0.0000
31
0.0
0
LINE
8
CUT
10
417.4800
20
0.0000
30
0.0
11
412.5100
21
0.0000
31
0.0
0
LINE
8
CUT
10
412.5100
20
0.0000
30
0.0
11
407.5400
21
0.0000
31
0.0
0
LINE
8
CUT
10
407.5400
20
0.0000
30
0.0
11
402.5700
21
0.0000
31
0.0
0
LINE
8
CUT
10
402.5700
20
0.0000
30
0.0
11
397.6000
21
0.0000
31
0.0
0
LINE
8
CUT
10
397.6000
20
0.0000
30
0.0
11
392.6300
21
0.0000
31
0.0
0
LINE
8
CUT
10
392.6300
20
0.0000
30
0.0
11
387.6600
21
0.0000
31
0.0
0
LINE
8
CUT
10
387.6600
20
0.0000
30
0.0
11
382.6900
21
0.0000
31
0.0
0
LINE
8
CUT
10
382.6900
20
0.0000
30
0.0
11
377.7200
21
0.0000
31
0.0
0
LINE
8
CUT
10
377.7200
20
0.0000
30
0.0
11
372.7500
21
0.0000
31
0.0
0
LINE
8
CUT
10
372.7500
20
0.0000
30
0.0
11
367.7800
21
0.0000
31
0.0
0
LINE
8
CUT
10
367.7800
20
0.0000
30
0.0
11
362.8100
21
0.0000
31
0.0
0
LINE
8
CUT
10
362.8100
20
0.0000
30
0.0
11
357.8400
21
0.0000
31
0.0
0
LINE
8
CUT
10
357.8400
20
0.0000
30
0.0
11
352.8700
21
0.0000
31
0.0
0
LINE
8
CUT
10
352.8700
20
0.0000
30
0.0
11
347.9000
21
0.0000
31
0.0
0
LINE
8
CUT
10
347.9000
20
0.0000
30
0.0
11
342.9300
21
0.0000
31
0.0
0
LINE
8
CUT
10
342.9300
20
0.0000
30
0.0
11
337.9600
21
0.0000
31
0.0
0
LINE
8
CUT
10
337.9600
20
0.0000
30
0.0
11
332.9900
21
0.0000
31
0.0
0
LINE
8
CUT
10
332.9900
20
0.0000
30
0.0
11
328.0200
21
0.0000
31
0.0
0
LINE
8
CUT
10
328.0200
20
0.0000
30
0.0
11
323.0500
21
0.0000
31
0.0
0
LINE
8
CUT
10
323.0500
20
0.0000
30
0.0
11
318.0800
21
0.0000
31
0.0
0
LINE
8
CUT
10
318.0800
20
0.0000
30
0.0
11
313.1100
21
0.0000
31
0.0
0
LINE
8
CUT
10
313.1100
20
0.0000
30
0.0
11
308.1400
21
0.0000
31
0.0
0
LINE
8
CUT
10
308.1400
20
0.0000
30
0.0
11
303.1700
21
0.0000
31
0.0
0
LINE
8
CUT
10
303.1700
20
0.0000
30
0.0
11
298.2000
21
0.0000
31
0.0
0
LINE
8
CUT
10
298.2000
20
0.0000
30
0.0
11
293.2300
21
0.0000
31
0.0
0
LINE
8
CUT
10
293.2300
20
0.0000
30
0.0
11
288.2600
21
0.0000
31
0.0
0
LINE
8
CUT
10
288.2600
20
0.0000
30
0.0
11
283.2900
21
0.0000
31
0.0
0
LINE
8
CUT
10
283.2900
20
0.0000
30
0.0
11
278.3200
21
0.0000
31
0.0
0
LINE
8
CUT
10
278.3200
20
0.0000
30
0.0
11
273.3500
21
0.0000
31
0.0
0
LINE
8
CUT
10
273.3500
20
0.0000
30
0.0
11
268.3800
21
0.0000
31
0.0
0
LINE
8
CUT
10
268.3800
20
0.0000
30
0.0
11
263.4100
21
0.0000
31
0.0
0
LINE
8
CUT
10
263.4100
20
0.0000
30
0.0
11
258.4400
21
0.0000
31
0.0
0
LINE
8
CUT
10
258.4400
20
0.0000
30
0.0
11
253.4700
21
0.0000
31
0.0
0
LINE
8
CUT
10
253.4700
20
0.0000
30
0.0
11
248.5000
21
0.0000
31
0.0
0
LINE
8
CUT
10
248.5000
20
0.0000
30
0.0
11
243.5300
21
0.0000
31
0.0
0
LINE
8
CUT
10
243.5300
20
0.0000
30
0.0
11
238.5600
21
0.0000
31
0.0
0
LINE
8
CUT
10
238.5600
20
0.0000
30
0.0
11
233.5900
21
0.0000
31
0.0
0
LINE
8
CUT
10
233.5900
20
0.0000
30
0.0
11
228.6200
21
0.0000
31
0.0
0
LINE
8
CUT
10
228.6200
20
0.0000
30
0.0
11
223.6500
21
0.0000
31
0.0
0
LINE
8
CUT
10
223.6500
20
0.0000
30
0.0
11
218.6800
21
0.0000
31
0.0
0
LINE
8
CUT
10
218.6800
20
0.0000
30
0.0
11
213.7100
21
0.0000
31
0.0
0
LINE
8
CUT
10
213.7100
20
0.0000
30
0.0
11
208.7400
21
0.0000
31
0.0
0
LINE
8
CUT
10
208.7400
20
0.0000
30
0.0
11
203.7700
21
0.0000
31
0.0
0
LINE
8
CUT
10
203.7700
20
0.0000
30
0.0
11
198.8000
21
0.0000
31
0.0
0
LINE
8
CUT
10
198.8000
20
0.0000
30
0.0
11
193.8300
21
0.0000
31
0.0
0
LINE
8
CUT
10
193.8300
20
0.0000
30
0.0
11
188.8600
21
0.0000
31
0.0
0
LINE
8
CUT
10
188.8600
20
0.0000
30
0.0
11
183.8900
21
0.0000
31
0.0
0
LINE
8
CUT
10
183.8900
20
0.0000
30
0.0
11
178.9200
21
0.0000
31
0.0
0
LINE
8
CUT
10
178.9200
20
0.0000
30
0.0
11
173.9500
21
0.0000
31
0.0
0
LINE
8
CUT
10
173.9500
20
0.0000
30
0.0
11
168.9800
21
0.0000
31
0.0
0
LINE
8
CUT
10
168.9800
20
0.0000
30
0.0
11
164.0100
21
0.0000
31
0.0
0
LINE
8
CUT
10
164.0100
20
0.0000
30
0.0
11
159.0400
21
0.0000
31
0.0
0
LINE
8
CUT
10
159.0400
20
0.0000
30
0.0
11
154.0700
21
0.0000
31
0.0
0
LINE
8
CUT
10
154.0700
20
0.0000
30
0.0
11
149.1000
21
0.0000
31
0.0
0
LINE
8
CUT
10
149.1000
20
0.0000
30
0.0
11
144.1300
21
0.0000
31
0.0
0
LINE
8
CUT
10
144.1300
20
0.0000
30
0.0
11
139.1600
21
0.0000
31
0.0
0
LINE
8
CUT
10
139.1600
20
0.0000
30
0.0
11
134.1900
21
0.0000
31
0.0
0
LINE
8
CUT
10
134.1900
20
0.0000
30
0.0
11
129.2200
21
0.0000
31
0.0
0
LINE
8
CUT
10
129.2200
20
0.0000
30
0.0
11
124.2500
21
0.0000
31
0.0
0
LINE
8
CUT
10
124.2500
20
0.0000
30
0.0
11
119.2800
21
0.0000
31
0.0
0
LINE
8
CUT
10
119.2800
20
0.0000
30
0.0
11
114.3100
21
0.0000
31
0.0
0
LINE
8
CUT
10
114.3100
20
0.0000
30
0.0
11
109.3400
21
0.0000
31
0.0
0
LINE
8
CUT
10
109.3400
20
0.0000
30
0.0
11
104.3700
21
0.0000
31
0.0
0
LINE
8
CUT
10
104.3700
20
0.0000
30
0.0
11
99.4000
21
0.0000
31
0.0
0
LINE
8
CUT
10
99.4000
20
0.0000
30
0.0
11
94.4300
21
0.0000
31
0.0
0
LINE
8
CUT
10
94.4300
20
0.0000
30
0.0
11
89.4600
21
0.0000
31
0.0
0
LINE
8
CUT
10
89.4600
20
0.0000
30
0.0
11
84.4900
21
0.0000
31
0.0
0
LINE
8
CUT
10
84.4900
20
0.0000
30
0.0
11
79.5200
21
0.0000
31
0.0
0
LINE
8
CUT
10
79.5200
20
0.0000
30
0.0
11
74.5500
21
0.0000
31
0.0
0
LINE
8
CUT
10
74.5500
20
0.0000
30
0.0
11
69.5800
21
0.0000
31
0.0
0
LINE
8
CUT
10
69.5800
20
0.0000
30
0.0
11
64.6100
21
0.0000
31
0.0
0
LINE
8
CUT
10
64.6100
20
0.0000
30
0.0
11
59.6400
21
0.0000
31
0.0
0
LINE
8
CUT
10
59.6400
20
0.0000
30
0.0
11
54.6700
21
0.0000
31
0.0
0
LINE
8
CUT
10
54.6700
20
0.0000
30
0.0
11
49.7000
21
0.0000
31
0.0
0
LINE
8
CUT
10
49.7000
20
0.0000
30
0.0
11
44.7300
21
0.0000
31
0.0
0
LINE
8
CUT
10
44.7300
20
0.0000
30
0.0
11
39.7600
21
0.0000
31
0.0
0
LINE
8
CUT
10
39.7600
20
0.0000
30
0.0
11
34.7900
21
0.0000
31
0.0
0
LINE
8
CUT
10
34.7900
20
0.0000
30
0.0
11
29.8200
21
0.0000
31
0.0
0
LINE
8
CUT
10
29.8200
20
0.0000
30
0.0
11
24.8500
21
0.3688
31
0.0
0
LINE
8
CUT
10
24.8500
20
0.3688
30
0.0
11
19.8800
21
1.6126
31
0.0
0
LINE
8
CUT
10
19.8800
20
1.6126
30
0.0
11
14.9100
21
3.8605
31
0.0
0
LINE
8
CUT
10
14.9100
20
3.8605
30
0.0
11
9.9400
21
7.4171
31
0.0
0
LINE
8
CUT
10
9.9400
20
7.4171
30
0.0
11
4.9700
21
13.1131
31
0.0
0
LINE
8
CUT
10
4.9700
20
13.1131
30
0.0
11
0.0000
21
29.5000
31
0.0
0
LINE
8
CUT
10
0.0000
20
29.5000
30
0.0
11
0.0000
21
308.9000
31
0.0
0
LINE
8
CUT
10
0.0000
20
308.9000
30
0.0
11
0.0000
21
308.9000
31
0.0
0
LINE
8
CUT
10
554.7000
20
262.5618
30
0.0
11
556.1118
21
272.9870
31
0.0
0
LINE
8
CUT
10
556.1118
20
272.9870
30
0.0
11
557.5236
21
276.7302
31
0.0
0
LINE
8
CUT
10
557.5236
20
276.7302
30
0.0
11
558.9355
21
279.3332
31
0.0
0
LINE
8
CUT
10
558.9355
20
279.3332
30
0.0
11
560.3473
21
281.3287
31
0.0
0
LINE
8
CUT
10
560.3473
20
281.3287
30
0.0
11
561.7591
21
282.9245
31
0.0
0
LINE
8
CUT
10
561.7591
20
282.9245
30
0.0
11
563.1709
21
284.2279
31
0.0
0
LINE
8
CUT
10
563.1709
20
284.2279
30
0.0
11
564.5827
21
285.3031
31
0.0
0
LINE
8
CUT
10
564.5827
20
285.3031
30
0.0
11
565.9945
21
286.1919
31
0.0
0
LINE
8
CUT
10
565.9945
20
286.1919
30
0.0
11
567.4064
21
286.9237
31
0.0
0
LINE
8
CUT
10
567.4064
20
286.9237
30
0.0
11
568.8182
21
287.5198
31
0.0
0
LINE
8
CUT
10
568.8182
20
287.5198
30
0.0
11
570.2300
21
287.9965
31
0.0
0
LINE
8
CUT
10
570.2300
20
287.9965
30
0.0
11
571.6418
21
288.3662
31
0.0
0
LINE
8
CUT
10
571.6418
20
288.3662
30
0.0
11
573.0536
21
288.6391
31
0.0
0
LINE
8
CUT
10
573.0536
20
288.6391
30
0.0
11
574.4655
21
288.8232
31
0.0
0
LINE
8
CUT
10
574.4655
20
288.8232
30
0.0
11
575.8773
21
288.9251
31
0.0
0
LINE
8
CUT
10
575.8773
20
288.9251
30
0.0
11
577.2891
21
288.9505
31
0.0
0
LINE
8
CUT
10
577.2891
20
288.9505
30
0.0
11
578.7009
21
288.9040
31
0.0
0
LINE
8
CUT
10
578.7009
20
288.9040
30
0.0
11
580.1127
21
288.7895
31
0.0
0
LINE
8
CUT
10
580.1127
20
288.7895
30
0.0
11
581.5245
21
288.6103
31
0.0
0
LINE
8
CUT
10
581.5245
20
288.6103
30
0.0
11
582.9364
21
288.3693
31
0.0
0
LINE
8
CUT
10
582.9364
20
288.3693
30
0.0
11
584.3482
21
288.0691
31
0.0
0
LINE
8
CUT
10
584.3482
20
288.0691
30
0.0
11
585.7600
21
287.7116
31
0.0
0
LINE
8
CUT
10
585.7600
20
287.7116
30
0.0
11
587.1718
21
287.2988
31
0.0
0
LINE
8
CUT
10
587.1718
20
287.2988
30
0.0
11
588.5836
21
286.8323
31
0.0
0
LINE
8
CUT
10
588.5836
20
286.8323
30
0.0
11
589.9955
21
286.3132
31
0.0
0
LINE
8
CUT
10
589.9955
20
286.3132
30
0.0
11
591.4073
21
285.7428
31
0.0
0
LINE
8
CUT
10
591.4073
20
285.7428
30
0.0
11
592.8191
21
285.1221
31
0.0
0
LINE
8
CUT
10
592.8191
20
285.1221
30
0.0
11
594.2309
21
284.4517
31
0.0
0
LINE
8
CUT
10
594.2309
20
284.4517
30
0.0
11
595.6427
21
283.7324
31
0.0
0
LINE
8
CUT
10
595.6427
20
283.7324
30
0.0
11
597.0545
21
282.9646
31
0.0
0
LINE
8
CUT
10
597.0545
20
282.9646
30
0.0
11
598.4664
21
282.1486
31
0.0
0
LINE
8
CUT
10
598.4664
20
282.1486
30
0.0
11
599.8782
21
281.2850
31
0.0
0
LINE
8
CUT
10
599.8782
20
281.2850
30
0.0
11
601.2900
21
280.4010
31
0.0
0
LINE
8
CUT
10
601.2900
20
280.4010
30
0.0
11
602.7018
21
279.5134
31
0.0
0
LINE
8
CUT
10
602.7018
20
279.5134
30
0.0
11
604.1136
21
278.6223
31
0.0
0
LINE
8
CUT
10
604.1136
20
278.6223
30
0.0
11
605.5255
21
277.7277
31
0.0
0
LINE
8
CUT
10
605.5255
20
277.7277
30
0.0
11
606.9373
21
276.8296
31
0.0
0
LINE
8
CUT
10
606.9373
20
276.8296
30
0.0
11
608.3491
21
275.9282
31
0.0
0
LINE
8
CUT
10
608.3491
20
275.9282
30
0.0
11
609.7609
21
275.0232
31
0.0
0
LINE
8
CUT
10
609.7609
20
275.0232
30
0.0
11
611.1727
21
274.1149
31
0.0
0
LINE
8
CUT
10
611.1727
20
274.1149
30
0.0
11
612.5845
21
273.2033
31
0.0
0
LINE
8
CUT
10
612.5845
20
273.2033
30
0.0
11
613.9964
21
272.2883
31
0.0
0
LINE
8
CUT
10
613.9964
20
272.2883
30
0.0
11
615.4082
21
271.3700
31
0.0
0
LINE
8
CUT
10
615.4082
20
271.3700
30
0.0
11
616.8200
21
270.4484
31
0.0
0
LINE
8
CUT
10
616.8200
20
270.4484
30
0.0
11
618.2318
21
269.5236
31
0.0
0
LINE
8
CUT
10
618.2318
20
269.5236
30
0.0
11
619.6436
21
268.5955
31
0.0
0
LINE
8
CUT
10
619.6436
20
268.5955
30
0.0
11
621.0555
21
267.6643
31
0.0
0
LINE
8
CUT
10
621.0555
20
267.6643
30
0.0
11
622.4673
21
266.7299
31
0.0
0
LINE
8
CUT
10
622.4673
20
266.7299
30
0.0
11
623.8791
21
265.7923
31
0.0
0
LINE
8
CUT
10
623.8791
20
265.7923
30
0.0
11
625.2909
21
264.8516
31
0.0
0
LINE
8
CUT
10
625.2909
20
264.8516
30
0.0
11
626.7027
21
263.9079
31
0.0
0
LINE
8
CUT
10
626.7027
20
263.9079
30
0.0
11
628.1145
21
262.9610
31
0.0
0
LINE
8
CUT
10
628.1145
20
262.9610
30
0.0
11
629.5264
21
262.0112
31
0.0
0
LINE
8
CUT
10
629.5264
20
262.0112
30
0.0
11
630.9382
21
261.0583
31
0.0
0
LINE
8
CUT
10
630.9382
20
261.0583
30
0.0
11
632.3500
21
260.1025
31
0.0
0
LINE
8
CUT
10
632.3500
20
260.1025
30
0.0
11
633.7618
21
259.1437
31
0.0
0
LINE
8
CUT
10
633.7618
20
259.1437
30
0.0
11
635.1736
21
258.1821
31
0.0
0
LINE
8
CUT
10
635.1736
20
258.1821
30
0.0
11
636.5855
21
257.2175
31
0.0
0
LINE
8
CUT
10
636.5855
20
257.2175
30
0.0
11
637.9973
21
256.2501
31
0.0
0
LINE
8
CUT
10
637.9973
20
256.2501
30
0.0
11
639.4091
21
255.2799
31
0.0
0
LINE
8
CUT
10
639.4091
20
255.2799
30
0.0
11
640.8209
21
254.3069
31
0.0
0
LINE
8
CUT
10
640.8209
20
254.3069
30
0.0
11
642.2327
21
253.3311
31
0.0
0
LINE
8
CUT
10
642.2327
20
253.3311
30
0.0
11
643.6445
21
252.3526
31
0.0
0
LINE
8
CUT
10
643.6445
20
252.3526
30
0.0
11
645.0564
21
251.3714
31
0.0
0
LINE
8
CUT
10
645.0564
20
251.3714
30
0.0
11
646.4682
21
250.3875
31
0.0
0
LINE
8
CUT
10
646.4682
20
250.3875
30
0.0
11
647.8800
21
249.4010
31
0.0
0
LINE
8
CUT
10
647.8800
20
249.4010
30
0.0
11
649.2918
21
248.4118
31
0.0
0
LINE
8
CUT
10
649.2918
20
248.4118
30
0.0
11
650.7036
21
247.4201
31
0.0
0
LINE
8
CUT
10
650.7036
20
247.4201
30
0.0
11
652.1155
21
246.4259
31
0.0
0
LINE
8
CUT
10
652.1155
20
246.4259
30
0.0
11
653.5273
21
245.4292
31
0.0
0
LINE
8
CUT
10
653.5273
20
245.4292
30
0.0
11
654.9391
21
244.4300
31
0.0
0
LINE
8
CUT
10
654.9391
20
244.4300
30
0.0
11
656.3509
21
243.4283
31
0.0
0
LINE
8
CUT
10
656.3509
20
243.4283
30
0.0
11
657.7627
21
242.4242
31
0.0
0
LINE
8
CUT
10
657.7627
20
242.4242
30
0.0
11
659.1745
21
241.4178
31
0.0
0
LINE
8
CUT
10
659.1745
20
241.4178
30
0.0
11
660.5864
21
240.4090
31
0.0
0
LINE
8
CUT
10
660.5864
20
240.4090
30
0.0
11
661.9982
21
239.3979
31
0.0
0
LINE
8
CUT
10
661.9982
20
239.3979
30
0.0
11
663.4100
21
238.3845
31
0.0
0
LINE
8
CUT
10
663.4100
20
238.3845
30
0.0
11
664.8218
21
237.3689
31
0.0
0
LINE
8
CUT
10
664.8218
20
237.3689
30
0.0
11
666.2336
21
236.3342
31
0.0
0
LINE
8
CUT
10
666.2336
20
236.3342
30
0.0
11
667.6455
21
235.2533
31
0.0
0
LINE
8
CUT
10
667.6455
20
235.2533
30
0.0
11
669.0573
21
234.1257
31
0.0
0
LINE
8
CUT
10
669.0573
20
234.1257
30
0.0
11
670.4691
21
232.9512
31
0.0
0
LINE
8
CUT
10
670.4691
20
232.9512
30
0.0
11
671.8809
21
231.7293
31
0.0
0
LINE
8
CUT
10
671.8809
20
231.7293
30
0.0
11
673.2927
21
230.4595
31
0.0
0
LINE
8
CUT
10
673.2927
20
230.4595
30
0.0
11
674.7045
21
229.1410
31
0.0
0
LINE
8
CUT
10
674.7045
20
229.1410
30
0.0
11
676.1164
21
227.7730
31
0.0
0
LINE
8
CUT
10
676.1164
20
227.7730
30
0.0
11
677.5282
21
226.3543
31
0.0
0
LINE
8
CUT
10
677.5282
20
226.3543
30
0.0
11
678.9400
21
224.8838
31
0.0
0
LINE
8
CUT
10
678.9400
20
224.8838
30
0.0
11
680.3518
21
223.3598
31
0.0
0
LINE
8
CUT
10
680.3518
20
223.3598
30
0.0
11
681.7636
21
221.7807
31
0.0
0
LINE
8
CUT
10
681.7636
20
221.7807
30
0.0
11
683.1755
21
220.1444
31
0.0
0
LINE
8
CUT
10
683.1755
20
220.1444
30
0.0
11
684.5873
21
218.4485
31
0.0
0
LINE
8
CUT
10
684.5873
20
218.4485
30
0.0
11
685.9991
21
216.6901
31
0.0
0
LINE
8
CUT
10
685.9991
20
216.6901
30
0.0
11
687.4109
21
214.8660
31
0.0
0
LINE
8
CUT
10
687.4109
20
214.8660
30
0.0
11
688.8227
21
212.9723
31
0.0
0
LINE
8
CUT
10
688.8227
20
212.9723
30
0.0
11
690.2345
21
211.0044
31
0.0
0
LINE
8
CUT
10
690.2345
20
211.0044
30
0.0
11
691.6464
21
208.9568
31
0.0
0
LINE
8
CUT
10
691.6464
20
208.9568
30
0.0
11
693.0582
21
206.8230
31
0.0
0
LINE
8
CUT
10
693.0582
20
206.8230
30
0.0
11
694.4700
21
204.5948
31
0.0
0
LINE
8
CUT
10
694.4700
20
204.5948
30
0.0
11
695.8818
21
202.2625
31
0.0
0
LINE
8
CUT
10
695.8818
20
202.2625
30
0.0
11
697.2936
21
199.8133
31
0.0
0
LINE
8
CUT
10
697.2936
20
199.8133
30
0.0
11
698.7055
21
197.2312
31
0.0
0
LINE
8
CUT
10
698.7055
20
197.2312
30
0.0
11
700.1173
21
194.4949
31
0.0
0
LINE
8
CUT
10
700.1173
20
194.4949
30
0.0
11
701.5291
21
191.5752
31
0.0
0
LINE
8
CUT
10
701.5291
20
191.5752
30
0.0
11
702.9409
21
188.4302
31
0.0
0
LINE
8
CUT
10
702.9409
20
188.4302
30
0.0
11
704.3527
21
184.9958
31
0.0
0
LINE
8
CUT
10
704.3527
20
184.9958
30
0.0
11
705.7645
21
181.1647
31
0.0
0
LINE
8
CUT
10
705.7645
20
181.1647
30
0.0
11
707.1764
21
176.7294
31
0.0
0
LINE
8
CUT
10
707.1764
20
176.7294
30
0.0
11
708.5882
21
171.1570
31
0.0
0
LINE
8
CUT
10
708.5882
20
171.1570
30
0.0
11
710.0000
21
158.9059
31
0.0
0
LINE
8
CUT
10
710.0000
20
158.9059
30
0.0
11
710.0000
21
130.0446
31
0.0
0
LINE
8
CUT
10
710.0000
20
130.0446
30
0.0
11
708.5882
21
117.7935
31
0.0
0
LINE
8
CUT
10
708.5882
20
117.7935
30
0.0
11
707.1764
21
112.2212
31
0.0
0
LINE
8
CUT
10
707.1764
20
112.2212
30
0.0
11
705.7645
21
107.7858
31
0.0
0
LINE
8
CUT
10
705.7645
20
107.7858
30
0.0
11
704.3527
21
103.9548
31
0.0
0
LINE
8
CUT
10
704.3527
20
103.9548
30
0.0
11
702.9409
21
100.5204
31
0.0
0
LINE
8
CUT
10
702.9409
20
100.5204
30
0.0
11
701.5291
21
97.3753
31
0.0
0
LINE
8
CUT
10
701.5291
20
97.3753
30
0.0
11
700.1173
21
94.4556
31
0.0
0
LINE
8
CUT
10
700.1173
20
94.4556
30
0.0
11
698.7055
21
91.7193
31
0.0
0
LINE
8
CUT
10
698.7055
20
91.7193
30
0.0
11
697.2936
21
89.1372
31
0.0
0
LINE
8
CUT
10
697.2936
20
89.1372
30
0.0
11
695.8818
21
86.6881
31
0.0
0
LINE
8
CUT
10
695.8818
20
86.6881
30
0.0
11
694.4700
21
84.3557
31
0.0
0
LINE
8
CUT
10
694.4700
20
84.3557
30
0.0
11
693.0582
21
82.1276
31
0.0
0
LINE
8
CUT
10
693.0582
20
82.1276
30
0.0
11
691.6464
21
79.9937
31
0.0
0
LINE
8
CUT
10
691.6464
20
79.9937
30
0.0
11
690.2345
21
77.9462
31
0.0
0
LINE
8
CUT
10
690.2345
20
77.9462
30
0.0
11
688.8227
21
75.9783
31
0.0
0
LINE
8
CUT
10
688.8227
20
75.9783
30
0.0
11
687.4109
21
74.0846
31
0.0
0
LINE
8
CUT
10
687.4109
20
74.0846
30
0.0
11
685.9991
21
72.2605
31
0.0
0
LINE
8
CUT
10
685.9991
20
72.2605
30
0.0
11
684.5873
21
70.5021
31
0.0
0
LINE
8
CUT
10
684.5873
20
70.5021
30
0.0
11
683.1755
21
68.8061
31
0.0
0
LINE
8
CUT
10
683.1755
20
68.8061
30
0.0
11
681.7636
21
67.1698
31
0.0
0
LINE
8
CUT
10
681.7636
20
67.1698
30
0.0
11
680.3518
21
65.5907
31
0.0
0
LINE
8
CUT
10
680.3518
20
65.5907
30
0.0
11
678.9400
21
64.0668
31
0.0
0
LINE
8
CUT
10
678.9400
20
64.0668
30
0.0
11
677.5282
21
62.5962
31
0.0
0
LINE
8
CUT
10
677.5282
20
62.5962
30
0.0
11
676.1164
21
61.1776
31
0.0
0
LINE
8
CUT
10
676.1164
20
61.1776
30
0.0
11
674.7045
21
59.8095
31
0.0
0
LINE
8
CUT
10
674.7045
20
59.8095
30
0.0
11
673.2927
21
58.4910
31
0.0
0
LINE
8
CUT
10
673.2927
20
58.4910
30
0.0
11
671.8809
21
57.2212
31
0.0
0
LINE
8
CUT
10
671.8809
20
57.2212
30
0.0
11
670.4691
21
55.9993
31
0.0
0
LINE
8
CUT
10
670.4691
20
55.9993
30
0.0
11
669.0573
21
54.8248
31
0.0
0
LINE
8
CUT
10
669.0573
20
54.8248
30
0.0
11
667.6455
21
53.6972
31
0.0
0
LINE
8
CUT
10
667.6455
20
53.6972
30
0.0
11
666.2336
21
52.6163
31
0.0
0
LINE
8
CUT
10
666.2336
20
52.6163
30
0.0
11
664.8218
21
51.5816
31
0.0
0
LINE
8
CUT
10
664.8218
20
51.5816
30
0.0
11
663.4100
21
50.5660
31
0.0
0
LINE
8
CUT
10
663.4100
20
50.5660
30
0.0
11
661.9982
21
49.5526
31
0.0
0
LINE
8
CUT
10
661.9982
20
49.5526
30
0.0
11
660.5864
21
48.5415
31
0.0
0
LINE
8
CUT
10
660.5864
20
48.5415
30
0.0
11
659.1745
21
47.5327
31
0.0
0
LINE
8
CUT
10
659.1745
20
47.5327
30
0.0
11
657.7627
21
46.5263
31
0.0
0
LINE
8
CUT
10
657.7627
20
46.5263
30
0.0
11
656.3509
21
45.5222
31
0.0
0
LINE
8
CUT
10
656.3509
20
45.5222
30
0.0
11
654.9391
21
44.5206
31
0.0
0
LINE
8
CUT
10
654.9391
20
44.5206
30
0.0
11
653.5273
21
43.5214
31
0.0
0
LINE
8
CUT
10
653.5273
20
43.5214
30
0.0
11
652.1155
21
42.5246
31
0.0
0
LINE
8
CUT
10
652.1155
20
42.5246
30
0.0
11
650.7036
21
41.5304
31
0.0
0
LINE
8
CUT
10
650.7036
20
41.5304
30
0.0
11
649.2918
21
40.5387
31
0.0
0
LINE
8
CUT
10
649.2918
20
40.5387
30
0.0
11
647.8800
21
39.5496
31
0.0
0
LINE
8
CUT
10
647.8800
20
39.5496
30
0.0
11
646.4682
21
38.5631
31
0.0
0
LINE
8
CUT
10
646.4682
20
38.5631
30
0.0
11
645.0564
21
37.5792
31
0.0
0
LINE
8
CUT
10
645.0564
20
37.5792
30
0.0
11
643.6445
21
36.5980
31
0.0
0
LINE
8
CUT
10
643.6445
20
36.5980
30
0.0
11
642.2327
21
35.6195
31
0.0
0
LINE
8
CUT
10
642.2327
20
35.6195
30
0.0
11
640.8209
21
34.6437
31
0.0
0
LINE
8
CUT
10
640.8209
20
34.6437
30
0.0
11
639.4091
21
33.6707
31
0.0
0
LINE
8
CUT
10
639.4091
20
33.6707
30
0.0
11
637.9973
21
32.7004
31
0.0
0
LINE
8
CUT
10
637.9973
20
32.7004
30
0.0
11
636.5855
21
31.7330
31
0.0
0
LINE
8
CUT
10
636.5855
20
31.7330
30
0.0
11
635.1736
21
30.7685
31
0.0
0
LINE
8
CUT
10
635.1736
20
30.7685
30
0.0
11
633.7618
21
29.8068
31
0.0
0
LINE
8
CUT
10
633.7618
20
29.8068
30
0.0
11
632.3500
21
28.8480
31
0.0
0
LINE
8
CUT
10
632.3500
20
28.8480
30
0.0
11
630.9382
21
27.8922
31
0.0
0
LINE
8
CUT
10
630.9382
20
27.8922
30
0.0
11
629.5264
21
26.9393
31
0.0
0
LINE
8
CUT
10
629.5264
20
26.9393
30
0.0
11
628.1145
21
25.9895
31
0.0
0
LINE
8
CUT
10
628.1145
20
25.9895
30
0.0
11
626.7027
21
25.0427
31
0.0
0
LINE
8
CUT
10
626.7027
20
25.0427
30
0.0
11
625.2909
21
24.0989
31
0.0
0
LINE
8
CUT
10
625.2909
20
24.0989
30
0.0
11
623.8791
21
23.1582
31
0.0
0
LINE
8
CUT
10
623.8791
20
23.1582
30
0.0
11
622.4673
21
22.2207
31
0.0
0
LINE
8
CUT
10
622.4673
20
22.2207
30
0.0
11
621.0555
21
21.2862
31
0.0
0
LINE
8
CUT
10
621.0555
20
21.2862
30
0.0
11
619.6436
21
20.3550
31
0.0
0
LINE
8
CUT
10
619.6436
20
20.3550
30
0.0
11
618.2318
21
19.4269
31
0.0
0
LINE
8
CUT
10
618.2318
20
19.4269
30
0.0
11
616.8200
21
18.5021
31
0.0
0
LINE
8
CUT
10
616.8200
20
18.5021
30
0.0
11
615.4082
21
17.5805
31
0.0
0
LINE
8
CUT
10
615.4082
20
17.5805
30
0.0
11
613.9964
21
16.6622
31
0.0
0
LINE
8
CUT
10
613.9964
20
16.6622
30
0.0
11
612.5845
21
15.7472
31
0.0
0
LINE
8
CUT
10
612.5845
20
15.7472
30
0.0
11
611.1727
21
14.8356
31
0.0
0
LINE
8
CUT
10
611.1727
20
14.8356
30
0.0
11
609.7609
21
13.9273
31
0.0
0
LINE
8
CUT
10
609.7609
20
13.9273
30
0.0
11
608.3491
21
13.0224
31
0.0
0
LINE
8
CUT
10
608.3491
20
13.0224
30
0.0
11
606.9373
21
12.1209
31
0.0
0
LINE
8
CUT
10
606.9373
20
12.1209
30
0.0
11
605.5255
21
11.2228
31
0.0
0
LINE
8
CUT
10
605.5255
20
11.2228
30
0.0
11
604.1136
21
10.3282
31
0.0
0
LINE
8
CUT
10
604.1136
20
10.3282
30
0.0
11
602.7018
21
9.4371
31
0.0
0
LINE
8
CUT
10
602.7018
20
9.4371
30
0.0
11
601.2900
21
8.5495
31
0.0
0
LINE
8
CUT
10
601.2900
20
8.5495
30
0.0
11
599.8782
21
7.6655
31
0.0
0
LINE
8
CUT
10
599.8782
20
7.6655
30
0.0
11
598.4664
21
6.8019
31
0.0
0
LINE
8
CUT
10
598.4664
20
6.8019
30
0.0
11
597.0545
21
5.9860
31
0.0
0
LINE
8
CUT
10
597.0545
20
5.9860
30
0.0
11
595.6427
21
5.2182
31
0.0
0
LINE
8
CUT
10
595.6427
20
5.2182
30
0.0
11
594.2309
21
4.4988
31
0.0
0
LINE
8
CUT
10
594.2309
20
4.4988
30
0.0
11
592.8191
21
3.8285
31
0.0
0
LINE
8
CUT
10
592.8191
20
3.8285
30
0.0
11
591.4073
21
3.2077
31
0.0
0
LINE
8
CUT
10
591.4073
20
3.2077
30
0.0
11
589.9955
21
2.6373
31
0.0
0
LINE
8
CUT
10
589.9955
20
2.6373
30
0.0
11
588.5836
21
2.1183
31
0.0
0
LINE
8
CUT
10
588.5836
20
2.1183
30
0.0
11
587.1718
21
1.6517
31
0.0
0
LINE
8
CUT
10
587.1718
20
1.6517
30
0.0
11
585.7600
21
1.2389
31
0.0
0
LINE
8
CUT
10
585.7600
20
1.2389
30
0.0
11
584.3482
21
0.8815
31
0.0
0
LINE
8
CUT
10
584.3482
20
0.8815
30
0.0
11
582.9364
21
0.5812
31
0.0
0
LINE
8
CUT
10
582.9364
20
0.5812
30
0.0
11
581.5245
21
0.3403
31
0.0
0
LINE
8
CUT
10
581.5245
20
0.3403
30
0.0
11
580.1127
21
0.1611
31
0.0
0
LINE
8
CUT
10
580.1127
20
0.1611
30
0.0
11
578.7009
21
0.0465
31
0.0
0
LINE
8
CUT
10
578.7009
20
0.0465
30
0.0
11
577.2891
21
0.0000
31
0.0
0
LINE
8
CUT
10
577.2891
20
0.0000
30
0.0
11
575.8773
21
0.0254
31
0.0
0
LINE
8
CUT
10
575.8773
20
0.0254
30
0.0
11
574.4655
21
0.1274
31
0.0
0
LINE
8
CUT
10
574.4655
20
0.1274
30
0.0
11
573.0536
21
0.3114
31
0.0
0
LINE
8
CUT
10
573.0536
20
0.3114
30
0.0
11
571.6418
21
0.5843
31
0.0
0
LINE
8
CUT
10
571.6418
20
0.5843
30
0.0
11
570.2300
21
0.9541
31
0.0
0
LINE
8
CUT
10
570.2300
20
0.9541
30
0.0
11
568.8182
21
1.4307
31
0.0
0
LINE
8
CUT
10
568.8182
20
1.4307
30
0.0
11
567.4064
21
2.0268
31
0.0
0
LINE
8
CUT
10
567.4064
20
2.0268
30
0.0
11
565.9945
21
2.7586
31
0.0
0
LINE
8
CUT
10
565.9945
20
2.7586
30
0.0
11
564.5827
21
3.6474
31
0.0
0
LINE
8
CUT
10
564.5827
20
3.6474
30
0.0
11
563.1709
21
4.7226
31
0.0
0
LINE
8
CUT
10
563.1709
20
4.7226
30
0.0
11
561.7591
21
6.0260
31
0.0
0
LINE
8
CUT
10
561.7591
20
6.0260
30
0.0
11
560.3473
21
7.6219
31
0.0
0
LINE
8
CUT
10
560.3473
20
7.6219
30
0.0
11
558.9355
21
9.6174
31
0.0
0
LINE
8
CUT
10
558.9355
20
9.6174
30
0.0
11
557.5236
21
12.2204
31
0.0
0
LINE
8
CUT
10
557.5236
20
12.2204
30
0.0
11
556.1118
21
15.9636
31
0.0
0
LINE
8
CUT
10
556.1118
20
15.9636
30
0.0
11
554.7000
21
26.3887
31
0.0
0
LINE
8
CUT
10
554.7000
20
26.3887
30
0.0
11
554.7000
21
262.5618
31
0.0
0
LINE
8
CUT
10
554.7000
20
262.5618
30
0.0
11
554.7000
21
262.5618
31
0.0
0
LINE
8
CUT
10
718.0000
20
228.9109
30
0.0
11
718.8364
21
238.2101
31
0.0
0
LINE
8
CUT
10
718.8364
20
238.2101
30
0.0
11
719.6727
21
242.3916
31
0.0
0
LINE
8
CUT
10
719.6727
20
242.3916
30
0.0
11
720.5091
21
245.7131
31
0.0
0
LINE
8
CUT
10
720.5091
20
245.7131
30
0.0
11
721.3455
21
248.5819
31
0.0
0
LINE
8
CUT
10
721.3455
20
248.5819
30
0.0
11
722.1818
21
251.1565
31
0.0
0
LINE
8
CUT
10
722.1818
20
251.1565
30
0.0
11
723.0182
21
253.5186
31
0.0
0
LINE
8
CUT
10
723.0182
20
253.5186
30
0.0
11
723.8545
21
255.7169
31
0.0
0
LINE
8
CUT
10
723.8545
20
255.7169
30
0.0
11
724.6909
21
257.7831
31
0.0
0
LINE
8
CUT
10
724.6909
20
257.7831
30
0.0
11
725.5273
21
259.7396
31
0.0
0
LINE
8
CUT
10
725.5273
20
259.7396
30
0.0
11
726.3636
21
261.6024
31
0.0
0
LINE
8
CUT
10
726.3636
20
261.6024
30
0.0
11
727.2000
21
263.3840
31
0.0
0
LINE
8
CUT
10
727.2000
20
263.3840
30
0.0
11
728.0364
21
265.0937
31
0.0
0
LINE
8
CUT
10
728.0364
20
265.0937
30
0.0
11
728.8727
21
266.7393
31
0.0
0
LINE
8
CUT
10
728.8727
20
266.7393
30
0.0
11
729.7091
21
268.3269
31
0.0
0
LINE
8
CUT
10
729.7091
20
268.3269
30
0.0
11
730.5455
21
269.8617
31
0.0
0
LINE
8
CUT
10
730.5455
20
269.8617
30
0.0
11
731.3818
21
271.3479
31
0.0
0
LINE
8
CUT
10
731.3818
20
271.3479
30
0.0
11
732.2182
21
272.7891
31
0.0
0
LINE
8
CUT
10
732.2182
20
272.7891
30
0.0
11
733.0545
21
274.1885
31
0.0
0
LINE
8
CUT
10
733.0545
20
274.1885
30
0.0
11
733.8909
21
275.5486
31
0.0
0
LINE
8
CUT
10
733.8909
20
275.5486
30
0.0
11
734.7273
21
276.8719
31
0.0
0
LINE
8
CUT
10
734.7273
20
276.8719
30
0.0
11
735.5636
21
278.1604
31
0.0
0
LINE
8
CUT
10
735.5636
20
278.1604
30
0.0
11
736.4000
21
279.4158
31
0.0
0
LINE
8
CUT
10
736.4000
20
279.4158
30
0.0
11
737.2364
21
282.2519
31
0.0
0
LINE
8
CUT
10
737.2364
20
282.2519
30
0.0
11
738.0727
21
283.4535
31
0.0
0
LINE
8
CUT
10
738.0727
20
283.4535
30
0.0
11
738.9091
21
284.6264
31
0.0
0
LINE
8
CUT
10
738.9091
20
284.6264
30
0.0
11
739.7455
21
285.7716
31
0.0
0
LINE
8
CUT
10
739.7455
20
285.7716
30
0.0
11
740.5818
21
286.8901
31
0.0
0
LINE
8
CUT
10
740.5818
20
286.8901
30
0.0
11
741.4182
21
287.9829
31
0.0
0
LINE
8
CUT
10
741.4182
20
287.9829
30
0.0
11
742.2545
21
289.0507
31
0.0
0
LINE
8
CUT
10
742.2545
20
289.0507
30
0.0
11
743.0909
21
290.0944
31
0.0
0
LINE
8
CUT
10
743.0909
20
290.0944
30
0.0
11
743.9273
21
291.1147
31
0.0
0
LINE
8
CUT
10
743.9273
20
291.1147
30
0.0
11
744.7636
21
292.1120
31
0.0
0
LINE
8
CUT
10
744.7636
20
292.1120
30
0.0
11
745.6000
21
293.0871
31
0.0
0
LINE
8
CUT
10
745.6000
20
293.0871
30
0.0
11
746.4364
21
294.0404
31
0.0
0
LINE
8
CUT
10
746.4364
20
294.0404
30
0.0
11
747.2727
21
294.9725
31
0.0
0
LINE
8
CUT
10
747.2727
20
294.9725
30
0.0
11
748.1091
21
295.8836
31
0.0
0
LINE
8
CUT
10
748.1091
20
295.8836
30
0.0
11
748.9455
21
296.7743
31
0.0
0
LINE
8
CUT
10
748.9455
20
296.7743
30
0.0
11
749.7818
21
297.6449
31
0.0
0
LINE
8
CUT
10
749.7818
20
297.6449
30
0.0
11
750.6182
21
298.4957
31
0.0
0
LINE
8
CUT
10
750.6182
20
298.4957
30
0.0
11
751.4545
21
299.3270
31
0.0
0
LINE
8
CUT
10
751.4545
20
299.3270
30
0.0
11
752.2909
21
300.1391
31
0.0
0
LINE
8
CUT
10
752.2909
20
300.1391
30
0.0
11
753.1273
21
300.9322
31
0.0
0
LINE
8
CUT
10
753.1273
20
300.9322
30
0.0
11
753.9636
21
301.7066
31
0.0
0
LINE
8
CUT
10
753.9636
20
301.7066
30
0.0
11
754.8000
21
302.4624
31
0.0
0
LINE
8
CUT
10
754.8000
20
302.4624
30
0.0
11
755.6364
21
303.1998
31
0.0
0
LINE
8
CUT
10
755.6364
20
303.1998
30
0.0
11
756.4727
21
303.9189
31
0.0
0
LINE
8
CUT
10
756.4727
20
303.9189
30
0.0
11
757.3091
21
304.6200
31
0.0
0
LINE
8
CUT
10
757.3091
20
304.6200
30
0.0
11
758.1455
21
305.3031
31
0.0
0
LINE
8
CUT
10
758.1455
20
305.3031
30
0.0
11
758.9818
21
305.9683
31
0.0
0
LINE
8
CUT
10
758.9818
20
305.9683
30
0.0
11
759.8182
21
306.6157
31
0.0
0
LINE
8
CUT
10
759.8182
20
306.6157
30
0.0
11
760.6545
21
307.2454
31
0.0
0
LINE
8
CUT
10
760.6545
20
307.2454
30
0.0
11
761.4909
21
308.0402
31
0.0
0
LINE
8
CUT
10
761.4909
20
308.0402
30
0.0
11
762.3273
21
308.6352
31
0.0
0
LINE
8
CUT
10
762.3273
20
308.6352
30
0.0
11
763.1636
21
309.2128
31
0.0
0
LINE
8
CUT
10
763.1636
20
309.2128
30
0.0
11
764.0000
21
309.7833
31
0.0
0
LINE
8
CUT
10
764.0000
20
309.7833
30
0.0
11
764.8364
21
310.3517
31
0.0
0
LINE
8
CUT
10
764.8364
20
310.3517
30
0.0
11
765.6727
21
310.9130
31
0.0
0
LINE
8
CUT
10
765.6727
20
310.9130
30
0.0
11
766.5091
21
311.4568
31
0.0
0
LINE
8
CUT
10
766.5091
20
311.4568
30
0.0
11
767.3455
21
311.9830
31
0.0
0
LINE
8
CUT
10
767.3455
20
311.9830
30
0.0
11
768.1818
21
312.4914
31
0.0
0
LINE
8
CUT
10
768.1818
20
312.4914
30
0.0
11
769.0182
21
312.9819
31
0.0
0
LINE
8
CUT
10
769.0182
20
312.9819
30
0.0
11
769.8545
21
313.4546
31
0.0
0
LINE
8
CUT
10
769.8545
20
313.4546
30
0.0
11
770.6909
21
313.9093
31
0.0
0
LINE
8
CUT
10
770.6909
20
313.9093
30
0.0
11
771.5273
21
314.3459
31
0.0
0
LINE
8
CUT
10
771.5273
20
314.3459
30
0.0
11
772.3636
21
314.7642
31
0.0
0
LINE
8
CUT
10
772.3636
20
314.7642
30
0.0
11
773.2000
21
315.1642
31
0.0
0
LINE
8
CUT
10
773.2000
20
315.1642
30
0.0
11
774.0364
21
315.5456
31
0.0
0
LINE
8
CUT
10
774.0364
20
315.5456
30
0.0
11
774.8727
21
315.9083
31
0.0
0
LINE
8
CUT
10
774.8727
20
315.9083
30
0.0
11
775.7091
21
316.2520
31
0.0
0
LINE
8
CUT
10
775.7091
20
316.2520
30
0.0
11
776.5455
21
316.5766
31
0.0
0
LINE
8
CUT
10
776.5455
20
316.5766
30
0.0
11
777.3818
21
316.8817
31
0.0
0
LINE
8
CUT
10
777.3818
20
316.8817
30
0.0
11
778.2182
21
317.1671
31
0.0
0
LINE
8
CUT
10
778.2182
20
317.1671
30
0.0
11
779.0545
21
317.4324
31
0.0
0
LINE
8
CUT
10
779.0545
20
317.4324
30
0.0
11
779.8909
21
317.6774
31
0.0
0
LINE
8
CUT
10
779.8909
20
317.6774
30
0.0
11
780.7273
21
317.9016
31
0.0
0
LINE
8
CUT
10
780.7273
20
317.9016
30
0.0
11
781.5636
21
318.1047
31
0.0
0
LINE
8
CUT
10
781.5636
20
318.1047
30
0.0
11
782.4000
21
318.2862
31
0.0
0
LINE
8
CUT
10
782.4000
20
318.2862
30
0.0
11
783.2364
21
318.4455
31
0.0
0
LINE
8
CUT
10
783.2364
20
318.4455
30
0.0
11
784.0727
21
318.5823
31
0.0
0
LINE
8
CUT
10
784.0727
20
318.5823
30
0.0
11
784.9091
21
318.6958
31
0.0
0
LINE
8
CUT
10
784.9091
20
318.6958
30
0.0
11
785.7455
21
318.7855
31
0.0
0
LINE
8
CUT
10
785.7455
20
318.7855
30
0.0
11
786.5818
21
318.8507
31
0.0
0
LINE
8
CUT
10
786.5818
20
318.8507
30
0.0
11
787.4182
21
318.8905
31
0.0
0
LINE
8
CUT
10
787.4182
20
318.8905
30
0.0
11
788.2545
21
318.9042
31
0.0
0
LINE
8
CUT
10
788.2545
20
318.9042
30
0.0
11
789.0909
21
318.8908
31
0.0
0
LINE
8
CUT
10
789.0909
20
318.8908
30
0.0
11
789.9273
21
318.8493
31
0.0
0
LINE
8
CUT
10
789.9273
20
318.8493
30
0.0
11
790.7636
21
318.7785
31
0.0
0
LINE
8
CUT
10
790.7636
20
318.7785
30
0.0
11
791.6000
21
318.6772
31
0.0
0
LINE
8
CUT
10
791.6000
20
318.6772
30
0.0
11
792.4364
21
318.5439
31
0.0
0
LINE
8
CUT
10
792.4364
20
318.5439
30
0.0
11
793.2727
21
318.3770
31
0.0
0
LINE
8
CUT
10
793.2727
20
318.3770
30
0.0
11
794.1091
21
318.1747
31
0.0
0
LINE
8
CUT
10
794.1091
20
318.1747
30
0.0
11
794.9455
21
317.9350
31
0.0
0
LINE
8
CUT
10
794.9455
20
317.9350
30
0.0
11
795.7818
21
317.6556
31
0.0
0
LINE
8
CUT
10
795.7818
20
317.6556
30
0.0
11
796.6182
21
317.3337
31
0.0
0
LINE
8
CUT
10
796.6182
20
317.3337
30
0.0
11
797.4545
21
316.9662
31
0.0
0
LINE
8
CUT
10
797.4545
20
316.9662
30
0.0
11
798.2909
21
316.5496
31
0.0
0
LINE
8
CUT
10
798.2909
20
316.5496
30
0.0
11
799.1273
21
316.0794
31
0.0
0
LINE
8
CUT
10
799.1273
20
316.0794
30
0.0
11
799.9636
21
315.5507
31
0.0
0
LINE
8
CUT
10
799.9636
20
315.5507
30
0.0
11
800.8000
21
314.9571
31
0.0
0
LINE
8
CUT
10
800.8000
20
314.9571
30
0.0
11
801.6364
21
314.2911
31
0.0
0
LINE
8
CUT
10
801.6364
20
314.2911
30
0.0
11
802.4727
21
313.5431
31
0.0
0
LINE
8
CUT
10
802.4727
20
313.5431
30
0.0
11
803.3091
21
312.7008
31
0.0
0
LINE
8
CUT
10
803.3091
20
312.7008
30
0.0
11
804.1455
21
311.7479
31
0.0
0
LINE
8
CUT
10
804.1455
20
311.7479
30
0.0
11
804.9818
21
310.6624
31
0.0
0
LINE
8
CUT
10
804.9818
20
310.6624
30
0.0
11
805.8182
21
309.4122
31
0.0
0
LINE
8
CUT
10
805.8182
20
309.4122
30
0.0
11
806.6545
21
307.9487
31
0.0
0
LINE
8
CUT
10
806.6545
20
307.9487
30
0.0
11
807.4909
21
306.1903
31
0.0
0
LINE
8
CUT
10
807.4909
20
306.1903
30
0.0
11
808.3273
21
303.9784
31
0.0
0
LINE
8
CUT
10
808.3273
20
303.9784
30
0.0
11
809.1636
21
300.9056
31
0.0
0
LINE
8
CUT
10
809.1636
20
300.9056
30
0.0
11
810.0000
21
292.7144
31
0.0
0
LINE
8
CUT
10
810.0000
20
292.7144
30
0.0
11
810.0000
21
26.1898
31
0.0
0
LINE
8
CUT
10
810.0000
20
26.1898
30
0.0
11
809.1636
21
17.9986
31
0.0
0
LINE
8
CUT
10
809.1636
20
17.9986
30
0.0
11
808.3273
21
14.9258
31
0.0
0
LINE
8
CUT
10
808.3273
20
14.9258
30
0.0
11
807.4909
21
12.7140
31
0.0
0
LINE
8
CUT
10
807.4909
20
12.7140
30
0.0
11
806.6545
21
10.9555
31
0.0
0
LINE
8
CUT
10
806.6545
20
10.9555
30
0.0
11
805.8182
21
9.4921
31
0.0
0
LINE
8
CUT
10
805.8182
20
9.4921
30
0.0
11
804.9818
21
8.2419
31
0.0
0
LINE
8
CUT
10
804.9818
20
8.2419
30
0.0
11
804.1455
21
7.1563
31
0.0
0
LINE
8
CUT
10
804.1455
20
7.1563
30
0.0
11
803.3091
21
6.2034
31
0.0
0
LINE
8
CUT
10
803.3091
20
6.2034
30
0.0
11
802.4727
21
5.3611
31
0.0
0
LINE
8
CUT
10
802.4727
20
5.3611
30
0.0
11
801.6364
21
4.6131
31
0.0
0
LINE
8
CUT
10
801.6364
20
4.6131
30
0.0
11
800.8000
21
3.9471
31
0.0
0
LINE
8
CUT
10
800.8000
20
3.9471
30
0.0
11
799.9636
21
3.3535
31
0.0
0
LINE
8
CUT
10
799.9636
20
3.3535
30
0.0
11
799.1273
21
2.8248
31
0.0
0
LINE
8
CUT
10
799.1273
20
2.8248
30
0.0
11
798.2909
21
2.3547
31
0.0
0
LINE
8
CUT
10
798.2909
20
2.3547
30
0.0
11
797.4545
21
1.9380
31
0.0
0
LINE
8
CUT
10
797.4545
20
1.9380
30
0.0
11
796.6182
21
1.5705
31
0.0
0
LINE
8
CUT
10
796.6182
20
1.5705
30
0.0
11
795.7818
21
1.2486
31
0.0
0
LINE
8
CUT
10
795.7818
20
1.2486
30
0.0
11
794.9455
21
0.9692
31
0.0
0
LINE
8
CUT
10
794.9455
20
0.9692
30
0.0
11
794.1091
21
0.7295
31
0.0
0
LINE
8
CUT
10
794.1091
20
0.7295
30
0.0
11
793.2727
21
0.5273
31
0.0
0
LINE
8
CUT
10
793.2727
20
0.5273
30
0.0
11
792.4364
21
0.3604
31
0.0
0
LINE
8
CUT
10
792.4364
20
0.3604
30
0.0
11
791.6000
21
0.2271
31
0.0
0
LINE
8
CUT
10
791.6000
20
0.2271
30
0.0
11
790.7636
21
0.1257
31
0.0
0
LINE
8
CUT
10
790.7636
20
0.1257
30
0.0
11
789.9273
21
0.0549
31
0.0
0
LINE
8
CUT
10
789.9273
20
0.0549
30
0.0
11
789.0909
21
0.0134
31
0.0
0
LINE
8
CUT
10
789.0909
20
0.0134
30
0.0
11
788.2545
21
0.0000
31
0.0
0
LINE
8
CUT
10
788.2545
20
0.0000
30
0.0
11
787.4182
21
0.0137
31
0.0
0
LINE
8
CUT
10
787.4182
20
0.0137
30
0.0
11
786.5818
21
0.0535
31
0.0
0
LINE
8
CUT
10
786.5818
20
0.0535
30
0.0
11
785.7455
21
0.1187
31
0.0
0
LINE
8
CUT
10
785.7455
20
0.1187
30
0.0
11
784.9091
21
0.2084
31
0.0
0
LINE
8
CUT
10
784.9091
20
0.2084
30
0.0
11
784.0727
21
0.3220
31
0.0
0
LINE
8
CUT
10
784.0727
20
0.3220
30
0.0
11
783.2364
21
0.4587
31
0.0
0
LINE
8
CUT
10
783.2364
20
0.4587
30
0.0
11
782.4000
21
0.6181
31
0.0
0
LINE
8
CUT
10
782.4000
20
0.6181
30
0.0
11
781.5636
21
0.7995
31
0.0
0
LINE
8
CUT
10
781.5636
20
0.7995
30
0.0
11
780.7273
21
1.0026
31
0.0
0
LINE
8
CUT
10
780.7273
20
1.0026
30
0.0
11
779.8909
21
1.2268
31
0.0
0
LINE
8
CUT
10
779.8909
20
1.2268
30
0.0
11
779.0545
21
1.4718
31
0.0
0
LINE
8
CUT
10
779.0545
20
1.4718
30
0.0
11
778.2182
21
1.7372
31
0.0
0
LINE
8
CUT
10
778.2182
20
1.7372
30
0.0
11
777.3818
21
2.0225
31
0.0
0
LINE
8
CUT
10
777.3818
20
2.0225
30
0.0
11
776.5455
21
2.3277
31
0.0
0
LINE
8
CUT
10
776.5455
20
2.3277
30
0.0
11
775.7091
21
2.6522
31
0.0
0
LINE
8
CUT
10
775.7091
20
2.6522
30
0.0
11
774.8727
21
2.9959
31
0.0
0
LINE
8
CUT
10
774.8727
20
2.9959
30
0.0
11
774.0364
21
3.3586
31
0.0
0
LINE
8
CUT
10
774.0364
20
3.3586
30
0.0
11
773.2000
21
3.7400
31
0.0
0
LINE
8
CUT
10
773.2000
20
3.7400
30
0.0
11
772.3636
21
4.1400
31
0.0
0
LINE
8
CUT
10
772.3636
20
4.1400
30
0.0
11
771.5273
21
4.5584
31
0.0
0
LINE
8
CUT
10
771.5273
20
4.5584
30
0.0
11
770.6909
21
4.9949
31
0.0
0
LINE
8
CUT
10
770.6909
20
4.9949
30
0.0
11
769.8545
21
5.4496
31
0.0
0
LINE
8
CUT
10
769.8545
20
5.4496
30
0.0
11
769.0182
21
5.9223
31
0.0
0
LINE
8
CUT
10
769.0182
20
5.9223
30
0.0
11
768.1818
21
6.4129
31
0.0
0
LINE
8
CUT
10
768.1818
20
6.4129
30
0.0
11
767.3455
21
6.9213
31
0.0
0
LINE
8
CUT
10
767.3455
20
6.9213
30
0.0
11
766.5091
21
7.4474
31
0.0
0
LINE
8
CUT
10
766.5091
20
7.4474
30
0.0
11
765.6727
21
7.9913
31
0.0
0
LINE
8
CUT
10
765.6727
20
7.9913
30
0.0
11
764.8364
21
8.5525
31
0.0
0
LINE
8
CUT
10
764.8364
20
8.5525
30
0.0
11
764.0000
21
9.1209
31
0.0
0
LINE
8
CUT
10
764.0000
20
9.1209
30
0.0
11
763.1636
21
9.6914
31
0.0
0
LINE
8
CUT
10
763.1636
20
9.6914
30
0.0
11
762.3273
21
10.2691
31
0.0
0
LINE
8
CUT
10
762.3273
20
10.2691
30
0.0
11
761.4909
21
10.8641
31
0.0
0
LINE
8
CUT
10
761.4909
20
10.8641
30
0.0
11
760.6545
21
11.6588
31
0.0
0
LINE
8
CUT
10
760.6545
20
11.6588
30
0.0
11
759.8182
21
12.2885
31
0.0
0
LINE
8
CUT
10
759.8182
20
12.2885
30
0.0
11
758.9818
21
12.9359
31
0.0
0
LINE
8
CUT
10
758.9818
20
12.9359
30
0.0
11
758.1455
21
13.6011
31
0.0
0
LINE
8
CUT
10
758.1455
20
13.6011
30
0.0
11
757.3091
21
14.2842
31
0.0
0
LINE
8
CUT
10
757.3091
20
14.2842
30
0.0
11
756.4727
21
14.9853
31
0.0
0
LINE
8
CUT
10
756.4727
20
14.9853
30
0.0
11
755.6364
21
15.7045
31
0.0
0
LINE
8
CUT
10
755.6364
20
15.7045
30
0.0
11
754.8000
21
16.4419
31
0.0
0
LINE
8
CUT
10
754.8000
20
16.4419
30
0.0
11
753.9636
21
17.1977
31
0.0
0
LINE
8
CUT
10
753.9636
20
17.1977
30
0.0
11
753.1273
21
17.9720
31
0.0
0
LINE
8
CUT
10
753.1273
20
17.9720
30
0.0
11
752.2909
21
18.7651
31
0.0
0
LINE
8
CUT
10
752.2909
20
18.7651
30
0.0
11
751.4545
21
19.5772
31
0.0
0
LINE
8
CUT
10
751.4545
20
19.5772
30
0.0
11
750.6182
21
20.4085
31
0.0
0
LINE
8
CUT
10
750.6182
20
20.4085
30
0.0
11
749.7818
21
21.2593
31
0.0
0
LINE
8
CUT
10
749.7818
20
21.2593
30
0.0
11
748.9455
21
22.1299
31
0.0
0
LINE
8
CUT
10
748.9455
20
22.1299
30
0.0
11
748.1091
21
23.0206
31
0.0
0
LINE
8
CUT
10
748.1091
20
23.0206
30
0.0
11
747.2727
21
23.9318
31
0.0
0
LINE
8
CUT
10
747.2727
20
23.9318
30
0.0
11
746.4364
21
24.8638
31
0.0
0
LINE
8
CUT
10
746.4364
20
24.8638
30
0.0
11
745.6000
21
25.8171
31
0.0
0
LINE
8
CUT
10
745.6000
20
25.8171
30
0.0
11
744.7636
21
26.7922
31
0.0
0
LINE
8
CUT
10
744.7636
20
26.7922
30
0.0
11
743.9273
21
27.7896
31
0.0
0
LINE
8
CUT
10
743.9273
20
27.7896
30
0.0
11
743.0909
21
28.8098
31
0.0
0
LINE
8
CUT
10
743.0909
20
28.8098
30
0.0
11
742.2545
21
29.8535
31
0.0
0
LINE
8
CUT
10
742.2545
20
29.8535
30
0.0
11
741.4182
21
30.9214
31
0.0
0
LINE
8
CUT
10
741.4182
20
30.9214
30
0.0
11
740.5818
21
32.0141
31
0.0
0
LINE
8
CUT
10
740.5818
20
32.0141
30
0.0
11
739.7455
21
33.1326
31
0.0
0
LINE
8
CUT
10
739.7455
20
33.1326
30
0.0
11
738.9091
21
34.2778
31
0.0
0
LINE
8
CUT
10
738.9091
20
34.2778
30
0.0
11
738.0727
21
35.4507
31
0.0
0
LINE
8
CUT
10
738.0727
20
35.4507
30
0.0
11
737.2364
21
36.6524
31
0.0
0
LINE
8
CUT
10
737.2364
20
36.6524
30
0.0
11
736.4000
21
39.4884
31
0.0
0
LINE
8
CUT
10
736.4000
20
39.4884
30
0.0
11
735.5636
21
40.7438
31
0.0
0
LINE
8
CUT
10
735.5636
20
40.7438
30
0.0
11
734.7273
21
42.0323
31
0.0
0
LINE
8
CUT
10
734.7273
20
42.0323
30
0.0
11
733.8909
21
43.3556
31
0.0
0
LINE
8
CUT
10
733.8909
20
43.3556
30
0.0
11
733.0545
21
44.7158
31
0.0
0
LINE
8
CUT
10
733.0545
20
44.7158
30
0.0
11
732.2182
21
46.1151
31
0.0
0
LINE
8
CUT
10
732.2182
20
46.1151
30
0.0
11
731.3818
21
47.5564
31
0.0
0
LINE
8
CUT
10
731.3818
20
47.5564
30
0.0
11
730.5455
21
49.0425
31
0.0
0
LINE
8
CUT
10
730.5455
20
49.0425
30
0.0
11
729.7091
21
50.5773
31
0.0
0
LINE
8
CUT
10
729.7091
20
50.5773
30
0.0
11
728.8727
21
52.1649
31
0.0
0
LINE
8
CUT
10
728.8727
20
52.1649
30
0.0
11
728.0364
21
53.8105
31
0.0
0
LINE
8
CUT
10
728.0364
20
53.8105
30
0.0
11
727.2000
21
55.5203
31
0.0
0
LINE
8
CUT
10
727.2000
20
55.5203
30
0.0
11
726.3636
21
57.3018
31
0.0
0
LINE
8
CUT
10
726.3636
20
57.3018
30
0.0
11
725.5273
21
59.1646
31
0.0
0
LINE
8
CUT
10
725.5273
20
59.1646
30
0.0
11
724.6909
21
61.1211
31
0.0
0
LINE
8
CUT
10
724.6909
20
61.1211
30
0.0
11
723.8545
21
63.1873
31
0.0
0
LINE
8
CUT
10
723.8545
20
63.1873
30
0.0
11
723.0182
21
65.3856
31
0.0
0
LINE
8
CUT
10
723.0182
20
65.3856
30
0.0
11
722.1818
21
67.7477
31
0.0
0
LINE
8
CUT
10
722.1818
20
67.7477
30
0.0
11
721.3455
21
70.3223
31
0.0
0
LINE
8
CUT
10
721.3455
20
70.3223
30
0.0
11
720.5091
21
73.1911
31
0.0
0
LINE
8
CUT
10
720.5091
20
73.1911
30
0.0
11
719.6727
21
76.5126
31
0.0
0
LINE
8
CUT
10
719.6727
20
76.5126
30
0.0
11
718.8364
21
80.6941
31
0.0
0
LINE
8
CUT
10
718.8364
20
80.6941
30
0.0
11
718.0000
21
89.9933
31
0.0
0
LINE
8
CUT
10
718.0000
20
89.9933
30
0.0
11
718.0000
21
228.9109
31
0.0
0
LINE
8
CUT
10
718.0000
20
228.9109
30
0.0
11
718.0000
21
228.9109
31
0.0
0
ENDSEC
0
EOF
