0
SECTION
2
ENTITIES
0
LINE
8
CHANNEL
10
0.0000
20
0.0000
30
0.0
11
2400.0000
21
0.0000
31
0.0
0
LINE
8
CHANNEL
10
2400.0000
20
0.0000
30
0.0
11
2400.0000
21
600.0000
31
0.0
0
LINE
8
CHANNEL
10
2400.0000
20
600.0000
30
0.0
11
0.0000
21
600.0000
31
0.0
0
LINE
8
CHANNEL
10
0.0000
20
600.0000
30
0.0
11
0.0000
21
0.0000
31
0.0
0
LINE
8
CHANNEL
10
0.0000
20
0.0000
30
0.0
11
0.0000
21
0.0000
31
0.0
0
LINE
8
CUT
10
0.0000
20
0.0000
30
0.0
11
26.2500
21
0.0000
31
0.0
0
LINE
8
CUT
10
26.2500
20
0.0000
30
0.0
11
52.5000
21
0.0000
31
0.0
0
LINE
8
CUT
10
52.5000
20
0.0000
30
0.0
11
78.7500
21
0.0000
31
0.0
0
LINE
8
CUT
10
78.7500
20
0.0000
30
0.0
11
105.0000
21
0.0000
31
0.0
0
LINE
8
CUT
10
105.0000
20
0.0000
30
0.0
11
131.2500
21
0.0000
31
0.0
0
LINE
8
CUT
10
131.2500
20
0.0000
30
0.0
11
157.5000
21
0.0000
31
0.0
0
LINE
8
CUT
10
157.5000
20
0.0000
30
0.0
11
183.7500
21
0.0000
31
0.0
0
LINE
8
CUT
10
183.7500
20
0.0000
30
0.0
11
210.0000
21
0.0000
31
0.0
0
LINE
8
CUT
10
210.0000
20
0.0000
30
0.0
11
236.2500
21
0.0000
31
0.0
0
LINE
8
CUT
10
236.2500
20
0.0000
30
0.0
11
262.5000
21
0.0000
31
0.0
0
LINE
8
CUT
10
262.5000
20
0.0000
30
0.0
11
288.7500
21
0.0000
31
0.0
0
LINE
8
CUT
10
288.7500
20
0.0000
30
0.0
11
315.0000
21
0.0000
31
0.0
0
LINE
8
CUT
10
315.0000
20
0.0000
30
0.0
11
341.2500
21
0.0000
31
0.0
0
LINE
8
CUT
10
341.2500
20
0.0000
30
0.0
11
367.5000
21
0.0000
31
0.0
0
LINE
8
CUT
10
367.5000
20
0.0000
30
0.0
11
393.7500
21
0.0000
31
0.0
0
LINE
8
CUT
10
393.7500
20
0.0000
30
0.0
11
420.0000
21
0.0000
31
0.0
0
LINE
8
CUT
10
420.0000
20
0.0000
30
0.0
11
446.2500
21
0.0000
31
0.0
0
LINE
8
CUT
10
446.2500
20
0.0000
30
0.0
11
472.5000
21
0.0000
31
0.0
0
LINE
8
CUT
10
472.5000
20
0.0000
30
0.0
11
498.7500
21
0.0000
31
0.0
0
LINE
8
CUT
10
498.7500
20
0.0000
30
0.0
11
525.0000
21
0.0000
31
0.0
0
LINE
8
CUT
10
525.0000
20
0.0000
30
0.0
11
551.2500
21
0.0000
31
0.0
0
LINE
8
CUT
10
551.2500
20
0.0000
30
0.0
11
577.5000
21
0.0000
31
0.0
0
LINE
8
CUT
10
577.5000
20
0.0000
30
0.0
11
603.7500
21
0.0000
31
0.0
0
LINE
8
CUT
10
603.7500
20
0.0000
30
0.0
11
630.0000
21
0.0000
31
0.0
0
LINE
8
CUT
10
630.0000
20
0.0000
30
0.0
11
656.2500
21
0.0000
31
0.0
0
LINE
8
CUT
10
656.2500
20
0.0000
30
0.0
11
682.5000
21
0.0000
31
0.0
0
LINE
8
CUT
10
682.5000
20
0.0000
30
0.0
11
708.7500
21
0.0000
31
0.0
0
LINE
8
CUT
10
708.7500
20
0.0000
30
0.0
11
735.0000
21
0.0000
31
0.0
0
LINE
8
CUT
10
735.0000
20
0.0000
30
0.0
11
761.2500
21
0.0000
31
0.0
0
LINE
8
CUT
10
761.2500
20
0.0000
30
0.0
11
787.5000
21
0.0000
31
0.0
0
LINE
8
CUT
10
787.5000
20
0.0000
30
0.0
11
813.7500
21
0.0000
31
0.0
0
LINE
8
CUT
10
813.7500
20
0.0000
30
0.0
11
840.0000
21
0.0000
31
0.0
0
LINE
8
CUT
10
840.0000
20
0.0000
30
0.0
11
866.2500
21
0.0000
31
0.0
0
LINE
8
CUT
10
866.2500
20
0.0000
30
0.0
11
892.5000
21
0.0000
31
0.0
0
LINE
8
CUT
10
892.5000
20
0.0000
30
0.0
11
918.7500
21
0.0000
31
0.0
0
LINE
8
CUT
10
918.7500
20
0.0000
30
0.0
11
945.0000
21
0.0000
31
0.0
0
LINE
8
CUT
10
945.0000
20
0.0000
30
0.0
11
971.2500
21
0.0000
31
0.0
0
LINE
8
CUT
10
971.2500
20
0.0000
30
0.0
11
997.5000
21
0.0000
31
0.0
0
LINE
8
CUT
10
997.5000
20
0.0000
30
0.0
11
1023.7500
21
0.0000
31
0.0
0
LINE
8
CUT
10
1023.7500
20
0.0000
30
0.0
11
1050.0000
21
0.0000
31
0.0
0
LINE
8
CUT
10
1050.0000
20
0.0000
30
0.0
11
1050.0000
21
43.9911
31
0.0
0
LINE
8
CUT
10
1050.0000
20
43.9911
30
0.0
11
1023.7500
21
48.3864
31
0.0
0
LINE
8
CUT
10
1023.7500
20
48.3864
30
0.0
11
997.5000
21
52.2938
31
0.0
0
LINE
8
CUT
10
997.5000
20
52.2938
30
0.0
11
971.2500
21
55.8075
31
0.0
0
LINE
8
CUT
10
971.2500
20
55.8075
30
0.0
11
945.0000
21
58.9915
31
0.0
0
LINE
8
CUT
10
945.0000
20
58.9915
30
0.0
11
918.7500
21
61.8921
31
0.0
0
LINE
8
CUT
10
918.7500
20
61.8921
30
0.0
11
892.5000
21
64.5435
31
0.0
0
LINE
8
CUT
10
892.5000
20
64.5435
30
0.0
11
866.2500
21
66.9721
31
0.0
0
LINE
8
CUT
10
866.2500
20
66.9721
30
0.0
11
840.0000
21
69.1986
31
0.0
0
LINE
8
CUT
10
840.0000
20
69.1986
30
0.0
11
813.7500
21
71.2395
31
0.0
0
LINE
8
CUT
10
813.7500
20
71.2395
30
0.0
11
787.5000
21
73.1081
31
0.0
0
LINE
8
CUT
10
787.5000
20
73.1081
30
0.0
11
761.2500
21
74.8152
31
0.0
0
LINE
8
CUT
10
761.2500
20
74.8152
30
0.0
11
735.0000
21
76.3698
31
0.0
0
LINE
8
CUT
10
735.0000
20
76.3698
30
0.0
11
708.7500
21
77.7791
31
0.0
0
LINE
8
CUT
10
708.7500
20
77.7791
30
0.0
11
682.5000
21
79.0491
31
0.0
0
LINE
8
CUT
10
682.5000
20
79.0491
30
0.0
11
656.2500
21
80.1846
31
0.0
0
LINE
8
CUT
10
656.2500
20
80.1846
30
0.0
11
630.0000
21
81.1892
31
0.0
0
LINE
8
CUT
10
630.0000
20
81.1892
30
0.0
11
603.7500
21
82.0658
31
0.0
0
LINE
8
CUT
10
603.7500
20
82.0658
30
0.0
11
577.5000
21
82.8164
31
0.0
0
LINE
8
CUT
10
577.5000
20
82.8164
30
0.0
11
551.2500
21
83.4418
31
0.0
0
LINE
8
CUT
10
551.2500
20
83.4418
30
0.0
11
525.0000
21
83.9419
31
0.0
0
LINE
8
CUT
10
525.0000
20
83.9419
30
0.0
11
498.7500
21
84.3154
31
0.0
0
LINE
8
CUT
10
498.7500
20
84.3154
30
0.0
11
472.5000
21
84.5588
31
0.0
0
LINE
8
CUT
10
472.5000
20
84.5588
30
0.0
11
446.2500
21
84.6641
31
0.0
0
LINE
8
CUT
10
446.2500
20
84.6641
30
0.0
11
420.0000
21
84.6539
31
0.0
0
LINE
8
CUT
10
420.0000
20
84.6539
30
0.0
11
393.7500
21
84.5888
31
0.0
0
LINE
8
CUT
10
393.7500
20
84.5888
30
0.0
11
367.5000
21
84.4549
31
0.0
0
LINE
8
CUT
10
367.5000
20
84.4549
30
0.0
11
341.2500
21
84.2418
31
0.0
0
LINE
8
CUT
10
341.2500
20
84.2418
30
0.0
11
315.0000
21
83.9412
31
0.0
0
LINE
8
CUT
10
315.0000
20
83.9412
30
0.0
11
288.7500
21
83.5453
31
0.0
0
LINE
8
CUT
10
288.7500
20
83.5453
30
0.0
11
262.5000
21
83.0466
31
0.0
0
LINE
8
CUT
10
262.5000
20
83.0466
30
0.0
11
236.2500
21
82.4376
31
0.0
0
LINE
8
CUT
10
236.2500
20
82.4376
30
0.0
11
210.0000
21
81.7100
31
0.0
0
LINE
8
CUT
10
210.0000
20
81.7100
30
0.0
11
183.7500
21
80.8553
31
0.0
0
LINE
8
CUT
10
183.7500
20
80.8553
30
0.0
11
157.5000
21
79.8634
31
0.0
0
LINE
8
CUT
10
157.5000
20
79.8634
30
0.0
11
131.2500
21
78.7233
31
0.0
0
LINE
8
CUT
10
131.2500
20
78.7233
30
0.0
11
105.0000
21
77.4218
31
0.0
0
LINE
8
CUT
10
105.0000
20
77.4218
30
0.0
11
78.7500
21
75.9436
31
0.0
0
LINE
8
CUT
10
78.7500
20
75.9436
30
0.0
11
52.5000
21
74.2698
31
0.0
0
LINE
8
CUT
10
52.5000
20
74.2698
30
0.0
11
26.2500
21
72.3774
31
0.0
0
LINE
8
CUT
10
26.2500
20
72.3774
30
0.0
11
0.0000
21
70.2376
31
0.0
0
LINE
8
CUT
10
0.0000
20
70.2376
30
0.0
11
0.0000
21
0.0000
31
0.0
0
LINE
8
CUT
10
0.0000
20
0.0000
30
0.0
11
0.0000
21
0.0000
31
0.0
0
LINE
8
CUT
10
1053.0000
20
0.0000
30
0.0
11
1079.2500
21
0.0000
31
0.0
0
LINE
8
CUT
10
1079.2500
20
0.0000
30
0.0
11
1105.5000
21
0.0000
31
0.0
0
LINE
8
CUT
10
1105.5000
20
0.0000
30
0.0
11
1131.7500
21
0.0000
31
0.0
0
LINE
8
CUT
10
1131.7500
20
0.0000
30
0.0
11
1158.0000
21
0.0000
31
0.0
0
LINE
8
CUT
10
1158.0000
20
0.0000
30
0.0
11
1184.2500
21
0.0000
31
0.0
0
LINE
8
CUT
10
1184.2500
20
0.0000
30
0.0
11
1210.5000
21
0.0000
31
0.0
0
LINE
8
CUT
10
1210.5000
20
0.0000
30
0.0
11
1236.7500
21
0.0000
31
0.0
0
LINE
8
CUT
10
1236.7500
20
0.0000
30
0.0
11
1263.0000
21
0.0000
31
0.0
0
LINE
8
CUT
10
1263.0000
20
0.0000
30
0.0
11
1289.2500
21
0.0000
31
0.0
0
LINE
8
CUT
10
1289.2500
20
0.0000
30
0.0
11
1315.5000
21
0.0000
31
0.0
0
LINE
8
CUT
10
1315.5000
20
0.0000
30
0.0
11
1341.7500
21
0.0000
31
0.0
0
LINE
8
CUT
10
1341.7500
20
0.0000
30
0.0
11
1368.0000
21
0.0000
31
0.0
0
LINE
8
CUT
10
1368.0000
20
0.0000
30
0.0
11
1394.2500
21
0.0000
31
0.0
0
LINE
8
CUT
10
1394.2500
20
0.0000
30
0.0
11
1420.5000
21
0.0000
31
0.0
0
LINE
8
CUT
10
1420.5000
20
0.0000
30
0.0
11
1446.7500
21
0.0000
31
0.0
0
LINE
8
CUT
10
1446.7500
20
0.0000
30
0.0
11
1473.0000
21
0.0000
31
0.0
0
LINE
8
CUT
10
1473.0000
20
0.0000
30
0.0
11
1499.2500
21
0.0000
31
0.0
0
LINE
8
CUT
10
1499.2500
20
0.0000
30
0.0
11
1525.5000
21
0.0000
31
0.0
0
LINE
8
CUT
10
1525.5000
20
0.0000
30
0.0
11
1551.7500
21
0.0000
31
0.0
0
LINE
8
CUT
10
1551.7500
20
0.0000
30
0.0
11
1578.0000
21
0.0000
31
0.0
0
LINE
8
CUT
10
1578.0000
20
0.0000
30
0.0
11
1604.2500
21
0.0000
31
0.0
0
LINE
8
CUT
10
1604.2500
20
0.0000
30
0.0
11
1630.5000
21
0.0000
31
0.0
0
LINE
8
CUT
10
1630.5000
20
0.0000
30
0.0
11
1656.7500
21
0.0000
31
0.0
0
LINE
8
CUT
10
1656.7500
20
0.0000
30
0.0
11
1683.0000
21
0.0000
31
0.0
0
LINE
8
CUT
10
1683.0000
20
0.0000
30
0.0
11
1709.2500
21
0.0000
31
0.0
0
LINE
8
CUT
10
1709.2500
20
0.0000
30
0.0
11
1735.5000
21
0.0000
31
0.0
0
LINE
8
CUT
10
1735.5000
20
0.0000
30
0.0
11
1761.7500
21
0.0000
31
0.0
0
LINE
8
CUT
10
1761.7500
20
0.0000
30
0.0
11
1788.0000
21
0.0000
31
0.0
0
LINE
8
CUT
10
1788.0000
20
0.0000
30
0.0
11
1814.2500
21
0.0000
31
0.0
0
LINE
8
CUT
10
1814.2500
20
0.0000
30
0.0
11
1840.5000
21
0.0000
31
0.0
0
LINE
8
CUT
10
1840.5000
20
0.0000
30
0.0
11
1866.7500
21
0.0000
31
0.0
0
LINE
8
CUT
10
1866.7500
20
0.0000
30
0.0
11
1893.0000
21
0.0000
31
0.0
0
LINE
8
CUT
10
1893.0000
20
0.0000
30
0.0
11
1919.2500
21
0.0000
31
0.0
0
LINE
8
CUT
10
1919.2500
20
0.0000
30
0.0
11
1945.5000
21
0.0000
31
0.0
0
LINE
8
CUT
10
1945.5000
20
0.0000
30
0.0
11
1971.7500
21
0.0000
31
0.0
0
LINE
8
CUT
10
1971.7500
20
0.0000
30
0.0
11
1998.0000
21
0.0000
31
0.0
0
LINE
8
CUT
10
1998.0000
20
0.0000
30
0.0
11
2024.2500
21
0.0000
31
0.0
0
LINE
8
CUT
10
2024.2500
20
0.0000
30
0.0
11
2050.5000
21
0.0000
31
0.0
0
LINE
8
CUT
10
2050.5000
20
0.0000
30
0.0
11
2076.7500
21
0.0000
31
0.0
0
LINE
8
CUT
10
2076.7500
20
0.0000
30
0.0
11
2103.0000
21
0.0000
31
0.0
0
LINE
8
CUT
10
2103.0000
20
0.0000
30
0.0
11
2103.0000
21
41.9911
31
0.0
0
LINE
8
CUT
10
2103.0000
20
41.9911
30
0.0
11
2076.7500
21
46.3864
31
0.0
0
LINE
8
CUT
10
2076.7500
20
46.3864
30
0.0
11
2050.5000
21
50.2938
31
0.0
0
LINE
8
CUT
10
2050.5000
20
50.2938
30
0.0
11
2024.2500
21
53.8075
31
0.0
0
LINE
8
CUT
10
2024.2500
20
53.8075
30
0.0
11
1998.0000
21
56.9915
31
0.0
0
LINE
8
CUT
10
1998.0000
20
56.9915
30
0.0
11
1971.7500
21
59.8921
31
0.0
0
LINE
8
CUT
10
1971.7500
20
59.8921
30
0.0
11
1945.5000
21
62.5435
31
0.0
0
LINE
8
CUT
10
1945.5000
20
62.5435
30
0.0
11
1919.2500
21
64.9721
31
0.0
0
LINE
8
CUT
10
1919.2500
20
64.9721
30
0.0
11
1893.0000
21
67.1986
31
0.0
0
LINE
8
CUT
10
1893.0000
20
67.1986
30
0.0
11
1866.7500
21
69.2395
31
0.0
0
LINE
8
CUT
10
1866.7500
20
69.2395
30
0.0
11
1840.5000
21
71.1081
31
0.0
0
LINE
8
CUT
10
1840.5000
20
71.1081
30
0.0
11
1814.2500
21
72.8152
31
0.0
0
LINE
8
CUT
10
1814.2500
20
72.8152
30
0.0
11
1788.0000
21
74.3698
31
0.0
0
LINE
8
CUT
10
1788.0000
20
74.3698
30
0.0
11
1761.7500
21
75.7791
31
0.0
0
LINE
8
CUT
10
1761.7500
20
75.7791
30
0.0
11
1735.5000
21
77.0491
31
0.0
0
LINE
8
CUT
10
1735.5000
20
77.0491
30
0.0
11
1709.2500
21
78.1846
31
0.0
0
LINE
8
CUT
10
1709.2500
20
78.1846
30
0.0
11
1683.0000
21
79.1892
31
0.0
0
LINE
8
CUT
10
1683.0000
20
79.1892
30
0.0
11
1656.7500
21
80.0658
31
0.0
0
LINE
8
CUT
10
1656.7500
20
80.0658
30
0.0
11
1630.5000
21
80.8164
31
0.0
0
LINE
8
CUT
10
1630.5000
20
80.8164
30
0.0
11
1604.2500
21
81.4418
31
0.0
0
LINE
8
CUT
10
1604.2500
20
81.4418
30
0.0
11
1578.0000
21
81.9419
31
0.0
0
LINE
8
CUT
10
1578.0000
20
81.9419
30
0.0
11
1551.7500
21
82.3154
31
0.0
0
LINE
8
CUT
10
1551.7500
20
82.3154
30
0.0
11
1525.5000
21
82.5588
31
0.0
0
LINE
8
CUT
10
1525.5000
20
82.5588
30
0.0
11
1499.2500
21
82.6641
31
0.0
0
LINE
8
CUT
10
1499.2500
20
82.6641
30
0.0
11
1473.0000
21
82.6539
31
0.0
0
LINE
8
CUT
10
1473.0000
20
82.6539
30
0.0
11
1446.7500
21
82.5888
31
0.0
0
LINE
8
CUT
10
1446.7500
20
82.5888
30
0.0
11
1420.5000
21
82.4549
31
0.0
0
LINE
8
CUT
10
1420.5000
20
82.4549
30
0.0
11
1394.2500
21
82.2418
31
0.0
0
LINE
8
CUT
10
1394.2500
20
82.2418
30
0.0
11
1368.0000
21
81.9412
31
0.0
0
LINE
8
CUT
10
1368.0000
20
81.9412
30
0.0
11
1341.7500
21
81.5453
31
0.0
0
LINE
8
CUT
10
1341.7500
20
81.5453
30
0.0
11
1315.5000
21
81.0466
31
0.0
0
LINE
8
CUT
10
1315.5000
20
81.0466
30
0.0
11
1289.2500
21
80.4376
31
0.0
0
LINE
8
CUT
10
1289.2500
20
80.4376
30
0.0
11
1263.0000
21
79.7100
31
0.0
0
LINE
8
CUT
10
1263.0000
20
79.7100
30
0.0
11
1236.7500
21
78.8553
31
0.0
0
LINE
8
CUT
10
1236.7500
20
78.8553
30
0.0
11
1210.5000
21
77.8634
31
0.0
0
LINE
8
CUT
10
1210.5000
20
77.8634
30
0.0
11
1184.2500
21
76.7233
31
0.0
0
LINE
8
CUT
10
1184.2500
20
76.7233
30
0.0
11
1158.0000
21
75.4218
31
0.0
0
LINE
8
CUT
10
1158.0000
20
75.4218
30
0.0
11
1131.7500
21
73.9436
31
0.0
0
LINE
8
CUT
10
1131.7500
20
73.9436
30
0.0
11
1105.5000
21
72.2698
31
0.0
0
LINE
8
CUT
10
1105.5000
20
72.2698
30
0.0
11
1079.2500
21
70.3774
31
0.0
0
LINE
8
CUT
10
1079.2500
20
70.3774
30
0.0
11
1053.0000
21
68.2376
31
0.0
0
LINE
8
CUT
10
1053.0000
20
68.2376
30
0.0
11
1053.0000
21
0.0000
31
0.0
0
LINE
8
CUT
10
1053.0000
20
0.0000
30
0.0
11
1053.0000
21
0.0000
31
0.0
0
LINE
8
CUT
10
0.0000
20
87.6641
30
0.0
11
26.2500
21
87.6641
31
0.0
0
LINE
8
CUT
10
26.2500
20
87.6641
30
0.0
11
52.5000
21
87.6641
31
0.0
0
LINE
8
CUT
10
52.5000
20
87.6641
30
0.0
11
78.7500
21
87.6641
31
0.0
0
LINE
8
CUT
10
78.7500
20
87.6641
30
0.0
11
105.0000
21
87.6641
31
0.0
0
LINE
8
CUT
10
105.0000
20
87.6641
30
0.0
11
131.2500
21
87.6641
31
0.0
0
LINE
8
CUT
10
131.2500
20
87.6641
30
0.0
11
157.5000
21
87.6641
31
0.0
0
LINE
8
CUT
10
157.5000
20
87.6641
30
0.0
11
183.7500
21
87.6641
31
0.0
0
LINE
8
CUT
10
183.7500
20
87.6641
30
0.0
11
210.0000
21
87.6641
31
0.0
0
LINE
8
CUT
10
210.0000
20
87.6641
30
0.0
11
236.2500
21
87.6641
31
0.0
0
LINE
8
CUT
10
236.2500
20
87.6641
30
0.0
11
262.5000
21
87.6641
31
0.0
0
LINE
8
CUT
10
262.5000
20
87.6641
30
0.0
11
288.7500
21
87.6641
31
0.0
0
LINE
8
CUT
10
288.7500
20
87.6641
30
0.0
11
315.0000
21
87.6641
31
0.0
0
LINE
8
CUT
10
315.0000
20
87.6641
30
0.0
11
341.2500
21
87.6641
31
0.0
0
LINE
8
CUT
10
341.2500
20
87.6641
30
0.0
11
367.5000
21
87.6641
31
0.0
0
LINE
8
CUT
10
367.5000
20
87.6641
30
0.0
11
393.7500
21
87.6641
31
0.0
0
LINE
8
CUT
10
393.7500
20
87.6641
30
0.0
11
420.0000
21
87.6641
31
0.0
0
LINE
8
CUT
10
420.0000
20
87.6641
30
0.0
11
446.2500
21
87.6641
31
0.0
0
LINE
8
CUT
10
446.2500
20
87.6641
30
0.0
11
472.5000
21
87.6641
31
0.0
0
LINE
8
CUT
10
472.5000
20
87.6641
30
0.0
11
498.7500
21
87.6641
31
0.0
0
LINE
8
CUT
10
498.7500
20
87.6641
30
0.0
11
525.0000
21
87.6641
31
0.0
0
LINE
8
CUT
10
525.0000
20
87.6641
30
0.0
11
551.2500
21
87.6641
31
0.0
0
LINE
8
CUT
10
551.2500
20
87.6641
30
0.0
11
577.5000
21
87.6641
31
0.0
0
LINE
8
CUT
10
577.5000
20
87.6641
30
0.0
11
603.7500
21
87.6641
31
0.0
0
LINE
8
CUT
10
603.7500
20
87.6641
30
0.0
11
630.0000
21
87.6641
31
0.0
0
LINE
8
CUT
10
630.0000
20
87.6641
30
0.0
11
656.2500
21
87.6641
31
0.0
0
LINE
8
CUT
10
656.2500
20
87.6641
30
0.0
11
682.5000
21
87.6641
31
0.0
0
LINE
8
CUT
10
682.5000
20
87.6641
30
0.0
11
708.7500
21
87.6641
31
0.0
0
LINE
8
CUT
10
708.7500
20
87.6641
30
0.0
11
735.0000
21
87.6641
31
0.0
0
LINE
8
CUT
10
735.0000
20
87.6641
30
0.0
11
761.2500
21
87.6641
31
0.0
0
LINE
8
CUT
10
761.2500
20
87.6641
30
0.0
11
787.5000
21
87.6641
31
0.0
0
LINE
8
CUT
10
787.5000
20
87.6641
30
0.0
11
813.7500
21
87.6641
31
0.0
0
LINE
8
CUT
10
813.7500
20
87.6641
30
0.0
11
840.0000
21
87.6641
31
0.0
0
LINE
8
CUT
10
840.0000
20
87.6641
30
0.0
11
866.2500
21
87.6641
31
0.0
0
LINE
8
CUT
10
866.2500
20
87.6641
30
0.0
11
892.5000
21
87.6641
31
0.0
0
LINE
8
CUT
10
892.5000
20
87.6641
30
0.0
11
918.7500
21
87.6641
31
0.0
0
LINE
8
CUT
10
918.7500
20
87.6641
30
0.0
11
945.0000
21
87.6641
31
0.0
0
LINE
8
CUT
10
945.0000
20
87.6641
30
0.0
11
971.2500
21
87.6641
31
0.0
0
LINE
8
CUT
10
971.2500
20
87.6641
30
0.0
11
997.5000
21
87.6641
31
0.0
0
LINE
8
CUT
10
997.5000
20
87.6641
30
0.0
11
1023.7500
21
87.6641
31
0.0
0
LINE
8
CUT
10
1023.7500
20
87.6641
30
0.0
11
1050.0000
21
87.6641
31
0.0
0
LINE
8
CUT
10
1050.0000
20
87.6641
30
0.0
11
1050.0000
21
136.7556
31
0.0
0
LINE
8
CUT
10
1050.0000
20
136.7556
30
0.0
11
1023.7500
21
142.6742
31
0.0
0
LINE
8
CUT
10
1023.7500
20
142.6742
30
0.0
11
997.5000
21
147.9919
31
0.0
0
LINE
8
CUT
10
997.5000
20
147.9919
30
0.0
11
971.2500
21
152.9355
31
0.0
0
LINE
8
CUT
10
971.2500
20
152.9355
30
0.0
11
945.0000
21
157.4242
31
0.0
0
LINE
8
CUT
10
945.0000
20
157.4242
30
0.0
11
918.7500
21
161.5470
31
0.0
0
LINE
8
CUT
10
918.7500
20
161.5470
30
0.0
11
892.5000
21
165.4219
31
0.0
0
LINE
8
CUT
10
892.5000
20
165.4219
30
0.0
11
866.2500
21
168.9622
31
0.0
0
LINE
8
CUT
10
866.2500
20
168.9622
30
0.0
11
840.0000
21
172.2236
31
0.0
0
LINE
8
CUT
10
840.0000
20
172.2236
30
0.0
11
813.7500
21
175.2064
31
0.0
0
LINE
8
CUT
10
813.7500
20
175.2064
30
0.0
11
787.5000
21
177.9709
31
0.0
0
LINE
8
CUT
10
787.5000
20
177.9709
30
0.0
11
761.2500
21
180.5438
31
0.0
0
LINE
8
CUT
10
761.2500
20
180.5438
30
0.0
11
735.0000
21
182.8848
31
0.0
0
LINE
8
CUT
10
735.0000
20
182.8848
30
0.0
11
708.7500
21
184.9940
31
0.0
0
LINE
8
CUT
10
708.7500
20
184.9940
30
0.0
11
682.5000
21
186.8880
31
0.0
0
LINE
8
CUT
10
682.5000
20
186.8880
30
0.0
11
656.2500
21
188.5712
31
0.0
0
LINE
8
CUT
10
656.2500
20
188.5712
30
0.0
11
630.0000
21
190.0450
31
0.0
0
LINE
8
CUT
10
630.0000
20
190.0450
30
0.0
11
603.7500
21
191.3086
31
0.0
0
LINE
8
CUT
10
603.7500
20
191.3086
30
0.0
11
577.5000
21
192.3578
31
0.0
0
LINE
8
CUT
10
577.5000
20
192.3578
30
0.0
11
551.2500
21
193.1781
31
0.0
0
LINE
8
CUT
10
551.2500
20
193.1781
30
0.0
11
525.0000
21
193.7488
31
0.0
0
LINE
8
CUT
10
525.0000
20
193.7488
30
0.0
11
498.7500
21
194.1588
31
0.0
0
LINE
8
CUT
10
498.7500
20
194.1588
30
0.0
11
472.5000
21
194.4254
31
0.0
0
LINE
8
CUT
10
472.5000
20
194.4254
30
0.0
11
446.2500
21
194.5406
31
0.0
0
LINE
8
CUT
10
446.2500
20
194.5406
30
0.0
11
420.0000
21
194.5294
31
0.0
0
LINE
8
CUT
10
420.0000
20
194.5294
30
0.0
11
393.7500
21
194.4581
31
0.0
0
LINE
8
CUT
10
393.7500
20
194.4581
30
0.0
11
367.5000
21
194.3115
31
0.0
0
LINE
8
CUT
10
367.5000
20
194.3115
30
0.0
11
341.2500
21
194.0781
31
0.0
0
LINE
8
CUT
10
341.2500
20
194.0781
30
0.0
11
315.0000
21
193.7480
31
0.0
0
LINE
8
CUT
10
315.0000
20
193.7480
30
0.0
11
288.7500
21
193.3115
31
0.0
0
LINE
8
CUT
10
288.7500
20
193.3115
30
0.0
11
262.5000
21
192.7585
31
0.0
0
LINE
8
CUT
10
262.5000
20
192.7585
30
0.0
11
236.2500
21
192.0799
31
0.0
0
LINE
8
CUT
10
236.2500
20
192.0799
30
0.0
11
210.0000
21
191.2660
31
0.0
0
LINE
8
CUT
10
210.0000
20
191.2660
30
0.0
11
183.7500
21
190.3048
31
0.0
0
LINE
8
CUT
10
183.7500
20
190.3048
30
0.0
11
157.5000
21
189.1820
31
0.0
0
LINE
8
CUT
10
157.5000
20
189.1820
30
0.0
11
131.2500
21
187.8786
31
0.0
0
LINE
8
CUT
10
131.2500
20
187.8786
30
0.0
11
105.0000
21
186.3720
31
0.0
0
LINE
8
CUT
10
105.0000
20
186.3720
30
0.0
11
78.7500
21
184.6307
31
0.0
0
LINE
8
CUT
10
78.7500
20
184.6307
30
0.0
11
52.5000
21
182.6087
31
0.0
0
LINE
8
CUT
10
52.5000
20
182.6087
30
0.0
11
26.2500
21
180.2716
31
0.0
0
LINE
8
CUT
10
26.2500
20
180.2716
30
0.0
11
0.0000
21
177.6729
31
0.0
0
LINE
8
CUT
10
0.0000
20
177.6729
30
0.0
11
0.0000
21
87.6641
31
0.0
0
LINE
8
CUT
10
0.0000
20
87.6641
30
0.0
11
0.0000
21
87.6641
31
0.0
0
LINE
8
CUT
10
1053.0000
20
87.6641
30
0.0
11
1079.2500
21
87.6641
31
0.0
0
LINE
8
CUT
10
1079.2500
20
87.6641
30
0.0
11
1105.5000
21
87.6641
31
0.0
0
LINE
8
CUT
10
1105.5000
20
87.6641
30
0.0
11
1131.7500
21
87.6641
31
0.0
0
LINE
8
CUT
10
1131.7500
20
87.6641
30
0.0
11
1158.0000
21
87.6641
31
0.0
0
LINE
8
CUT
10
1158.0000
20
87.6641
30
0.0
11
1184.2500
21
87.6641
31
0.0
0
LINE
8
CUT
10
1184.2500
20
87.6641
30
0.0
11
1210.5000
21
87.6641
31
0.0
0
LINE
8
CUT
10
1210.5000
20
87.6641
30
0.0
11
1236.7500
21
87.6641
31
0.0
0
LINE
8
CUT
10
1236.7500
20
87.6641
30
0.0
11
1263.0000
21
87.6641
31
0.0
0
LINE
8
CUT
10
1263.0000
20
87.6641
30
0.0
11
1289.2500
21
87.6641
31
0.0
0
LINE
8
CUT
10
1289.2500
20
87.6641
30
0.0
11
1315.5000
21
87.6641
31
0.0
0
LINE
8
CUT
10
1315.5000
20
87.6641
30
0.0
11
1341.7500
21
87.6641
31
0.0
0
LINE
8
CUT
10
1341.7500
20
87.6641
30
0.0
11
1368.0000
21
87.6641
31
0.0
0
LINE
8
CUT
10
1368.0000
20
87.6641
30
0.0
11
1394.2500
21
87.6641
31
0.0
0
LINE
8
CUT
10
1394.2500
20
87.6641
30
0.0
11
1420.5000
21
87.6641
31
0.0
0
LINE
8
CUT
10
1420.5000
20
87.6641
30
0.0
11
1446.7500
21
87.6641
31
0.0
0
LINE
8
CUT
10
1446.7500
20
87.6641
30
0.0
11
1473.0000
21
87.6641
31
0.0
0
LINE
8
CUT
10
1473.0000
20
87.6641
30
0.0
11
1499.2500
21
87.6641
31
0.0
0
LINE
8
CUT
10
1499.2500
20
87.6641
30
0.0
11
1525.5000
21
87.6641
31
0.0
0
LINE
8
CUT
10
1525.5000
20
87.6641
30
0.0
11
1551.7500
21
87.6641
31
0.0
0
LINE
8
CUT
10
1551.7500
20
87.6641
30
0.0
11
1578.0000
21
87.6641
31
0.0
0
LINE
8
CUT
10
1578.0000
20
87.6641
30
0.0
11
1604.2500
21
87.6641
31
0.0
0
LINE
8
CUT
10
1604.2500
20
87.6641
30
0.0
11
1630.5000
21
87.6641
31
0.0
0
LINE
8
CUT
10
1630.5000
20
87.6641
30
0.0
11
1656.7500
21
87.6641
31
0.0
0
LINE
8
CUT
10
1656.7500
20
87.6641
30
0.0
11
1683.0000
21
87.6641
31
0.0
0
LINE
8
CUT
10
1683.0000
20
87.6641
30
0.0
11
1709.2500
21
87.6641
31
0.0
0
LINE
8
CUT
10
1709.2500
20
87.6641
30
0.0
11
1735.5000
21
87.6641
31
0.0
0
LINE
8
CUT
10
1735.5000
20
87.6641
30
0.0
11
1761.7500
21
87.6641
31
0.0
0
LINE
8
CUT
10
1761.7500
20
87.6641
30
0.0
11
1788.0000
21
87.6641
31
0.0
0
LINE
8
CUT
10
1788.0000
20
87.6641
30
0.0
11
1814.2500
21
87.6641
31
0.0
0
LINE
8
CUT
10
1814.2500
20
87.6641
30
0.0
11
1840.5000
21
87.6641
31
0.0
0
LINE
8
CUT
10
1840.5000
20
87.6641
30
0.0
11
1866.7500
21
87.6641
31
0.0
0
LINE
8
CUT
10
1866.7500
20
87.6641
30
0.0
11
1893.0000
21
87.6641
31
0.0
0
LINE
8
CUT
10
1893.0000
20
87.6641
30
0.0
11
1919.2500
21
87.6641
31
0.0
0
LINE
8
CUT
10
1919.2500
20
87.6641
30
0.0
11
1945.5000
21
87.6641
31
0.0
0
LINE
8
CUT
10
1945.5000
20
87.6641
30
0.0
11
1971.7500
21
87.6641
31
0.0
0
LINE
8
CUT
10
1971.7500
20
87.6641
30
0.0
11
1998.0000
21
87.6641
31
0.0
0
LINE
8
CUT
10
1998.0000
20
87.6641
30
0.0
11
2024.2500
21
87.6641
31
0.0
0
LINE
8
CUT
10
2024.2500
20
87.6641
30
0.0
11
2050.5000
21
87.6641
31
0.0
0
LINE
8
CUT
10
2050.5000
20
87.6641
30
0.0
11
2076.7500
21
87.6641
31
0.0
0
LINE
8
CUT
10
2076.7500
20
87.6641
30
0.0
11
2103.0000
21
87.6641
31
0.0
0
LINE
8
CUT
10
2103.0000
20
87.6641
30
0.0
11
2103.0000
21
131.6552
31
0.0
0
LINE
8
CUT
10
2103.0000
20
131.6552
30
0.0
11
2076.7500
21
136.0505
31
0.0
0
LINE
8
CUT
10
2076.7500
20
136.0505
30
0.0
11
2050.5000
21
139.9579
31
0.0
0
LINE
8
CUT
10
2050.5000
20
139.9579
30
0.0
11
2024.2500
21
143.4716
31
0.0
0
LINE
8
CUT
10
2024.2500
20
143.4716
30
0.0
11
1998.0000
21
146.6556
31
0.0
0
LINE
8
CUT
10
1998.0000
20
146.6556
30
0.0
11
1971.7500
21
149.5562
31
0.0
0
LINE
8
CUT
10
1971.7500
20
149.5562
30
0.0
11
1945.5000
21
152.2076
31
0.0
0
LINE
8
CUT
10
1945.5000
20
152.2076
30
0.0
11
1919.2500
21
154.6362
31
0.0
0
LINE
8
CUT
10
1919.2500
20
154.6362
30
0.0
11
1893.0000
21
156.8627
31
0.0
0
LINE
8
CUT
10
1893.0000
20
156.8627
30
0.0
11
1866.7500
21
158.9036
31
0.0
0
LINE
8
CUT
10
1866.7500
20
158.9036
30
0.0
11
1840.5000
21
160.7722
31
0.0
0
LINE
8
CUT
10
1840.5000
20
160.7722
30
0.0
11
1814.2500
21
162.4793
31
0.0
0
LINE
8
CUT
10
1814.2500
20
162.4793
30
0.0
11
1788.0000
21
164.0339
31
0.0
0
LINE
8
CUT
10
1788.0000
20
164.0339
30
0.0
11
1761.7500
21
165.4433
31
0.0
0
LINE
8
CUT
10
1761.7500
20
165.4433
30
0.0
11
1735.5000
21
166.7133
31
0.0
0
LINE
8
CUT
10
1735.5000
20
166.7133
30
0.0
11
1709.2500
21
167.8487
31
0.0
0
LINE
8
CUT
10
1709.2500
20
167.8487
30
0.0
11
1683.0000
21
168.8533
31
0.0
0
LINE
8
CUT
10
1683.0000
20
168.8533
30
0.0
11
1656.7500
21
169.7300
31
0.0
0
LINE
8
CUT
10
1656.7500
20
169.7300
30
0.0
11
1630.5000
21
170.4805
31
0.0
0
LINE
8
CUT
10
1630.5000
20
170.4805
30
0.0
11
1604.2500
21
171.1059
31
0.0
0
LINE
8
CUT
10
1604.2500
20
171.1059
30
0.0
11
1578.0000
21
171.6060
31
0.0
0
LINE
8
CUT
10
1578.0000
20
171.6060
30
0.0
11
1551.7500
21
171.9795
31
0.0
0
LINE
8
CUT
10
1551.7500
20
171.9795
30
0.0
11
1525.5000
21
172.2230
31
0.0
0
LINE
8
CUT
10
1525.5000
20
172.2230
30
0.0
11
1499.2500
21
172.3282
31
0.0
0
LINE
8
CUT
10
1499.2500
20
172.3282
30
0.0
11
1473.0000
21
172.3180
31
0.0
0
LINE
8
CUT
10
1473.0000
20
172.3180
30
0.0
11
1446.7500
21
172.2529
31
0.0
0
LINE
8
CUT
10
1446.7500
20
172.2529
30
0.0
11
1420.5000
21
172.1190
31
0.0
0
LINE
8
CUT
10
1420.5000
20
172.1190
30
0.0
11
1394.2500
21
171.9060
31
0.0
0
LINE
8
CUT
10
1394.2500
20
171.9060
30
0.0
11
1368.0000
21
171.6053
31
0.0
0
LINE
8
CUT
10
1368.0000
20
171.6053
30
0.0
11
1341.7500
21
171.2094
31
0.0
0
LINE
8
CUT
10
1341.7500
20
171.2094
30
0.0
11
1315.5000
21
170.7107
31
0.0
0
LINE
8
CUT
10
1315.5000
20
170.7107
30
0.0
11
1289.2500
21
170.1017
31
0.0
0
LINE
8
CUT
10
1289.2500
20
170.1017
30
0.0
11
1263.0000
21
169.3742
31
0.0
0
LINE
8
CUT
10
1263.0000
20
169.3742
30
0.0
11
1236.7500
21
168.5194
31
0.0
0
LINE
8
CUT
10
1236.7500
20
168.5194
30
0.0
11
1210.5000
21
167.5276
31
0.0
0
LINE
8
CUT
10
1210.5000
20
167.5276
30
0.0
11
1184.2500
21
166.3874
31
0.0
0
LINE
8
CUT
10
1184.2500
20
166.3874
30
0.0
11
1158.0000
21
165.0860
31
0.0
0
LINE
8
CUT
10
1158.0000
20
165.0860
30
0.0
11
1131.7500
21
163.6077
31
0.0
0
LINE
8
CUT
10
1131.7500
20
163.6077
30
0.0
11
1105.5000
21
161.9339
31
0.0
0
LINE
8
CUT
10
1105.5000
20
161.9339
30
0.0
11
1079.2500
21
160.0416
31
0.0
0
LINE
8
CUT
10
1079.2500
20
160.0416
30
0.0
11
1053.0000
21
157.9017
31
0.0
0
LINE
8
CUT
10
1053.0000
20
157.9017
30
0.0
11
1053.0000
21
87.6641
31
0.0
0
LINE
8
CUT
10
1053.0000
20
87.6641
30
0.0
11
1053.0000
21
87.6641
31
0.0
0
LINE
8
CUT
10
0.0000
20
197.5406
30
0.0
11
26.2500
21
197.5406
31
0.0
0
LINE
8
CUT
10
26.2500
20
197.5406
30
0.0
11
52.5000
21
197.5406
31
0.0
0
LINE
8
CUT
10
52.5000
20
197.5406
30
0.0
11
78.7500
21
197.5406
31
0.0
0
LINE
8
CUT
10
78.7500
20
197.5406
30
0.0
11
105.0000
21
197.5406
31
0.0
0
LINE
8
CUT
10
105.0000
20
197.5406
30
0.0
11
131.2500
21
197.5406
31
0.0
0
LINE
8
CUT
10
131.2500
20
197.5406
30
0.0
11
157.5000
21
197.5406
31
0.0
0
LINE
8
CUT
10
157.5000
20
197.5406
30
0.0
11
183.7500
21
197.5406
31
0.0
0
LINE
8
CUT
10
183.7500
20
197.5406
30
0.0
11
210.0000
21
197.5406
31
0.0
0
LINE
8
CUT
10
210.0000
20
197.5406
30
0.0
11
236.2500
21
197.5406
31
0.0
0
LINE
8
CUT
10
236.2500
20
197.5406
30
0.0
11
262.5000
21
197.5406
31
0.0
0
LINE
8
CUT
10
262.5000
20
197.5406
30
0.0
11
288.7500
21
197.5406
31
0.0
0
LINE
8
CUT
10
288.7500
20
197.5406
30
0.0
11
315.0000
21
197.5406
31
0.0
0
LINE
8
CUT
10
315.0000
20
197.5406
30
0.0
11
341.2500
21
197.5406
31
0.0
0
LINE
8
CUT
10
341.2500
20
197.5406
30
0.0
11
367.5000
21
197.5406
31
0.0
0
LINE
8
CUT
10
367.5000
20
197.5406
30
0.0
11
393.7500
21
197.5406
31
0.0
0
LINE
8
CUT
10
393.7500
20
197.5406
30
0.0
11
420.0000
21
197.5406
31
0.0
0
LINE
8
CUT
10
420.0000
20
197.5406
30
0.0
11
446.2500
21
197.5406
31
0.0
0
LINE
8
CUT
10
446.2500
20
197.5406
30
0.0
11
472.5000
21
197.5406
31
0.0
0
LINE
8
CUT
10
472.5000
20
197.5406
30
0.0
11
498.7500
21
197.5406
31
0.0
0
LINE
8
CUT
10
498.7500
20
197.5406
30
0.0
11
525.0000
21
197.5406
31
0.0
0
LINE
8
CUT
10
525.0000
20
197.5406
30
0.0
11
551.2500
21
197.5406
31
0.0
0
LINE
8
CUT
10
551.2500
20
197.5406
30
0.0
11
577.5000
21
197.5406
31
0.0
0
LINE
8
CUT
10
577.5000
20
197.5406
30
0.0
11
603.7500
21
197.5406
31
0.0
0
LINE
8
CUT
10
603.7500
20
197.5406
30
0.0
11
630.0000
21
197.5406
31
0.0
0
LINE
8
CUT
10
630.0000
20
197.5406
30
0.0
11
656.2500
21
197.5406
31
0.0
0
LINE
8
CUT
10
656.2500
20
197.5406
30
0.0
11
682.5000
21
197.5406
31
0.0
0
LINE
8
CUT
10
682.5000
20
197.5406
30
0.0
11
708.7500
21
197.5406
31
0.0
0
LINE
8
CUT
10
708.7500
20
197.5406
30
0.0
11
735.0000
21
197.5406
31
0.0
0
LINE
8
CUT
10
735.0000
20
197.5406
30
0.0
11
761.2500
21
197.5406
31
0.0
0
LINE
8
CUT
10
761.2500
20
197.5406
30
0.0
11
787.5000
21
197.5406
31
0.0
0
LINE
8
CUT
10
787.5000
20
197.5406
30
0.0
11
813.7500
21
197.5406
31
0.0
0
LINE
8
CUT
10
813.7500
20
197.5406
30
0.0
11
840.0000
21
197.5406
31
0.0
0
LINE
8
CUT
10
840.0000
20
197.5406
30
0.0
11
866.2500
21
197.5406
31
0.0
0
LINE
8
CUT
10
866.2500
20
197.5406
30
0.0
11
892.5000
21
197.5406
31
0.0
0
LINE
8
CUT
10
892.5000
20
197.5406
30
0.0
11
918.7500
21
197.5406
31
0.0
0
LINE
8
CUT
10
918.7500
20
197.5406
30
0.0
11
945.0000
21
197.5406
31
0.0
0
LINE
8
CUT
10
945.0000
20
197.5406
30
0.0
11
971.2500
21
197.5406
31
0.0
0
LINE
8
CUT
10
971.2500
20
197.5406
30
0.0
11
997.5000
21
197.5406
31
0.0
0
LINE
8
CUT
10
997.5000
20
197.5406
30
0.0
11
1023.7500
21
197.5406
31
0.0
0
LINE
8
CUT
10
1023.7500
20
197.5406
30
0.0
11
1050.0000
21
197.5406
31
0.0
0
LINE
8
CUT
10
1050.0000
20
197.5406
30
0.0
11
1050.0000
21
239.5317
31
0.0
0
LINE
8
CUT
10
1050.0000
20
239.5317
30
0.0
11
1023.7500
21
243.9270
31
0.0
0
LINE
8
CUT
10
1023.7500
20
243.9270
30
0.0
11
997.5000
21
247.8344
31
0.0
0
LINE
8
CUT
10
997.5000
20
247.8344
30
0.0
11
971.2500
21
251.3481
31
0.0
0
LINE
8
CUT
10
971.2500
20
251.3481
30
0.0
11
945.0000
21
254.5321
31
0.0
0
LINE
8
CUT
10
945.0000
20
254.5321
30
0.0
11
918.7500
21
257.4327
31
0.0
0
LINE
8
CUT
10
918.7500
20
257.4327
30
0.0
11
892.5000
21
260.0841
31
0.0
0
LINE
8
CUT
10
892.5000
20
260.0841
30
0.0
11
866.2500
21
262.5127
31
0.0
0
LINE
8
CUT
10
866.2500
20
262.5127
30
0.0
11
840.0000
21
264.7392
31
0.0
0
LINE
8
CUT
10
840.0000
20
264.7392
30
0.0
11
813.7500
21
266.7801
31
0.0
0
LINE
8
CUT
10
813.7500
20
266.7801
30
0.0
11
787.5000
21
268.6487
31
0.0
0
LINE
8
CUT
10
787.5000
20
268.6487
30
0.0
11
761.2500
21
270.3558
31
0.0
0
LINE
8
CUT
10
761.2500
20
270.3558
30
0.0
11
735.0000
21
271.9104
31
0.0
0
LINE
8
CUT
10
735.0000
20
271.9104
30
0.0
11
708.7500
21
273.3197
31
0.0
0
LINE
8
CUT
10
708.7500
20
273.3197
30
0.0
11
682.5000
21
274.5897
31
0.0
0
LINE
8
CUT
10
682.5000
20
274.5897
30
0.0
11
656.2500
21
275.7252
31
0.0
0
LINE
8
CUT
10
656.2500
20
275.7252
30
0.0
11
630.0000
21
276.7298
31
0.0
0
LINE
8
CUT
10
630.0000
20
276.7298
30
0.0
11
603.7500
21
277.6064
31
0.0
0
LINE
8
CUT
10
603.7500
20
277.6064
30
0.0
11
577.5000
21
278.3570
31
0.0
0
LINE
8
CUT
10
577.5000
20
278.3570
30
0.0
11
551.2500
21
278.9824
31
0.0
0
LINE
8
CUT
10
551.2500
20
278.9824
30
0.0
11
525.0000
21
279.4825
31
0.0
0
LINE
8
CUT
10
525.0000
20
279.4825
30
0.0
11
498.7500
21
279.8560
31
0.0
0
LINE
8
CUT
10
498.7500
20
279.8560
30
0.0
11
472.5000
21
280.0994
31
0.0
0
LINE
8
CUT
10
472.5000
20
280.0994
30
0.0
11
446.2500
21
280.2047
31
0.0
0
LINE
8
CUT
10
446.2500
20
280.2047
30
0.0
11
420.0000
21
280.1945
31
0.0
0
LINE
8
CUT
10
420.0000
20
280.1945
30
0.0
11
393.7500
21
280.1294
31
0.0
0
LINE
8
CUT
10
393.7500
20
280.1294
30
0.0
11
367.5000
21
279.9955
31
0.0
0
LINE
8
CUT
10
367.5000
20
279.9955
30
0.0
11
341.2500
21
279.7824
31
0.0
0
LINE
8
CUT
10
341.2500
20
279.7824
30
0.0
11
315.0000
21
279.4818
31
0.0
0
LINE
8
CUT
10
315.0000
20
279.4818
30
0.0
11
288.7500
21
279.0859
31
0.0
0
LINE
8
CUT
10
288.7500
20
279.0859
30
0.0
11
262.5000
21
278.5872
31
0.0
0
LINE
8
CUT
10
262.5000
20
278.5872
30
0.0
11
236.2500
21
277.9782
31
0.0
0
LINE
8
CUT
10
236.2500
20
277.9782
30
0.0
11
210.0000
21
277.2506
31
0.0
0
LINE
8
CUT
10
210.0000
20
277.2506
30
0.0
11
183.7500
21
276.3959
31
0.0
0
LINE
8
CUT
10
183.7500
20
276.3959
30
0.0
11
157.5000
21
275.4040
31
0.0
0
LINE
8
CUT
10
157.5000
20
275.4040
30
0.0
11
131.2500
21
274.2639
31
0.0
0
LINE
8
CUT
10
131.2500
20
274.2639
30
0.0
11
105.0000
21
272.9624
31
0.0
0
LINE
8
CUT
10
105.0000
20
272.9624
30
0.0
11
78.7500
21
271.4842
31
0.0
0
LINE
8
CUT
10
78.7500
20
271.4842
30
0.0
11
52.5000
21
269.8104
31
0.0
0
LINE
8
CUT
10
52.5000
20
269.8104
30
0.0
11
26.2500
21
267.9180
31
0.0
0
LINE
8
CUT
10
26.2500
20
267.9180
30
0.0
11
0.0000
21
265.7782
31
0.0
0
LINE
8
CUT
10
0.0000
20
265.7782
30
0.0
11
0.0000
21
197.5406
31
0.0
0
LINE
8
CUT
10
0.0000
20
197.5406
30
0.0
11
0.0000
21
197.5406
31
0.0
0
LINE
8
CUT
10
1053.0000
20
197.5406
30
0.0
11
1079.2500
21
197.5406
31
0.0
0
LINE
8
CUT
10
1079.2500
20
197.5406
30
0.0
11
1105.5000
21
197.5406
31
0.0
0
LINE
8
CUT
10
1105.5000
20
197.5406
30
0.0
11
1131.7500
21
197.5406
31
0.0
0
LINE
8
CUT
10
1131.7500
20
197.5406
30
0.0
11
1158.0000
21
197.5406
31
0.0
0
LINE
8
CUT
10
1158.0000
20
197.5406
30
0.0
11
1184.2500
21
197.5406
31
0.0
0
LINE
8
CUT
10
1184.2500
20
197.5406
30
0.0
11
1210.5000
21
197.5406
31
0.0
0
LINE
8
CUT
10
1210.5000
20
197.5406
30
0.0
11
1236.7500
21
197.5406
31
0.0
0
LINE
8
CUT
10
1236.7500
20
197.5406
30
0.0
11
1263.0000
21
197.5406
31
0.0
0
LINE
8
CUT
10
1263.0000
20
197.5406
30
0.0
11
1289.2500
21
197.5406
31
0.0
0
LINE
8
CUT
10
1289.2500
20
197.5406
30
0.0
11
1315.5000
21
197.5406
31
0.0
0
LINE
8
CUT
10
1315.5000
20
197.5406
30
0.0
11
1341.7500
21
197.5406
31
0.0
0
LINE
8
CUT
10
1341.7500
20
197.5406
30
0.0
11
1368.0000
21
197.5406
31
0.0
0
LINE
8
CUT
10
1368.0000
20
197.5406
30
0.0
11
1394.2500
21
197.5406
31
0.0
0
LINE
8
CUT
10
1394.2500
20
197.5406
30
0.0
11
1420.5000
21
197.5406
31
0.0
0
LINE
8
CUT
10
1420.5000
20
197.5406
30
0.0
11
1446.7500
21
197.5406
31
0.0
0
LINE
8
CUT
10
1446.7500
20
197.5406
30
0.0
11
1473.0000
21
197.5406
31
0.0
0
LINE
8
CUT
10
1473.0000
20
197.5406
30
0.0
11
1499.2500
21
197.5406
31
0.0
0
LINE
8
CUT
10
1499.2500
20
197.5406
30
0.0
11
1525.5000
21
197.5406
31
0.0
0
LINE
8
CUT
10
1525.5000
20
197.5406
30
0.0
11
1551.7500
21
197.5406
31
0.0
0
LINE
8
CUT
10
1551.7500
20
197.5406
30
0.0
11
1578.0000
21
197.5406
31
0.0
0
LINE
8
CUT
10
1578.0000
20
197.5406
30
0.0
11
1604.2500
21
197.5406
31
0.0
0
LINE
8
CUT
10
1604.2500
20
197.5406
30
0.0
11
1630.5000
21
197.5406
31
0.0
0
LINE
8
CUT
10
1630.5000
20
197.5406
30
0.0
11
1656.7500
21
197.5406
31
0.0
0
LINE
8
CUT
10
1656.7500
20
197.5406
30
0.0
11
1683.0000
21
197.5406
31
0.0
0
LINE
8
CUT
10
1683.0000
20
197.5406
30
0.0
11
1709.2500
21
197.5406
31
0.0
0
LINE
8
CUT
10
1709.2500
20
197.5406
30
0.0
11
1735.5000
21
197.5406
31
0.0
0
LINE
8
CUT
10
1735.5000
20
197.5406
30
0.0
11
1761.7500
21
197.5406
31
0.0
0
LINE
8
CUT
10
1761.7500
20
197.5406
30
0.0
11
1788.0000
21
197.5406
31
0.0
0
LINE
8
CUT
10
1788.0000
20
197.5406
30
0.0
11
1814.2500
21
197.5406
31
0.0
0
LINE
8
CUT
10
1814.2500
20
197.5406
30
0.0
11
1840.5000
21
197.5406
31
0.0
0
LINE
8
CUT
10
1840.5000
20
197.5406
30
0.0
11
1866.7500
21
197.5406
31
0.0
0
LINE
8
CUT
10
1866.7500
20
197.5406
30
0.0
11
1893.0000
21
197.5406
31
0.0
0
LINE
8
CUT
10
1893.0000
20
197.5406
30
0.0
11
1919.2500
21
197.5406
31
0.0
0
LINE
8
CUT
10
1919.2500
20
197.5406
30
0.0
11
1945.5000
21
197.5406
31
0.0
0
LINE
8
CUT
10
1945.5000
20
197.5406
30
0.0
11
1971.7500
21
197.5406
31
0.0
0
LINE
8
CUT
10
1971.7500
20
197.5406
30
0.0
11
1998.0000
21
197.5406
31
0.0
0
LINE
8
CUT
10
1998.0000
20
197.5406
30
0.0
11
2024.2500
21
197.5406
31
0.0
0
LINE
8
CUT
10
2024.2500
20
197.5406
30
0.0
11
2050.5000
21
197.5406
31
0.0
0
LINE
8
CUT
10
2050.5000
20
197.5406
30
0.0
11
2076.7500
21
197.5406
31
0.0
0
LINE
8
CUT
10
2076.7500
20
197.5406
30
0.0
11
2103.0000
21
197.5406
31
0.0
0
LINE
8
CUT
10
2103.0000
20
197.5406
30
0.0
11
2103.0000
21
246.6320
31
0.0
0
LINE
8
CUT
10
2103.0000
20
246.6320
30
0.0
11
2076.7500
21
252.5507
31
0.0
0
LINE
8
CUT
10
2076.7500
20
252.5507
30
0.0
11
2050.5000
21
257.8684
31
0.0
0
LINE
8
CUT
10
2050.5000
20
257.8684
30
0.0
11
2024.2500
21
262.8120
31
0.0
0
LINE
8
CUT
10
2024.2500
20
262.8120
30
0.0
11
1998.0000
21
267.3007
31
0.0
0
LINE
8
CUT
10
1998.0000
20
267.3007
30
0.0
11
1971.7500
21
271.4235
31
0.0
0
LINE
8
CUT
10
1971.7500
20
271.4235
30
0.0
11
1945.5000
21
275.2984
31
0.0
0
LINE
8
CUT
10
1945.5000
20
275.2984
30
0.0
11
1919.2500
21
278.8387
31
0.0
0
LINE
8
CUT
10
1919.2500
20
278.8387
30
0.0
11
1893.0000
21
282.1001
31
0.0
0
LINE
8
CUT
10
1893.0000
20
282.1001
30
0.0
11
1866.7500
21
285.0829
31
0.0
0
LINE
8
CUT
10
1866.7500
20
285.0829
30
0.0
11
1840.5000
21
287.8473
31
0.0
0
LINE
8
CUT
10
1840.5000
20
287.8473
30
0.0
11
1814.2500
21
290.4202
31
0.0
0
LINE
8
CUT
10
1814.2500
20
290.4202
30
0.0
11
1788.0000
21
292.7613
31
0.0
0
LINE
8
CUT
10
1788.0000
20
292.7613
30
0.0
11
1761.7500
21
294.8705
31
0.0
0
LINE
8
CUT
10
1761.7500
20
294.8705
30
0.0
11
1735.5000
21
296.7645
31
0.0
0
LINE
8
CUT
10
1735.5000
20
296.7645
30
0.0
11
1709.2500
21
298.4476
31
0.0
0
LINE
8
CUT
10
1709.2500
20
298.4476
30
0.0
11
1683.0000
21
299.9215
31
0.0
0
LINE
8
CUT
10
1683.0000
20
299.9215
30
0.0
11
1656.7500
21
301.1851
31
0.0
0
LINE
8
CUT
10
1656.7500
20
301.1851
30
0.0
11
1630.5000
21
302.2343
31
0.0
0
LINE
8
CUT
10
1630.5000
20
302.2343
30
0.0
11
1604.2500
21
303.0545
31
0.0
0
LINE
8
CUT
10
1604.2500
20
303.0545
30
0.0
11
1578.0000
21
303.6253
31
0.0
0
LINE
8
CUT
10
1578.0000
20
303.6253
30
0.0
11
1551.7500
21
304.0353
31
0.0
0
LINE
8
CUT
10
1551.7500
20
304.0353
30
0.0
11
1525.5000
21
304.3018
31
0.0
0
LINE
8
CUT
10
1525.5000
20
304.3018
30
0.0
11
1499.2500
21
304.4171
31
0.0
0
LINE
8
CUT
10
1499.2500
20
304.4171
30
0.0
11
1473.0000
21
304.4059
31
0.0
0
LINE
8
CUT
10
1473.0000
20
304.4059
30
0.0
11
1446.7500
21
304.3346
31
0.0
0
LINE
8
CUT
10
1446.7500
20
304.3346
30
0.0
11
1420.5000
21
304.1880
31
0.0
0
LINE
8
CUT
10
1420.5000
20
304.1880
30
0.0
11
1394.2500
21
303.9546
31
0.0
0
LINE
8
CUT
10
1394.2500
20
303.9546
30
0.0
11
1368.0000
21
303.6245
31
0.0
0
LINE
8
CUT
10
1368.0000
20
303.6245
30
0.0
11
1341.7500
21
303.1880
31
0.0
0
LINE
8
CUT
10
1341.7500
20
303.1880
30
0.0
11
1315.5000
21
302.6350
31
0.0
0
LINE
8
CUT
10
1315.5000
20
302.6350
30
0.0
11
1289.2500
21
301.9564
31
0.0
0
LINE
8
CUT
10
1289.2500
20
301.9564
30
0.0
11
1263.0000
21
301.1425
31
0.0
0
LINE
8
CUT
10
1263.0000
20
301.1425
30
0.0
11
1236.7500
21
300.1813
31
0.0
0
LINE
8
CUT
10
1236.7500
20
300.1813
30
0.0
11
1210.5000
21
299.0584
31
0.0
0
LINE
8
CUT
10
1210.5000
20
299.0584
30
0.0
11
1184.2500
21
297.7551
31
0.0
0
LINE
8
CUT
10
1184.2500
20
297.7551
30
0.0
11
1158.0000
21
296.2484
31
0.0
0
LINE
8
CUT
10
1158.0000
20
296.2484
30
0.0
11
1131.7500
21
294.5072
31
0.0
0
LINE
8
CUT
10
1131.7500
20
294.5072
30
0.0
11
1105.5000
21
292.4852
31
0.0
0
LINE
8
CUT
10
1105.5000
20
292.4852
30
0.0
11
1079.2500
21
290.1480
31
0.0
0
LINE
8
CUT
10
1079.2500
20
290.1480
30
0.0
11
1053.0000
21
287.5494
31
0.0
0
LINE
8
CUT
10
1053.0000
20
287.5494
30
0.0
11
1053.0000
21
197.5406
31
0.0
0
LINE
8
CUT
10
1053.0000
20
197.5406
30
0.0
11
1053.0000
21
197.5406
31
0.0
0
LINE
8
CUT
10
0.0000
20
307.4171
30
0.0
11
13.4175
21
307.4171
31
0.0
0
LINE
8
CUT
10
13.4175
20
307.4171
30
0.0
11
26.8350
21
307.4171
31
0.0
0
LINE
8
CUT
10
26.8350
20
307.4171
30
0.0
11
40.2525
21
307.4171
31
0.0
0
LINE
8
CUT
10
40.2525
20
307.4171
30
0.0
11
53.6700
21
307.4171
31
0.0
0
LINE
8
CUT
10
53.6700
20
307.4171
30
0.0
11
67.0875
21
307.4171
31
0.0
0
LINE
8
CUT
10
67.0875
20
307.4171
30
0.0
11
80.5050
21
307.4171
31
0.0
0
LINE
8
CUT
10
80.5050
20
307.4171
30
0.0
11
93.9225
21
307.4171
31
0.0
0
LINE
8
CUT
10
93.9225
20
307.4171
30
0.0
11
107.3400
21
307.4171
31
0.0
0
LINE
8
CUT
10
107.3400
20
307.4171
30
0.0
11
120.7575
21
307.4171
31
0.0
0
LINE
8
CUT
10
120.7575
20
307.4171
30
0.0
11
134.1750
21
307.4171
31
0.0
0
LINE
8
CUT
10
134.1750
20
307.4171
30
0.0
11
147.5925
21
307.4171
31
0.0
0
LINE
8
CUT
10
147.5925
20
307.4171
30
0.0
11
161.0100
21
307.4171
31
0.0
0
LINE
8
CUT
10
161.0100
20
307.4171
30
0.0
11
174.4275
21
307.4171
31
0.0
0
LINE
8
CUT
10
174.4275
20
307.4171
30
0.0
11
187.8450
21
307.4171
31
0.0
0
LINE
8
CUT
10
187.8450
20
307.4171
30
0.0
11
201.2625
21
307.4171
31
0.0
0
LINE
8
CUT
10
201.2625
20
307.4171
30
0.0
11
214.6800
21
307.4171
31
0.0
0
LINE
8
CUT
10
214.6800
20
307.4171
30
0.0
11
228.0975
21
307.4171
31
0.0
0
LINE
8
CUT
10
228.0975
20
307.4171
30
0.0
11
241.5150
21
307.4171
31
0.0
0
LINE
8
CUT
10
241.5150
20
307.4171
30
0.0
11
254.9325
21
307.4171
31
0.0
0
LINE
8
CUT
10
254.9325
20
307.4171
30
0.0
11
268.3500
21
307.4171
31
0.0
0
LINE
8
CUT
10
268.3500
20
307.4171
30
0.0
11
281.7675
21
307.4171
31
0.0
0
LINE
8
CUT
10
281.7675
20
307.4171
30
0.0
11
295.1850
21
307.4171
31
0.0
0
LINE
8
CUT
10
295.1850
20
307.4171
30
0.0
11
308.6025
21
307.4171
31
0.0
0
LINE
8
CUT
10
308.6025
20
307.4171
30
0.0
11
322.0200
21
307.4171
31
0.0
0
LINE
8
CUT
10
322.0200
20
307.4171
30
0.0
11
335.4375
21
307.4171
31
0.0
0
LINE
8
CUT
10
335.4375
20
307.4171
30
0.0
11
348.8550
21
307.4171
31
0.0
0
LINE
8
CUT
10
348.8550
20
307.4171
30
0.0
11
362.2725
21
307.4171
31
0.0
0
LINE
8
CUT
10
362.2725
20
307.4171
30
0.0
11
375.6900
21
307.4171
31
0.0
0
LINE
8
CUT
10
375.6900
20
307.4171
30
0.0
11
389.1075
21
307.4171
31
0.0
0
LINE
8
CUT
10
389.1075
20
307.4171
30
0.0
11
402.5250
21
307.4171
31
0.0
0
LINE
8
CUT
10
402.5250
20
307.4171
30
0.0
11
415.9425
21
307.4171
31
0.0
0
LINE
8
CUT
10
415.9425
20
307.4171
30
0.0
11
429.3600
21
307.4171
31
0.0
0
LINE
8
CUT
10
429.3600
20
307.4171
30
0.0
11
442.7775
21
307.4171
31
0.0
0
LINE
8
CUT
10
442.7775
20
307.4171
30
0.0
11
456.1950
21
307.4171
31
0.0
0
LINE
8
CUT
10
456.1950
20
307.4171
30
0.0
11
469.6125
21
307.4171
31
0.0
0
LINE
8
CUT
10
469.6125
20
307.4171
30
0.0
11
483.0300
21
307.4171
31
0.0
0
LINE
8
CUT
10
483.0300
20
307.4171
30
0.0
11
496.4475
21
307.4171
31
0.0
0
LINE
8
CUT
10
496.4475
20
307.4171
30
0.0
11
509.8650
21
307.4171
31
0.0
0
LINE
8
CUT
10
509.8650
20
307.4171
30
0.0
11
523.2825
21
307.4171
31
0.0
0
LINE
8
CUT
10
523.2825
20
307.4171
30
0.0
11
536.7000
21
307.4171
31
0.0
0
LINE
8
CUT
10
536.7000
20
307.4171
30
0.0
11
536.7000
21
361.1504
31
0.0
0
LINE
8
CUT
10
536.7000
20
361.1504
30
0.0
11
523.2825
21
361.1504
31
0.0
0
LINE
8
CUT
10
523.2825
20
361.1504
30
0.0
11
509.8650
21
361.1504
31
0.0
0
LINE
8
CUT
10
509.8650
20
361.1504
30
0.0
11
496.4475
21
361.1504
31
0.0
0
LINE
8
CUT
10
496.4475
20
361.1504
30
0.0
11
483.0300
21
361.1504
31
0.0
0
LINE
8
CUT
10
483.0300
20
361.1504
30
0.0
11
469.6125
21
361.1504
31
0.0
0
LINE
8
CUT
10
469.6125
20
361.1504
30
0.0
11
456.1950
21
361.1504
31
0.0
0
LINE
8
CUT
10
456.1950
20
361.1504
30
0.0
11
442.7775
21
361.1504
31
0.0
0
LINE
8
CUT
10
442.7775
20
361.1504
30
0.0
11
429.3600
21
361.1504
31
0.0
0
LINE
8
CUT
10
429.3600
20
361.1504
30
0.0
11
415.9425
21
361.1504
31
0.0
0
LINE
8
CUT
10
415.9425
20
361.1504
30
0.0
11
402.5250
21
361.1504
31
0.0
0
LINE
8
CUT
10
402.5250
20
361.1504
30
0.0
11
389.1075
21
361.1504
31
0.0
0
LINE
8
CUT
10
389.1075
20
361.1504
30
0.0
11
375.6900
21
361.1504
31
0.0
0
LINE
8
CUT
10
375.6900
20
361.1504
30
0.0
11
362.2725
21
361.1504
31
0.0
0
LINE
8
CUT
10
362.2725
20
361.1504
30
0.0
11
348.8550
21
361.1504
31
0.0
0
LINE
8
CUT
10
348.8550
20
361.1504
30
0.0
11
335.4375
21
361.1504
31
0.0
0
LINE
8
CUT
10
335.4375
20
361.1504
30
0.0
11
322.0200
21
361.1504
31
0.0
0
LINE
8
CUT
10
322.0200
20
361.1504
30
0.0
11
308.6025
21
361.1504
31
0.0
0
LINE
8
CUT
10
308.6025
20
361.1504
30
0.0
11
295.1850
21
361.1504
31
0.0
0
LINE
8
CUT
10
295.1850
20
361.1504
30
0.0
11
281.7675
21
361.1504
31
0.0
0
LINE
8
CUT
10
281.7675
20
361.1504
30
0.0
11
268.3500
21
361.1504
31
0.0
0
LINE
8
CUT
10
268.3500
20
361.1504
30
0.0
11
254.9325
21
361.1504
31
0.0
0
LINE
8
CUT
10
254.9325
20
361.1504
30
0.0
11
241.5150
21
361.1504
31
0.0
0
LINE
8
CUT
10
241.5150
20
361.1504
30
0.0
11
228.0975
21
361.1504
31
0.0
0
LINE
8
CUT
10
228.0975
20
361.1504
30
0.0
11
214.6800
21
361.1504
31
0.0
0
LINE
8
CUT
10
214.6800
20
361.1504
30
0.0
11
201.2625
21
361.1504
31
0.0
0
LINE
8
CUT
10
201.2625
20
361.1504
30
0.0
11
187.8450
21
361.1504
31
0.0
0
LINE
8
CUT
10
187.8450
20
361.1504
30
0.0
11
174.4275
21
361.1504
31
0.0
0
LINE
8
CUT
10
174.4275
20
361.1504
30
0.0
11
161.0100
21
361.1504
31
0.0
0
LINE
8
CUT
10
161.0100
20
361.1504
30
0.0
11
147.5925
21
361.1504
31
0.0
0
LINE
8
CUT
10
147.5925
20
361.1504
30
0.0
11
134.1750
21
361.1504
31
0.0
0
LINE
8
CUT
10
134.1750
20
361.1504
30
0.0
11
120.7575
21
361.1504
31
0.0
0
LINE
8
CUT
10
120.7575
20
361.1504
30
0.0
11
107.3400
21
361.1504
31
0.0
0
LINE
8
CUT
10
107.3400
20
361.1504
30
0.0
11
93.9225
21
361.1504
31
0.0
0
LINE
8
CUT
10
93.9225
20
361.1504
30
0.0
11
80.5050
21
361.1504
31
0.0
0
LINE
8
CUT
10
80.5050
20
361.1504
30
0.0
11
67.0875
21
361.1504
31
0.0
0
LINE
8
CUT
10
67.0875
20
361.1504
30
0.0
11
53.6700
21
361.1504
31
0.0
0
LINE
8
CUT
10
53.6700
20
361.1504
30
0.0
11
40.2525
21
361.1504
31
0.0
0
LINE
8
CUT
10
40.2525
20
361.1504
30
0.0
11
26.8350
21
361.1504
31
0.0
0
LINE
8
CUT
10
26.8350
20
361.1504
30
0.0
11
13.4175
21
361.1504
31
0.0
0
LINE
8
CUT
10
13.4175
20
361.1504
30
0.0
11
0.0000
21
361.1504
31
0.0
0
LINE
8
CUT
10
0.0000
20
361.1504
30
0.0
11
0.0000
21
307.4171
31
0.0
0
LINE
8
CUT
10
0.0000
20
307.4171
30
0.0
11
0.0000
21
307.4171
31
0.0
0
LINE
8
CUT
10
539.7000
20
307.4171
30
0.0
11
553.1175
21
307.4171
31
0.0
0
LINE
8
CUT
10
553.1175
20
307.4171
30
0.0
11
566.5350
21
307.4171
31
0.0
0
LINE
8
CUT
10
566.5350
20
307.4171
30
0.0
11
579.9525
21
307.4171
31
0.0
0
LINE
8
CUT
10
579.9525
20
307.4171
30
0.0
11
593.3700
21
307.4171
31
0.0
0
LINE
8
CUT
10
593.3700
20
307.4171
30
0.0
11
606.7875
21
307.4171
31
0.0
0
LINE
8
CUT
10
606.7875
20
307.4171
30
0.0
11
620.2050
21
307.4171
31
0.0
0
LINE
8
CUT
10
620.2050
20
307.4171
30
0.0
11
633.6225
21
307.4171
31
0.0
0
LINE
8
CUT
10
633.6225
20
307.4171
30
0.0
11
647.0400
21
307.4171
31
0.0
0
LINE
8
CUT
10
647.0400
20
307.4171
30
0.0
11
660.4575
21
307.4171
31
0.0
0
LINE
8
CUT
10
660.4575
20
307.4171
30
0.0
11
673.8750
21
307.4171
31
0.0
0
LINE
8
CUT
10
673.8750
20
307.4171
30
0.0
11
687.2925
21
307.4171
31
0.0
0
LINE
8
CUT
10
687.2925
20
307.4171
30
0.0
11
700.7100
21
307.4171
31
0.0
0
LINE
8
CUT
10
700.7100
20
307.4171
30
0.0
11
714.1275
21
307.4171
31
0.0
0
LINE
8
CUT
10
714.1275
20
307.4171
30
0.0
11
727.5450
21
307.4171
31
0.0
0
LINE
8
CUT
10
727.5450
20
307.4171
30
0.0
11
740.9625
21
307.4171
31
0.0
0
LINE
8
CUT
10
740.9625
20
307.4171
30
0.0
11
754.3800
21
307.4171
31
0.0
0
LINE
8
CUT
10
754.3800
20
307.4171
30
0.0
11
767.7975
21
307.4171
31
0.0
0
LINE
8
CUT
10
767.7975
20
307.4171
30
0.0
11
781.2150
21
307.4171
31
0.0
0
LINE
8
CUT
10
781.2150
20
307.4171
30
0.0
11
794.6325
21
307.4171
31
0.0
0
LINE
8
CUT
10
794.6325
20
307.4171
30
0.0
11
808.0500
21
307.4171
31
0.0
0
LINE
8
CUT
10
808.0500
20
307.4171
30
0.0
11
821.4675
21
307.4171
31
0.0
0
LINE
8
CUT
10
821.4675
20
307.4171
30
0.0
11
834.8850
21
307.4171
31
0.0
0
LINE
8
CUT
10
834.8850
20
307.4171
30
0.0
11
848.3025
21
307.4171
31
0.0
0
LINE
8
CUT
10
848.3025
20
307.4171
30
0.0
11
861.7200
21
307.4171
31
0.0
0
LINE
8
CUT
10
861.7200
20
307.4171
30
0.0
11
875.1375
21
307.4171
31
0.0
0
LINE
8
CUT
10
875.1375
20
307.4171
30
0.0
11
888.5550
21
307.4171
31
0.0
0
LINE
8
CUT
10
888.5550
20
307.4171
30
0.0
11
901.9725
21
307.4171
31
0.0
0
LINE
8
CUT
10
901.9725
20
307.4171
30
0.0
11
915.3900
21
307.4171
31
0.0
0
LINE
8
CUT
10
915.3900
20
307.4171
30
0.0
11
928.8075
21
307.4171
31
0.0
0
LINE
8
CUT
10
928.8075
20
307.4171
30
0.0
11
942.2250
21
307.4171
31
0.0
0
LINE
8
CUT
10
942.2250
20
307.4171
30
0.0
11
955.6425
21
307.4171
31
0.0
0
LINE
8
CUT
10
955.6425
20
307.4171
30
0.0
11
969.0600
21
307.4171
31
0.0
0
LINE
8
CUT
10
969.0600
20
307.4171
30
0.0
11
982.4775
21
307.4171
31
0.0
0
LINE
8
CUT
10
982.4775
20
307.4171
30
0.0
11
995.8950
21
307.4171
31
0.0
0
LINE
8
CUT
10
995.8950
20
307.4171
30
0.0
11
1009.3125
21
307.4171
31
0.0
0
LINE
8
CUT
10
1009.3125
20
307.4171
30
0.0
11
1022.7300
21
307.4171
31
0.0
0
LINE
8
CUT
10
1022.7300
20
307.4171
30
0.0
11
1036.1475
21
307.4171
31
0.0
0
LINE
8
CUT
10
1036.1475
20
307.4171
30
0.0
11
1049.5650
21
307.4171
31
0.0
0
LINE
8
CUT
10
1049.5650
20
307.4171
30
0.0
11
1062.9825
21
307.4171
31
0.0
0
LINE
8
CUT
10
1062.9825
20
307.4171
30
0.0
11
1076.4000
21
307.4171
31
0.0
0
LINE
8
CUT
10
1076.4000
20
307.4171
30
0.0
11
1076.4000
21
359.1504
31
0.0
0
LINE
8
CUT
10
1076.4000
20
359.1504
30
0.0
11
1062.9825
21
359.1504
31
0.0
0
LINE
8
CUT
10
1062.9825
20
359.1504
30
0.0
11
1049.5650
21
359.1504
31
0.0
0
LINE
8
CUT
10
1049.5650
20
359.1504
30
0.0
11
1036.1475
21
359.1504
31
0.0
0
LINE
8
CUT
10
1036.1475
20
359.1504
30
0.0
11
1022.7300
21
359.1504
31
0.0
0
LINE
8
CUT
10
1022.7300
20
359.1504
30
0.0
11
1009.3125
21
359.1504
31
0.0
0
LINE
8
CUT
10
1009.3125
20
359.1504
30
0.0
11
995.8950
21
359.1504
31
0.0
0
LINE
8
CUT
10
995.8950
20
359.1504
30
0.0
11
982.4775
21
359.1504
31
0.0
0
LINE
8
CUT
10
982.4775
20
359.1504
30
0.0
11
969.0600
21
359.1504
31
0.0
0
LINE
8
CUT
10
969.0600
20
359.1504
30
0.0
11
955.6425
21
359.1504
31
0.0
0
LINE
8
CUT
10
955.6425
20
359.1504
30
0.0
11
942.2250
21
359.1504
31
0.0
0
LINE
8
CUT
10
942.2250
20
359.1504
30
0.0
11
928.8075
21
359.1504
31
0.0
0
LINE
8
CUT
10
928.8075
20
359.1504
30
0.0
11
915.3900
21
359.1504
31
0.0
0
LINE
8
CUT
10
915.3900
20
359.1504
30
0.0
11
901.9725
21
359.1504
31
0.0
0
LINE
8
CUT
10
901.9725
20
359.1504
30
0.0
11
888.5550
21
359.1504
31
0.0
0
LINE
8
CUT
10
888.5550
20
359.1504
30
0.0
11
875.1375
21
359.1504
31
0.0
0
LINE
8
CUT
10
875.1375
20
359.1504
30
0.0
11
861.7200
21
359.1504
31
0.0
0
LINE
8
CUT
10
861.7200
20
359.1504
30
0.0
11
848.3025
21
359.1504
31
0.0
0
LINE
8
CUT
10
848.3025
20
359.1504
30
0.0
11
834.8850
21
359.1504
31
0.0
0
LINE
8
CUT
10
834.8850
20
359.1504
30
0.0
11
821.4675
21
359.1504
31
0.0
0
LINE
8
CUT
10
821.4675
20
359.1504
30
0.0
11
808.0500
21
359.1504
31
0.0
0
LINE
8
CUT
10
808.0500
20
359.1504
30
0.0
11
794.6325
21
359.1504
31
0.0
0
LINE
8
CUT
10
794.6325
20
359.1504
30
0.0
11
781.2150
21
359.1504
31
0.0
0
LINE
8
CUT
10
781.2150
20
359.1504
30
0.0
11
767.7975
21
359.1504
31
0.0
0
LINE
8
CUT
10
767.7975
20
359.1504
30
0.0
11
754.3800
21
359.1504
31
0.0
0
LINE
8
CUT
10
754.3800
20
359.1504
30
0.0
11
740.9625
21
359.1504
31
0.0
0
LINE
8
CUT
10
740.9625
20
359.1504
30
0.0
11
727.5450
21
359.1504
31
0.0
0
LINE
8
CUT
10
727.5450
20
359.1504
30
0.0
11
714.1275
21
359.1504
31
0.0
0
LINE
8
CUT
10
714.1275
20
359.1504
30
0.0
11
700.7100
21
359.1504
31
0.0
0
LINE
8
CUT
10
700.7100
20
359.1504
30
0.0
11
687.2925
21
359.1504
31
0.0
0
LINE
8
CUT
10
687.2925
20
359.1504
30
0.0
11
673.8750
21
359.1504
31
0.0
0
LINE
8
CUT
10
673.8750
20
359.1504
30
0.0
11
660.4575
21
359.1504
31
0.0
0
LINE
8
CUT
10
660.4575
20
359.1504
30
0.0
11
647.0400
21
359.1504
31
0.0
0
LINE
8
CUT
10
647.0400
20
359.1504
30
0.0
11
633.6225
21
359.1504
31
0.0
0
LINE
8
CUT
10
633.6225
20
359.1504
30
0.0
11
620.2050
21
359.1504
31
0.0
0
LINE
8
CUT
10
620.2050
20
359.1504
30
0.0
11
606.7875
21
359.1504
31
0.0
0
LINE
8
CUT
10
606.7875
20
359.1504
30
0.0
11
593.3700
21
359.1504
31
0.0
0
LINE
8
CUT
10
593.3700
20
359.1504
30
0.0
11
579.9525
21
359.1504
31
0.0
0
LINE
8
CUT
10
579.9525
20
359.1504
30
0.0
11
566.5350
21
359.1504
31
0.0
0
LINE
8
CUT
10
566.5350
20
359.1504
30
0.0
11
553.1175
21
359.1504
31
0.0
0
LINE
8
CUT
10
553.1175
20
359.1504
30
0.0
11
539.7000
21
359.1504
31
0.0
0
LINE
8
CUT
10
539.7000
20
359.1504
30
0.0
11
539.7000
21
307.4171
31
0.0
0
LINE
8
CUT
10
539.7000
20
307.4171
30
0.0
11
539.7000
21
307.4171
31
0.0
0
LINE
8
CUT
10
1079.4000
20
307.4171
30
0.0
11
1092.8175
21
307.4171
31
0.0
0
LINE
8
CUT
10
1092.8175
20
307.4171
30
0.0
11
1106.2350
21
307.4171
31
0.0
0
LINE
8
CUT
10
1106.2350
20
307.4171
30
0.0
11
1119.6525
21
307.4171
31
0.0
0
LINE
8
CUT
10
1119.6525
20
307.4171
30
0.0
11
1133.0700
21
307.4171
31
0.0
0
LINE
8
CUT
10
1133.0700
20
307.4171
30
0.0
11
1146.4875
21
307.4171
31
0.0
0
LINE
8
CUT
10
1146.4875
20
307.4171
30
0.0
11
1159.9050
21
307.4171
31
0.0
0
LINE
8
CUT
10
1159.9050
20
307.4171
30
0.0
11
1173.3225
21
307.4171
31
0.0
0
LINE
8
CUT
10
1173.3225
20
307.4171
30
0.0
11
1186.7400
21
307.4171
31
0.0
0
LINE
8
CUT
10
1186.7400
20
307.4171
30
0.0
11
1200.1575
21
307.4171
31
0.0
0
LINE
8
CUT
10
1200.1575
20
307.4171
30
0.0
11
1213.5750
21
307.4171
31
0.0
0
LINE
8
CUT
10
1213.5750
20
307.4171
30
0.0
11
1226.9925
21
307.4171
31
0.0
0
LINE
8
CUT
10
1226.9925
20
307.4171
30
0.0
11
1240.4100
21
307.4171
31
0.0
0
LINE
8
CUT
10
1240.4100
20
307.4171
30
0.0
11
1253.8275
21
307.4171
31
0.0
0
LINE
8
CUT
10
1253.8275
20
307.4171
30
0.0
11
1267.2450
21
307.4171
31
0.0
0
LINE
8
CUT
10
1267.2450
20
307.4171
30
0.0
11
1280.6625
21
307.4171
31
0.0
0
LINE
8
CUT
10
1280.6625
20
307.4171
30
0.0
11
1294.0800
21
307.4171
31
0.0
0
LINE
8
CUT
10
1294.0800
20
307.4171
30
0.0
11
1307.4975
21
307.4171
31
0.0
0
LINE
8
CUT
10
1307.4975
20
307.4171
30
0.0
11
1320.9150
21
307.4171
31
0.0
0
LINE
8
CUT
10
1320.9150
20
307.4171
30
0.0
11
1334.3325
21
307.4171
31
0.0
0
LINE
8
CUT
10
1334.3325
20
307.4171
30
0.0
11
1347.7500
21
307.4171
31
0.0
0
LINE
8
CUT
10
1347.7500
20
307.4171
30
0.0
11
1361.1675
21
307.4171
31
0.0
0
LINE
8
CUT
10
1361.1675
20
307.4171
30
0.0
11
1374.5850
21
307.4171
31
0.0
0
LINE
8
CUT
10
1374.5850
20
307.4171
30
0.0
11
1388.0025
21
307.4171
31
0.0
0
LINE
8
CUT
10
1388.0025
20
307.4171
30
0.0
11
1401.4200
21
307.4171
31
0.0
0
LINE
8
CUT
10
1401.4200
20
307.4171
30
0.0
11
1414.8375
21
307.4171
31
0.0
0
LINE
8
CUT
10
1414.8375
20
307.4171
30
0.0
11
1428.2550
21
307.4171
31
0.0
0
LINE
8
CUT
10
1428.2550
20
307.4171
30
0.0
11
1441.6725
21
307.4171
31
0.0
0
LINE
8
CUT
10
1441.6725
20
307.4171
30
0.0
11
1455.0900
21
307.4171
31
0.0
0
LINE
8
CUT
10
1455.0900
20
307.4171
30
0.0
11
1468.5075
21
307.4171
31
0.0
0
LINE
8
CUT
10
1468.5075
20
307.4171
30
0.0
11
1481.9250
21
307.4171
31
0.0
0
LINE
8
CUT
10
1481.9250
20
307.4171
30
0.0
11
1495.3425
21
307.4171
31
0.0
0
LINE
8
CUT
10
1495.3425
20
307.4171
30
0.0
11
1508.7600
21
307.4171
31
0.0
0
LINE
8
CUT
10
1508.7600
20
307.4171
30
0.0
11
1522.1775
21
307.4171
31
0.0
0
LINE
8
CUT
10
1522.1775
20
307.4171
30
0.0
11
1535.5950
21
307.4171
31
0.0
0
LINE
8
CUT
10
1535.5950
20
307.4171
30
0.0
11
1549.0125
21
307.4171
31
0.0
0
LINE
8
CUT
10
1549.0125
20
307.4171
30
0.0
11
1562.4300
21
307.4171
31
0.0
0
LINE
8
CUT
10
1562.4300
20
307.4171
30
0.0
11
1575.8475
21
307.4171
31
0.0
0
LINE
8
CUT
10
1575.8475
20
307.4171
30
0.0
11
1589.2650
21
307.4171
31
0.0
0
LINE
8
CUT
10
1589.2650
20
307.4171
30
0.0
11
1602.6825
21
307.4171
31
0.0
0
LINE
8
CUT
10
1602.6825
20
307.4171
30
0.0
11
1616.1000
21
307.4171
31
0.0
0
LINE
8
CUT
10
1616.1000
20
307.4171
30
0.0
11
1616.1000
21
361.1504
31
0.0
0
LINE
8
CUT
10
1616.1000
20
361.1504
30
0.0
11
1602.6825
21
361.1504
31
0.0
0
LINE
8
CUT
10
1602.6825
20
361.1504
30
0.0
11
1589.2650
21
361.1504
31
0.0
0
LINE
8
CUT
10
1589.2650
20
361.1504
30
0.0
11
1575.8475
21
361.1504
31
0.0
0
LINE
8
CUT
10
1575.8475
20
361.1504
30
0.0
11
1562.4300
21
361.1504
31
0.0
0
LINE
8
CUT
10
1562.4300
20
361.1504
30
0.0
11
1549.0125
21
361.1504
31
0.0
0
LINE
8
CUT
10
1549.0125
20
361.1504
30
0.0
11
1535.5950
21
361.1504
31
0.0
0
LINE
8
CUT
10
1535.5950
20
361.1504
30
0.0
11
1522.1775
21
361.1504
31
0.0
0
LINE
8
CUT
10
1522.1775
20
361.1504
30
0.0
11
1508.7600
21
361.1504
31
0.0
0
LINE
8
CUT
10
1508.7600
20
361.1504
30
0.0
11
1495.3425
21
361.1504
31
0.0
0
LINE
8
CUT
10
1495.3425
20
361.1504
30
0.0
11
1481.9250
21
361.1504
31
0.0
0
LINE
8
CUT
10
1481.9250
20
361.1504
30
0.0
11
1468.5075
21
361.1504
31
0.0
0
LINE
8
CUT
10
1468.5075
20
361.1504
30
0.0
11
1455.0900
21
361.1504
31
0.0
0
LINE
8
CUT
10
1455.0900
20
361.1504
30
0.0
11
1441.6725
21
361.1504
31
0.0
0
LINE
8
CUT
10
1441.6725
20
361.1504
30
0.0
11
1428.2550
21
361.1504
31
0.0
0
LINE
8
CUT
10
1428.2550
20
361.1504
30
0.0
11
1414.8375
21
361.1504
31
0.0
0
LINE
8
CUT
10
1414.8375
20
361.1504
30
0.0
11
1401.4200
21
361.1504
31
0.0
0
LINE
8
CUT
10
1401.4200
20
361.1504
30
0.0
11
1388.0025
21
361.1504
31
0.0
0
LINE
8
CUT
10
1388.0025
20
361.1504
30
0.0
11
1374.5850
21
361.1504
31
0.0
0
LINE
8
CUT
10
1374.5850
20
361.1504
30
0.0
11
1361.1675
21
361.1504
31
0.0
0
LINE
8
CUT
10
1361.1675
20
361.1504
30
0.0
11
1347.7500
21
361.1504
31
0.0
0
LINE
8
CUT
10
1347.7500
20
361.1504
30
0.0
11
1334.3325
21
361.1504
31
0.0
0
LINE
8
CUT
10
1334.3325
20
361.1504
30
0.0
11
1320.9150
21
361.1504
31
0.0
0
LINE
8
CUT
10
1320.9150
20
361.1504
30
0.0
11
1307.4975
21
361.1504
31
0.0
0
LINE
8
CUT
10
1307.4975
20
361.1504
30
0.0
11
1294.0800
21
361.1504
31
0.0
0
LINE
8
CUT
10
1294.0800
20
361.1504
30
0.0
11
1280.6625
21
361.1504
31
0.0
0
LINE
8
CUT
10
1280.6625
20
361.1504
30
0.0
11
1267.2450
21
361.1504
31
0.0
0
LINE
8
CUT
10
1267.2450
20
361.1504
30
0.0
11
1253.8275
21
361.1504
31
0.0
0
LINE
8
CUT
10
1253.8275
20
361.1504
30
0.0
11
1240.4100
21
361.1504
31
0.0
0
LINE
8
CUT
10
1240.4100
20
361.1504
30
0.0
11
1226.9925
21
361.1504
31
0.0
0
LINE
8
CUT
10
1226.9925
20
361.1504
30
0.0
11
1213.5750
21
361.1504
31
0.0
0
LINE
8
CUT
10
1213.5750
20
361.1504
30
0.0
11
1200.1575
21
361.1504
31
0.0
0
LINE
8
CUT
10
1200.1575
20
361.1504
30
0.0
11
1186.7400
21
361.1504
31
0.0
0
LINE
8
CUT
10
1186.7400
20
361.1504
30
0.0
11
1173.3225
21
361.1504
31
0.0
0
LINE
8
CUT
10
1173.3225
20
361.1504
30
0.0
11
1159.9050
21
361.1504
31
0.0
0
LINE
8
CUT
10
1159.9050
20
361.1504
30
0.0
11
1146.4875
21
361.1504
31
0.0
0
LINE
8
CUT
10
1146.4875
20
361.1504
30
0.0
11
1133.0700
21
361.1504
31
0.0
0
LINE
8
CUT
10
1133.0700
20
361.1504
30
0.0
11
1119.6525
21
361.1504
31
0.0
0
LINE
8
CUT
10
1119.6525
20
361.1504
30
0.0
11
1106.2350
21
361.1504
31
0.0
0
LINE
8
CUT
10
1106.2350
20
361.1504
30
0.0
11
1092.8175
21
361.1504
31
0.0
0
LINE
8
CUT
10
1092.8175
20
361.1504
30
0.0
11
1079.4000
21
361.1504
31
0.0
0
LINE
8
CUT
10
1079.4000
20
361.1504
30
0.0
11
1079.4000
21
307.4171
31
0.0
0
LINE
8
CUT
10
1079.4000
20
307.4171
30
0.0
11
1079.4000
21
307.4171
31
0.0
0
LINE
8
CUT
10
1619.1000
20
307.4171
30
0.0
11
1632.5175
21
307.4171
31
0.0
0
LINE
8
CUT
10
1632.5175
20
307.4171
30
0.0
11
1645.9350
21
307.4171
31
0.0
0
LINE
8
CUT
10
1645.9350
20
307.4171
30
0.0
11
1659.3525
21
307.4171
31
0.0
0
LINE
8
CUT
10
1659.3525
20
307.4171
30
0.0
11
1672.7700
21
307.4171
31
0.0
0
LINE
8
CUT
10
1672.7700
20
307.4171
30
0.0
11
1686.1875
21
307.4171
31
0.0
0
LINE
8
CUT
10
1686.1875
20
307.4171
30
0.0
11
1699.6050
21
307.4171
31
0.0
0
LINE
8
CUT
10
1699.6050
20
307.4171
30
0.0
11
1713.0225
21
307.4171
31
0.0
0
LINE
8
CUT
10
1713.0225
20
307.4171
30
0.0
11
1726.4400
21
307.4171
31
0.0
0
LINE
8
CUT
10
1726.4400
20
307.4171
30
0.0
11
1739.8575
21
307.4171
31
0.0
0
LINE
8
CUT
10
1739.8575
20
307.4171
30
0.0
11
1753.2750
21
307.4171
31
0.0
0
LINE
8
CUT
10
1753.2750
20
307.4171
30
0.0
11
1766.6925
21
307.4171
31
0.0
0
LINE
8
CUT
10
1766.6925
20
307.4171
30
0.0
11
1780.1100
21
307.4171
31
0.0
0
LINE
8
CUT
10
1780.1100
20
307.4171
30
0.0
11
1793.5275
21
307.4171
31
0.0
0
LINE
8
CUT
10
1793.5275
20
307.4171
30
0.0
11
1806.9450
21
307.4171
31
0.0
0
LINE
8
CUT
10
1806.9450
20
307.4171
30
0.0
11
1820.3625
21
307.4171
31
0.0
0
LINE
8
CUT
10
1820.3625
20
307.4171
30
0.0
11
1833.7800
21
307.4171
31
0.0
0
LINE
8
CUT
10
1833.7800
20
307.4171
30
0.0
11
1847.1975
21
307.4171
31
0.0
0
LINE
8
CUT
10
1847.1975
20
307.4171
30
0.0
11
1860.6150
21
307.4171
31
0.0
0
LINE
8
CUT
10
1860.6150
20
307.4171
30
0.0
11
1874.0325
21
307.4171
31
0.0
0
LINE
8
CUT
10
1874.0325
20
307.4171
30
0.0
11
1887.4500
21
307.4171
31
0.0
0
LINE
8
CUT
10
1887.4500
20
307.4171
30
0.0
11
1900.8675
21
307.4171
31
0.0
0
LINE
8
CUT
10
1900.8675
20
307.4171
30
0.0
11
1914.2850
21
307.4171
31
0.0
0
LINE
8
CUT
10
1914.2850
20
307.4171
30
0.0
11
1927.7025
21
307.4171
31
0.0
0
LINE
8
CUT
10
1927.7025
20
307.4171
30
0.0
11
1941.1200
21
307.4171
31
0.0
0
LINE
8
CUT
10
1941.1200
20
307.4171
30
0.0
11
1954.5375
21
307.4171
31
0.0
0
LINE
8
CUT
10
1954.5375
20
307.4171
30
0.0
11
1967.9550
21
307.4171
31
0.0
0
LINE
8
CUT
10
1967.9550
20
307.4171
30
0.0
11
1981.3725
21
307.4171
31
0.0
0
LINE
8
CUT
10
1981.3725
20
307.4171
30
0.0
11
1994.7900
21
307.4171
31
0.0
0
LINE
8
CUT
10
1994.7900
20
307.4171
30
0.0
11
2008.2075
21
307.4171
31
0.0
0
LINE
8
CUT
10
2008.2075
20
307.4171
30
0.0
11
2021.6250
21
307.4171
31
0.0
0
LINE
8
CUT
10
2021.6250
20
307.4171
30
0.0
11
2035.0425
21
307.4171
31
0.0
0
LINE
8
CUT
10
2035.0425
20
307.4171
30
0.0
11
2048.4600
21
307.4171
31
0.0
0
LINE
8
CUT
10
2048.4600
20
307.4171
30
0.0
11
2061.8775
21
307.4171
31
0.0
0
LINE
8
CUT
10
2061.8775
20
307.4171
30
0.0
11
2075.2950
21
307.4171
31
0.0
0
LINE
8
CUT
10
2075.2950
20
307.4171
30
0.0
11
2088.7125
21
307.4171
31
0.0
0
LINE
8
CUT
10
2088.7125
20
307.4171
30
0.0
11
2102.1300
21
307.4171
31
0.0
0
LINE
8
CUT
10
2102.1300
20
307.4171
30
0.0
11
2115.5475
21
307.4171
31
0.0
0
LINE
8
CUT
10
2115.5475
20
307.4171
30
0.0
11
2128.9650
21
307.4171
31
0.0
0
LINE
8
CUT
10
2128.9650
20
307.4171
30
0.0
11
2142.3825
21
307.4171
31
0.0
0
LINE
8
CUT
10
2142.3825
20
307.4171
30
0.0
11
2155.8000
21
307.4171
31
0.0
0
LINE
8
CUT
10
2155.8000
20
307.4171
30
0.0
11
2155.8000
21
361.1504
31
0.0
0
LINE
8
CUT
10
2155.8000
20
361.1504
30
0.0
11
2142.3825
21
361.1504
31
0.0
0
LINE
8
CUT
10
2142.3825
20
361.1504
30
0.0
11
2128.9650
21
361.1504
31
0.0
0
LINE
8
CUT
10
2128.9650
20
361.1504
30
0.0
11
2115.5475
21
361.1504
31
0.0
0
LINE
8
CUT
10
2115.5475
20
361.1504
30
0.0
11
2102.1300
21
361.1504
31
0.0
0
LINE
8
CUT
10
2102.1300
20
361.1504
30
0.0
11
2088.7125
21
361.1504
31
0.0
0
LINE
8
CUT
10
2088.7125
20
361.1504
30
0.0
11
2075.2950
21
361.1504
31
0.0
0
LINE
8
CUT
10
2075.2950
20
361.1504
30
0.0
11
2061.8775
21
361.1504
31
0.0
0
LINE
8
CUT
10
2061.8775
20
361.1504
30
0.0
11
2048.4600
21
361.1504
31
0.0
0
LINE
8
CUT
10
2048.4600
20
361.1504
30
0.0
11
2035.0425
21
361.1504
31
0.0
0
LINE
8
CUT
10
2035.0425
20
361.1504
30
0.0
11
2021.6250
21
361.1504
31
0.0
0
LINE
8
CUT
10
2021.6250
20
361.1504
30
0.0
11
2008.2075
21
361.1504
31
0.0
0
LINE
8
CUT
10
2008.2075
20
361.1504
30
0.0
11
1994.7900
21
361.1504
31
0.0
0
LINE
8
CUT
10
1994.7900
20
361.1504
30
0.0
11
1981.3725
21
361.1504
31
0.0
0
LINE
8
CUT
10
1981.3725
20
361.1504
30
0.0
11
1967.9550
21
361.1504
31
0.0
0
LINE
8
CUT
10
1967.9550
20
361.1504
30
0.0
11
1954.5375
21
361.1504
31
0.0
0
LINE
8
CUT
10
1954.5375
20
361.1504
30
0.0
11
1941.1200
21
361.1504
31
0.0
0
LINE
8
CUT
10
1941.1200
20
361.1504
30
0.0
11
1927.7025
21
361.1504
31
0.0
0
LINE
8
CUT
10
1927.7025
20
361.1504
30
0.0
11
1914.2850
21
361.1504
31
0.0
0
LINE
8
CUT
10
1914.2850
20
361.1504
30
0.0
11
1900.8675
21
361.1504
31
0.0
0
LINE
8
CUT
10
1900.8675
20
361.1504
30
0.0
11
1887.4500
21
361.1504
31
0.0
0
LINE
8
CUT
10
1887.4500
20
361.1504
30
0.0
11
1874.0325
21
361.1504
31
0.0
0
LINE
8
CUT
10
1874.0325
20
361.1504
30
0.0
11
1860.6150
21
361.1504
31
0.0
0
LINE
8
CUT
10
1860.6150
20
361.1504
30
0.0
11
1847.1975
21
361.1504
31
0.0
0
LINE
8
CUT
10
1847.1975
20
361.1504
30
0.0
11
1833.7800
21
361.1504
31
0.0
0
LINE
8
CUT
10
1833.7800
20
361.1504
30
0.0
11
1820.3625
21
361.1504
31
0.0
0
LINE
8
CUT
10
1820.3625
20
361.1504
30
0.0
11
1806.9450
21
361.1504
31
0.0
0
LINE
8
CUT
10
1806.9450
20
361.1504
30
0.0
11
1793.5275
21
361.1504
31
0.0
0
LINE
8
CUT
10
1793.5275
20
361.1504
30
0.0
11
1780.1100
21
361.1504
31
0.0
0
LINE
8
CUT
10
1780.1100
20
361.1504
30
0.0
11
1766.6925
21
361.1504
31
0.0
0
LINE
8
CUT
10
1766.6925
20
361.1504
30
0.0
11
1753.2750
21
361.1504
31
0.0
0
LINE
8
CUT
10
1753.2750
20
361.1504
30
0.0
11
1739.8575
21
361.1504
31
0.0
0
LINE
8
CUT
10
1739.8575
20
361.1504
30
0.0
11
1726.4400
21
361.1504
31
0.0
0
LINE
8
CUT
10
1726.4400
20
361.1504
30
0.0
11
1713.0225
21
361.1504
31
0.0
0
LINE
8
CUT
10
1713.0225
20
361.1504
30
0.0
11
1699.6050
21
361.1504
31
0.0
0
LINE
8
CUT
10
1699.6050
20
361.1504
30
0.0
11
1686.1875
21
361.1504
31
0.0
0
LINE
8
CUT
10
1686.1875
20
361.1504
30
0.0
11
1672.7700
21
361.1504
31
0.0
0
LINE
8
CUT
10
1672.7700
20
361.1504
30
0.0
11
1659.3525
21
361.1504
31
0.0
0
LINE
8
CUT
10
1659.3525
20
361.1504
30
0.0
11
1645.9350
21
361.1504
31
0.0
0
LINE
8
CUT
10
1645.9350
20
361.1504
30
0.0
11
1632.5175
21
361.1504
31
0.0
0
LINE
8
CUT
10
1632.5175
20
361.1504
30
0.0
11
1619.1000
21
361.1504
31
0.0
0
LINE
8
CUT
10
1619.1000
20
361.1504
30
0.0
11
1619.1000
21
307.4171
31
0.0
0
LINE
8
CUT
10
1619.1000
20
307.4171
30
0.0
11
1619.1000
21
307.4171
31
0.0
0
LINE
8
CUT
10
0.0000
20
364.1504
30
0.0
11
13.4175
21
364.1504
31
0.0
0
LINE
8
CUT
10
13.4175
20
364.1504
30
0.0
11
26.8350
21
364.1504
31
0.0
0
LINE
8
CUT
10
26.8350
20
364.1504
30
0.0
11
40.2525
21
364.1504
31
0.0
0
LINE
8
CUT
10
40.2525
20
364.1504
30
0.0
11
53.6700
21
364.1504
31
0.0
0
LINE
8
CUT
10
53.6700
20
364.1504
30
0.0
11
67.0875
21
364.1504
31
0.0
0
LINE
8
CUT
10
67.0875
20
364.1504
30
0.0
11
80.5050
21
364.1504
31
0.0
0
LINE
8
CUT
10
80.5050
20
364.1504
30
0.0
11
93.9225
21
364.1504
31
0.0
0
LINE
8
CUT
10
93.9225
20
364.1504
30
0.0
11
107.3400
21
364.1504
31
0.0
0
LINE
8
CUT
10
107.3400
20
364.1504
30
0.0
11
120.7575
21
364.1504
31
0.0
0
LINE
8
CUT
10
120.7575
20
364.1504
30
0.0
11
134.1750
21
364.1504
31
0.0
0
LINE
8
CUT
10
134.1750
20
364.1504
30
0.0
11
147.5925
21
364.1504
31
0.0
0
LINE
8
CUT
10
147.5925
20
364.1504
30
0.0
11
161.0100
21
364.1504
31
0.0
0
LINE
8
CUT
10
161.0100
20
364.1504
30
0.0
11
174.4275
21
364.1504
31
0.0
0
LINE
8
CUT
10
174.4275
20
364.1504
30
0.0
11
187.8450
21
364.1504
31
0.0
0
LINE
8
CUT
10
187.8450
20
364.1504
30
0.0
11
201.2625
21
364.1504
31
0.0
0
LINE
8
CUT
10
201.2625
20
364.1504
30
0.0
11
214.6800
21
364.1504
31
0.0
0
LINE
8
CUT
10
214.6800
20
364.1504
30
0.0
11
228.0975
21
364.1504
31
0.0
0
LINE
8
CUT
10
228.0975
20
364.1504
30
0.0
11
241.5150
21
364.1504
31
0.0
0
LINE
8
CUT
10
241.5150
20
364.1504
30
0.0
11
254.9325
21
364.1504
31
0.0
0
LINE
8
CUT
10
254.9325
20
364.1504
30
0.0
11
268.3500
21
364.1504
31
0.0
0
LINE
8
CUT
10
268.3500
20
364.1504
30
0.0
11
281.7675
21
364.1504
31
0.0
0
LINE
8
CUT
10
281.7675
20
364.1504
30
0.0
11
295.1850
21
364.1504
31
0.0
0
LINE
8
CUT
10
295.1850
20
364.1504
30
0.0
11
308.6025
21
364.1504
31
0.0
0
LINE
8
CUT
10
308.6025
20
364.1504
30
0.0
11
322.0200
21
364.1504
31
0.0
0
LINE
8
CUT
10
322.0200
20
364.1504
30
0.0
11
335.4375
21
364.1504
31
0.0
0
LINE
8
CUT
10
335.4375
20
364.1504
30
0.0
11
348.8550
21
364.1504
31
0.0
0
LINE
8
CUT
10
348.8550
20
364.1504
30
0.0
11
362.2725
21
364.1504
31
0.0
0
LINE
8
CUT
10
362.2725
20
364.1504
30
0.0
11
375.6900
21
364.1504
31
0.0
0
LINE
8
CUT
10
375.6900
20
364.1504
30
0.0
11
389.1075
21
364.1504
31
0.0
0
LINE
8
CUT
10
389.1075
20
364.1504
30
0.0
11
402.5250
21
364.1504
31
0.0
0
LINE
8
CUT
10
402.5250
20
364.1504
30
0.0
11
415.9425
21
364.1504
31
0.0
0
LINE
8
CUT
10
415.9425
20
364.1504
30
0.0
11
429.3600
21
364.1504
31
0.0
0
LINE
8
CUT
10
429.3600
20
364.1504
30
0.0
11
442.7775
21
364.1504
31
0.0
0
LINE
8
CUT
10
442.7775
20
364.1504
30
0.0
11
456.1950
21
364.1504
31
0.0
0
LINE
8
CUT
10
456.1950
20
364.1504
30
0.0
11
469.6125
21
364.1504
31
0.0
0
LINE
8
CUT
10
469.6125
20
364.1504
30
0.0
11
483.0300
21
364.1504
31
0.0
0
LINE
8
CUT
10
483.0300
20
364.1504
30
0.0
11
496.4475
21
364.1504
31
0.0
0
LINE
8
CUT
10
496.4475
20
364.1504
30
0.0
11
509.8650
21
364.1504
31
0.0
0
LINE
8
CUT
10
509.8650
20
364.1504
30
0.0
11
523.2825
21
364.1504
31
0.0
0
LINE
8
CUT
10
523.2825
20
364.1504
30
0.0
11
536.7000
21
364.1504
31
0.0
0
LINE
8
CUT
10
536.7000
20
364.1504
30
0.0
11
536.7000
21
415.8837
31
0.0
0
LINE
8
CUT
10
536.7000
20
415.8837
30
0.0
11
523.2825
21
415.8837
31
0.0
0
LINE
8
CUT
10
523.2825
20
415.8837
30
0.0
11
509.8650
21
415.8837
31
0.0
0
LINE
8
CUT
10
509.8650
20
415.8837
30
0.0
11
496.4475
21
415.8837
31
0.0
0
LINE
8
CUT
10
496.4475
20
415.8837
30
0.0
11
483.0300
21
415.8837
31
0.0
0
LINE
8
CUT
10
483.0300
20
415.8837
30
0.0
11
469.6125
21
415.8837
31
0.0
0
LINE
8
CUT
10
469.6125
20
415.8837
30
0.0
11
456.1950
21
415.8837
31
0.0
0
LINE
8
CUT
10
456.1950
20
415.8837
30
0.0
11
442.7775
21
415.8837
31
0.0
0
LINE
8
CUT
10
442.7775
20
415.8837
30
0.0
11
429.3600
21
415.8837
31
0.0
0
LINE
8
CUT
10
429.3600
20
415.8837
30
0.0
11
415.9425
21
415.8837
31
0.0
0
LINE
8
CUT
10
415.9425
20
415.8837
30
0.0
11
402.5250
21
415.8837
31
0.0
0
LINE
8
CUT
10
402.5250
20
415.8837
30
0.0
11
389.1075
21
415.8837
31
0.0
0
LINE
8
CUT
10
389.1075
20
415.8837
30
0.0
11
375.6900
21
415.8837
31
0.0
0
LINE
8
CUT
10
375.6900
20
415.8837
30
0.0
11
362.2725
21
415.8837
31
0.0
0
LINE
8
CUT
10
362.2725
20
415.8837
30
0.0
11
348.8550
21
415.8837
31
0.0
0
LINE
8
CUT
10
348.8550
20
415.8837
30
0.0
11
335.4375
21
415.8837
31
0.0
0
LINE
8
CUT
10
335.4375
20
415.8837
30
0.0
11
322.0200
21
415.8837
31
0.0
0
LINE
8
CUT
10
322.0200
20
415.8837
30
0.0
11
308.6025
21
415.8837
31
0.0
0
LINE
8
CUT
10
308.6025
20
415.8837
30
0.0
11
295.1850
21
415.8837
31
0.0
0
LINE
8
CUT
10
295.1850
20
415.8837
30
0.0
11
281.7675
21
415.8837
31
0.0
0
LINE
8
CUT
10
281.7675
20
415.8837
30
0.0
11
268.3500
21
415.8837
31
0.0
0
LINE
8
CUT
10
268.3500
20
415.8837
30
0.0
11
254.9325
21
415.8837
31
0.0
0
LINE
8
CUT
10
254.9325
20
415.8837
30
0.0
11
241.5150
21
415.8837
31
0.0
0
LINE
8
CUT
10
241.5150
20
415.8837
30
0.0
11
228.0975
21
415.8837
31
0.0
0
LINE
8
CUT
10
228.0975
20
415.8837
30
0.0
11
214.6800
21
415.8837
31
0.0
0
LINE
8
CUT
10
214.6800
20
415.8837
30
0.0
11
201.2625
21
415.8837
31
0.0
0
LINE
8
CUT
10
201.2625
20
415.8837
30
0.0
11
187.8450
21
415.8837
31
0.0
0
LINE
8
CUT
10
187.8450
20
415.8837
30
0.0
11
174.4275
21
415.8837
31
0.0
0
LINE
8
CUT
10
174.4275
20
415.8837
30
0.0
11
161.0100
21
415.8837
31
0.0
0
LINE
8
CUT
10
161.0100
20
415.8837
30
0.0
11
147.5925
21
415.8837
31
0.0
0
LINE
8
CUT
10
147.5925
20
415.8837
30
0.0
11
134.1750
21
415.8837
31
0.0
0
LINE
8
CUT
10
134.1750
20
415.8837
30
0.0
11
120.7575
21
415.8837
31
0.0
0
LINE
8
CUT
10
120.7575
20
415.8837
30
0.0
11
107.3400
21
415.8837
31
0.0
0
LINE
8
CUT
10
107.3400
20
415.8837
30
0.0
11
93.9225
21
415.8837
31
0.0
0
LINE
8
CUT
10
93.9225
20
415.8837
30
0.0
11
80.5050
21
415.8837
31
0.0
0
LINE
8
CUT
10
80.5050
20
415.8837
30
0.0
11
67.0875
21
415.8837
31
0.0
0
LINE
8
CUT
10
67.0875
20
415.8837
30
0.0
11
53.6700
21
415.8837
31
0.0
0
LINE
8
CUT
10
53.6700
20
415.8837
30
0.0
11
40.2525
21
415.8837
31
0.0
0
LINE
8
CUT
10
40.2525
20
415.8837
30
0.0
11
26.8350
21
415.8837
31
0.0
0
LINE
8
CUT
10
26.8350
20
415.8837
30
0.0
11
13.4175
21
415.8837
31
0.0
0
LINE
8
CUT
10
13.4175
20
415.8837
30
0.0
11
0.0000
21
415.8837
31
0.0
0
LINE
8
CUT
10
0.0000
20
415.8837
30
0.0
11
0.0000
21
364.1504
31
0.0
0
LINE
8
CUT
10
0.0000
20
364.1504
30
0.0
11
0.0000
21
364.1504
31
0.0
0
LINE
8
CUT
10
539.7000
20
364.1504
30
0.0
11
553.1175
21
364.1504
31
0.0
0
LINE
8
CUT
10
553.1175
20
364.1504
30
0.0
11
566.5350
21
364.1504
31
0.0
0
LINE
8
CUT
10
566.5350
20
364.1504
30
0.0
11
579.9525
21
364.1504
31
0.0
0
LINE
8
CUT
10
579.9525
20
364.1504
30
0.0
11
593.3700
21
364.1504
31
0.0
0
LINE
8
CUT
10
593.3700
20
364.1504
30
0.0
11
606.7875
21
364.1504
31
0.0
0
LINE
8
CUT
10
606.7875
20
364.1504
30
0.0
11
620.2050
21
364.1504
31
0.0
0
LINE
8
CUT
10
620.2050
20
364.1504
30
0.0
11
633.6225
21
364.1504
31
0.0
0
LINE
8
CUT
10
633.6225
20
364.1504
30
0.0
11
647.0400
21
364.1504
31
0.0
0
LINE
8
CUT
10
647.0400
20
364.1504
30
0.0
11
660.4575
21
364.1504
31
0.0
0
LINE
8
CUT
10
660.4575
20
364.1504
30
0.0
11
673.8750
21
364.1504
31
0.0
0
LINE
8
CUT
10
673.8750
20
364.1504
30
0.0
11
687.2925
21
364.1504
31
0.0
0
LINE
8
CUT
10
687.2925
20
364.1504
30
0.0
11
700.7100
21
364.1504
31
0.0
0
LINE
8
CUT
10
700.7100
20
364.1504
30
0.0
11
714.1275
21
364.1504
31
0.0
0
LINE
8
CUT
10
714.1275
20
364.1504
30
0.0
11
727.5450
21
364.1504
31
0.0
0
LINE
8
CUT
10
727.5450
20
364.1504
30
0.0
11
740.9625
21
364.1504
31
0.0
0
LINE
8
CUT
10
740.9625
20
364.1504
30
0.0
11
754.3800
21
364.1504
31
0.0
0
LINE
8
CUT
10
754.3800
20
364.1504
30
0.0
11
767.7975
21
364.1504
31
0.0
0
LINE
8
CUT
10
767.7975
20
364.1504
30
0.0
11
781.2150
21
364.1504
31
0.0
0
LINE
8
CUT
10
781.2150
20
364.1504
30
0.0
11
794.6325
21
364.1504
31
0.0
0
LINE
8
CUT
10
794.6325
20
364.1504
30
0.0
11
808.0500
21
364.1504
31
0.0
0
LINE
8
CUT
10
808.0500
20
364.1504
30
0.0
11
821.4675
21
364.1504
31
0.0
0
LINE
8
CUT
10
821.4675
20
364.1504
30
0.0
11
834.8850
21
364.1504
31
0.0
0
LINE
8
CUT
10
834.8850
20
364.1504
30
0.0
11
848.3025
21
364.1504
31
0.0
0
LINE
8
CUT
10
848.3025
20
364.1504
30
0.0
11
861.7200
21
364.1504
31
0.0
0
LINE
8
CUT
10
861.7200
20
364.1504
30
0.0
11
875.1375
21
364.1504
31
0.0
0
LINE
8
CUT
10
875.1375
20
364.1504
30
0.0
11
888.5550
21
364.1504
31
0.0
0
LINE
8
CUT
10
888.5550
20
364.1504
30
0.0
11
901.9725
21
364.1504
31
0.0
0
LINE
8
CUT
10
901.9725
20
364.1504
30
0.0
11
915.3900
21
364.1504
31
0.0
0
LINE
8
CUT
10
915.3900
20
364.1504
30
0.0
11
928.8075
21
364.1504
31
0.0
0
LINE
8
CUT
10
928.8075
20
364.1504
30
0.0
11
942.2250
21
364.1504
31
0.0
0
LINE
8
CUT
10
942.2250
20
364.1504
30
0.0
11
955.6425
21
364.1504
31
0.0
0
LINE
8
CUT
10
955.6425
20
364.1504
30
0.0
11
969.0600
21
364.1504
31
0.0
0
LINE
8
CUT
10
969.0600
20
364.1504
30
0.0
11
982.4775
21
364.1504
31
0.0
0
LINE
8
CUT
10
982.4775
20
364.1504
30
0.0
11
995.8950
21
364.1504
31
0.0
0
LINE
8
CUT
10
995.8950
20
364.1504
30
0.0
11
1009.3125
21
364.1504
31
0.0
0
LINE
8
CUT
10
1009.3125
20
364.1504
30
0.0
11
1022.7300
21
364.1504
31
0.0
0
LINE
8
CUT
10
1022.7300
20
364.1504
30
0.0
11
1036.1475
21
364.1504
31
0.0
0
LINE
8
CUT
10
1036.1475
20
364.1504
30
0.0
11
1049.5650
21
364.1504
31
0.0
0
LINE
8
CUT
10
1049.5650
20
364.1504
30
0.0
11
1062.9825
21
364.1504
31
0.0
0
LINE
8
CUT
10
1062.9825
20
364.1504
30
0.0
11
1076.4000
21
364.1504
31
0.0
0
LINE
8
CUT
10
1076.4000
20
364.1504
30
0.0
11
1076.4000
21
417.8837
31
0.0
0
LINE
8
CUT
10
1076.4000
20
417.8837
30
0.0
11
1062.9825
21
417.8837
31
0.0
0
LINE
8
CUT
10
1062.9825
20
417.8837
30
0.0
11
1049.5650
21
417.8837
31
0.0
0
LINE
8
CUT
10
1049.5650
20
417.8837
30
0.0
11
1036.1475
21
417.8837
31
0.0
0
LINE
8
CUT
10
1036.1475
20
417.8837
30
0.0
11
1022.7300
21
417.8837
31
0.0
0
LINE
8
CUT
10
1022.7300
20
417.8837
30
0.0
11
1009.3125
21
417.8837
31
0.0
0
LINE
8
CUT
10
1009.3125
20
417.8837
30
0.0
11
995.8950
21
417.8837
31
0.0
0
LINE
8
CUT
10
995.8950
20
417.8837
30
0.0
11
982.4775
21
417.8837
31
0.0
0
LINE
8
CUT
10
982.4775
20
417.8837
30
0.0
11
969.0600
21
417.8837
31
0.0
0
LINE
8
CUT
10
969.0600
20
417.8837
30
0.0
11
955.6425
21
417.8837
31
0.0
0
LINE
8
CUT
10
955.6425
20
417.8837
30
0.0
11
942.2250
21
417.8837
31
0.0
0
LINE
8
CUT
10
942.2250
20
417.8837
30
0.0
11
928.8075
21
417.8837
31
0.0
0
LINE
8
CUT
10
928.8075
20
417.8837
30
0.0
11
915.3900
21
417.8837
31
0.0
0
LINE
8
CUT
10
915.3900
20
417.8837
30
0.0
11
901.9725
21
417.8837
31
0.0
0
LINE
8
CUT
10
901.9725
20
417.8837
30
0.0
11
888.5550
21
417.8837
31
0.0
0
LINE
8
CUT
10
888.5550
20
417.8837
30
0.0
11
875.1375
21
417.8837
31
0.0
0
LINE
8
CUT
10
875.1375
20
417.8837
30
0.0
11
861.7200
21
417.8837
31
0.0
0
LINE
8
CUT
10
861.7200
20
417.8837
30
0.0
11
848.3025
21
417.8837
31
0.0
0
LINE
8
CUT
10
848.3025
20
417.8837
30
0.0
11
834.8850
21
417.8837
31
0.0
0
LINE
8
CUT
10
834.8850
20
417.8837
30
0.0
11
821.4675
21
417.8837
31
0.0
0
LINE
8
CUT
10
821.4675
20
417.8837
30
0.0
11
808.0500
21
417.8837
31
0.0
0
LINE
8
CUT
10
808.0500
20
417.8837
30
0.0
11
794.6325
21
417.8837
31
0.0
0
LINE
8
CUT
10
794.6325
20
417.8837
30
0.0
11
781.2150
21
417.8837
31
0.0
0
LINE
8
CUT
10
781.2150
20
417.8837
30
0.0
11
767.7975
21
417.8837
31
0.0
0
LINE
8
CUT
10
767.7975
20
417.8837
30
0.0
11
754.3800
21
417.8837
31
0.0
0
LINE
8
CUT
10
754.3800
20
417.8837
30
0.0
11
740.9625
21
417.8837
31
0.0
0
LINE
8
CUT
10
740.9625
20
417.8837
30
0.0
11
727.5450
21
417.8837
31
0.0
0
LINE
8
CUT
10
727.5450
20
417.8837
30
0.0
11
714.1275
21
417.8837
31
0.0
0
LINE
8
CUT
10
714.1275
20
417.8837
30
0.0
11
700.7100
21
417.8837
31
0.0
0
LINE
8
CUT
10
700.7100
20
417.8837
30
0.0
11
687.2925
21
417.8837
31
0.0
0
LINE
8
CUT
10
687.2925
20
417.8837
30
0.0
11
673.8750
21
417.8837
31
0.0
0
LINE
8
CUT
10
673.8750
20
417.8837
30
0.0
11
660.4575
21
417.8837
31
0.0
0
LINE
8
CUT
10
660.4575
20
417.8837
30
0.0
11
647.0400
21
417.8837
31
0.0
0
LINE
8
CUT
10
647.0400
20
417.8837
30
0.0
11
633.6225
21
417.8837
31
0.0
0
LINE
8
CUT
10
633.6225
20
417.8837
30
0.0
11
620.2050
21
417.8837
31
0.0
0
LINE
8
CUT
10
620.2050
20
417.8837
30
0.0
11
606.7875
21
417.8837
31
0.0
0
LINE
8
CUT
10
606.7875
20
417.8837
30
0.0
11
593.3700
21
417.8837
31
0.0
0
LINE
8
CUT
10
593.3700
20
417.8837
30
0.0
11
579.9525
21
417.8837
31
0.0
0
LINE
8
CUT
10
579.9525
20
417.8837
30
0.0
11
566.5350
21
417.8837
31
0.0
0
LINE
8
CUT
10
566.5350
20
417.8837
30
0.0
11
553.1175
21
417.8837
31
0.0
0
LINE
8
CUT
10
553.1175
20
417.8837
30
0.0
11
539.7000
21
417.8837
31
0.0
0
LINE
8
CUT
10
539.7000
20
417.8837
30
0.0
11
539.7000
21
364.1504
31
0.0
0
LINE
8
CUT
10
539.7000
20
364.1504
30
0.0
11
539.7000
21
364.1504
31
0.0
0
ENDSEC
0
EOF
