0
SECTION
2
ENTITIES
0
LINE
8
CHANNEL
10
0.0000
20
0.0000
30
0.0
11
2400.0000
21
0.0000
31
0.0
0
LINE
8
CHANNEL
10
2400.0000
20
0.0000
30
0.0
11
2400.0000
21
600.0000
31
0.0
0
LINE
8
CHANNEL
10
2400.0000
20
600.0000
30
0.0
11
0.0000
21
600.0000
31
0.0
0
LINE
8
CHANNEL
10
0.0000
20
600.0000
30
0.0
11
0.0000
21
0.0000
31
0.0
0
LINE
8
CHANNEL
10
0.0000
20
0.0000
30
0.0
11
0.0000
21
0.0000
31
0.0
0
LINE
8
CUT
10
0.0000
20
308.9000
30
0.0
11
4.8827
21
325.1555
31
0.0
0
LINE
8
CUT
10
4.8827
20
325.1555
30
0.0
11
9.7655
21
330.8271
31
0.0
0
LINE
8
CUT
10
9.7655
20
330.8271
30
0.0
11
14.6482
21
334.3887
31
0.0
0
LINE
8
CUT
10
14.6482
20
334.3887
30
0.0
11
19.5309
21
336.6645
31
0.0
0
LINE
8
CUT
10
19.5309
20
336.6645
30
0.0
11
24.4136
21
337.9582
31
0.0
0
LINE
8
CUT
10
24.4136
20
337.9582
30
0.0
11
29.2964
21
338.3993
31
0.0
0
LINE
8
CUT
10
29.2964
20
338.3993
30
0.0
11
34.1791
21
338.4000
31
0.0
0
LINE
8
CUT
10
34.1791
20
338.4000
30
0.0
11
39.0618
21
338.4000
31
0.0
0
LINE
8
CUT
10
39.0618
20
338.4000
30
0.0
11
43.9445
21
338.4000
31
0.0
0
LINE
8
CUT
10
43.9445
20
338.4000
30
0.0
11
48.8273
21
338.4000
31
0.0
0
LINE
8
CUT
10
48.8273
20
338.4000
30
0.0
11
53.7100
21
338.4000
31
0.0
0
LINE
8
CUT
10
53.7100
20
338.4000
30
0.0
11
58.5927
21
338.4000
31
0.0
0
LINE
8
CUT
10
58.5927
20
338.4000
30
0.0
11
63.4755
21
338.4000
31
0.0
0
LINE
8
CUT
10
63.4755
20
338.4000
30
0.0
11
68.3582
21
338.4000
31
0.0
0
LINE
8
CUT
10
68.3582
20
338.4000
30
0.0
11
73.2409
21
338.4000
31
0.0
0
LINE
8
CUT
10
73.2409
20
338.4000
30
0.0
11
78.1236
21
338.4000
31
0.0
0
LINE
8
CUT
10
78.1236
20
338.4000
30
0.0
11
83.0064
21
338.4000
31
0.0
0
LINE
8
CUT
10
83.0064
20
338.4000
30
0.0
11
87.8891
21
338.4000
31
0.0
0
LINE
8
CUT
10
87.8891
20
338.4000
30
0.0
11
92.7718
21
338.4000
31
0.0
0
LINE
8
CUT
10
92.7718
20
338.4000
30
0.0
11
97.6545
21
338.4000
31
0.0
0
LINE
8
CUT
10
97.6545
20
338.4000
30
0.0
11
102.5373
21
338.4000
31
0.0
0
LINE
8
CUT
10
102.5373
20
338.4000
30
0.0
11
107.4200
21
338.4000
31
0.0
0
LINE
8
CUT
10
107.4200
20
338.4000
30
0.0
11
112.3027
21
338.4000
31
0.0
0
LINE
8
CUT
10
112.3027
20
338.4000
30
0.0
11
117.1855
21
338.4000
31
0.0
0
LINE
8
CUT
10
117.1855
20
338.4000
30
0.0
11
122.0682
21
338.4000
31
0.0
0
LINE
8
CUT
10
122.0682
20
338.4000
30
0.0
11
126.9509
21
338.4000
31
0.0
0
LINE
8
CUT
10
126.9509
20
338.4000
30
0.0
11
131.8336
21
338.4000
31
0.0
0
LINE
8
CUT
10
131.8336
20
338.4000
30
0.0
11
136.7164
21
338.4000
31
0.0
0
LINE
8
CUT
10
136.7164
20
338.4000
30
0.0
11
141.5991
21
338.4000
31
0.0
0
LINE
8
CUT
10
141.5991
20
338.4000
30
0.0
11
146.4818
21
338.4000
31
0.0
0
LINE
8
CUT
10
146.4818
20
338.4000
30
0.0
11
151.3645
21
338.4000
31
0.0
0
LINE
8
CUT
10
151.3645
20
338.4000
30
0.0
11
156.2473
21
338.4000
31
0.0
0
LINE
8
CUT
10
156.2473
20
338.4000
30
0.0
11
161.1300
21
338.4000
31
0.0
0
LINE
8
CUT
10
161.1300
20
338.4000
30
0.0
11
166.0127
21
338.4000
31
0.0
0
LINE
8
CUT
10
166.0127
20
338.4000
30
0.0
11
170.8955
21
338.4000
31
0.0
0
LINE
8
CUT
10
170.8955
20
338.4000
30
0.0
11
175.7782
21
338.4000
31
0.0
0
LINE
8
CUT
10
175.7782
20
338.4000
30
0.0
11
180.6609
21
338.4000
31
0.0
0
LINE
8
CUT
10
180.6609
20
338.4000
30
0.0
11
185.5436
21
338.4000
31
0.0
0
LINE
8
CUT
10
185.5436
20
338.4000
30
0.0
11
190.4264
21
338.4000
31
0.0
0
LINE
8
CUT
10
190.4264
20
338.4000
30
0.0
11
195.3091
21
338.4000
31
0.0
0
LINE
8
CUT
10
195.3091
20
338.4000
30
0.0
11
200.1918
21
338.4000
31
0.0
0
LINE
8
CUT
10
200.1918
20
338.4000
30
0.0
11
205.0745
21
338.4000
31
0.0
0
LINE
8
CUT
10
205.0745
20
338.4000
30
0.0
11
209.9573
21
338.4000
31
0.0
0
LINE
8
CUT
10
209.9573
20
338.4000
30
0.0
11
214.8400
21
338.4000
31
0.0
0
LINE
8
CUT
10
214.8400
20
338.4000
30
0.0
11
219.7227
21
338.4000
31
0.0
0
LINE
8
CUT
10
219.7227
20
338.4000
30
0.0
11
224.6055
21
338.4000
31
0.0
0
LINE
8
CUT
10
224.6055
20
338.4000
30
0.0
11
229.4882
21
338.4000
31
0.0
0
LINE
8
CUT
10
229.4882
20
338.4000
30
0.0
11
234.3709
21
338.4000
31
0.0
0
LINE
8
CUT
10
234.3709
20
338.4000
30
0.0
11
239.2536
21
338.4000
31
0.0
0
LINE
8
CUT
10
239.2536
20
338.4000
30
0.0
11
244.1364
21
338.4000
31
0.0
0
LINE
8
CUT
10
244.1364
20
338.4000
30
0.0
11
249.0191
21
338.4000
31
0.0
0
LINE
8
CUT
10
249.0191
20
338.4000
30
0.0
11
253.9018
21
338.4000
31
0.0
0
LINE
8
CUT
10
253.9018
20
338.4000
30
0.0
11
258.7845
21
338.4000
31
0.0
0
LINE
8
CUT
10
258.7845
20
338.4000
30
0.0
11
263.6673
21
338.4000
31
0.0
0
LINE
8
CUT
10
263.6673
20
338.4000
30
0.0
11
268.5500
21
338.4000
31
0.0
0
LINE
8
CUT
10
268.5500
20
338.4000
30
0.0
11
273.4327
21
338.4000
31
0.0
0
LINE
8
CUT
10
273.4327
20
338.4000
30
0.0
11
278.3155
21
338.4000
31
0.0
0
LINE
8
CUT
10
278.3155
20
338.4000
30
0.0
11
283.1982
21
338.4000
31
0.0
0
LINE
8
CUT
10
283.1982
20
338.4000
30
0.0
11
288.0809
21
338.4000
31
0.0
0
LINE
8
CUT
10
288.0809
20
338.4000
30
0.0
11
292.9636
21
338.4000
31
0.0
0
LINE
8
CUT
10
292.9636
20
338.4000
30
0.0
11
297.8464
21
338.4000
31
0.0
0
LINE
8
CUT
10
297.8464
20
338.4000
30
0.0
11
302.7291
21
338.4000
31
0.0
0
LINE
8
CUT
10
302.7291
20
338.4000
30
0.0
11
307.6118
21
338.4000
31
0.0
0
LINE
8
CUT
10
307.6118
20
338.4000
30
0.0
11
312.4945
21
338.4000
31
0.0
0
LINE
8
CUT
10
312.4945
20
338.4000
30
0.0
11
317.3773
21
338.4000
31
0.0
0
LINE
8
CUT
10
317.3773
20
338.4000
30
0.0
11
322.2600
21
338.4000
31
0.0
0
LINE
8
CUT
10
322.2600
20
338.4000
30
0.0
11
327.1427
21
338.4000
31
0.0
0
LINE
8
CUT
10
327.1427
20
338.4000
30
0.0
11
332.0255
21
338.4000
31
0.0
0
LINE
8
CUT
10
332.0255
20
338.4000
30
0.0
11
336.9082
21
338.4000
31
0.0
0
LINE
8
CUT
10
336.9082
20
338.4000
30
0.0
11
341.7909
21
338.4000
31
0.0
0
LINE
8
CUT
10
341.7909
20
338.4000
30
0.0
11
346.6736
21
338.4000
31
0.0
0
LINE
8
CUT
10
346.6736
20
338.4000
30
0.0
11
351.5564
21
338.4000
31
0.0
0
LINE
8
CUT
10
351.5564
20
338.4000
30
0.0
11
356.4391
21
338.4000
31
0.0
0
LINE
8
CUT
10
356.4391
20
338.4000
30
0.0
11
361.3218
21
338.4000
31
0.0
0
LINE
8
CUT
10
361.3218
20
338.4000
30
0.0
11
366.2045
21
338.4000
31
0.0
0
LINE
8
CUT
10
366.2045
20
338.4000
30
0.0
11
371.0873
21
338.4000
31
0.0
0
LINE
8
CUT
10
371.0873
20
338.4000
30
0.0
11
375.9700
21
338.4000
31
0.0
0
LINE
8
CUT
10
375.9700
20
338.4000
30
0.0
11
380.8527
21
338.4000
31
0.0
0
LINE
8
CUT
10
380.8527
20
338.4000
30
0.0
11
385.7355
21
338.4000
31
0.0
0
LINE
8
CUT
10
385.7355
20
338.4000
30
0.0
11
390.6182
21
338.4000
31
0.0
0
LINE
8
CUT
10
390.6182
20
338.4000
30
0.0
11
395.5009
21
338.4000
31
0.0
0
LINE
8
CUT
10
395.5009
20
338.4000
30
0.0
11
400.3836
21
338.4000
31
0.0
0
LINE
8
CUT
10
400.3836
20
338.4000
30
0.0
11
405.2664
21
338.4000
31
0.0
0
LINE
8
CUT
10
405.2664
20
338.4000
30
0.0
11
410.1491
21
338.4000
31
0.0
0
LINE
8
CUT
10
410.1491
20
338.4000
30
0.0
11
415.0318
21
338.4000
31
0.0
0
LINE
8
CUT
10
415.0318
20
338.4000
30
0.0
11
419.9145
21
338.4000
31
0.0
0
LINE
8
CUT
10
419.9145
20
338.4000
30
0.0
11
424.7973
21
338.4000
31
0.0
0
LINE
8
CUT
10
424.7973
20
338.4000
30
0.0
11
429.6800
21
338.4000
31
0.0
0
LINE
8
CUT
10
429.6800
20
338.4000
30
0.0
11
434.5627
21
338.4000
31
0.0
0
LINE
8
CUT
10
434.5627
20
338.4000
30
0.0
11
439.4455
21
338.4000
31
0.0
0
LINE
8
CUT
10
439.4455
20
338.4000
30
0.0
11
444.3282
21
338.4000
31
0.0
0
LINE
8
CUT
10
444.3282
20
338.4000
30
0.0
11
449.2109
21
338.4000
31
0.0
0
LINE
8
CUT
10
449.2109
20
338.4000
30
0.0
11
454.0936
21
338.4000
31
0.0
0
LINE
8
CUT
10
454.0936
20
338.4000
30
0.0
11
458.9764
21
338.4000
31
0.0
0
LINE
8
CUT
10
458.9764
20
338.4000
30
0.0
11
463.8591
21
338.4000
31
0.0
0
LINE
8
CUT
10
463.8591
20
338.4000
30
0.0
11
468.7418
21
338.4000
31
0.0
0
LINE
8
CUT
10
468.7418
20
338.4000
30
0.0
11
473.6245
21
338.4000
31
0.0
0
LINE
8
CUT
10
473.6245
20
338.4000
30
0.0
11
478.5073
21
338.4000
31
0.0
0
LINE
8
CUT
10
478.5073
20
338.4000
30
0.0
11
483.3900
21
338.4000
31
0.0
0
LINE
8
CUT
10
483.3900
20
338.4000
30
0.0
11
488.2727
21
338.4000
31
0.0
0
LINE
8
CUT
10
488.2727
20
338.4000
30
0.0
11
493.1555
21
338.4000
31
0.0
0
LINE
8
CUT
10
493.1555
20
338.4000
30
0.0
11
498.0382
21
338.4000
31
0.0
0
LINE
8
CUT
10
498.0382
20
338.4000
30
0.0
11
502.9209
21
338.4000
31
0.0
0
LINE
8
CUT
10
502.9209
20
338.4000
30
0.0
11
507.8036
21
338.3993
31
0.0
0
LINE
8
CUT
10
507.8036
20
338.3993
30
0.0
11
512.6864
21
337.9582
31
0.0
0
LINE
8
CUT
10
512.6864
20
337.9582
30
0.0
11
517.5691
21
336.6645
31
0.0
0
LINE
8
CUT
10
517.5691
20
336.6645
30
0.0
11
522.4518
21
334.3887
31
0.0
0
LINE
8
CUT
10
522.4518
20
334.3887
30
0.0
11
527.3345
21
330.8271
31
0.0
0
LINE
8
CUT
10
527.3345
20
330.8271
30
0.0
11
532.2173
21
325.1555
31
0.0
0
LINE
8
CUT
10
532.2173
20
325.1555
30
0.0
11
537.1000
21
308.9000
31
0.0
0
LINE
8
CUT
10
537.1000
20
308.9000
30
0.0
11
537.1000
21
29.5000
31
0.0
0
LINE
8
CUT
10
537.1000
20
29.5000
30
0.0
11
532.2173
21
13.2445
31
0.0
0
LINE
8
CUT
10
532.2173
20
13.2445
30
0.0
11
527.3345
21
7.5729
31
0.0
0
LINE
8
CUT
10
527.3345
20
7.5729
30
0.0
11
522.4518
21
4.0113
31
0.0
0
LINE
8
CUT
10
522.4518
20
4.0113
30
0.0
11
517.5691
21
1.7355
31
0.0
0
LINE
8
CUT
10
517.5691
20
1.7355
30
0.0
11
512.6864
21
0.4418
31
0.0
0
LINE
8
CUT
10
512.6864
20
0.4418
30
0.0
11
507.8036
21
0.0007
31
0.0
0
LINE
8
CUT
10
507.8036
20
0.0007
30
0.0
11
502.9209
21
0.0000
31
0.0
0
LINE
8
CUT
10
502.9209
20
0.0000
30
0.0
11
498.0382
21
0.0000
31
0.0
0
LINE
8
CUT
10
498.0382
20
0.0000
30
0.0
11
493.1555
21
0.0000
31
0.0
0
LINE
8
CUT
10
493.1555
20
0.0000
30
0.0
11
488.2727
21
0.0000
31
0.0
0
LINE
8
CUT
10
488.2727
20
0.0000
30
0.0
11
483.3900
21
0.0000
31
0.0
0
LINE
8
CUT
10
483.3900
20
0.0000
30
0.0
11
478.5073
21
0.0000
31
0.0
0
LINE
8
CUT
10
478.5073
20
0.0000
30
0.0
11
473.6245
21
0.0000
31
0.0
0
LINE
8
CUT
10
473.6245
20
0.0000
30
0.0
11
468.7418
21
0.0000
31
0.0
0
LINE
8
CUT
10
468.7418
20
0.0000
30
0.0
11
463.8591
21
0.0000
31
0.0
0
LINE
8
CUT
10
463.8591
20
0.0000
30
0.0
11
458.9764
21
0.0000
31
0.0
0
LINE
8
CUT
10
458.9764
20
0.0000
30
0.0
11
454.0936
21
0.0000
31
0.0
0
LINE
8
CUT
10
454.0936
20
0.0000
30
0.0
11
449.2109
21
0.0000
31
0.0
0
LINE
8
CUT
10
449.2109
20
0.0000
30
0.0
11
444.3282
21
0.0000
31
0.0
0
LINE
8
CUT
10
444.3282
20
0.0000
30
0.0
11
439.4455
21
0.0000
31
0.0
0
LINE
8
CUT
10
439.4455
20
0.0000
30
0.0
11
434.5627
21
0.0000
31
0.0
0
LINE
8
CUT
10
434.5627
20
0.0000
30
0.0
11
429.6800
21
0.0000
31
0.0
0
LINE
8
CUT
10
429.6800
20
0.0000
30
0.0
11
424.7973
21
0.0000
31
0.0
0
LINE
8
CUT
10
424.7973
20
0.0000
30
0.0
11
419.9145
21
0.0000
31
0.0
0
LINE
8
CUT
10
419.9145
20
0.0000
30
0.0
11
415.0318
21
0.0000
31
0.0
0
LINE
8
CUT
10
415.0318
20
0.0000
30
0.0
11
410.1491
21
0.0000
31
0.0
0
LINE
8
CUT
10
410.1491
20
0.0000
30
0.0
11
405.2664
21
0.0000
31
0.0
0
LINE
8
CUT
10
405.2664
20
0.0000
30
0.0
11
400.3836
21
0.0000
31
0.0
0
LINE
8
CUT
10
400.3836
20
0.0000
30
0.0
11
395.5009
21
0.0000
31
0.0
0
LINE
8
CUT
10
395.5009
20
0.0000
30
0.0
11
390.6182
21
0.0000
31
0.0
0
LINE
8
CUT
10
390.6182
20
0.0000
30
0.0
11
385.7355
21
0.0000
31
0.0
0
LINE
8
CUT
10
385.7355
20
0.0000
30
0.0
11
380.8527
21
0.0000
31
0.0
0
LINE
8
CUT
10
380.8527
20
0.0000
30
0.0
11
375.9700
21
0.0000
31
0.0
0
LINE
8
CUT
10
375.9700
20
0.0000
30
0.0
11
371.0873
21
0.0000
31
0.0
0
LINE
8
CUT
10
371.0873
20
0.0000
30
0.0
11
366.2045
21
0.0000
31
0.0
0
LINE
8
CUT
10
366.2045
20
0.0000
30
0.0
11
361.3218
21
0.0000
31
0.0
0
LINE
8
CUT
10
361.3218
20
0.0000
30
0.0
11
356.4391
21
0.0000
31
0.0
0
LINE
8
CUT
10
356.4391
20
0.0000
30
0.0
11
351.5564
21
0.0000
31
0.0
0
LINE
8
CUT
10
351.5564
20
0.0000
30
0.0
11
346.6736
21
0.0000
31
0.0
0
LINE
8
CUT
10
346.6736
20
0.0000
30
0.0
11
341.7909
21
0.0000
31
0.0
0
LINE
8
CUT
10
341.7909
20
0.0000
30
0.0
11
336.9082
21
0.0000
31
0.0
0
LINE
8
CUT
10
336.9082
20
0.0000
30
0.0
11
332.0255
21
0.0000
31
0.0
0
LINE
8
CUT
10
332.0255
20
0.0000
30
0.0
11
327.1427
21
0.0000
31
0.0
0
LINE
8
CUT
10
327.1427
20
0.0000
30
0.0
11
322.2600
21
0.0000
31
0.0
0
LINE
8
CUT
10
322.2600
20
0.0000
30
0.0
11
317.3773
21
0.0000
31
0.0
0
LINE
8
CUT
10
317.3773
20
0.0000
30
0.0
11
312.4945
21
0.0000
31
0.0
0
LINE
8
CUT
10
312.4945
20
0.0000
30
0.0
11
307.6118
21
0.0000
31
0.0
0
LINE
8
CUT
10
307.6118
20
0.0000
30
0.0
11
302.7291
21
0.0000
31
0.0
0
LINE
8
CUT
10
302.7291
20
0.0000
30
0.0
11
297.8464
21
0.0000
31
0.0
0
LINE
8
CUT
10
297.8464
20
0.0000
30
0.0
11
292.9636
21
0.0000
31
0.0
0
LINE
8
CUT
10
292.9636
20
0.0000
30
0.0
11
288.0809
21
0.0000
31
0.0
0
LINE
8
CUT
10
288.0809
20
0.0000
30
0.0
11
283.1982
21
0.0000
31
0.0
0
LINE
8
CUT
10
283.1982
20
0.0000
30
0.0
11
278.3155
21
0.0000
31
0.0
0
LINE
8
CUT
10
278.3155
20
0.0000
30
0.0
11
273.4327
21
0.0000
31
0.0
0
LINE
8
CUT
10
273.4327
20
0.0000
30
0.0
11
268.5500
21
0.0000
31
0.0
0
LINE
8
CUT
10
268.5500
20
0.0000
30
0.0
11
263.6673
21
0.0000
31
0.0
0
LINE
8
CUT
10
263.6673
20
0.0000
30
0.0
11
258.7845
21
0.0000
31
0.0
0
LINE
8
CUT
10
258.7845
20
0.0000
30
0.0
11
253.9018
21
0.0000
31
0.0
0
LINE
8
CUT
10
253.9018
20
0.0000
30
0.0
11
249.0191
21
0.0000
31
0.0
0
LINE
8
CUT
10
249.0191
20
0.0000
30
0.0
11
244.1364
21
0.0000
31
0.0
0
LINE
8
CUT
10
244.1364
20
0.0000
30
0.0
11
239.2536
21
0.0000
31
0.0
0
LINE
8
CUT
10
239.2536
20
0.0000
30
0.0
11
234.3709
21
0.0000
31
0.0
0
LINE
8
CUT
10
234.3709
20
0.0000
30
0.0
11
229.4882
21
0.0000
31
0.0
0
LINE
8
CUT
10
229.4882
20
0.0000
30
0.0
11
224.6055
21
0.0000
31
0.0
0
LINE
8
CUT
10
224.6055
20
0.0000
30
0.0
11
219.7227
21
0.0000
31
0.0
0
LINE
8
CUT
10
219.7227
20
0.0000
30
0.0
11
214.8400
21
0.0000
31
0.0
0
LINE
8
CUT
10
214.8400
20
0.0000
30
0.0
11
209.9573
21
0.0000
31
0.0
0
LINE
8
CUT
10
209.9573
20
0.0000
30
0.0
11
205.0745
21
0.0000
31
0.0
0
LINE
8
CUT
10
205.0745
20
0.0000
30
0.0
11
200.1918
21
0.0000
31
0.0
0
LINE
8
CUT
10
200.1918
20
0.0000
30
0.0
11
195.3091
21
0.0000
31
0.0
0
LINE
8
CUT
10
195.3091
20
0.0000
30
0.0
11
190.4264
21
0.0000
31
0.0
0
LINE
8
CUT
10
190.4264
20
0.0000
30
0.0
11
185.5436
21
0.0000
31
0.0
0
LINE
8
CUT
10
185.5436
20
0.0000
30
0.0
11
180.6609
21
0.0000
31
0.0
0
LINE
8
CUT
10
180.6609
20
0.0000
30
0.0
11
175.7782
21
0.0000
31
0.0
0
LINE
8
CUT
10
175.7782
20
0.0000
30
0.0
11
170.8955
21
0.0000
31
0.0
0
LINE
8
CUT
10
170.8955
20
0.0000
30
0.0
11
166.0127
21
0.0000
31
0.0
0
LINE
8
CUT
10
166.0127
20
0.0000
30
0.0
11
161.1300
21
0.0000
31
0.0
0
LINE
8
CUT
10
161.1300
20
0.0000
30
0.0
11
156.2473
21
0.0000
31
0.0
0
LINE
8
CUT
10
156.2473
20
0.0000
30
0.0
11
151.3645
21
0.0000
31
0.0
0
LINE
8
CUT
10
151.3645
20
0.0000
30
0.0
11
146.4818
21
0.0000
31
0.0
0
LINE
8
CUT
10
146.4818
20
0.0000
30
0.0
11
141.5991
21
0.0000
31
0.0
0
LINE
8
CUT
10
141.5991
20
0.0000
30
0.0
11
136.7164
21
0.0000
31
0.0
0
LINE
8
CUT
10
136.7164
20
0.0000
30
0.0
11
131.8336
21
0.0000
31
0.0
0
LINE
8
CUT
10
131.8336
20
0.0000
30
0.0
11
126.9509
21
0.0000
31
0.0
0
LINE
8
CUT
10
126.9509
20
0.0000
30
0.0
11
122.0682
21
0.0000
31
0.0
0
LINE
8
CUT
10
122.0682
20
0.0000
30
0.0
11
117.1855
21
0.0000
31
0.0
0
LINE
8
CUT
10
117.1855
20
0.0000
30
0.0
11
112.3027
21
0.0000
31
0.0
0
LINE
8
CUT
10
112.3027
20
0.0000
30
0.0
11
107.4200
21
0.0000
31
0.0
0
LINE
8
CUT
10
107.4200
20
0.0000
30
0.0
11
102.5373
21
0.0000
31
0.0
0
LINE
8
CUT
10
102.5373
20
0.0000
30
0.0
11
97.6545
21
0.0000
31
0.0
0
LINE
8
CUT
10
97.6545
20
0.0000
30
0.0
11
92.7718
21
0.0000
31
0.0
0
LINE
8
CUT
10
92.7718
20
0.0000
30
0.0
11
87.8891
21
0.0000
31
0.0
0
LINE
8
CUT
10
87.8891
20
0.0000
30
0.0
11
83.0064
21
0.0000
31
0.0
0
LINE
8
CUT
10
83.0064
20
0.0000
30
0.0
11
78.1236
21
0.0000
31
0.0
0
LINE
8
CUT
10
78.1236
20
0.0000
30
0.0
11
73.2409
21
0.0000
31
0.0
0
LINE
8
CUT
10
73.2409
20
0.0000
30
0.0
11
68.3582
21
0.0000
31
0.0
0
LINE
8
CUT
10
68.3582
20
0.0000
30
0.0
11
63.4755
21
0.0000
31
0.0
0
LINE
8
CUT
10
63.4755
20
0.0000
30
0.0
11
58.5927
21
0.0000
31
0.0
0
LINE
8
CUT
10
58.5927
20
0.0000
30
0.0
11
53.7100
21
0.0000
31
0.0
0
LINE
8
CUT
10
53.7100
20
0.0000
30
0.0
11
48.8273
21
0.0000
31
0.0
0
LINE
8
CUT
10
48.8273
20
0.0000
30
0.0
11
43.9445
21
0.0000
31
0.0
0
LINE
8
CUT
10
43.9445
20
0.0000
30
0.0
11
39.0618
21
0.0000
31
0.0
0
LINE
8
CUT
10
39.0618
20
0.0000
30
0.0
11
34.1791
21
0.0000
31
0.0
0
LINE
8
CUT
10
34.1791
20
0.0000
30
0.0
11
29.2964
21
0.0007
31
0.0
0
LINE
8
CUT
10
29.2964
20
0.0007
30
0.0
11
24.4136
21
0.4418
31
0.0
0
LINE
8
CUT
10
24.4136
20
0.4418
30
0.0
11
19.5309
21
1.7355
31
0.0
0
LINE
8
CUT
10
19.5309
20
1.7355
30
0.0
11
14.6482
21
4.0113
31
0.0
0
LINE
8
CUT
10
14.6482
20
4.0113
30
0.0
11
9.7655
21
7.5729
31
0.0
0
LINE
8
CUT
10
9.7655
20
7.5729
30
0.0
11
4.8827
21
13.2445
31
0.0
0
LINE
8
CUT
10
4.8827
20
13.2445
30
0.0
11
0.0000
21
29.5000
31
0.0
0
LINE
8
CUT
10
0.0000
20
29.5000
30
0.0
11
0.0000
21
308.9000
31
0.0
0
LINE
8
CUT
10
0.0000
20
308.9000
30
0.0
11
0.0000
21
308.9000
31
0.0
0
LINE
8
CUT
10
545.1000
20
281.7654
30
0.0
11
546.6627
21
292.7360
31
0.0
0
LINE
8
CUT
10
546.6627
20
292.7360
30
0.0
11
548.2255
21
296.6670
31
0.0
0
LINE
8
CUT
10
548.2255
20
296.6670
30
0.0
11
549.7882
21
299.3916
31
0.0
0
LINE
8
CUT
10
549.7882
20
299.3916
30
0.0
11
551.3509
21
301.4710
31
0.0
0
LINE
8
CUT
10
551.3509
20
301.4710
30
0.0
11
552.9136
21
303.1246
31
0.0
0
LINE
8
CUT
10
552.9136
20
303.1246
30
0.0
11
554.4764
21
304.4653
31
0.0
0
LINE
8
CUT
10
554.4764
20
304.4653
30
0.0
11
556.0391
21
305.5609
31
0.0
0
LINE
8
CUT
10
556.0391
20
305.5609
30
0.0
11
557.6018
21
306.4556
31
0.0
0
LINE
8
CUT
10
557.6018
20
306.4556
30
0.0
11
559.1645
21
307.1803
31
0.0
0
LINE
8
CUT
10
559.1645
20
307.1803
30
0.0
11
560.7273
21
307.7576
31
0.0
0
LINE
8
CUT
10
560.7273
20
307.7576
30
0.0
11
562.2900
21
308.2044
31
0.0
0
LINE
8
CUT
10
562.2900
20
308.2044
30
0.0
11
563.8527
21
308.5341
31
0.0
0
LINE
8
CUT
10
563.8527
20
308.5341
30
0.0
11
565.4155
21
308.7572
31
0.0
0
LINE
8
CUT
10
565.4155
20
308.7572
30
0.0
11
566.9782
21
308.8820
31
0.0
0
LINE
8
CUT
10
566.9782
20
308.8820
30
0.0
11
568.5409
21
308.9157
31
0.0
0
LINE
8
CUT
10
568.5409
20
308.9157
30
0.0
11
570.1036
21
308.8638
31
0.0
0
LINE
8
CUT
10
570.1036
20
308.8638
30
0.0
11
571.6664
21
308.7313
31
0.0
0
LINE
8
CUT
10
571.6664
20
308.7313
30
0.0
11
573.2291
21
308.5222
31
0.0
0
LINE
8
CUT
10
573.2291
20
308.5222
30
0.0
11
574.7918
21
308.2399
31
0.0
0
LINE
8
CUT
10
574.7918
20
308.2399
30
0.0
11
576.3545
21
307.8872
31
0.0
0
LINE
8
CUT
10
576.3545
20
307.8872
30
0.0
11
577.9173
21
307.4666
31
0.0
0
LINE
8
CUT
10
577.9173
20
307.4666
30
0.0
11
579.4800
21
306.9802
31
0.0
0
LINE
8
CUT
10
579.4800
20
306.9802
30
0.0
11
581.0427
21
306.4297
31
0.0
0
LINE
8
CUT
10
581.0427
20
306.4297
30
0.0
11
582.6055
21
305.8165
31
0.0
0
LINE
8
CUT
10
582.6055
20
305.8165
30
0.0
11
584.1682
21
305.1418
31
0.0
0
LINE
8
CUT
10
584.1682
20
305.1418
30
0.0
11
585.7309
21
304.4065
31
0.0
0
LINE
8
CUT
10
585.7309
20
304.4065
30
0.0
11
587.2936
21
303.6113
31
0.0
0
LINE
8
CUT
10
587.2936
20
303.6113
30
0.0
11
588.8564
21
302.7567
31
0.0
0
LINE
8
CUT
10
588.8564
20
302.7567
30
0.0
11
590.4191
21
301.8441
31
0.0
0
LINE
8
CUT
10
590.4191
20
301.8441
30
0.0
11
591.9818
21
300.9096
31
0.0
0
LINE
8
CUT
10
591.9818
20
300.9096
30
0.0
11
593.5445
21
299.9705
31
0.0
0
LINE
8
CUT
10
593.5445
20
299.9705
30
0.0
11
595.1073
21
299.0266
31
0.0
0
LINE
8
CUT
10
595.1073
20
299.0266
30
0.0
11
596.6700
21
298.0781
31
0.0
0
LINE
8
CUT
10
596.6700
20
298.0781
30
0.0
11
598.2327
21
297.1250
31
0.0
0
LINE
8
CUT
10
598.2327
20
297.1250
30
0.0
11
599.7955
21
296.1674
31
0.0
0
LINE
8
CUT
10
599.7955
20
296.1674
30
0.0
11
601.3582
21
295.2052
31
0.0
0
LINE
8
CUT
10
601.3582
20
295.2052
30
0.0
11
602.9209
21
294.2385
31
0.0
0
LINE
8
CUT
10
602.9209
20
294.2385
30
0.0
11
604.4836
21
293.2673
31
0.0
0
LINE
8
CUT
10
604.4836
20
293.2673
30
0.0
11
606.0464
21
292.2917
31
0.0
0
LINE
8
CUT
10
606.0464
20
292.2917
30
0.0
11
607.6091
21
291.3117
31
0.0
0
LINE
8
CUT
10
607.6091
20
291.3117
30
0.0
11
609.1718
21
290.3273
31
0.0
0
LINE
8
CUT
10
609.1718
20
290.3273
30
0.0
11
610.7345
21
289.3385
31
0.0
0
LINE
8
CUT
10
610.7345
20
289.3385
30
0.0
11
612.2973
21
288.3455
31
0.0
0
LINE
8
CUT
10
612.2973
20
288.3455
30
0.0
11
613.8600
21
287.3482
31
0.0
0
LINE
8
CUT
10
613.8600
20
287.3482
30
0.0
11
615.4227
21
286.3467
31
0.0
0
LINE
8
CUT
10
615.4227
20
286.3467
30
0.0
11
616.9855
21
285.3410
31
0.0
0
LINE
8
CUT
10
616.9855
20
285.3410
30
0.0
11
618.5482
21
284.3311
31
0.0
0
LINE
8
CUT
10
618.5482
20
284.3311
30
0.0
11
620.1109
21
283.3171
31
0.0
0
LINE
8
CUT
10
620.1109
20
283.3171
30
0.0
11
621.6736
21
282.2990
31
0.0
0
LINE
8
CUT
10
621.6736
20
282.2990
30
0.0
11
623.2364
21
281.2769
31
0.0
0
LINE
8
CUT
10
623.2364
20
281.2769
30
0.0
11
624.7991
21
280.2508
31
0.0
0
LINE
8
CUT
10
624.7991
20
280.2508
30
0.0
11
626.3618
21
279.2206
31
0.0
0
LINE
8
CUT
10
626.3618
20
279.2206
30
0.0
11
627.9245
21
278.1866
31
0.0
0
LINE
8
CUT
10
627.9245
20
278.1866
30
0.0
11
629.4873
21
277.1486
31
0.0
0
LINE
8
CUT
10
629.4873
20
277.1486
30
0.0
11
631.0500
21
276.1068
31
0.0
0
LINE
8
CUT
10
631.0500
20
276.1068
30
0.0
11
632.6127
21
275.0611
31
0.0
0
LINE
8
CUT
10
632.6127
20
275.0611
30
0.0
11
634.1755
21
274.0117
31
0.0
0
LINE
8
CUT
10
634.1755
20
274.0117
30
0.0
11
635.7382
21
272.9585
31
0.0
0
LINE
8
CUT
10
635.7382
20
272.9585
30
0.0
11
637.3009
21
271.9016
31
0.0
0
LINE
8
CUT
10
637.3009
20
271.9016
30
0.0
11
638.8636
21
270.8410
31
0.0
0
LINE
8
CUT
10
638.8636
20
270.8410
30
0.0
11
640.4264
21
269.7768
31
0.0
0
LINE
8
CUT
10
640.4264
20
269.7768
30
0.0
11
641.9891
21
268.7090
31
0.0
0
LINE
8
CUT
10
641.9891
20
268.7090
30
0.0
11
643.5518
21
267.6377
31
0.0
0
LINE
8
CUT
10
643.5518
20
267.6377
30
0.0
11
645.1145
21
266.5628
31
0.0
0
LINE
8
CUT
10
645.1145
20
266.5628
30
0.0
11
646.6773
21
265.4845
31
0.0
0
LINE
8
CUT
10
646.6773
20
265.4845
30
0.0
11
648.2400
21
264.4028
31
0.0
0
LINE
8
CUT
10
648.2400
20
264.4028
30
0.0
11
649.8027
21
263.3177
31
0.0
0
LINE
8
CUT
10
649.8027
20
263.3177
30
0.0
11
651.3655
21
262.2292
31
0.0
0
LINE
8
CUT
10
651.3655
20
262.2292
30
0.0
11
652.9282
21
261.1374
31
0.0
0
LINE
8
CUT
10
652.9282
20
261.1374
30
0.0
11
654.4909
21
260.0424
31
0.0
0
LINE
8
CUT
10
654.4909
20
260.0424
30
0.0
11
656.0536
21
258.9442
31
0.0
0
LINE
8
CUT
10
656.0536
20
258.9442
30
0.0
11
657.6164
21
257.8428
31
0.0
0
LINE
8
CUT
10
657.6164
20
257.8428
30
0.0
11
659.1791
21
256.7383
31
0.0
0
LINE
8
CUT
10
659.1791
20
256.7383
30
0.0
11
660.7418
21
255.6307
31
0.0
0
LINE
8
CUT
10
660.7418
20
255.6307
30
0.0
11
662.3045
21
254.5200
31
0.0
0
LINE
8
CUT
10
662.3045
20
254.5200
30
0.0
11
663.8673
21
253.5272
31
0.0
0
LINE
8
CUT
10
663.8673
20
253.5272
30
0.0
11
665.4300
21
252.4092
31
0.0
0
LINE
8
CUT
10
665.4300
20
252.4092
30
0.0
11
666.9927
21
251.2884
31
0.0
0
LINE
8
CUT
10
666.9927
20
251.2884
30
0.0
11
668.5555
21
250.1647
31
0.0
0
LINE
8
CUT
10
668.5555
20
250.1647
30
0.0
11
670.1182
21
249.0381
31
0.0
0
LINE
8
CUT
10
670.1182
20
249.0381
30
0.0
11
671.6809
21
247.9088
31
0.0
0
LINE
8
CUT
10
671.6809
20
247.9088
30
0.0
11
673.2436
21
246.7596
31
0.0
0
LINE
8
CUT
10
673.2436
20
246.7596
30
0.0
11
674.8064
21
245.5545
31
0.0
0
LINE
8
CUT
10
674.8064
20
245.5545
30
0.0
11
676.3691
21
244.2922
31
0.0
0
LINE
8
CUT
10
676.3691
20
244.2922
30
0.0
11
677.9318
21
242.9722
31
0.0
0
LINE
8
CUT
10
677.9318
20
242.9722
30
0.0
11
679.4945
21
241.5940
31
0.0
0
LINE
8
CUT
10
679.4945
20
241.5940
30
0.0
11
681.0573
21
240.1567
31
0.0
0
LINE
8
CUT
10
681.0573
20
240.1567
30
0.0
11
682.6200
21
238.6592
31
0.0
0
LINE
8
CUT
10
682.6200
20
238.6592
30
0.0
11
684.1827
21
237.1001
31
0.0
0
LINE
8
CUT
10
684.1827
20
237.1001
30
0.0
11
685.7455
21
235.4778
31
0.0
0
LINE
8
CUT
10
685.7455
20
235.4778
30
0.0
11
687.3082
21
233.7904
31
0.0
0
LINE
8
CUT
10
687.3082
20
233.7904
30
0.0
11
688.8709
21
232.0354
31
0.0
0
LINE
8
CUT
10
688.8709
20
232.0354
30
0.0
11
690.4336
21
230.2101
31
0.0
0
LINE
8
CUT
10
690.4336
20
230.2101
30
0.0
11
691.9964
21
228.3112
31
0.0
0
LINE
8
CUT
10
691.9964
20
228.3112
30
0.0
11
693.5591
21
226.3346
31
0.0
0
LINE
8
CUT
10
693.5591
20
226.3346
30
0.0
11
695.1218
21
224.2757
31
0.0
0
LINE
8
CUT
10
695.1218
20
224.2757
30
0.0
11
696.6845
21
222.1288
31
0.0
0
LINE
8
CUT
10
696.6845
20
222.1288
30
0.0
11
698.2473
21
219.8870
31
0.0
0
LINE
8
CUT
10
698.2473
20
219.8870
30
0.0
11
699.8100
21
217.5419
31
0.0
0
LINE
8
CUT
10
699.8100
20
217.5419
30
0.0
11
701.3727
21
215.0831
31
0.0
0
LINE
8
CUT
10
701.3727
20
215.0831
30
0.0
11
702.9355
21
212.4974
31
0.0
0
LINE
8
CUT
10
702.9355
20
212.4974
30
0.0
11
704.4982
21
209.7679
31
0.0
0
LINE
8
CUT
10
704.4982
20
209.7679
30
0.0
11
706.0609
21
206.8721
31
0.0
0
LINE
8
CUT
10
706.0609
20
206.8721
30
0.0
11
707.6236
21
203.7792
31
0.0
0
LINE
8
CUT
10
707.6236
20
203.7792
30
0.0
11
709.1864
21
200.4451
31
0.0
0
LINE
8
CUT
10
709.1864
20
200.4451
30
0.0
11
710.7491
21
196.8021
31
0.0
0
LINE
8
CUT
10
710.7491
20
196.8021
30
0.0
11
712.3118
21
192.7372
31
0.0
0
LINE
8
CUT
10
712.3118
20
192.7372
30
0.0
11
713.8745
21
188.0313
31
0.0
0
LINE
8
CUT
10
713.8745
20
188.0313
30
0.0
11
715.4373
21
182.1232
31
0.0
0
LINE
8
CUT
10
715.4373
20
182.1232
30
0.0
11
717.0000
21
169.1798
31
0.0
0
LINE
8
CUT
10
717.0000
20
169.1798
30
0.0
11
717.0000
21
139.7358
31
0.0
0
LINE
8
CUT
10
717.0000
20
139.7358
30
0.0
11
715.4373
21
126.7924
31
0.0
0
LINE
8
CUT
10
715.4373
20
126.7924
30
0.0
11
713.8745
21
120.8843
31
0.0
0
LINE
8
CUT
10
713.8745
20
120.8843
30
0.0
11
712.3118
21
116.1784
31
0.0
0
LINE
8
CUT
10
712.3118
20
116.1784
30
0.0
11
710.7491
21
112.1136
31
0.0
0
LINE
8
CUT
10
710.7491
20
112.1136
30
0.0
11
709.1864
21
108.4706
31
0.0
0
LINE
8
CUT
10
709.1864
20
108.4706
30
0.0
11
707.6236
21
105.1364
31
0.0
0
LINE
8
CUT
10
707.6236
20
105.1364
30
0.0
11
706.0609
21
102.0435
31
0.0
0
LINE
8
CUT
10
706.0609
20
102.0435
30
0.0
11
704.4982
21
99.1477
31
0.0
0
LINE
8
CUT
10
704.4982
20
99.1477
30
0.0
11
702.9355
21
96.4182
31
0.0
0
LINE
8
CUT
10
702.9355
20
96.4182
30
0.0
11
701.3727
21
93.8326
31
0.0
0
LINE
8
CUT
10
701.3727
20
93.8326
30
0.0
11
699.8100
21
91.3738
31
0.0
0
LINE
8
CUT
10
699.8100
20
91.3738
30
0.0
11
698.2473
21
89.0287
31
0.0
0
LINE
8
CUT
10
698.2473
20
89.0287
30
0.0
11
696.6845
21
86.7869
31
0.0
0
LINE
8
CUT
10
696.6845
20
86.7869
30
0.0
11
695.1218
21
84.6399
31
0.0
0
LINE
8
CUT
10
695.1218
20
84.6399
30
0.0
11
693.5591
21
82.5810
31
0.0
0
LINE
8
CUT
10
693.5591
20
82.5810
30
0.0
11
691.9964
21
80.6045
31
0.0
0
LINE
8
CUT
10
691.9964
20
80.6045
30
0.0
11
690.4336
21
78.7055
31
0.0
0
LINE
8
CUT
10
690.4336
20
78.7055
30
0.0
11
688.8709
21
76.8802
31
0.0
0
LINE
8
CUT
10
688.8709
20
76.8802
30
0.0
11
687.3082
21
75.1253
31
0.0
0
LINE
8
CUT
10
687.3082
20
75.1253
30
0.0
11
685.7455
21
73.4378
31
0.0
0
LINE
8
CUT
10
685.7455
20
73.4378
30
0.0
11
684.1827
21
71.8156
31
0.0
0
LINE
8
CUT
10
684.1827
20
71.8156
30
0.0
11
682.6200
21
70.2565
31
0.0
0
LINE
8
CUT
10
682.6200
20
70.2565
30
0.0
11
681.0573
21
68.7590
31
0.0
0
LINE
8
CUT
10
681.0573
20
68.7590
30
0.0
11
679.4945
21
67.3217
31
0.0
0
LINE
8
CUT
10
679.4945
20
67.3217
30
0.0
11
677.9318
21
65.9434
31
0.0
0
LINE
8
CUT
10
677.9318
20
65.9434
30
0.0
11
676.3691
21
64.6235
31
0.0
0
LINE
8
CUT
10
676.3691
20
64.6235
30
0.0
11
674.8064
21
63.3611
31
0.0
0
LINE
8
CUT
10
674.8064
20
63.3611
30
0.0
11
673.2436
21
62.1560
31
0.0
0
LINE
8
CUT
10
673.2436
20
62.1560
30
0.0
11
671.6809
21
61.0068
31
0.0
0
LINE
8
CUT
10
671.6809
20
61.0068
30
0.0
11
670.1182
21
59.8775
31
0.0
0
LINE
8
CUT
10
670.1182
20
59.8775
30
0.0
11
668.5555
21
58.7510
31
0.0
0
LINE
8
CUT
10
668.5555
20
58.7510
30
0.0
11
666.9927
21
57.6273
31
0.0
0
LINE
8
CUT
10
666.9927
20
57.6273
30
0.0
11
665.4300
21
56.5064
31
0.0
0
LINE
8
CUT
10
665.4300
20
56.5064
30
0.0
11
663.8673
21
55.3885
31
0.0
0
LINE
8
CUT
10
663.8673
20
55.3885
30
0.0
11
662.3045
21
54.3957
31
0.0
0
LINE
8
CUT
10
662.3045
20
54.3957
30
0.0
11
660.7418
21
53.2850
31
0.0
0
LINE
8
CUT
10
660.7418
20
53.2850
30
0.0
11
659.1791
21
52.1774
31
0.0
0
LINE
8
CUT
10
659.1791
20
52.1774
30
0.0
11
657.6164
21
51.0729
31
0.0
0
LINE
8
CUT
10
657.6164
20
51.0729
30
0.0
11
656.0536
21
49.9715
31
0.0
0
LINE
8
CUT
10
656.0536
20
49.9715
30
0.0
11
654.4909
21
48.8732
31
0.0
0
LINE
8
CUT
10
654.4909
20
48.8732
30
0.0
11
652.9282
21
47.7782
31
0.0
0
LINE
8
CUT
10
652.9282
20
47.7782
30
0.0
11
651.3655
21
46.6865
31
0.0
0
LINE
8
CUT
10
651.3655
20
46.6865
30
0.0
11
649.8027
21
45.5980
31
0.0
0
LINE
8
CUT
10
649.8027
20
45.5980
30
0.0
11
648.2400
21
44.5129
31
0.0
0
LINE
8
CUT
10
648.2400
20
44.5129
30
0.0
11
646.6773
21
43.4311
31
0.0
0
LINE
8
CUT
10
646.6773
20
43.4311
30
0.0
11
645.1145
21
42.3528
31
0.0
0
LINE
8
CUT
10
645.1145
20
42.3528
30
0.0
11
643.5518
21
41.2780
31
0.0
0
LINE
8
CUT
10
643.5518
20
41.2780
30
0.0
11
641.9891
21
40.2067
31
0.0
0
LINE
8
CUT
10
641.9891
20
40.2067
30
0.0
11
640.4264
21
39.1389
31
0.0
0
LINE
8
CUT
10
640.4264
20
39.1389
30
0.0
11
638.8636
21
38.0747
31
0.0
0
LINE
8
CUT
10
638.8636
20
38.0747
30
0.0
11
637.3009
21
37.0141
31
0.0
0
LINE
8
CUT
10
637.3009
20
37.0141
30
0.0
11
635.7382
21
35.9572
31
0.0
0
LINE
8
CUT
10
635.7382
20
35.9572
30
0.0
11
634.1755
21
34.9040
31
0.0
0
LINE
8
CUT
10
634.1755
20
34.9040
30
0.0
11
632.6127
21
33.8546
31
0.0
0
LINE
8
CUT
10
632.6127
20
33.8546
30
0.0
11
631.0500
21
32.8089
31
0.0
0
LINE
8
CUT
10
631.0500
20
32.8089
30
0.0
11
629.4873
21
31.7671
31
0.0
0
LINE
8
CUT
10
629.4873
20
31.7671
30
0.0
11
627.9245
21
30.7291
31
0.0
0
LINE
8
CUT
10
627.9245
20
30.7291
30
0.0
11
626.3618
21
29.6950
31
0.0
0
LINE
8
CUT
10
626.3618
20
29.6950
30
0.0
11
624.7991
21
28.6649
31
0.0
0
LINE
8
CUT
10
624.7991
20
28.6649
30
0.0
11
623.2364
21
27.6388
31
0.0
0
LINE
8
CUT
10
623.2364
20
27.6388
30
0.0
11
621.6736
21
26.6166
31
0.0
0
LINE
8
CUT
10
621.6736
20
26.6166
30
0.0
11
620.1109
21
25.5985
31
0.0
0
LINE
8
CUT
10
620.1109
20
25.5985
30
0.0
11
618.5482
21
24.5845
31
0.0
0
LINE
8
CUT
10
618.5482
20
24.5845
30
0.0
11
616.9855
21
23.5747
31
0.0
0
LINE
8
CUT
10
616.9855
20
23.5747
30
0.0
11
615.4227
21
22.5689
31
0.0
0
LINE
8
CUT
10
615.4227
20
22.5689
30
0.0
11
613.8600
21
21.5674
31
0.0
0
LINE
8
CUT
10
613.8600
20
21.5674
30
0.0
11
612.2973
21
20.5701
31
0.0
0
LINE
8
CUT
10
612.2973
20
20.5701
30
0.0
11
610.7345
21
19.5771
31
0.0
0
LINE
8
CUT
10
610.7345
20
19.5771
30
0.0
11
609.1718
21
18.5884
31
0.0
0
LINE
8
CUT
10
609.1718
20
18.5884
30
0.0
11
607.6091
21
17.6040
31
0.0
0
LINE
8
CUT
10
607.6091
20
17.6040
30
0.0
11
606.0464
21
16.6240
31
0.0
0
LINE
8
CUT
10
606.0464
20
16.6240
30
0.0
11
604.4836
21
15.6484
31
0.0
0
LINE
8
CUT
10
604.4836
20
15.6484
30
0.0
11
602.9209
21
14.6772
31
0.0
0
LINE
8
CUT
10
602.9209
20
14.6772
30
0.0
11
601.3582
21
13.7105
31
0.0
0
LINE
8
CUT
10
601.3582
20
13.7105
30
0.0
11
599.7955
21
12.7483
31
0.0
0
LINE
8
CUT
10
599.7955
20
12.7483
30
0.0
11
598.2327
21
11.7906
31
0.0
0
LINE
8
CUT
10
598.2327
20
11.7906
30
0.0
11
596.6700
21
10.8375
31
0.0
0
LINE
8
CUT
10
596.6700
20
10.8375
30
0.0
11
595.1073
21
9.8891
31
0.0
0
LINE
8
CUT
10
595.1073
20
9.8891
30
0.0
11
593.5445
21
8.9452
31
0.0
0
LINE
8
CUT
10
593.5445
20
8.9452
30
0.0
11
591.9818
21
8.0060
31
0.0
0
LINE
8
CUT
10
591.9818
20
8.0060
30
0.0
11
590.4191
21
7.0715
31
0.0
0
LINE
8
CUT
10
590.4191
20
7.0715
30
0.0
11
588.8564
21
6.1590
31
0.0
0
LINE
8
CUT
10
588.8564
20
6.1590
30
0.0
11
587.2936
21
5.3044
31
0.0
0
LINE
8
CUT
10
587.2936
20
5.3044
30
0.0
11
585.7309
21
4.5092
31
0.0
0
LINE
8
CUT
10
585.7309
20
4.5092
30
0.0
11
584.1682
21
3.7739
31
0.0
0
LINE
8
CUT
10
584.1682
20
3.7739
30
0.0
11
582.6055
21
3.0992
31
0.0
0
LINE
8
CUT
10
582.6055
20
3.0992
30
0.0
11
581.0427
21
2.4860
31
0.0
0
LINE
8
CUT
10
581.0427
20
2.4860
30
0.0
11
579.4800
21
1.9355
31
0.0
0
LINE
8
CUT
10
579.4800
20
1.9355
30
0.0
11
577.9173
21
1.4491
31
0.0
0
LINE
8
CUT
10
577.9173
20
1.4491
30
0.0
11
576.3545
21
1.0285
31
0.0
0
LINE
8
CUT
10
576.3545
20
1.0285
30
0.0
11
574.7918
21
0.6758
31
0.0
0
LINE
8
CUT
10
574.7918
20
0.6758
30
0.0
11
573.2291
21
0.3935
31
0.0
0
LINE
8
CUT
10
573.2291
20
0.3935
30
0.0
11
571.6664
21
0.1843
31
0.0
0
LINE
8
CUT
10
571.6664
20
0.1843
30
0.0
11
570.1036
21
0.0518
31
0.0
0
LINE
8
CUT
10
570.1036
20
0.0518
30
0.0
11
568.5409
21
0.0000
31
0.0
0
LINE
8
CUT
10
568.5409
20
0.0000
30
0.0
11
566.9782
21
0.0336
31
0.0
0
LINE
8
CUT
10
566.9782
20
0.0336
30
0.0
11
565.4155
21
0.1585
31
0.0
0
LINE
8
CUT
10
565.4155
20
0.1585
30
0.0
11
563.8527
21
0.3815
31
0.0
0
LINE
8
CUT
10
563.8527
20
0.3815
30
0.0
11
562.2900
21
0.7112
31
0.0
0
LINE
8
CUT
10
562.2900
20
0.7112
30
0.0
11
560.7273
21
1.1581
31
0.0
0
LINE
8
CUT
10
560.7273
20
1.1581
30
0.0
11
559.1645
21
1.7354
31
0.0
0
LINE
8
CUT
10
559.1645
20
1.7354
30
0.0
11
557.6018
21
2.4601
31
0.0
0
LINE
8
CUT
10
557.6018
20
2.4601
30
0.0
11
556.0391
21
3.3548
31
0.0
0
LINE
8
CUT
10
556.0391
20
3.3548
30
0.0
11
554.4764
21
4.4504
31
0.0
0
LINE
8
CUT
10
554.4764
20
4.4504
30
0.0
11
552.9136
21
5.7911
31
0.0
0
LINE
8
CUT
10
552.9136
20
5.7911
30
0.0
11
551.3509
21
7.4446
31
0.0
0
LINE
8
CUT
10
551.3509
20
7.4446
30
0.0
11
549.7882
21
9.5241
31
0.0
0
LINE
8
CUT
10
549.7882
20
9.5241
30
0.0
11
548.2255
21
12.2486
31
0.0
0
LINE
8
CUT
10
548.2255
20
12.2486
30
0.0
11
546.6627
21
16.1796
31
0.0
0
LINE
8
CUT
10
546.6627
20
16.1796
30
0.0
11
545.1000
21
27.1502
31
0.0
0
LINE
8
CUT
10
545.1000
20
27.1502
30
0.0
11
545.1000
21
281.7654
31
0.0
0
LINE
8
CUT
10
545.1000
20
281.7654
30
0.0
11
545.1000
21
281.7654
31
0.0
0
LINE
8
CUT
10
725.0000
20
227.0617
30
0.0
11
725.7727
21
235.9883
31
0.0
0
LINE
8
CUT
10
725.7727
20
235.9883
30
0.0
11
726.5455
21
239.9985
31
0.0
0
LINE
8
CUT
10
726.5455
20
239.9985
30
0.0
11
727.3182
21
243.1838
31
0.0
0
LINE
8
CUT
10
727.3182
20
243.1838
30
0.0
11
728.0909
21
245.9355
31
0.0
0
LINE
8
CUT
10
728.0909
20
245.9355
30
0.0
11
728.8636
21
248.4058
31
0.0
0
LINE
8
CUT
10
728.8636
20
248.4058
30
0.0
11
729.6364
21
250.6731
31
0.0
0
LINE
8
CUT
10
729.6364
20
250.6731
30
0.0
11
730.4091
21
252.7841
31
0.0
0
LINE
8
CUT
10
730.4091
20
252.7841
30
0.0
11
731.1818
21
254.7694
31
0.0
0
LINE
8
CUT
10
731.1818
20
254.7694
30
0.0
11
731.9545
21
256.6503
31
0.0
0
LINE
8
CUT
10
731.9545
20
256.6503
30
0.0
11
732.7273
21
258.4422
31
0.0
0
LINE
8
CUT
10
732.7273
20
258.4422
30
0.0
11
733.5000
21
260.1570
31
0.0
0
LINE
8
CUT
10
733.5000
20
260.1570
30
0.0
11
734.2727
21
261.8039
31
0.0
0
LINE
8
CUT
10
734.2727
20
261.8039
30
0.0
11
735.0455
21
263.3901
31
0.0
0
LINE
8
CUT
10
735.0455
20
263.3901
30
0.0
11
735.8182
21
264.9216
31
0.0
0
LINE
8
CUT
10
735.8182
20
264.9216
30
0.0
11
736.5909
21
266.4034
31
0.0
0
LINE
8
CUT
10
736.5909
20
266.4034
30
0.0
11
737.3636
21
267.8394
31
0.0
0
LINE
8
CUT
10
737.3636
20
267.8394
30
0.0
11
738.1364
21
269.2331
31
0.0
0
LINE
8
CUT
10
738.1364
20
269.2331
30
0.0
11
738.9091
21
270.5877
31
0.0
0
LINE
8
CUT
10
738.9091
20
270.5877
30
0.0
11
739.6818
21
271.9055
31
0.0
0
LINE
8
CUT
10
739.6818
20
271.9055
30
0.0
11
740.4545
21
273.1889
31
0.0
0
LINE
8
CUT
10
740.4545
20
273.1889
30
0.0
11
741.2273
21
274.4398
31
0.0
0
LINE
8
CUT
10
741.2273
20
274.4398
30
0.0
11
742.0000
21
275.6599
31
0.0
0
LINE
8
CUT
10
742.0000
20
275.6599
30
0.0
11
742.7727
21
276.8508
31
0.0
0
LINE
8
CUT
10
742.7727
20
276.8508
30
0.0
11
743.5455
21
278.0137
31
0.0
0
LINE
8
CUT
10
743.5455
20
278.0137
30
0.0
11
744.3182
21
279.1501
31
0.0
0
LINE
8
CUT
10
744.3182
20
279.1501
30
0.0
11
745.0909
21
280.2608
31
0.0
0
LINE
8
CUT
10
745.0909
20
280.2608
30
0.0
11
745.8636
21
281.3470
31
0.0
0
LINE
8
CUT
10
745.8636
20
281.3470
30
0.0
11
746.6364
21
282.4095
31
0.0
0
LINE
8
CUT
10
746.6364
20
282.4095
30
0.0
11
747.4091
21
283.4492
31
0.0
0
LINE
8
CUT
10
747.4091
20
283.4492
30
0.0
11
748.1818
21
284.4667
31
0.0
0
LINE
8
CUT
10
748.1818
20
284.4667
30
0.0
11
748.9545
21
285.4627
31
0.0
0
LINE
8
CUT
10
748.9545
20
285.4627
30
0.0
11
749.7273
21
286.4379
31
0.0
0
LINE
8
CUT
10
749.7273
20
286.4379
30
0.0
11
750.5000
21
287.3928
31
0.0
0
LINE
8
CUT
10
750.5000
20
287.3928
30
0.0
11
751.2727
21
288.3279
31
0.0
0
LINE
8
CUT
10
751.2727
20
288.3279
30
0.0
11
752.0455
21
289.2437
31
0.0
0
LINE
8
CUT
10
752.0455
20
289.2437
30
0.0
11
752.8182
21
290.1406
31
0.0
0
LINE
8
CUT
10
752.8182
20
290.1406
30
0.0
11
753.5909
21
291.0191
31
0.0
0
LINE
8
CUT
10
753.5909
20
291.0191
30
0.0
11
754.3636
21
291.8794
31
0.0
0
LINE
8
CUT
10
754.3636
20
291.8794
30
0.0
11
755.1364
21
292.7220
31
0.0
0
LINE
8
CUT
10
755.1364
20
292.7220
30
0.0
11
755.9091
21
293.5470
31
0.0
0
LINE
8
CUT
10
755.9091
20
293.5470
30
0.0
11
756.6818
21
294.3550
31
0.0
0
LINE
8
CUT
10
756.6818
20
294.3550
30
0.0
11
757.4545
21
295.1459
31
0.0
0
LINE
8
CUT
10
757.4545
20
295.1459
30
0.0
11
758.2273
21
295.9202
31
0.0
0
LINE
8
CUT
10
758.2273
20
295.9202
30
0.0
11
759.0000
21
296.6781
31
0.0
0
LINE
8
CUT
10
759.0000
20
296.6781
30
0.0
11
759.7727
21
297.4196
31
0.0
0
LINE
8
CUT
10
759.7727
20
297.4196
30
0.0
11
760.5455
21
298.1450
31
0.0
0
LINE
8
CUT
10
760.5455
20
298.1450
30
0.0
11
761.3182
21
298.8546
31
0.0
0
LINE
8
CUT
10
761.3182
20
298.8546
30
0.0
11
762.0909
21
299.5483
31
0.0
0
LINE
8
CUT
10
762.0909
20
299.5483
30
0.0
11
762.8636
21
300.2264
31
0.0
0
LINE
8
CUT
10
762.8636
20
300.2264
30
0.0
11
763.6364
21
300.8889
31
0.0
0
LINE
8
CUT
10
763.6364
20
300.8889
30
0.0
11
764.4091
21
301.7154
31
0.0
0
LINE
8
CUT
10
764.4091
20
301.7154
30
0.0
11
765.1818
21
302.3474
31
0.0
0
LINE
8
CUT
10
765.1818
20
302.3474
30
0.0
11
765.9545
21
302.9548
31
0.0
0
LINE
8
CUT
10
765.9545
20
302.9548
30
0.0
11
766.7273
21
303.5337
31
0.0
0
LINE
8
CUT
10
766.7273
20
303.5337
30
0.0
11
767.5000
21
304.0842
31
0.0
0
LINE
8
CUT
10
767.5000
20
304.0842
30
0.0
11
768.2727
21
304.6062
31
0.0
0
LINE
8
CUT
10
768.2727
20
304.6062
30
0.0
11
769.0455
21
305.0997
31
0.0
0
LINE
8
CUT
10
769.0455
20
305.0997
30
0.0
11
769.8182
21
305.5647
31
0.0
0
LINE
8
CUT
10
769.8182
20
305.5647
30
0.0
11
770.5909
21
306.0051
31
0.0
0
LINE
8
CUT
10
770.5909
20
306.0051
30
0.0
11
771.3636
21
306.4296
31
0.0
0
LINE
8
CUT
10
771.3636
20
306.4296
30
0.0
11
772.1364
21
306.8387
31
0.0
0
LINE
8
CUT
10
772.1364
20
306.8387
30
0.0
11
772.9091
21
307.2321
31
0.0
0
LINE
8
CUT
10
772.9091
20
307.2321
30
0.0
11
773.6818
21
307.6099
31
0.0
0
LINE
8
CUT
10
773.6818
20
307.6099
30
0.0
11
774.4545
21
307.9717
31
0.0
0
LINE
8
CUT
10
774.4545
20
307.9717
30
0.0
11
775.2273
21
308.3175
31
0.0
0
LINE
8
CUT
10
775.2273
20
308.3175
30
0.0
11
776.0000
21
308.6471
31
0.0
0
LINE
8
CUT
10
776.0000
20
308.6471
30
0.0
11
776.7727
21
308.9602
31
0.0
0
LINE
8
CUT
10
776.7727
20
308.9602
30
0.0
11
777.5455
21
309.2568
31
0.0
0
LINE
8
CUT
10
777.5455
20
309.2568
30
0.0
11
778.3182
21
309.5365
31
0.0
0
LINE
8
CUT
10
778.3182
20
309.5365
30
0.0
11
779.0909
21
309.7991
31
0.0
0
LINE
8
CUT
10
779.0909
20
309.7991
30
0.0
11
779.8636
21
310.0444
31
0.0
0
LINE
8
CUT
10
779.8636
20
310.0444
30
0.0
11
780.6364
21
310.2719
31
0.0
0
LINE
8
CUT
10
780.6364
20
310.2719
30
0.0
11
781.4091
21
310.4816
31
0.0
0
LINE
8
CUT
10
781.4091
20
310.4816
30
0.0
11
782.1818
21
310.6728
31
0.0
0
LINE
8
CUT
10
782.1818
20
310.6728
30
0.0
11
782.9545
21
310.8454
31
0.0
0
LINE
8
CUT
10
782.9545
20
310.8454
30
0.0
11
783.7273
21
310.9989
31
0.0
0
LINE
8
CUT
10
783.7273
20
310.9989
30
0.0
11
784.5000
21
311.1328
31
0.0
0
LINE
8
CUT
10
784.5000
20
311.1328
30
0.0
11
785.2727
21
311.2466
31
0.0
0
LINE
8
CUT
10
785.2727
20
311.2466
30
0.0
11
786.0455
21
311.3399
31
0.0
0
LINE
8
CUT
10
786.0455
20
311.3399
30
0.0
11
786.8182
21
311.4121
31
0.0
0
LINE
8
CUT
10
786.8182
20
311.4121
30
0.0
11
787.5909
21
311.4625
31
0.0
0
LINE
8
CUT
10
787.5909
20
311.4625
30
0.0
11
788.3636
21
311.4904
31
0.0
0
LINE
8
CUT
10
788.3636
20
311.4904
30
0.0
11
789.1364
21
311.4952
31
0.0
0
LINE
8
CUT
10
789.1364
20
311.4952
30
0.0
11
789.9091
21
311.4759
31
0.0
0
LINE
8
CUT
10
789.9091
20
311.4759
30
0.0
11
790.6818
21
311.4317
31
0.0
0
LINE
8
CUT
10
790.6818
20
311.4317
30
0.0
11
791.4545
21
311.3616
31
0.0
0
LINE
8
CUT
10
791.4545
20
311.3616
30
0.0
11
792.2273
21
311.2644
31
0.0
0
LINE
8
CUT
10
792.2273
20
311.2644
30
0.0
11
793.0000
21
311.1390
31
0.0
0
LINE
8
CUT
10
793.0000
20
311.1390
30
0.0
11
793.7727
21
310.9840
31
0.0
0
LINE
8
CUT
10
793.7727
20
310.9840
30
0.0
11
794.5455
21
310.7977
31
0.0
0
LINE
8
CUT
10
794.5455
20
310.7977
30
0.0
11
795.3182
21
310.5786
31
0.0
0
LINE
8
CUT
10
795.3182
20
310.5786
30
0.0
11
796.0909
21
310.3246
31
0.0
0
LINE
8
CUT
10
796.0909
20
310.3246
30
0.0
11
796.8636
21
310.0334
31
0.0
0
LINE
8
CUT
10
796.8636
20
310.0334
30
0.0
11
797.6364
21
309.7025
31
0.0
0
LINE
8
CUT
10
797.6364
20
309.7025
30
0.0
11
798.4091
21
309.3289
31
0.0
0
LINE
8
CUT
10
798.4091
20
309.3289
30
0.0
11
799.1818
21
308.9092
31
0.0
0
LINE
8
CUT
10
799.1818
20
308.9092
30
0.0
11
799.9545
21
308.4391
31
0.0
0
LINE
8
CUT
10
799.9545
20
308.4391
30
0.0
11
800.7273
21
307.9139
31
0.0
0
LINE
8
CUT
10
800.7273
20
307.9139
30
0.0
11
801.5000
21
307.3274
31
0.0
0
LINE
8
CUT
10
801.5000
20
307.3274
30
0.0
11
802.2727
21
306.6725
31
0.0
0
LINE
8
CUT
10
802.2727
20
306.6725
30
0.0
11
803.0455
21
305.9400
31
0.0
0
LINE
8
CUT
10
803.0455
20
305.9400
30
0.0
11
803.8182
21
305.1179
31
0.0
0
LINE
8
CUT
10
803.8182
20
305.1179
30
0.0
11
804.5909
21
304.1909
31
0.0
0
LINE
8
CUT
10
804.5909
20
304.1909
30
0.0
11
805.3636
21
303.1375
31
0.0
0
LINE
8
CUT
10
805.3636
20
303.1375
30
0.0
11
806.1364
21
301.9273
31
0.0
0
LINE
8
CUT
10
806.1364
20
301.9273
30
0.0
11
806.9091
21
300.5135
31
0.0
0
LINE
8
CUT
10
806.9091
20
300.5135
30
0.0
11
807.6818
21
298.8176
31
0.0
0
LINE
8
CUT
10
807.6818
20
298.8176
30
0.0
11
808.4545
21
296.6876
31
0.0
0
LINE
8
CUT
10
808.4545
20
296.6876
30
0.0
11
809.2273
21
293.7320
31
0.0
0
LINE
8
CUT
10
809.2273
20
293.7320
30
0.0
11
810.0000
21
285.8593
31
0.0
0
LINE
8
CUT
10
810.0000
20
285.8593
30
0.0
11
810.0000
21
25.6359
31
0.0
0
LINE
8
CUT
10
810.0000
20
25.6359
30
0.0
11
809.2273
21
17.7632
31
0.0
0
LINE
8
CUT
10
809.2273
20
17.7632
30
0.0
11
808.4545
21
14.8076
31
0.0
0
LINE
8
CUT
10
808.4545
20
14.8076
30
0.0
11
807.6818
21
12.6776
31
0.0
0
LINE
8
CUT
10
807.6818
20
12.6776
30
0.0
11
806.9091
21
10.9817
31
0.0
0
LINE
8
CUT
10
806.9091
20
10.9817
30
0.0
11
806.1364
21
9.5679
31
0.0
0
LINE
8
CUT
10
806.1364
20
9.5679
30
0.0
11
805.3636
21
8.3577
31
0.0
0
LINE
8
CUT
10
805.3636
20
8.3577
30
0.0
11
804.5909
21
7.3043
31
0.0
0
LINE
8
CUT
10
804.5909
20
7.3043
30
0.0
11
803.8182
21
6.3773
31
0.0
0
LINE
8
CUT
10
803.8182
20
6.3773
30
0.0
11
803.0455
21
5.5552
31
0.0
0
LINE
8
CUT
10
803.0455
20
5.5552
30
0.0
11
802.2727
21
4.8226
31
0.0
0
LINE
8
CUT
10
802.2727
20
4.8226
30
0.0
11
801.5000
21
4.1677
31
0.0
0
LINE
8
CUT
10
801.5000
20
4.1677
30
0.0
11
800.7273
21
3.5813
31
0.0
0
LINE
8
CUT
10
800.7273
20
3.5813
30
0.0
11
799.9545
21
3.0560
31
0.0
0
LINE
8
CUT
10
799.9545
20
3.0560
30
0.0
11
799.1818
21
2.5860
31
0.0
0
LINE
8
CUT
10
799.1818
20
2.5860
30
0.0
11
798.4091
21
2.1662
31
0.0
0
LINE
8
CUT
10
798.4091
20
2.1662
30
0.0
11
797.6364
21
1.7927
31
0.0
0
LINE
8
CUT
10
797.6364
20
1.7927
30
0.0
11
796.8636
21
1.4618
31
0.0
0
LINE
8
CUT
10
796.8636
20
1.4618
30
0.0
11
796.0909
21
1.1706
31
0.0
0
LINE
8
CUT
10
796.0909
20
1.1706
30
0.0
11
795.3182
21
0.9166
31
0.0
0
LINE
8
CUT
10
795.3182
20
0.9166
30
0.0
11
794.5455
21
0.6974
31
0.0
0
LINE
8
CUT
10
794.5455
20
0.6974
30
0.0
11
793.7727
21
0.5112
31
0.0
0
LINE
8
CUT
10
793.7727
20
0.5112
30
0.0
11
793.0000
21
0.3562
31
0.0
0
LINE
8
CUT
10
793.0000
20
0.3562
30
0.0
11
792.2273
21
0.2307
31
0.0
0
LINE
8
CUT
10
792.2273
20
0.2307
30
0.0
11
791.4545
21
0.1336
31
0.0
0
LINE
8
CUT
10
791.4545
20
0.1336
30
0.0
11
790.6818
21
0.0635
31
0.0
0
LINE
8
CUT
10
790.6818
20
0.0635
30
0.0
11
789.9091
21
0.0193
31
0.0
0
LINE
8
CUT
10
789.9091
20
0.0193
30
0.0
11
789.1364
21
0.0000
31
0.0
0
LINE
8
CUT
10
789.1364
20
0.0000
30
0.0
11
788.3636
21
0.0047
31
0.0
0
LINE
8
CUT
10
788.3636
20
0.0047
30
0.0
11
787.5909
21
0.0327
31
0.0
0
LINE
8
CUT
10
787.5909
20
0.0327
30
0.0
11
786.8182
21
0.0831
31
0.0
0
LINE
8
CUT
10
786.8182
20
0.0831
30
0.0
11
786.0455
21
0.1552
31
0.0
0
LINE
8
CUT
10
786.0455
20
0.1552
30
0.0
11
785.2727
21
0.2485
31
0.0
0
LINE
8
CUT
10
785.2727
20
0.2485
30
0.0
11
784.5000
21
0.3624
31
0.0
0
LINE
8
CUT
10
784.5000
20
0.3624
30
0.0
11
783.7273
21
0.4963
31
0.0
0
LINE
8
CUT
10
783.7273
20
0.4963
30
0.0
11
782.9545
21
0.6498
31
0.0
0
LINE
8
CUT
10
782.9545
20
0.6498
30
0.0
11
782.1818
21
0.8223
31
0.0
0
LINE
8
CUT
10
782.1818
20
0.8223
30
0.0
11
781.4091
21
1.0136
31
0.0
0
LINE
8
CUT
10
781.4091
20
1.0136
30
0.0
11
780.6364
21
1.2232
31
0.0
0
LINE
8
CUT
10
780.6364
20
1.2232
30
0.0
11
779.8636
21
1.4508
31
0.0
0
LINE
8
CUT
10
779.8636
20
1.4508
30
0.0
11
779.0909
21
1.6961
31
0.0
0
LINE
8
CUT
10
779.0909
20
1.6961
30
0.0
11
778.3182
21
1.9587
31
0.0
0
LINE
8
CUT
10
778.3182
20
1.9587
30
0.0
11
777.5455
21
2.2384
31
0.0
0
LINE
8
CUT
10
777.5455
20
2.2384
30
0.0
11
776.7727
21
2.5350
31
0.0
0
LINE
8
CUT
10
776.7727
20
2.5350
30
0.0
11
776.0000
21
2.8481
31
0.0
0
LINE
8
CUT
10
776.0000
20
2.8481
30
0.0
11
775.2273
21
3.1777
31
0.0
0
LINE
8
CUT
10
775.2273
20
3.1777
30
0.0
11
774.4545
21
3.5235
31
0.0
0
LINE
8
CUT
10
774.4545
20
3.5235
30
0.0
11
773.6818
21
3.8853
31
0.0
0
LINE
8
CUT
10
773.6818
20
3.8853
30
0.0
11
772.9091
21
4.2630
31
0.0
0
LINE
8
CUT
10
772.9091
20
4.2630
30
0.0
11
772.1364
21
4.6565
31
0.0
0
LINE
8
CUT
10
772.1364
20
4.6565
30
0.0
11
771.3636
21
5.0656
31
0.0
0
LINE
8
CUT
10
771.3636
20
5.0656
30
0.0
11
770.5909
21
5.4901
31
0.0
0
LINE
8
CUT
10
770.5909
20
5.4901
30
0.0
11
769.8182
21
5.9304
31
0.0
0
LINE
8
CUT
10
769.8182
20
5.9304
30
0.0
11
769.0455
21
6.3955
31
0.0
0
LINE
8
CUT
10
769.0455
20
6.3955
30
0.0
11
768.2727
21
6.8890
31
0.0
0
LINE
8
CUT
10
768.2727
20
6.8890
30
0.0
11
767.5000
21
7.4110
31
0.0
0
LINE
8
CUT
10
767.5000
20
7.4110
30
0.0
11
766.7273
21
7.9615
31
0.0
0
LINE
8
CUT
10
766.7273
20
7.9615
30
0.0
11
765.9545
21
8.5404
31
0.0
0
LINE
8
CUT
10
765.9545
20
8.5404
30
0.0
11
765.1818
21
9.1478
31
0.0
0
LINE
8
CUT
10
765.1818
20
9.1478
30
0.0
11
764.4091
21
9.7798
31
0.0
0
LINE
8
CUT
10
764.4091
20
9.7798
30
0.0
11
763.6364
21
10.6063
31
0.0
0
LINE
8
CUT
10
763.6364
20
10.6063
30
0.0
11
762.8636
21
11.2688
31
0.0
0
LINE
8
CUT
10
762.8636
20
11.2688
30
0.0
11
762.0909
21
11.9469
31
0.0
0
LINE
8
CUT
10
762.0909
20
11.9469
30
0.0
11
761.3182
21
12.6406
31
0.0
0
LINE
8
CUT
10
761.3182
20
12.6406
30
0.0
11
760.5455
21
13.3501
31
0.0
0
LINE
8
CUT
10
760.5455
20
13.3501
30
0.0
11
759.7727
21
14.0756
31
0.0
0
LINE
8
CUT
10
759.7727
20
14.0756
30
0.0
11
759.0000
21
14.8171
31
0.0
0
LINE
8
CUT
10
759.0000
20
14.8171
30
0.0
11
758.2273
21
15.5750
31
0.0
0
LINE
8
CUT
10
758.2273
20
15.5750
30
0.0
11
757.4545
21
16.3492
31
0.0
0
LINE
8
CUT
10
757.4545
20
16.3492
30
0.0
11
756.6818
21
17.1402
31
0.0
0
LINE
8
CUT
10
756.6818
20
17.1402
30
0.0
11
755.9091
21
17.9481
31
0.0
0
LINE
8
CUT
10
755.9091
20
17.9481
30
0.0
11
755.1364
21
18.7732
31
0.0
0
LINE
8
CUT
10
755.1364
20
18.7732
30
0.0
11
754.3636
21
19.6158
31
0.0
0
LINE
8
CUT
10
754.3636
20
19.6158
30
0.0
11
753.5909
21
20.4761
31
0.0
0
LINE
8
CUT
10
753.5909
20
20.4761
30
0.0
11
752.8182
21
21.3546
31
0.0
0
LINE
8
CUT
10
752.8182
20
21.3546
30
0.0
11
752.0455
21
22.2515
31
0.0
0
LINE
8
CUT
10
752.0455
20
22.2515
30
0.0
11
751.2727
21
23.1673
31
0.0
0
LINE
8
CUT
10
751.2727
20
23.1673
30
0.0
11
750.5000
21
24.1024
31
0.0
0
LINE
8
CUT
10
750.5000
20
24.1024
30
0.0
11
749.7273
21
25.0573
31
0.0
0
LINE
8
CUT
10
749.7273
20
25.0573
30
0.0
11
748.9545
21
26.0325
31
0.0
0
LINE
8
CUT
10
748.9545
20
26.0325
30
0.0
11
748.1818
21
27.0285
31
0.0
0
LINE
8
CUT
10
748.1818
20
27.0285
30
0.0
11
747.4091
21
28.0460
31
0.0
0
LINE
8
CUT
10
747.4091
20
28.0460
30
0.0
11
746.6364
21
29.0856
31
0.0
0
LINE
8
CUT
10
746.6364
20
29.0856
30
0.0
11
745.8636
21
30.1481
31
0.0
0
LINE
8
CUT
10
745.8636
20
30.1481
30
0.0
11
745.0909
21
31.2343
31
0.0
0
LINE
8
CUT
10
745.0909
20
31.2343
30
0.0
11
744.3182
21
32.3451
31
0.0
0
LINE
8
CUT
10
744.3182
20
32.3451
30
0.0
11
743.5455
21
33.4814
31
0.0
0
LINE
8
CUT
10
743.5455
20
33.4814
30
0.0
11
742.7727
21
34.6444
31
0.0
0
LINE
8
CUT
10
742.7727
20
34.6444
30
0.0
11
742.0000
21
35.8353
31
0.0
0
LINE
8
CUT
10
742.0000
20
35.8353
30
0.0
11
741.2273
21
37.0554
31
0.0
0
LINE
8
CUT
10
741.2273
20
37.0554
30
0.0
11
740.4545
21
38.3063
31
0.0
0
LINE
8
CUT
10
740.4545
20
38.3063
30
0.0
11
739.6818
21
39.5897
31
0.0
0
LINE
8
CUT
10
739.6818
20
39.5897
30
0.0
11
738.9091
21
40.9075
31
0.0
0
LINE
8
CUT
10
738.9091
20
40.9075
30
0.0
11
738.1364
21
42.2621
31
0.0
0
LINE
8
CUT
10
738.1364
20
42.2621
30
0.0
11
737.3636
21
43.6558
31
0.0
0
LINE
8
CUT
10
737.3636
20
43.6558
30
0.0
11
736.5909
21
45.0918
31
0.0
0
LINE
8
CUT
10
736.5909
20
45.0918
30
0.0
11
735.8182
21
46.5735
31
0.0
0
LINE
8
CUT
10
735.8182
20
46.5735
30
0.0
11
735.0455
21
48.1051
31
0.0
0
LINE
8
CUT
10
735.0455
20
48.1051
30
0.0
11
734.2727
21
49.6913
31
0.0
0
LINE
8
CUT
10
734.2727
20
49.6913
30
0.0
11
733.5000
21
51.3381
31
0.0
0
LINE
8
CUT
10
733.5000
20
51.3381
30
0.0
11
732.7273
21
53.0530
31
0.0
0
LINE
8
CUT
10
732.7273
20
53.0530
30
0.0
11
731.9545
21
54.8449
31
0.0
0
LINE
8
CUT
10
731.9545
20
54.8449
30
0.0
11
731.1818
21
56.7258
31
0.0
0
LINE
8
CUT
10
731.1818
20
56.7258
30
0.0
11
730.4091
21
58.7110
31
0.0
0
LINE
8
CUT
10
730.4091
20
58.7110
30
0.0
11
729.6364
21
60.8221
31
0.0
0
LINE
8
CUT
10
729.6364
20
60.8221
30
0.0
11
728.8636
21
63.0894
31
0.0
0
LINE
8
CUT
10
728.8636
20
63.0894
30
0.0
11
728.0909
21
65.5597
31
0.0
0
LINE
8
CUT
10
728.0909
20
65.5597
30
0.0
11
727.3182
21
68.3114
31
0.0
0
LINE
8
CUT
10
727.3182
20
68.3114
30
0.0
11
726.5455
21
71.4967
31
0.0
0
LINE
8
CUT
10
726.5455
20
71.4967
30
0.0
11
725.7727
21
75.5069
31
0.0
0
LINE
8
CUT
10
725.7727
20
75.5069
30
0.0
11
725.0000
21
84.4335
31
0.0
0
LINE
8
CUT
10
725.0000
20
84.4335
30
0.0
11
725.0000
21
227.0617
31
0.0
0
LINE
8
CUT
10
725.0000
20
227.0617
30
0.0
11
725.0000
21
227.0617
31
0.0
0
ENDSEC
0
EOF
