0
SECTION
2
ENTITIES
0
LINE
8
CHANNEL
10
0.0000
20
0.0000
30
0.0
11
2400.0000
21
0.0000
31
0.0
0
LINE
8
CHANNEL
10
2400.0000
20
0.0000
30
0.0
11
2400.0000
21
600.0000
31
0.0
0
LINE
8
CHANNEL
10
2400.0000
20
600.0000
30
0.0
11
0.0000
21
600.0000
31
0.0
0
LINE
8
CHANNEL
10
0.0000
20
600.0000
30
0.0
11
0.0000
21
0.0000
31
0.0
0
LINE
8
CHANNEL
10
0.0000
20
0.0000
30
0.0
11
0.0000
21
0.0000
31
0.0
0
LINE
8
CUT
10
0.0000
20
308.9000
30
0.0
11
4.9700
21
325.2869
31
0.0
0
LINE
8
CUT
10
4.9700
20
325.2869
30
0.0
11
9.9400
21
330.9829
31
0.0
0
LINE
8
CUT
10
9.9400
20
330.9829
30
0.0
11
14.9100
21
334.5395
31
0.0
0
LINE
8
CUT
10
14.9100
20
334.5395
30
0.0
11
19.8800
21
336.7874
31
0.0
0
LINE
8
CUT
10
19.8800
20
336.7874
30
0.0
11
24.8500
21
338.0312
31
0.0
0
LINE
8
CUT
10
24.8500
20
338.0312
30
0.0
11
29.8200
21
338.4000
31
0.0
0
LINE
8
CUT
10
29.8200
20
338.4000
30
0.0
11
34.7900
21
338.4000
31
0.0
0
LINE
8
CUT
10
34.7900
20
338.4000
30
0.0
11
39.7600
21
338.4000
31
0.0
0
LINE
8
CUT
10
39.7600
20
338.4000
30
0.0
11
44.7300
21
338.4000
31
0.0
0
LINE
8
CUT
10
44.7300
20
338.4000
30
0.0
11
49.7000
21
338.4000
31
0.0
0
LINE
8
CUT
10
49.7000
20
338.4000
30
0.0
11
54.6700
21
338.4000
31
0.0
0
LINE
8
CUT
10
54.6700
20
338.4000
30
0.0
11
59.6400
21
338.4000
31
0.0
0
LINE
8
CUT
10
59.6400
20
338.4000
30
0.0
11
64.6100
21
338.4000
31
0.0
0
LINE
8
CUT
10
64.6100
20
338.4000
30
0.0
11
69.5800
21
338.4000
31
0.0
0
LINE
8
CUT
10
69.5800
20
338.4000
30
0.0
11
74.5500
21
338.4000
31
0.0
0
LINE
8
CUT
10
74.5500
20
338.4000
30
0.0
11
79.5200
21
338.4000
31
0.0
0
LINE
8
CUT
10
79.5200
20
338.4000
30
0.0
11
84.4900
21
338.4000
31
0.0
0
LINE
8
CUT
10
84.4900
20
338.4000
30
0.0
11
89.4600
21
338.4000
31
0.0
0
LINE
8
CUT
10
89.4600
20
338.4000
30
0.0
11
94.4300
21
338.4000
31
0.0
0
LINE
8
CUT
10
94.4300
20
338.4000
30
0.0
11
99.4000
21
338.4000
31
0.0
0
LINE
8
CUT
10
99.4000
20
338.4000
30
0.0
11
104.3700
21
338.4000
31
0.0
0
LINE
8
CUT
10
104.3700
20
338.4000
30
0.0
11
109.3400
21
338.4000
31
0.0
0
LINE
8
CUT
10
109.3400
20
338.4000
30
0.0
11
114.3100
21
338.4000
31
0.0
0
LINE
8
CUT
10
114.3100
20
338.4000
30
0.0
11
119.2800
21
338.4000
31
0.0
0
LINE
8
CUT
10
119.2800
20
338.4000
30
0.0
11
124.2500
21
338.4000
31
0.0
0
LINE
8
CUT
10
124.2500
20
338.4000
30
0.0
11
129.2200
21
338.4000
31
0.0
0
LINE
8
CUT
10
129.2200
20
338.4000
30
0.0
11
134.1900
21
338.4000
31
0.0
0
LINE
8
CUT
10
134.1900
20
338.4000
30
0.0
11
139.1600
21
338.4000
31
0.0
0
LINE
8
CUT
10
139.1600
20
338.4000
30
0.0
11
144.1300
21
338.4000
31
0.0
0
LINE
8
CUT
10
144.1300
20
338.4000
30
0.0
11
149.1000
21
338.4000
31
0.0
0
LINE
8
CUT
10
149.1000
20
338.4000
30
0.0
11
154.0700
21
338.4000
31
0.0
0
LINE
8
CUT
10
154.0700
20
338.4000
30
0.0
11
159.0400
21
338.4000
31
0.0
0
LINE
8
CUT
10
159.0400
20
338.4000
30
0.0
11
164.0100
21
338.4000
31
0.0
0
LINE
8
CUT
10
164.0100
20
338.4000
30
0.0
11
168.9800
21
338.4000
31
0.0
0
LINE
8
CUT
10
168.9800
20
338.4000
30
0.0
11
173.9500
21
338.4000
31
0.0
0
LINE
8
CUT
10
173.9500
20
338.4000
30
0.0
11
178.9200
21
338.4000
31
0.0
0
LINE
8
CUT
10
178.9200
20
338.4000
30
0.0
11
183.8900
21
338.4000
31
0.0
0
LINE
8
CUT
10
183.8900
20
338.4000
30
0.0
11
188.8600
21
338.4000
31
0.0
0
LINE
8
CUT
10
188.8600
20
338.4000
30
0.0
11
193.8300
21
338.4000
31
0.0
0
LINE
8
CUT
10
193.8300
20
338.4000
30
0.0
11
198.8000
21
338.4000
31
0.0
0
LINE
8
CUT
10
198.8000
20
338.4000
30
0.0
11
203.7700
21
338.4000
31
0.0
0
LINE
8
CUT
10
203.7700
20
338.4000
30
0.0
11
208.7400
21
338.4000
31
0.0
0
LINE
8
CUT
10
208.7400
20
338.4000
30
0.0
11
213.7100
21
338.4000
31
0.0
0
LINE
8
CUT
10
213.7100
20
338.4000
30
0.0
11
218.6800
21
338.4000
31
0.0
0
LINE
8
CUT
10
218.6800
20
338.4000
30
0.0
11
223.6500
21
338.4000
31
0.0
0
LINE
8
CUT
10
223.6500
20
338.4000
30
0.0
11
228.6200
21
338.4000
31
0.0
0
LINE
8
CUT
10
228.6200
20
338.4000
30
0.0
11
233.5900
21
338.4000
31
0.0
0
LINE
8
CUT
10
233.5900
20
338.4000
30
0.0
11
238.5600
21
338.4000
31
0.0
0
LINE
8
CUT
10
238.5600
20
338.4000
30
0.0
11
243.5300
21
338.4000
31
0.0
0
LINE
8
CUT
10
243.5300
20
338.4000
30
0.0
11
248.5000
21
338.4000
31
0.0
0
LINE
8
CUT
10
248.5000
20
338.4000
30
0.0
11
253.4700
21
338.4000
31
0.0
0
LINE
8
CUT
10
253.4700
20
338.4000
30
0.0
11
258.4400
21
338.4000
31
0.0
0
LINE
8
CUT
10
258.4400
20
338.4000
30
0.0
11
263.4100
21
338.4000
31
0.0
0
LINE
8
CUT
10
263.4100
20
338.4000
30
0.0
11
268.3800
21
338.4000
31
0.0
0
LINE
8
CUT
10
268.3800
20
338.4000
30
0.0
11
273.3500
21
338.4000
31
0.0
0
LINE
8
CUT
10
273.3500
20
338.4000
30
0.0
11
278.3200
21
338.4000
31
0.0
0
LINE
8
CUT
10
278.3200
20
338.4000
30
0.0
11
283.2900
21
338.4000
31
0.0
0
LINE
8
CUT
10
283.2900
20
338.4000
30
0.0
11
288.2600
21
338.4000
31
0.0
0
LINE
8
CUT
10
288.2600
20
338.4000
30
0.0
11
293.2300
21
338.4000
31
0.0
0
LINE
8
CUT
10
293.2300
20
338.4000
30
0.0
11
298.2000
21
338.4000
31
0.0
0
LINE
8
CUT
10
298.2000
20
338.4000
30
0.0
11
303.1700
21
338.4000
31
0.0
0
LINE
8
CUT
10
303.1700
20
338.4000
30
0.0
11
308.1400
21
338.4000
31
0.0
0
LINE
8
CUT
10
308.1400
20
338.4000
30
0.0
11
313.1100
21
338.4000
31
0.0
0
LINE
8
CUT
10
313.1100
20
338.4000
30
0.0
11
318.0800
21
338.4000
31
0.0
0
LINE
8
CUT
10
318.0800
20
338.4000
30
0.0
11
323.0500
21
338.4000
31
0.0
0
LINE
8
CUT
10
323.0500
20
338.4000
30
0.0
11
328.0200
21
338.4000
31
0.0
0
LINE
8
CUT
10
328.0200
20
338.4000
30
0.0
11
332.9900
21
338.4000
31
0.0
0
LINE
8
CUT
10
332.9900
20
338.4000
30
0.0
11
337.9600
21
338.4000
31
0.0
0
LINE
8
CUT
10
337.9600
20
338.4000
30
0.0
11
342.9300
21
338.4000
31
0.0
0
LINE
8
CUT
10
342.9300
20
338.4000
30
0.0
11
347.9000
21
338.4000
31
0.0
0
LINE
8
CUT
10
347.9000
20
338.4000
30
0.0
11
352.8700
21
338.4000
31
0.0
0
LINE
8
CUT
10
352.8700
20
338.4000
30
0.0
11
357.8400
21
338.4000
31
0.0
0
LINE
8
CUT
10
357.8400
20
338.4000
30
0.0
11
362.8100
21
338.4000
31
0.0
0
LINE
8
CUT
10
362.8100
20
338.4000
30
0.0
11
367.7800
21
338.4000
31
0.0
0
LINE
8
CUT
10
367.7800
20
338.4000
30
0.0
11
372.7500
21
338.4000
31
0.0
0
LINE
8
CUT
10
372.7500
20
338.4000
30
0.0
11
377.7200
21
338.4000
31
0.0
0
LINE
8
CUT
10
377.7200
20
338.4000
30
0.0
11
382.6900
21
338.4000
31
0.0
0
LINE
8
CUT
10
382.6900
20
338.4000
30
0.0
11
387.6600
21
338.4000
31
0.0
0
LINE
8
CUT
10
387.6600
20
338.4000
30
0.0
11
392.6300
21
338.4000
31
0.0
0
LINE
8
CUT
10
392.6300
20
338.4000
30
0.0
11
397.6000
21
338.4000
31
0.0
0
LINE
8
CUT
10
397.6000
20
338.4000
30
0.0
11
402.5700
21
338.4000
31
0.0
0
LINE
8
CUT
10
402.5700
20
338.4000
30
0.0
11
407.5400
21
338.4000
31
0.0
0
LINE
8
CUT
10
407.5400
20
338.4000
30
0.0
11
412.5100
21
338.4000
31
0.0
0
LINE
8
CUT
10
412.5100
20
338.4000
30
0.0
11
417.4800
21
338.4000
31
0.0
0
LINE
8
CUT
10
417.4800
20
338.4000
30
0.0
11
422.4500
21
338.4000
31
0.0
0
LINE
8
CUT
10
422.4500
20
338.4000
30
0.0
11
427.4200
21
338.4000
31
0.0
0
LINE
8
CUT
10
427.4200
20
338.4000
30
0.0
11
432.3900
21
338.4000
31
0.0
0
LINE
8
CUT
10
432.3900
20
338.4000
30
0.0
11
437.3600
21
338.4000
31
0.0
0
LINE
8
CUT
10
437.3600
20
338.4000
30
0.0
11
442.3300
21
338.4000
31
0.0
0
LINE
8
CUT
10
442.3300
20
338.4000
30
0.0
11
447.3000
21
338.4000
31
0.0
0
LINE
8
CUT
10
447.3000
20
338.4000
30
0.0
11
452.2700
21
338.4000
31
0.0
0
LINE
8
CUT
10
452.2700
20
338.4000
30
0.0
11
457.2400
21
338.4000
31
0.0
0
LINE
8
CUT
10
457.2400
20
338.4000
30
0.0
11
462.2100
21
338.4000
31
0.0
0
LINE
8
CUT
10
462.2100
20
338.4000
30
0.0
11
467.1800
21
338.4000
31
0.0
0
LINE
8
CUT
10
467.1800
20
338.4000
30
0.0
11
472.1500
21
338.4000
31
0.0
0
LINE
8
CUT
10
472.1500
20
338.4000
30
0.0
11
477.1200
21
338.4000
31
0.0
0
LINE
8
CUT
10
477.1200
20
338.4000
30
0.0
11
482.0900
21
338.4000
31
0.0
0
LINE
8
CUT
10
482.0900
20
338.4000
30
0.0
11
487.0600
21
338.4000
31
0.0
0
LINE
8
CUT
10
487.0600
20
338.4000
30
0.0
11
492.0300
21
338.4000
31
0.0
0
LINE
8
CUT
10
492.0300
20
338.4000
30
0.0
11
497.0000
21
338.4000
31
0.0
0
LINE
8
CUT
10
497.0000
20
338.4000
30
0.0
11
501.9700
21
338.4000
31
0.0
0
LINE
8
CUT
10
501.9700
20
338.4000
30
0.0
11
506.9400
21
338.4000
31
0.0
0
LINE
8
CUT
10
506.9400
20
338.4000
30
0.0
11
511.9100
21
338.4000
31
0.0
0
LINE
8
CUT
10
511.9100
20
338.4000
30
0.0
11
516.8800
21
338.4000
31
0.0
0
LINE
8
CUT
10
516.8800
20
338.4000
30
0.0
11
521.8500
21
338.0312
31
0.0
0
LINE
8
CUT
10
521.8500
20
338.0312
30
0.0
11
526.8200
21
336.7874
31
0.0
0
LINE
8
CUT
10
526.8200
20
336.7874
30
0.0
11
531.7900
21
334.5395
31
0.0
0
LINE
8
CUT
10
531.7900
20
334.5395
30
0.0
11
536.7600
21
330.9829
31
0.0
0
LINE
8
CUT
10
536.7600
20
330.9829
30
0.0
11
541.7300
21
325.2869
31
0.0
0
LINE
8
CUT
10
541.7300
20
325.2869
30
0.0
11
546.7000
21
308.9000
31
0.0
0
LINE
8
CUT
10
546.7000
20
308.9000
30
0.0
11
546.7000
21
29.5000
31
0.0
0
LINE
8
CUT
10
546.7000
20
29.5000
30
0.0
11
541.7300
21
13.1131
31
0.0
0
LINE
8
CUT
10
541.7300
20
13.1131
30
0.0
11
536.7600
21
7.4171
31
0.0
0
LINE
8
CUT
10
536.7600
20
7.4171
30
0.0
11
531.7900
21
3.8605
31
0.0
0
LINE
8
CUT
10
531.7900
20
3.8605
30
0.0
11
526.8200
21
1.6126
31
0.0
0
LINE
8
CUT
10
526.8200
20
1.6126
30
0.0
11
521.8500
21
0.3688
31
0.0
0
LINE
8
CUT
10
521.8500
20
0.3688
30
0.0
11
516.8800
21
0.0000
31
0.0
0
LINE
8
CUT
10
516.8800
20
0.0000
30
0.0
11
511.9100
21
0.0000
31
0.0
0
LINE
8
CUT
10
511.9100
20
0.0000
30
0.0
11
506.9400
21
0.0000
31
0.0
0
LINE
8
CUT
10
506.9400
20
0.0000
30
0.0
11
501.9700
21
0.0000
31
0.0
0
LINE
8
CUT
10
501.9700
20
0.0000
30
0.0
11
497.0000
21
0.0000
31
0.0
0
LINE
8
CUT
10
497.0000
20
0.0000
30
0.0
11
492.0300
21
0.0000
31
0.0
0
LINE
8
CUT
10
492.0300
20
0.0000
30
0.0
11
487.0600
21
0.0000
31
0.0
0
LINE
8
CUT
10
487.0600
20
0.0000
30
0.0
11
482.0900
21
0.0000
31
0.0
0
LINE
8
CUT
10
482.0900
20
0.0000
30
0.0
11
477.1200
21
0.0000
31
0.0
0
LINE
8
CUT
10
477.1200
20
0.0000
30
0.0
11
472.1500
21
0.0000
31
0.0
0
LINE
8
CUT
10
472.1500
20
0.0000
30
0.0
11
467.1800
21
0.0000
31
0.0
0
LINE
8
CUT
10
467.1800
20
0.0000
30
0.0
11
462.2100
21
0.0000
31
0.0
0
LINE
8
CUT
10
462.2100
20
0.0000
30
0.0
11
457.2400
21
0.0000
31
0.0
0
LINE
8
CUT
10
457.2400
20
0.0000
30
0.0
11
452.2700
21
0.0000
31
0.0
0
LINE
8
CUT
10
452.2700
20
0.0000
30
0.0
11
447.3000
21
0.0000
31
0.0
0
LINE
8
CUT
10
447.3000
20
0.0000
30
0.0
11
442.3300
21
0.0000
31
0.0
0
LINE
8
CUT
10
442.3300
20
0.0000
30
0.0
11
437.3600
21
0.0000
31
0.0
0
LINE
8
CUT
10
437.3600
20
0.0000
30
0.0
11
432.3900
21
0.0000
31
0.0
0
LINE
8
CUT
10
432.3900
20
0.0000
30
0.0
11
427.4200
21
0.0000
31
0.0
0
LINE
8
CUT
10
427.4200
20
0.0000
30
0.0
11
422.4500
21
0.0000
31
0.0
0
LINE
8
CUT
10
422.4500
20
0.0000
30
0.0
11
417.4800
21
0.0000
31
0.0
0
LINE
8
CUT
10
417.4800
20
0.0000
30
0.0
11
412.5100
21
0.0000
31
0.0
0
LINE
8
CUT
10
412.5100
20
0.0000
30
0.0
11
407.5400
21
0.0000
31
0.0
0
LINE
8
CUT
10
407.5400
20
0.0000
30
0.0
11
402.5700
21
0.0000
31
0.0
0
LINE
8
CUT
10
402.5700
20
0.0000
30
0.0
11
397.6000
21
0.0000
31
0.0
0
LINE
8
CUT
10
397.6000
20
0.0000
30
0.0
11
392.6300
21
0.0000
31
0.0
0
LINE
8
CUT
10
392.6300
20
0.0000
30
0.0
11
387.6600
21
0.0000
31
0.0
0
LINE
8
CUT
10
387.6600
20
0.0000
30
0.0
11
382.6900
21
0.0000
31
0.0
0
LINE
8
CUT
10
382.6900
20
0.0000
30
0.0
11
377.7200
21
0.0000
31
0.0
0
LINE
8
CUT
10
377.7200
20
0.0000
30
0.0
11
372.7500
21
0.0000
31
0.0
0
LINE
8
CUT
10
372.7500
20
0.0000
30
0.0
11
367.7800
21
0.0000
31
0.0
0
LINE
8
CUT
10
367.7800
20
0.0000
30
0.0
11
362.8100
21
0.0000
31
0.0
0
LINE
8
CUT
10
362.8100
20
0.0000
30
0.0
11
357.8400
21
0.0000
31
0.0
0
LINE
8
CUT
10
357.8400
20
0.0000
30
0.0
11
352.8700
21
0.0000
31
0.0
0
LINE
8
CUT
10
352.8700
20
0.0000
30
0.0
11
347.9000
21
0.0000
31
0.0
0
LINE
8
CUT
10
347.9000
20
0.0000
30
0.0
11
342.9300
21
0.0000
31
0.0
0
LINE
8
CUT
10
342.9300
20
0.0000
30
0.0
11
337.9600
21
0.0000
31
0.0
0
LINE
8
CUT
10
337.9600
20
0.0000
30
0.0
11
332.9900
21
0.0000
31
0.0
0
LINE
8
CUT
10
332.9900
20
0.0000
30
0.0
11
328.0200
21
0.0000
31
0.0
0
LINE
8
CUT
10
328.0200
20
0.0000
30
0.0
11
323.0500
21
0.0000
31
0.0
0
LINE
8
CUT
10
323.0500
20
0.0000
30
0.0
11
318.0800
21
0.0000
31
0.0
0
LINE
8
CUT
10
318.0800
20
0.0000
30
0.0
11
313.1100
21
0.0000
31
0.0
0
LINE
8
CUT
10
313.1100
20
0.0000
30
0.0
11
308.1400
21
0.0000
31
0.0
0
LINE
8
CUT
10
308.1400
20
0.0000
30
0.0
11
303.1700
21
0.0000
31
0.0
0
LINE
8
CUT
10
303.1700
20
0.0000
30
0.0
11
298.2000
21
0.0000
31
0.0
0
LINE
8
CUT
10
298.2000
20
0.0000
30
0.0
11
293.2300
21
0.0000
31
0.0
0
LINE
8
CUT
10
293.2300
20
0.0000
30
0.0
11
288.2600
21
0.0000
31
0.0
0
LINE
8
CUT
10
288.2600
20
0.0000
30
0.0
11
283.2900
21
0.0000
31
0.0
0
LINE
8
CUT
10
283.2900
20
0.0000
30
0.0
11
278.3200
21
0.0000
31
0.0
0
LINE
8
CUT
10
278.3200
20
0.0000
30
0.0
11
273.3500
21
0.0000
31
0.0
0
LINE
8
CUT
10
273.3500
20
0.0000
30
0.0
11
268.3800
21
0.0000
31
0.0
0
LINE
8
CUT
10
268.3800
20
0.0000
30
0.0
11
263.4100
21
0.0000
31
0.0
0
LINE
8
CUT
10
263.4100
20
0.0000
30
0.0
11
258.4400
21
0.0000
31
0.0
0
LINE
8
CUT
10
258.4400
20
0.0000
30
0.0
11
253.4700
21
0.0000
31
0.0
0
LINE
8
CUT
10
253.4700
20
0.0000
30
0.0
11
248.5000
21
0.0000
31
0.0
0
LINE
8
CUT
10
248.5000
20
0.0000
30
0.0
11
243.5300
21
0.0000
31
0.0
0
LINE
8
CUT
10
243.5300
20
0.0000
30
0.0
11
238.5600
21
0.0000
31
0.0
0
LINE
8
CUT
10
238.5600
20
0.0000
30
0.0
11
233.5900
21
0.0000
31
0.0
0
LINE
8
CUT
10
233.5900
20
0.0000
30
0.0
11
228.6200
21
0.0000
31
0.0
0
LINE
8
CUT
10
228.6200
20
0.0000
30
0.0
11
223.6500
21
0.0000
31
0.0
0
LINE
8
CUT
10
223.6500
20
0.0000
30
0.0
11
218.6800
21
0.0000
31
0.0
0
LINE
8
CUT
10
218.6800
20
0.0000
30
0.0
11
213.7100
21
0.0000
31
0.0
0
LINE
8
CUT
10
213.7100
20
0.0000
30
0.0
11
208.7400
21
0.0000
31
0.0
0
LINE
8
CUT
10
208.7400
20
0.0000
30
0.0
11
203.7700
21
0.0000
31
0.0
0
LINE
8
CUT
10
203.7700
20
0.0000
30
0.0
11
198.8000
21
0.0000
31
0.0
0
LINE
8
CUT
10
198.8000
20
0.0000
30
0.0
11
193.8300
21
0.0000
31
0.0
0
LINE
8
CUT
10
193.8300
20
0.0000
30
0.0
11
188.8600
21
0.0000
31
0.0
0
LINE
8
CUT
10
188.8600
20
0.0000
30
0.0
11
183.8900
21
0.0000
31
0.0
0
LINE
8
CUT
10
183.8900
20
0.0000
30
0.0
11
178.9200
21
0.0000
31
0.0
0
LINE
8
CUT
10
178.9200
20
0.0000
30
0.0
11
173.9500
21
0.0000
31
0.0
0
LINE
8
CUT
10
173.9500
20
0.0000
30
0.0
11
168.9800
21
0.0000
31
0.0
0
LINE
8
CUT
10
168.9800
20
0.0000
30
0.0
11
164.0100
21
0.0000
31
0.0
0
LINE
8
CUT
10
164.0100
20
0.0000
30
0.0
11
159.0400
21
0.0000
31
0.0
0
LINE
8
CUT
10
159.0400
20
0.0000
30
0.0
11
154.0700
21
0.0000
31
0.0
0
LINE
8
CUT
10
154.0700
20
0.0000
30
0.0
11
149.1000
21
0.0000
31
0.0
0
LINE
8
CUT
10
149.1000
20
0.0000
30
0.0
11
144.1300
21
0.0000
31
0.0
0
LINE
8
CUT
10
144.1300
20
0.0000
30
0.0
11
139.1600
21
0.0000
31
0.0
0
LINE
8
CUT
10
139.1600
20
0.0000
30
0.0
11
134.1900
21
0.0000
31
0.0
0
LINE
8
CUT
10
134.1900
20
0.0000
30
0.0
11
129.2200
21
0.0000
31
0.0
0
LINE
8
CUT
10
129.2200
20
0.0000
30
0.0
11
124.2500
21
0.0000
31
0.0
0
LINE
8
CUT
10
124.2500
20
0.0000
30
0.0
11
119.2800
21
0.0000
31
0.0
0
LINE
8
CUT
10
119.2800
20
0.0000
30
0.0
11
114.3100
21
0.0000
31
0.0
0
LINE
8
CUT
10
114.3100
20
0.0000
30
0.0
11
109.3400
21
0.0000
31
0.0
0
LINE
8
CUT
10
109.3400
20
0.0000
30
0.0
11
104.3700
21
0.0000
31
0.0
0
LINE
8
CUT
10
104.3700
20
0.0000
30
0.0
11
99.4000
21
0.0000
31
0.0
0
LINE
8
CUT
10
99.4000
20
0.0000
30
0.0
11
94.4300
21
0.0000
31
0.0
0
LINE
8
CUT
10
94.4300
20
0.0000
30
0.0
11
89.4600
21
0.0000
31
0.0
0
LINE
8
CUT
10
89.4600
20
0.0000
30
0.0
11
84.4900
21
0.0000
31
0.0
0
LINE
8
CUT
10
84.4900
20
0.0000
30
0.0
11
79.5200
21
0.0000
31
0.0
0
LINE
8
CUT
10
79.5200
20
0.0000
30
0.0
11
74.5500
21
0.0000
31
0.0
0
LINE
8
CUT
10
74.5500
20
0.0000
30
0.0
11
69.5800
21
0.0000
31
0.0
0
LINE
8
CUT
10
69.5800
20
0.0000
30
0.0
11
64.6100
21
0.0000
31
0.0
0
LINE
8
CUT
10
64.6100
20
0.0000
30
0.0
11
59.6400
21
0.0000
31
0.0
0
LINE
8
CUT
10
59.6400
20
0.0000
30
0.0
11
54.6700
21
0.0000
31
0.0
0
LINE
8
CUT
10
54.6700
20
0.0000
30
0.0
11
49.7000
21
0.0000
31
0.0
0
LINE
8
CUT
10
49.7000
20
0.0000
30
0.0
11
44.7300
21
0.0000
31
0.0
0
LINE
8
CUT
10
44.7300
20
0.0000
30
0.0
11
39.7600
21
0.0000
31
0.0
0
LINE
8
CUT
10
39.7600
20
0.0000
30
0.0
11
34.7900
21
0.0000
31
0.0
0
LINE
8
CUT
10
34.7900
20
0.0000
30
0.0
11
29.8200
21
0.0000
31
0.0
0
LINE
8
CUT
10
29.8200
20
0.0000
30
0.0
11
24.8500
21
0.3688
31
0.0
0
LINE
8
CUT
10
24.8500
20
0.3688
30
0.0
11
19.8800
21
1.6126
31
0.0
0
LINE
8
CUT
10
19.8800
20
1.6126
30
0.0
11
14.9100
21
3.8605
31
0.0
0
LINE
8
CUT
10
14.9100
20
3.8605
30
0.0
11
9.9400
21
7.4171
31
0.0
0
LINE
8
CUT
10
9.9400
20
7.4171
30
0.0
11
4.9700
21
13.1131
31
0.0
0
LINE
8
CUT
10
4.9700
20
13.1131
30
0.0
11
0.0000
21
29.5000
31
0.0
0
LINE
8
CUT
10
0.0000
20
29.5000
30
0.0
11
0.0000
21
308.9000
31
0.0
0
LINE
8
CUT
10
0.0000
20
308.9000
30
0.0
11
0.0000
21
308.9000
31
0.0
0
LINE
8
CUT
10
554.7000
20
262.1776
30
0.0
11
556.1118
21
272.6037
31
0.0
0
LINE
8
CUT
10
556.1118
20
272.6037
30
0.0
11
557.5236
21
276.3478
31
0.0
0
LINE
8
CUT
10
557.5236
20
276.3478
30
0.0
11
558.9355
21
278.9517
31
0.0
0
LINE
8
CUT
10
558.9355
20
278.9517
30
0.0
11
560.3473
21
280.9482
31
0.0
0
LINE
8
CUT
10
560.3473
20
280.9482
30
0.0
11
561.7591
21
282.5450
31
0.0
0
LINE
8
CUT
10
561.7591
20
282.5450
30
0.0
11
563.1709
21
283.8493
31
0.0
0
LINE
8
CUT
10
563.1709
20
283.8493
30
0.0
11
564.5827
21
284.9255
31
0.0
0
LINE
8
CUT
10
564.5827
20
284.9255
30
0.0
11
565.9945
21
285.8153
31
0.0
0
LINE
8
CUT
10
565.9945
20
285.8153
30
0.0
11
567.4064
21
286.5480
31
0.0
0
LINE
8
CUT
10
567.4064
20
286.5480
30
0.0
11
568.8182
21
287.1451
31
0.0
0
LINE
8
CUT
10
568.8182
20
287.1451
30
0.0
11
570.2300
21
287.6227
31
0.0
0
LINE
8
CUT
10
570.2300
20
287.6227
30
0.0
11
571.6418
21
287.9935
31
0.0
0
LINE
8
CUT
10
571.6418
20
287.9935
30
0.0
11
573.0536
21
288.2673
31
0.0
0
LINE
8
CUT
10
573.0536
20
288.2673
30
0.0
11
574.4655
21
288.4524
31
0.0
0
LINE
8
CUT
10
574.4655
20
288.4524
30
0.0
11
575.8773
21
288.5554
31
0.0
0
LINE
8
CUT
10
575.8773
20
288.5554
30
0.0
11
577.2891
21
288.5818
31
0.0
0
LINE
8
CUT
10
577.2891
20
288.5818
30
0.0
11
578.7009
21
288.5362
31
0.0
0
LINE
8
CUT
10
578.7009
20
288.5362
30
0.0
11
580.1127
21
288.4227
31
0.0
0
LINE
8
CUT
10
580.1127
20
288.4227
30
0.0
11
581.5245
21
288.2446
31
0.0
0
LINE
8
CUT
10
581.5245
20
288.2446
30
0.0
11
582.9364
21
288.0046
31
0.0
0
LINE
8
CUT
10
582.9364
20
288.0046
30
0.0
11
584.3482
21
287.7054
31
0.0
0
LINE
8
CUT
10
584.3482
20
287.7054
30
0.0
11
585.7600
21
287.3490
31
0.0
0
LINE
8
CUT
10
585.7600
20
287.3490
30
0.0
11
587.1718
21
286.9373
31
0.0
0
LINE
8
CUT
10
587.1718
20
286.9373
30
0.0
11
588.5836
21
286.4717
31
0.0
0
LINE
8
CUT
10
588.5836
20
286.4717
30
0.0
11
589.9955
21
285.9537
31
0.0
0
LINE
8
CUT
10
589.9955
20
285.9537
30
0.0
11
591.4073
21
285.3844
31
0.0
0
LINE
8
CUT
10
591.4073
20
285.3844
30
0.0
11
592.8191
21
284.7647
31
0.0
0
LINE
8
CUT
10
592.8191
20
284.7647
30
0.0
11
594.2309
21
284.0954
31
0.0
0
LINE
8
CUT
10
594.2309
20
284.0954
30
0.0
11
595.6427
21
283.3771
31
0.0
0
LINE
8
CUT
10
595.6427
20
283.3771
30
0.0
11
597.0545
21
282.6104
31
0.0
0
LINE
8
CUT
10
597.0545
20
282.6104
30
0.0
11
598.4664
21
281.7955
31
0.0
0
LINE
8
CUT
10
598.4664
20
281.7955
30
0.0
11
599.8782
21
280.9330
31
0.0
0
LINE
8
CUT
10
599.8782
20
280.9330
30
0.0
11
601.2900
21
280.0500
31
0.0
0
LINE
8
CUT
10
601.2900
20
280.0500
30
0.0
11
602.7018
21
279.1635
31
0.0
0
LINE
8
CUT
10
602.7018
20
279.1635
30
0.0
11
604.1136
21
278.2735
31
0.0
0
LINE
8
CUT
10
604.1136
20
278.2735
30
0.0
11
605.5255
21
277.3800
31
0.0
0
LINE
8
CUT
10
605.5255
20
277.3800
30
0.0
11
606.9373
21
276.4831
31
0.0
0
LINE
8
CUT
10
606.9373
20
276.4831
30
0.0
11
608.3491
21
275.5827
31
0.0
0
LINE
8
CUT
10
608.3491
20
275.5827
30
0.0
11
609.7609
21
274.6789
31
0.0
0
LINE
8
CUT
10
609.7609
20
274.6789
30
0.0
11
611.1727
21
273.7717
31
0.0
0
LINE
8
CUT
10
611.1727
20
273.7717
30
0.0
11
612.5845
21
272.8612
31
0.0
0
LINE
8
CUT
10
612.5845
20
272.8612
30
0.0
11
613.9964
21
271.9473
31
0.0
0
LINE
8
CUT
10
613.9964
20
271.9473
30
0.0
11
615.4082
21
271.0301
31
0.0
0
LINE
8
CUT
10
615.4082
20
271.0301
30
0.0
11
616.8200
21
270.1097
31
0.0
0
LINE
8
CUT
10
616.8200
20
270.1097
30
0.0
11
618.2318
21
269.1860
31
0.0
0
LINE
8
CUT
10
618.2318
20
269.1860
30
0.0
11
619.6436
21
268.2591
31
0.0
0
LINE
8
CUT
10
619.6436
20
268.2591
30
0.0
11
621.0555
21
267.3289
31
0.0
0
LINE
8
CUT
10
621.0555
20
267.3289
30
0.0
11
622.4673
21
266.3957
31
0.0
0
LINE
8
CUT
10
622.4673
20
266.3957
30
0.0
11
623.8791
21
265.4593
31
0.0
0
LINE
8
CUT
10
623.8791
20
265.4593
30
0.0
11
625.2909
21
264.5197
31
0.0
0
LINE
8
CUT
10
625.2909
20
264.5197
30
0.0
11
626.7027
21
263.5771
31
0.0
0
LINE
8
CUT
10
626.7027
20
263.5771
30
0.0
11
628.1145
21
262.6315
31
0.0
0
LINE
8
CUT
10
628.1145
20
262.6315
30
0.0
11
629.5264
21
261.6828
31
0.0
0
LINE
8
CUT
10
629.5264
20
261.6828
30
0.0
11
630.9382
21
260.7311
31
0.0
0
LINE
8
CUT
10
630.9382
20
260.7311
30
0.0
11
632.3500
21
259.7764
31
0.0
0
LINE
8
CUT
10
632.3500
20
259.7764
30
0.0
11
633.7618
21
258.8188
31
0.0
0
LINE
8
CUT
10
633.7618
20
258.8188
30
0.0
11
635.1736
21
257.8583
31
0.0
0
LINE
8
CUT
10
635.1736
20
257.8583
30
0.0
11
636.5855
21
256.8950
31
0.0
0
LINE
8
CUT
10
636.5855
20
256.8950
30
0.0
11
637.9973
21
255.9288
31
0.0
0
LINE
8
CUT
10
637.9973
20
255.9288
30
0.0
11
639.4091
21
254.9597
31
0.0
0
LINE
8
CUT
10
639.4091
20
254.9597
30
0.0
11
640.8209
21
253.9879
31
0.0
0
LINE
8
CUT
10
640.8209
20
253.9879
30
0.0
11
642.2327
21
253.0133
31
0.0
0
LINE
8
CUT
10
642.2327
20
253.0133
30
0.0
11
643.6445
21
252.0360
31
0.0
0
LINE
8
CUT
10
643.6445
20
252.0360
30
0.0
11
645.0564
21
251.0560
31
0.0
0
LINE
8
CUT
10
645.0564
20
251.0560
30
0.0
11
646.4682
21
250.0733
31
0.0
0
LINE
8
CUT
10
646.4682
20
250.0733
30
0.0
11
647.8800
21
249.0880
31
0.0
0
LINE
8
CUT
10
647.8800
20
249.0880
30
0.0
11
649.2918
21
248.1001
31
0.0
0
LINE
8
CUT
10
649.2918
20
248.1001
30
0.0
11
650.7036
21
247.1096
31
0.0
0
LINE
8
CUT
10
650.7036
20
247.1096
30
0.0
11
652.1155
21
246.1166
31
0.0
0
LINE
8
CUT
10
652.1155
20
246.1166
30
0.0
11
653.5273
21
245.1211
31
0.0
0
LINE
8
CUT
10
653.5273
20
245.1211
30
0.0
11
654.9391
21
244.1231
31
0.0
0
LINE
8
CUT
10
654.9391
20
244.1231
30
0.0
11
656.3509
21
243.1227
31
0.0
0
LINE
8
CUT
10
656.3509
20
243.1227
30
0.0
11
657.7627
21
242.1198
31
0.0
0
LINE
8
CUT
10
657.7627
20
242.1198
30
0.0
11
659.1745
21
241.1146
31
0.0
0
LINE
8
CUT
10
659.1745
20
241.1146
30
0.0
11
660.5864
21
240.1071
31
0.0
0
LINE
8
CUT
10
660.5864
20
240.1071
30
0.0
11
661.9982
21
239.0972
31
0.0
0
LINE
8
CUT
10
661.9982
20
239.0972
30
0.0
11
663.4100
21
238.0851
31
0.0
0
LINE
8
CUT
10
663.4100
20
238.0851
30
0.0
11
664.8218
21
237.0707
31
0.0
0
LINE
8
CUT
10
664.8218
20
237.0707
30
0.0
11
666.2336
21
236.0372
31
0.0
0
LINE
8
CUT
10
666.2336
20
236.0372
30
0.0
11
667.6455
21
234.9576
31
0.0
0
LINE
8
CUT
10
667.6455
20
234.9576
30
0.0
11
669.0573
21
233.8313
31
0.0
0
LINE
8
CUT
10
669.0573
20
233.8313
30
0.0
11
670.4691
21
232.6580
31
0.0
0
LINE
8
CUT
10
670.4691
20
232.6580
30
0.0
11
671.8809
21
231.4374
31
0.0
0
LINE
8
CUT
10
671.8809
20
231.4374
30
0.0
11
673.2927
21
230.1688
31
0.0
0
LINE
8
CUT
10
673.2927
20
230.1688
30
0.0
11
674.7045
21
228.8516
31
0.0
0
LINE
8
CUT
10
674.7045
20
228.8516
30
0.0
11
676.1164
21
227.4848
31
0.0
0
LINE
8
CUT
10
676.1164
20
227.4848
30
0.0
11
677.5282
21
226.0674
31
0.0
0
LINE
8
CUT
10
677.5282
20
226.0674
30
0.0
11
678.9400
21
224.5981
31
0.0
0
LINE
8
CUT
10
678.9400
20
224.5981
30
0.0
11
680.3518
21
223.0755
31
0.0
0
LINE
8
CUT
10
680.3518
20
223.0755
30
0.0
11
681.7636
21
221.4976
31
0.0
0
LINE
8
CUT
10
681.7636
20
221.4976
30
0.0
11
683.1755
21
219.8626
31
0.0
0
LINE
8
CUT
10
683.1755
20
219.8626
30
0.0
11
684.5873
21
218.1679
31
0.0
0
LINE
8
CUT
10
684.5873
20
218.1679
30
0.0
11
685.9991
21
216.4108
31
0.0
0
LINE
8
CUT
10
685.9991
20
216.4108
30
0.0
11
687.4109
21
214.5880
31
0.0
0
LINE
8
CUT
10
687.4109
20
214.5880
30
0.0
11
688.8227
21
212.6956
31
0.0
0
LINE
8
CUT
10
688.8227
20
212.6956
30
0.0
11
690.2345
21
210.7290
31
0.0
0
LINE
8
CUT
10
690.2345
20
210.7290
30
0.0
11
691.6464
21
208.6827
31
0.0
0
LINE
8
CUT
10
691.6464
20
208.6827
30
0.0
11
693.0582
21
206.5502
31
0.0
0
LINE
8
CUT
10
693.0582
20
206.5502
30
0.0
11
694.4700
21
204.3233
31
0.0
0
LINE
8
CUT
10
694.4700
20
204.3233
30
0.0
11
695.8818
21
201.9922
31
0.0
0
LINE
8
CUT
10
695.8818
20
201.9922
30
0.0
11
697.2936
21
199.5444
31
0.0
0
LINE
8
CUT
10
697.2936
20
199.5444
30
0.0
11
698.7055
21
196.9636
31
0.0
0
LINE
8
CUT
10
698.7055
20
196.9636
30
0.0
11
700.1173
21
194.2286
31
0.0
0
LINE
8
CUT
10
700.1173
20
194.2286
30
0.0
11
701.5291
21
191.3102
31
0.0
0
LINE
8
CUT
10
701.5291
20
191.3102
30
0.0
11
702.9409
21
188.1664
31
0.0
0
LINE
8
CUT
10
702.9409
20
188.1664
30
0.0
11
704.3527
21
184.7333
31
0.0
0
LINE
8
CUT
10
704.3527
20
184.7333
30
0.0
11
705.7645
21
180.9036
31
0.0
0
LINE
8
CUT
10
705.7645
20
180.9036
30
0.0
11
707.1764
21
176.4695
31
0.0
0
LINE
8
CUT
10
707.1764
20
176.4695
30
0.0
11
708.5882
21
170.8985
31
0.0
0
LINE
8
CUT
10
708.5882
20
170.8985
30
0.0
11
710.0000
21
158.6487
31
0.0
0
LINE
8
CUT
10
710.0000
20
158.6487
30
0.0
11
710.0000
21
129.9330
31
0.0
0
LINE
8
CUT
10
710.0000
20
129.9330
30
0.0
11
708.5882
21
117.6833
31
0.0
0
LINE
8
CUT
10
708.5882
20
117.6833
30
0.0
11
707.1764
21
112.1122
31
0.0
0
LINE
8
CUT
10
707.1764
20
112.1122
30
0.0
11
705.7645
21
107.6782
31
0.0
0
LINE
8
CUT
10
705.7645
20
107.6782
30
0.0
11
704.3527
21
103.8485
31
0.0
0
LINE
8
CUT
10
704.3527
20
103.8485
30
0.0
11
702.9409
21
100.4153
31
0.0
0
LINE
8
CUT
10
702.9409
20
100.4153
30
0.0
11
701.5291
21
97.2716
31
0.0
0
LINE
8
CUT
10
701.5291
20
97.2716
30
0.0
11
700.1173
21
94.3532
31
0.0
0
LINE
8
CUT
10
700.1173
20
94.3532
30
0.0
11
698.7055
21
91.6182
31
0.0
0
LINE
8
CUT
10
698.7055
20
91.6182
30
0.0
11
697.2936
21
89.0374
31
0.0
0
LINE
8
CUT
10
697.2936
20
89.0374
30
0.0
11
695.8818
21
86.5896
31
0.0
0
LINE
8
CUT
10
695.8818
20
86.5896
30
0.0
11
694.4700
21
84.2585
31
0.0
0
LINE
8
CUT
10
694.4700
20
84.2585
30
0.0
11
693.0582
21
82.0316
31
0.0
0
LINE
8
CUT
10
693.0582
20
82.0316
30
0.0
11
691.6464
21
79.8991
31
0.0
0
LINE
8
CUT
10
691.6464
20
79.8991
30
0.0
11
690.2345
21
77.8528
31
0.0
0
LINE
8
CUT
10
690.2345
20
77.8528
30
0.0
11
688.8227
21
75.8862
31
0.0
0
LINE
8
CUT
10
688.8227
20
75.8862
30
0.0
11
687.4109
21
73.9938
31
0.0
0
LINE
8
CUT
10
687.4109
20
73.9938
30
0.0
11
685.9991
21
72.1709
31
0.0
0
LINE
8
CUT
10
685.9991
20
72.1709
30
0.0
11
684.5873
21
70.4138
31
0.0
0
LINE
8
CUT
10
684.5873
20
70.4138
30
0.0
11
683.1755
21
68.7192
31
0.0
0
LINE
8
CUT
10
683.1755
20
68.7192
30
0.0
11
681.7636
21
67.0841
31
0.0
0
LINE
8
CUT
10
681.7636
20
67.0841
30
0.0
11
680.3518
21
65.5063
31
0.0
0
LINE
8
CUT
10
680.3518
20
65.5063
30
0.0
11
678.9400
21
63.9836
31
0.0
0
LINE
8
CUT
10
678.9400
20
63.9836
30
0.0
11
677.5282
21
62.5144
31
0.0
0
LINE
8
CUT
10
677.5282
20
62.5144
30
0.0
11
676.1164
21
61.0970
31
0.0
0
LINE
8
CUT
10
676.1164
20
61.0970
30
0.0
11
674.7045
21
59.7302
31
0.0
0
LINE
8
CUT
10
674.7045
20
59.7302
30
0.0
11
673.2927
21
58.4130
31
0.0
0
LINE
8
CUT
10
673.2927
20
58.4130
30
0.0
11
671.8809
21
57.1444
31
0.0
0
LINE
8
CUT
10
671.8809
20
57.1444
30
0.0
11
670.4691
21
55.9238
31
0.0
0
LINE
8
CUT
10
670.4691
20
55.9238
30
0.0
11
669.0573
21
54.7505
31
0.0
0
LINE
8
CUT
10
669.0573
20
54.7505
30
0.0
11
667.6455
21
53.6242
31
0.0
0
LINE
8
CUT
10
667.6455
20
53.6242
30
0.0
11
666.2336
21
52.5445
31
0.0
0
LINE
8
CUT
10
666.2336
20
52.5445
30
0.0
11
664.8218
21
51.5111
31
0.0
0
LINE
8
CUT
10
664.8218
20
51.5111
30
0.0
11
663.4100
21
50.4967
31
0.0
0
LINE
8
CUT
10
663.4100
20
50.4967
30
0.0
11
661.9982
21
49.4846
31
0.0
0
LINE
8
CUT
10
661.9982
20
49.4846
30
0.0
11
660.5864
21
48.4747
31
0.0
0
LINE
8
CUT
10
660.5864
20
48.4747
30
0.0
11
659.1745
21
47.4672
31
0.0
0
LINE
8
CUT
10
659.1745
20
47.4672
30
0.0
11
657.7627
21
46.4620
31
0.0
0
LINE
8
CUT
10
657.7627
20
46.4620
30
0.0
11
656.3509
21
45.4591
31
0.0
0
LINE
8
CUT
10
656.3509
20
45.4591
30
0.0
11
654.9391
21
44.4587
31
0.0
0
LINE
8
CUT
10
654.9391
20
44.4587
30
0.0
11
653.5273
21
43.4607
31
0.0
0
LINE
8
CUT
10
653.5273
20
43.4607
30
0.0
11
652.1155
21
42.4652
31
0.0
0
LINE
8
CUT
10
652.1155
20
42.4652
30
0.0
11
650.7036
21
41.4722
31
0.0
0
LINE
8
CUT
10
650.7036
20
41.4722
30
0.0
11
649.2918
21
40.4817
31
0.0
0
LINE
8
CUT
10
649.2918
20
40.4817
30
0.0
11
647.8800
21
39.4938
31
0.0
0
LINE
8
CUT
10
647.8800
20
39.4938
30
0.0
11
646.4682
21
38.5085
31
0.0
0
LINE
8
CUT
10
646.4682
20
38.5085
30
0.0
11
645.0564
21
37.5258
31
0.0
0
LINE
8
CUT
10
645.0564
20
37.5258
30
0.0
11
643.6445
21
36.5458
31
0.0
0
LINE
8
CUT
10
643.6445
20
36.5458
30
0.0
11
642.2327
21
35.5685
31
0.0
0
LINE
8
CUT
10
642.2327
20
35.5685
30
0.0
11
640.8209
21
34.5939
31
0.0
0
LINE
8
CUT
10
640.8209
20
34.5939
30
0.0
11
639.4091
21
33.6221
31
0.0
0
LINE
8
CUT
10
639.4091
20
33.6221
30
0.0
11
637.9973
21
32.6530
31
0.0
0
LINE
8
CUT
10
637.9973
20
32.6530
30
0.0
11
636.5855
21
31.6868
31
0.0
0
LINE
8
CUT
10
636.5855
20
31.6868
30
0.0
11
635.1736
21
30.7234
31
0.0
0
LINE
8
CUT
10
635.1736
20
30.7234
30
0.0
11
633.7618
21
29.7629
31
0.0
0
LINE
8
CUT
10
633.7618
20
29.7629
30
0.0
11
632.3500
21
28.8053
31
0.0
0
LINE
8
CUT
10
632.3500
20
28.8053
30
0.0
11
630.9382
21
27.8507
31
0.0
0
LINE
8
CUT
10
630.9382
20
27.8507
30
0.0
11
629.5264
21
26.8990
31
0.0
0
LINE
8
CUT
10
629.5264
20
26.8990
30
0.0
11
628.1145
21
25.9503
31
0.0
0
LINE
8
CUT
10
628.1145
20
25.9503
30
0.0
11
626.7027
21
25.0047
31
0.0
0
LINE
8
CUT
10
626.7027
20
25.0047
30
0.0
11
625.2909
21
24.0620
31
0.0
0
LINE
8
CUT
10
625.2909
20
24.0620
30
0.0
11
623.8791
21
23.1225
31
0.0
0
LINE
8
CUT
10
623.8791
20
23.1225
30
0.0
11
622.4673
21
22.1861
31
0.0
0
LINE
8
CUT
10
622.4673
20
22.1861
30
0.0
11
621.0555
21
21.2528
31
0.0
0
LINE
8
CUT
10
621.0555
20
21.2528
30
0.0
11
619.6436
21
20.3227
31
0.0
0
LINE
8
CUT
10
619.6436
20
20.3227
30
0.0
11
618.2318
21
19.3958
31
0.0
0
LINE
8
CUT
10
618.2318
20
19.3958
30
0.0
11
616.8200
21
18.4721
31
0.0
0
LINE
8
CUT
10
616.8200
20
18.4721
30
0.0
11
615.4082
21
17.5517
31
0.0
0
LINE
8
CUT
10
615.4082
20
17.5517
30
0.0
11
613.9964
21
16.6345
31
0.0
0
LINE
8
CUT
10
613.9964
20
16.6345
30
0.0
11
612.5845
21
15.7206
31
0.0
0
LINE
8
CUT
10
612.5845
20
15.7206
30
0.0
11
611.1727
21
14.8101
31
0.0
0
LINE
8
CUT
10
611.1727
20
14.8101
30
0.0
11
609.7609
21
13.9029
31
0.0
0
LINE
8
CUT
10
609.7609
20
13.9029
30
0.0
11
608.3491
21
12.9991
31
0.0
0
LINE
8
CUT
10
608.3491
20
12.9991
30
0.0
11
606.9373
21
12.0987
31
0.0
0
LINE
8
CUT
10
606.9373
20
12.0987
30
0.0
11
605.5255
21
11.2017
31
0.0
0
LINE
8
CUT
10
605.5255
20
11.2017
30
0.0
11
604.1136
21
10.3083
31
0.0
0
LINE
8
CUT
10
604.1136
20
10.3083
30
0.0
11
602.7018
21
9.4182
31
0.0
0
LINE
8
CUT
10
602.7018
20
9.4182
30
0.0
11
601.2900
21
8.5317
31
0.0
0
LINE
8
CUT
10
601.2900
20
8.5317
30
0.0
11
599.8782
21
7.6488
31
0.0
0
LINE
8
CUT
10
599.8782
20
7.6488
30
0.0
11
598.4664
21
6.7863
31
0.0
0
LINE
8
CUT
10
598.4664
20
6.7863
30
0.0
11
597.0545
21
5.9714
31
0.0
0
LINE
8
CUT
10
597.0545
20
5.9714
30
0.0
11
595.6427
21
5.2047
31
0.0
0
LINE
8
CUT
10
595.6427
20
5.2047
30
0.0
11
594.2309
21
4.4864
31
0.0
0
LINE
8
CUT
10
594.2309
20
4.4864
30
0.0
11
592.8191
21
3.8171
31
0.0
0
LINE
8
CUT
10
592.8191
20
3.8171
30
0.0
11
591.4073
21
3.1974
31
0.0
0
LINE
8
CUT
10
591.4073
20
3.1974
30
0.0
11
589.9955
21
2.6281
31
0.0
0
LINE
8
CUT
10
589.9955
20
2.6281
30
0.0
11
588.5836
21
2.1101
31
0.0
0
LINE
8
CUT
10
588.5836
20
2.1101
30
0.0
11
587.1718
21
1.6445
31
0.0
0
LINE
8
CUT
10
587.1718
20
1.6445
30
0.0
11
585.7600
21
1.2328
31
0.0
0
LINE
8
CUT
10
585.7600
20
1.2328
30
0.0
11
584.3482
21
0.8764
31
0.0
0
LINE
8
CUT
10
584.3482
20
0.8764
30
0.0
11
582.9364
21
0.5771
31
0.0
0
LINE
8
CUT
10
582.9364
20
0.5771
30
0.0
11
581.5245
21
0.3372
31
0.0
0
LINE
8
CUT
10
581.5245
20
0.3372
30
0.0
11
580.1127
21
0.1591
31
0.0
0
LINE
8
CUT
10
580.1127
20
0.1591
30
0.0
11
578.7009
21
0.0455
31
0.0
0
LINE
8
CUT
10
578.7009
20
0.0455
30
0.0
11
577.2891
21
0.0000
31
0.0
0
LINE
8
CUT
10
577.2891
20
0.0000
30
0.0
11
575.8773
21
0.0264
31
0.0
0
LINE
8
CUT
10
575.8773
20
0.0264
30
0.0
11
574.4655
21
0.1294
31
0.0
0
LINE
8
CUT
10
574.4655
20
0.1294
30
0.0
11
573.0536
21
0.3145
31
0.0
0
LINE
8
CUT
10
573.0536
20
0.3145
30
0.0
11
571.6418
21
0.5883
31
0.0
0
LINE
8
CUT
10
571.6418
20
0.5883
30
0.0
11
570.2300
21
0.9590
31
0.0
0
LINE
8
CUT
10
570.2300
20
0.9590
30
0.0
11
568.8182
21
1.4367
31
0.0
0
LINE
8
CUT
10
568.8182
20
1.4367
30
0.0
11
567.4064
21
2.0338
31
0.0
0
LINE
8
CUT
10
567.4064
20
2.0338
30
0.0
11
565.9945
21
2.7665
31
0.0
0
LINE
8
CUT
10
565.9945
20
2.7665
30
0.0
11
564.5827
21
3.6563
31
0.0
0
LINE
8
CUT
10
564.5827
20
3.6563
30
0.0
11
563.1709
21
4.7324
31
0.0
0
LINE
8
CUT
10
563.1709
20
4.7324
30
0.0
11
561.7591
21
6.0368
31
0.0
0
LINE
8
CUT
10
561.7591
20
6.0368
30
0.0
11
560.3473
21
7.6336
31
0.0
0
LINE
8
CUT
10
560.3473
20
7.6336
30
0.0
11
558.9355
21
9.6300
31
0.0
0
LINE
8
CUT
10
558.9355
20
9.6300
30
0.0
11
557.5236
21
12.2340
31
0.0
0
LINE
8
CUT
10
557.5236
20
12.2340
30
0.0
11
556.1118
21
15.9781
31
0.0
0
LINE
8
CUT
10
556.1118
20
15.9781
30
0.0
11
554.7000
21
26.4042
31
0.0
0
LINE
8
CUT
10
554.7000
20
26.4042
30
0.0
11
554.7000
21
262.1776
31
0.0
0
LINE
8
CUT
10
554.7000
20
262.1776
30
0.0
11
554.7000
21
262.1776
31
0.0
0
LINE
8
CUT
10
718.0000
20
228.7682
30
0.0
11
718.8364
21
238.0666
31
0.0
0
LINE
8
CUT
10
718.8364
20
238.0666
30
0.0
11
719.6727
21
242.2472
31
0.0
0
LINE
8
CUT
10
719.6727
20
242.2472
30
0.0
11
720.5091
21
245.5679
31
0.0
0
LINE
8
CUT
10
720.5091
20
245.5679
30
0.0
11
721.3455
21
248.4359
31
0.0
0
LINE
8
CUT
10
721.3455
20
248.4359
30
0.0
11
722.1818
21
251.0097
31
0.0
0
LINE
8
CUT
10
722.1818
20
251.0097
30
0.0
11
723.0182
21
253.3710
31
0.0
0
LINE
8
CUT
10
723.0182
20
253.3710
30
0.0
11
723.8545
21
255.5684
31
0.0
0
LINE
8
CUT
10
723.8545
20
255.5684
30
0.0
11
724.6909
21
257.6339
31
0.0
0
LINE
8
CUT
10
724.6909
20
257.6339
30
0.0
11
725.5273
21
259.5895
31
0.0
0
LINE
8
CUT
10
725.5273
20
259.5895
30
0.0
11
726.3636
21
261.4515
31
0.0
0
LINE
8
CUT
10
726.3636
20
261.4515
30
0.0
11
727.2000
21
263.2323
31
0.0
0
LINE
8
CUT
10
727.2000
20
263.2323
30
0.0
11
728.0364
21
264.9412
31
0.0
0
LINE
8
CUT
10
728.0364
20
264.9412
30
0.0
11
728.8727
21
266.5860
31
0.0
0
LINE
8
CUT
10
728.8727
20
266.5860
30
0.0
11
729.7091
21
268.1728
31
0.0
0
LINE
8
CUT
10
729.7091
20
268.1728
30
0.0
11
730.5455
21
269.7068
31
0.0
0
LINE
8
CUT
10
730.5455
20
269.7068
30
0.0
11
731.3818
21
271.1922
31
0.0
0
LINE
8
CUT
10
731.3818
20
271.1922
30
0.0
11
732.2182
21
272.6326
31
0.0
0
LINE
8
CUT
10
732.2182
20
272.6326
30
0.0
11
733.0545
21
274.0312
31
0.0
0
LINE
8
CUT
10
733.0545
20
274.0312
30
0.0
11
733.8909
21
275.3906
31
0.0
0
LINE
8
CUT
10
733.8909
20
275.3906
30
0.0
11
734.7273
21
276.7131
31
0.0
0
LINE
8
CUT
10
734.7273
20
276.7131
30
0.0
11
735.5636
21
278.0007
31
0.0
0
LINE
8
CUT
10
735.5636
20
278.0007
30
0.0
11
736.4000
21
279.2554
31
0.0
0
LINE
8
CUT
10
736.4000
20
279.2554
30
0.0
11
737.2364
21
280.4785
31
0.0
0
LINE
8
CUT
10
737.2364
20
280.4785
30
0.0
11
738.0727
21
281.6717
31
0.0
0
LINE
8
CUT
10
738.0727
20
281.6717
30
0.0
11
738.9091
21
282.8360
31
0.0
0
LINE
8
CUT
10
738.9091
20
282.8360
30
0.0
11
739.7455
21
283.9727
31
0.0
0
LINE
8
CUT
10
739.7455
20
283.9727
30
0.0
11
740.5818
21
285.0827
31
0.0
0
LINE
8
CUT
10
740.5818
20
285.0827
30
0.0
11
741.4182
21
286.1670
31
0.0
0
LINE
8
CUT
10
741.4182
20
286.1670
30
0.0
11
742.2545
21
287.2264
31
0.0
0
LINE
8
CUT
10
742.2545
20
287.2264
30
0.0
11
743.0909
21
288.2617
31
0.0
0
LINE
8
CUT
10
743.0909
20
288.2617
30
0.0
11
743.9273
21
289.2736
31
0.0
0
LINE
8
CUT
10
743.9273
20
289.2736
30
0.0
11
744.7636
21
290.4307
31
0.0
0
LINE
8
CUT
10
744.7636
20
290.4307
30
0.0
11
745.6000
21
291.3983
31
0.0
0
LINE
8
CUT
10
745.6000
20
291.3983
30
0.0
11
746.4364
21
292.3440
31
0.0
0
LINE
8
CUT
10
746.4364
20
292.3440
30
0.0
11
747.2727
21
293.2685
31
0.0
0
LINE
8
CUT
10
747.2727
20
293.2685
30
0.0
11
748.1091
21
294.1722
31
0.0
0
LINE
8
CUT
10
748.1091
20
294.1722
30
0.0
11
748.9455
21
295.0554
31
0.0
0
LINE
8
CUT
10
748.9455
20
295.0554
30
0.0
11
749.7818
21
295.9186
31
0.0
0
LINE
8
CUT
10
749.7818
20
295.9186
30
0.0
11
750.6182
21
296.7619
31
0.0
0
LINE
8
CUT
10
750.6182
20
296.7619
30
0.0
11
751.4545
21
297.5859
31
0.0
0
LINE
8
CUT
10
751.4545
20
297.5859
30
0.0
11
752.2909
21
298.3906
31
0.0
0
LINE
8
CUT
10
752.2909
20
298.3906
30
0.0
11
753.1273
21
299.1763
31
0.0
0
LINE
8
CUT
10
753.1273
20
299.1763
30
0.0
11
753.9636
21
299.9434
31
0.0
0
LINE
8
CUT
10
753.9636
20
299.9434
30
0.0
11
754.8000
21
300.6919
31
0.0
0
LINE
8
CUT
10
754.8000
20
300.6919
30
0.0
11
755.6364
21
301.4220
31
0.0
0
LINE
8
CUT
10
755.6364
20
301.4220
30
0.0
11
756.4727
21
302.1339
31
0.0
0
LINE
8
CUT
10
756.4727
20
302.1339
30
0.0
11
757.3091
21
302.8278
31
0.0
0
LINE
8
CUT
10
757.3091
20
302.8278
30
0.0
11
758.1455
21
303.5037
31
0.0
0
LINE
8
CUT
10
758.1455
20
303.5037
30
0.0
11
758.9818
21
304.1617
31
0.0
0
LINE
8
CUT
10
758.9818
20
304.1617
30
0.0
11
759.8182
21
304.8020
31
0.0
0
LINE
8
CUT
10
759.8182
20
304.8020
30
0.0
11
760.6545
21
305.4245
31
0.0
0
LINE
8
CUT
10
760.6545
20
305.4245
30
0.0
11
761.4909
21
307.8574
31
0.0
0
LINE
8
CUT
10
761.4909
20
307.8574
30
0.0
11
762.3273
21
308.4517
31
0.0
0
LINE
8
CUT
10
762.3273
20
308.4517
30
0.0
11
763.1636
21
309.0286
31
0.0
0
LINE
8
CUT
10
763.1636
20
309.0286
30
0.0
11
764.0000
21
309.5984
31
0.0
0
LINE
8
CUT
10
764.0000
20
309.5984
30
0.0
11
764.8364
21
310.1661
31
0.0
0
LINE
8
CUT
10
764.8364
20
310.1661
30
0.0
11
765.6727
21
310.7267
31
0.0
0
LINE
8
CUT
10
765.6727
20
310.7267
30
0.0
11
766.5091
21
311.2698
31
0.0
0
LINE
8
CUT
10
766.5091
20
311.2698
30
0.0
11
767.3455
21
311.7953
31
0.0
0
LINE
8
CUT
10
767.3455
20
311.7953
30
0.0
11
768.1818
21
312.3030
31
0.0
0
LINE
8
CUT
10
768.1818
20
312.3030
30
0.0
11
769.0182
21
312.7929
31
0.0
0
LINE
8
CUT
10
769.0182
20
312.7929
30
0.0
11
769.8545
21
313.2649
31
0.0
0
LINE
8
CUT
10
769.8545
20
313.2649
30
0.0
11
770.6909
21
313.7189
31
0.0
0
LINE
8
CUT
10
770.6909
20
313.7189
30
0.0
11
771.5273
21
314.1548
31
0.0
0
LINE
8
CUT
10
771.5273
20
314.1548
30
0.0
11
772.3636
21
314.5724
31
0.0
0
LINE
8
CUT
10
772.3636
20
314.5724
30
0.0
11
773.2000
21
314.9717
31
0.0
0
LINE
8
CUT
10
773.2000
20
314.9717
30
0.0
11
774.0364
21
315.3525
31
0.0
0
LINE
8
CUT
10
774.0364
20
315.3525
30
0.0
11
774.8727
21
315.7145
31
0.0
0
LINE
8
CUT
10
774.8727
20
315.7145
30
0.0
11
775.7091
21
316.0576
31
0.0
0
LINE
8
CUT
10
775.7091
20
316.0576
30
0.0
11
776.5455
21
316.3815
31
0.0
0
LINE
8
CUT
10
776.5455
20
316.3815
30
0.0
11
777.3818
21
316.6859
31
0.0
0
LINE
8
CUT
10
777.3818
20
316.6859
30
0.0
11
778.2182
21
316.9706
31
0.0
0
LINE
8
CUT
10
778.2182
20
316.9706
30
0.0
11
779.0545
21
317.2353
31
0.0
0
LINE
8
CUT
10
779.0545
20
317.2353
30
0.0
11
779.8909
21
317.4797
31
0.0
0
LINE
8
CUT
10
779.8909
20
317.4797
30
0.0
11
780.7273
21
317.7032
31
0.0
0
LINE
8
CUT
10
780.7273
20
317.7032
30
0.0
11
781.5636
21
317.9057
31
0.0
0
LINE
8
CUT
10
781.5636
20
317.9057
30
0.0
11
782.4000
21
318.0865
31
0.0
0
LINE
8
CUT
10
782.4000
20
318.0865
30
0.0
11
783.2364
21
318.2452
31
0.0
0
LINE
8
CUT
10
783.2364
20
318.2452
30
0.0
11
784.0727
21
318.3813
31
0.0
0
LINE
8
CUT
10
784.0727
20
318.3813
30
0.0
11
784.9091
21
318.4942
31
0.0
0
LINE
8
CUT
10
784.9091
20
318.4942
30
0.0
11
785.7455
21
318.5833
31
0.0
0
LINE
8
CUT
10
785.7455
20
318.5833
30
0.0
11
786.5818
21
318.6478
31
0.0
0
LINE
8
CUT
10
786.5818
20
318.6478
30
0.0
11
787.4182
21
318.6871
31
0.0
0
LINE
8
CUT
10
787.4182
20
318.6871
30
0.0
11
788.2545
21
318.9042
31
0.0
0
LINE
8
CUT
10
788.2545
20
318.9042
30
0.0
11
789.0909
21
318.8908
31
0.0
0
LINE
8
CUT
10
789.0909
20
318.8908
30
0.0
11
789.9273
21
318.8493
31
0.0
0
LINE
8
CUT
10
789.9273
20
318.8493
30
0.0
11
790.7636
21
318.7785
31
0.0
0
LINE
8
CUT
10
790.7636
20
318.7785
30
0.0
11
791.6000
21
318.6772
31
0.0
0
LINE
8
CUT
10
791.6000
20
318.6772
30
0.0
11
792.4364
21
318.5439
31
0.0
0
LINE
8
CUT
10
792.4364
20
318.5439
30
0.0
11
793.2727
21
318.3770
31
0.0
0
LINE
8
CUT
10
793.2727
20
318.3770
30
0.0
11
794.1091
21
318.1747
31
0.0
0
LINE
8
CUT
10
794.1091
20
318.1747
30
0.0
11
794.9455
21
317.9350
31
0.0
0
LINE
8
CUT
10
794.9455
20
317.9350
30
0.0
11
795.7818
21
317.6556
31
0.0
0
LINE
8
CUT
10
795.7818
20
317.6556
30
0.0
11
796.6182
21
317.3337
31
0.0
0
LINE
8
CUT
10
796.6182
20
317.3337
30
0.0
11
797.4545
21
316.9662
31
0.0
0
LINE
8
CUT
10
797.4545
20
316.9662
30
0.0
11
798.2909
21
316.5496
31
0.0
0
LINE
8
CUT
10
798.2909
20
316.5496
30
0.0
11
799.1273
21
316.0794
31
0.0
0
LINE
8
CUT
10
799.1273
20
316.0794
30
0.0
11
799.9636
21
315.5507
31
0.0
0
LINE
8
CUT
10
799.9636
20
315.5507
30
0.0
11
800.8000
21
314.9571
31
0.0
0
LINE
8
CUT
10
800.8000
20
314.9571
30
0.0
11
801.6364
21
314.2911
31
0.0
0
LINE
8
CUT
10
801.6364
20
314.2911
30
0.0
11
802.4727
21
313.5431
31
0.0
0
LINE
8
CUT
10
802.4727
20
313.5431
30
0.0
11
803.3091
21
312.7008
31
0.0
0
LINE
8
CUT
10
803.3091
20
312.7008
30
0.0
11
804.1455
21
311.7479
31
0.0
0
LINE
8
CUT
10
804.1455
20
311.7479
30
0.0
11
804.9818
21
310.6624
31
0.0
0
LINE
8
CUT
10
804.9818
20
310.6624
30
0.0
11
805.8182
21
309.4122
31
0.0
0
LINE
8
CUT
10
805.8182
20
309.4122
30
0.0
11
806.6545
21
307.9487
31
0.0
0
LINE
8
CUT
10
806.6545
20
307.9487
30
0.0
11
807.4909
21
306.1903
31
0.0
0
LINE
8
CUT
10
807.4909
20
306.1903
30
0.0
11
808.3273
21
303.9784
31
0.0
0
LINE
8
CUT
10
808.3273
20
303.9784
30
0.0
11
809.1636
21
300.9056
31
0.0
0
LINE
8
CUT
10
809.1636
20
300.9056
30
0.0
11
810.0000
21
292.7144
31
0.0
0
LINE
8
CUT
10
810.0000
20
292.7144
30
0.0
11
810.0000
21
26.1898
31
0.0
0
LINE
8
CUT
10
810.0000
20
26.1898
30
0.0
11
809.1636
21
17.9986
31
0.0
0
LINE
8
CUT
10
809.1636
20
17.9986
30
0.0
11
808.3273
21
14.9258
31
0.0
0
LINE
8
CUT
10
808.3273
20
14.9258
30
0.0
11
807.4909
21
12.7140
31
0.0
0
LINE
8
CUT
10
807.4909
20
12.7140
30
0.0
11
806.6545
21
10.9555
31
0.0
0
LINE
8
CUT
10
806.6545
20
10.9555
30
0.0
11
805.8182
21
9.4921
31
0.0
0
LINE
8
CUT
10
805.8182
20
9.4921
30
0.0
11
804.9818
21
8.2419
31
0.0
0
LINE
8
CUT
10
804.9818
20
8.2419
30
0.0
11
804.1455
21
7.1563
31
0.0
0
LINE
8
CUT
10
804.1455
20
7.1563
30
0.0
11
803.3091
21
6.2034
31
0.0
0
LINE
8
CUT
10
803.3091
20
6.2034
30
0.0
11
802.4727
21
5.3611
31
0.0
0
LINE
8
CUT
10
802.4727
20
5.3611
30
0.0
11
801.6364
21
4.6131
31
0.0
0
LINE
8
CUT
10
801.6364
20
4.6131
30
0.0
11
800.8000
21
3.9471
31
0.0
0
LINE
8
CUT
10
800.8000
20
3.9471
30
0.0
11
799.9636
21
3.3535
31
0.0
0
LINE
8
CUT
10
799.9636
20
3.3535
30
0.0
11
799.1273
21
2.8248
31
0.0
0
LINE
8
CUT
10
799.1273
20
2.8248
30
0.0
11
798.2909
21
2.3547
31
0.0
0
LINE
8
CUT
10
798.2909
20
2.3547
30
0.0
11
797.4545
21
1.9380
31
0.0
0
LINE
8
CUT
10
797.4545
20
1.9380
30
0.0
11
796.6182
21
1.5705
31
0.0
0
LINE
8
CUT
10
796.6182
20
1.5705
30
0.0
11
795.7818
21
1.2486
31
0.0
0
LINE
8
CUT
10
795.7818
20
1.2486
30
0.0
11
794.9455
21
0.9692
31
0.0
0
LINE
8
CUT
10
794.9455
20
0.9692
30
0.0
11
794.1091
21
0.7295
31
0.0
0
LINE
8
CUT
10
794.1091
20
0.7295
30
0.0
11
793.2727
21
0.5273
31
0.0
0
LINE
8
CUT
10
793.2727
20
0.5273
30
0.0
11
792.4364
21
0.3604
31
0.0
0
LINE
8
CUT
10
792.4364
20
0.3604
30
0.0
11
791.6000
21
0.2271
31
0.0
0
LINE
8
CUT
10
791.6000
20
0.2271
30
0.0
11
790.7636
21
0.1257
31
0.0
0
LINE
8
CUT
10
790.7636
20
0.1257
30
0.0
11
789.9273
21
0.0549
31
0.0
0
LINE
8
CUT
10
789.9273
20
0.0549
30
0.0
11
789.0909
21
0.0134
31
0.0
0
LINE
8
CUT
10
789.0909
20
0.0134
30
0.0
11
788.2545
21
0.0000
31
0.0
0
LINE
8
CUT
10
788.2545
20
0.0000
30
0.0
11
787.4182
21
0.2172
31
0.0
0
LINE
8
CUT
10
787.4182
20
0.2172
30
0.0
11
786.5818
21
0.2564
31
0.0
0
LINE
8
CUT
10
786.5818
20
0.2564
30
0.0
11
785.7455
21
0.3209
31
0.0
0
LINE
8
CUT
10
785.7455
20
0.3209
30
0.0
11
784.9091
21
0.4100
31
0.0
0
LINE
8
CUT
10
784.9091
20
0.4100
30
0.0
11
784.0727
21
0.5229
31
0.0
0
LINE
8
CUT
10
784.0727
20
0.5229
30
0.0
11
783.2364
21
0.6590
31
0.0
0
LINE
8
CUT
10
783.2364
20
0.6590
30
0.0
11
782.4000
21
0.8177
31
0.0
0
LINE
8
CUT
10
782.4000
20
0.8177
30
0.0
11
781.5636
21
0.9986
31
0.0
0
LINE
8
CUT
10
781.5636
20
0.9986
30
0.0
11
780.7273
21
1.2010
31
0.0
0
LINE
8
CUT
10
780.7273
20
1.2010
30
0.0
11
779.8909
21
1.4246
31
0.0
0
LINE
8
CUT
10
779.8909
20
1.4246
30
0.0
11
779.0545
21
1.6689
31
0.0
0
LINE
8
CUT
10
779.0545
20
1.6689
30
0.0
11
778.2182
21
1.9336
31
0.0
0
LINE
8
CUT
10
778.2182
20
1.9336
30
0.0
11
777.3818
21
2.2183
31
0.0
0
LINE
8
CUT
10
777.3818
20
2.2183
30
0.0
11
776.5455
21
2.5228
31
0.0
0
LINE
8
CUT
10
776.5455
20
2.5228
30
0.0
11
775.7091
21
2.8467
31
0.0
0
LINE
8
CUT
10
775.7091
20
2.8467
30
0.0
11
774.8727
21
3.1897
31
0.0
0
LINE
8
CUT
10
774.8727
20
3.1897
30
0.0
11
774.0364
21
3.5517
31
0.0
0
LINE
8
CUT
10
774.0364
20
3.5517
30
0.0
11
773.2000
21
3.9325
31
0.0
0
LINE
8
CUT
10
773.2000
20
3.9325
30
0.0
11
772.3636
21
4.3318
31
0.0
0
LINE
8
CUT
10
772.3636
20
4.3318
30
0.0
11
771.5273
21
4.7495
31
0.0
0
LINE
8
CUT
10
771.5273
20
4.7495
30
0.0
11
770.6909
21
5.1854
31
0.0
0
LINE
8
CUT
10
770.6909
20
5.1854
30
0.0
11
769.8545
21
5.6394
31
0.0
0
LINE
8
CUT
10
769.8545
20
5.6394
30
0.0
11
769.0182
21
6.1114
31
0.0
0
LINE
8
CUT
10
769.0182
20
6.1114
30
0.0
11
768.1818
21
6.6013
31
0.0
0
LINE
8
CUT
10
768.1818
20
6.6013
30
0.0
11
767.3455
21
7.1089
31
0.0
0
LINE
8
CUT
10
767.3455
20
7.1089
30
0.0
11
766.5091
21
7.6344
31
0.0
0
LINE
8
CUT
10
766.5091
20
7.6344
30
0.0
11
765.6727
21
8.1776
31
0.0
0
LINE
8
CUT
10
765.6727
20
8.1776
30
0.0
11
764.8364
21
8.7381
31
0.0
0
LINE
8
CUT
10
764.8364
20
8.7381
30
0.0
11
764.0000
21
9.3058
31
0.0
0
LINE
8
CUT
10
764.0000
20
9.3058
30
0.0
11
763.1636
21
9.8756
31
0.0
0
LINE
8
CUT
10
763.1636
20
9.8756
30
0.0
11
762.3273
21
10.4526
31
0.0
0
LINE
8
CUT
10
762.3273
20
10.4526
30
0.0
11
761.4909
21
11.0469
31
0.0
0
LINE
8
CUT
10
761.4909
20
11.0469
30
0.0
11
760.6545
21
13.4797
31
0.0
0
LINE
8
CUT
10
760.6545
20
13.4797
30
0.0
11
759.8182
21
14.1022
31
0.0
0
LINE
8
CUT
10
759.8182
20
14.1022
30
0.0
11
758.9818
21
14.7425
31
0.0
0
LINE
8
CUT
10
758.9818
20
14.7425
30
0.0
11
758.1455
21
15.4005
31
0.0
0
LINE
8
CUT
10
758.1455
20
15.4005
30
0.0
11
757.3091
21
16.0764
31
0.0
0
LINE
8
CUT
10
757.3091
20
16.0764
30
0.0
11
756.4727
21
16.7703
31
0.0
0
LINE
8
CUT
10
756.4727
20
16.7703
30
0.0
11
755.6364
21
17.4822
31
0.0
0
LINE
8
CUT
10
755.6364
20
17.4822
30
0.0
11
754.8000
21
18.2124
31
0.0
0
LINE
8
CUT
10
754.8000
20
18.2124
30
0.0
11
753.9636
21
18.9609
31
0.0
0
LINE
8
CUT
10
753.9636
20
18.9609
30
0.0
11
753.1273
21
19.7279
31
0.0
0
LINE
8
CUT
10
753.1273
20
19.7279
30
0.0
11
752.2909
21
20.5137
31
0.0
0
LINE
8
CUT
10
752.2909
20
20.5137
30
0.0
11
751.4545
21
21.3184
31
0.0
0
LINE
8
CUT
10
751.4545
20
21.3184
30
0.0
11
750.6182
21
22.1423
31
0.0
0
LINE
8
CUT
10
750.6182
20
22.1423
30
0.0
11
749.7818
21
22.9857
31
0.0
0
LINE
8
CUT
10
749.7818
20
22.9857
30
0.0
11
748.9455
21
23.8488
31
0.0
0
LINE
8
CUT
10
748.9455
20
23.8488
30
0.0
11
748.1091
21
24.7320
31
0.0
0
LINE
8
CUT
10
748.1091
20
24.7320
30
0.0
11
747.2727
21
25.6357
31
0.0
0
LINE
8
CUT
10
747.2727
20
25.6357
30
0.0
11
746.4364
21
26.5602
31
0.0
0
LINE
8
CUT
10
746.4364
20
26.5602
30
0.0
11
745.6000
21
27.5060
31
0.0
0
LINE
8
CUT
10
745.6000
20
27.5060
30
0.0
11
744.7636
21
28.4735
31
0.0
0
LINE
8
CUT
10
744.7636
20
28.4735
30
0.0
11
743.9273
21
29.6306
31
0.0
0
LINE
8
CUT
10
743.9273
20
29.6306
30
0.0
11
743.0909
21
30.6425
31
0.0
0
LINE
8
CUT
10
743.0909
20
30.6425
30
0.0
11
742.2545
21
31.6778
31
0.0
0
LINE
8
CUT
10
742.2545
20
31.6778
30
0.0
11
741.4182
21
32.7372
31
0.0
0
LINE
8
CUT
10
741.4182
20
32.7372
30
0.0
11
740.5818
21
33.8215
31
0.0
0
LINE
8
CUT
10
740.5818
20
33.8215
30
0.0
11
739.7455
21
34.9316
31
0.0
0
LINE
8
CUT
10
739.7455
20
34.9316
30
0.0
11
738.9091
21
36.0682
31
0.0
0
LINE
8
CUT
10
738.9091
20
36.0682
30
0.0
11
738.0727
21
37.2326
31
0.0
0
LINE
8
CUT
10
738.0727
20
37.2326
30
0.0
11
737.2364
21
38.4257
31
0.0
0
LINE
8
CUT
10
737.2364
20
38.4257
30
0.0
11
736.4000
21
39.6489
31
0.0
0
LINE
8
CUT
10
736.4000
20
39.6489
30
0.0
11
735.5636
21
40.9035
31
0.0
0
LINE
8
CUT
10
735.5636
20
40.9035
30
0.0
11
734.7273
21
42.1912
31
0.0
0
LINE
8
CUT
10
734.7273
20
42.1912
30
0.0
11
733.8909
21
43.5137
31
0.0
0
LINE
8
CUT
10
733.8909
20
43.5137
30
0.0
11
733.0545
21
44.8731
31
0.0
0
LINE
8
CUT
10
733.0545
20
44.8731
30
0.0
11
732.2182
21
46.2716
31
0.0
0
LINE
8
CUT
10
732.2182
20
46.2716
30
0.0
11
731.3818
21
47.7121
31
0.0
0
LINE
8
CUT
10
731.3818
20
47.7121
30
0.0
11
730.5455
21
49.1975
31
0.0
0
LINE
8
CUT
10
730.5455
20
49.1975
30
0.0
11
729.7091
21
50.7314
31
0.0
0
LINE
8
CUT
10
729.7091
20
50.7314
30
0.0
11
728.8727
21
52.3183
31
0.0
0
LINE
8
CUT
10
728.8727
20
52.3183
30
0.0
11
728.0364
21
53.9630
31
0.0
0
LINE
8
CUT
10
728.0364
20
53.9630
30
0.0
11
727.2000
21
55.6720
31
0.0
0
LINE
8
CUT
10
727.2000
20
55.6720
30
0.0
11
726.3636
21
57.4527
31
0.0
0
LINE
8
CUT
10
726.3636
20
57.4527
30
0.0
11
725.5273
21
59.3147
31
0.0
0
LINE
8
CUT
10
725.5273
20
59.3147
30
0.0
11
724.6909
21
61.2704
31
0.0
0
LINE
8
CUT
10
724.6909
20
61.2704
30
0.0
11
723.8545
21
63.3358
31
0.0
0
LINE
8
CUT
10
723.8545
20
63.3358
30
0.0
11
723.0182
21
65.5333
31
0.0
0
LINE
8
CUT
10
723.0182
20
65.5333
30
0.0
11
722.1818
21
67.8945
31
0.0
0
LINE
8
CUT
10
722.1818
20
67.8945
30
0.0
11
721.3455
21
70.4684
31
0.0
0
LINE
8
CUT
10
721.3455
20
70.4684
30
0.0
11
720.5091
21
73.3363
31
0.0
0
LINE
8
CUT
10
720.5091
20
73.3363
30
0.0
11
719.6727
21
76.6570
31
0.0
0
LINE
8
CUT
10
719.6727
20
76.6570
30
0.0
11
718.8364
21
80.8377
31
0.0
0
LINE
8
CUT
10
718.8364
20
80.8377
30
0.0
11
718.0000
21
90.1360
31
0.0
0
LINE
8
CUT
10
718.0000
20
90.1360
30
0.0
11
718.0000
21
228.7682
31
0.0
0
LINE
8
CUT
10
718.0000
20
228.7682
30
0.0
11
718.0000
21
228.7682
31
0.0
0
ENDSEC
0
EOF
