0
SECTION
2
ENTITIES
0
LINE
8
CHANNEL
10
0.0000
20
0.0000
30
0.0
11
2400.0000
21
0.0000
31
0.0
0
LINE
8
CHANNEL
10
2400.0000
20
0.0000
30
0.0
11
2400.0000
21
600.0000
31
0.0
0
LINE
8
CHANNEL
10
2400.0000
20
600.0000
30
0.0
11
0.0000
21
600.0000
31
0.0
0
LINE
8
CHANNEL
10
0.0000
20
600.0000
30
0.0
11
0.0000
21
0.0000
31
0.0
0
LINE
8
CHANNEL
10
0.0000
20
0.0000
30
0.0
11
0.0000
21
0.0000
31
0.0
0
LINE
8
CUT
10
0.0000
20
308.9000
30
0.0
11
4.8191
21
325.0587
31
0.0
0
LINE
8
CUT
10
4.8191
20
325.0587
30
0.0
11
9.6382
21
330.7119
31
0.0
0
LINE
8
CUT
10
9.6382
20
330.7119
30
0.0
11
14.4573
21
334.2765
31
0.0
0
LINE
8
CUT
10
14.4573
20
334.2765
30
0.0
11
19.2764
21
336.5718
31
0.0
0
LINE
8
CUT
10
19.2764
20
336.5718
30
0.0
11
24.0955
21
337.9007
31
0.0
0
LINE
8
CUT
10
24.0955
20
337.9007
30
0.0
11
28.9145
21
338.3942
31
0.0
0
LINE
8
CUT
10
28.9145
20
338.3942
30
0.0
11
33.7336
21
338.4000
31
0.0
0
LINE
8
CUT
10
33.7336
20
338.4000
30
0.0
11
38.5527
21
338.4000
31
0.0
0
LINE
8
CUT
10
38.5527
20
338.4000
30
0.0
11
43.3718
21
338.4000
31
0.0
0
LINE
8
CUT
10
43.3718
20
338.4000
30
0.0
11
48.1909
21
338.4000
31
0.0
0
LINE
8
CUT
10
48.1909
20
338.4000
30
0.0
11
53.0100
21
338.4000
31
0.0
0
LINE
8
CUT
10
53.0100
20
338.4000
30
0.0
11
57.8291
21
338.4000
31
0.0
0
LINE
8
CUT
10
57.8291
20
338.4000
30
0.0
11
62.6482
21
338.4000
31
0.0
0
LINE
8
CUT
10
62.6482
20
338.4000
30
0.0
11
67.4673
21
338.4000
31
0.0
0
LINE
8
CUT
10
67.4673
20
338.4000
30
0.0
11
72.2864
21
338.4000
31
0.0
0
LINE
8
CUT
10
72.2864
20
338.4000
30
0.0
11
77.1055
21
338.4000
31
0.0
0
LINE
8
CUT
10
77.1055
20
338.4000
30
0.0
11
81.9245
21
338.4000
31
0.0
0
LINE
8
CUT
10
81.9245
20
338.4000
30
0.0
11
86.7436
21
338.4000
31
0.0
0
LINE
8
CUT
10
86.7436
20
338.4000
30
0.0
11
91.5627
21
338.4000
31
0.0
0
LINE
8
CUT
10
91.5627
20
338.4000
30
0.0
11
96.3818
21
338.4000
31
0.0
0
LINE
8
CUT
10
96.3818
20
338.4000
30
0.0
11
101.2009
21
338.4000
31
0.0
0
LINE
8
CUT
10
101.2009
20
338.4000
30
0.0
11
106.0200
21
338.4000
31
0.0
0
LINE
8
CUT
10
106.0200
20
338.4000
30
0.0
11
110.8391
21
338.4000
31
0.0
0
LINE
8
CUT
10
110.8391
20
338.4000
30
0.0
11
115.6582
21
338.4000
31
0.0
0
LINE
8
CUT
10
115.6582
20
338.4000
30
0.0
11
120.4773
21
338.4000
31
0.0
0
LINE
8
CUT
10
120.4773
20
338.4000
30
0.0
11
125.2964
21
338.4000
31
0.0
0
LINE
8
CUT
10
125.2964
20
338.4000
30
0.0
11
130.1155
21
338.4000
31
0.0
0
LINE
8
CUT
10
130.1155
20
338.4000
30
0.0
11
134.9345
21
338.4000
31
0.0
0
LINE
8
CUT
10
134.9345
20
338.4000
30
0.0
11
139.7536
21
338.4000
31
0.0
0
LINE
8
CUT
10
139.7536
20
338.4000
30
0.0
11
144.5727
21
338.4000
31
0.0
0
LINE
8
CUT
10
144.5727
20
338.4000
30
0.0
11
149.3918
21
338.4000
31
0.0
0
LINE
8
CUT
10
149.3918
20
338.4000
30
0.0
11
154.2109
21
338.4000
31
0.0
0
LINE
8
CUT
10
154.2109
20
338.4000
30
0.0
11
159.0300
21
338.4000
31
0.0
0
LINE
8
CUT
10
159.0300
20
338.4000
30
0.0
11
163.8491
21
338.4000
31
0.0
0
LINE
8
CUT
10
163.8491
20
338.4000
30
0.0
11
168.6682
21
338.4000
31
0.0
0
LINE
8
CUT
10
168.6682
20
338.4000
30
0.0
11
173.4873
21
338.4000
31
0.0
0
LINE
8
CUT
10
173.4873
20
338.4000
30
0.0
11
178.3064
21
338.4000
31
0.0
0
LINE
8
CUT
10
178.3064
20
338.4000
30
0.0
11
183.1255
21
338.4000
31
0.0
0
LINE
8
CUT
10
183.1255
20
338.4000
30
0.0
11
187.9445
21
338.4000
31
0.0
0
LINE
8
CUT
10
187.9445
20
338.4000
30
0.0
11
192.7636
21
338.4000
31
0.0
0
LINE
8
CUT
10
192.7636
20
338.4000
30
0.0
11
197.5827
21
338.4000
31
0.0
0
LINE
8
CUT
10
197.5827
20
338.4000
30
0.0
11
202.4018
21
338.4000
31
0.0
0
LINE
8
CUT
10
202.4018
20
338.4000
30
0.0
11
207.2209
21
338.4000
31
0.0
0
LINE
8
CUT
10
207.2209
20
338.4000
30
0.0
11
212.0400
21
338.4000
31
0.0
0
LINE
8
CUT
10
212.0400
20
338.4000
30
0.0
11
216.8591
21
338.4000
31
0.0
0
LINE
8
CUT
10
216.8591
20
338.4000
30
0.0
11
221.6782
21
338.4000
31
0.0
0
LINE
8
CUT
10
221.6782
20
338.4000
30
0.0
11
226.4973
21
338.4000
31
0.0
0
LINE
8
CUT
10
226.4973
20
338.4000
30
0.0
11
231.3164
21
338.4000
31
0.0
0
LINE
8
CUT
10
231.3164
20
338.4000
30
0.0
11
236.1355
21
338.4000
31
0.0
0
LINE
8
CUT
10
236.1355
20
338.4000
30
0.0
11
240.9545
21
338.4000
31
0.0
0
LINE
8
CUT
10
240.9545
20
338.4000
30
0.0
11
245.7736
21
338.4000
31
0.0
0
LINE
8
CUT
10
245.7736
20
338.4000
30
0.0
11
250.5927
21
338.4000
31
0.0
0
LINE
8
CUT
10
250.5927
20
338.4000
30
0.0
11
255.4118
21
338.4000
31
0.0
0
LINE
8
CUT
10
255.4118
20
338.4000
30
0.0
11
260.2309
21
338.4000
31
0.0
0
LINE
8
CUT
10
260.2309
20
338.4000
30
0.0
11
265.0500
21
338.4000
31
0.0
0
LINE
8
CUT
10
265.0500
20
338.4000
30
0.0
11
269.8691
21
338.4000
31
0.0
0
LINE
8
CUT
10
269.8691
20
338.4000
30
0.0
11
274.6882
21
338.4000
31
0.0
0
LINE
8
CUT
10
274.6882
20
338.4000
30
0.0
11
279.5073
21
338.4000
31
0.0
0
LINE
8
CUT
10
279.5073
20
338.4000
30
0.0
11
284.3264
21
338.4000
31
0.0
0
LINE
8
CUT
10
284.3264
20
338.4000
30
0.0
11
289.1455
21
338.4000
31
0.0
0
LINE
8
CUT
10
289.1455
20
338.4000
30
0.0
11
293.9645
21
338.4000
31
0.0
0
LINE
8
CUT
10
293.9645
20
338.4000
30
0.0
11
298.7836
21
338.4000
31
0.0
0
LINE
8
CUT
10
298.7836
20
338.4000
30
0.0
11
303.6027
21
338.4000
31
0.0
0
LINE
8
CUT
10
303.6027
20
338.4000
30
0.0
11
308.4218
21
338.4000
31
0.0
0
LINE
8
CUT
10
308.4218
20
338.4000
30
0.0
11
313.2409
21
338.4000
31
0.0
0
LINE
8
CUT
10
313.2409
20
338.4000
30
0.0
11
318.0600
21
338.4000
31
0.0
0
LINE
8
CUT
10
318.0600
20
338.4000
30
0.0
11
322.8791
21
338.4000
31
0.0
0
LINE
8
CUT
10
322.8791
20
338.4000
30
0.0
11
327.6982
21
338.4000
31
0.0
0
LINE
8
CUT
10
327.6982
20
338.4000
30
0.0
11
332.5173
21
338.4000
31
0.0
0
LINE
8
CUT
10
332.5173
20
338.4000
30
0.0
11
337.3364
21
338.4000
31
0.0
0
LINE
8
CUT
10
337.3364
20
338.4000
30
0.0
11
342.1555
21
338.4000
31
0.0
0
LINE
8
CUT
10
342.1555
20
338.4000
30
0.0
11
346.9745
21
338.4000
31
0.0
0
LINE
8
CUT
10
346.9745
20
338.4000
30
0.0
11
351.7936
21
338.4000
31
0.0
0
LINE
8
CUT
10
351.7936
20
338.4000
30
0.0
11
356.6127
21
338.4000
31
0.0
0
LINE
8
CUT
10
356.6127
20
338.4000
30
0.0
11
361.4318
21
338.4000
31
0.0
0
LINE
8
CUT
10
361.4318
20
338.4000
30
0.0
11
366.2509
21
338.4000
31
0.0
0
LINE
8
CUT
10
366.2509
20
338.4000
30
0.0
11
371.0700
21
338.4000
31
0.0
0
LINE
8
CUT
10
371.0700
20
338.4000
30
0.0
11
375.8891
21
338.4000
31
0.0
0
LINE
8
CUT
10
375.8891
20
338.4000
30
0.0
11
380.7082
21
338.4000
31
0.0
0
LINE
8
CUT
10
380.7082
20
338.4000
30
0.0
11
385.5273
21
338.4000
31
0.0
0
LINE
8
CUT
10
385.5273
20
338.4000
30
0.0
11
390.3464
21
338.4000
31
0.0
0
LINE
8
CUT
10
390.3464
20
338.4000
30
0.0
11
395.1655
21
338.4000
31
0.0
0
LINE
8
CUT
10
395.1655
20
338.4000
30
0.0
11
399.9845
21
338.4000
31
0.0
0
LINE
8
CUT
10
399.9845
20
338.4000
30
0.0
11
404.8036
21
338.4000
31
0.0
0
LINE
8
CUT
10
404.8036
20
338.4000
30
0.0
11
409.6227
21
338.4000
31
0.0
0
LINE
8
CUT
10
409.6227
20
338.4000
30
0.0
11
414.4418
21
338.4000
31
0.0
0
LINE
8
CUT
10
414.4418
20
338.4000
30
0.0
11
419.2609
21
338.4000
31
0.0
0
LINE
8
CUT
10
419.2609
20
338.4000
30
0.0
11
424.0800
21
338.4000
31
0.0
0
LINE
8
CUT
10
424.0800
20
338.4000
30
0.0
11
428.8991
21
338.4000
31
0.0
0
LINE
8
CUT
10
428.8991
20
338.4000
30
0.0
11
433.7182
21
338.4000
31
0.0
0
LINE
8
CUT
10
433.7182
20
338.4000
30
0.0
11
438.5373
21
338.4000
31
0.0
0
LINE
8
CUT
10
438.5373
20
338.4000
30
0.0
11
443.3564
21
338.4000
31
0.0
0
LINE
8
CUT
10
443.3564
20
338.4000
30
0.0
11
448.1755
21
338.4000
31
0.0
0
LINE
8
CUT
10
448.1755
20
338.4000
30
0.0
11
452.9945
21
338.4000
31
0.0
0
LINE
8
CUT
10
452.9945
20
338.4000
30
0.0
11
457.8136
21
338.4000
31
0.0
0
LINE
8
CUT
10
457.8136
20
338.4000
30
0.0
11
462.6327
21
338.4000
31
0.0
0
LINE
8
CUT
10
462.6327
20
338.4000
30
0.0
11
467.4518
21
338.4000
31
0.0
0
LINE
8
CUT
10
467.4518
20
338.4000
30
0.0
11
472.2709
21
338.4000
31
0.0
0
LINE
8
CUT
10
472.2709
20
338.4000
30
0.0
11
477.0900
21
338.4000
31
0.0
0
LINE
8
CUT
10
477.0900
20
338.4000
30
0.0
11
481.9091
21
338.4000
31
0.0
0
LINE
8
CUT
10
481.9091
20
338.4000
30
0.0
11
486.7282
21
338.4000
31
0.0
0
LINE
8
CUT
10
486.7282
20
338.4000
30
0.0
11
491.5473
21
338.4000
31
0.0
0
LINE
8
CUT
10
491.5473
20
338.4000
30
0.0
11
496.3664
21
338.4000
31
0.0
0
LINE
8
CUT
10
496.3664
20
338.4000
30
0.0
11
501.1855
21
338.3942
31
0.0
0
LINE
8
CUT
10
501.1855
20
338.3942
30
0.0
11
506.0045
21
337.9007
31
0.0
0
LINE
8
CUT
10
506.0045
20
337.9007
30
0.0
11
510.8236
21
336.5718
31
0.0
0
LINE
8
CUT
10
510.8236
20
336.5718
30
0.0
11
515.6427
21
334.2765
31
0.0
0
LINE
8
CUT
10
515.6427
20
334.2765
30
0.0
11
520.4618
21
330.7119
31
0.0
0
LINE
8
CUT
10
520.4618
20
330.7119
30
0.0
11
525.2809
21
325.0587
31
0.0
0
LINE
8
CUT
10
525.2809
20
325.0587
30
0.0
11
530.1000
21
308.9000
31
0.0
0
LINE
8
CUT
10
530.1000
20
308.9000
30
0.0
11
530.1000
21
29.5000
31
0.0
0
LINE
8
CUT
10
530.1000
20
29.5000
30
0.0
11
525.2809
21
13.3413
31
0.0
0
LINE
8
CUT
10
525.2809
20
13.3413
30
0.0
11
520.4618
21
7.6881
31
0.0
0
LINE
8
CUT
10
520.4618
20
7.6881
30
0.0
11
515.6427
21
4.1235
31
0.0
0
LINE
8
CUT
10
515.6427
20
4.1235
30
0.0
11
510.8236
21
1.8282
31
0.0
0
LINE
8
CUT
10
510.8236
20
1.8282
30
0.0
11
506.0045
21
0.4993
31
0.0
0
LINE
8
CUT
10
506.0045
20
0.4993
30
0.0
11
501.1855
21
0.0058
31
0.0
0
LINE
8
CUT
10
501.1855
20
0.0058
30
0.0
11
496.3664
21
0.0000
31
0.0
0
LINE
8
CUT
10
496.3664
20
0.0000
30
0.0
11
491.5473
21
0.0000
31
0.0
0
LINE
8
CUT
10
491.5473
20
0.0000
30
0.0
11
486.7282
21
0.0000
31
0.0
0
LINE
8
CUT
10
486.7282
20
0.0000
30
0.0
11
481.9091
21
0.0000
31
0.0
0
LINE
8
CUT
10
481.9091
20
0.0000
30
0.0
11
477.0900
21
0.0000
31
0.0
0
LINE
8
CUT
10
477.0900
20
0.0000
30
0.0
11
472.2709
21
0.0000
31
0.0
0
LINE
8
CUT
10
472.2709
20
0.0000
30
0.0
11
467.4518
21
0.0000
31
0.0
0
LINE
8
CUT
10
467.4518
20
0.0000
30
0.0
11
462.6327
21
0.0000
31
0.0
0
LINE
8
CUT
10
462.6327
20
0.0000
30
0.0
11
457.8136
21
0.0000
31
0.0
0
LINE
8
CUT
10
457.8136
20
0.0000
30
0.0
11
452.9945
21
0.0000
31
0.0
0
LINE
8
CUT
10
452.9945
20
0.0000
30
0.0
11
448.1755
21
0.0000
31
0.0
0
LINE
8
CUT
10
448.1755
20
0.0000
30
0.0
11
443.3564
21
0.0000
31
0.0
0
LINE
8
CUT
10
443.3564
20
0.0000
30
0.0
11
438.5373
21
0.0000
31
0.0
0
LINE
8
CUT
10
438.5373
20
0.0000
30
0.0
11
433.7182
21
0.0000
31
0.0
0
LINE
8
CUT
10
433.7182
20
0.0000
30
0.0
11
428.8991
21
0.0000
31
0.0
0
LINE
8
CUT
10
428.8991
20
0.0000
30
0.0
11
424.0800
21
0.0000
31
0.0
0
LINE
8
CUT
10
424.0800
20
0.0000
30
0.0
11
419.2609
21
0.0000
31
0.0
0
LINE
8
CUT
10
419.2609
20
0.0000
30
0.0
11
414.4418
21
0.0000
31
0.0
0
LINE
8
CUT
10
414.4418
20
0.0000
30
0.0
11
409.6227
21
0.0000
31
0.0
0
LINE
8
CUT
10
409.6227
20
0.0000
30
0.0
11
404.8036
21
0.0000
31
0.0
0
LINE
8
CUT
10
404.8036
20
0.0000
30
0.0
11
399.9845
21
0.0000
31
0.0
0
LINE
8
CUT
10
399.9845
20
0.0000
30
0.0
11
395.1655
21
0.0000
31
0.0
0
LINE
8
CUT
10
395.1655
20
0.0000
30
0.0
11
390.3464
21
0.0000
31
0.0
0
LINE
8
CUT
10
390.3464
20
0.0000
30
0.0
11
385.5273
21
0.0000
31
0.0
0
LINE
8
CUT
10
385.5273
20
0.0000
30
0.0
11
380.7082
21
0.0000
31
0.0
0
LINE
8
CUT
10
380.7082
20
0.0000
30
0.0
11
375.8891
21
0.0000
31
0.0
0
LINE
8
CUT
10
375.8891
20
0.0000
30
0.0
11
371.0700
21
0.0000
31
0.0
0
LINE
8
CUT
10
371.0700
20
0.0000
30
0.0
11
366.2509
21
0.0000
31
0.0
0
LINE
8
CUT
10
366.2509
20
0.0000
30
0.0
11
361.4318
21
0.0000
31
0.0
0
LINE
8
CUT
10
361.4318
20
0.0000
30
0.0
11
356.6127
21
0.0000
31
0.0
0
LINE
8
CUT
10
356.6127
20
0.0000
30
0.0
11
351.7936
21
0.0000
31
0.0
0
LINE
8
CUT
10
351.7936
20
0.0000
30
0.0
11
346.9745
21
0.0000
31
0.0
0
LINE
8
CUT
10
346.9745
20
0.0000
30
0.0
11
342.1555
21
0.0000
31
0.0
0
LINE
8
CUT
10
342.1555
20
0.0000
30
0.0
11
337.3364
21
0.0000
31
0.0
0
LINE
8
CUT
10
337.3364
20
0.0000
30
0.0
11
332.5173
21
0.0000
31
0.0
0
LINE
8
CUT
10
332.5173
20
0.0000
30
0.0
11
327.6982
21
0.0000
31
0.0
0
LINE
8
CUT
10
327.6982
20
0.0000
30
0.0
11
322.8791
21
0.0000
31
0.0
0
LINE
8
CUT
10
322.8791
20
0.0000
30
0.0
11
318.0600
21
0.0000
31
0.0
0
LINE
8
CUT
10
318.0600
20
0.0000
30
0.0
11
313.2409
21
0.0000
31
0.0
0
LINE
8
CUT
10
313.2409
20
0.0000
30
0.0
11
308.4218
21
0.0000
31
0.0
0
LINE
8
CUT
10
308.4218
20
0.0000
30
0.0
11
303.6027
21
0.0000
31
0.0
0
LINE
8
CUT
10
303.6027
20
0.0000
30
0.0
11
298.7836
21
0.0000
31
0.0
0
LINE
8
CUT
10
298.7836
20
0.0000
30
0.0
11
293.9645
21
0.0000
31
0.0
0
LINE
8
CUT
10
293.9645
20
0.0000
30
0.0
11
289.1455
21
0.0000
31
0.0
0
LINE
8
CUT
10
289.1455
20
0.0000
30
0.0
11
284.3264
21
0.0000
31
0.0
0
LINE
8
CUT
10
284.3264
20
0.0000
30
0.0
11
279.5073
21
0.0000
31
0.0
0
LINE
8
CUT
10
279.5073
20
0.0000
30
0.0
11
274.6882
21
0.0000
31
0.0
0
LINE
8
CUT
10
274.6882
20
0.0000
30
0.0
11
269.8691
21
0.0000
31
0.0
0
LINE
8
CUT
10
269.8691
20
0.0000
30
0.0
11
265.0500
21
0.0000
31
0.0
0
LINE
8
CUT
10
265.0500
20
0.0000
30
0.0
11
260.2309
21
0.0000
31
0.0
0
LINE
8
CUT
10
260.2309
20
0.0000
30
0.0
11
255.4118
21
0.0000
31
0.0
0
LINE
8
CUT
10
255.4118
20
0.0000
30
0.0
11
250.5927
21
0.0000
31
0.0
0
LINE
8
CUT
10
250.5927
20
0.0000
30
0.0
11
245.7736
21
0.0000
31
0.0
0
LINE
8
CUT
10
245.7736
20
0.0000
30
0.0
11
240.9545
21
0.0000
31
0.0
0
LINE
8
CUT
10
240.9545
20
0.0000
30
0.0
11
236.1355
21
0.0000
31
0.0
0
LINE
8
CUT
10
236.1355
20
0.0000
30
0.0
11
231.3164
21
0.0000
31
0.0
0
LINE
8
CUT
10
231.3164
20
0.0000
30
0.0
11
226.4973
21
0.0000
31
0.0
0
LINE
8
CUT
10
226.4973
20
0.0000
30
0.0
11
221.6782
21
0.0000
31
0.0
0
LINE
8
CUT
10
221.6782
20
0.0000
30
0.0
11
216.8591
21
0.0000
31
0.0
0
LINE
8
CUT
10
216.8591
20
0.0000
30
0.0
11
212.0400
21
0.0000
31
0.0
0
LINE
8
CUT
10
212.0400
20
0.0000
30
0.0
11
207.2209
21
0.0000
31
0.0
0
LINE
8
CUT
10
207.2209
20
0.0000
30
0.0
11
202.4018
21
0.0000
31
0.0
0
LINE
8
CUT
10
202.4018
20
0.0000
30
0.0
11
197.5827
21
0.0000
31
0.0
0
LINE
8
CUT
10
197.5827
20
0.0000
30
0.0
11
192.7636
21
0.0000
31
0.0
0
LINE
8
CUT
10
192.7636
20
0.0000
30
0.0
11
187.9445
21
0.0000
31
0.0
0
LINE
8
CUT
10
187.9445
20
0.0000
30
0.0
11
183.1255
21
0.0000
31
0.0
0
LINE
8
CUT
10
183.1255
20
0.0000
30
0.0
11
178.3064
21
0.0000
31
0.0
0
LINE
8
CUT
10
178.3064
20
0.0000
30
0.0
11
173.4873
21
0.0000
31
0.0
0
LINE
8
CUT
10
173.4873
20
0.0000
30
0.0
11
168.6682
21
0.0000
31
0.0
0
LINE
8
CUT
10
168.6682
20
0.0000
30
0.0
11
163.8491
21
0.0000
31
0.0
0
LINE
8
CUT
10
163.8491
20
0.0000
30
0.0
11
159.0300
21
0.0000
31
0.0
0
LINE
8
CUT
10
159.0300
20
0.0000
30
0.0
11
154.2109
21
0.0000
31
0.0
0
LINE
8
CUT
10
154.2109
20
0.0000
30
0.0
11
149.3918
21
0.0000
31
0.0
0
LINE
8
CUT
10
149.3918
20
0.0000
30
0.0
11
144.5727
21
0.0000
31
0.0
0
LINE
8
CUT
10
144.5727
20
0.0000
30
0.0
11
139.7536
21
0.0000
31
0.0
0
LINE
8
CUT
10
139.7536
20
0.0000
30
0.0
11
134.9345
21
0.0000
31
0.0
0
LINE
8
CUT
10
134.9345
20
0.0000
30
0.0
11
130.1155
21
0.0000
31
0.0
0
LINE
8
CUT
10
130.1155
20
0.0000
30
0.0
11
125.2964
21
0.0000
31
0.0
0
LINE
8
CUT
10
125.2964
20
0.0000
30
0.0
11
120.4773
21
0.0000
31
0.0
0
LINE
8
CUT
10
120.4773
20
0.0000
30
0.0
11
115.6582
21
0.0000
31
0.0
0
LINE
8
CUT
10
115.6582
20
0.0000
30
0.0
11
110.8391
21
0.0000
31
0.0
0
LINE
8
CUT
10
110.8391
20
0.0000
30
0.0
11
106.0200
21
0.0000
31
0.0
0
LINE
8
CUT
10
106.0200
20
0.0000
30
0.0
11
101.2009
21
0.0000
31
0.0
0
LINE
8
CUT
10
101.2009
20
0.0000
30
0.0
11
96.3818
21
0.0000
31
0.0
0
LINE
8
CUT
10
96.3818
20
0.0000
30
0.0
11
91.5627
21
0.0000
31
0.0
0
LINE
8
CUT
10
91.5627
20
0.0000
30
0.0
11
86.7436
21
0.0000
31
0.0
0
LINE
8
CUT
10
86.7436
20
0.0000
30
0.0
11
81.9245
21
0.0000
31
0.0
0
LINE
8
CUT
10
81.9245
20
0.0000
30
0.0
11
77.1055
21
0.0000
31
0.0
0
LINE
8
CUT
10
77.1055
20
0.0000
30
0.0
11
72.2864
21
0.0000
31
0.0
0
LINE
8
CUT
10
72.2864
20
0.0000
30
0.0
11
67.4673
21
0.0000
31
0.0
0
LINE
8
CUT
10
67.4673
20
0.0000
30
0.0
11
62.6482
21
0.0000
31
0.0
0
LINE
8
CUT
10
62.6482
20
0.0000
30
0.0
11
57.8291
21
0.0000
31
0.0
0
LINE
8
CUT
10
57.8291
20
0.0000
30
0.0
11
53.0100
21
0.0000
31
0.0
0
LINE
8
CUT
10
53.0100
20
0.0000
30
0.0
11
48.1909
21
0.0000
31
0.0
0
LINE
8
CUT
10
48.1909
20
0.0000
30
0.0
11
43.3718
21
0.0000
31
0.0
0
LINE
8
CUT
10
43.3718
20
0.0000
30
0.0
11
38.5527
21
0.0000
31
0.0
0
LINE
8
CUT
10
38.5527
20
0.0000
30
0.0
11
33.7336
21
0.0000
31
0.0
0
LINE
8
CUT
10
33.7336
20
0.0000
30
0.0
11
28.9145
21
0.0058
31
0.0
0
LINE
8
CUT
10
28.9145
20
0.0058
30
0.0
11
24.0955
21
0.4993
31
0.0
0
LINE
8
CUT
10
24.0955
20
0.4993
30
0.0
11
19.2764
21
1.8282
31
0.0
0
LINE
8
CUT
10
19.2764
20
1.8282
30
0.0
11
14.4573
21
4.1235
31
0.0
0
LINE
8
CUT
10
14.4573
20
4.1235
30
0.0
11
9.6382
21
7.6881
31
0.0
0
LINE
8
CUT
10
9.6382
20
7.6881
30
0.0
11
4.8191
21
13.3413
31
0.0
0
LINE
8
CUT
10
4.8191
20
13.3413
30
0.0
11
0.0000
21
29.5000
31
0.0
0
LINE
8
CUT
10
0.0000
20
29.5000
30
0.0
11
0.0000
21
308.9000
31
0.0
0
LINE
8
CUT
10
0.0000
20
308.9000
30
0.0
11
0.0000
21
308.9000
31
0.0
0
LINE
8
CUT
10
538.1000
20
280.5484
30
0.0
11
539.6627
21
291.5218
31
0.0
0
LINE
8
CUT
10
539.6627
20
291.5218
30
0.0
11
541.2255
21
295.4557
31
0.0
0
LINE
8
CUT
10
541.2255
20
295.4557
30
0.0
11
542.7882
21
298.1832
31
0.0
0
LINE
8
CUT
10
542.7882
20
298.1832
30
0.0
11
544.3509
21
300.2656
31
0.0
0
LINE
8
CUT
10
544.3509
20
300.2656
30
0.0
11
545.9136
21
301.9220
31
0.0
0
LINE
8
CUT
10
545.9136
20
301.9220
30
0.0
11
547.4764
21
303.2658
31
0.0
0
LINE
8
CUT
10
547.4764
20
303.2658
30
0.0
11
549.0391
21
304.3643
31
0.0
0
LINE
8
CUT
10
549.0391
20
304.3643
30
0.0
11
550.6018
21
305.2621
31
0.0
0
LINE
8
CUT
10
550.6018
20
305.2621
30
0.0
11
552.1645
21
305.9898
31
0.0
0
LINE
8
CUT
10
552.1645
20
305.9898
30
0.0
11
553.7273
21
306.5701
31
0.0
0
LINE
8
CUT
10
553.7273
20
306.5701
30
0.0
11
555.2900
21
307.0201
31
0.0
0
LINE
8
CUT
10
555.2900
20
307.0201
30
0.0
11
556.8527
21
307.3529
31
0.0
0
LINE
8
CUT
10
556.8527
20
307.3529
30
0.0
11
558.4155
21
307.5790
31
0.0
0
LINE
8
CUT
10
558.4155
20
307.5790
30
0.0
11
559.9782
21
307.7070
31
0.0
0
LINE
8
CUT
10
559.9782
20
307.7070
30
0.0
11
561.5409
21
307.7438
31
0.0
0
LINE
8
CUT
10
561.5409
20
307.7438
30
0.0
11
563.1036
21
307.6951
31
0.0
0
LINE
8
CUT
10
563.1036
20
307.6951
30
0.0
11
564.6664
21
307.5658
31
0.0
0
LINE
8
CUT
10
564.6664
20
307.5658
30
0.0
11
566.2291
21
307.3599
31
0.0
0
LINE
8
CUT
10
566.2291
20
307.3599
30
0.0
11
567.7918
21
307.0808
31
0.0
0
LINE
8
CUT
10
567.7918
20
307.0808
30
0.0
11
569.3545
21
306.7314
31
0.0
0
LINE
8
CUT
10
569.3545
20
306.7314
30
0.0
11
570.9173
21
306.3140
31
0.0
0
LINE
8
CUT
10
570.9173
20
306.3140
30
0.0
11
572.4800
21
305.8309
31
0.0
0
LINE
8
CUT
10
572.4800
20
305.8309
30
0.0
11
574.0427
21
305.2837
31
0.0
0
LINE
8
CUT
10
574.0427
20
305.2837
30
0.0
11
575.6055
21
304.6738
31
0.0
0
LINE
8
CUT
10
575.6055
20
304.6738
30
0.0
11
577.1682
21
304.0024
31
0.0
0
LINE
8
CUT
10
577.1682
20
304.0024
30
0.0
11
578.7309
21
303.2705
31
0.0
0
LINE
8
CUT
10
578.7309
20
303.2705
30
0.0
11
580.2936
21
302.4787
31
0.0
0
LINE
8
CUT
10
580.2936
20
302.4787
30
0.0
11
581.8564
21
301.6275
31
0.0
0
LINE
8
CUT
10
581.8564
20
301.6275
30
0.0
11
583.4191
21
300.7183
31
0.0
0
LINE
8
CUT
10
583.4191
20
300.7183
30
0.0
11
584.9818
21
299.7873
31
0.0
0
LINE
8
CUT
10
584.9818
20
299.7873
30
0.0
11
586.5445
21
298.8515
31
0.0
0
LINE
8
CUT
10
586.5445
20
298.8515
30
0.0
11
588.1073
21
297.9111
31
0.0
0
LINE
8
CUT
10
588.1073
20
297.9111
30
0.0
11
589.6700
21
296.9661
31
0.0
0
LINE
8
CUT
10
589.6700
20
296.9661
30
0.0
11
591.2327
21
296.0165
31
0.0
0
LINE
8
CUT
10
591.2327
20
296.0165
30
0.0
11
592.7955
21
295.0624
31
0.0
0
LINE
8
CUT
10
592.7955
20
295.0624
30
0.0
11
594.3582
21
294.1037
31
0.0
0
LINE
8
CUT
10
594.3582
20
294.1037
30
0.0
11
595.9209
21
293.1405
31
0.0
0
LINE
8
CUT
10
595.9209
20
293.1405
30
0.0
11
597.4836
21
292.1729
31
0.0
0
LINE
8
CUT
10
597.4836
20
292.1729
30
0.0
11
599.0464
21
291.2009
31
0.0
0
LINE
8
CUT
10
599.0464
20
291.2009
30
0.0
11
600.6091
21
290.2244
31
0.0
0
LINE
8
CUT
10
600.6091
20
290.2244
30
0.0
11
602.1718
21
289.2437
31
0.0
0
LINE
8
CUT
10
602.1718
20
289.2437
30
0.0
11
603.7345
21
288.2585
31
0.0
0
LINE
8
CUT
10
603.7345
20
288.2585
30
0.0
11
605.2973
21
287.2692
31
0.0
0
LINE
8
CUT
10
605.2973
20
287.2692
30
0.0
11
606.8600
21
286.2755
31
0.0
0
LINE
8
CUT
10
606.8600
20
286.2755
30
0.0
11
608.4227
21
285.2777
31
0.0
0
LINE
8
CUT
10
608.4227
20
285.2777
30
0.0
11
609.9855
21
284.2756
31
0.0
0
LINE
8
CUT
10
609.9855
20
284.2756
30
0.0
11
611.5482
21
283.2695
31
0.0
0
LINE
8
CUT
10
611.5482
20
283.2695
30
0.0
11
613.1109
21
282.2592
31
0.0
0
LINE
8
CUT
10
613.1109
20
282.2592
30
0.0
11
614.6736
21
281.2448
31
0.0
0
LINE
8
CUT
10
614.6736
20
281.2448
30
0.0
11
616.2364
21
280.2264
31
0.0
0
LINE
8
CUT
10
616.2364
20
280.2264
30
0.0
11
617.7991
21
279.2040
31
0.0
0
LINE
8
CUT
10
617.7991
20
279.2040
30
0.0
11
619.3618
21
278.1777
31
0.0
0
LINE
8
CUT
10
619.3618
20
278.1777
30
0.0
11
620.9245
21
277.1474
31
0.0
0
LINE
8
CUT
10
620.9245
20
277.1474
30
0.0
11
622.4873
21
276.1132
31
0.0
0
LINE
8
CUT
10
622.4873
20
276.1132
30
0.0
11
624.0500
21
275.0752
31
0.0
0
LINE
8
CUT
10
624.0500
20
275.0752
30
0.0
11
625.6127
21
274.0334
31
0.0
0
LINE
8
CUT
10
625.6127
20
274.0334
30
0.0
11
627.1755
21
272.9878
31
0.0
0
LINE
8
CUT
10
627.1755
20
272.9878
30
0.0
11
628.7382
21
271.9385
31
0.0
0
LINE
8
CUT
10
628.7382
20
271.9385
30
0.0
11
630.3009
21
270.8854
31
0.0
0
LINE
8
CUT
10
630.3009
20
270.8854
30
0.0
11
631.8636
21
269.8288
31
0.0
0
LINE
8
CUT
10
631.8636
20
269.8288
30
0.0
11
633.4264
21
268.7685
31
0.0
0
LINE
8
CUT
10
633.4264
20
268.7685
30
0.0
11
634.9891
21
267.7046
31
0.0
0
LINE
8
CUT
10
634.9891
20
267.7046
30
0.0
11
636.5518
21
266.6372
31
0.0
0
LINE
8
CUT
10
636.5518
20
266.6372
30
0.0
11
638.1145
21
265.5663
31
0.0
0
LINE
8
CUT
10
638.1145
20
265.5663
30
0.0
11
639.6773
21
264.4919
31
0.0
0
LINE
8
CUT
10
639.6773
20
264.4919
30
0.0
11
641.2400
21
263.4141
31
0.0
0
LINE
8
CUT
10
641.2400
20
263.4141
30
0.0
11
642.8027
21
262.3330
31
0.0
0
LINE
8
CUT
10
642.8027
20
262.3330
30
0.0
11
644.3655
21
261.2485
31
0.0
0
LINE
8
CUT
10
644.3655
20
261.2485
30
0.0
11
645.9282
21
260.1607
31
0.0
0
LINE
8
CUT
10
645.9282
20
260.1607
30
0.0
11
647.4909
21
259.0697
31
0.0
0
LINE
8
CUT
10
647.4909
20
259.0697
30
0.0
11
649.0536
21
257.9755
31
0.0
0
LINE
8
CUT
10
649.0536
20
257.9755
30
0.0
11
650.6164
21
256.8782
31
0.0
0
LINE
8
CUT
10
650.6164
20
256.8782
30
0.0
11
652.1791
21
255.7777
31
0.0
0
LINE
8
CUT
10
652.1791
20
255.7777
30
0.0
11
653.7418
21
254.6741
31
0.0
0
LINE
8
CUT
10
653.7418
20
254.6741
30
0.0
11
655.3045
21
253.5675
31
0.0
0
LINE
8
CUT
10
655.3045
20
253.5675
30
0.0
11
656.8673
21
252.4580
31
0.0
0
LINE
8
CUT
10
656.8673
20
252.4580
30
0.0
11
658.4300
21
251.3455
31
0.0
0
LINE
8
CUT
10
658.4300
20
251.3455
30
0.0
11
659.9927
21
250.2301
31
0.0
0
LINE
8
CUT
10
659.9927
20
250.2301
30
0.0
11
661.5555
21
249.1119
31
0.0
0
LINE
8
CUT
10
661.5555
20
249.1119
30
0.0
11
663.1182
21
247.9908
31
0.0
0
LINE
8
CUT
10
663.1182
20
247.9908
30
0.0
11
664.6809
21
246.8670
31
0.0
0
LINE
8
CUT
10
664.6809
20
246.8670
30
0.0
11
666.2436
21
245.7234
31
0.0
0
LINE
8
CUT
10
666.2436
20
245.7234
30
0.0
11
667.8064
21
244.5238
31
0.0
0
LINE
8
CUT
10
667.8064
20
244.5238
30
0.0
11
669.3691
21
243.2670
31
0.0
0
LINE
8
CUT
10
669.3691
20
243.2670
30
0.0
11
670.9318
21
241.9526
31
0.0
0
LINE
8
CUT
10
670.9318
20
241.9526
30
0.0
11
672.4945
21
240.5800
31
0.0
0
LINE
8
CUT
10
672.4945
20
240.5800
30
0.0
11
674.0573
21
239.1482
31
0.0
0
LINE
8
CUT
10
674.0573
20
239.1482
30
0.0
11
675.6200
21
237.6563
31
0.0
0
LINE
8
CUT
10
675.6200
20
237.6563
30
0.0
11
677.1827
21
236.1028
31
0.0
0
LINE
8
CUT
10
677.1827
20
236.1028
30
0.0
11
678.7455
21
234.4862
31
0.0
0
LINE
8
CUT
10
678.7455
20
234.4862
30
0.0
11
680.3082
21
232.8044
31
0.0
0
LINE
8
CUT
10
680.3082
20
232.8044
30
0.0
11
681.8709
21
231.0551
31
0.0
0
LINE
8
CUT
10
681.8709
20
231.0551
30
0.0
11
683.4336
21
229.2354
31
0.0
0
LINE
8
CUT
10
683.4336
20
229.2354
30
0.0
11
684.9964
21
227.3421
31
0.0
0
LINE
8
CUT
10
684.9964
20
227.3421
30
0.0
11
686.5591
21
225.3712
31
0.0
0
LINE
8
CUT
10
686.5591
20
225.3712
30
0.0
11
688.1218
21
223.3180
31
0.0
0
LINE
8
CUT
10
688.1218
20
223.3180
30
0.0
11
689.6845
21
221.1768
31
0.0
0
LINE
8
CUT
10
689.6845
20
221.1768
30
0.0
11
691.2473
21
218.9407
31
0.0
0
LINE
8
CUT
10
691.2473
20
218.9407
30
0.0
11
692.8100
21
216.6013
31
0.0
0
LINE
8
CUT
10
692.8100
20
216.6013
30
0.0
11
694.3727
21
214.1482
31
0.0
0
LINE
8
CUT
10
694.3727
20
214.1482
30
0.0
11
695.9355
21
211.5683
31
0.0
0
LINE
8
CUT
10
695.9355
20
211.5683
30
0.0
11
697.4982
21
208.8445
31
0.0
0
LINE
8
CUT
10
697.4982
20
208.8445
30
0.0
11
699.0609
21
205.9545
31
0.0
0
LINE
8
CUT
10
699.0609
20
205.9545
30
0.0
11
700.6236
21
202.8673
31
0.0
0
LINE
8
CUT
10
700.6236
20
202.8673
30
0.0
11
702.1864
21
199.5389
31
0.0
0
LINE
8
CUT
10
702.1864
20
199.5389
30
0.0
11
703.7491
21
195.9017
31
0.0
0
LINE
8
CUT
10
703.7491
20
195.9017
30
0.0
11
705.3118
21
191.8426
31
0.0
0
LINE
8
CUT
10
705.3118
20
191.8426
30
0.0
11
706.8745
21
187.1425
31
0.0
0
LINE
8
CUT
10
706.8745
20
187.1425
30
0.0
11
708.4373
21
181.2402
31
0.0
0
LINE
8
CUT
10
708.4373
20
181.2402
30
0.0
11
710.0000
21
168.3026
31
0.0
0
LINE
8
CUT
10
710.0000
20
168.3026
30
0.0
11
710.0000
21
139.4412
31
0.0
0
LINE
8
CUT
10
710.0000
20
139.4412
30
0.0
11
708.4373
21
126.5036
31
0.0
0
LINE
8
CUT
10
708.4373
20
126.5036
30
0.0
11
706.8745
21
120.6013
31
0.0
0
LINE
8
CUT
10
706.8745
20
120.6013
30
0.0
11
705.3118
21
115.9012
31
0.0
0
LINE
8
CUT
10
705.3118
20
115.9012
30
0.0
11
703.7491
21
111.8421
31
0.0
0
LINE
8
CUT
10
703.7491
20
111.8421
30
0.0
11
702.1864
21
108.2049
31
0.0
0
LINE
8
CUT
10
702.1864
20
108.2049
30
0.0
11
700.6236
21
104.8765
31
0.0
0
LINE
8
CUT
10
700.6236
20
104.8765
30
0.0
11
699.0609
21
101.7893
31
0.0
0
LINE
8
CUT
10
699.0609
20
101.7893
30
0.0
11
697.4982
21
98.8993
31
0.0
0
LINE
8
CUT
10
697.4982
20
98.8993
30
0.0
11
695.9355
21
96.1755
31
0.0
0
LINE
8
CUT
10
695.9355
20
96.1755
30
0.0
11
694.3727
21
93.5956
31
0.0
0
LINE
8
CUT
10
694.3727
20
93.5956
30
0.0
11
692.8100
21
91.1425
31
0.0
0
LINE
8
CUT
10
692.8100
20
91.1425
30
0.0
11
691.2473
21
88.8031
31
0.0
0
LINE
8
CUT
10
691.2473
20
88.8031
30
0.0
11
689.6845
21
86.5670
31
0.0
0
LINE
8
CUT
10
689.6845
20
86.5670
30
0.0
11
688.1218
21
84.4258
31
0.0
0
LINE
8
CUT
10
688.1218
20
84.4258
30
0.0
11
686.5591
21
82.3726
31
0.0
0
LINE
8
CUT
10
686.5591
20
82.3726
30
0.0
11
684.9964
21
80.4017
31
0.0
0
LINE
8
CUT
10
684.9964
20
80.4017
30
0.0
11
683.4336
21
78.5084
31
0.0
0
LINE
8
CUT
10
683.4336
20
78.5084
30
0.0
11
681.8709
21
76.6887
31
0.0
0
LINE
8
CUT
10
681.8709
20
76.6887
30
0.0
11
680.3082
21
74.9394
31
0.0
0
LINE
8
CUT
10
680.3082
20
74.9394
30
0.0
11
678.7455
21
73.2576
31
0.0
0
LINE
8
CUT
10
678.7455
20
73.2576
30
0.0
11
677.1827
21
71.6410
31
0.0
0
LINE
8
CUT
10
677.1827
20
71.6410
30
0.0
11
675.6200
21
70.0875
31
0.0
0
LINE
8
CUT
10
675.6200
20
70.0875
30
0.0
11
674.0573
21
68.5956
31
0.0
0
LINE
8
CUT
10
674.0573
20
68.5956
30
0.0
11
672.4945
21
67.1638
31
0.0
0
LINE
8
CUT
10
672.4945
20
67.1638
30
0.0
11
670.9318
21
65.7912
31
0.0
0
LINE
8
CUT
10
670.9318
20
65.7912
30
0.0
11
669.3691
21
64.4768
31
0.0
0
LINE
8
CUT
10
669.3691
20
64.4768
30
0.0
11
667.8064
21
63.2200
31
0.0
0
LINE
8
CUT
10
667.8064
20
63.2200
30
0.0
11
666.2436
21
62.0205
31
0.0
0
LINE
8
CUT
10
666.2436
20
62.0205
30
0.0
11
664.6809
21
60.8768
31
0.0
0
LINE
8
CUT
10
664.6809
20
60.8768
30
0.0
11
663.1182
21
59.7530
31
0.0
0
LINE
8
CUT
10
663.1182
20
59.7530
30
0.0
11
661.5555
21
58.6319
31
0.0
0
LINE
8
CUT
10
661.5555
20
58.6319
30
0.0
11
659.9927
21
57.5137
31
0.0
0
LINE
8
CUT
10
659.9927
20
57.5137
30
0.0
11
658.4300
21
56.3983
31
0.0
0
LINE
8
CUT
10
658.4300
20
56.3983
30
0.0
11
656.8673
21
55.2858
31
0.0
0
LINE
8
CUT
10
656.8673
20
55.2858
30
0.0
11
655.3045
21
54.1763
31
0.0
0
LINE
8
CUT
10
655.3045
20
54.1763
30
0.0
11
653.7418
21
53.0697
31
0.0
0
LINE
8
CUT
10
653.7418
20
53.0697
30
0.0
11
652.1791
21
51.9661
31
0.0
0
LINE
8
CUT
10
652.1791
20
51.9661
30
0.0
11
650.6164
21
50.8656
31
0.0
0
LINE
8
CUT
10
650.6164
20
50.8656
30
0.0
11
649.0536
21
49.7683
31
0.0
0
LINE
8
CUT
10
649.0536
20
49.7683
30
0.0
11
647.4909
21
48.6741
31
0.0
0
LINE
8
CUT
10
647.4909
20
48.6741
30
0.0
11
645.9282
21
47.5831
31
0.0
0
LINE
8
CUT
10
645.9282
20
47.5831
30
0.0
11
644.3655
21
46.4953
31
0.0
0
LINE
8
CUT
10
644.3655
20
46.4953
30
0.0
11
642.8027
21
45.4108
31
0.0
0
LINE
8
CUT
10
642.8027
20
45.4108
30
0.0
11
641.2400
21
44.3297
31
0.0
0
LINE
8
CUT
10
641.2400
20
44.3297
30
0.0
11
639.6773
21
43.2519
31
0.0
0
LINE
8
CUT
10
639.6773
20
43.2519
30
0.0
11
638.1145
21
42.1775
31
0.0
0
LINE
8
CUT
10
638.1145
20
42.1775
30
0.0
11
636.5518
21
41.1066
31
0.0
0
LINE
8
CUT
10
636.5518
20
41.1066
30
0.0
11
634.9891
21
40.0392
31
0.0
0
LINE
8
CUT
10
634.9891
20
40.0392
30
0.0
11
633.4264
21
38.9753
31
0.0
0
LINE
8
CUT
10
633.4264
20
38.9753
30
0.0
11
631.8636
21
37.9150
31
0.0
0
LINE
8
CUT
10
631.8636
20
37.9150
30
0.0
11
630.3009
21
36.8584
31
0.0
0
LINE
8
CUT
10
630.3009
20
36.8584
30
0.0
11
628.7382
21
35.8053
31
0.0
0
LINE
8
CUT
10
628.7382
20
35.8053
30
0.0
11
627.1755
21
34.7560
31
0.0
0
LINE
8
CUT
10
627.1755
20
34.7560
30
0.0
11
625.6127
21
33.7104
31
0.0
0
LINE
8
CUT
10
625.6127
20
33.7104
30
0.0
11
624.0500
21
32.6686
31
0.0
0
LINE
8
CUT
10
624.0500
20
32.6686
30
0.0
11
622.4873
21
31.6306
31
0.0
0
LINE
8
CUT
10
622.4873
20
31.6306
30
0.0
11
620.9245
21
30.5964
31
0.0
0
LINE
8
CUT
10
620.9245
20
30.5964
30
0.0
11
619.3618
21
29.5661
31
0.0
0
LINE
8
CUT
10
619.3618
20
29.5661
30
0.0
11
617.7991
21
28.5398
31
0.0
0
LINE
8
CUT
10
617.7991
20
28.5398
30
0.0
11
616.2364
21
27.5174
31
0.0
0
LINE
8
CUT
10
616.2364
20
27.5174
30
0.0
11
614.6736
21
26.4990
31
0.0
0
LINE
8
CUT
10
614.6736
20
26.4990
30
0.0
11
613.1109
21
25.4846
31
0.0
0
LINE
8
CUT
10
613.1109
20
25.4846
30
0.0
11
611.5482
21
24.4743
31
0.0
0
LINE
8
CUT
10
611.5482
20
24.4743
30
0.0
11
609.9855
21
23.4682
31
0.0
0
LINE
8
CUT
10
609.9855
20
23.4682
30
0.0
11
608.4227
21
22.4661
31
0.0
0
LINE
8
CUT
10
608.4227
20
22.4661
30
0.0
11
606.8600
21
21.4683
31
0.0
0
LINE
8
CUT
10
606.8600
20
21.4683
30
0.0
11
605.2973
21
20.4746
31
0.0
0
LINE
8
CUT
10
605.2973
20
20.4746
30
0.0
11
603.7345
21
19.4853
31
0.0
0
LINE
8
CUT
10
603.7345
20
19.4853
30
0.0
11
602.1718
21
18.5002
31
0.0
0
LINE
8
CUT
10
602.1718
20
18.5002
30
0.0
11
600.6091
21
17.5194
31
0.0
0
LINE
8
CUT
10
600.6091
20
17.5194
30
0.0
11
599.0464
21
16.5429
31
0.0
0
LINE
8
CUT
10
599.0464
20
16.5429
30
0.0
11
597.4836
21
15.5709
31
0.0
0
LINE
8
CUT
10
597.4836
20
15.5709
30
0.0
11
595.9209
21
14.6033
31
0.0
0
LINE
8
CUT
10
595.9209
20
14.6033
30
0.0
11
594.3582
21
13.6401
31
0.0
0
LINE
8
CUT
10
594.3582
20
13.6401
30
0.0
11
592.7955
21
12.6815
31
0.0
0
LINE
8
CUT
10
592.7955
20
12.6815
30
0.0
11
591.2327
21
11.7273
31
0.0
0
LINE
8
CUT
10
591.2327
20
11.7273
30
0.0
11
589.6700
21
10.7777
31
0.0
0
LINE
8
CUT
10
589.6700
20
10.7777
30
0.0
11
588.1073
21
9.8327
31
0.0
0
LINE
8
CUT
10
588.1073
20
9.8327
30
0.0
11
586.5445
21
8.8923
31
0.0
0
LINE
8
CUT
10
586.5445
20
8.8923
30
0.0
11
584.9818
21
7.9565
31
0.0
0
LINE
8
CUT
10
584.9818
20
7.9565
30
0.0
11
583.4191
21
7.0255
31
0.0
0
LINE
8
CUT
10
583.4191
20
7.0255
30
0.0
11
581.8564
21
6.1163
31
0.0
0
LINE
8
CUT
10
581.8564
20
6.1163
30
0.0
11
580.2936
21
5.2651
31
0.0
0
LINE
8
CUT
10
580.2936
20
5.2651
30
0.0
11
578.7309
21
4.4733
31
0.0
0
LINE
8
CUT
10
578.7309
20
4.4733
30
0.0
11
577.1682
21
3.7414
31
0.0
0
LINE
8
CUT
10
577.1682
20
3.7414
30
0.0
11
575.6055
21
3.0700
31
0.0
0
LINE
8
CUT
10
575.6055
20
3.0700
30
0.0
11
574.0427
21
2.4601
31
0.0
0
LINE
8
CUT
10
574.0427
20
2.4601
30
0.0
11
572.4800
21
1.9129
31
0.0
0
LINE
8
CUT
10
572.4800
20
1.9129
30
0.0
11
570.9173
21
1.4298
31
0.0
0
LINE
8
CUT
10
570.9173
20
1.4298
30
0.0
11
569.3545
21
1.0124
31
0.0
0
LINE
8
CUT
10
569.3545
20
1.0124
30
0.0
11
567.7918
21
0.6630
31
0.0
0
LINE
8
CUT
10
567.7918
20
0.6630
30
0.0
11
566.2291
21
0.3839
31
0.0
0
LINE
8
CUT
10
566.2291
20
0.3839
30
0.0
11
564.6664
21
0.1780
31
0.0
0
LINE
8
CUT
10
564.6664
20
0.1780
30
0.0
11
563.1036
21
0.0487
31
0.0
0
LINE
8
CUT
10
563.1036
20
0.0487
30
0.0
11
561.5409
21
0.0000
31
0.0
0
LINE
8
CUT
10
561.5409
20
0.0000
30
0.0
11
559.9782
21
0.0368
31
0.0
0
LINE
8
CUT
10
559.9782
20
0.0368
30
0.0
11
558.4155
21
0.1648
31
0.0
0
LINE
8
CUT
10
558.4155
20
0.1648
30
0.0
11
556.8527
21
0.3909
31
0.0
0
LINE
8
CUT
10
556.8527
20
0.3909
30
0.0
11
555.2900
21
0.7237
31
0.0
0
LINE
8
CUT
10
555.2900
20
0.7237
30
0.0
11
553.7273
21
1.1737
31
0.0
0
LINE
8
CUT
10
553.7273
20
1.1737
30
0.0
11
552.1645
21
1.7540
31
0.0
0
LINE
8
CUT
10
552.1645
20
1.7540
30
0.0
11
550.6018
21
2.4817
31
0.0
0
LINE
8
CUT
10
550.6018
20
2.4817
30
0.0
11
549.0391
21
3.3795
31
0.0
0
LINE
8
CUT
10
549.0391
20
3.3795
30
0.0
11
547.4764
21
4.4780
31
0.0
0
LINE
8
CUT
10
547.4764
20
4.4780
30
0.0
11
545.9136
21
5.8218
31
0.0
0
LINE
8
CUT
10
545.9136
20
5.8218
30
0.0
11
544.3509
21
7.4782
31
0.0
0
LINE
8
CUT
10
544.3509
20
7.4782
30
0.0
11
542.7882
21
9.5606
31
0.0
0
LINE
8
CUT
10
542.7882
20
9.5606
30
0.0
11
541.2255
21
12.2881
31
0.0
0
LINE
8
CUT
10
541.2255
20
12.2881
30
0.0
11
539.6627
21
16.2220
31
0.0
0
LINE
8
CUT
10
539.6627
20
16.2220
30
0.0
11
538.1000
21
27.1955
31
0.0
0
LINE
8
CUT
10
538.1000
20
27.1955
30
0.0
11
538.1000
21
280.5484
31
0.0
0
LINE
8
CUT
10
538.1000
20
280.5484
30
0.0
11
538.1000
21
280.5484
31
0.0
0
LINE
8
CUT
10
718.0000
20
228.9109
30
0.0
11
718.8364
21
238.2101
31
0.0
0
LINE
8
CUT
10
718.8364
20
238.2101
30
0.0
11
719.6727
21
242.3916
31
0.0
0
LINE
8
CUT
10
719.6727
20
242.3916
30
0.0
11
720.5091
21
245.7131
31
0.0
0
LINE
8
CUT
10
720.5091
20
245.7131
30
0.0
11
721.3455
21
248.5819
31
0.0
0
LINE
8
CUT
10
721.3455
20
248.5819
30
0.0
11
722.1818
21
251.1565
31
0.0
0
LINE
8
CUT
10
722.1818
20
251.1565
30
0.0
11
723.0182
21
253.5186
31
0.0
0
LINE
8
CUT
10
723.0182
20
253.5186
30
0.0
11
723.8545
21
255.7169
31
0.0
0
LINE
8
CUT
10
723.8545
20
255.7169
30
0.0
11
724.6909
21
257.7831
31
0.0
0
LINE
8
CUT
10
724.6909
20
257.7831
30
0.0
11
725.5273
21
259.7396
31
0.0
0
LINE
8
CUT
10
725.5273
20
259.7396
30
0.0
11
726.3636
21
263.1114
31
0.0
0
LINE
8
CUT
10
726.3636
20
263.1114
30
0.0
11
727.2000
21
264.9010
31
0.0
0
LINE
8
CUT
10
727.2000
20
264.9010
30
0.0
11
728.0364
21
266.6188
31
0.0
0
LINE
8
CUT
10
728.0364
20
266.6188
30
0.0
11
728.8727
21
268.2724
31
0.0
0
LINE
8
CUT
10
728.8727
20
268.2724
30
0.0
11
729.7091
21
269.8680
31
0.0
0
LINE
8
CUT
10
729.7091
20
269.8680
30
0.0
11
730.5455
21
271.4108
31
0.0
0
LINE
8
CUT
10
730.5455
20
271.4108
30
0.0
11
731.3818
21
272.9049
31
0.0
0
LINE
8
CUT
10
731.3818
20
272.9049
30
0.0
11
732.2182
21
274.3541
31
0.0
0
LINE
8
CUT
10
732.2182
20
274.3541
30
0.0
11
733.0545
21
275.7614
31
0.0
0
LINE
8
CUT
10
733.0545
20
275.7614
30
0.0
11
733.8909
21
277.1294
31
0.0
0
LINE
8
CUT
10
733.8909
20
277.1294
30
0.0
11
734.7273
21
278.4606
31
0.0
0
LINE
8
CUT
10
734.7273
20
278.4606
30
0.0
11
735.5636
21
279.7569
31
0.0
0
LINE
8
CUT
10
735.5636
20
279.7569
30
0.0
11
736.4000
21
281.0201
31
0.0
0
LINE
8
CUT
10
736.4000
20
281.0201
30
0.0
11
737.2364
21
282.2519
31
0.0
0
LINE
8
CUT
10
737.2364
20
282.2519
30
0.0
11
738.0727
21
283.4535
31
0.0
0
LINE
8
CUT
10
738.0727
20
283.4535
30
0.0
11
738.9091
21
284.6264
31
0.0
0
LINE
8
CUT
10
738.9091
20
284.6264
30
0.0
11
739.7455
21
285.7716
31
0.0
0
LINE
8
CUT
10
739.7455
20
285.7716
30
0.0
11
740.5818
21
286.8901
31
0.0
0
LINE
8
CUT
10
740.5818
20
286.8901
30
0.0
11
741.4182
21
287.9829
31
0.0
0
LINE
8
CUT
10
741.4182
20
287.9829
30
0.0
11
742.2545
21
289.0507
31
0.0
0
LINE
8
CUT
10
742.2545
20
289.0507
30
0.0
11
743.0909
21
290.0944
31
0.0
0
LINE
8
CUT
10
743.0909
20
290.0944
30
0.0
11
743.9273
21
291.1147
31
0.0
0
LINE
8
CUT
10
743.9273
20
291.1147
30
0.0
11
744.7636
21
292.1120
31
0.0
0
LINE
8
CUT
10
744.7636
20
292.1120
30
0.0
11
745.6000
21
293.0871
31
0.0
0
LINE
8
CUT
10
745.6000
20
293.0871
30
0.0
11
746.4364
21
294.0404
31
0.0
0
LINE
8
CUT
10
746.4364
20
294.0404
30
0.0
11
747.2727
21
294.9725
31
0.0
0
LINE
8
CUT
10
747.2727
20
294.9725
30
0.0
11
748.1091
21
295.8836
31
0.0
0
LINE
8
CUT
10
748.1091
20
295.8836
30
0.0
11
748.9455
21
296.7743
31
0.0
0
LINE
8
CUT
10
748.9455
20
296.7743
30
0.0
11
749.7818
21
297.6449
31
0.0
0
LINE
8
CUT
10
749.7818
20
297.6449
30
0.0
11
750.6182
21
298.6691
31
0.0
0
LINE
8
CUT
10
750.6182
20
298.6691
30
0.0
11
751.4545
21
299.5011
31
0.0
0
LINE
8
CUT
10
751.4545
20
299.5011
30
0.0
11
752.2909
21
300.3139
31
0.0
0
LINE
8
CUT
10
752.2909
20
300.3139
30
0.0
11
753.1273
21
301.1078
31
0.0
0
LINE
8
CUT
10
753.1273
20
301.1078
30
0.0
11
753.9636
21
301.8829
31
0.0
0
LINE
8
CUT
10
753.9636
20
301.8829
30
0.0
11
754.8000
21
302.6394
31
0.0
0
LINE
8
CUT
10
754.8000
20
302.6394
30
0.0
11
755.6364
21
303.3775
31
0.0
0
LINE
8
CUT
10
755.6364
20
303.3775
30
0.0
11
756.4727
21
304.0974
31
0.0
0
LINE
8
CUT
10
756.4727
20
304.0974
30
0.0
11
757.3091
21
304.7992
31
0.0
0
LINE
8
CUT
10
757.3091
20
304.7992
30
0.0
11
758.1455
21
305.4831
31
0.0
0
LINE
8
CUT
10
758.1455
20
305.4831
30
0.0
11
758.9818
21
306.1490
31
0.0
0
LINE
8
CUT
10
758.9818
20
306.1490
30
0.0
11
759.8182
21
306.7971
31
0.0
0
LINE
8
CUT
10
759.8182
20
306.7971
30
0.0
11
760.6545
21
307.4275
31
0.0
0
LINE
8
CUT
10
760.6545
20
307.4275
30
0.0
11
761.4909
21
308.0402
31
0.0
0
LINE
8
CUT
10
761.4909
20
308.0402
30
0.0
11
762.3273
21
308.6352
31
0.0
0
LINE
8
CUT
10
762.3273
20
308.6352
30
0.0
11
763.1636
21
309.2128
31
0.0
0
LINE
8
CUT
10
763.1636
20
309.2128
30
0.0
11
764.0000
21
309.7833
31
0.0
0
LINE
8
CUT
10
764.0000
20
309.7833
30
0.0
11
764.8364
21
310.3517
31
0.0
0
LINE
8
CUT
10
764.8364
20
310.3517
30
0.0
11
765.6727
21
310.9130
31
0.0
0
LINE
8
CUT
10
765.6727
20
310.9130
30
0.0
11
766.5091
21
311.4568
31
0.0
0
LINE
8
CUT
10
766.5091
20
311.4568
30
0.0
11
767.3455
21
311.9830
31
0.0
0
LINE
8
CUT
10
767.3455
20
311.9830
30
0.0
11
768.1818
21
312.4914
31
0.0
0
LINE
8
CUT
10
768.1818
20
312.4914
30
0.0
11
769.0182
21
312.9819
31
0.0
0
LINE
8
CUT
10
769.0182
20
312.9819
30
0.0
11
769.8545
21
313.4546
31
0.0
0
LINE
8
CUT
10
769.8545
20
313.4546
30
0.0
11
770.6909
21
313.9093
31
0.0
0
LINE
8
CUT
10
770.6909
20
313.9093
30
0.0
11
771.5273
21
314.3459
31
0.0
0
LINE
8
CUT
10
771.5273
20
314.3459
30
0.0
11
772.3636
21
314.7642
31
0.0
0
LINE
8
CUT
10
772.3636
20
314.7642
30
0.0
11
773.2000
21
315.1642
31
0.0
0
LINE
8
CUT
10
773.2000
20
315.1642
30
0.0
11
774.0364
21
315.5456
31
0.0
0
LINE
8
CUT
10
774.0364
20
315.5456
30
0.0
11
774.8727
21
315.9083
31
0.0
0
LINE
8
CUT
10
774.8727
20
315.9083
30
0.0
11
775.7091
21
316.2520
31
0.0
0
LINE
8
CUT
10
775.7091
20
316.2520
30
0.0
11
776.5455
21
316.5766
31
0.0
0
LINE
8
CUT
10
776.5455
20
316.5766
30
0.0
11
777.3818
21
316.8817
31
0.0
0
LINE
8
CUT
10
777.3818
20
316.8817
30
0.0
11
778.2182
21
317.1671
31
0.0
0
LINE
8
CUT
10
778.2182
20
317.1671
30
0.0
11
779.0545
21
317.4324
31
0.0
0
LINE
8
CUT
10
779.0545
20
317.4324
30
0.0
11
779.8909
21
317.6774
31
0.0
0
LINE
8
CUT
10
779.8909
20
317.6774
30
0.0
11
780.7273
21
317.9016
31
0.0
0
LINE
8
CUT
10
780.7273
20
317.9016
30
0.0
11
781.5636
21
318.1047
31
0.0
0
LINE
8
CUT
10
781.5636
20
318.1047
30
0.0
11
782.4000
21
318.2862
31
0.0
0
LINE
8
CUT
10
782.4000
20
318.2862
30
0.0
11
783.2364
21
318.4455
31
0.0
0
LINE
8
CUT
10
783.2364
20
318.4455
30
0.0
11
784.0727
21
318.5823
31
0.0
0
LINE
8
CUT
10
784.0727
20
318.5823
30
0.0
11
784.9091
21
318.6958
31
0.0
0
LINE
8
CUT
10
784.9091
20
318.6958
30
0.0
11
785.7455
21
318.7855
31
0.0
0
LINE
8
CUT
10
785.7455
20
318.7855
30
0.0
11
786.5818
21
318.8507
31
0.0
0
LINE
8
CUT
10
786.5818
20
318.8507
30
0.0
11
787.4182
21
318.8905
31
0.0
0
LINE
8
CUT
10
787.4182
20
318.8905
30
0.0
11
788.2545
21
318.9042
31
0.0
0
LINE
8
CUT
10
788.2545
20
318.9042
30
0.0
11
789.0909
21
318.8908
31
0.0
0
LINE
8
CUT
10
789.0909
20
318.8908
30
0.0
11
789.9273
21
318.8493
31
0.0
0
LINE
8
CUT
10
789.9273
20
318.8493
30
0.0
11
790.7636
21
318.7785
31
0.0
0
LINE
8
CUT
10
790.7636
20
318.7785
30
0.0
11
791.6000
21
318.6772
31
0.0
0
LINE
8
CUT
10
791.6000
20
318.6772
30
0.0
11
792.4364
21
318.5439
31
0.0
0
LINE
8
CUT
10
792.4364
20
318.5439
30
0.0
11
793.2727
21
318.3770
31
0.0
0
LINE
8
CUT
10
793.2727
20
318.3770
30
0.0
11
794.1091
21
318.1747
31
0.0
0
LINE
8
CUT
10
794.1091
20
318.1747
30
0.0
11
794.9455
21
317.9350
31
0.0
0
LINE
8
CUT
10
794.9455
20
317.9350
30
0.0
11
795.7818
21
317.8651
31
0.0
0
LINE
8
CUT
10
795.7818
20
317.8651
30
0.0
11
796.6182
21
317.5438
31
0.0
0
LINE
8
CUT
10
796.6182
20
317.5438
30
0.0
11
797.4545
21
317.1770
31
0.0
0
LINE
8
CUT
10
797.4545
20
317.1770
30
0.0
11
798.2909
21
316.7609
31
0.0
0
LINE
8
CUT
10
798.2909
20
316.7609
30
0.0
11
799.1273
21
316.2914
31
0.0
0
LINE
8
CUT
10
799.1273
20
316.2914
30
0.0
11
799.9636
21
315.7632
31
0.0
0
LINE
8
CUT
10
799.9636
20
315.7632
30
0.0
11
800.8000
21
315.1702
31
0.0
0
LINE
8
CUT
10
800.8000
20
315.1702
30
0.0
11
801.6364
21
314.5048
31
0.0
0
LINE
8
CUT
10
801.6364
20
314.5048
30
0.0
11
802.4727
21
313.7574
31
0.0
0
LINE
8
CUT
10
802.4727
20
313.7574
30
0.0
11
803.3091
21
312.9156
31
0.0
0
LINE
8
CUT
10
803.3091
20
312.9156
30
0.0
11
804.1455
21
311.9633
31
0.0
0
LINE
8
CUT
10
804.1455
20
311.9633
30
0.0
11
804.9818
21
310.8783
31
0.0
0
LINE
8
CUT
10
804.9818
20
310.8783
30
0.0
11
805.8182
21
309.6287
31
0.0
0
LINE
8
CUT
10
805.8182
20
309.6287
30
0.0
11
806.6545
21
308.1658
31
0.0
0
LINE
8
CUT
10
806.6545
20
308.1658
30
0.0
11
807.4909
21
306.4079
31
0.0
0
LINE
8
CUT
10
807.4909
20
306.4079
30
0.0
11
808.3273
21
304.1965
31
0.0
0
LINE
8
CUT
10
808.3273
20
304.1965
30
0.0
11
809.1636
21
301.1244
31
0.0
0
LINE
8
CUT
10
809.1636
20
301.1244
30
0.0
11
810.0000
21
292.9337
31
0.0
0
LINE
8
CUT
10
810.0000
20
292.9337
30
0.0
11
810.0000
21
25.9705
31
0.0
0
LINE
8
CUT
10
810.0000
20
25.9705
30
0.0
11
809.1636
21
17.7799
31
0.0
0
LINE
8
CUT
10
809.1636
20
17.7799
30
0.0
11
808.3273
21
14.7077
31
0.0
0
LINE
8
CUT
10
808.3273
20
14.7077
30
0.0
11
807.4909
21
12.4963
31
0.0
0
LINE
8
CUT
10
807.4909
20
12.4963
30
0.0
11
806.6545
21
10.7385
31
0.0
0
LINE
8
CUT
10
806.6545
20
10.7385
30
0.0
11
805.8182
21
9.2756
31
0.0
0
LINE
8
CUT
10
805.8182
20
9.2756
30
0.0
11
804.9818
21
8.0259
31
0.0
0
LINE
8
CUT
10
804.9818
20
8.0259
30
0.0
11
804.1455
21
6.9409
31
0.0
0
LINE
8
CUT
10
804.1455
20
6.9409
30
0.0
11
803.3091
21
5.9886
31
0.0
0
LINE
8
CUT
10
803.3091
20
5.9886
30
0.0
11
802.4727
21
5.1469
31
0.0
0
LINE
8
CUT
10
802.4727
20
5.1469
30
0.0
11
801.6364
21
4.3994
31
0.0
0
LINE
8
CUT
10
801.6364
20
4.3994
30
0.0
11
800.8000
21
3.7340
31
0.0
0
LINE
8
CUT
10
800.8000
20
3.7340
30
0.0
11
799.9636
21
3.1410
31
0.0
0
LINE
8
CUT
10
799.9636
20
3.1410
30
0.0
11
799.1273
21
2.6129
31
0.0
0
LINE
8
CUT
10
799.1273
20
2.6129
30
0.0
11
798.2909
21
2.1433
31
0.0
0
LINE
8
CUT
10
798.2909
20
2.1433
30
0.0
11
797.4545
21
1.7273
31
0.0
0
LINE
8
CUT
10
797.4545
20
1.7273
30
0.0
11
796.6182
21
1.3604
31
0.0
0
LINE
8
CUT
10
796.6182
20
1.3604
30
0.0
11
795.7818
21
1.0391
31
0.0
0
LINE
8
CUT
10
795.7818
20
1.0391
30
0.0
11
794.9455
21
0.9692
31
0.0
0
LINE
8
CUT
10
794.9455
20
0.9692
30
0.0
11
794.1091
21
0.7295
31
0.0
0
LINE
8
CUT
10
794.1091
20
0.7295
30
0.0
11
793.2727
21
0.5273
31
0.0
0
LINE
8
CUT
10
793.2727
20
0.5273
30
0.0
11
792.4364
21
0.3604
31
0.0
0
LINE
8
CUT
10
792.4364
20
0.3604
30
0.0
11
791.6000
21
0.2271
31
0.0
0
LINE
8
CUT
10
791.6000
20
0.2271
30
0.0
11
790.7636
21
0.1257
31
0.0
0
LINE
8
CUT
10
790.7636
20
0.1257
30
0.0
11
789.9273
21
0.0549
31
0.0
0
LINE
8
CUT
10
789.9273
20
0.0549
30
0.0
11
789.0909
21
0.0134
31
0.0
0
LINE
8
CUT
10
789.0909
20
0.0134
30
0.0
11
788.2545
21
0.0000
31
0.0
0
LINE
8
CUT
10
788.2545
20
0.0000
30
0.0
11
787.4182
21
0.0137
31
0.0
0
LINE
8
CUT
10
787.4182
20
0.0137
30
0.0
11
786.5818
21
0.0535
31
0.0
0
LINE
8
CUT
10
786.5818
20
0.0535
30
0.0
11
785.7455
21
0.1187
31
0.0
0
LINE
8
CUT
10
785.7455
20
0.1187
30
0.0
11
784.9091
21
0.2084
31
0.0
0
LINE
8
CUT
10
784.9091
20
0.2084
30
0.0
11
784.0727
21
0.3220
31
0.0
0
LINE
8
CUT
10
784.0727
20
0.3220
30
0.0
11
783.2364
21
0.4587
31
0.0
0
LINE
8
CUT
10
783.2364
20
0.4587
30
0.0
11
782.4000
21
0.6181
31
0.0
0
LINE
8
CUT
10
782.4000
20
0.6181
30
0.0
11
781.5636
21
0.7995
31
0.0
0
LINE
8
CUT
10
781.5636
20
0.7995
30
0.0
11
780.7273
21
1.0026
31
0.0
0
LINE
8
CUT
10
780.7273
20
1.0026
30
0.0
11
779.8909
21
1.2268
31
0.0
0
LINE
8
CUT
10
779.8909
20
1.2268
30
0.0
11
779.0545
21
1.4718
31
0.0
0
LINE
8
CUT
10
779.0545
20
1.4718
30
0.0
11
778.2182
21
1.7372
31
0.0
0
LINE
8
CUT
10
778.2182
20
1.7372
30
0.0
11
777.3818
21
2.0225
31
0.0
0
LINE
8
CUT
10
777.3818
20
2.0225
30
0.0
11
776.5455
21
2.3277
31
0.0
0
LINE
8
CUT
10
776.5455
20
2.3277
30
0.0
11
775.7091
21
2.6522
31
0.0
0
LINE
8
CUT
10
775.7091
20
2.6522
30
0.0
11
774.8727
21
2.9959
31
0.0
0
LINE
8
CUT
10
774.8727
20
2.9959
30
0.0
11
774.0364
21
3.3586
31
0.0
0
LINE
8
CUT
10
774.0364
20
3.3586
30
0.0
11
773.2000
21
3.7400
31
0.0
0
LINE
8
CUT
10
773.2000
20
3.7400
30
0.0
11
772.3636
21
4.1400
31
0.0
0
LINE
8
CUT
10
772.3636
20
4.1400
30
0.0
11
771.5273
21
4.5584
31
0.0
0
LINE
8
CUT
10
771.5273
20
4.5584
30
0.0
11
770.6909
21
4.9949
31
0.0
0
LINE
8
CUT
10
770.6909
20
4.9949
30
0.0
11
769.8545
21
5.4496
31
0.0
0
LINE
8
CUT
10
769.8545
20
5.4496
30
0.0
11
769.0182
21
5.9223
31
0.0
0
LINE
8
CUT
10
769.0182
20
5.9223
30
0.0
11
768.1818
21
6.4129
31
0.0
0
LINE
8
CUT
10
768.1818
20
6.4129
30
0.0
11
767.3455
21
6.9213
31
0.0
0
LINE
8
CUT
10
767.3455
20
6.9213
30
0.0
11
766.5091
21
7.4474
31
0.0
0
LINE
8
CUT
10
766.5091
20
7.4474
30
0.0
11
765.6727
21
7.9913
31
0.0
0
LINE
8
CUT
10
765.6727
20
7.9913
30
0.0
11
764.8364
21
8.5525
31
0.0
0
LINE
8
CUT
10
764.8364
20
8.5525
30
0.0
11
764.0000
21
9.1209
31
0.0
0
LINE
8
CUT
10
764.0000
20
9.1209
30
0.0
11
763.1636
21
9.6914
31
0.0
0
LINE
8
CUT
10
763.1636
20
9.6914
30
0.0
11
762.3273
21
10.2691
31
0.0
0
LINE
8
CUT
10
762.3273
20
10.2691
30
0.0
11
761.4909
21
10.8641
31
0.0
0
LINE
8
CUT
10
761.4909
20
10.8641
30
0.0
11
760.6545
21
11.4767
31
0.0
0
LINE
8
CUT
10
760.6545
20
11.4767
30
0.0
11
759.8182
21
12.1071
31
0.0
0
LINE
8
CUT
10
759.8182
20
12.1071
30
0.0
11
758.9818
21
12.7552
31
0.0
0
LINE
8
CUT
10
758.9818
20
12.7552
30
0.0
11
758.1455
21
13.4212
31
0.0
0
LINE
8
CUT
10
758.1455
20
13.4212
30
0.0
11
757.3091
21
14.1050
31
0.0
0
LINE
8
CUT
10
757.3091
20
14.1050
30
0.0
11
756.4727
21
14.8068
31
0.0
0
LINE
8
CUT
10
756.4727
20
14.8068
30
0.0
11
755.6364
21
15.5267
31
0.0
0
LINE
8
CUT
10
755.6364
20
15.5267
30
0.0
11
754.8000
21
16.2648
31
0.0
0
LINE
8
CUT
10
754.8000
20
16.2648
30
0.0
11
753.9636
21
17.0214
31
0.0
0
LINE
8
CUT
10
753.9636
20
17.0214
30
0.0
11
753.1273
21
17.7964
31
0.0
0
LINE
8
CUT
10
753.1273
20
17.7964
30
0.0
11
752.2909
21
18.5903
31
0.0
0
LINE
8
CUT
10
752.2909
20
18.5903
30
0.0
11
751.4545
21
19.4031
31
0.0
0
LINE
8
CUT
10
751.4545
20
19.4031
30
0.0
11
750.6182
21
20.2352
31
0.0
0
LINE
8
CUT
10
750.6182
20
20.2352
30
0.0
11
749.7818
21
21.2593
31
0.0
0
LINE
8
CUT
10
749.7818
20
21.2593
30
0.0
11
748.9455
21
22.1299
31
0.0
0
LINE
8
CUT
10
748.9455
20
22.1299
30
0.0
11
748.1091
21
23.0206
31
0.0
0
LINE
8
CUT
10
748.1091
20
23.0206
30
0.0
11
747.2727
21
23.9318
31
0.0
0
LINE
8
CUT
10
747.2727
20
23.9318
30
0.0
11
746.4364
21
24.8638
31
0.0
0
LINE
8
CUT
10
746.4364
20
24.8638
30
0.0
11
745.6000
21
25.8171
31
0.0
0
LINE
8
CUT
10
745.6000
20
25.8171
30
0.0
11
744.7636
21
26.7922
31
0.0
0
LINE
8
CUT
10
744.7636
20
26.7922
30
0.0
11
743.9273
21
27.7896
31
0.0
0
LINE
8
CUT
10
743.9273
20
27.7896
30
0.0
11
743.0909
21
28.8098
31
0.0
0
LINE
8
CUT
10
743.0909
20
28.8098
30
0.0
11
742.2545
21
29.8535
31
0.0
0
LINE
8
CUT
10
742.2545
20
29.8535
30
0.0
11
741.4182
21
30.9214
31
0.0
0
LINE
8
CUT
10
741.4182
20
30.9214
30
0.0
11
740.5818
21
32.0141
31
0.0
0
LINE
8
CUT
10
740.5818
20
32.0141
30
0.0
11
739.7455
21
33.1326
31
0.0
0
LINE
8
CUT
10
739.7455
20
33.1326
30
0.0
11
738.9091
21
34.2778
31
0.0
0
LINE
8
CUT
10
738.9091
20
34.2778
30
0.0
11
738.0727
21
35.4507
31
0.0
0
LINE
8
CUT
10
738.0727
20
35.4507
30
0.0
11
737.2364
21
36.6524
31
0.0
0
LINE
8
CUT
10
737.2364
20
36.6524
30
0.0
11
736.4000
21
37.8841
31
0.0
0
LINE
8
CUT
10
736.4000
20
37.8841
30
0.0
11
735.5636
21
39.1473
31
0.0
0
LINE
8
CUT
10
735.5636
20
39.1473
30
0.0
11
734.7273
21
40.4436
31
0.0
0
LINE
8
CUT
10
734.7273
20
40.4436
30
0.0
11
733.8909
21
41.7748
31
0.0
0
LINE
8
CUT
10
733.8909
20
41.7748
30
0.0
11
733.0545
21
43.1429
31
0.0
0
LINE
8
CUT
10
733.0545
20
43.1429
30
0.0
11
732.2182
21
44.5501
31
0.0
0
LINE
8
CUT
10
732.2182
20
44.5501
30
0.0
11
731.3818
21
45.9993
31
0.0
0
LINE
8
CUT
10
731.3818
20
45.9993
30
0.0
11
730.5455
21
47.4935
31
0.0
0
LINE
8
CUT
10
730.5455
20
47.4935
30
0.0
11
729.7091
21
49.0362
31
0.0
0
LINE
8
CUT
10
729.7091
20
49.0362
30
0.0
11
728.8727
21
50.6318
31
0.0
0
LINE
8
CUT
10
728.8727
20
50.6318
30
0.0
11
728.0364
21
52.2854
31
0.0
0
LINE
8
CUT
10
728.0364
20
52.2854
30
0.0
11
727.2000
21
54.0032
31
0.0
0
LINE
8
CUT
10
727.2000
20
54.0032
30
0.0
11
726.3636
21
55.7928
31
0.0
0
LINE
8
CUT
10
726.3636
20
55.7928
30
0.0
11
725.5273
21
59.1646
31
0.0
0
LINE
8
CUT
10
725.5273
20
59.1646
30
0.0
11
724.6909
21
61.1211
31
0.0
0
LINE
8
CUT
10
724.6909
20
61.1211
30
0.0
11
723.8545
21
63.1873
31
0.0
0
LINE
8
CUT
10
723.8545
20
63.1873
30
0.0
11
723.0182
21
65.3856
31
0.0
0
LINE
8
CUT
10
723.0182
20
65.3856
30
0.0
11
722.1818
21
67.7477
31
0.0
0
LINE
8
CUT
10
722.1818
20
67.7477
30
0.0
11
721.3455
21
70.3223
31
0.0
0
LINE
8
CUT
10
721.3455
20
70.3223
30
0.0
11
720.5091
21
73.1911
31
0.0
0
LINE
8
CUT
10
720.5091
20
73.1911
30
0.0
11
719.6727
21
76.5126
31
0.0
0
LINE
8
CUT
10
719.6727
20
76.5126
30
0.0
11
718.8364
21
80.6941
31
0.0
0
LINE
8
CUT
10
718.8364
20
80.6941
30
0.0
11
718.0000
21
89.9933
31
0.0
0
LINE
8
CUT
10
718.0000
20
89.9933
30
0.0
11
718.0000
21
228.9109
31
0.0
0
LINE
8
CUT
10
718.0000
20
228.9109
30
0.0
11
718.0000
21
228.9109
31
0.0
0
ENDSEC
0
EOF
