0
SECTION
2
ENTITIES
0
LINE
8
CHANNEL
10
0.0000
20
0.0000
30
0.0
11
2400.0000
21
0.0000
31
0.0
0
LINE
8
CHANNEL
10
2400.0000
20
0.0000
30
0.0
11
2400.0000
21
600.0000
31
0.0
0
LINE
8
CHANNEL
10
2400.0000
20
600.0000
30
0.0
11
0.0000
21
600.0000
31
0.0
0
LINE
8
CHANNEL
10
0.0000
20
600.0000
30
0.0
11
0.0000
21
0.0000
31
0.0
0
LINE
8
CHANNEL
10
0.0000
20
0.0000
30
0.0
11
0.0000
21
0.0000
31
0.0
0
LINE
8
CUT
10
0.0000
20
308.9000
30
0.0
11
4.9700
21
325.2869
31
0.0
0
LINE
8
CUT
10
4.9700
20
325.2869
30
0.0
11
9.9400
21
330.9829
31
0.0
0
LINE
8
CUT
10
9.9400
20
330.9829
30
0.0
11
14.9100
21
334.5395
31
0.0
0
LINE
8
CUT
10
14.9100
20
334.5395
30
0.0
11
19.8800
21
336.7874
31
0.0
0
LINE
8
CUT
10
19.8800
20
336.7874
30
0.0
11
24.8500
21
338.0312
31
0.0
0
LINE
8
CUT
10
24.8500
20
338.0312
30
0.0
11
29.8200
21
338.4000
31
0.0
0
LINE
8
CUT
10
29.8200
20
338.4000
30
0.0
11
34.7900
21
338.4000
31
0.0
0
LINE
8
CUT
10
34.7900
20
338.4000
30
0.0
11
39.7600
21
338.4000
31
0.0
0
LINE
8
CUT
10
39.7600
20
338.4000
30
0.0
11
44.7300
21
338.4000
31
0.0
0
LINE
8
CUT
10
44.7300
20
338.4000
30
0.0
11
49.7000
21
338.4000
31
0.0
0
LINE
8
CUT
10
49.7000
20
338.4000
30
0.0
11
54.6700
21
338.4000
31
0.0
0
LINE
8
CUT
10
54.6700
20
338.4000
30
0.0
11
59.6400
21
338.4000
31
0.0
0
LINE
8
CUT
10
59.6400
20
338.4000
30
0.0
11
64.6100
21
338.4000
31
0.0
0
LINE
8
CUT
10
64.6100
20
338.4000
30
0.0
11
69.5800
21
338.4000
31
0.0
0
LINE
8
CUT
10
69.5800
20
338.4000
30
0.0
11
74.5500
21
338.4000
31
0.0
0
LINE
8
CUT
10
74.5500
20
338.4000
30
0.0
11
79.5200
21
338.4000
31
0.0
0
LINE
8
CUT
10
79.5200
20
338.4000
30
0.0
11
84.4900
21
338.4000
31
0.0
0
LINE
8
CUT
10
84.4900
20
338.4000
30
0.0
11
89.4600
21
338.4000
31
0.0
0
LINE
8
CUT
10
89.4600
20
338.4000
30
0.0
11
94.4300
21
338.4000
31
0.0
0
LINE
8
CUT
10
94.4300
20
338.4000
30
0.0
11
99.4000
21
338.4000
31
0.0
0
LINE
8
CUT
10
99.4000
20
338.4000
30
0.0
11
104.3700
21
338.4000
31
0.0
0
LINE
8
CUT
10
104.3700
20
338.4000
30
0.0
11
109.3400
21
338.4000
31
0.0
0
LINE
8
CUT
10
109.3400
20
338.4000
30
0.0
11
114.3100
21
338.4000
31
0.0
0
LINE
8
CUT
10
114.3100
20
338.4000
30
0.0
11
119.2800
21
338.4000
31
0.0
0
LINE
8
CUT
10
119.2800
20
338.4000
30
0.0
11
124.2500
21
338.4000
31
0.0
0
LINE
8
CUT
10
124.2500
20
338.4000
30
0.0
11
129.2200
21
338.4000
31
0.0
0
LINE
8
CUT
10
129.2200
20
338.4000
30
0.0
11
134.1900
21
338.4000
31
0.0
0
LINE
8
CUT
10
134.1900
20
338.4000
30
0.0
11
139.1600
21
338.4000
31
0.0
0
LINE
8
CUT
10
139.1600
20
338.4000
30
0.0
11
144.1300
21
338.4000
31
0.0
0
LINE
8
CUT
10
144.1300
20
338.4000
30
0.0
11
149.1000
21
338.4000
31
0.0
0
LINE
8
CUT
10
149.1000
20
338.4000
30
0.0
11
154.0700
21
338.4000
31
0.0
0
LINE
8
CUT
10
154.0700
20
338.4000
30
0.0
11
159.0400
21
338.4000
31
0.0
0
LINE
8
CUT
10
159.0400
20
338.4000
30
0.0
11
164.0100
21
338.4000
31
0.0
0
LINE
8
CUT
10
164.0100
20
338.4000
30
0.0
11
168.9800
21
338.4000
31
0.0
0
LINE
8
CUT
10
168.9800
20
338.4000
30
0.0
11
173.9500
21
338.4000
31
0.0
0
LINE
8
CUT
10
173.9500
20
338.4000
30
0.0
11
178.9200
21
338.4000
31
0.0
0
LINE
8
CUT
10
178.9200
20
338.4000
30
0.0
11
183.8900
21
338.4000
31
0.0
0
LINE
8
CUT
10
183.8900
20
338.4000
30
0.0
11
188.8600
21
338.4000
31
0.0
0
LINE
8
CUT
10
188.8600
20
338.4000
30
0.0
11
193.8300
21
338.4000
31
0.0
0
LINE
8
CUT
10
193.8300
20
338.4000
30
0.0
11
198.8000
21
338.4000
31
0.0
0
LINE
8
CUT
10
198.8000
20
338.4000
30
0.0
11
203.7700
21
338.4000
31
0.0
0
LINE
8
CUT
10
203.7700
20
338.4000
30
0.0
11
208.7400
21
338.4000
31
0.0
0
LINE
8
CUT
10
208.7400
20
338.4000
30
0.0
11
213.7100
21
338.4000
31
0.0
0
LINE
8
CUT
10
213.7100
20
338.4000
30
0.0
11
218.6800
21
338.4000
31
0.0
0
LINE
8
CUT
10
218.6800
20
338.4000
30
0.0
11
223.6500
21
338.4000
31
0.0
0
LINE
8
CUT
10
223.6500
20
338.4000
30
0.0
11
228.6200
21
338.4000
31
0.0
0
LINE
8
CUT
10
228.6200
20
338.4000
30
0.0
11
233.5900
21
338.4000
31
0.0
0
LINE
8
CUT
10
233.5900
20
338.4000
30
0.0
11
238.5600
21
338.4000
31
0.0
0
LINE
8
CUT
10
238.5600
20
338.4000
30
0.0
11
243.5300
21
338.4000
31
0.0
0
LINE
8
CUT
10
243.5300
20
338.4000
30
0.0
11
248.5000
21
338.4000
31
0.0
0
LINE
8
CUT
10
248.5000
20
338.4000
30
0.0
11
253.4700
21
338.4000
31
0.0
0
LINE
8
CUT
10
253.4700
20
338.4000
30
0.0
11
258.4400
21
338.4000
31
0.0
0
LINE
8
CUT
10
258.4400
20
338.4000
30
0.0
11
263.4100
21
338.4000
31
0.0
0
LINE
8
CUT
10
263.4100
20
338.4000
30
0.0
11
268.3800
21
338.4000
31
0.0
0
LINE
8
CUT
10
268.3800
20
338.4000
30
0.0
11
273.3500
21
338.4000
31
0.0
0
LINE
8
CUT
10
273.3500
20
338.4000
30
0.0
11
278.3200
21
338.4000
31
0.0
0
LINE
8
CUT
10
278.3200
20
338.4000
30
0.0
11
283.2900
21
338.4000
31
0.0
0
LINE
8
CUT
10
283.2900
20
338.4000
30
0.0
11
288.2600
21
338.4000
31
0.0
0
LINE
8
CUT
10
288.2600
20
338.4000
30
0.0
11
293.2300
21
338.4000
31
0.0
0
LINE
8
CUT
10
293.2300
20
338.4000
30
0.0
11
298.2000
21
338.4000
31
0.0
0
LINE
8
CUT
10
298.2000
20
338.4000
30
0.0
11
303.1700
21
338.4000
31
0.0
0
LINE
8
CUT
10
303.1700
20
338.4000
30
0.0
11
308.1400
21
338.4000
31
0.0
0
LINE
8
CUT
10
308.1400
20
338.4000
30
0.0
11
313.1100
21
338.4000
31
0.0
0
LINE
8
CUT
10
313.1100
20
338.4000
30
0.0
11
318.0800
21
338.4000
31
0.0
0
LINE
8
CUT
10
318.0800
20
338.4000
30
0.0
11
323.0500
21
338.4000
31
0.0
0
LINE
8
CUT
10
323.0500
20
338.4000
30
0.0
11
328.0200
21
338.4000
31
0.0
0
LINE
8
CUT
10
328.0200
20
338.4000
30
0.0
11
332.9900
21
338.4000
31
0.0
0
LINE
8
CUT
10
332.9900
20
338.4000
30
0.0
11
337.9600
21
338.4000
31
0.0
0
LINE
8
CUT
10
337.9600
20
338.4000
30
0.0
11
342.9300
21
338.4000
31
0.0
0
LINE
8
CUT
10
342.9300
20
338.4000
30
0.0
11
347.9000
21
338.4000
31
0.0
0
LINE
8
CUT
10
347.9000
20
338.4000
30
0.0
11
352.8700
21
338.4000
31
0.0
0
LINE
8
CUT
10
352.8700
20
338.4000
30
0.0
11
357.8400
21
338.4000
31
0.0
0
LINE
8
CUT
10
357.8400
20
338.4000
30
0.0
11
362.8100
21
338.4000
31
0.0
0
LINE
8
CUT
10
362.8100
20
338.4000
30
0.0
11
367.7800
21
338.4000
31
0.0
0
LINE
8
CUT
10
367.7800
20
338.4000
30
0.0
11
372.7500
21
338.4000
31
0.0
0
LINE
8
CUT
10
372.7500
20
338.4000
30
0.0
11
377.7200
21
338.4000
31
0.0
0
LINE
8
CUT
10
377.7200
20
338.4000
30
0.0
11
382.6900
21
338.4000
31
0.0
0
LINE
8
CUT
10
382.6900
20
338.4000
30
0.0
11
387.6600
21
338.4000
31
0.0
0
LINE
8
CUT
10
387.6600
20
338.4000
30
0.0
11
392.6300
21
338.4000
31
0.0
0
LINE
8
CUT
10
392.6300
20
338.4000
30
0.0
11
397.6000
21
338.4000
31
0.0
0
LINE
8
CUT
10
397.6000
20
338.4000
30
0.0
11
402.5700
21
338.4000
31
0.0
0
LINE
8
CUT
10
402.5700
20
338.4000
30
0.0
11
407.5400
21
338.4000
31
0.0
0
LINE
8
CUT
10
407.5400
20
338.4000
30
0.0
11
412.5100
21
338.4000
31
0.0
0
LINE
8
CUT
10
412.5100
20
338.4000
30
0.0
11
417.4800
21
338.4000
31
0.0
0
LINE
8
CUT
10
417.4800
20
338.4000
30
0.0
11
422.4500
21
338.4000
31
0.0
0
LINE
8
CUT
10
422.4500
20
338.4000
30
0.0
11
427.4200
21
338.4000
31
0.0
0
LINE
8
CUT
10
427.4200
20
338.4000
30
0.0
11
432.3900
21
338.4000
31
0.0
0
LINE
8
CUT
10
432.3900
20
338.4000
30
0.0
11
437.3600
21
338.4000
31
0.0
0
LINE
8
CUT
10
437.3600
20
338.4000
30
0.0
11
442.3300
21
338.4000
31
0.0
0
LINE
8
CUT
10
442.3300
20
338.4000
30
0.0
11
447.3000
21
338.4000
31
0.0
0
LINE
8
CUT
10
447.3000
20
338.4000
30
0.0
11
452.2700
21
338.4000
31
0.0
0
LINE
8
CUT
10
452.2700
20
338.4000
30
0.0
11
457.2400
21
338.4000
31
0.0
0
LINE
8
CUT
10
457.2400
20
338.4000
30
0.0
11
462.2100
21
338.4000
31
0.0
0
LINE
8
CUT
10
462.2100
20
338.4000
30
0.0
11
467.1800
21
338.4000
31
0.0
0
LINE
8
CUT
10
467.1800
20
338.4000
30
0.0
11
472.1500
21
338.4000
31
0.0
0
LINE
8
CUT
10
472.1500
20
338.4000
30
0.0
11
477.1200
21
338.4000
31
0.0
0
LINE
8
CUT
10
477.1200
20
338.4000
30
0.0
11
482.0900
21
338.4000
31
0.0
0
LINE
8
CUT
10
482.0900
20
338.4000
30
0.0
11
487.0600
21
338.4000
31
0.0
0
LINE
8
CUT
10
487.0600
20
338.4000
30
0.0
11
492.0300
21
338.4000
31
0.0
0
LINE
8
CUT
10
492.0300
20
338.4000
30
0.0
11
497.0000
21
338.4000
31
0.0
0
LINE
8
CUT
10
497.0000
20
338.4000
30
0.0
11
501.9700
21
338.4000
31
0.0
0
LINE
8
CUT
10
501.9700
20
338.4000
30
0.0
11
506.9400
21
338.4000
31
0.0
0
LINE
8
CUT
10
506.9400
20
338.4000
30
0.0
11
511.9100
21
338.4000
31
0.0
0
LINE
8
CUT
10
511.9100
20
338.4000
30
0.0
11
516.8800
21
338.4000
31
0.0
0
LINE
8
CUT
10
516.8800
20
338.4000
30
0.0
11
521.8500
21
338.0312
31
0.0
0
LINE
8
CUT
10
521.8500
20
338.0312
30
0.0
11
526.8200
21
336.7874
31
0.0
0
LINE
8
CUT
10
526.8200
20
336.7874
30
0.0
11
531.7900
21
334.5395
31
0.0
0
LINE
8
CUT
10
531.7900
20
334.5395
30
0.0
11
536.7600
21
330.9829
31
0.0
0
LINE
8
CUT
10
536.7600
20
330.9829
30
0.0
11
541.7300
21
325.2869
31
0.0
0
LINE
8
CUT
10
541.7300
20
325.2869
30
0.0
11
546.7000
21
308.9000
31
0.0
0
LINE
8
CUT
10
546.7000
20
308.9000
30
0.0
11
546.7000
21
29.5000
31
0.0
0
LINE
8
CUT
10
546.7000
20
29.5000
30
0.0
11
541.7300
21
13.1131
31
0.0
0
LINE
8
CUT
10
541.7300
20
13.1131
30
0.0
11
536.7600
21
7.4171
31
0.0
0
LINE
8
CUT
10
536.7600
20
7.4171
30
0.0
11
531.7900
21
3.8605
31
0.0
0
LINE
8
CUT
10
531.7900
20
3.8605
30
0.0
11
526.8200
21
1.6126
31
0.0
0
LINE
8
CUT
10
526.8200
20
1.6126
30
0.0
11
521.8500
21
0.3688
31
0.0
0
LINE
8
CUT
10
521.8500
20
0.3688
30
0.0
11
516.8800
21
0.0000
31
0.0
0
LINE
8
CUT
10
516.8800
20
0.0000
30
0.0
11
511.9100
21
0.0000
31
0.0
0
LINE
8
CUT
10
511.9100
20
0.0000
30
0.0
11
506.9400
21
0.0000
31
0.0
0
LINE
8
CUT
10
506.9400
20
0.0000
30
0.0
11
501.9700
21
0.0000
31
0.0
0
LINE
8
CUT
10
501.9700
20
0.0000
30
0.0
11
497.0000
21
0.0000
31
0.0
0
LINE
8
CUT
10
497.0000
20
0.0000
30
0.0
11
492.0300
21
0.0000
31
0.0
0
LINE
8
CUT
10
492.0300
20
0.0000
30
0.0
11
487.0600
21
0.0000
31
0.0
0
LINE
8
CUT
10
487.0600
20
0.0000
30
0.0
11
482.0900
21
0.0000
31
0.0
0
LINE
8
CUT
10
482.0900
20
0.0000
30
0.0
11
477.1200
21
0.0000
31
0.0
0
LINE
8
CUT
10
477.1200
20
0.0000
30
0.0
11
472.1500
21
0.0000
31
0.0
0
LINE
8
CUT
10
472.1500
20
0.0000
30
0.0
11
467.1800
21
0.0000
31
0.0
0
LINE
8
CUT
10
467.1800
20
0.0000
30
0.0
11
462.2100
21
0.0000
31
0.0
0
LINE
8
CUT
10
462.2100
20
0.0000
30
0.0
11
457.2400
21
0.0000
31
0.0
0
LINE
8
CUT
10
457.2400
20
0.0000
30
0.0
11
452.2700
21
0.0000
31
0.0
0
LINE
8
CUT
10
452.2700
20
0.0000
30
0.0
11
447.3000
21
0.0000
31
0.0
0
LINE
8
CUT
10
447.3000
20
0.0000
30
0.0
11
442.3300
21
0.0000
31
0.0
0
LINE
8
CUT
10
442.3300
20
0.0000
30
0.0
11
437.3600
21
0.0000
31
0.0
0
LINE
8
CUT
10
437.3600
20
0.0000
30
0.0
11
432.3900
21
0.0000
31
0.0
0
LINE
8
CUT
10
432.3900
20
0.0000
30
0.0
11
427.4200
21
0.0000
31
0.0
0
LINE
8
CUT
10
427.4200
20
0.0000
30
0.0
11
422.4500
21
0.0000
31
0.0
0
LINE
8
CUT
10
422.4500
20
0.0000
30
0.0
11
417.4800
21
0.0000
31
0.0
0
LINE
8
CUT
10
417.4800
20
0.0000
30
0.0
11
412.5100
21
0.0000
31
0.0
0
LINE
8
CUT
10
412.5100
20
0.0000
30
0.0
11
407.5400
21
0.0000
31
0.0
0
LINE
8
CUT
10
407.5400
20
0.0000
30
0.0
11
402.5700
21
0.0000
31
0.0
0
LINE
8
CUT
10
402.5700
20
0.0000
30
0.0
11
397.6000
21
0.0000
31
0.0
0
LINE
8
CUT
10
397.6000
20
0.0000
30
0.0
11
392.6300
21
0.0000
31
0.0
0
LINE
8
CUT
10
392.6300
20
0.0000
30
0.0
11
387.6600
21
0.0000
31
0.0
0
LINE
8
CUT
10
387.6600
20
0.0000
30
0.0
11
382.6900
21
0.0000
31
0.0
0
LINE
8
CUT
10
382.6900
20
0.0000
30
0.0
11
377.7200
21
0.0000
31
0.0
0
LINE
8
CUT
10
377.7200
20
0.0000
30
0.0
11
372.7500
21
0.0000
31
0.0
0
LINE
8
CUT
10
372.7500
20
0.0000
30
0.0
11
367.7800
21
0.0000
31
0.0
0
LINE
8
CUT
10
367.7800
20
0.0000
30
0.0
11
362.8100
21
0.0000
31
0.0
0
LINE
8
CUT
10
362.8100
20
0.0000
30
0.0
11
357.8400
21
0.0000
31
0.0
0
LINE
8
CUT
10
357.8400
20
0.0000
30
0.0
11
352.8700
21
0.0000
31
0.0
0
LINE
8
CUT
10
352.8700
20
0.0000
30
0.0
11
347.9000
21
0.0000
31
0.0
0
LINE
8
CUT
10
347.9000
20
0.0000
30
0.0
11
342.9300
21
0.0000
31
0.0
0
LINE
8
CUT
10
342.9300
20
0.0000
30
0.0
11
337.9600
21
0.0000
31
0.0
0
LINE
8
CUT
10
337.9600
20
0.0000
30
0.0
11
332.9900
21
0.0000
31
0.0
0
LINE
8
CUT
10
332.9900
20
0.0000
30
0.0
11
328.0200
21
0.0000
31
0.0
0
LINE
8
CUT
10
328.0200
20
0.0000
30
0.0
11
323.0500
21
0.0000
31
0.0
0
LINE
8
CUT
10
323.0500
20
0.0000
30
0.0
11
318.0800
21
0.0000
31
0.0
0
LINE
8
CUT
10
318.0800
20
0.0000
30
0.0
11
313.1100
21
0.0000
31
0.0
0
LINE
8
CUT
10
313.1100
20
0.0000
30
0.0
11
308.1400
21
0.0000
31
0.0
0
LINE
8
CUT
10
308.1400
20
0.0000
30
0.0
11
303.1700
21
0.0000
31
0.0
0
LINE
8
CUT
10
303.1700
20
0.0000
30
0.0
11
298.2000
21
0.0000
31
0.0
0
LINE
8
CUT
10
298.2000
20
0.0000
30
0.0
11
293.2300
21
0.0000
31
0.0
0
LINE
8
CUT
10
293.2300
20
0.0000
30
0.0
11
288.2600
21
0.0000
31
0.0
0
LINE
8
CUT
10
288.2600
20
0.0000
30
0.0
11
283.2900
21
0.0000
31
0.0
0
LINE
8
CUT
10
283.2900
20
0.0000
30
0.0
11
278.3200
21
0.0000
31
0.0
0
LINE
8
CUT
10
278.3200
20
0.0000
30
0.0
11
273.3500
21
0.0000
31
0.0
0
LINE
8
CUT
10
273.3500
20
0.0000
30
0.0
11
268.3800
21
0.0000
31
0.0
0
LINE
8
CUT
10
268.3800
20
0.0000
30
0.0
11
263.4100
21
0.0000
31
0.0
0
LINE
8
CUT
10
263.4100
20
0.0000
30
0.0
11
258.4400
21
0.0000
31
0.0
0
LINE
8
CUT
10
258.4400
20
0.0000
30
0.0
11
253.4700
21
0.0000
31
0.0
0
LINE
8
CUT
10
253.4700
20
0.0000
30
0.0
11
248.5000
21
0.0000
31
0.0
0
LINE
8
CUT
10
248.5000
20
0.0000
30
0.0
11
243.5300
21
0.0000
31
0.0
0
LINE
8
CUT
10
243.5300
20
0.0000
30
0.0
11
238.5600
21
0.0000
31
0.0
0
LINE
8
CUT
10
238.5600
20
0.0000
30
0.0
11
233.5900
21
0.0000
31
0.0
0
LINE
8
CUT
10
233.5900
20
0.0000
30
0.0
11
228.6200
21
0.0000
31
0.0
0
LINE
8
CUT
10
228.6200
20
0.0000
30
0.0
11
223.6500
21
0.0000
31
0.0
0
LINE
8
CUT
10
223.6500
20
0.0000
30
0.0
11
218.6800
21
0.0000
31
0.0
0
LINE
8
CUT
10
218.6800
20
0.0000
30
0.0
11
213.7100
21
0.0000
31
0.0
0
LINE
8
CUT
10
213.7100
20
0.0000
30
0.0
11
208.7400
21
0.0000
31
0.0
0
LINE
8
CUT
10
208.7400
20
0.0000
30
0.0
11
203.7700
21
0.0000
31
0.0
0
LINE
8
CUT
10
203.7700
20
0.0000
30
0.0
11
198.8000
21
0.0000
31
0.0
0
LINE
8
CUT
10
198.8000
20
0.0000
30
0.0
11
193.8300
21
0.0000
31
0.0
0
LINE
8
CUT
10
193.8300
20
0.0000
30
0.0
11
188.8600
21
0.0000
31
0.0
0
LINE
8
CUT
10
188.8600
20
0.0000
30
0.0
11
183.8900
21
0.0000
31
0.0
0
LINE
8
CUT
10
183.8900
20
0.0000
30
0.0
11
178.9200
21
0.0000
31
0.0
0
LINE
8
CUT
10
178.9200
20
0.0000
30
0.0
11
173.9500
21
0.0000
31
0.0
0
LINE
8
CUT
10
173.9500
20
0.0000
30
0.0
11
168.9800
21
0.0000
31
0.0
0
LINE
8
CUT
10
168.9800
20
0.0000
30
0.0
11
164.0100
21
0.0000
31
0.0
0
LINE
8
CUT
10
164.0100
20
0.0000
30
0.0
11
159.0400
21
0.0000
31
0.0
0
LINE
8
CUT
10
159.0400
20
0.0000
30
0.0
11
154.0700
21
0.0000
31
0.0
0
LINE
8
CUT
10
154.0700
20
0.0000
30
0.0
11
149.1000
21
0.0000
31
0.0
0
LINE
8
CUT
10
149.1000
20
0.0000
30
0.0
11
144.1300
21
0.0000
31
0.0
0
LINE
8
CUT
10
144.1300
20
0.0000
30
0.0
11
139.1600
21
0.0000
31
0.0
0
LINE
8
CUT
10
139.1600
20
0.0000
30
0.0
11
134.1900
21
0.0000
31
0.0
0
LINE
8
CUT
10
134.1900
20
0.0000
30
0.0
11
129.2200
21
0.0000
31
0.0
0
LINE
8
CUT
10
129.2200
20
0.0000
30
0.0
11
124.2500
21
0.0000
31
0.0
0
LINE
8
CUT
10
124.2500
20
0.0000
30
0.0
11
119.2800
21
0.0000
31
0.0
0
LINE
8
CUT
10
119.2800
20
0.0000
30
0.0
11
114.3100
21
0.0000
31
0.0
0
LINE
8
CUT
10
114.3100
20
0.0000
30
0.0
11
109.3400
21
0.0000
31
0.0
0
LINE
8
CUT
10
109.3400
20
0.0000
30
0.0
11
104.3700
21
0.0000
31
0.0
0
LINE
8
CUT
10
104.3700
20
0.0000
30
0.0
11
99.4000
21
0.0000
31
0.0
0
LINE
8
CUT
10
99.4000
20
0.0000
30
0.0
11
94.4300
21
0.0000
31
0.0
0
LINE
8
CUT
10
94.4300
20
0.0000
30
0.0
11
89.4600
21
0.0000
31
0.0
0
LINE
8
CUT
10
89.4600
20
0.0000
30
0.0
11
84.4900
21
0.0000
31
0.0
0
LINE
8
CUT
10
84.4900
20
0.0000
30
0.0
11
79.5200
21
0.0000
31
0.0
0
LINE
8
CUT
10
79.5200
20
0.0000
30
0.0
11
74.5500
21
0.0000
31
0.0
0
LINE
8
CUT
10
74.5500
20
0.0000
30
0.0
11
69.5800
21
0.0000
31
0.0
0
LINE
8
CUT
10
69.5800
20
0.0000
30
0.0
11
64.6100
21
0.0000
31
0.0
0
LINE
8
CUT
10
64.6100
20
0.0000
30
0.0
11
59.6400
21
0.0000
31
0.0
0
LINE
8
CUT
10
59.6400
20
0.0000
30
0.0
11
54.6700
21
0.0000
31
0.0
0
LINE
8
CUT
10
54.6700
20
0.0000
30
0.0
11
49.7000
21
0.0000
31
0.0
0
LINE
8
CUT
10
49.7000
20
0.0000
30
0.0
11
44.7300
21
0.0000
31
0.0
0
LINE
8
CUT
10
44.7300
20
0.0000
30
0.0
11
39.7600
21
0.0000
31
0.0
0
LINE
8
CUT
10
39.7600
20
0.0000
30
0.0
11
34.7900
21
0.0000
31
0.0
0
LINE
8
CUT
10
34.7900
20
0.0000
30
0.0
11
29.8200
21
0.0000
31
0.0
0
LINE
8
CUT
10
29.8200
20
0.0000
30
0.0
11
24.8500
21
0.3688
31
0.0
0
LINE
8
CUT
10
24.8500
20
0.3688
30
0.0
11
19.8800
21
1.6126
31
0.0
0
LINE
8
CUT
10
19.8800
20
1.6126
30
0.0
11
14.9100
21
3.8605
31
0.0
0
LINE
8
CUT
10
14.9100
20
3.8605
30
0.0
11
9.9400
21
7.4171
31
0.0
0
LINE
8
CUT
10
9.9400
20
7.4171
30
0.0
11
4.9700
21
13.1131
31
0.0
0
LINE
8
CUT
10
4.9700
20
13.1131
30
0.0
11
0.0000
21
29.5000
31
0.0
0
LINE
8
CUT
10
0.0000
20
29.5000
30
0.0
11
0.0000
21
308.9000
31
0.0
0
LINE
8
CUT
10
0.0000
20
308.9000
30
0.0
11
0.0000
21
308.9000
31
0.0
0
LINE
8
CUT
10
554.7000
20
261.7933
30
0.0
11
556.1118
21
272.2203
31
0.0
0
LINE
8
CUT
10
556.1118
20
272.2203
30
0.0
11
557.5236
21
275.9654
31
0.0
0
LINE
8
CUT
10
557.5236
20
275.9654
30
0.0
11
558.9355
21
278.5703
31
0.0
0
LINE
8
CUT
10
558.9355
20
278.5703
30
0.0
11
560.3473
21
280.5677
31
0.0
0
LINE
8
CUT
10
560.3473
20
280.5677
30
0.0
11
561.7591
21
282.1654
31
0.0
0
LINE
8
CUT
10
561.7591
20
282.1654
30
0.0
11
563.1709
21
283.4708
31
0.0
0
LINE
8
CUT
10
563.1709
20
283.4708
30
0.0
11
564.5827
21
284.5478
31
0.0
0
LINE
8
CUT
10
564.5827
20
284.5478
30
0.0
11
565.9945
21
285.4386
31
0.0
0
LINE
8
CUT
10
565.9945
20
285.4386
30
0.0
11
567.4064
21
286.1723
31
0.0
0
LINE
8
CUT
10
567.4064
20
286.1723
30
0.0
11
568.8182
21
286.7704
31
0.0
0
LINE
8
CUT
10
568.8182
20
286.7704
30
0.0
11
570.2300
21
287.2490
31
0.0
0
LINE
8
CUT
10
570.2300
20
287.2490
30
0.0
11
571.6418
21
287.6207
31
0.0
0
LINE
8
CUT
10
571.6418
20
287.6207
30
0.0
11
573.0536
21
287.8956
31
0.0
0
LINE
8
CUT
10
573.0536
20
287.8956
30
0.0
11
574.4655
21
288.0816
31
0.0
0
LINE
8
CUT
10
574.4655
20
288.0816
30
0.0
11
575.8773
21
288.1856
31
0.0
0
LINE
8
CUT
10
575.8773
20
288.1856
30
0.0
11
577.2891
21
288.2130
31
0.0
0
LINE
8
CUT
10
577.2891
20
288.2130
30
0.0
11
578.7009
21
288.1685
31
0.0
0
LINE
8
CUT
10
578.7009
20
288.1685
30
0.0
11
580.1127
21
288.0560
31
0.0
0
LINE
8
CUT
10
580.1127
20
288.0560
30
0.0
11
581.5245
21
287.8788
31
0.0
0
LINE
8
CUT
10
581.5245
20
287.8788
30
0.0
11
582.9364
21
287.6399
31
0.0
0
LINE
8
CUT
10
582.9364
20
287.6399
30
0.0
11
584.3482
21
287.3418
31
0.0
0
LINE
8
CUT
10
584.3482
20
287.3418
30
0.0
11
585.7600
21
286.9864
31
0.0
0
LINE
8
CUT
10
585.7600
20
286.9864
30
0.0
11
587.1718
21
286.5757
31
0.0
0
LINE
8
CUT
10
587.1718
20
286.5757
30
0.0
11
588.5836
21
286.1112
31
0.0
0
LINE
8
CUT
10
588.5836
20
286.1112
30
0.0
11
589.9955
21
285.5942
31
0.0
0
LINE
8
CUT
10
589.9955
20
285.5942
30
0.0
11
591.4073
21
285.0259
31
0.0
0
LINE
8
CUT
10
591.4073
20
285.0259
30
0.0
11
592.8191
21
284.4073
31
0.0
0
LINE
8
CUT
10
592.8191
20
284.4073
30
0.0
11
594.2309
21
283.7391
31
0.0
0
LINE
8
CUT
10
594.2309
20
283.7391
30
0.0
11
595.6427
21
283.0219
31
0.0
0
LINE
8
CUT
10
595.6427
20
283.0219
30
0.0
11
597.0545
21
282.2562
31
0.0
0
LINE
8
CUT
10
597.0545
20
282.2562
30
0.0
11
598.4664
21
281.4424
31
0.0
0
LINE
8
CUT
10
598.4664
20
281.4424
30
0.0
11
599.8782
21
280.5810
31
0.0
0
LINE
8
CUT
10
599.8782
20
280.5810
30
0.0
11
601.2900
21
279.6991
31
0.0
0
LINE
8
CUT
10
601.2900
20
279.6991
30
0.0
11
602.7018
21
278.8137
31
0.0
0
LINE
8
CUT
10
602.7018
20
278.8137
30
0.0
11
604.1136
21
277.9247
31
0.0
0
LINE
8
CUT
10
604.1136
20
277.9247
30
0.0
11
605.5255
21
277.0323
31
0.0
0
LINE
8
CUT
10
605.5255
20
277.0323
30
0.0
11
606.9373
21
276.1365
31
0.0
0
LINE
8
CUT
10
606.9373
20
276.1365
30
0.0
11
608.3491
21
275.2372
31
0.0
0
LINE
8
CUT
10
608.3491
20
275.2372
30
0.0
11
609.7609
21
274.3345
31
0.0
0
LINE
8
CUT
10
609.7609
20
274.3345
30
0.0
11
611.1727
21
273.4284
31
0.0
0
LINE
8
CUT
10
611.1727
20
273.4284
30
0.0
11
612.5845
21
272.5190
31
0.0
0
LINE
8
CUT
10
612.5845
20
272.5190
30
0.0
11
613.9964
21
271.6063
31
0.0
0
LINE
8
CUT
10
613.9964
20
271.6063
30
0.0
11
615.4082
21
270.6902
31
0.0
0
LINE
8
CUT
10
615.4082
20
270.6902
30
0.0
11
616.8200
21
269.7709
31
0.0
0
LINE
8
CUT
10
616.8200
20
269.7709
30
0.0
11
618.2318
21
268.8484
31
0.0
0
LINE
8
CUT
10
618.2318
20
268.8484
30
0.0
11
619.6436
21
267.9226
31
0.0
0
LINE
8
CUT
10
619.6436
20
267.9226
30
0.0
11
621.0555
21
266.9936
31
0.0
0
LINE
8
CUT
10
621.0555
20
266.9936
30
0.0
11
622.4673
21
266.0615
31
0.0
0
LINE
8
CUT
10
622.4673
20
266.0615
30
0.0
11
623.8791
21
265.1262
31
0.0
0
LINE
8
CUT
10
623.8791
20
265.1262
30
0.0
11
625.2909
21
264.1878
31
0.0
0
LINE
8
CUT
10
625.2909
20
264.1878
30
0.0
11
626.7027
21
263.2464
31
0.0
0
LINE
8
CUT
10
626.7027
20
263.2464
30
0.0
11
628.1145
21
262.3019
31
0.0
0
LINE
8
CUT
10
628.1145
20
262.3019
30
0.0
11
629.5264
21
261.3543
31
0.0
0
LINE
8
CUT
10
629.5264
20
261.3543
30
0.0
11
630.9382
21
260.4038
31
0.0
0
LINE
8
CUT
10
630.9382
20
260.4038
30
0.0
11
632.3500
21
259.4504
31
0.0
0
LINE
8
CUT
10
632.3500
20
259.4504
30
0.0
11
633.7618
21
258.4939
31
0.0
0
LINE
8
CUT
10
633.7618
20
258.4939
30
0.0
11
635.1736
21
257.5346
31
0.0
0
LINE
8
CUT
10
635.1736
20
257.5346
30
0.0
11
636.5855
21
256.5724
31
0.0
0
LINE
8
CUT
10
636.5855
20
256.5724
30
0.0
11
637.9973
21
255.6074
31
0.0
0
LINE
8
CUT
10
637.9973
20
255.6074
30
0.0
11
639.4091
21
254.6395
31
0.0
0
LINE
8
CUT
10
639.4091
20
254.6395
30
0.0
11
640.8209
21
253.6689
31
0.0
0
LINE
8
CUT
10
640.8209
20
253.6689
30
0.0
11
642.2327
21
252.6955
31
0.0
0
LINE
8
CUT
10
642.2327
20
252.6955
30
0.0
11
643.6445
21
251.7194
31
0.0
0
LINE
8
CUT
10
643.6445
20
251.7194
30
0.0
11
645.0564
21
250.7406
31
0.0
0
LINE
8
CUT
10
645.0564
20
250.7406
30
0.0
11
646.4682
21
249.7591
31
0.0
0
LINE
8
CUT
10
646.4682
20
249.7591
30
0.0
11
647.8800
21
248.7750
31
0.0
0
LINE
8
CUT
10
647.8800
20
248.7750
30
0.0
11
649.2918
21
247.7883
31
0.0
0
LINE
8
CUT
10
649.2918
20
247.7883
30
0.0
11
650.7036
21
246.7991
31
0.0
0
LINE
8
CUT
10
650.7036
20
246.7991
30
0.0
11
652.1155
21
245.8073
31
0.0
0
LINE
8
CUT
10
652.1155
20
245.8073
30
0.0
11
653.5273
21
244.8130
31
0.0
0
LINE
8
CUT
10
653.5273
20
244.8130
30
0.0
11
654.9391
21
243.8162
31
0.0
0
LINE
8
CUT
10
654.9391
20
243.8162
30
0.0
11
656.3509
21
242.8170
31
0.0
0
LINE
8
CUT
10
656.3509
20
242.8170
30
0.0
11
657.7627
21
241.8154
31
0.0
0
LINE
8
CUT
10
657.7627
20
241.8154
30
0.0
11
659.1745
21
240.8114
31
0.0
0
LINE
8
CUT
10
659.1745
20
240.8114
30
0.0
11
660.5864
21
239.8051
31
0.0
0
LINE
8
CUT
10
660.5864
20
239.8051
30
0.0
11
661.9982
21
238.7965
31
0.0
0
LINE
8
CUT
10
661.9982
20
238.7965
30
0.0
11
663.4100
21
237.7856
31
0.0
0
LINE
8
CUT
10
663.4100
20
237.7856
30
0.0
11
664.8218
21
236.7725
31
0.0
0
LINE
8
CUT
10
664.8218
20
236.7725
30
0.0
11
666.2336
21
235.7403
31
0.0
0
LINE
8
CUT
10
666.2336
20
235.7403
30
0.0
11
667.6455
21
234.6619
31
0.0
0
LINE
8
CUT
10
667.6455
20
234.6619
30
0.0
11
669.0573
21
233.5368
31
0.0
0
LINE
8
CUT
10
669.0573
20
233.5368
30
0.0
11
670.4691
21
232.3648
31
0.0
0
LINE
8
CUT
10
670.4691
20
232.3648
30
0.0
11
671.8809
21
231.1454
31
0.0
0
LINE
8
CUT
10
671.8809
20
231.1454
30
0.0
11
673.2927
21
229.8781
31
0.0
0
LINE
8
CUT
10
673.2927
20
229.8781
30
0.0
11
674.7045
21
228.5621
31
0.0
0
LINE
8
CUT
10
674.7045
20
228.5621
30
0.0
11
676.1164
21
227.1966
31
0.0
0
LINE
8
CUT
10
676.1164
20
227.1966
30
0.0
11
677.5282
21
225.7805
31
0.0
0
LINE
8
CUT
10
677.5282
20
225.7805
30
0.0
11
678.9400
21
224.3125
31
0.0
0
LINE
8
CUT
10
678.9400
20
224.3125
30
0.0
11
680.3518
21
222.7911
31
0.0
0
LINE
8
CUT
10
680.3518
20
222.7911
30
0.0
11
681.7636
21
221.2146
31
0.0
0
LINE
8
CUT
10
681.7636
20
221.2146
30
0.0
11
683.1755
21
219.5808
31
0.0
0
LINE
8
CUT
10
683.1755
20
219.5808
30
0.0
11
684.5873
21
217.8874
31
0.0
0
LINE
8
CUT
10
684.5873
20
217.8874
30
0.0
11
685.9991
21
216.1316
31
0.0
0
LINE
8
CUT
10
685.9991
20
216.1316
30
0.0
11
687.4109
21
214.3100
31
0.0
0
LINE
8
CUT
10
687.4109
20
214.3100
30
0.0
11
688.8227
21
212.4189
31
0.0
0
LINE
8
CUT
10
688.8227
20
212.4189
30
0.0
11
690.2345
21
210.4536
31
0.0
0
LINE
8
CUT
10
690.2345
20
210.4536
30
0.0
11
691.6464
21
208.4086
31
0.0
0
LINE
8
CUT
10
691.6464
20
208.4086
30
0.0
11
693.0582
21
206.2773
31
0.0
0
LINE
8
CUT
10
693.0582
20
206.2773
30
0.0
11
694.4700
21
204.0518
31
0.0
0
LINE
8
CUT
10
694.4700
20
204.0518
30
0.0
11
695.8818
21
201.7220
31
0.0
0
LINE
8
CUT
10
695.8818
20
201.7220
30
0.0
11
697.2936
21
199.2754
31
0.0
0
LINE
8
CUT
10
697.2936
20
199.2754
30
0.0
11
698.7055
21
196.6959
31
0.0
0
LINE
8
CUT
10
698.7055
20
196.6959
30
0.0
11
700.1173
21
193.9623
31
0.0
0
LINE
8
CUT
10
700.1173
20
193.9623
30
0.0
11
701.5291
21
191.0451
31
0.0
0
LINE
8
CUT
10
701.5291
20
191.0451
30
0.0
11
702.9409
21
187.9027
31
0.0
0
LINE
8
CUT
10
702.9409
20
187.9027
30
0.0
11
704.3527
21
184.4709
31
0.0
0
LINE
8
CUT
10
704.3527
20
184.4709
30
0.0
11
705.7645
21
180.6425
31
0.0
0
LINE
8
CUT
10
705.7645
20
180.6425
30
0.0
11
707.1764
21
176.2097
31
0.0
0
LINE
8
CUT
10
707.1764
20
176.2097
30
0.0
11
708.5882
21
170.6399
31
0.0
0
LINE
8
CUT
10
708.5882
20
170.6399
30
0.0
11
710.0000
21
158.3915
31
0.0
0
LINE
8
CUT
10
710.0000
20
158.3915
30
0.0
11
710.0000
21
129.8215
31
0.0
0
LINE
8
CUT
10
710.0000
20
129.8215
30
0.0
11
708.5882
21
117.5731
31
0.0
0
LINE
8
CUT
10
708.5882
20
117.5731
30
0.0
11
707.1764
21
112.0033
31
0.0
0
LINE
8
CUT
10
707.1764
20
112.0033
30
0.0
11
705.7645
21
107.5705
31
0.0
0
LINE
8
CUT
10
705.7645
20
107.5705
30
0.0
11
704.3527
21
103.7421
31
0.0
0
LINE
8
CUT
10
704.3527
20
103.7421
30
0.0
11
702.9409
21
100.3103
31
0.0
0
LINE
8
CUT
10
702.9409
20
100.3103
30
0.0
11
701.5291
21
97.1679
31
0.0
0
LINE
8
CUT
10
701.5291
20
97.1679
30
0.0
11
700.1173
21
94.2508
31
0.0
0
LINE
8
CUT
10
700.1173
20
94.2508
30
0.0
11
698.7055
21
91.5171
31
0.0
0
LINE
8
CUT
10
698.7055
20
91.5171
30
0.0
11
697.2936
21
88.9376
31
0.0
0
LINE
8
CUT
10
697.2936
20
88.9376
30
0.0
11
695.8818
21
86.4910
31
0.0
0
LINE
8
CUT
10
695.8818
20
86.4910
30
0.0
11
694.4700
21
84.1612
31
0.0
0
LINE
8
CUT
10
694.4700
20
84.1612
30
0.0
11
693.0582
21
81.9357
31
0.0
0
LINE
8
CUT
10
693.0582
20
81.9357
30
0.0
11
691.6464
21
79.8044
31
0.0
0
LINE
8
CUT
10
691.6464
20
79.8044
30
0.0
11
690.2345
21
77.7594
31
0.0
0
LINE
8
CUT
10
690.2345
20
77.7594
30
0.0
11
688.8227
21
75.7941
31
0.0
0
LINE
8
CUT
10
688.8227
20
75.7941
30
0.0
11
687.4109
21
73.9030
31
0.0
0
LINE
8
CUT
10
687.4109
20
73.9030
30
0.0
11
685.9991
21
72.0814
31
0.0
0
LINE
8
CUT
10
685.9991
20
72.0814
30
0.0
11
684.5873
21
70.3256
31
0.0
0
LINE
8
CUT
10
684.5873
20
70.3256
30
0.0
11
683.1755
21
68.6322
31
0.0
0
LINE
8
CUT
10
683.1755
20
68.6322
30
0.0
11
681.7636
21
66.9985
31
0.0
0
LINE
8
CUT
10
681.7636
20
66.9985
30
0.0
11
680.3518
21
65.4219
31
0.0
0
LINE
8
CUT
10
680.3518
20
65.4219
30
0.0
11
678.9400
21
63.9005
31
0.0
0
LINE
8
CUT
10
678.9400
20
63.9005
30
0.0
11
677.5282
21
62.4325
31
0.0
0
LINE
8
CUT
10
677.5282
20
62.4325
30
0.0
11
676.1164
21
61.0164
31
0.0
0
LINE
8
CUT
10
676.1164
20
61.0164
30
0.0
11
674.7045
21
59.6509
31
0.0
0
LINE
8
CUT
10
674.7045
20
59.6509
30
0.0
11
673.2927
21
58.3349
31
0.0
0
LINE
8
CUT
10
673.2927
20
58.3349
30
0.0
11
671.8809
21
57.0676
31
0.0
0
LINE
8
CUT
10
671.8809
20
57.0676
30
0.0
11
670.4691
21
55.8482
31
0.0
0
LINE
8
CUT
10
670.4691
20
55.8482
30
0.0
11
669.0573
21
54.6762
31
0.0
0
LINE
8
CUT
10
669.0573
20
54.6762
30
0.0
11
667.6455
21
53.5512
31
0.0
0
LINE
8
CUT
10
667.6455
20
53.5512
30
0.0
11
666.2336
21
52.4728
31
0.0
0
LINE
8
CUT
10
666.2336
20
52.4728
30
0.0
11
664.8218
21
51.4405
31
0.0
0
LINE
8
CUT
10
664.8218
20
51.4405
30
0.0
11
663.4100
21
50.4274
31
0.0
0
LINE
8
CUT
10
663.4100
20
50.4274
30
0.0
11
661.9982
21
49.4165
31
0.0
0
LINE
8
CUT
10
661.9982
20
49.4165
30
0.0
11
660.5864
21
48.4079
31
0.0
0
LINE
8
CUT
10
660.5864
20
48.4079
30
0.0
11
659.1745
21
47.4016
31
0.0
0
LINE
8
CUT
10
659.1745
20
47.4016
30
0.0
11
657.7627
21
46.3976
31
0.0
0
LINE
8
CUT
10
657.7627
20
46.3976
30
0.0
11
656.3509
21
45.3960
31
0.0
0
LINE
8
CUT
10
656.3509
20
45.3960
30
0.0
11
654.9391
21
44.3968
31
0.0
0
LINE
8
CUT
10
654.9391
20
44.3968
30
0.0
11
653.5273
21
43.4000
31
0.0
0
LINE
8
CUT
10
653.5273
20
43.4000
30
0.0
11
652.1155
21
42.4057
31
0.0
0
LINE
8
CUT
10
652.1155
20
42.4057
30
0.0
11
650.7036
21
41.4139
31
0.0
0
LINE
8
CUT
10
650.7036
20
41.4139
30
0.0
11
649.2918
21
40.4247
31
0.0
0
LINE
8
CUT
10
649.2918
20
40.4247
30
0.0
11
647.8800
21
39.4380
31
0.0
0
LINE
8
CUT
10
647.8800
20
39.4380
30
0.0
11
646.4682
21
38.4539
31
0.0
0
LINE
8
CUT
10
646.4682
20
38.4539
30
0.0
11
645.0564
21
37.4724
31
0.0
0
LINE
8
CUT
10
645.0564
20
37.4724
30
0.0
11
643.6445
21
36.4936
31
0.0
0
LINE
8
CUT
10
643.6445
20
36.4936
30
0.0
11
642.2327
21
35.5175
31
0.0
0
LINE
8
CUT
10
642.2327
20
35.5175
30
0.0
11
640.8209
21
34.5441
31
0.0
0
LINE
8
CUT
10
640.8209
20
34.5441
30
0.0
11
639.4091
21
33.5735
31
0.0
0
LINE
8
CUT
10
639.4091
20
33.5735
30
0.0
11
637.9973
21
32.6056
31
0.0
0
LINE
8
CUT
10
637.9973
20
32.6056
30
0.0
11
636.5855
21
31.6406
31
0.0
0
LINE
8
CUT
10
636.5855
20
31.6406
30
0.0
11
635.1736
21
30.6784
31
0.0
0
LINE
8
CUT
10
635.1736
20
30.6784
30
0.0
11
633.7618
21
29.7191
31
0.0
0
LINE
8
CUT
10
633.7618
20
29.7191
30
0.0
11
632.3500
21
28.7627
31
0.0
0
LINE
8
CUT
10
632.3500
20
28.7627
30
0.0
11
630.9382
21
27.8092
31
0.0
0
LINE
8
CUT
10
630.9382
20
27.8092
30
0.0
11
629.5264
21
26.8587
31
0.0
0
LINE
8
CUT
10
629.5264
20
26.8587
30
0.0
11
628.1145
21
25.9111
31
0.0
0
LINE
8
CUT
10
628.1145
20
25.9111
30
0.0
11
626.7027
21
24.9666
31
0.0
0
LINE
8
CUT
10
626.7027
20
24.9666
30
0.0
11
625.2909
21
24.0252
31
0.0
0
LINE
8
CUT
10
625.2909
20
24.0252
30
0.0
11
623.8791
21
23.0868
31
0.0
0
LINE
8
CUT
10
623.8791
20
23.0868
30
0.0
11
622.4673
21
22.1515
31
0.0
0
LINE
8
CUT
10
622.4673
20
22.1515
30
0.0
11
621.0555
21
21.2194
31
0.0
0
LINE
8
CUT
10
621.0555
20
21.2194
30
0.0
11
619.6436
21
20.2904
31
0.0
0
LINE
8
CUT
10
619.6436
20
20.2904
30
0.0
11
618.2318
21
19.3647
31
0.0
0
LINE
8
CUT
10
618.2318
20
19.3647
30
0.0
11
616.8200
21
18.4421
31
0.0
0
LINE
8
CUT
10
616.8200
20
18.4421
30
0.0
11
615.4082
21
17.5228
31
0.0
0
LINE
8
CUT
10
615.4082
20
17.5228
30
0.0
11
613.9964
21
16.6067
31
0.0
0
LINE
8
CUT
10
613.9964
20
16.6067
30
0.0
11
612.5845
21
15.6940
31
0.0
0
LINE
8
CUT
10
612.5845
20
15.6940
30
0.0
11
611.1727
21
14.7846
31
0.0
0
LINE
8
CUT
10
611.1727
20
14.7846
30
0.0
11
609.7609
21
13.8785
31
0.0
0
LINE
8
CUT
10
609.7609
20
13.8785
30
0.0
11
608.3491
21
12.9758
31
0.0
0
LINE
8
CUT
10
608.3491
20
12.9758
30
0.0
11
606.9373
21
12.0765
31
0.0
0
LINE
8
CUT
10
606.9373
20
12.0765
30
0.0
11
605.5255
21
11.1807
31
0.0
0
LINE
8
CUT
10
605.5255
20
11.1807
30
0.0
11
604.1136
21
10.2883
31
0.0
0
LINE
8
CUT
10
604.1136
20
10.2883
30
0.0
11
602.7018
21
9.3994
31
0.0
0
LINE
8
CUT
10
602.7018
20
9.3994
30
0.0
11
601.2900
21
8.5139
31
0.0
0
LINE
8
CUT
10
601.2900
20
8.5139
30
0.0
11
599.8782
21
7.6321
31
0.0
0
LINE
8
CUT
10
599.8782
20
7.6321
30
0.0
11
598.4664
21
6.7707
31
0.0
0
LINE
8
CUT
10
598.4664
20
6.7707
30
0.0
11
597.0545
21
5.9568
31
0.0
0
LINE
8
CUT
10
597.0545
20
5.9568
30
0.0
11
595.6427
21
5.1912
31
0.0
0
LINE
8
CUT
10
595.6427
20
5.1912
30
0.0
11
594.2309
21
4.4740
31
0.0
0
LINE
8
CUT
10
594.2309
20
4.4740
30
0.0
11
592.8191
21
3.8057
31
0.0
0
LINE
8
CUT
10
592.8191
20
3.8057
30
0.0
11
591.4073
21
3.1871
31
0.0
0
LINE
8
CUT
10
591.4073
20
3.1871
30
0.0
11
589.9955
21
2.6188
31
0.0
0
LINE
8
CUT
10
589.9955
20
2.6188
30
0.0
11
588.5836
21
2.1019
31
0.0
0
LINE
8
CUT
10
588.5836
20
2.1019
30
0.0
11
587.1718
21
1.6373
31
0.0
0
LINE
8
CUT
10
587.1718
20
1.6373
30
0.0
11
585.7600
21
1.2266
31
0.0
0
LINE
8
CUT
10
585.7600
20
1.2266
30
0.0
11
584.3482
21
0.8713
31
0.0
0
LINE
8
CUT
10
584.3482
20
0.8713
30
0.0
11
582.9364
21
0.5731
31
0.0
0
LINE
8
CUT
10
582.9364
20
0.5731
30
0.0
11
581.5245
21
0.3342
31
0.0
0
LINE
8
CUT
10
581.5245
20
0.3342
30
0.0
11
580.1127
21
0.1570
31
0.0
0
LINE
8
CUT
10
580.1127
20
0.1570
30
0.0
11
578.7009
21
0.0445
31
0.0
0
LINE
8
CUT
10
578.7009
20
0.0445
30
0.0
11
577.2891
21
0.0000
31
0.0
0
LINE
8
CUT
10
577.2891
20
0.0000
30
0.0
11
575.8773
21
0.0274
31
0.0
0
LINE
8
CUT
10
575.8773
20
0.0274
30
0.0
11
574.4655
21
0.1314
31
0.0
0
LINE
8
CUT
10
574.4655
20
0.1314
30
0.0
11
573.0536
21
0.3175
31
0.0
0
LINE
8
CUT
10
573.0536
20
0.3175
30
0.0
11
571.6418
21
0.5923
31
0.0
0
LINE
8
CUT
10
571.6418
20
0.5923
30
0.0
11
570.2300
21
0.9640
31
0.0
0
LINE
8
CUT
10
570.2300
20
0.9640
30
0.0
11
568.8182
21
1.4426
31
0.0
0
LINE
8
CUT
10
568.8182
20
1.4426
30
0.0
11
567.4064
21
2.0407
31
0.0
0
LINE
8
CUT
10
567.4064
20
2.0407
30
0.0
11
565.9945
21
2.7744
31
0.0
0
LINE
8
CUT
10
565.9945
20
2.7744
30
0.0
11
564.5827
21
3.6652
31
0.0
0
LINE
8
CUT
10
564.5827
20
3.6652
30
0.0
11
563.1709
21
4.7423
31
0.0
0
LINE
8
CUT
10
563.1709
20
4.7423
30
0.0
11
561.7591
21
6.0476
31
0.0
0
LINE
8
CUT
10
561.7591
20
6.0476
30
0.0
11
560.3473
21
7.6453
31
0.0
0
LINE
8
CUT
10
560.3473
20
7.6453
30
0.0
11
558.9355
21
9.6427
31
0.0
0
LINE
8
CUT
10
558.9355
20
9.6427
30
0.0
11
557.5236
21
12.2476
31
0.0
0
LINE
8
CUT
10
557.5236
20
12.2476
30
0.0
11
556.1118
21
15.9927
31
0.0
0
LINE
8
CUT
10
556.1118
20
15.9927
30
0.0
11
554.7000
21
26.4197
31
0.0
0
LINE
8
CUT
10
554.7000
20
26.4197
30
0.0
11
554.7000
21
261.7933
31
0.0
0
LINE
8
CUT
10
554.7000
20
261.7933
30
0.0
11
554.7000
21
261.7933
31
0.0
0
LINE
8
CUT
10
718.0000
20
226.1764
30
0.0
11
718.8364
21
235.4739
31
0.0
0
LINE
8
CUT
10
718.8364
20
235.4739
30
0.0
11
719.6727
21
239.6538
31
0.0
0
LINE
8
CUT
10
719.6727
20
239.6538
30
0.0
11
720.5091
21
242.9736
31
0.0
0
LINE
8
CUT
10
720.5091
20
242.9736
30
0.0
11
721.3455
21
245.8408
31
0.0
0
LINE
8
CUT
10
721.3455
20
245.8408
30
0.0
11
722.1818
21
248.4138
31
0.0
0
LINE
8
CUT
10
722.1818
20
248.4138
30
0.0
11
723.0182
21
250.7742
31
0.0
0
LINE
8
CUT
10
723.0182
20
250.7742
30
0.0
11
723.8545
21
252.9709
31
0.0
0
LINE
8
CUT
10
723.8545
20
252.9709
30
0.0
11
724.6909
21
255.0355
31
0.0
0
LINE
8
CUT
10
724.6909
20
255.0355
30
0.0
11
725.5273
21
256.9903
31
0.0
0
LINE
8
CUT
10
725.5273
20
256.9903
30
0.0
11
726.3636
21
258.8515
31
0.0
0
LINE
8
CUT
10
726.3636
20
258.8515
30
0.0
11
727.2000
21
260.6315
31
0.0
0
LINE
8
CUT
10
727.2000
20
260.6315
30
0.0
11
728.0364
21
262.3396
31
0.0
0
LINE
8
CUT
10
728.0364
20
262.3396
30
0.0
11
728.8727
21
263.9836
31
0.0
0
LINE
8
CUT
10
728.8727
20
263.9836
30
0.0
11
729.7091
21
265.5696
31
0.0
0
LINE
8
CUT
10
729.7091
20
265.5696
30
0.0
11
730.5455
21
267.1028
31
0.0
0
LINE
8
CUT
10
730.5455
20
267.1028
30
0.0
11
731.3818
21
268.5874
31
0.0
0
LINE
8
CUT
10
731.3818
20
268.5874
30
0.0
11
732.2182
21
270.0270
31
0.0
0
LINE
8
CUT
10
732.2182
20
270.0270
30
0.0
11
733.0545
21
271.4248
31
0.0
0
LINE
8
CUT
10
733.0545
20
271.4248
30
0.0
11
733.8909
21
272.7834
31
0.0
0
LINE
8
CUT
10
733.8909
20
272.7834
30
0.0
11
734.7273
21
274.1051
31
0.0
0
LINE
8
CUT
10
734.7273
20
274.1051
30
0.0
11
735.5636
21
275.3920
31
0.0
0
LINE
8
CUT
10
735.5636
20
275.3920
30
0.0
11
736.4000
21
276.6458
31
0.0
0
LINE
8
CUT
10
736.4000
20
276.6458
30
0.0
11
737.2364
21
277.8682
31
0.0
0
LINE
8
CUT
10
737.2364
20
277.8682
30
0.0
11
738.0727
21
279.0606
31
0.0
0
LINE
8
CUT
10
738.0727
20
279.0606
30
0.0
11
738.9091
21
280.2241
31
0.0
0
LINE
8
CUT
10
738.9091
20
280.2241
30
0.0
11
739.7455
21
281.5236
31
0.0
0
LINE
8
CUT
10
739.7455
20
281.5236
30
0.0
11
740.5818
21
282.6336
31
0.0
0
LINE
8
CUT
10
740.5818
20
282.6336
30
0.0
11
741.4182
21
283.7179
31
0.0
0
LINE
8
CUT
10
741.4182
20
283.7179
30
0.0
11
742.2545
21
284.7773
31
0.0
0
LINE
8
CUT
10
742.2545
20
284.7773
30
0.0
11
743.0909
21
285.8126
31
0.0
0
LINE
8
CUT
10
743.0909
20
285.8126
30
0.0
11
743.9273
21
286.8245
31
0.0
0
LINE
8
CUT
10
743.9273
20
286.8245
30
0.0
11
744.7636
21
287.8135
31
0.0
0
LINE
8
CUT
10
744.7636
20
287.8135
30
0.0
11
745.6000
21
288.7803
31
0.0
0
LINE
8
CUT
10
745.6000
20
288.7803
30
0.0
11
746.4364
21
289.7253
31
0.0
0
LINE
8
CUT
10
746.4364
20
289.7253
30
0.0
11
747.2727
21
290.6490
31
0.0
0
LINE
8
CUT
10
747.2727
20
290.6490
30
0.0
11
748.1091
21
291.5520
31
0.0
0
LINE
8
CUT
10
748.1091
20
291.5520
30
0.0
11
748.9455
21
292.4344
31
0.0
0
LINE
8
CUT
10
748.9455
20
292.4344
30
0.0
11
749.7818
21
293.2968
31
0.0
0
LINE
8
CUT
10
749.7818
20
293.2968
30
0.0
11
750.6182
21
294.1395
31
0.0
0
LINE
8
CUT
10
750.6182
20
294.1395
30
0.0
11
751.4545
21
294.9626
31
0.0
0
LINE
8
CUT
10
751.4545
20
294.9626
30
0.0
11
752.2909
21
295.7666
31
0.0
0
LINE
8
CUT
10
752.2909
20
295.7666
30
0.0
11
753.1273
21
296.5517
31
0.0
0
LINE
8
CUT
10
753.1273
20
296.5517
30
0.0
11
753.9636
21
297.3180
31
0.0
0
LINE
8
CUT
10
753.9636
20
297.3180
30
0.0
11
754.8000
21
298.0657
31
0.0
0
LINE
8
CUT
10
754.8000
20
298.0657
30
0.0
11
755.6364
21
298.7951
31
0.0
0
LINE
8
CUT
10
755.6364
20
298.7951
30
0.0
11
756.4727
21
299.5063
31
0.0
0
LINE
8
CUT
10
756.4727
20
299.5063
30
0.0
11
757.3091
21
300.1995
31
0.0
0
LINE
8
CUT
10
757.3091
20
300.1995
30
0.0
11
758.1455
21
300.8746
31
0.0
0
LINE
8
CUT
10
758.1455
20
300.8746
30
0.0
11
758.9818
21
301.5320
31
0.0
0
LINE
8
CUT
10
758.9818
20
301.5320
30
0.0
11
759.8182
21
302.1715
31
0.0
0
LINE
8
CUT
10
759.8182
20
302.1715
30
0.0
11
760.6545
21
302.7933
31
0.0
0
LINE
8
CUT
10
760.6545
20
302.7933
30
0.0
11
761.4909
21
303.3975
31
0.0
0
LINE
8
CUT
10
761.4909
20
303.3975
30
0.0
11
762.3273
21
303.9840
31
0.0
0
LINE
8
CUT
10
762.3273
20
303.9840
30
0.0
11
763.1636
21
304.5532
31
0.0
0
LINE
8
CUT
10
763.1636
20
304.5532
30
0.0
11
764.0000
21
305.1153
31
0.0
0
LINE
8
CUT
10
764.0000
20
305.1153
30
0.0
11
764.8364
21
305.6753
31
0.0
0
LINE
8
CUT
10
764.8364
20
305.6753
30
0.0
11
765.6727
21
306.2282
31
0.0
0
LINE
8
CUT
10
765.6727
20
306.2282
30
0.0
11
766.5091
21
306.7637
31
0.0
0
LINE
8
CUT
10
766.5091
20
306.7637
30
0.0
11
767.3455
21
307.2816
31
0.0
0
LINE
8
CUT
10
767.3455
20
307.2816
30
0.0
11
768.1818
21
307.7817
31
0.0
0
LINE
8
CUT
10
768.1818
20
307.7817
30
0.0
11
769.0182
21
308.2641
31
0.0
0
LINE
8
CUT
10
769.0182
20
308.2641
30
0.0
11
769.8545
21
308.7285
31
0.0
0
LINE
8
CUT
10
769.8545
20
308.7285
30
0.0
11
770.6909
21
309.1750
31
0.0
0
LINE
8
CUT
10
770.6909
20
309.1750
30
0.0
11
771.5273
21
309.6035
31
0.0
0
LINE
8
CUT
10
771.5273
20
309.6035
30
0.0
11
772.3636
21
310.0137
31
0.0
0
LINE
8
CUT
10
772.3636
20
310.0137
30
0.0
11
773.2000
21
310.4056
31
0.0
0
LINE
8
CUT
10
773.2000
20
310.4056
30
0.0
11
774.0364
21
310.7790
31
0.0
0
LINE
8
CUT
10
774.0364
20
310.7790
30
0.0
11
774.8727
21
311.1337
31
0.0
0
LINE
8
CUT
10
774.8727
20
311.1337
30
0.0
11
775.7091
21
311.4695
31
0.0
0
LINE
8
CUT
10
775.7091
20
311.4695
30
0.0
11
776.5455
21
311.7861
31
0.0
0
LINE
8
CUT
10
776.5455
20
311.7861
30
0.0
11
777.3818
21
312.0833
31
0.0
0
LINE
8
CUT
10
777.3818
20
312.0833
30
0.0
11
778.2182
21
312.3608
31
0.0
0
LINE
8
CUT
10
778.2182
20
312.3608
30
0.0
11
779.0545
21
312.6183
31
0.0
0
LINE
8
CUT
10
779.0545
20
312.6183
30
0.0
11
779.8909
21
312.8555
31
0.0
0
LINE
8
CUT
10
779.8909
20
312.8555
30
0.0
11
780.7273
21
313.0719
31
0.0
0
LINE
8
CUT
10
780.7273
20
313.0719
30
0.0
11
781.5636
21
313.2672
31
0.0
0
LINE
8
CUT
10
781.5636
20
313.2672
30
0.0
11
782.4000
21
313.4410
31
0.0
0
LINE
8
CUT
10
782.4000
20
313.4410
30
0.0
11
783.2364
21
313.5927
31
0.0
0
LINE
8
CUT
10
783.2364
20
313.5927
30
0.0
11
784.0727
21
313.7218
31
0.0
0
LINE
8
CUT
10
784.0727
20
313.7218
30
0.0
11
784.9091
21
313.8277
31
0.0
0
LINE
8
CUT
10
784.9091
20
313.8277
30
0.0
11
785.7455
21
313.9099
31
0.0
0
LINE
8
CUT
10
785.7455
20
313.9099
30
0.0
11
786.5818
21
313.9675
31
0.0
0
LINE
8
CUT
10
786.5818
20
313.9675
30
0.0
11
787.4182
21
313.9998
31
0.0
0
LINE
8
CUT
10
787.4182
20
313.9998
30
0.0
11
788.2545
21
314.0060
31
0.0
0
LINE
8
CUT
10
788.2545
20
314.0060
30
0.0
11
789.0909
21
313.9852
31
0.0
0
LINE
8
CUT
10
789.0909
20
313.9852
30
0.0
11
789.9273
21
313.9363
31
0.0
0
LINE
8
CUT
10
789.9273
20
313.9363
30
0.0
11
790.7636
21
313.8581
31
0.0
0
LINE
8
CUT
10
790.7636
20
313.8581
30
0.0
11
791.6000
21
313.7494
31
0.0
0
LINE
8
CUT
10
791.6000
20
313.7494
30
0.0
11
792.4364
21
313.6088
31
0.0
0
LINE
8
CUT
10
792.4364
20
313.6088
30
0.0
11
793.2727
21
313.4347
31
0.0
0
LINE
8
CUT
10
793.2727
20
313.4347
30
0.0
11
794.1091
21
313.2252
31
0.0
0
LINE
8
CUT
10
794.1091
20
313.2252
30
0.0
11
794.9455
21
312.9783
31
0.0
0
LINE
8
CUT
10
794.9455
20
312.9783
30
0.0
11
795.7818
21
312.6917
31
0.0
0
LINE
8
CUT
10
795.7818
20
312.6917
30
0.0
11
796.6182
21
312.3626
31
0.0
0
LINE
8
CUT
10
796.6182
20
312.3626
30
0.0
11
797.4545
21
311.9881
31
0.0
0
LINE
8
CUT
10
797.4545
20
311.9881
30
0.0
11
798.2909
21
311.5644
31
0.0
0
LINE
8
CUT
10
798.2909
20
311.5644
30
0.0
11
799.1273
21
311.0872
31
0.0
0
LINE
8
CUT
10
799.1273
20
311.0872
30
0.0
11
799.9636
21
310.5515
31
0.0
0
LINE
8
CUT
10
799.9636
20
310.5515
30
0.0
11
800.8000
21
309.9510
31
0.0
0
LINE
8
CUT
10
800.8000
20
309.9510
30
0.0
11
801.6364
21
309.2781
31
0.0
0
LINE
8
CUT
10
801.6364
20
309.2781
30
0.0
11
802.4727
21
308.5232
31
0.0
0
LINE
8
CUT
10
802.4727
20
308.5232
30
0.0
11
803.3091
21
307.6740
31
0.0
0
LINE
8
CUT
10
803.3091
20
307.6740
30
0.0
11
804.1455
21
306.7143
31
0.0
0
LINE
8
CUT
10
804.1455
20
306.7143
30
0.0
11
804.9818
21
305.8379
31
0.0
0
LINE
8
CUT
10
804.9818
20
305.8379
30
0.0
11
805.8182
21
304.5816
31
0.0
0
LINE
8
CUT
10
805.8182
20
304.5816
30
0.0
11
806.6545
21
305.2825
31
0.0
0
LINE
8
CUT
10
806.6545
20
305.2825
30
0.0
11
807.4909
21
303.5236
31
0.0
0
LINE
8
CUT
10
807.4909
20
303.5236
30
0.0
11
808.3273
21
301.3111
31
0.0
0
LINE
8
CUT
10
808.3273
20
301.3111
30
0.0
11
809.1636
21
298.2378
31
0.0
0
LINE
8
CUT
10
809.1636
20
298.2378
30
0.0
11
810.0000
21
290.0461
31
0.0
0
LINE
8
CUT
10
810.0000
20
290.0461
30
0.0
11
810.0000
21
23.9600
31
0.0
0
LINE
8
CUT
10
810.0000
20
23.9600
30
0.0
11
809.1636
21
15.7682
31
0.0
0
LINE
8
CUT
10
809.1636
20
15.7682
30
0.0
11
808.3273
21
12.6949
31
0.0
0
LINE
8
CUT
10
808.3273
20
12.6949
30
0.0
11
807.4909
21
10.4825
31
0.0
0
LINE
8
CUT
10
807.4909
20
10.4825
30
0.0
11
806.6545
21
8.7235
31
0.0
0
LINE
8
CUT
10
806.6545
20
8.7235
30
0.0
11
805.8182
21
9.4245
31
0.0
0
LINE
8
CUT
10
805.8182
20
9.4245
30
0.0
11
804.9818
21
8.1681
31
0.0
0
LINE
8
CUT
10
804.9818
20
8.1681
30
0.0
11
804.1455
21
7.2917
31
0.0
0
LINE
8
CUT
10
804.1455
20
7.2917
30
0.0
11
803.3091
21
6.3320
31
0.0
0
LINE
8
CUT
10
803.3091
20
6.3320
30
0.0
11
802.4727
21
5.4829
31
0.0
0
LINE
8
CUT
10
802.4727
20
5.4829
30
0.0
11
801.6364
21
4.7280
31
0.0
0
LINE
8
CUT
10
801.6364
20
4.7280
30
0.0
11
800.8000
21
4.0550
31
0.0
0
LINE
8
CUT
10
800.8000
20
4.0550
30
0.0
11
799.9636
21
3.4545
31
0.0
0
LINE
8
CUT
10
799.9636
20
3.4545
30
0.0
11
799.1273
21
2.9188
31
0.0
0
LINE
8
CUT
10
799.1273
20
2.9188
30
0.0
11
798.2909
21
2.4416
31
0.0
0
LINE
8
CUT
10
798.2909
20
2.4416
30
0.0
11
797.4545
21
2.0179
31
0.0
0
LINE
8
CUT
10
797.4545
20
2.0179
30
0.0
11
796.6182
21
1.6434
31
0.0
0
LINE
8
CUT
10
796.6182
20
1.6434
30
0.0
11
795.7818
21
1.3144
31
0.0
0
LINE
8
CUT
10
795.7818
20
1.3144
30
0.0
11
794.9455
21
1.0277
31
0.0
0
LINE
8
CUT
10
794.9455
20
1.0277
30
0.0
11
794.1091
21
0.7809
31
0.0
0
LINE
8
CUT
10
794.1091
20
0.7809
30
0.0
11
793.2727
21
0.5714
31
0.0
0
LINE
8
CUT
10
793.2727
20
0.5714
30
0.0
11
792.4364
21
0.3972
31
0.0
0
LINE
8
CUT
10
792.4364
20
0.3972
30
0.0
11
791.6000
21
0.2566
31
0.0
0
LINE
8
CUT
10
791.6000
20
0.2566
30
0.0
11
790.7636
21
0.1479
31
0.0
0
LINE
8
CUT
10
790.7636
20
0.1479
30
0.0
11
789.9273
21
0.0698
31
0.0
0
LINE
8
CUT
10
789.9273
20
0.0698
30
0.0
11
789.0909
21
0.0208
31
0.0
0
LINE
8
CUT
10
789.0909
20
0.0208
30
0.0
11
788.2545
21
0.0000
31
0.0
0
LINE
8
CUT
10
788.2545
20
0.0000
30
0.0
11
787.4182
21
0.0062
31
0.0
0
LINE
8
CUT
10
787.4182
20
0.0062
30
0.0
11
786.5818
21
0.0386
31
0.0
0
LINE
8
CUT
10
786.5818
20
0.0386
30
0.0
11
785.7455
21
0.0962
31
0.0
0
LINE
8
CUT
10
785.7455
20
0.0962
30
0.0
11
784.9091
21
0.1783
31
0.0
0
LINE
8
CUT
10
784.9091
20
0.1783
30
0.0
11
784.0727
21
0.2842
31
0.0
0
LINE
8
CUT
10
784.0727
20
0.2842
30
0.0
11
783.2364
21
0.4134
31
0.0
0
LINE
8
CUT
10
783.2364
20
0.4134
30
0.0
11
782.4000
21
0.5651
31
0.0
0
LINE
8
CUT
10
782.4000
20
0.5651
30
0.0
11
781.5636
21
0.7388
31
0.0
0
LINE
8
CUT
10
781.5636
20
0.7388
30
0.0
11
780.7273
21
0.9341
31
0.0
0
LINE
8
CUT
10
780.7273
20
0.9341
30
0.0
11
779.8909
21
1.1506
31
0.0
0
LINE
8
CUT
10
779.8909
20
1.1506
30
0.0
11
779.0545
21
1.3877
31
0.0
0
LINE
8
CUT
10
779.0545
20
1.3877
30
0.0
11
778.2182
21
1.6453
31
0.0
0
LINE
8
CUT
10
778.2182
20
1.6453
30
0.0
11
777.3818
21
1.9228
31
0.0
0
LINE
8
CUT
10
777.3818
20
1.9228
30
0.0
11
776.5455
21
2.2200
31
0.0
0
LINE
8
CUT
10
776.5455
20
2.2200
30
0.0
11
775.7091
21
2.5366
31
0.0
0
LINE
8
CUT
10
775.7091
20
2.5366
30
0.0
11
774.8727
21
2.8723
31
0.0
0
LINE
8
CUT
10
774.8727
20
2.8723
30
0.0
11
774.0364
21
3.2270
31
0.0
0
LINE
8
CUT
10
774.0364
20
3.2270
30
0.0
11
773.2000
21
3.6004
31
0.0
0
LINE
8
CUT
10
773.2000
20
3.6004
30
0.0
11
772.3636
21
3.9923
31
0.0
0
LINE
8
CUT
10
772.3636
20
3.9923
30
0.0
11
771.5273
21
4.4025
31
0.0
0
LINE
8
CUT
10
771.5273
20
4.4025
30
0.0
11
770.6909
21
4.8310
31
0.0
0
LINE
8
CUT
10
770.6909
20
4.8310
30
0.0
11
769.8545
21
5.2775
31
0.0
0
LINE
8
CUT
10
769.8545
20
5.2775
30
0.0
11
769.0182
21
5.7420
31
0.0
0
LINE
8
CUT
10
769.0182
20
5.7420
30
0.0
11
768.1818
21
6.2243
31
0.0
0
LINE
8
CUT
10
768.1818
20
6.2243
30
0.0
11
767.3455
21
6.7244
31
0.0
0
LINE
8
CUT
10
767.3455
20
6.7244
30
0.0
11
766.5091
21
7.2423
31
0.0
0
LINE
8
CUT
10
766.5091
20
7.2423
30
0.0
11
765.6727
21
7.7778
31
0.0
0
LINE
8
CUT
10
765.6727
20
7.7778
30
0.0
11
764.8364
21
8.3307
31
0.0
0
LINE
8
CUT
10
764.8364
20
8.3307
30
0.0
11
764.0000
21
8.8907
31
0.0
0
LINE
8
CUT
10
764.0000
20
8.8907
30
0.0
11
763.1636
21
9.4528
31
0.0
0
LINE
8
CUT
10
763.1636
20
9.4528
30
0.0
11
762.3273
21
10.0220
31
0.0
0
LINE
8
CUT
10
762.3273
20
10.0220
30
0.0
11
761.4909
21
10.6085
31
0.0
0
LINE
8
CUT
10
761.4909
20
10.6085
30
0.0
11
760.6545
21
11.2127
31
0.0
0
LINE
8
CUT
10
760.6545
20
11.2127
30
0.0
11
759.8182
21
11.8345
31
0.0
0
LINE
8
CUT
10
759.8182
20
11.8345
30
0.0
11
758.9818
21
12.4741
31
0.0
0
LINE
8
CUT
10
758.9818
20
12.4741
30
0.0
11
758.1455
21
13.1314
31
0.0
0
LINE
8
CUT
10
758.1455
20
13.1314
30
0.0
11
757.3091
21
13.8066
31
0.0
0
LINE
8
CUT
10
757.3091
20
13.8066
30
0.0
11
756.4727
21
14.4997
31
0.0
0
LINE
8
CUT
10
756.4727
20
14.4997
30
0.0
11
755.6364
21
15.2109
31
0.0
0
LINE
8
CUT
10
755.6364
20
15.2109
30
0.0
11
754.8000
21
15.9403
31
0.0
0
LINE
8
CUT
10
754.8000
20
15.9403
30
0.0
11
753.9636
21
16.6881
31
0.0
0
LINE
8
CUT
10
753.9636
20
16.6881
30
0.0
11
753.1273
21
17.4544
31
0.0
0
LINE
8
CUT
10
753.1273
20
17.4544
30
0.0
11
752.2909
21
18.2394
31
0.0
0
LINE
8
CUT
10
752.2909
20
18.2394
30
0.0
11
751.4545
21
19.0434
31
0.0
0
LINE
8
CUT
10
751.4545
20
19.0434
30
0.0
11
750.6182
21
19.8666
31
0.0
0
LINE
8
CUT
10
750.6182
20
19.8666
30
0.0
11
749.7818
21
20.7092
31
0.0
0
LINE
8
CUT
10
749.7818
20
20.7092
30
0.0
11
748.9455
21
21.5716
31
0.0
0
LINE
8
CUT
10
748.9455
20
21.5716
30
0.0
11
748.1091
21
22.4541
31
0.0
0
LINE
8
CUT
10
748.1091
20
22.4541
30
0.0
11
747.2727
21
23.3570
31
0.0
0
LINE
8
CUT
10
747.2727
20
23.3570
30
0.0
11
746.4364
21
24.2807
31
0.0
0
LINE
8
CUT
10
746.4364
20
24.2807
30
0.0
11
745.6000
21
25.2258
31
0.0
0
LINE
8
CUT
10
745.6000
20
25.2258
30
0.0
11
744.7636
21
26.1925
31
0.0
0
LINE
8
CUT
10
744.7636
20
26.1925
30
0.0
11
743.9273
21
27.1815
31
0.0
0
LINE
8
CUT
10
743.9273
20
27.1815
30
0.0
11
743.0909
21
28.1934
31
0.0
0
LINE
8
CUT
10
743.0909
20
28.1934
30
0.0
11
742.2545
21
29.2287
31
0.0
0
LINE
8
CUT
10
742.2545
20
29.2287
30
0.0
11
741.4182
21
30.2881
31
0.0
0
LINE
8
CUT
10
741.4182
20
30.2881
30
0.0
11
740.5818
21
31.3724
31
0.0
0
LINE
8
CUT
10
740.5818
20
31.3724
30
0.0
11
739.7455
21
32.4825
31
0.0
0
LINE
8
CUT
10
739.7455
20
32.4825
30
0.0
11
738.9091
21
33.7819
31
0.0
0
LINE
8
CUT
10
738.9091
20
33.7819
30
0.0
11
738.0727
21
34.9455
31
0.0
0
LINE
8
CUT
10
738.0727
20
34.9455
30
0.0
11
737.2364
21
36.1378
31
0.0
0
LINE
8
CUT
10
737.2364
20
36.1378
30
0.0
11
736.4000
21
37.3602
31
0.0
0
LINE
8
CUT
10
736.4000
20
37.3602
30
0.0
11
735.5636
21
38.6140
31
0.0
0
LINE
8
CUT
10
735.5636
20
38.6140
30
0.0
11
734.7273
21
39.9009
31
0.0
0
LINE
8
CUT
10
734.7273
20
39.9009
30
0.0
11
733.8909
21
41.2227
31
0.0
0
LINE
8
CUT
10
733.8909
20
41.2227
30
0.0
11
733.0545
21
42.5812
31
0.0
0
LINE
8
CUT
10
733.0545
20
42.5812
30
0.0
11
732.2182
21
43.9790
31
0.0
0
LINE
8
CUT
10
732.2182
20
43.9790
30
0.0
11
731.3818
21
45.4187
31
0.0
0
LINE
8
CUT
10
731.3818
20
45.4187
30
0.0
11
730.5455
21
46.9033
31
0.0
0
LINE
8
CUT
10
730.5455
20
46.9033
30
0.0
11
729.7091
21
48.4364
31
0.0
0
LINE
8
CUT
10
729.7091
20
48.4364
30
0.0
11
728.8727
21
50.0225
31
0.0
0
LINE
8
CUT
10
728.8727
20
50.0225
30
0.0
11
728.0364
21
51.6664
31
0.0
0
LINE
8
CUT
10
728.0364
20
51.6664
30
0.0
11
727.2000
21
53.3746
31
0.0
0
LINE
8
CUT
10
727.2000
20
53.3746
30
0.0
11
726.3636
21
55.1545
31
0.0
0
LINE
8
CUT
10
726.3636
20
55.1545
30
0.0
11
725.5273
21
57.0157
31
0.0
0
LINE
8
CUT
10
725.5273
20
57.0157
30
0.0
11
724.6909
21
58.9705
31
0.0
0
LINE
8
CUT
10
724.6909
20
58.9705
30
0.0
11
723.8545
21
61.0352
31
0.0
0
LINE
8
CUT
10
723.8545
20
61.0352
30
0.0
11
723.0182
21
63.2318
31
0.0
0
LINE
8
CUT
10
723.0182
20
63.2318
30
0.0
11
722.1818
21
65.5923
31
0.0
0
LINE
8
CUT
10
722.1818
20
65.5923
30
0.0
11
721.3455
21
68.1653
31
0.0
0
LINE
8
CUT
10
721.3455
20
68.1653
30
0.0
11
720.5091
21
71.0324
31
0.0
0
LINE
8
CUT
10
720.5091
20
71.0324
30
0.0
11
719.6727
21
74.3523
31
0.0
0
LINE
8
CUT
10
719.6727
20
74.3523
30
0.0
11
718.8364
21
78.5321
31
0.0
0
LINE
8
CUT
10
718.8364
20
78.5321
30
0.0
11
718.0000
21
87.8296
31
0.0
0
LINE
8
CUT
10
718.0000
20
87.8296
30
0.0
11
718.0000
21
226.1764
31
0.0
0
LINE
8
CUT
10
718.0000
20
226.1764
30
0.0
11
718.0000
21
226.1764
31
0.0
0
ENDSEC
0
EOF
