0
SECTION
2
ENTITIES
0
LINE
8
CHANNEL
10
0.0000
20
0.0000
30
0.0
11
2400.0000
21
0.0000
31
0.0
0
LINE
8
CHANNEL
10
2400.0000
20
0.0000
30
0.0
11
2400.0000
21
600.0000
31
0.0
0
LINE
8
CHANNEL
10
2400.0000
20
600.0000
30
0.0
11
0.0000
21
600.0000
31
0.0
0
LINE
8
CHANNEL
10
0.0000
20
600.0000
30
0.0
11
0.0000
21
0.0000
31
0.0
0
LINE
8
CHANNEL
10
0.0000
20
0.0000
30
0.0
11
0.0000
21
0.0000
31
0.0
0
LINE
8
CUT
10
0.0000
20
339.7499
30
0.0
11
9.8889
21
347.6296
31
0.0
0
LINE
8
CUT
10
9.8889
20
347.6296
30
0.0
11
19.7778
21
355.3255
31
0.0
0
LINE
8
CUT
10
19.7778
20
355.3255
30
0.0
11
29.6667
21
361.3880
31
0.0
0
LINE
8
CUT
10
29.6667
20
361.3880
30
0.0
11
39.5556
21
368.6262
31
0.0
0
LINE
8
CUT
10
39.5556
20
368.6262
30
0.0
11
49.4444
21
375.6536
31
0.0
0
LINE
8
CUT
10
49.4444
20
375.6536
30
0.0
11
59.3333
21
382.4602
31
0.0
0
LINE
8
CUT
10
59.3333
20
382.4602
30
0.0
11
69.2222
21
389.0358
31
0.0
0
LINE
8
CUT
10
69.2222
20
389.0358
30
0.0
11
79.1111
21
395.3703
31
0.0
0
LINE
8
CUT
10
79.1111
20
395.3703
30
0.0
11
89.0000
21
399.7060
31
0.0
0
LINE
8
CUT
10
89.0000
20
399.7060
30
0.0
11
98.8889
21
405.4884
31
0.0
0
LINE
8
CUT
10
98.8889
20
405.4884
30
0.0
11
108.7778
21
411.0049
31
0.0
0
LINE
8
CUT
10
108.7778
20
411.0049
30
0.0
11
118.6667
21
414.3922
31
0.0
0
LINE
8
CUT
10
118.6667
20
414.3922
30
0.0
11
128.5556
21
419.3771
31
0.0
0
LINE
8
CUT
10
128.5556
20
419.3771
30
0.0
11
138.4444
21
422.1297
31
0.0
0
LINE
8
CUT
10
138.4444
20
422.1297
30
0.0
11
148.3333
21
426.6194
31
0.0
0
LINE
8
CUT
10
148.3333
20
426.6194
30
0.0
11
158.2222
21
428.7199
31
0.0
0
LINE
8
CUT
10
158.2222
20
428.7199
30
0.0
11
168.1111
21
432.6413
31
0.0
0
LINE
8
CUT
10
168.1111
20
432.6413
30
0.0
11
178.0000
21
434.0293
31
0.0
0
LINE
8
CUT
10
178.0000
20
434.0293
30
0.0
11
187.8889
21
437.2610
31
0.0
0
LINE
8
CUT
10
187.8889
20
437.2610
30
0.0
11
197.7778
21
437.8649
31
0.0
0
LINE
8
CUT
10
197.7778
20
437.8649
30
0.0
11
207.6667
21
440.3680
31
0.0
0
LINE
8
CUT
10
207.6667
20
440.3680
30
0.0
11
217.5556
21
440.2479
31
0.0
0
LINE
8
CUT
10
217.5556
20
440.2479
30
0.0
11
227.4444
21
440.1543
31
0.0
0
LINE
8
CUT
10
227.4444
20
440.1543
30
0.0
11
237.3333
21
442.3749
31
0.0
0
LINE
8
CUT
10
237.3333
20
442.3749
30
0.0
11
247.2222
21
442.2683
31
0.0
0
LINE
8
CUT
10
247.2222
20
442.2683
30
0.0
11
257.1111
21
442.1810
31
0.0
0
LINE
8
CUT
10
257.1111
20
442.1810
30
0.0
11
267.0000
21
442.1201
31
0.0
0
LINE
8
CUT
10
267.0000
20
442.1201
30
0.0
11
276.8889
21
444.3507
31
0.0
0
LINE
8
CUT
10
276.8889
20
444.3507
30
0.0
11
286.7778
21
444.2732
31
0.0
0
LINE
8
CUT
10
286.7778
20
444.2732
30
0.0
11
296.6667
21
444.2016
31
0.0
0
LINE
8
CUT
10
296.6667
20
444.2016
30
0.0
11
306.5556
21
444.1569
31
0.0
0
LINE
8
CUT
10
306.5556
20
444.1569
30
0.0
11
316.4444
21
444.1183
31
0.0
0
LINE
8
CUT
10
316.4444
20
444.1183
30
0.0
11
326.3333
21
446.3799
31
0.0
0
LINE
8
CUT
10
326.3333
20
446.3799
30
0.0
11
336.2222
21
446.3316
31
0.0
0
LINE
8
CUT
10
336.2222
20
446.3316
30
0.0
11
346.1111
21
446.2902
31
0.0
0
LINE
8
CUT
10
346.1111
20
446.2902
30
0.0
11
356.0000
21
446.2549
31
0.0
0
LINE
8
CUT
10
356.0000
20
446.2549
30
0.0
11
365.8889
21
446.2235
31
0.0
0
LINE
8
CUT
10
365.8889
20
446.2235
30
0.0
11
375.7778
21
446.1963
31
0.0
0
LINE
8
CUT
10
375.7778
20
446.1963
30
0.0
11
385.6667
21
446.1810
31
0.0
0
LINE
8
CUT
10
385.6667
20
446.1810
30
0.0
11
395.5556
21
446.1692
31
0.0
0
LINE
8
CUT
10
395.5556
20
446.1692
30
0.0
11
405.4444
21
446.1604
31
0.0
0
LINE
8
CUT
10
405.4444
20
446.1604
30
0.0
11
415.3333
21
446.1542
31
0.0
0
LINE
8
CUT
10
415.3333
20
446.1542
30
0.0
11
425.2222
21
446.1505
31
0.0
0
LINE
8
CUT
10
425.2222
20
446.1505
30
0.0
11
435.1111
21
446.1488
31
0.0
0
LINE
8
CUT
10
435.1111
20
446.1488
30
0.0
11
445.0000
21
446.1489
31
0.0
0
LINE
8
CUT
10
445.0000
20
446.1489
30
0.0
11
454.8889
21
446.1545
31
0.0
0
LINE
8
CUT
10
454.8889
20
446.1545
30
0.0
11
464.7778
21
446.1664
31
0.0
0
LINE
8
CUT
10
464.7778
20
446.1664
30
0.0
11
474.6667
21
446.1844
31
0.0
0
LINE
8
CUT
10
474.6667
20
446.1844
30
0.0
11
484.5556
21
446.2150
31
0.0
0
LINE
8
CUT
10
484.5556
20
446.2150
30
0.0
11
494.4444
21
446.2580
31
0.0
0
LINE
8
CUT
10
494.4444
20
446.2580
30
0.0
11
504.3333
21
446.3076
31
0.0
0
LINE
8
CUT
10
504.3333
20
446.3076
30
0.0
11
514.2222
21
446.3671
31
0.0
0
LINE
8
CUT
10
514.2222
20
446.3671
30
0.0
11
524.1111
21
444.1193
31
0.0
0
LINE
8
CUT
10
524.1111
20
444.1193
30
0.0
11
534.0000
21
444.1687
31
0.0
0
LINE
8
CUT
10
534.0000
20
444.1687
30
0.0
11
543.8889
21
444.2368
31
0.0
0
LINE
8
CUT
10
543.8889
20
444.2368
30
0.0
11
553.7778
21
444.3041
31
0.0
0
LINE
8
CUT
10
553.7778
20
444.3041
30
0.0
11
563.6667
21
441.8523
31
0.0
0
LINE
8
CUT
10
563.6667
20
441.8523
30
0.0
11
573.5556
21
441.4069
31
0.0
0
LINE
8
CUT
10
573.5556
20
441.4069
30
0.0
11
583.4444
21
440.6953
31
0.0
0
LINE
8
CUT
10
583.4444
20
440.6953
30
0.0
11
593.3333
21
439.7182
31
0.0
0
LINE
8
CUT
10
593.3333
20
439.7182
30
0.0
11
603.2222
21
436.2661
31
0.0
0
LINE
8
CUT
10
603.2222
20
436.2661
30
0.0
11
613.1111
21
434.7660
31
0.0
0
LINE
8
CUT
10
613.1111
20
434.7660
30
0.0
11
623.0000
21
430.9651
31
0.0
0
LINE
8
CUT
10
623.0000
20
430.9651
30
0.0
11
632.8889
21
429.0144
31
0.0
0
LINE
8
CUT
10
632.8889
20
429.0144
30
0.0
11
642.7778
21
426.8104
31
0.0
0
LINE
8
CUT
10
642.7778
20
426.8104
30
0.0
11
652.6667
21
422.4815
31
0.0
0
LINE
8
CUT
10
652.6667
20
422.4815
30
0.0
11
662.5556
21
419.8712
31
0.0
0
LINE
8
CUT
10
662.5556
20
419.8712
30
0.0
11
672.4444
21
415.2166
31
0.0
0
LINE
8
CUT
10
672.4444
20
415.2166
30
0.0
11
682.3333
21
412.1936
31
0.0
0
LINE
8
CUT
10
682.3333
20
412.1936
30
0.0
11
692.2222
21
407.1693
31
0.0
0
LINE
8
CUT
10
692.2222
20
407.1693
30
0.0
11
702.1111
21
401.9770
31
0.0
0
LINE
8
CUT
10
702.1111
20
401.9770
30
0.0
11
712.0000
21
398.3237
31
0.0
0
LINE
8
CUT
10
712.0000
20
398.3237
30
0.0
11
721.8889
21
392.7778
31
0.0
0
LINE
8
CUT
10
721.8889
20
392.7778
30
0.0
11
731.7778
21
388.7044
31
0.0
0
LINE
8
CUT
10
731.7778
20
388.7044
30
0.0
11
741.6667
21
382.8227
31
0.0
0
LINE
8
CUT
10
741.6667
20
382.8227
30
0.0
11
751.5556
21
376.8019
31
0.0
0
LINE
8
CUT
10
751.5556
20
376.8019
30
0.0
11
761.4444
21
370.6489
31
0.0
0
LINE
8
CUT
10
761.4444
20
370.6489
30
0.0
11
771.3333
21
365.8110
31
0.0
0
LINE
8
CUT
10
771.3333
20
365.8110
30
0.0
11
781.2222
21
359.3624
31
0.0
0
LINE
8
CUT
10
781.2222
20
359.3624
30
0.0
11
791.1111
21
352.7994
31
0.0
0
LINE
8
CUT
10
791.1111
20
352.7994
30
0.0
11
801.0000
21
346.1286
31
0.0
0
LINE
8
CUT
10
801.0000
20
346.1286
30
0.0
11
810.8889
21
339.3569
31
0.0
0
LINE
8
CUT
10
810.8889
20
339.3569
30
0.0
11
820.7778
21
333.6536
31
0.0
0
LINE
8
CUT
10
820.7778
20
333.6536
30
0.0
11
830.6667
21
326.6376
31
0.0
0
LINE
8
CUT
10
830.6667
20
326.6376
30
0.0
11
840.5556
21
319.5385
31
0.0
0
LINE
8
CUT
10
840.5556
20
319.5385
30
0.0
11
850.4444
21
312.3629
31
0.0
0
LINE
8
CUT
10
850.4444
20
312.3629
30
0.0
11
860.3333
21
305.1175
31
0.0
0
LINE
8
CUT
10
860.3333
20
305.1175
30
0.0
11
870.2222
21
297.8091
31
0.0
0
LINE
8
CUT
10
870.2222
20
297.8091
30
0.0
11
880.1111
21
290.4444
31
0.0
0
LINE
8
CUT
10
880.1111
20
290.4444
30
0.0
11
890.0000
21
283.0299
31
0.0
0
LINE
8
CUT
10
890.0000
20
283.0299
30
0.0
11
890.0000
21
163.3499
31
0.0
0
LINE
8
CUT
10
890.0000
20
163.3499
30
0.0
11
880.1111
21
155.9355
31
0.0
0
LINE
8
CUT
10
880.1111
20
155.9355
30
0.0
11
870.2222
21
148.5708
31
0.0
0
LINE
8
CUT
10
870.2222
20
148.5708
30
0.0
11
860.3333
21
141.2623
31
0.0
0
LINE
8
CUT
10
860.3333
20
141.2623
30
0.0
11
850.4444
21
134.0170
31
0.0
0
LINE
8
CUT
10
850.4444
20
134.0170
30
0.0
11
840.5556
21
126.8414
31
0.0
0
LINE
8
CUT
10
840.5556
20
126.8414
30
0.0
11
830.6667
21
119.7423
31
0.0
0
LINE
8
CUT
10
830.6667
20
119.7423
30
0.0
11
820.7778
21
112.7263
31
0.0
0
LINE
8
CUT
10
820.7778
20
112.7263
30
0.0
11
810.8889
21
107.0230
31
0.0
0
LINE
8
CUT
10
810.8889
20
107.0230
30
0.0
11
801.0000
21
100.2512
31
0.0
0
LINE
8
CUT
10
801.0000
20
100.2512
30
0.0
11
791.1111
21
93.5805
31
0.0
0
LINE
8
CUT
10
791.1111
20
93.5805
30
0.0
11
781.2222
21
87.0175
31
0.0
0
LINE
8
CUT
10
781.2222
20
87.0175
30
0.0
11
771.3333
21
80.5689
31
0.0
0
LINE
8
CUT
10
771.3333
20
80.5689
30
0.0
11
761.4444
21
75.7309
31
0.0
0
LINE
8
CUT
10
761.4444
20
75.7309
30
0.0
11
751.5556
21
69.5779
31
0.0
0
LINE
8
CUT
10
751.5556
20
69.5779
30
0.0
11
741.6667
21
63.5572
31
0.0
0
LINE
8
CUT
10
741.6667
20
63.5572
30
0.0
11
731.7778
21
57.6755
31
0.0
0
LINE
8
CUT
10
731.7778
20
57.6755
30
0.0
11
721.8889
21
53.6021
31
0.0
0
LINE
8
CUT
10
721.8889
20
53.6021
30
0.0
11
712.0000
21
48.0562
31
0.0
0
LINE
8
CUT
10
712.0000
20
48.0562
30
0.0
11
702.1111
21
44.4029
31
0.0
0
LINE
8
CUT
10
702.1111
20
44.4029
30
0.0
11
692.2222
21
39.2106
31
0.0
0
LINE
8
CUT
10
692.2222
20
39.2106
30
0.0
11
682.3333
21
34.1863
31
0.0
0
LINE
8
CUT
10
682.3333
20
34.1863
30
0.0
11
672.4444
21
31.1633
31
0.0
0
LINE
8
CUT
10
672.4444
20
31.1633
30
0.0
11
662.5556
21
26.5087
31
0.0
0
LINE
8
CUT
10
662.5556
20
26.5087
30
0.0
11
652.6667
21
23.8984
31
0.0
0
LINE
8
CUT
10
652.6667
20
23.8984
30
0.0
11
642.7778
21
19.5695
31
0.0
0
LINE
8
CUT
10
642.7778
20
19.5695
30
0.0
11
632.8889
21
17.3654
31
0.0
0
LINE
8
CUT
10
632.8889
20
17.3654
30
0.0
11
623.0000
21
15.4148
31
0.0
0
LINE
8
CUT
10
623.0000
20
15.4148
30
0.0
11
613.1111
21
11.6139
31
0.0
0
LINE
8
CUT
10
613.1111
20
11.6139
30
0.0
11
603.2222
21
10.1137
31
0.0
0
LINE
8
CUT
10
603.2222
20
10.1137
30
0.0
11
593.3333
21
6.6617
31
0.0
0
LINE
8
CUT
10
593.3333
20
6.6617
30
0.0
11
583.4444
21
5.6846
31
0.0
0
LINE
8
CUT
10
583.4444
20
5.6846
30
0.0
11
573.5556
21
4.9730
31
0.0
0
LINE
8
CUT
10
573.5556
20
4.9730
30
0.0
11
563.6667
21
4.5276
31
0.0
0
LINE
8
CUT
10
563.6667
20
4.5276
30
0.0
11
553.7778
21
2.0758
31
0.0
0
LINE
8
CUT
10
553.7778
20
2.0758
30
0.0
11
543.8889
21
2.1430
31
0.0
0
LINE
8
CUT
10
543.8889
20
2.1430
30
0.0
11
534.0000
21
2.2112
31
0.0
0
LINE
8
CUT
10
534.0000
20
2.2112
30
0.0
11
524.1111
21
2.2606
31
0.0
0
LINE
8
CUT
10
524.1111
20
2.2606
30
0.0
11
514.2222
21
0.0127
31
0.0
0
LINE
8
CUT
10
514.2222
20
0.0127
30
0.0
11
504.3333
21
0.0722
31
0.0
0
LINE
8
CUT
10
504.3333
20
0.0722
30
0.0
11
494.4444
21
0.1219
31
0.0
0
LINE
8
CUT
10
494.4444
20
0.1219
30
0.0
11
484.5556
21
0.1649
31
0.0
0
LINE
8
CUT
10
484.5556
20
0.1649
30
0.0
11
474.6667
21
0.1955
31
0.0
0
LINE
8
CUT
10
474.6667
20
0.1955
30
0.0
11
464.7778
21
0.2135
31
0.0
0
LINE
8
CUT
10
464.7778
20
0.2135
30
0.0
11
454.8889
21
0.2253
31
0.0
0
LINE
8
CUT
10
454.8889
20
0.2253
30
0.0
11
445.0000
21
0.2310
31
0.0
0
LINE
8
CUT
10
445.0000
20
0.2310
30
0.0
11
435.1111
21
0.2311
31
0.0
0
LINE
8
CUT
10
435.1111
20
0.2311
30
0.0
11
425.2222
21
0.2294
31
0.0
0
LINE
8
CUT
10
425.2222
20
0.2294
30
0.0
11
415.3333
21
0.2257
31
0.0
0
LINE
8
CUT
10
415.3333
20
0.2257
30
0.0
11
405.4444
21
0.2195
31
0.0
0
LINE
8
CUT
10
405.4444
20
0.2195
30
0.0
11
395.5556
21
0.2107
31
0.0
0
LINE
8
CUT
10
395.5556
20
0.2107
30
0.0
11
385.6667
21
0.1989
31
0.0
0
LINE
8
CUT
10
385.6667
20
0.1989
30
0.0
11
375.7778
21
0.1836
31
0.0
0
LINE
8
CUT
10
375.7778
20
0.1836
30
0.0
11
365.8889
21
0.1563
31
0.0
0
LINE
8
CUT
10
365.8889
20
0.1563
30
0.0
11
356.0000
21
0.1250
31
0.0
0
LINE
8
CUT
10
356.0000
20
0.1250
30
0.0
11
346.1111
21
0.0897
31
0.0
0
LINE
8
CUT
10
346.1111
20
0.0897
30
0.0
11
336.2222
21
0.0483
31
0.0
0
LINE
8
CUT
10
336.2222
20
0.0483
30
0.0
11
326.3333
21
0.0000
31
0.0
0
LINE
8
CUT
10
326.3333
20
0.0000
30
0.0
11
316.4444
21
2.2616
31
0.0
0
LINE
8
CUT
10
316.4444
20
2.2616
30
0.0
11
306.5556
21
2.2230
31
0.0
0
LINE
8
CUT
10
306.5556
20
2.2230
30
0.0
11
296.6667
21
2.1783
31
0.0
0
LINE
8
CUT
10
296.6667
20
2.1783
30
0.0
11
286.7778
21
2.1067
31
0.0
0
LINE
8
CUT
10
286.7778
20
2.1067
30
0.0
11
276.8889
21
2.0292
31
0.0
0
LINE
8
CUT
10
276.8889
20
2.0292
30
0.0
11
267.0000
21
4.2598
31
0.0
0
LINE
8
CUT
10
267.0000
20
4.2598
30
0.0
11
257.1111
21
4.1989
31
0.0
0
LINE
8
CUT
10
257.1111
20
4.1989
30
0.0
11
247.2222
21
4.1116
31
0.0
0
LINE
8
CUT
10
247.2222
20
4.1116
30
0.0
11
237.3333
21
4.0050
31
0.0
0
LINE
8
CUT
10
237.3333
20
4.0050
30
0.0
11
227.4444
21
6.2256
31
0.0
0
LINE
8
CUT
10
227.4444
20
6.2256
30
0.0
11
217.5556
21
6.1320
31
0.0
0
LINE
8
CUT
10
217.5556
20
6.1320
30
0.0
11
207.6667
21
6.0119
31
0.0
0
LINE
8
CUT
10
207.6667
20
6.0119
30
0.0
11
197.7778
21
8.5150
31
0.0
0
LINE
8
CUT
10
197.7778
20
8.5150
30
0.0
11
187.8889
21
9.1189
31
0.0
0
LINE
8
CUT
10
187.8889
20
9.1189
30
0.0
11
178.0000
21
12.3506
31
0.0
0
LINE
8
CUT
10
178.0000
20
12.3506
30
0.0
11
168.1111
21
13.7386
31
0.0
0
LINE
8
CUT
10
168.1111
20
13.7386
30
0.0
11
158.2222
21
17.6600
31
0.0
0
LINE
8
CUT
10
158.2222
20
17.6600
30
0.0
11
148.3333
21
19.7605
31
0.0
0
LINE
8
CUT
10
148.3333
20
19.7605
30
0.0
11
138.4444
21
24.2502
31
0.0
0
LINE
8
CUT
10
138.4444
20
24.2502
30
0.0
11
128.5556
21
27.0028
31
0.0
0
LINE
8
CUT
10
128.5556
20
27.0028
30
0.0
11
118.6667
21
31.9877
31
0.0
0
LINE
8
CUT
10
118.6667
20
31.9877
30
0.0
11
108.7778
21
35.3750
31
0.0
0
LINE
8
CUT
10
108.7778
20
35.3750
30
0.0
11
98.8889
21
40.8915
31
0.0
0
LINE
8
CUT
10
98.8889
20
40.8915
30
0.0
11
89.0000
21
46.6739
31
0.0
0
LINE
8
CUT
10
89.0000
20
46.6739
30
0.0
11
79.1111
21
51.0095
31
0.0
0
LINE
8
CUT
10
79.1111
20
51.0095
30
0.0
11
69.2222
21
57.3441
31
0.0
0
LINE
8
CUT
10
69.2222
20
57.3441
30
0.0
11
59.3333
21
63.9197
31
0.0
0
LINE
8
CUT
10
59.3333
20
63.9197
30
0.0
11
49.4444
21
70.7263
31
0.0
0
LINE
8
CUT
10
49.4444
20
70.7263
30
0.0
11
39.5556
21
77.7537
31
0.0
0
LINE
8
CUT
10
39.5556
20
77.7537
30
0.0
11
29.6667
21
84.9919
31
0.0
0
LINE
8
CUT
10
29.6667
20
84.9919
30
0.0
11
19.7778
21
91.0544
31
0.0
0
LINE
8
CUT
10
19.7778
20
91.0544
30
0.0
11
9.8889
21
98.7503
31
0.0
0
LINE
8
CUT
10
9.8889
20
98.7503
30
0.0
11
0.0000
21
106.6299
31
0.0
0
LINE
8
CUT
10
0.0000
20
106.6299
30
0.0
11
0.0000
21
339.7499
31
0.0
0
LINE
8
CUT
10
0.0000
20
339.7499
30
0.0
11
0.0000
21
339.7499
31
0.0
0
LINE
8
CUT
10
896.0000
20
304.9000
30
0.0
11
901.9633
21
322.6841
31
0.0
0
LINE
8
CUT
10
901.9633
20
322.6841
30
0.0
11
907.9267
21
328.5945
31
0.0
0
LINE
8
CUT
10
907.9267
20
328.5945
30
0.0
11
913.8900
21
332.0193
31
0.0
0
LINE
8
CUT
10
913.8900
20
332.0193
30
0.0
11
919.8533
21
333.8545
31
0.0
0
LINE
8
CUT
10
919.8533
20
333.8545
30
0.0
11
925.8167
21
334.4000
31
0.0
0
LINE
8
CUT
10
925.8167
20
334.4000
30
0.0
11
931.7800
21
334.4000
31
0.0
0
LINE
8
CUT
10
931.7800
20
334.4000
30
0.0
11
937.7433
21
334.4000
31
0.0
0
LINE
8
CUT
10
937.7433
20
334.4000
30
0.0
11
943.7067
21
334.4000
31
0.0
0
LINE
8
CUT
10
943.7067
20
334.4000
30
0.0
11
949.6700
21
334.4000
31
0.0
0
LINE
8
CUT
10
949.6700
20
334.4000
30
0.0
11
955.6333
21
334.4000
31
0.0
0
LINE
8
CUT
10
955.6333
20
334.4000
30
0.0
11
961.5967
21
334.4000
31
0.0
0
LINE
8
CUT
10
961.5967
20
334.4000
30
0.0
11
967.5600
21
334.4000
31
0.0
0
LINE
8
CUT
10
967.5600
20
334.4000
30
0.0
11
973.5233
21
334.4000
31
0.0
0
LINE
8
CUT
10
973.5233
20
334.4000
30
0.0
11
979.4867
21
334.4000
31
0.0
0
LINE
8
CUT
10
979.4867
20
334.4000
30
0.0
11
985.4500
21
334.4000
31
0.0
0
LINE
8
CUT
10
985.4500
20
334.4000
30
0.0
11
991.4133
21
334.4000
31
0.0
0
LINE
8
CUT
10
991.4133
20
334.4000
30
0.0
11
997.3767
21
334.4000
31
0.0
0
LINE
8
CUT
10
997.3767
20
334.4000
30
0.0
11
1003.3400
21
334.4000
31
0.0
0
LINE
8
CUT
10
1003.3400
20
334.4000
30
0.0
11
1009.3033
21
334.4000
31
0.0
0
LINE
8
CUT
10
1009.3033
20
334.4000
30
0.0
11
1015.2667
21
334.4000
31
0.0
0
LINE
8
CUT
10
1015.2667
20
334.4000
30
0.0
11
1021.2300
21
334.4000
31
0.0
0
LINE
8
CUT
10
1021.2300
20
334.4000
30
0.0
11
1027.1933
21
334.4000
31
0.0
0
LINE
8
CUT
10
1027.1933
20
334.4000
30
0.0
11
1033.1567
21
334.4000
31
0.0
0
LINE
8
CUT
10
1033.1567
20
334.4000
30
0.0
11
1039.1200
21
334.4000
31
0.0
0
LINE
8
CUT
10
1039.1200
20
334.4000
30
0.0
11
1045.0833
21
334.4000
31
0.0
0
LINE
8
CUT
10
1045.0833
20
334.4000
30
0.0
11
1051.0467
21
334.4000
31
0.0
0
LINE
8
CUT
10
1051.0467
20
334.4000
30
0.0
11
1057.0100
21
334.4000
31
0.0
0
LINE
8
CUT
10
1057.0100
20
334.4000
30
0.0
11
1062.9733
21
334.4000
31
0.0
0
LINE
8
CUT
10
1062.9733
20
334.4000
30
0.0
11
1068.9367
21
334.4000
31
0.0
0
LINE
8
CUT
10
1068.9367
20
334.4000
30
0.0
11
1074.9000
21
334.4000
31
0.0
0
LINE
8
CUT
10
1074.9000
20
334.4000
30
0.0
11
1080.8633
21
334.4000
31
0.0
0
LINE
8
CUT
10
1080.8633
20
334.4000
30
0.0
11
1086.8267
21
334.4000
31
0.0
0
LINE
8
CUT
10
1086.8267
20
334.4000
30
0.0
11
1092.7900
21
334.4000
31
0.0
0
LINE
8
CUT
10
1092.7900
20
334.4000
30
0.0
11
1098.7533
21
334.4000
31
0.0
0
LINE
8
CUT
10
1098.7533
20
334.4000
30
0.0
11
1104.7167
21
334.4000
31
0.0
0
LINE
8
CUT
10
1104.7167
20
334.4000
30
0.0
11
1110.6800
21
334.4000
31
0.0
0
LINE
8
CUT
10
1110.6800
20
334.4000
30
0.0
11
1116.6433
21
334.4000
31
0.0
0
LINE
8
CUT
10
1116.6433
20
334.4000
30
0.0
11
1122.6067
21
334.4000
31
0.0
0
LINE
8
CUT
10
1122.6067
20
334.4000
30
0.0
11
1128.5700
21
334.4000
31
0.0
0
LINE
8
CUT
10
1128.5700
20
334.4000
30
0.0
11
1134.5333
21
334.4000
31
0.0
0
LINE
8
CUT
10
1134.5333
20
334.4000
30
0.0
11
1140.4967
21
334.4000
31
0.0
0
LINE
8
CUT
10
1140.4967
20
334.4000
30
0.0
11
1146.4600
21
334.4000
31
0.0
0
LINE
8
CUT
10
1146.4600
20
334.4000
30
0.0
11
1152.4233
21
334.4000
31
0.0
0
LINE
8
CUT
10
1152.4233
20
334.4000
30
0.0
11
1158.3867
21
334.4000
31
0.0
0
LINE
8
CUT
10
1158.3867
20
334.4000
30
0.0
11
1164.3500
21
334.4000
31
0.0
0
LINE
8
CUT
10
1164.3500
20
334.4000
30
0.0
11
1170.3133
21
334.4000
31
0.0
0
LINE
8
CUT
10
1170.3133
20
334.4000
30
0.0
11
1176.2767
21
334.4000
31
0.0
0
LINE
8
CUT
10
1176.2767
20
334.4000
30
0.0
11
1182.2400
21
334.4000
31
0.0
0
LINE
8
CUT
10
1182.2400
20
334.4000
30
0.0
11
1188.2033
21
334.4000
31
0.0
0
LINE
8
CUT
10
1188.2033
20
334.4000
30
0.0
11
1194.1667
21
334.4000
31
0.0
0
LINE
8
CUT
10
1194.1667
20
334.4000
30
0.0
11
1200.1300
21
334.4000
31
0.0
0
LINE
8
CUT
10
1200.1300
20
334.4000
30
0.0
11
1206.0933
21
334.4000
31
0.0
0
LINE
8
CUT
10
1206.0933
20
334.4000
30
0.0
11
1212.0567
21
334.4000
31
0.0
0
LINE
8
CUT
10
1212.0567
20
334.4000
30
0.0
11
1218.0200
21
334.4000
31
0.0
0
LINE
8
CUT
10
1218.0200
20
334.4000
30
0.0
11
1223.9833
21
334.4000
31
0.0
0
LINE
8
CUT
10
1223.9833
20
334.4000
30
0.0
11
1229.9467
21
334.4000
31
0.0
0
LINE
8
CUT
10
1229.9467
20
334.4000
30
0.0
11
1235.9100
21
334.4000
31
0.0
0
LINE
8
CUT
10
1235.9100
20
334.4000
30
0.0
11
1241.8733
21
334.4000
31
0.0
0
LINE
8
CUT
10
1241.8733
20
334.4000
30
0.0
11
1247.8367
21
334.4000
31
0.0
0
LINE
8
CUT
10
1247.8367
20
334.4000
30
0.0
11
1253.8000
21
334.4000
31
0.0
0
LINE
8
CUT
10
1253.8000
20
334.4000
30
0.0
11
1259.7633
21
334.4000
31
0.0
0
LINE
8
CUT
10
1259.7633
20
334.4000
30
0.0
11
1265.7267
21
334.4000
31
0.0
0
LINE
8
CUT
10
1265.7267
20
334.4000
30
0.0
11
1271.6900
21
334.4000
31
0.0
0
LINE
8
CUT
10
1271.6900
20
334.4000
30
0.0
11
1277.6533
21
334.4000
31
0.0
0
LINE
8
CUT
10
1277.6533
20
334.4000
30
0.0
11
1283.6167
21
334.4000
31
0.0
0
LINE
8
CUT
10
1283.6167
20
334.4000
30
0.0
11
1289.5800
21
334.4000
31
0.0
0
LINE
8
CUT
10
1289.5800
20
334.4000
30
0.0
11
1295.5433
21
334.4000
31
0.0
0
LINE
8
CUT
10
1295.5433
20
334.4000
30
0.0
11
1301.5067
21
334.4000
31
0.0
0
LINE
8
CUT
10
1301.5067
20
334.4000
30
0.0
11
1307.4700
21
334.4000
31
0.0
0
LINE
8
CUT
10
1307.4700
20
334.4000
30
0.0
11
1313.4333
21
334.4000
31
0.0
0
LINE
8
CUT
10
1313.4333
20
334.4000
30
0.0
11
1319.3967
21
334.4000
31
0.0
0
LINE
8
CUT
10
1319.3967
20
334.4000
30
0.0
11
1325.3600
21
334.4000
31
0.0
0
LINE
8
CUT
10
1325.3600
20
334.4000
30
0.0
11
1331.3233
21
334.4000
31
0.0
0
LINE
8
CUT
10
1331.3233
20
334.4000
30
0.0
11
1337.2867
21
334.4000
31
0.0
0
LINE
8
CUT
10
1337.2867
20
334.4000
30
0.0
11
1343.2500
21
334.4000
31
0.0
0
LINE
8
CUT
10
1343.2500
20
334.4000
30
0.0
11
1349.2133
21
334.4000
31
0.0
0
LINE
8
CUT
10
1349.2133
20
334.4000
30
0.0
11
1355.1767
21
334.4000
31
0.0
0
LINE
8
CUT
10
1355.1767
20
334.4000
30
0.0
11
1361.1400
21
334.4000
31
0.0
0
LINE
8
CUT
10
1361.1400
20
334.4000
30
0.0
11
1367.1033
21
334.4000
31
0.0
0
LINE
8
CUT
10
1367.1033
20
334.4000
30
0.0
11
1373.0667
21
334.4000
31
0.0
0
LINE
8
CUT
10
1373.0667
20
334.4000
30
0.0
11
1379.0300
21
334.4000
31
0.0
0
LINE
8
CUT
10
1379.0300
20
334.4000
30
0.0
11
1384.9933
21
334.4000
31
0.0
0
LINE
8
CUT
10
1384.9933
20
334.4000
30
0.0
11
1390.9567
21
334.4000
31
0.0
0
LINE
8
CUT
10
1390.9567
20
334.4000
30
0.0
11
1396.9200
21
334.4000
31
0.0
0
LINE
8
CUT
10
1396.9200
20
334.4000
30
0.0
11
1402.8833
21
334.4000
31
0.0
0
LINE
8
CUT
10
1402.8833
20
334.4000
30
0.0
11
1408.8467
21
333.8545
31
0.0
0
LINE
8
CUT
10
1408.8467
20
333.8545
30
0.0
11
1414.8100
21
332.0193
31
0.0
0
LINE
8
CUT
10
1414.8100
20
332.0193
30
0.0
11
1420.7733
21
328.5945
31
0.0
0
LINE
8
CUT
10
1420.7733
20
328.5945
30
0.0
11
1426.7367
21
322.6841
31
0.0
0
LINE
8
CUT
10
1426.7367
20
322.6841
30
0.0
11
1432.7000
21
304.9000
31
0.0
0
LINE
8
CUT
10
1432.7000
20
304.9000
30
0.0
11
1432.7000
21
29.5000
31
0.0
0
LINE
8
CUT
10
1432.7000
20
29.5000
30
0.0
11
1426.7367
21
11.7159
31
0.0
0
LINE
8
CUT
10
1426.7367
20
11.7159
30
0.0
11
1420.7733
21
5.8055
31
0.0
0
LINE
8
CUT
10
1420.7733
20
5.8055
30
0.0
11
1414.8100
21
2.3807
31
0.0
0
LINE
8
CUT
10
1414.8100
20
2.3807
30
0.0
11
1408.8467
21
0.5455
31
0.0
0
LINE
8
CUT
10
1408.8467
20
0.5455
30
0.0
11
1402.8833
21
0.0000
31
0.0
0
LINE
8
CUT
10
1402.8833
20
0.0000
30
0.0
11
1396.9200
21
0.0000
31
0.0
0
LINE
8
CUT
10
1396.9200
20
0.0000
30
0.0
11
1390.9567
21
0.0000
31
0.0
0
LINE
8
CUT
10
1390.9567
20
0.0000
30
0.0
11
1384.9933
21
0.0000
31
0.0
0
LINE
8
CUT
10
1384.9933
20
0.0000
30
0.0
11
1379.0300
21
0.0000
31
0.0
0
LINE
8
CUT
10
1379.0300
20
0.0000
30
0.0
11
1373.0667
21
0.0000
31
0.0
0
LINE
8
CUT
10
1373.0667
20
0.0000
30
0.0
11
1367.1033
21
0.0000
31
0.0
0
LINE
8
CUT
10
1367.1033
20
0.0000
30
0.0
11
1361.1400
21
0.0000
31
0.0
0
LINE
8
CUT
10
1361.1400
20
0.0000
30
0.0
11
1355.1767
21
0.0000
31
0.0
0
LINE
8
CUT
10
1355.1767
20
0.0000
30
0.0
11
1349.2133
21
0.0000
31
0.0
0
LINE
8
CUT
10
1349.2133
20
0.0000
30
0.0
11
1343.2500
21
0.0000
31
0.0
0
LINE
8
CUT
10
1343.2500
20
0.0000
30
0.0
11
1337.2867
21
0.0000
31
0.0
0
LINE
8
CUT
10
1337.2867
20
0.0000
30
0.0
11
1331.3233
21
0.0000
31
0.0
0
LINE
8
CUT
10
1331.3233
20
0.0000
30
0.0
11
1325.3600
21
0.0000
31
0.0
0
LINE
8
CUT
10
1325.3600
20
0.0000
30
0.0
11
1319.3967
21
0.0000
31
0.0
0
LINE
8
CUT
10
1319.3967
20
0.0000
30
0.0
11
1313.4333
21
0.0000
31
0.0
0
LINE
8
CUT
10
1313.4333
20
0.0000
30
0.0
11
1307.4700
21
0.0000
31
0.0
0
LINE
8
CUT
10
1307.4700
20
0.0000
30
0.0
11
1301.5067
21
0.0000
31
0.0
0
LINE
8
CUT
10
1301.5067
20
0.0000
30
0.0
11
1295.5433
21
0.0000
31
0.0
0
LINE
8
CUT
10
1295.5433
20
0.0000
30
0.0
11
1289.5800
21
0.0000
31
0.0
0
LINE
8
CUT
10
1289.5800
20
0.0000
30
0.0
11
1283.6167
21
0.0000
31
0.0
0
LINE
8
CUT
10
1283.6167
20
0.0000
30
0.0
11
1277.6533
21
0.0000
31
0.0
0
LINE
8
CUT
10
1277.6533
20
0.0000
30
0.0
11
1271.6900
21
0.0000
31
0.0
0
LINE
8
CUT
10
1271.6900
20
0.0000
30
0.0
11
1265.7267
21
0.0000
31
0.0
0
LINE
8
CUT
10
1265.7267
20
0.0000
30
0.0
11
1259.7633
21
0.0000
31
0.0
0
LINE
8
CUT
10
1259.7633
20
0.0000
30
0.0
11
1253.8000
21
0.0000
31
0.0
0
LINE
8
CUT
10
1253.8000
20
0.0000
30
0.0
11
1247.8367
21
0.0000
31
0.0
0
LINE
8
CUT
10
1247.8367
20
0.0000
30
0.0
11
1241.8733
21
0.0000
31
0.0
0
LINE
8
CUT
10
1241.8733
20
0.0000
30
0.0
11
1235.9100
21
0.0000
31
0.0
0
LINE
8
CUT
10
1235.9100
20
0.0000
30
0.0
11
1229.9467
21
0.0000
31
0.0
0
LINE
8
CUT
10
1229.9467
20
0.0000
30
0.0
11
1223.9833
21
0.0000
31
0.0
0
LINE
8
CUT
10
1223.9833
20
0.0000
30
0.0
11
1218.0200
21
0.0000
31
0.0
0
LINE
8
CUT
10
1218.0200
20
0.0000
30
0.0
11
1212.0567
21
0.0000
31
0.0
0
LINE
8
CUT
10
1212.0567
20
0.0000
30
0.0
11
1206.0933
21
0.0000
31
0.0
0
LINE
8
CUT
10
1206.0933
20
0.0000
30
0.0
11
1200.1300
21
0.0000
31
0.0
0
LINE
8
CUT
10
1200.1300
20
0.0000
30
0.0
11
1194.1667
21
0.0000
31
0.0
0
LINE
8
CUT
10
1194.1667
20
0.0000
30
0.0
11
1188.2033
21
0.0000
31
0.0
0
LINE
8
CUT
10
1188.2033
20
0.0000
30
0.0
11
1182.2400
21
0.0000
31
0.0
0
LINE
8
CUT
10
1182.2400
20
0.0000
30
0.0
11
1176.2767
21
0.0000
31
0.0
0
LINE
8
CUT
10
1176.2767
20
0.0000
30
0.0
11
1170.3133
21
0.0000
31
0.0
0
LINE
8
CUT
10
1170.3133
20
0.0000
30
0.0
11
1164.3500
21
0.0000
31
0.0
0
LINE
8
CUT
10
1164.3500
20
0.0000
30
0.0
11
1158.3867
21
0.0000
31
0.0
0
LINE
8
CUT
10
1158.3867
20
0.0000
30
0.0
11
1152.4233
21
0.0000
31
0.0
0
LINE
8
CUT
10
1152.4233
20
0.0000
30
0.0
11
1146.4600
21
0.0000
31
0.0
0
LINE
8
CUT
10
1146.4600
20
0.0000
30
0.0
11
1140.4967
21
0.0000
31
0.0
0
LINE
8
CUT
10
1140.4967
20
0.0000
30
0.0
11
1134.5333
21
0.0000
31
0.0
0
LINE
8
CUT
10
1134.5333
20
0.0000
30
0.0
11
1128.5700
21
0.0000
31
0.0
0
LINE
8
CUT
10
1128.5700
20
0.0000
30
0.0
11
1122.6067
21
0.0000
31
0.0
0
LINE
8
CUT
10
1122.6067
20
0.0000
30
0.0
11
1116.6433
21
0.0000
31
0.0
0
LINE
8
CUT
10
1116.6433
20
0.0000
30
0.0
11
1110.6800
21
0.0000
31
0.0
0
LINE
8
CUT
10
1110.6800
20
0.0000
30
0.0
11
1104.7167
21
0.0000
31
0.0
0
LINE
8
CUT
10
1104.7167
20
0.0000
30
0.0
11
1098.7533
21
0.0000
31
0.0
0
LINE
8
CUT
10
1098.7533
20
0.0000
30
0.0
11
1092.7900
21
0.0000
31
0.0
0
LINE
8
CUT
10
1092.7900
20
0.0000
30
0.0
11
1086.8267
21
0.0000
31
0.0
0
LINE
8
CUT
10
1086.8267
20
0.0000
30
0.0
11
1080.8633
21
0.0000
31
0.0
0
LINE
8
CUT
10
1080.8633
20
0.0000
30
0.0
11
1074.9000
21
0.0000
31
0.0
0
LINE
8
CUT
10
1074.9000
20
0.0000
30
0.0
11
1068.9367
21
0.0000
31
0.0
0
LINE
8
CUT
10
1068.9367
20
0.0000
30
0.0
11
1062.9733
21
0.0000
31
0.0
0
LINE
8
CUT
10
1062.9733
20
0.0000
30
0.0
11
1057.0100
21
0.0000
31
0.0
0
LINE
8
CUT
10
1057.0100
20
0.0000
30
0.0
11
1051.0467
21
0.0000
31
0.0
0
LINE
8
CUT
10
1051.0467
20
0.0000
30
0.0
11
1045.0833
21
0.0000
31
0.0
0
LINE
8
CUT
10
1045.0833
20
0.0000
30
0.0
11
1039.1200
21
0.0000
31
0.0
0
LINE
8
CUT
10
1039.1200
20
0.0000
30
0.0
11
1033.1567
21
0.0000
31
0.0
0
LINE
8
CUT
10
1033.1567
20
0.0000
30
0.0
11
1027.1933
21
0.0000
31
0.0
0
LINE
8
CUT
10
1027.1933
20
0.0000
30
0.0
11
1021.2300
21
0.0000
31
0.0
0
LINE
8
CUT
10
1021.2300
20
0.0000
30
0.0
11
1015.2667
21
0.0000
31
0.0
0
LINE
8
CUT
10
1015.2667
20
0.0000
30
0.0
11
1009.3033
21
0.0000
31
0.0
0
LINE
8
CUT
10
1009.3033
20
0.0000
30
0.0
11
1003.3400
21
0.0000
31
0.0
0
LINE
8
CUT
10
1003.3400
20
0.0000
30
0.0
11
997.3767
21
0.0000
31
0.0
0
LINE
8
CUT
10
997.3767
20
0.0000
30
0.0
11
991.4133
21
0.0000
31
0.0
0
LINE
8
CUT
10
991.4133
20
0.0000
30
0.0
11
985.4500
21
0.0000
31
0.0
0
LINE
8
CUT
10
985.4500
20
0.0000
30
0.0
11
979.4867
21
0.0000
31
0.0
0
LINE
8
CUT
10
979.4867
20
0.0000
30
0.0
11
973.5233
21
0.0000
31
0.0
0
LINE
8
CUT
10
973.5233
20
0.0000
30
0.0
11
967.5600
21
0.0000
31
0.0
0
LINE
8
CUT
10
967.5600
20
0.0000
30
0.0
11
961.5967
21
0.0000
31
0.0
0
LINE
8
CUT
10
961.5967
20
0.0000
30
0.0
11
955.6333
21
0.0000
31
0.0
0
LINE
8
CUT
10
955.6333
20
0.0000
30
0.0
11
949.6700
21
0.0000
31
0.0
0
LINE
8
CUT
10
949.6700
20
0.0000
30
0.0
11
943.7067
21
0.0000
31
0.0
0
LINE
8
CUT
10
943.7067
20
0.0000
30
0.0
11
937.7433
21
0.0000
31
0.0
0
LINE
8
CUT
10
937.7433
20
0.0000
30
0.0
11
931.7800
21
0.0000
31
0.0
0
LINE
8
CUT
10
931.7800
20
0.0000
30
0.0
11
925.8167
21
0.0000
31
0.0
0
LINE
8
CUT
10
925.8167
20
0.0000
30
0.0
11
919.8533
21
0.5455
31
0.0
0
LINE
8
CUT
10
919.8533
20
0.5455
30
0.0
11
913.8900
21
2.3807
31
0.0
0
LINE
8
CUT
10
913.8900
20
2.3807
30
0.0
11
907.9267
21
5.8055
31
0.0
0
LINE
8
CUT
10
907.9267
20
5.8055
30
0.0
11
901.9633
21
11.7159
31
0.0
0
LINE
8
CUT
10
901.9633
20
11.7159
30
0.0
11
896.0000
21
29.5000
31
0.0
0
LINE
8
CUT
10
896.0000
20
29.5000
30
0.0
11
896.0000
21
304.9000
31
0.0
0
LINE
8
CUT
10
896.0000
20
304.9000
30
0.0
11
896.0000
21
304.9000
31
0.0
0
ENDSEC
0
EOF
