0
SECTION
2
ENTITIES
0
LINE
8
CHANNEL
10
0.0000
20
0.0000
30
0.0
11
2400.0000
21
0.0000
31
0.0
0
LINE
8
CHANNEL
10
2400.0000
20
0.0000
30
0.0
11
2400.0000
21
600.0000
31
0.0
0
LINE
8
CHANNEL
10
2400.0000
20
600.0000
30
0.0
11
0.0000
21
600.0000
31
0.0
0
LINE
8
CHANNEL
10
0.0000
20
600.0000
30
0.0
11
0.0000
21
0.0000
31
0.0
0
LINE
8
CHANNEL
10
0.0000
20
0.0000
30
0.0
11
0.0000
21
0.0000
31
0.0
0
LINE
8
CUT
10
0.0000
20
304.9000
30
0.0
11
4.8791
21
321.1499
31
0.0
0
LINE
8
CUT
10
4.8791
20
321.1499
30
0.0
11
9.7582
21
326.8206
31
0.0
0
LINE
8
CUT
10
9.7582
20
326.8206
30
0.0
11
14.6373
21
330.3823
31
0.0
0
LINE
8
CUT
10
14.6373
20
330.3823
30
0.0
11
19.5164
21
332.6593
31
0.0
0
LINE
8
CUT
10
19.5164
20
332.6593
30
0.0
11
24.3955
21
333.9550
31
0.0
0
LINE
8
CUT
10
24.3955
20
333.9550
30
0.0
11
29.2745
21
334.3991
31
0.0
0
LINE
8
CUT
10
29.2745
20
334.3991
30
0.0
11
34.1536
21
334.4000
31
0.0
0
LINE
8
CUT
10
34.1536
20
334.4000
30
0.0
11
39.0327
21
334.4000
31
0.0
0
LINE
8
CUT
10
39.0327
20
334.4000
30
0.0
11
43.9118
21
334.4000
31
0.0
0
LINE
8
CUT
10
43.9118
20
334.4000
30
0.0
11
48.7909
21
334.4000
31
0.0
0
LINE
8
CUT
10
48.7909
20
334.4000
30
0.0
11
53.6700
21
334.4000
31
0.0
0
LINE
8
CUT
10
53.6700
20
334.4000
30
0.0
11
58.5491
21
334.4000
31
0.0
0
LINE
8
CUT
10
58.5491
20
334.4000
30
0.0
11
63.4282
21
334.4000
31
0.0
0
LINE
8
CUT
10
63.4282
20
334.4000
30
0.0
11
68.3073
21
334.4000
31
0.0
0
LINE
8
CUT
10
68.3073
20
334.4000
30
0.0
11
73.1864
21
334.4000
31
0.0
0
LINE
8
CUT
10
73.1864
20
334.4000
30
0.0
11
78.0655
21
334.4000
31
0.0
0
LINE
8
CUT
10
78.0655
20
334.4000
30
0.0
11
82.9445
21
334.4000
31
0.0
0
LINE
8
CUT
10
82.9445
20
334.4000
30
0.0
11
87.8236
21
334.4000
31
0.0
0
LINE
8
CUT
10
87.8236
20
334.4000
30
0.0
11
92.7027
21
334.4000
31
0.0
0
LINE
8
CUT
10
92.7027
20
334.4000
30
0.0
11
97.5818
21
334.4000
31
0.0
0
LINE
8
CUT
10
97.5818
20
334.4000
30
0.0
11
102.4609
21
334.4000
31
0.0
0
LINE
8
CUT
10
102.4609
20
334.4000
30
0.0
11
107.3400
21
334.4000
31
0.0
0
LINE
8
CUT
10
107.3400
20
334.4000
30
0.0
11
112.2191
21
334.4000
31
0.0
0
LINE
8
CUT
10
112.2191
20
334.4000
30
0.0
11
117.0982
21
334.4000
31
0.0
0
LINE
8
CUT
10
117.0982
20
334.4000
30
0.0
11
121.9773
21
334.4000
31
0.0
0
LINE
8
CUT
10
121.9773
20
334.4000
30
0.0
11
126.8564
21
334.4000
31
0.0
0
LINE
8
CUT
10
126.8564
20
334.4000
30
0.0
11
131.7355
21
334.4000
31
0.0
0
LINE
8
CUT
10
131.7355
20
334.4000
30
0.0
11
136.6145
21
334.4000
31
0.0
0
LINE
8
CUT
10
136.6145
20
334.4000
30
0.0
11
141.4936
21
334.4000
31
0.0
0
LINE
8
CUT
10
141.4936
20
334.4000
30
0.0
11
146.3727
21
334.4000
31
0.0
0
LINE
8
CUT
10
146.3727
20
334.4000
30
0.0
11
151.2518
21
334.4000
31
0.0
0
LINE
8
CUT
10
151.2518
20
334.4000
30
0.0
11
156.1309
21
334.4000
31
0.0
0
LINE
8
CUT
10
156.1309
20
334.4000
30
0.0
11
161.0100
21
334.4000
31
0.0
0
LINE
8
CUT
10
161.0100
20
334.4000
30
0.0
11
165.8891
21
334.4000
31
0.0
0
LINE
8
CUT
10
165.8891
20
334.4000
30
0.0
11
170.7682
21
334.4000
31
0.0
0
LINE
8
CUT
10
170.7682
20
334.4000
30
0.0
11
175.6473
21
334.4000
31
0.0
0
LINE
8
CUT
10
175.6473
20
334.4000
30
0.0
11
180.5264
21
334.4000
31
0.0
0
LINE
8
CUT
10
180.5264
20
334.4000
30
0.0
11
185.4055
21
334.4000
31
0.0
0
LINE
8
CUT
10
185.4055
20
334.4000
30
0.0
11
190.2845
21
334.4000
31
0.0
0
LINE
8
CUT
10
190.2845
20
334.4000
30
0.0
11
195.1636
21
334.4000
31
0.0
0
LINE
8
CUT
10
195.1636
20
334.4000
30
0.0
11
200.0427
21
334.4000
31
0.0
0
LINE
8
CUT
10
200.0427
20
334.4000
30
0.0
11
204.9218
21
334.4000
31
0.0
0
LINE
8
CUT
10
204.9218
20
334.4000
30
0.0
11
209.8009
21
334.4000
31
0.0
0
LINE
8
CUT
10
209.8009
20
334.4000
30
0.0
11
214.6800
21
334.4000
31
0.0
0
LINE
8
CUT
10
214.6800
20
334.4000
30
0.0
11
219.5591
21
334.4000
31
0.0
0
LINE
8
CUT
10
219.5591
20
334.4000
30
0.0
11
224.4382
21
334.4000
31
0.0
0
LINE
8
CUT
10
224.4382
20
334.4000
30
0.0
11
229.3173
21
334.4000
31
0.0
0
LINE
8
CUT
10
229.3173
20
334.4000
30
0.0
11
234.1964
21
334.4000
31
0.0
0
LINE
8
CUT
10
234.1964
20
334.4000
30
0.0
11
239.0755
21
334.4000
31
0.0
0
LINE
8
CUT
10
239.0755
20
334.4000
30
0.0
11
243.9545
21
334.4000
31
0.0
0
LINE
8
CUT
10
243.9545
20
334.4000
30
0.0
11
248.8336
21
334.4000
31
0.0
0
LINE
8
CUT
10
248.8336
20
334.4000
30
0.0
11
253.7127
21
334.4000
31
0.0
0
LINE
8
CUT
10
253.7127
20
334.4000
30
0.0
11
258.5918
21
334.4000
31
0.0
0
LINE
8
CUT
10
258.5918
20
334.4000
30
0.0
11
263.4709
21
334.4000
31
0.0
0
LINE
8
CUT
10
263.4709
20
334.4000
30
0.0
11
268.3500
21
334.4000
31
0.0
0
LINE
8
CUT
10
268.3500
20
334.4000
30
0.0
11
273.2291
21
334.4000
31
0.0
0
LINE
8
CUT
10
273.2291
20
334.4000
30
0.0
11
278.1082
21
334.4000
31
0.0
0
LINE
8
CUT
10
278.1082
20
334.4000
30
0.0
11
282.9873
21
334.4000
31
0.0
0
LINE
8
CUT
10
282.9873
20
334.4000
30
0.0
11
287.8664
21
334.4000
31
0.0
0
LINE
8
CUT
10
287.8664
20
334.4000
30
0.0
11
292.7455
21
334.4000
31
0.0
0
LINE
8
CUT
10
292.7455
20
334.4000
30
0.0
11
297.6245
21
334.4000
31
0.0
0
LINE
8
CUT
10
297.6245
20
334.4000
30
0.0
11
302.5036
21
334.4000
31
0.0
0
LINE
8
CUT
10
302.5036
20
334.4000
30
0.0
11
307.3827
21
334.4000
31
0.0
0
LINE
8
CUT
10
307.3827
20
334.4000
30
0.0
11
312.2618
21
334.4000
31
0.0
0
LINE
8
CUT
10
312.2618
20
334.4000
30
0.0
11
317.1409
21
334.4000
31
0.0
0
LINE
8
CUT
10
317.1409
20
334.4000
30
0.0
11
322.0200
21
334.4000
31
0.0
0
LINE
8
CUT
10
322.0200
20
334.4000
30
0.0
11
326.8991
21
334.4000
31
0.0
0
LINE
8
CUT
10
326.8991
20
334.4000
30
0.0
11
331.7782
21
334.4000
31
0.0
0
LINE
8
CUT
10
331.7782
20
334.4000
30
0.0
11
336.6573
21
334.4000
31
0.0
0
LINE
8
CUT
10
336.6573
20
334.4000
30
0.0
11
341.5364
21
334.4000
31
0.0
0
LINE
8
CUT
10
341.5364
20
334.4000
30
0.0
11
346.4155
21
334.4000
31
0.0
0
LINE
8
CUT
10
346.4155
20
334.4000
30
0.0
11
351.2945
21
334.4000
31
0.0
0
LINE
8
CUT
10
351.2945
20
334.4000
30
0.0
11
356.1736
21
334.4000
31
0.0
0
LINE
8
CUT
10
356.1736
20
334.4000
30
0.0
11
361.0527
21
334.4000
31
0.0
0
LINE
8
CUT
10
361.0527
20
334.4000
30
0.0
11
365.9318
21
334.4000
31
0.0
0
LINE
8
CUT
10
365.9318
20
334.4000
30
0.0
11
370.8109
21
334.4000
31
0.0
0
LINE
8
CUT
10
370.8109
20
334.4000
30
0.0
11
375.6900
21
334.4000
31
0.0
0
LINE
8
CUT
10
375.6900
20
334.4000
30
0.0
11
380.5691
21
334.4000
31
0.0
0
LINE
8
CUT
10
380.5691
20
334.4000
30
0.0
11
385.4482
21
334.4000
31
0.0
0
LINE
8
CUT
10
385.4482
20
334.4000
30
0.0
11
390.3273
21
334.4000
31
0.0
0
LINE
8
CUT
10
390.3273
20
334.4000
30
0.0
11
395.2064
21
334.4000
31
0.0
0
LINE
8
CUT
10
395.2064
20
334.4000
30
0.0
11
400.0855
21
334.4000
31
0.0
0
LINE
8
CUT
10
400.0855
20
334.4000
30
0.0
11
404.9645
21
334.4000
31
0.0
0
LINE
8
CUT
10
404.9645
20
334.4000
30
0.0
11
409.8436
21
334.4000
31
0.0
0
LINE
8
CUT
10
409.8436
20
334.4000
30
0.0
11
414.7227
21
334.4000
31
0.0
0
LINE
8
CUT
10
414.7227
20
334.4000
30
0.0
11
419.6018
21
334.4000
31
0.0
0
LINE
8
CUT
10
419.6018
20
334.4000
30
0.0
11
424.4809
21
334.4000
31
0.0
0
LINE
8
CUT
10
424.4809
20
334.4000
30
0.0
11
429.3600
21
334.4000
31
0.0
0
LINE
8
CUT
10
429.3600
20
334.4000
30
0.0
11
434.2391
21
334.4000
31
0.0
0
LINE
8
CUT
10
434.2391
20
334.4000
30
0.0
11
439.1182
21
334.4000
31
0.0
0
LINE
8
CUT
10
439.1182
20
334.4000
30
0.0
11
443.9973
21
334.4000
31
0.0
0
LINE
8
CUT
10
443.9973
20
334.4000
30
0.0
11
448.8764
21
334.4000
31
0.0
0
LINE
8
CUT
10
448.8764
20
334.4000
30
0.0
11
453.7555
21
334.4000
31
0.0
0
LINE
8
CUT
10
453.7555
20
334.4000
30
0.0
11
458.6345
21
334.4000
31
0.0
0
LINE
8
CUT
10
458.6345
20
334.4000
30
0.0
11
463.5136
21
334.4000
31
0.0
0
LINE
8
CUT
10
463.5136
20
334.4000
30
0.0
11
468.3927
21
334.4000
31
0.0
0
LINE
8
CUT
10
468.3927
20
334.4000
30
0.0
11
473.2718
21
334.4000
31
0.0
0
LINE
8
CUT
10
473.2718
20
334.4000
30
0.0
11
478.1509
21
334.4000
31
0.0
0
LINE
8
CUT
10
478.1509
20
334.4000
30
0.0
11
483.0300
21
334.4000
31
0.0
0
LINE
8
CUT
10
483.0300
20
334.4000
30
0.0
11
487.9091
21
334.4000
31
0.0
0
LINE
8
CUT
10
487.9091
20
334.4000
30
0.0
11
492.7882
21
334.4000
31
0.0
0
LINE
8
CUT
10
492.7882
20
334.4000
30
0.0
11
497.6673
21
334.4000
31
0.0
0
LINE
8
CUT
10
497.6673
20
334.4000
30
0.0
11
502.5464
21
334.4000
31
0.0
0
LINE
8
CUT
10
502.5464
20
334.4000
30
0.0
11
507.4255
21
334.3991
31
0.0
0
LINE
8
CUT
10
507.4255
20
334.3991
30
0.0
11
512.3045
21
333.9550
31
0.0
0
LINE
8
CUT
10
512.3045
20
333.9550
30
0.0
11
517.1836
21
332.6593
31
0.0
0
LINE
8
CUT
10
517.1836
20
332.6593
30
0.0
11
522.0627
21
330.3823
31
0.0
0
LINE
8
CUT
10
522.0627
20
330.3823
30
0.0
11
526.9418
21
326.8206
31
0.0
0
LINE
8
CUT
10
526.9418
20
326.8206
30
0.0
11
531.8209
21
321.1499
31
0.0
0
LINE
8
CUT
10
531.8209
20
321.1499
30
0.0
11
536.7000
21
304.9000
31
0.0
0
LINE
8
CUT
10
536.7000
20
304.9000
30
0.0
11
536.7000
21
29.5000
31
0.0
0
LINE
8
CUT
10
536.7000
20
29.5000
30
0.0
11
531.8209
21
13.2501
31
0.0
0
LINE
8
CUT
10
531.8209
20
13.2501
30
0.0
11
526.9418
21
7.5794
31
0.0
0
LINE
8
CUT
10
526.9418
20
7.5794
30
0.0
11
522.0627
21
4.0177
31
0.0
0
LINE
8
CUT
10
522.0627
20
4.0177
30
0.0
11
517.1836
21
1.7407
31
0.0
0
LINE
8
CUT
10
517.1836
20
1.7407
30
0.0
11
512.3045
21
0.4450
31
0.0
0
LINE
8
CUT
10
512.3045
20
0.4450
30
0.0
11
507.4255
21
0.0009
31
0.0
0
LINE
8
CUT
10
507.4255
20
0.0009
30
0.0
11
502.5464
21
0.0000
31
0.0
0
LINE
8
CUT
10
502.5464
20
0.0000
30
0.0
11
497.6673
21
0.0000
31
0.0
0
LINE
8
CUT
10
497.6673
20
0.0000
30
0.0
11
492.7882
21
0.0000
31
0.0
0
LINE
8
CUT
10
492.7882
20
0.0000
30
0.0
11
487.9091
21
0.0000
31
0.0
0
LINE
8
CUT
10
487.9091
20
0.0000
30
0.0
11
483.0300
21
0.0000
31
0.0
0
LINE
8
CUT
10
483.0300
20
0.0000
30
0.0
11
478.1509
21
0.0000
31
0.0
0
LINE
8
CUT
10
478.1509
20
0.0000
30
0.0
11
473.2718
21
0.0000
31
0.0
0
LINE
8
CUT
10
473.2718
20
0.0000
30
0.0
11
468.3927
21
0.0000
31
0.0
0
LINE
8
CUT
10
468.3927
20
0.0000
30
0.0
11
463.5136
21
0.0000
31
0.0
0
LINE
8
CUT
10
463.5136
20
0.0000
30
0.0
11
458.6345
21
0.0000
31
0.0
0
LINE
8
CUT
10
458.6345
20
0.0000
30
0.0
11
453.7555
21
0.0000
31
0.0
0
LINE
8
CUT
10
453.7555
20
0.0000
30
0.0
11
448.8764
21
0.0000
31
0.0
0
LINE
8
CUT
10
448.8764
20
0.0000
30
0.0
11
443.9973
21
0.0000
31
0.0
0
LINE
8
CUT
10
443.9973
20
0.0000
30
0.0
11
439.1182
21
0.0000
31
0.0
0
LINE
8
CUT
10
439.1182
20
0.0000
30
0.0
11
434.2391
21
0.0000
31
0.0
0
LINE
8
CUT
10
434.2391
20
0.0000
30
0.0
11
429.3600
21
0.0000
31
0.0
0
LINE
8
CUT
10
429.3600
20
0.0000
30
0.0
11
424.4809
21
0.0000
31
0.0
0
LINE
8
CUT
10
424.4809
20
0.0000
30
0.0
11
419.6018
21
0.0000
31
0.0
0
LINE
8
CUT
10
419.6018
20
0.0000
30
0.0
11
414.7227
21
0.0000
31
0.0
0
LINE
8
CUT
10
414.7227
20
0.0000
30
0.0
11
409.8436
21
0.0000
31
0.0
0
LINE
8
CUT
10
409.8436
20
0.0000
30
0.0
11
404.9645
21
0.0000
31
0.0
0
LINE
8
CUT
10
404.9645
20
0.0000
30
0.0
11
400.0855
21
0.0000
31
0.0
0
LINE
8
CUT
10
400.0855
20
0.0000
30
0.0
11
395.2064
21
0.0000
31
0.0
0
LINE
8
CUT
10
395.2064
20
0.0000
30
0.0
11
390.3273
21
0.0000
31
0.0
0
LINE
8
CUT
10
390.3273
20
0.0000
30
0.0
11
385.4482
21
0.0000
31
0.0
0
LINE
8
CUT
10
385.4482
20
0.0000
30
0.0
11
380.5691
21
0.0000
31
0.0
0
LINE
8
CUT
10
380.5691
20
0.0000
30
0.0
11
375.6900
21
0.0000
31
0.0
0
LINE
8
CUT
10
375.6900
20
0.0000
30
0.0
11
370.8109
21
0.0000
31
0.0
0
LINE
8
CUT
10
370.8109
20
0.0000
30
0.0
11
365.9318
21
0.0000
31
0.0
0
LINE
8
CUT
10
365.9318
20
0.0000
30
0.0
11
361.0527
21
0.0000
31
0.0
0
LINE
8
CUT
10
361.0527
20
0.0000
30
0.0
11
356.1736
21
0.0000
31
0.0
0
LINE
8
CUT
10
356.1736
20
0.0000
30
0.0
11
351.2945
21
0.0000
31
0.0
0
LINE
8
CUT
10
351.2945
20
0.0000
30
0.0
11
346.4155
21
0.0000
31
0.0
0
LINE
8
CUT
10
346.4155
20
0.0000
30
0.0
11
341.5364
21
0.0000
31
0.0
0
LINE
8
CUT
10
341.5364
20
0.0000
30
0.0
11
336.6573
21
0.0000
31
0.0
0
LINE
8
CUT
10
336.6573
20
0.0000
30
0.0
11
331.7782
21
0.0000
31
0.0
0
LINE
8
CUT
10
331.7782
20
0.0000
30
0.0
11
326.8991
21
0.0000
31
0.0
0
LINE
8
CUT
10
326.8991
20
0.0000
30
0.0
11
322.0200
21
0.0000
31
0.0
0
LINE
8
CUT
10
322.0200
20
0.0000
30
0.0
11
317.1409
21
0.0000
31
0.0
0
LINE
8
CUT
10
317.1409
20
0.0000
30
0.0
11
312.2618
21
0.0000
31
0.0
0
LINE
8
CUT
10
312.2618
20
0.0000
30
0.0
11
307.3827
21
0.0000
31
0.0
0
LINE
8
CUT
10
307.3827
20
0.0000
30
0.0
11
302.5036
21
0.0000
31
0.0
0
LINE
8
CUT
10
302.5036
20
0.0000
30
0.0
11
297.6245
21
0.0000
31
0.0
0
LINE
8
CUT
10
297.6245
20
0.0000
30
0.0
11
292.7455
21
0.0000
31
0.0
0
LINE
8
CUT
10
292.7455
20
0.0000
30
0.0
11
287.8664
21
0.0000
31
0.0
0
LINE
8
CUT
10
287.8664
20
0.0000
30
0.0
11
282.9873
21
0.0000
31
0.0
0
LINE
8
CUT
10
282.9873
20
0.0000
30
0.0
11
278.1082
21
0.0000
31
0.0
0
LINE
8
CUT
10
278.1082
20
0.0000
30
0.0
11
273.2291
21
0.0000
31
0.0
0
LINE
8
CUT
10
273.2291
20
0.0000
30
0.0
11
268.3500
21
0.0000
31
0.0
0
LINE
8
CUT
10
268.3500
20
0.0000
30
0.0
11
263.4709
21
0.0000
31
0.0
0
LINE
8
CUT
10
263.4709
20
0.0000
30
0.0
11
258.5918
21
0.0000
31
0.0
0
LINE
8
CUT
10
258.5918
20
0.0000
30
0.0
11
253.7127
21
0.0000
31
0.0
0
LINE
8
CUT
10
253.7127
20
0.0000
30
0.0
11
248.8336
21
0.0000
31
0.0
0
LINE
8
CUT
10
248.8336
20
0.0000
30
0.0
11
243.9545
21
0.0000
31
0.0
0
LINE
8
CUT
10
243.9545
20
0.0000
30
0.0
11
239.0755
21
0.0000
31
0.0
0
LINE
8
CUT
10
239.0755
20
0.0000
30
0.0
11
234.1964
21
0.0000
31
0.0
0
LINE
8
CUT
10
234.1964
20
0.0000
30
0.0
11
229.3173
21
0.0000
31
0.0
0
LINE
8
CUT
10
229.3173
20
0.0000
30
0.0
11
224.4382
21
0.0000
31
0.0
0
LINE
8
CUT
10
224.4382
20
0.0000
30
0.0
11
219.5591
21
0.0000
31
0.0
0
LINE
8
CUT
10
219.5591
20
0.0000
30
0.0
11
214.6800
21
0.0000
31
0.0
0
LINE
8
CUT
10
214.6800
20
0.0000
30
0.0
11
209.8009
21
0.0000
31
0.0
0
LINE
8
CUT
10
209.8009
20
0.0000
30
0.0
11
204.9218
21
0.0000
31
0.0
0
LINE
8
CUT
10
204.9218
20
0.0000
30
0.0
11
200.0427
21
0.0000
31
0.0
0
LINE
8
CUT
10
200.0427
20
0.0000
30
0.0
11
195.1636
21
0.0000
31
0.0
0
LINE
8
CUT
10
195.1636
20
0.0000
30
0.0
11
190.2845
21
0.0000
31
0.0
0
LINE
8
CUT
10
190.2845
20
0.0000
30
0.0
11
185.4055
21
0.0000
31
0.0
0
LINE
8
CUT
10
185.4055
20
0.0000
30
0.0
11
180.5264
21
0.0000
31
0.0
0
LINE
8
CUT
10
180.5264
20
0.0000
30
0.0
11
175.6473
21
0.0000
31
0.0
0
LINE
8
CUT
10
175.6473
20
0.0000
30
0.0
11
170.7682
21
0.0000
31
0.0
0
LINE
8
CUT
10
170.7682
20
0.0000
30
0.0
11
165.8891
21
0.0000
31
0.0
0
LINE
8
CUT
10
165.8891
20
0.0000
30
0.0
11
161.0100
21
0.0000
31
0.0
0
LINE
8
CUT
10
161.0100
20
0.0000
30
0.0
11
156.1309
21
0.0000
31
0.0
0
LINE
8
CUT
10
156.1309
20
0.0000
30
0.0
11
151.2518
21
0.0000
31
0.0
0
LINE
8
CUT
10
151.2518
20
0.0000
30
0.0
11
146.3727
21
0.0000
31
0.0
0
LINE
8
CUT
10
146.3727
20
0.0000
30
0.0
11
141.4936
21
0.0000
31
0.0
0
LINE
8
CUT
10
141.4936
20
0.0000
30
0.0
11
136.6145
21
0.0000
31
0.0
0
LINE
8
CUT
10
136.6145
20
0.0000
30
0.0
11
131.7355
21
0.0000
31
0.0
0
LINE
8
CUT
10
131.7355
20
0.0000
30
0.0
11
126.8564
21
0.0000
31
0.0
0
LINE
8
CUT
10
126.8564
20
0.0000
30
0.0
11
121.9773
21
0.0000
31
0.0
0
LINE
8
CUT
10
121.9773
20
0.0000
30
0.0
11
117.0982
21
0.0000
31
0.0
0
LINE
8
CUT
10
117.0982
20
0.0000
30
0.0
11
112.2191
21
0.0000
31
0.0
0
LINE
8
CUT
10
112.2191
20
0.0000
30
0.0
11
107.3400
21
0.0000
31
0.0
0
LINE
8
CUT
10
107.3400
20
0.0000
30
0.0
11
102.4609
21
0.0000
31
0.0
0
LINE
8
CUT
10
102.4609
20
0.0000
30
0.0
11
97.5818
21
0.0000
31
0.0
0
LINE
8
CUT
10
97.5818
20
0.0000
30
0.0
11
92.7027
21
0.0000
31
0.0
0
LINE
8
CUT
10
92.7027
20
0.0000
30
0.0
11
87.8236
21
0.0000
31
0.0
0
LINE
8
CUT
10
87.8236
20
0.0000
30
0.0
11
82.9445
21
0.0000
31
0.0
0
LINE
8
CUT
10
82.9445
20
0.0000
30
0.0
11
78.0655
21
0.0000
31
0.0
0
LINE
8
CUT
10
78.0655
20
0.0000
30
0.0
11
73.1864
21
0.0000
31
0.0
0
LINE
8
CUT
10
73.1864
20
0.0000
30
0.0
11
68.3073
21
0.0000
31
0.0
0
LINE
8
CUT
10
68.3073
20
0.0000
30
0.0
11
63.4282
21
0.0000
31
0.0
0
LINE
8
CUT
10
63.4282
20
0.0000
30
0.0
11
58.5491
21
0.0000
31
0.0
0
LINE
8
CUT
10
58.5491
20
0.0000
30
0.0
11
53.6700
21
0.0000
31
0.0
0
LINE
8
CUT
10
53.6700
20
0.0000
30
0.0
11
48.7909
21
0.0000
31
0.0
0
LINE
8
CUT
10
48.7909
20
0.0000
30
0.0
11
43.9118
21
0.0000
31
0.0
0
LINE
8
CUT
10
43.9118
20
0.0000
30
0.0
11
39.0327
21
0.0000
31
0.0
0
LINE
8
CUT
10
39.0327
20
0.0000
30
0.0
11
34.1536
21
0.0000
31
0.0
0
LINE
8
CUT
10
34.1536
20
0.0000
30
0.0
11
29.2745
21
0.0009
31
0.0
0
LINE
8
CUT
10
29.2745
20
0.0009
30
0.0
11
24.3955
21
0.4450
31
0.0
0
LINE
8
CUT
10
24.3955
20
0.4450
30
0.0
11
19.5164
21
1.7407
31
0.0
0
LINE
8
CUT
10
19.5164
20
1.7407
30
0.0
11
14.6373
21
4.0177
31
0.0
0
LINE
8
CUT
10
14.6373
20
4.0177
30
0.0
11
9.7582
21
7.5794
31
0.0
0
LINE
8
CUT
10
9.7582
20
7.5794
30
0.0
11
4.8791
21
13.2501
31
0.0
0
LINE
8
CUT
10
4.8791
20
13.2501
30
0.0
11
0.0000
21
29.5000
31
0.0
0
LINE
8
CUT
10
0.0000
20
29.5000
30
0.0
11
0.0000
21
304.9000
31
0.0
0
LINE
8
CUT
10
0.0000
20
304.9000
30
0.0
11
0.0000
21
304.9000
31
0.0
0
LINE
8
CUT
10
544.7000
20
280.0234
30
0.0
11
546.2573
21
290.9769
31
0.0
0
LINE
8
CUT
10
546.2573
20
290.9769
30
0.0
11
547.8145
21
294.9034
31
0.0
0
LINE
8
CUT
10
547.8145
20
294.9034
30
0.0
11
549.3718
21
297.6258
31
0.0
0
LINE
8
CUT
10
549.3718
20
297.6258
30
0.0
11
550.9291
21
299.6015
31
0.0
0
LINE
8
CUT
10
550.9291
20
299.6015
30
0.0
11
552.4864
21
301.2557
31
0.0
0
LINE
8
CUT
10
552.4864
20
301.2557
30
0.0
11
554.0436
21
302.5979
31
0.0
0
LINE
8
CUT
10
554.0436
20
302.5979
30
0.0
11
555.6009
21
303.6956
31
0.0
0
LINE
8
CUT
10
555.6009
20
303.6956
30
0.0
11
557.1582
21
304.5929
31
0.0
0
LINE
8
CUT
10
557.1582
20
304.5929
30
0.0
11
558.7155
21
305.3207
31
0.0
0
LINE
8
CUT
10
558.7155
20
305.3207
30
0.0
11
560.2727
21
305.9016
31
0.0
0
LINE
8
CUT
10
560.2727
20
305.9016
30
0.0
11
561.8300
21
306.3525
31
0.0
0
LINE
8
CUT
10
561.8300
20
306.3525
30
0.0
11
563.3873
21
306.6866
31
0.0
0
LINE
8
CUT
10
563.3873
20
306.6866
30
0.0
11
564.9445
21
306.9144
31
0.0
0
LINE
8
CUT
10
564.9445
20
306.9144
30
0.0
11
566.5018
21
307.0444
31
0.0
0
LINE
8
CUT
10
566.5018
20
307.0444
30
0.0
11
568.0591
21
307.0835
31
0.0
0
LINE
8
CUT
10
568.0591
20
307.0835
30
0.0
11
569.6164
21
307.0376
31
0.0
0
LINE
8
CUT
10
569.6164
20
307.0376
30
0.0
11
571.1736
21
306.9113
31
0.0
0
LINE
8
CUT
10
571.1736
20
306.9113
30
0.0
11
572.7309
21
306.7087
31
0.0
0
LINE
8
CUT
10
572.7309
20
306.7087
30
0.0
11
574.2882
21
306.4332
31
0.0
0
LINE
8
CUT
10
574.2882
20
306.4332
30
0.0
11
575.8455
21
306.0878
31
0.0
0
LINE
8
CUT
10
575.8455
20
306.0878
30
0.0
11
577.4027
21
305.6748
31
0.0
0
LINE
8
CUT
10
577.4027
20
305.6748
30
0.0
11
578.9600
21
305.1963
31
0.0
0
LINE
8
CUT
10
578.9600
20
305.1963
30
0.0
11
580.5173
21
304.6541
31
0.0
0
LINE
8
CUT
10
580.5173
20
304.6541
30
0.0
11
582.0745
21
304.0496
31
0.0
0
LINE
8
CUT
10
582.0745
20
304.0496
30
0.0
11
583.6318
21
303.3839
31
0.0
0
LINE
8
CUT
10
583.6318
20
303.3839
30
0.0
11
585.1891
21
302.6580
31
0.0
0
LINE
8
CUT
10
585.1891
20
302.6580
30
0.0
11
586.7464
21
301.8726
31
0.0
0
LINE
8
CUT
10
586.7464
20
301.8726
30
0.0
11
588.3036
21
301.0282
31
0.0
0
LINE
8
CUT
10
588.3036
20
301.0282
30
0.0
11
589.8609
21
300.1254
31
0.0
0
LINE
8
CUT
10
589.8609
20
300.1254
30
0.0
11
591.4182
21
299.1963
31
0.0
0
LINE
8
CUT
10
591.4182
20
299.1963
30
0.0
11
592.9755
21
298.2625
31
0.0
0
LINE
8
CUT
10
592.9755
20
298.2625
30
0.0
11
594.5327
21
297.3242
31
0.0
0
LINE
8
CUT
10
594.5327
20
297.3242
30
0.0
11
596.0900
21
296.3812
31
0.0
0
LINE
8
CUT
10
596.0900
20
296.3812
30
0.0
11
597.6473
21
295.4337
31
0.0
0
LINE
8
CUT
10
597.6473
20
295.4337
30
0.0
11
599.2045
21
294.4817
31
0.0
0
LINE
8
CUT
10
599.2045
20
294.4817
30
0.0
11
600.7618
21
293.5252
31
0.0
0
LINE
8
CUT
10
600.7618
20
293.5252
30
0.0
11
602.3191
21
292.5643
31
0.0
0
LINE
8
CUT
10
602.3191
20
292.5643
30
0.0
11
603.8764
21
291.5989
31
0.0
0
LINE
8
CUT
10
603.8764
20
291.5989
30
0.0
11
605.4336
21
290.6292
31
0.0
0
LINE
8
CUT
10
605.4336
20
290.6292
30
0.0
11
606.9909
21
289.6551
31
0.0
0
LINE
8
CUT
10
606.9909
20
289.6551
30
0.0
11
608.5482
21
288.6767
31
0.0
0
LINE
8
CUT
10
608.5482
20
288.6767
30
0.0
11
610.1055
21
287.6940
31
0.0
0
LINE
8
CUT
10
610.1055
20
287.6940
30
0.0
11
611.6627
21
286.7070
31
0.0
0
LINE
8
CUT
10
611.6627
20
286.7070
30
0.0
11
613.2200
21
285.7159
31
0.0
0
LINE
8
CUT
10
613.2200
20
285.7159
30
0.0
11
614.7773
21
284.7206
31
0.0
0
LINE
8
CUT
10
614.7773
20
284.7206
30
0.0
11
616.3345
21
283.7211
31
0.0
0
LINE
8
CUT
10
616.3345
20
283.7211
30
0.0
11
617.8918
21
282.7175
31
0.0
0
LINE
8
CUT
10
617.8918
20
282.7175
30
0.0
11
619.4491
21
281.7099
31
0.0
0
LINE
8
CUT
10
619.4491
20
281.7099
30
0.0
11
621.0064
21
280.6982
31
0.0
0
LINE
8
CUT
10
621.0064
20
280.6982
30
0.0
11
622.5636
21
279.6825
31
0.0
0
LINE
8
CUT
10
622.5636
20
279.6825
30
0.0
11
624.1209
21
278.6629
31
0.0
0
LINE
8
CUT
10
624.1209
20
278.6629
30
0.0
11
625.6782
21
277.6393
31
0.0
0
LINE
8
CUT
10
625.6782
20
277.6393
30
0.0
11
627.2355
21
276.6118
31
0.0
0
LINE
8
CUT
10
627.2355
20
276.6118
30
0.0
11
628.7927
21
275.5805
31
0.0
0
LINE
8
CUT
10
628.7927
20
275.5805
30
0.0
11
630.3500
21
274.5454
31
0.0
0
LINE
8
CUT
10
630.3500
20
274.5454
30
0.0
11
631.9073
21
273.5065
31
0.0
0
LINE
8
CUT
10
631.9073
20
273.5065
30
0.0
11
633.4645
21
272.4638
31
0.0
0
LINE
8
CUT
10
633.4645
20
272.4638
30
0.0
11
635.0218
21
271.4175
31
0.0
0
LINE
8
CUT
10
635.0218
20
271.4175
30
0.0
11
636.5791
21
270.3675
31
0.0
0
LINE
8
CUT
10
636.5791
20
270.3675
30
0.0
11
638.1364
21
269.3138
31
0.0
0
LINE
8
CUT
10
638.1364
20
269.3138
30
0.0
11
639.6936
21
268.2566
31
0.0
0
LINE
8
CUT
10
639.6936
20
268.2566
30
0.0
11
641.2509
21
267.1959
31
0.0
0
LINE
8
CUT
10
641.2509
20
267.1959
30
0.0
11
642.8082
21
266.1316
31
0.0
0
LINE
8
CUT
10
642.8082
20
266.1316
30
0.0
11
644.3655
21
265.0639
31
0.0
0
LINE
8
CUT
10
644.3655
20
265.0639
30
0.0
11
645.9227
21
263.9927
31
0.0
0
LINE
8
CUT
10
645.9227
20
263.9927
30
0.0
11
647.4800
21
262.9182
31
0.0
0
LINE
8
CUT
10
647.4800
20
262.9182
30
0.0
11
649.0373
21
261.9730
31
0.0
0
LINE
8
CUT
10
649.0373
20
261.9730
30
0.0
11
650.5945
21
260.8905
31
0.0
0
LINE
8
CUT
10
650.5945
20
260.8905
30
0.0
11
652.1518
21
259.8047
31
0.0
0
LINE
8
CUT
10
652.1518
20
259.8047
30
0.0
11
653.7091
21
258.7158
31
0.0
0
LINE
8
CUT
10
653.7091
20
258.7158
30
0.0
11
655.2664
21
257.6236
31
0.0
0
LINE
8
CUT
10
655.2664
20
257.6236
30
0.0
11
656.8236
21
256.5283
31
0.0
0
LINE
8
CUT
10
656.8236
20
256.5283
30
0.0
11
658.3809
21
255.4299
31
0.0
0
LINE
8
CUT
10
658.3809
20
255.4299
30
0.0
11
659.9382
21
254.3285
31
0.0
0
LINE
8
CUT
10
659.9382
20
254.3285
30
0.0
11
661.4955
21
253.2240
31
0.0
0
LINE
8
CUT
10
661.4955
20
253.2240
30
0.0
11
663.0527
21
252.1166
31
0.0
0
LINE
8
CUT
10
663.0527
20
252.1166
30
0.0
11
664.6100
21
251.0063
31
0.0
0
LINE
8
CUT
10
664.6100
20
251.0063
30
0.0
11
666.1673
21
249.8931
31
0.0
0
LINE
8
CUT
10
666.1673
20
249.8931
30
0.0
11
667.7245
21
248.7771
31
0.0
0
LINE
8
CUT
10
667.7245
20
248.7771
30
0.0
11
669.2818
21
247.6583
31
0.0
0
LINE
8
CUT
10
669.2818
20
247.6583
30
0.0
11
670.8391
21
246.5368
31
0.0
0
LINE
8
CUT
10
670.8391
20
246.5368
30
0.0
11
672.3964
21
245.3909
31
0.0
0
LINE
8
CUT
10
672.3964
20
245.3909
30
0.0
11
673.9536
21
244.1887
31
0.0
0
LINE
8
CUT
10
673.9536
20
244.1887
30
0.0
11
675.5109
21
242.9297
31
0.0
0
LINE
8
CUT
10
675.5109
20
242.9297
30
0.0
11
677.0682
21
241.6133
31
0.0
0
LINE
8
CUT
10
677.0682
20
241.6133
30
0.0
11
678.6255
21
240.2391
31
0.0
0
LINE
8
CUT
10
678.6255
20
240.2391
30
0.0
11
680.1827
21
238.8061
31
0.0
0
LINE
8
CUT
10
680.1827
20
238.8061
30
0.0
11
681.7400
21
237.3132
31
0.0
0
LINE
8
CUT
10
681.7400
20
237.3132
30
0.0
11
683.2973
21
235.7591
31
0.0
0
LINE
8
CUT
10
683.2973
20
235.7591
30
0.0
11
684.8545
21
234.1421
31
0.0
0
LINE
8
CUT
10
684.8545
20
234.1421
30
0.0
11
686.4118
21
232.4603
31
0.0
0
LINE
8
CUT
10
686.4118
20
232.4603
30
0.0
11
687.9691
21
230.7112
31
0.0
0
LINE
8
CUT
10
687.9691
20
230.7112
30
0.0
11
689.5264
21
228.8922
31
0.0
0
LINE
8
CUT
10
689.5264
20
228.8922
30
0.0
11
691.0836
21
226.9997
31
0.0
0
LINE
8
CUT
10
691.0836
20
226.9997
30
0.0
11
692.6409
21
225.0300
31
0.0
0
LINE
8
CUT
10
692.6409
20
225.0300
30
0.0
11
694.1982
21
222.9782
31
0.0
0
LINE
8
CUT
10
694.1982
20
222.9782
30
0.0
11
695.7555
21
220.8388
31
0.0
0
LINE
8
CUT
10
695.7555
20
220.8388
30
0.0
11
697.3127
21
218.6047
31
0.0
0
LINE
8
CUT
10
697.3127
20
218.6047
30
0.0
11
698.8700
21
216.2678
31
0.0
0
LINE
8
CUT
10
698.8700
20
216.2678
30
0.0
11
700.4273
21
213.8174
31
0.0
0
LINE
8
CUT
10
700.4273
20
213.8174
30
0.0
11
701.9845
21
211.2406
31
0.0
0
LINE
8
CUT
10
701.9845
20
211.2406
30
0.0
11
703.5418
21
208.5204
31
0.0
0
LINE
8
CUT
10
703.5418
20
208.5204
30
0.0
11
705.0991
21
205.6343
31
0.0
0
LINE
8
CUT
10
705.0991
20
205.6343
30
0.0
11
706.6564
21
202.5516
31
0.0
0
LINE
8
CUT
10
706.6564
20
202.5516
30
0.0
11
708.2136
21
199.2282
31
0.0
0
LINE
8
CUT
10
708.2136
20
199.2282
30
0.0
11
709.7709
21
195.5968
31
0.0
0
LINE
8
CUT
10
709.7709
20
195.5968
30
0.0
11
711.3282
21
191.5443
31
0.0
0
LINE
8
CUT
10
711.3282
20
191.5443
30
0.0
11
712.8855
21
186.8521
31
0.0
0
LINE
8
CUT
10
712.8855
20
186.8521
30
0.0
11
714.4427
21
180.9600
31
0.0
0
LINE
8
CUT
10
714.4427
20
180.9600
30
0.0
11
716.0000
21
168.0453
31
0.0
0
LINE
8
CUT
10
716.0000
20
168.0453
30
0.0
11
716.0000
21
139.0383
31
0.0
0
LINE
8
CUT
10
716.0000
20
139.0383
30
0.0
11
714.4427
21
126.1235
31
0.0
0
LINE
8
CUT
10
714.4427
20
126.1235
30
0.0
11
712.8855
21
120.2314
31
0.0
0
LINE
8
CUT
10
712.8855
20
120.2314
30
0.0
11
711.3282
21
115.5393
31
0.0
0
LINE
8
CUT
10
711.3282
20
115.5393
30
0.0
11
709.7709
21
111.4868
31
0.0
0
LINE
8
CUT
10
709.7709
20
111.4868
30
0.0
11
708.2136
21
107.8553
31
0.0
0
LINE
8
CUT
10
708.2136
20
107.8553
30
0.0
11
706.6564
21
104.5319
31
0.0
0
LINE
8
CUT
10
706.6564
20
104.5319
30
0.0
11
705.0991
21
101.4492
31
0.0
0
LINE
8
CUT
10
705.0991
20
101.4492
30
0.0
11
703.5418
21
98.5632
31
0.0
0
LINE
8
CUT
10
703.5418
20
98.5632
30
0.0
11
701.9845
21
95.8429
31
0.0
0
LINE
8
CUT
10
701.9845
20
95.8429
30
0.0
11
700.4273
21
93.2661
31
0.0
0
LINE
8
CUT
10
700.4273
20
93.2661
30
0.0
11
698.8700
21
90.8158
31
0.0
0
LINE
8
CUT
10
698.8700
20
90.8158
30
0.0
11
697.3127
21
88.4788
31
0.0
0
LINE
8
CUT
10
697.3127
20
88.4788
30
0.0
11
695.7555
21
86.2448
31
0.0
0
LINE
8
CUT
10
695.7555
20
86.2448
30
0.0
11
694.1982
21
84.1053
31
0.0
0
LINE
8
CUT
10
694.1982
20
84.1053
30
0.0
11
692.6409
21
82.0535
31
0.0
0
LINE
8
CUT
10
692.6409
20
82.0535
30
0.0
11
691.0836
21
80.0838
31
0.0
0
LINE
8
CUT
10
691.0836
20
80.0838
30
0.0
11
689.5264
21
78.1914
31
0.0
0
LINE
8
CUT
10
689.5264
20
78.1914
30
0.0
11
687.9691
21
76.3723
31
0.0
0
LINE
8
CUT
10
687.9691
20
76.3723
30
0.0
11
686.4118
21
74.6233
31
0.0
0
LINE
8
CUT
10
686.4118
20
74.6233
30
0.0
11
684.8545
21
72.9414
31
0.0
0
LINE
8
CUT
10
684.8545
20
72.9414
30
0.0
11
683.2973
21
71.3244
31
0.0
0
LINE
8
CUT
10
683.2973
20
71.3244
30
0.0
11
681.7400
21
69.7703
31
0.0
0
LINE
8
CUT
10
681.7400
20
69.7703
30
0.0
11
680.1827
21
68.2775
31
0.0
0
LINE
8
CUT
10
680.1827
20
68.2775
30
0.0
11
678.6255
21
66.8445
31
0.0
0
LINE
8
CUT
10
678.6255
20
66.8445
30
0.0
11
677.0682
21
65.4702
31
0.0
0
LINE
8
CUT
10
677.0682
20
65.4702
30
0.0
11
675.5109
21
64.1539
31
0.0
0
LINE
8
CUT
10
675.5109
20
64.1539
30
0.0
11
673.9536
21
62.8948
31
0.0
0
LINE
8
CUT
10
673.9536
20
62.8948
30
0.0
11
672.3964
21
61.6926
31
0.0
0
LINE
8
CUT
10
672.3964
20
61.6926
30
0.0
11
670.8391
21
60.5467
31
0.0
0
LINE
8
CUT
10
670.8391
20
60.5467
30
0.0
11
669.2818
21
59.4252
31
0.0
0
LINE
8
CUT
10
669.2818
20
59.4252
30
0.0
11
667.7245
21
58.3064
31
0.0
0
LINE
8
CUT
10
667.7245
20
58.3064
30
0.0
11
666.1673
21
57.1904
31
0.0
0
LINE
8
CUT
10
666.1673
20
57.1904
30
0.0
11
664.6100
21
56.0772
31
0.0
0
LINE
8
CUT
10
664.6100
20
56.0772
30
0.0
11
663.0527
21
54.9669
31
0.0
0
LINE
8
CUT
10
663.0527
20
54.9669
30
0.0
11
661.4955
21
53.8595
31
0.0
0
LINE
8
CUT
10
661.4955
20
53.8595
30
0.0
11
659.9382
21
52.7551
31
0.0
0
LINE
8
CUT
10
659.9382
20
52.7551
30
0.0
11
658.3809
21
51.6536
31
0.0
0
LINE
8
CUT
10
658.3809
20
51.6536
30
0.0
11
656.8236
21
50.5552
31
0.0
0
LINE
8
CUT
10
656.8236
20
50.5552
30
0.0
11
655.2664
21
49.4599
31
0.0
0
LINE
8
CUT
10
655.2664
20
49.4599
30
0.0
11
653.7091
21
48.3678
31
0.0
0
LINE
8
CUT
10
653.7091
20
48.3678
30
0.0
11
652.1518
21
47.2788
31
0.0
0
LINE
8
CUT
10
652.1518
20
47.2788
30
0.0
11
650.5945
21
46.1930
31
0.0
0
LINE
8
CUT
10
650.5945
20
46.1930
30
0.0
11
649.0373
21
45.1105
31
0.0
0
LINE
8
CUT
10
649.0373
20
45.1105
30
0.0
11
647.4800
21
44.1654
31
0.0
0
LINE
8
CUT
10
647.4800
20
44.1654
30
0.0
11
645.9227
21
43.0908
31
0.0
0
LINE
8
CUT
10
645.9227
20
43.0908
30
0.0
11
644.3655
21
42.0197
31
0.0
0
LINE
8
CUT
10
644.3655
20
42.0197
30
0.0
11
642.8082
21
40.9519
31
0.0
0
LINE
8
CUT
10
642.8082
20
40.9519
30
0.0
11
641.2509
21
39.8877
31
0.0
0
LINE
8
CUT
10
641.2509
20
39.8877
30
0.0
11
639.6936
21
38.8269
31
0.0
0
LINE
8
CUT
10
639.6936
20
38.8269
30
0.0
11
638.1364
21
37.7697
31
0.0
0
LINE
8
CUT
10
638.1364
20
37.7697
30
0.0
11
636.5791
21
36.7161
31
0.0
0
LINE
8
CUT
10
636.5791
20
36.7161
30
0.0
11
635.0218
21
35.6661
31
0.0
0
LINE
8
CUT
10
635.0218
20
35.6661
30
0.0
11
633.4645
21
34.6197
31
0.0
0
LINE
8
CUT
10
633.4645
20
34.6197
30
0.0
11
631.9073
21
33.5771
31
0.0
0
LINE
8
CUT
10
631.9073
20
33.5771
30
0.0
11
630.3500
21
32.5381
31
0.0
0
LINE
8
CUT
10
630.3500
20
32.5381
30
0.0
11
628.7927
21
31.5030
31
0.0
0
LINE
8
CUT
10
628.7927
20
31.5030
30
0.0
11
627.2355
21
30.4717
31
0.0
0
LINE
8
CUT
10
627.2355
20
30.4717
30
0.0
11
625.6782
21
29.4442
31
0.0
0
LINE
8
CUT
10
625.6782
20
29.4442
30
0.0
11
624.1209
21
28.4207
31
0.0
0
LINE
8
CUT
10
624.1209
20
28.4207
30
0.0
11
622.5636
21
27.4010
31
0.0
0
LINE
8
CUT
10
622.5636
20
27.4010
30
0.0
11
621.0064
21
26.3853
31
0.0
0
LINE
8
CUT
10
621.0064
20
26.3853
30
0.0
11
619.4491
21
25.3737
31
0.0
0
LINE
8
CUT
10
619.4491
20
25.3737
30
0.0
11
617.8918
21
24.3660
31
0.0
0
LINE
8
CUT
10
617.8918
20
24.3660
30
0.0
11
616.3345
21
23.3624
31
0.0
0
LINE
8
CUT
10
616.3345
20
23.3624
30
0.0
11
614.7773
21
22.3630
31
0.0
0
LINE
8
CUT
10
614.7773
20
22.3630
30
0.0
11
613.2200
21
21.3676
31
0.0
0
LINE
8
CUT
10
613.2200
20
21.3676
30
0.0
11
611.6627
21
20.3765
31
0.0
0
LINE
8
CUT
10
611.6627
20
20.3765
30
0.0
11
610.1055
21
19.3896
31
0.0
0
LINE
8
CUT
10
610.1055
20
19.3896
30
0.0
11
608.5482
21
18.4069
31
0.0
0
LINE
8
CUT
10
608.5482
20
18.4069
30
0.0
11
606.9909
21
17.4285
31
0.0
0
LINE
8
CUT
10
606.9909
20
17.4285
30
0.0
11
605.4336
21
16.4544
31
0.0
0
LINE
8
CUT
10
605.4336
20
16.4544
30
0.0
11
603.8764
21
15.4846
31
0.0
0
LINE
8
CUT
10
603.8764
20
15.4846
30
0.0
11
602.3191
21
14.5193
31
0.0
0
LINE
8
CUT
10
602.3191
20
14.5193
30
0.0
11
600.7618
21
13.5583
31
0.0
0
LINE
8
CUT
10
600.7618
20
13.5583
30
0.0
11
599.2045
21
12.6018
31
0.0
0
LINE
8
CUT
10
599.2045
20
12.6018
30
0.0
11
597.6473
21
11.6498
31
0.0
0
LINE
8
CUT
10
597.6473
20
11.6498
30
0.0
11
596.0900
21
10.7023
31
0.0
0
LINE
8
CUT
10
596.0900
20
10.7023
30
0.0
11
594.5327
21
9.7594
31
0.0
0
LINE
8
CUT
10
594.5327
20
9.7594
30
0.0
11
592.9755
21
8.8210
31
0.0
0
LINE
8
CUT
10
592.9755
20
8.8210
30
0.0
11
591.4182
21
7.8872
31
0.0
0
LINE
8
CUT
10
591.4182
20
7.8872
30
0.0
11
589.8609
21
6.9581
31
0.0
0
LINE
8
CUT
10
589.8609
20
6.9581
30
0.0
11
588.3036
21
6.0553
31
0.0
0
LINE
8
CUT
10
588.3036
20
6.0553
30
0.0
11
586.7464
21
5.2109
31
0.0
0
LINE
8
CUT
10
586.7464
20
5.2109
30
0.0
11
585.1891
21
4.4256
31
0.0
0
LINE
8
CUT
10
585.1891
20
4.4256
30
0.0
11
583.6318
21
3.6997
31
0.0
0
LINE
8
CUT
10
583.6318
20
3.6997
30
0.0
11
582.0745
21
3.0340
31
0.0
0
LINE
8
CUT
10
582.0745
20
3.0340
30
0.0
11
580.5173
21
2.4294
31
0.0
0
LINE
8
CUT
10
580.5173
20
2.4294
30
0.0
11
578.9600
21
1.8872
31
0.0
0
LINE
8
CUT
10
578.9600
20
1.8872
30
0.0
11
577.4027
21
1.4087
31
0.0
0
LINE
8
CUT
10
577.4027
20
1.4087
30
0.0
11
575.8455
21
0.9957
31
0.0
0
LINE
8
CUT
10
575.8455
20
0.9957
30
0.0
11
574.2882
21
0.6503
31
0.0
0
LINE
8
CUT
10
574.2882
20
0.6503
30
0.0
11
572.7309
21
0.3748
31
0.0
0
LINE
8
CUT
10
572.7309
20
0.3748
30
0.0
11
571.1736
21
0.1723
31
0.0
0
LINE
8
CUT
10
571.1736
20
0.1723
30
0.0
11
569.6164
21
0.0460
31
0.0
0
LINE
8
CUT
10
569.6164
20
0.0460
30
0.0
11
568.0591
21
0.0000
31
0.0
0
LINE
8
CUT
10
568.0591
20
0.0000
30
0.0
11
566.5018
21
0.0391
31
0.0
0
LINE
8
CUT
10
566.5018
20
0.0391
30
0.0
11
564.9445
21
0.1692
31
0.0
0
LINE
8
CUT
10
564.9445
20
0.1692
30
0.0
11
563.3873
21
0.3970
31
0.0
0
LINE
8
CUT
10
563.3873
20
0.3970
30
0.0
11
561.8300
21
0.7311
31
0.0
0
LINE
8
CUT
10
561.8300
20
0.7311
30
0.0
11
560.2727
21
1.1819
31
0.0
0
LINE
8
CUT
10
560.2727
20
1.1819
30
0.0
11
558.7155
21
1.7628
31
0.0
0
LINE
8
CUT
10
558.7155
20
1.7628
30
0.0
11
557.1582
21
2.4906
31
0.0
0
LINE
8
CUT
10
557.1582
20
2.4906
30
0.0
11
555.6009
21
3.3880
31
0.0
0
LINE
8
CUT
10
555.6009
20
3.3880
30
0.0
11
554.0436
21
4.4857
31
0.0
0
LINE
8
CUT
10
554.0436
20
4.4857
30
0.0
11
552.4864
21
5.8278
31
0.0
0
LINE
8
CUT
10
552.4864
20
5.8278
30
0.0
11
550.9291
21
7.4821
31
0.0
0
LINE
8
CUT
10
550.9291
20
7.4821
30
0.0
11
549.3718
21
9.4577
31
0.0
0
LINE
8
CUT
10
549.3718
20
9.4577
30
0.0
11
547.8145
21
12.1802
31
0.0
0
LINE
8
CUT
10
547.8145
20
12.1802
30
0.0
11
546.2573
21
16.1067
31
0.0
0
LINE
8
CUT
10
546.2573
20
16.1067
30
0.0
11
544.7000
21
27.0601
31
0.0
0
LINE
8
CUT
10
544.7000
20
27.0601
30
0.0
11
544.7000
21
280.0234
31
0.0
0
LINE
8
CUT
10
544.7000
20
280.0234
30
0.0
11
544.7000
21
280.0234
31
0.0
0
LINE
8
CUT
10
724.0000
20
243.1002
30
0.0
11
725.0364
21
253.5345
31
0.0
0
LINE
8
CUT
10
725.0364
20
253.5345
30
0.0
11
726.0727
21
258.2622
31
0.0
0
LINE
8
CUT
10
726.0727
20
258.2622
30
0.0
11
727.1091
21
262.0257
31
0.0
0
LINE
8
CUT
10
727.1091
20
262.0257
30
0.0
11
728.1455
21
265.2795
31
0.0
0
LINE
8
CUT
10
728.1455
20
265.2795
30
0.0
11
729.1818
21
268.2006
31
0.0
0
LINE
8
CUT
10
729.1818
20
268.2006
30
0.0
11
730.2182
21
270.8803
31
0.0
0
LINE
8
CUT
10
730.2182
20
270.8803
30
0.0
11
731.2545
21
273.3729
31
0.0
0
LINE
8
CUT
10
731.2545
20
273.3729
30
0.0
11
732.2909
21
275.7142
31
0.0
0
LINE
8
CUT
10
732.2909
20
275.7142
30
0.0
11
733.3273
21
277.9289
31
0.0
0
LINE
8
CUT
10
733.3273
20
277.9289
30
0.0
11
734.3636
21
280.0352
31
0.0
0
LINE
8
CUT
10
734.3636
20
280.0352
30
0.0
11
735.4000
21
282.0468
31
0.0
0
LINE
8
CUT
10
735.4000
20
282.0468
30
0.0
11
736.4364
21
283.9745
31
0.0
0
LINE
8
CUT
10
736.4364
20
283.9745
30
0.0
11
737.4727
21
285.8267
31
0.0
0
LINE
8
CUT
10
737.4727
20
285.8267
30
0.0
11
738.5091
21
287.6103
31
0.0
0
LINE
8
CUT
10
738.5091
20
287.6103
30
0.0
11
739.5455
21
289.3310
31
0.0
0
LINE
8
CUT
10
739.5455
20
289.3310
30
0.0
11
740.5818
21
290.9937
31
0.0
0
LINE
8
CUT
10
740.5818
20
290.9937
30
0.0
11
741.6182
21
292.6024
31
0.0
0
LINE
8
CUT
10
741.6182
20
292.6024
30
0.0
11
742.6545
21
294.1604
31
0.0
0
LINE
8
CUT
10
742.6545
20
294.1604
30
0.0
11
743.6909
21
295.8323
31
0.0
0
LINE
8
CUT
10
743.6909
20
295.8323
30
0.0
11
744.7273
21
297.2985
31
0.0
0
LINE
8
CUT
10
744.7273
20
297.2985
30
0.0
11
745.7636
21
298.7218
31
0.0
0
LINE
8
CUT
10
745.7636
20
298.7218
30
0.0
11
746.8000
21
300.1042
31
0.0
0
LINE
8
CUT
10
746.8000
20
300.1042
30
0.0
11
747.8364
21
301.4474
31
0.0
0
LINE
8
CUT
10
747.8364
20
301.4474
30
0.0
11
748.8727
21
302.7530
31
0.0
0
LINE
8
CUT
10
748.8727
20
302.7530
30
0.0
11
749.9091
21
304.0222
31
0.0
0
LINE
8
CUT
10
749.9091
20
304.0222
30
0.0
11
750.9455
21
305.2563
31
0.0
0
LINE
8
CUT
10
750.9455
20
305.2563
30
0.0
11
751.9818
21
306.4563
31
0.0
0
LINE
8
CUT
10
751.9818
20
306.4563
30
0.0
11
753.0182
21
307.6233
31
0.0
0
LINE
8
CUT
10
753.0182
20
307.6233
30
0.0
11
754.0545
21
308.7580
31
0.0
0
LINE
8
CUT
10
754.0545
20
308.7580
30
0.0
11
755.0909
21
309.8613
31
0.0
0
LINE
8
CUT
10
755.0909
20
309.8613
30
0.0
11
756.1273
21
310.9337
31
0.0
0
LINE
8
CUT
10
756.1273
20
310.9337
30
0.0
11
757.1636
21
311.9760
31
0.0
0
LINE
8
CUT
10
757.1636
20
311.9760
30
0.0
11
758.2000
21
312.9886
31
0.0
0
LINE
8
CUT
10
758.2000
20
312.9886
30
0.0
11
759.2364
21
313.9720
31
0.0
0
LINE
8
CUT
10
759.2364
20
313.9720
30
0.0
11
760.2727
21
314.9267
31
0.0
0
LINE
8
CUT
10
760.2727
20
314.9267
30
0.0
11
761.3091
21
315.8530
31
0.0
0
LINE
8
CUT
10
761.3091
20
315.8530
30
0.0
11
762.3455
21
316.7512
31
0.0
0
LINE
8
CUT
10
762.3455
20
316.7512
30
0.0
11
763.3818
21
317.6215
31
0.0
0
LINE
8
CUT
10
763.3818
20
317.6215
30
0.0
11
764.4182
21
318.4643
31
0.0
0
LINE
8
CUT
10
764.4182
20
318.4643
30
0.0
11
765.4545
21
319.2796
31
0.0
0
LINE
8
CUT
10
765.4545
20
319.2796
30
0.0
11
766.4909
21
320.0676
31
0.0
0
LINE
8
CUT
10
766.4909
20
320.0676
30
0.0
11
767.5273
21
320.8285
31
0.0
0
LINE
8
CUT
10
767.5273
20
320.8285
30
0.0
11
768.5636
21
321.5622
31
0.0
0
LINE
8
CUT
10
768.5636
20
321.5622
30
0.0
11
769.6000
21
322.2728
31
0.0
0
LINE
8
CUT
10
769.6000
20
322.2728
30
0.0
11
770.6364
21
322.9781
31
0.0
0
LINE
8
CUT
10
770.6364
20
322.9781
30
0.0
11
771.6727
21
323.6801
31
0.0
0
LINE
8
CUT
10
771.6727
20
323.6801
30
0.0
11
772.7091
21
324.3788
31
0.0
0
LINE
8
CUT
10
772.7091
20
324.3788
30
0.0
11
773.7455
21
325.0742
31
0.0
0
LINE
8
CUT
10
773.7455
20
325.0742
30
0.0
11
774.7818
21
325.7664
31
0.0
0
LINE
8
CUT
10
774.7818
20
325.7664
30
0.0
11
775.8182
21
326.4552
31
0.0
0
LINE
8
CUT
10
775.8182
20
326.4552
30
0.0
11
776.8545
21
327.1407
31
0.0
0
LINE
8
CUT
10
776.8545
20
327.1407
30
0.0
11
777.8909
21
327.8228
31
0.0
0
LINE
8
CUT
10
777.8909
20
327.8228
30
0.0
11
778.9273
21
328.5016
31
0.0
0
LINE
8
CUT
10
778.9273
20
328.5016
30
0.0
11
779.9636
21
329.1771
31
0.0
0
LINE
8
CUT
10
779.9636
20
329.1771
30
0.0
11
781.0000
21
329.8491
31
0.0
0
LINE
8
CUT
10
781.0000
20
329.8491
30
0.0
11
782.0364
21
330.5177
31
0.0
0
LINE
8
CUT
10
782.0364
20
330.5177
30
0.0
11
783.0727
21
331.1830
31
0.0
0
LINE
8
CUT
10
783.0727
20
331.1830
30
0.0
11
784.1091
21
331.8448
31
0.0
0
LINE
8
CUT
10
784.1091
20
331.8448
30
0.0
11
785.1455
21
332.5032
31
0.0
0
LINE
8
CUT
10
785.1455
20
332.5032
30
0.0
11
786.1818
21
333.3561
31
0.0
0
LINE
8
CUT
10
786.1818
20
333.3561
30
0.0
11
787.2182
21
334.0084
31
0.0
0
LINE
8
CUT
10
787.2182
20
334.0084
30
0.0
11
788.2545
21
334.6573
31
0.0
0
LINE
8
CUT
10
788.2545
20
334.6573
30
0.0
11
789.2909
21
335.3026
31
0.0
0
LINE
8
CUT
10
789.2909
20
335.3026
30
0.0
11
790.3273
21
335.9444
31
0.0
0
LINE
8
CUT
10
790.3273
20
335.9444
30
0.0
11
791.3636
21
336.5828
31
0.0
0
LINE
8
CUT
10
791.3636
20
336.5828
30
0.0
11
792.4000
21
337.2176
31
0.0
0
LINE
8
CUT
10
792.4000
20
337.2176
30
0.0
11
793.4364
21
337.8468
31
0.0
0
LINE
8
CUT
10
793.4364
20
337.8468
30
0.0
11
794.4727
21
338.4525
31
0.0
0
LINE
8
CUT
10
794.4727
20
338.4525
30
0.0
11
795.5091
21
339.0308
31
0.0
0
LINE
8
CUT
10
795.5091
20
339.0308
30
0.0
11
796.5455
21
339.5815
31
0.0
0
LINE
8
CUT
10
796.5455
20
339.5815
30
0.0
11
797.5818
21
340.1046
31
0.0
0
LINE
8
CUT
10
797.5818
20
340.1046
30
0.0
11
798.6182
21
340.5998
31
0.0
0
LINE
8
CUT
10
798.6182
20
340.5998
30
0.0
11
799.6545
21
341.0670
31
0.0
0
LINE
8
CUT
10
799.6545
20
341.0670
30
0.0
11
800.6909
21
341.5059
31
0.0
0
LINE
8
CUT
10
800.6909
20
341.5059
30
0.0
11
801.7273
21
341.9162
31
0.0
0
LINE
8
CUT
10
801.7273
20
341.9162
30
0.0
11
802.7636
21
342.2976
31
0.0
0
LINE
8
CUT
10
802.7636
20
342.2976
30
0.0
11
803.8000
21
342.6497
31
0.0
0
LINE
8
CUT
10
803.8000
20
342.6497
30
0.0
11
804.8364
21
342.9721
31
0.0
0
LINE
8
CUT
10
804.8364
20
342.9721
30
0.0
11
805.8727
21
343.2642
31
0.0
0
LINE
8
CUT
10
805.8727
20
343.2642
30
0.0
11
806.9091
21
343.5255
31
0.0
0
LINE
8
CUT
10
806.9091
20
343.5255
30
0.0
11
807.9455
21
343.7553
31
0.0
0
LINE
8
CUT
10
807.9455
20
343.7553
30
0.0
11
808.9818
21
343.9531
31
0.0
0
LINE
8
CUT
10
808.9818
20
343.9531
30
0.0
11
810.0182
21
344.1178
31
0.0
0
LINE
8
CUT
10
810.0182
20
344.1178
30
0.0
11
811.0545
21
344.2488
31
0.0
0
LINE
8
CUT
10
811.0545
20
344.2488
30
0.0
11
812.0909
21
344.3450
31
0.0
0
LINE
8
CUT
10
812.0909
20
344.3450
30
0.0
11
813.1273
21
344.4052
31
0.0
0
LINE
8
CUT
10
813.1273
20
344.4052
30
0.0
11
814.1636
21
344.4284
31
0.0
0
LINE
8
CUT
10
814.1636
20
344.4284
30
0.0
11
815.2000
21
344.4131
31
0.0
0
LINE
8
CUT
10
815.2000
20
344.4131
30
0.0
11
816.2364
21
344.3577
31
0.0
0
LINE
8
CUT
10
816.2364
20
344.3577
30
0.0
11
817.2727
21
344.2605
31
0.0
0
LINE
8
CUT
10
817.2727
20
344.2605
30
0.0
11
818.3091
21
344.1195
31
0.0
0
LINE
8
CUT
10
818.3091
20
344.1195
30
0.0
11
819.3455
21
343.9325
31
0.0
0
LINE
8
CUT
10
819.3455
20
343.9325
30
0.0
11
820.3818
21
343.6969
31
0.0
0
LINE
8
CUT
10
820.3818
20
343.6969
30
0.0
11
821.4182
21
343.5210
31
0.0
0
LINE
8
CUT
10
821.4182
20
343.5210
30
0.0
11
822.4545
21
343.1790
31
0.0
0
LINE
8
CUT
10
822.4545
20
343.1790
30
0.0
11
823.4909
21
342.7778
31
0.0
0
LINE
8
CUT
10
823.4909
20
342.7778
30
0.0
11
824.5273
21
342.3128
31
0.0
0
LINE
8
CUT
10
824.5273
20
342.3128
30
0.0
11
825.5636
21
341.7781
31
0.0
0
LINE
8
CUT
10
825.5636
20
341.7781
30
0.0
11
826.6000
21
341.1668
31
0.0
0
LINE
8
CUT
10
826.6000
20
341.1668
30
0.0
11
827.6364
21
340.4703
31
0.0
0
LINE
8
CUT
10
827.6364
20
340.4703
30
0.0
11
828.6727
21
339.6780
31
0.0
0
LINE
8
CUT
10
828.6727
20
339.6780
30
0.0
11
829.7091
21
338.7761
31
0.0
0
LINE
8
CUT
10
829.7091
20
338.7761
30
0.0
11
830.7455
21
337.7464
31
0.0
0
LINE
8
CUT
10
830.7455
20
337.7464
30
0.0
11
831.7818
21
336.5640
31
0.0
0
LINE
8
CUT
10
831.7818
20
336.5640
30
0.0
11
832.8182
21
335.1934
31
0.0
0
LINE
8
CUT
10
832.8182
20
335.1934
30
0.0
11
833.8545
21
333.5800
31
0.0
0
LINE
8
CUT
10
833.8545
20
333.5800
30
0.0
11
834.8909
21
331.6325
31
0.0
0
LINE
8
CUT
10
834.8909
20
331.6325
30
0.0
11
835.9273
21
329.1740
31
0.0
0
LINE
8
CUT
10
835.9273
20
329.1740
30
0.0
11
836.9636
21
325.7498
31
0.0
0
LINE
8
CUT
10
836.9636
20
325.7498
30
0.0
11
838.0000
21
316.6177
31
0.0
0
LINE
8
CUT
10
838.0000
20
316.6177
30
0.0
11
838.0000
21
27.8107
31
0.0
0
LINE
8
CUT
10
838.0000
20
27.8107
30
0.0
11
836.9636
21
18.6786
31
0.0
0
LINE
8
CUT
10
836.9636
20
18.6786
30
0.0
11
835.9273
21
15.2544
31
0.0
0
LINE
8
CUT
10
835.9273
20
15.2544
30
0.0
11
834.8909
21
12.7959
31
0.0
0
LINE
8
CUT
10
834.8909
20
12.7959
30
0.0
11
833.8545
21
10.8484
31
0.0
0
LINE
8
CUT
10
833.8545
20
10.8484
30
0.0
11
832.8182
21
9.2350
31
0.0
0
LINE
8
CUT
10
832.8182
20
9.2350
30
0.0
11
831.7818
21
7.8644
31
0.0
0
LINE
8
CUT
10
831.7818
20
7.8644
30
0.0
11
830.7455
21
6.6820
31
0.0
0
LINE
8
CUT
10
830.7455
20
6.6820
30
0.0
11
829.7091
21
5.6523
31
0.0
0
LINE
8
CUT
10
829.7091
20
5.6523
30
0.0
11
828.6727
21
4.7504
31
0.0
0
LINE
8
CUT
10
828.6727
20
4.7504
30
0.0
11
827.6364
21
3.9581
31
0.0
0
LINE
8
CUT
10
827.6364
20
3.9581
30
0.0
11
826.6000
21
3.2616
31
0.0
0
LINE
8
CUT
10
826.6000
20
3.2616
30
0.0
11
825.5636
21
2.6503
31
0.0
0
LINE
8
CUT
10
825.5636
20
2.6503
30
0.0
11
824.5273
21
2.1156
31
0.0
0
LINE
8
CUT
10
824.5273
20
2.1156
30
0.0
11
823.4909
21
1.6506
31
0.0
0
LINE
8
CUT
10
823.4909
20
1.6506
30
0.0
11
822.4545
21
1.2494
31
0.0
0
LINE
8
CUT
10
822.4545
20
1.2494
30
0.0
11
821.4182
21
0.9074
31
0.0
0
LINE
8
CUT
10
821.4182
20
0.9074
30
0.0
11
820.3818
21
0.7315
31
0.0
0
LINE
8
CUT
10
820.3818
20
0.7315
30
0.0
11
819.3455
21
0.4959
31
0.0
0
LINE
8
CUT
10
819.3455
20
0.4959
30
0.0
11
818.3091
21
0.3089
31
0.0
0
LINE
8
CUT
10
818.3091
20
0.3089
30
0.0
11
817.2727
21
0.1679
31
0.0
0
LINE
8
CUT
10
817.2727
20
0.1679
30
0.0
11
816.2364
21
0.0707
31
0.0
0
LINE
8
CUT
10
816.2364
20
0.0707
30
0.0
11
815.2000
21
0.0153
31
0.0
0
LINE
8
CUT
10
815.2000
20
0.0153
30
0.0
11
814.1636
21
0.0000
31
0.0
0
LINE
8
CUT
10
814.1636
20
0.0000
30
0.0
11
813.1273
21
0.0232
31
0.0
0
LINE
8
CUT
10
813.1273
20
0.0232
30
0.0
11
812.0909
21
0.0834
31
0.0
0
LINE
8
CUT
10
812.0909
20
0.0834
30
0.0
11
811.0545
21
0.1796
31
0.0
0
LINE
8
CUT
10
811.0545
20
0.1796
30
0.0
11
810.0182
21
0.3106
31
0.0
0
LINE
8
CUT
10
810.0182
20
0.3106
30
0.0
11
808.9818
21
0.4754
31
0.0
0
LINE
8
CUT
10
808.9818
20
0.4754
30
0.0
11
807.9455
21
0.6731
31
0.0
0
LINE
8
CUT
10
807.9455
20
0.6731
30
0.0
11
806.9091
21
0.9029
31
0.0
0
LINE
8
CUT
10
806.9091
20
0.9029
30
0.0
11
805.8727
21
1.1642
31
0.0
0
LINE
8
CUT
10
805.8727
20
1.1642
30
0.0
11
804.8364
21
1.4563
31
0.0
0
LINE
8
CUT
10
804.8364
20
1.4563
30
0.0
11
803.8000
21
1.7787
31
0.0
0
LINE
8
CUT
10
803.8000
20
1.7787
30
0.0
11
802.7636
21
2.1308
31
0.0
0
LINE
8
CUT
10
802.7636
20
2.1308
30
0.0
11
801.7273
21
2.5122
31
0.0
0
LINE
8
CUT
10
801.7273
20
2.5122
30
0.0
11
800.6909
21
2.9225
31
0.0
0
LINE
8
CUT
10
800.6909
20
2.9225
30
0.0
11
799.6545
21
3.3614
31
0.0
0
LINE
8
CUT
10
799.6545
20
3.3614
30
0.0
11
798.6182
21
3.8286
31
0.0
0
LINE
8
CUT
10
798.6182
20
3.8286
30
0.0
11
797.5818
21
4.3238
31
0.0
0
LINE
8
CUT
10
797.5818
20
4.3238
30
0.0
11
796.5455
21
4.8469
31
0.0
0
LINE
8
CUT
10
796.5455
20
4.8469
30
0.0
11
795.5091
21
5.3976
31
0.0
0
LINE
8
CUT
10
795.5091
20
5.3976
30
0.0
11
794.4727
21
5.9759
31
0.0
0
LINE
8
CUT
10
794.4727
20
5.9759
30
0.0
11
793.4364
21
6.5816
31
0.0
0
LINE
8
CUT
10
793.4364
20
6.5816
30
0.0
11
792.4000
21
7.2108
31
0.0
0
LINE
8
CUT
10
792.4000
20
7.2108
30
0.0
11
791.3636
21
7.8456
31
0.0
0
LINE
8
CUT
10
791.3636
20
7.8456
30
0.0
11
790.3273
21
8.4840
31
0.0
0
LINE
8
CUT
10
790.3273
20
8.4840
30
0.0
11
789.2909
21
9.1258
31
0.0
0
LINE
8
CUT
10
789.2909
20
9.1258
30
0.0
11
788.2545
21
9.7712
31
0.0
0
LINE
8
CUT
10
788.2545
20
9.7712
30
0.0
11
787.2182
21
10.4200
31
0.0
0
LINE
8
CUT
10
787.2182
20
10.4200
30
0.0
11
786.1818
21
11.0723
31
0.0
0
LINE
8
CUT
10
786.1818
20
11.0723
30
0.0
11
785.1455
21
11.9252
31
0.0
0
LINE
8
CUT
10
785.1455
20
11.9252
30
0.0
11
784.1091
21
12.5836
31
0.0
0
LINE
8
CUT
10
784.1091
20
12.5836
30
0.0
11
783.0727
21
13.2454
31
0.0
0
LINE
8
CUT
10
783.0727
20
13.2454
30
0.0
11
782.0364
21
13.9107
31
0.0
0
LINE
8
CUT
10
782.0364
20
13.9107
30
0.0
11
781.0000
21
14.5793
31
0.0
0
LINE
8
CUT
10
781.0000
20
14.5793
30
0.0
11
779.9636
21
15.2514
31
0.0
0
LINE
8
CUT
10
779.9636
20
15.2514
30
0.0
11
778.9273
21
15.9268
31
0.0
0
LINE
8
CUT
10
778.9273
20
15.9268
30
0.0
11
777.8909
21
16.6056
31
0.0
0
LINE
8
CUT
10
777.8909
20
16.6056
30
0.0
11
776.8545
21
17.2877
31
0.0
0
LINE
8
CUT
10
776.8545
20
17.2877
30
0.0
11
775.8182
21
17.9732
31
0.0
0
LINE
8
CUT
10
775.8182
20
17.9732
30
0.0
11
774.7818
21
18.6620
31
0.0
0
LINE
8
CUT
10
774.7818
20
18.6620
30
0.0
11
773.7455
21
19.3542
31
0.0
0
LINE
8
CUT
10
773.7455
20
19.3542
30
0.0
11
772.7091
21
20.0496
31
0.0
0
LINE
8
CUT
10
772.7091
20
20.0496
30
0.0
11
771.6727
21
20.7483
31
0.0
0
LINE
8
CUT
10
771.6727
20
20.7483
30
0.0
11
770.6364
21
21.4503
31
0.0
0
LINE
8
CUT
10
770.6364
20
21.4503
30
0.0
11
769.6000
21
22.1556
31
0.0
0
LINE
8
CUT
10
769.6000
20
22.1556
30
0.0
11
768.5636
21
22.8662
31
0.0
0
LINE
8
CUT
10
768.5636
20
22.8662
30
0.0
11
767.5273
21
23.5999
31
0.0
0
LINE
8
CUT
10
767.5273
20
23.5999
30
0.0
11
766.4909
21
24.3608
31
0.0
0
LINE
8
CUT
10
766.4909
20
24.3608
30
0.0
11
765.4545
21
25.1488
31
0.0
0
LINE
8
CUT
10
765.4545
20
25.1488
30
0.0
11
764.4182
21
25.9641
31
0.0
0
LINE
8
CUT
10
764.4182
20
25.9641
30
0.0
11
763.3818
21
26.8069
31
0.0
0
LINE
8
CUT
10
763.3818
20
26.8069
30
0.0
11
762.3455
21
27.6773
31
0.0
0
LINE
8
CUT
10
762.3455
20
27.6773
30
0.0
11
761.3091
21
28.5754
31
0.0
0
LINE
8
CUT
10
761.3091
20
28.5754
30
0.0
11
760.2727
21
29.5017
31
0.0
0
LINE
8
CUT
10
760.2727
20
29.5017
30
0.0
11
759.2364
21
30.4564
31
0.0
0
LINE
8
CUT
10
759.2364
20
30.4564
30
0.0
11
758.2000
21
31.4398
31
0.0
0
LINE
8
CUT
10
758.2000
20
31.4398
30
0.0
11
757.1636
21
32.4524
31
0.0
0
LINE
8
CUT
10
757.1636
20
32.4524
30
0.0
11
756.1273
21
33.4947
31
0.0
0
LINE
8
CUT
10
756.1273
20
33.4947
30
0.0
11
755.0909
21
34.5671
31
0.0
0
LINE
8
CUT
10
755.0909
20
34.5671
30
0.0
11
754.0545
21
35.6704
31
0.0
0
LINE
8
CUT
10
754.0545
20
35.6704
30
0.0
11
753.0182
21
36.8051
31
0.0
0
LINE
8
CUT
10
753.0182
20
36.8051
30
0.0
11
751.9818
21
37.9721
31
0.0
0
LINE
8
CUT
10
751.9818
20
37.9721
30
0.0
11
750.9455
21
39.1722
31
0.0
0
LINE
8
CUT
10
750.9455
20
39.1722
30
0.0
11
749.9091
21
40.4062
31
0.0
0
LINE
8
CUT
10
749.9091
20
40.4062
30
0.0
11
748.8727
21
41.6755
31
0.0
0
LINE
8
CUT
10
748.8727
20
41.6755
30
0.0
11
747.8364
21
42.9810
31
0.0
0
LINE
8
CUT
10
747.8364
20
42.9810
30
0.0
11
746.8000
21
44.3242
31
0.0
0
LINE
8
CUT
10
746.8000
20
44.3242
30
0.0
11
745.7636
21
45.7066
31
0.0
0
LINE
8
CUT
10
745.7636
20
45.7066
30
0.0
11
744.7273
21
47.1299
31
0.0
0
LINE
8
CUT
10
744.7273
20
47.1299
30
0.0
11
743.6909
21
48.5961
31
0.0
0
LINE
8
CUT
10
743.6909
20
48.5961
30
0.0
11
742.6545
21
50.2680
31
0.0
0
LINE
8
CUT
10
742.6545
20
50.2680
30
0.0
11
741.6182
21
51.8261
31
0.0
0
LINE
8
CUT
10
741.6182
20
51.8261
30
0.0
11
740.5818
21
53.4347
31
0.0
0
LINE
8
CUT
10
740.5818
20
53.4347
30
0.0
11
739.5455
21
55.0974
31
0.0
0
LINE
8
CUT
10
739.5455
20
55.0974
30
0.0
11
738.5091
21
56.8181
31
0.0
0
LINE
8
CUT
10
738.5091
20
56.8181
30
0.0
11
737.4727
21
58.6018
31
0.0
0
LINE
8
CUT
10
737.4727
20
58.6018
30
0.0
11
736.4364
21
60.4539
31
0.0
0
LINE
8
CUT
10
736.4364
20
60.4539
30
0.0
11
735.4000
21
62.3816
31
0.0
0
LINE
8
CUT
10
735.4000
20
62.3816
30
0.0
11
734.3636
21
64.3932
31
0.0
0
LINE
8
CUT
10
734.3636
20
64.3932
30
0.0
11
733.3273
21
66.4995
31
0.0
0
LINE
8
CUT
10
733.3273
20
66.4995
30
0.0
11
732.2909
21
68.7142
31
0.0
0
LINE
8
CUT
10
732.2909
20
68.7142
30
0.0
11
731.2545
21
71.0555
31
0.0
0
LINE
8
CUT
10
731.2545
20
71.0555
30
0.0
11
730.2182
21
73.5481
31
0.0
0
LINE
8
CUT
10
730.2182
20
73.5481
30
0.0
11
729.1818
21
76.2278
31
0.0
0
LINE
8
CUT
10
729.1818
20
76.2278
30
0.0
11
728.1455
21
79.1489
31
0.0
0
LINE
8
CUT
10
728.1455
20
79.1489
30
0.0
11
727.1091
21
82.4027
31
0.0
0
LINE
8
CUT
10
727.1091
20
82.4027
30
0.0
11
726.0727
21
86.1662
31
0.0
0
LINE
8
CUT
10
726.0727
20
86.1662
30
0.0
11
725.0364
21
90.8939
31
0.0
0
LINE
8
CUT
10
725.0364
20
90.8939
30
0.0
11
724.0000
21
101.3282
31
0.0
0
LINE
8
CUT
10
724.0000
20
101.3282
30
0.0
11
724.0000
21
243.1002
31
0.0
0
LINE
8
CUT
10
724.0000
20
243.1002
30
0.0
11
724.0000
21
243.1002
31
0.0
0
ENDSEC
0
EOF
