0
SECTION
2
ENTITIES
0
LINE
8
CHANNEL
10
0.0000
20
0.0000
30
0.0
11
2400.0000
21
0.0000
31
0.0
0
LINE
8
CHANNEL
10
2400.0000
20
0.0000
30
0.0
11
2400.0000
21
600.0000
31
0.0
0
LINE
8
CHANNEL
10
2400.0000
20
600.0000
30
0.0
11
0.0000
21
600.0000
31
0.0
0
LINE
8
CHANNEL
10
0.0000
20
600.0000
30
0.0
11
0.0000
21
0.0000
31
0.0
0
LINE
8
CHANNEL
10
0.0000
20
0.0000
30
0.0
11
0.0000
21
0.0000
31
0.0
0
LINE
8
CUT
10
0.0000
20
308.9000
30
0.0
11
4.7609
21
324.9695
31
0.0
0
LINE
8
CUT
10
4.7609
20
324.9695
30
0.0
11
9.5218
21
330.6054
31
0.0
0
LINE
8
CUT
10
9.5218
20
330.6054
30
0.0
11
14.2827
21
334.1722
31
0.0
0
LINE
8
CUT
10
14.2827
20
334.1722
30
0.0
11
19.0436
21
336.4847
31
0.0
0
LINE
8
CUT
10
19.0436
20
336.4847
30
0.0
11
23.8045
21
337.8450
31
0.0
0
LINE
8
CUT
10
23.8045
20
337.8450
30
0.0
11
28.5655
21
338.3852
31
0.0
0
LINE
8
CUT
10
28.5655
20
338.3852
30
0.0
11
33.3264
21
338.4000
31
0.0
0
LINE
8
CUT
10
33.3264
20
338.4000
30
0.0
11
38.0873
21
338.4000
31
0.0
0
LINE
8
CUT
10
38.0873
20
338.4000
30
0.0
11
42.8482
21
338.4000
31
0.0
0
LINE
8
CUT
10
42.8482
20
338.4000
30
0.0
11
47.6091
21
338.4000
31
0.0
0
LINE
8
CUT
10
47.6091
20
338.4000
30
0.0
11
52.3700
21
338.4000
31
0.0
0
LINE
8
CUT
10
52.3700
20
338.4000
30
0.0
11
57.1309
21
338.4000
31
0.0
0
LINE
8
CUT
10
57.1309
20
338.4000
30
0.0
11
61.8918
21
338.4000
31
0.0
0
LINE
8
CUT
10
61.8918
20
338.4000
30
0.0
11
66.6527
21
338.4000
31
0.0
0
LINE
8
CUT
10
66.6527
20
338.4000
30
0.0
11
71.4136
21
338.4000
31
0.0
0
LINE
8
CUT
10
71.4136
20
338.4000
30
0.0
11
76.1745
21
338.4000
31
0.0
0
LINE
8
CUT
10
76.1745
20
338.4000
30
0.0
11
80.9355
21
338.4000
31
0.0
0
LINE
8
CUT
10
80.9355
20
338.4000
30
0.0
11
85.6964
21
338.4000
31
0.0
0
LINE
8
CUT
10
85.6964
20
338.4000
30
0.0
11
90.4573
21
338.4000
31
0.0
0
LINE
8
CUT
10
90.4573
20
338.4000
30
0.0
11
95.2182
21
338.4000
31
0.0
0
LINE
8
CUT
10
95.2182
20
338.4000
30
0.0
11
99.9791
21
338.4000
31
0.0
0
LINE
8
CUT
10
99.9791
20
338.4000
30
0.0
11
104.7400
21
338.4000
31
0.0
0
LINE
8
CUT
10
104.7400
20
338.4000
30
0.0
11
109.5009
21
338.4000
31
0.0
0
LINE
8
CUT
10
109.5009
20
338.4000
30
0.0
11
114.2618
21
338.4000
31
0.0
0
LINE
8
CUT
10
114.2618
20
338.4000
30
0.0
11
119.0227
21
338.4000
31
0.0
0
LINE
8
CUT
10
119.0227
20
338.4000
30
0.0
11
123.7836
21
338.4000
31
0.0
0
LINE
8
CUT
10
123.7836
20
338.4000
30
0.0
11
128.5445
21
338.4000
31
0.0
0
LINE
8
CUT
10
128.5445
20
338.4000
30
0.0
11
133.3055
21
338.4000
31
0.0
0
LINE
8
CUT
10
133.3055
20
338.4000
30
0.0
11
138.0664
21
338.4000
31
0.0
0
LINE
8
CUT
10
138.0664
20
338.4000
30
0.0
11
142.8273
21
338.4000
31
0.0
0
LINE
8
CUT
10
142.8273
20
338.4000
30
0.0
11
147.5882
21
338.4000
31
0.0
0
LINE
8
CUT
10
147.5882
20
338.4000
30
0.0
11
152.3491
21
338.4000
31
0.0
0
LINE
8
CUT
10
152.3491
20
338.4000
30
0.0
11
157.1100
21
338.4000
31
0.0
0
LINE
8
CUT
10
157.1100
20
338.4000
30
0.0
11
161.8709
21
338.4000
31
0.0
0
LINE
8
CUT
10
161.8709
20
338.4000
30
0.0
11
166.6318
21
338.4000
31
0.0
0
LINE
8
CUT
10
166.6318
20
338.4000
30
0.0
11
171.3927
21
338.4000
31
0.0
0
LINE
8
CUT
10
171.3927
20
338.4000
30
0.0
11
176.1536
21
338.4000
31
0.0
0
LINE
8
CUT
10
176.1536
20
338.4000
30
0.0
11
180.9145
21
338.4000
31
0.0
0
LINE
8
CUT
10
180.9145
20
338.4000
30
0.0
11
185.6755
21
338.4000
31
0.0
0
LINE
8
CUT
10
185.6755
20
338.4000
30
0.0
11
190.4364
21
338.4000
31
0.0
0
LINE
8
CUT
10
190.4364
20
338.4000
30
0.0
11
195.1973
21
338.4000
31
0.0
0
LINE
8
CUT
10
195.1973
20
338.4000
30
0.0
11
199.9582
21
338.4000
31
0.0
0
LINE
8
CUT
10
199.9582
20
338.4000
30
0.0
11
204.7191
21
338.4000
31
0.0
0
LINE
8
CUT
10
204.7191
20
338.4000
30
0.0
11
209.4800
21
338.4000
31
0.0
0
LINE
8
CUT
10
209.4800
20
338.4000
30
0.0
11
214.2409
21
338.4000
31
0.0
0
LINE
8
CUT
10
214.2409
20
338.4000
30
0.0
11
219.0018
21
338.4000
31
0.0
0
LINE
8
CUT
10
219.0018
20
338.4000
30
0.0
11
223.7627
21
338.4000
31
0.0
0
LINE
8
CUT
10
223.7627
20
338.4000
30
0.0
11
228.5236
21
338.4000
31
0.0
0
LINE
8
CUT
10
228.5236
20
338.4000
30
0.0
11
233.2845
21
338.4000
31
0.0
0
LINE
8
CUT
10
233.2845
20
338.4000
30
0.0
11
238.0455
21
338.4000
31
0.0
0
LINE
8
CUT
10
238.0455
20
338.4000
30
0.0
11
242.8064
21
338.4000
31
0.0
0
LINE
8
CUT
10
242.8064
20
338.4000
30
0.0
11
247.5673
21
338.4000
31
0.0
0
LINE
8
CUT
10
247.5673
20
338.4000
30
0.0
11
252.3282
21
338.4000
31
0.0
0
LINE
8
CUT
10
252.3282
20
338.4000
30
0.0
11
257.0891
21
338.4000
31
0.0
0
LINE
8
CUT
10
257.0891
20
338.4000
30
0.0
11
261.8500
21
338.4000
31
0.0
0
LINE
8
CUT
10
261.8500
20
338.4000
30
0.0
11
266.6109
21
338.4000
31
0.0
0
LINE
8
CUT
10
266.6109
20
338.4000
30
0.0
11
271.3718
21
338.4000
31
0.0
0
LINE
8
CUT
10
271.3718
20
338.4000
30
0.0
11
276.1327
21
338.4000
31
0.0
0
LINE
8
CUT
10
276.1327
20
338.4000
30
0.0
11
280.8936
21
338.4000
31
0.0
0
LINE
8
CUT
10
280.8936
20
338.4000
30
0.0
11
285.6545
21
338.4000
31
0.0
0
LINE
8
CUT
10
285.6545
20
338.4000
30
0.0
11
290.4155
21
338.4000
31
0.0
0
LINE
8
CUT
10
290.4155
20
338.4000
30
0.0
11
295.1764
21
338.4000
31
0.0
0
LINE
8
CUT
10
295.1764
20
338.4000
30
0.0
11
299.9373
21
338.4000
31
0.0
0
LINE
8
CUT
10
299.9373
20
338.4000
30
0.0
11
304.6982
21
338.4000
31
0.0
0
LINE
8
CUT
10
304.6982
20
338.4000
30
0.0
11
309.4591
21
338.4000
31
0.0
0
LINE
8
CUT
10
309.4591
20
338.4000
30
0.0
11
314.2200
21
338.4000
31
0.0
0
LINE
8
CUT
10
314.2200
20
338.4000
30
0.0
11
318.9809
21
338.4000
31
0.0
0
LINE
8
CUT
10
318.9809
20
338.4000
30
0.0
11
323.7418
21
338.4000
31
0.0
0
LINE
8
CUT
10
323.7418
20
338.4000
30
0.0
11
328.5027
21
338.4000
31
0.0
0
LINE
8
CUT
10
328.5027
20
338.4000
30
0.0
11
333.2636
21
338.4000
31
0.0
0
LINE
8
CUT
10
333.2636
20
338.4000
30
0.0
11
338.0245
21
338.4000
31
0.0
0
LINE
8
CUT
10
338.0245
20
338.4000
30
0.0
11
342.7855
21
338.4000
31
0.0
0
LINE
8
CUT
10
342.7855
20
338.4000
30
0.0
11
347.5464
21
338.4000
31
0.0
0
LINE
8
CUT
10
347.5464
20
338.4000
30
0.0
11
352.3073
21
338.4000
31
0.0
0
LINE
8
CUT
10
352.3073
20
338.4000
30
0.0
11
357.0682
21
338.4000
31
0.0
0
LINE
8
CUT
10
357.0682
20
338.4000
30
0.0
11
361.8291
21
338.4000
31
0.0
0
LINE
8
CUT
10
361.8291
20
338.4000
30
0.0
11
366.5900
21
338.4000
31
0.0
0
LINE
8
CUT
10
366.5900
20
338.4000
30
0.0
11
371.3509
21
338.4000
31
0.0
0
LINE
8
CUT
10
371.3509
20
338.4000
30
0.0
11
376.1118
21
338.4000
31
0.0
0
LINE
8
CUT
10
376.1118
20
338.4000
30
0.0
11
380.8727
21
338.4000
31
0.0
0
LINE
8
CUT
10
380.8727
20
338.4000
30
0.0
11
385.6336
21
338.4000
31
0.0
0
LINE
8
CUT
10
385.6336
20
338.4000
30
0.0
11
390.3945
21
338.4000
31
0.0
0
LINE
8
CUT
10
390.3945
20
338.4000
30
0.0
11
395.1555
21
338.4000
31
0.0
0
LINE
8
CUT
10
395.1555
20
338.4000
30
0.0
11
399.9164
21
338.4000
31
0.0
0
LINE
8
CUT
10
399.9164
20
338.4000
30
0.0
11
404.6773
21
338.4000
31
0.0
0
LINE
8
CUT
10
404.6773
20
338.4000
30
0.0
11
409.4382
21
338.4000
31
0.0
0
LINE
8
CUT
10
409.4382
20
338.4000
30
0.0
11
414.1991
21
338.4000
31
0.0
0
LINE
8
CUT
10
414.1991
20
338.4000
30
0.0
11
418.9600
21
338.4000
31
0.0
0
LINE
8
CUT
10
418.9600
20
338.4000
30
0.0
11
423.7209
21
338.4000
31
0.0
0
LINE
8
CUT
10
423.7209
20
338.4000
30
0.0
11
428.4818
21
338.4000
31
0.0
0
LINE
8
CUT
10
428.4818
20
338.4000
30
0.0
11
433.2427
21
338.4000
31
0.0
0
LINE
8
CUT
10
433.2427
20
338.4000
30
0.0
11
438.0036
21
338.4000
31
0.0
0
LINE
8
CUT
10
438.0036
20
338.4000
30
0.0
11
442.7645
21
338.4000
31
0.0
0
LINE
8
CUT
10
442.7645
20
338.4000
30
0.0
11
447.5255
21
338.4000
31
0.0
0
LINE
8
CUT
10
447.5255
20
338.4000
30
0.0
11
452.2864
21
338.4000
31
0.0
0
LINE
8
CUT
10
452.2864
20
338.4000
30
0.0
11
457.0473
21
338.4000
31
0.0
0
LINE
8
CUT
10
457.0473
20
338.4000
30
0.0
11
461.8082
21
338.4000
31
0.0
0
LINE
8
CUT
10
461.8082
20
338.4000
30
0.0
11
466.5691
21
338.4000
31
0.0
0
LINE
8
CUT
10
466.5691
20
338.4000
30
0.0
11
471.3300
21
338.4000
31
0.0
0
LINE
8
CUT
10
471.3300
20
338.4000
30
0.0
11
476.0909
21
338.4000
31
0.0
0
LINE
8
CUT
10
476.0909
20
338.4000
30
0.0
11
480.8518
21
338.4000
31
0.0
0
LINE
8
CUT
10
480.8518
20
338.4000
30
0.0
11
485.6127
21
338.4000
31
0.0
0
LINE
8
CUT
10
485.6127
20
338.4000
30
0.0
11
490.3736
21
338.4000
31
0.0
0
LINE
8
CUT
10
490.3736
20
338.4000
30
0.0
11
495.1345
21
338.3852
31
0.0
0
LINE
8
CUT
10
495.1345
20
338.3852
30
0.0
11
499.8955
21
337.8450
31
0.0
0
LINE
8
CUT
10
499.8955
20
337.8450
30
0.0
11
504.6564
21
336.4847
31
0.0
0
LINE
8
CUT
10
504.6564
20
336.4847
30
0.0
11
509.4173
21
334.1722
31
0.0
0
LINE
8
CUT
10
509.4173
20
334.1722
30
0.0
11
514.1782
21
330.6054
31
0.0
0
LINE
8
CUT
10
514.1782
20
330.6054
30
0.0
11
518.9391
21
324.9695
31
0.0
0
LINE
8
CUT
10
518.9391
20
324.9695
30
0.0
11
523.7000
21
308.9000
31
0.0
0
LINE
8
CUT
10
523.7000
20
308.9000
30
0.0
11
523.7000
21
29.5000
31
0.0
0
LINE
8
CUT
10
523.7000
20
29.5000
30
0.0
11
518.9391
21
13.4305
31
0.0
0
LINE
8
CUT
10
518.9391
20
13.4305
30
0.0
11
514.1782
21
7.7946
31
0.0
0
LINE
8
CUT
10
514.1782
20
7.7946
30
0.0
11
509.4173
21
4.2278
31
0.0
0
LINE
8
CUT
10
509.4173
20
4.2278
30
0.0
11
504.6564
21
1.9153
31
0.0
0
LINE
8
CUT
10
504.6564
20
1.9153
30
0.0
11
499.8955
21
0.5550
31
0.0
0
LINE
8
CUT
10
499.8955
20
0.5550
30
0.0
11
495.1345
21
0.0148
31
0.0
0
LINE
8
CUT
10
495.1345
20
0.0148
30
0.0
11
490.3736
21
0.0000
31
0.0
0
LINE
8
CUT
10
490.3736
20
0.0000
30
0.0
11
485.6127
21
0.0000
31
0.0
0
LINE
8
CUT
10
485.6127
20
0.0000
30
0.0
11
480.8518
21
0.0000
31
0.0
0
LINE
8
CUT
10
480.8518
20
0.0000
30
0.0
11
476.0909
21
0.0000
31
0.0
0
LINE
8
CUT
10
476.0909
20
0.0000
30
0.0
11
471.3300
21
0.0000
31
0.0
0
LINE
8
CUT
10
471.3300
20
0.0000
30
0.0
11
466.5691
21
0.0000
31
0.0
0
LINE
8
CUT
10
466.5691
20
0.0000
30
0.0
11
461.8082
21
0.0000
31
0.0
0
LINE
8
CUT
10
461.8082
20
0.0000
30
0.0
11
457.0473
21
0.0000
31
0.0
0
LINE
8
CUT
10
457.0473
20
0.0000
30
0.0
11
452.2864
21
0.0000
31
0.0
0
LINE
8
CUT
10
452.2864
20
0.0000
30
0.0
11
447.5255
21
0.0000
31
0.0
0
LINE
8
CUT
10
447.5255
20
0.0000
30
0.0
11
442.7645
21
0.0000
31
0.0
0
LINE
8
CUT
10
442.7645
20
0.0000
30
0.0
11
438.0036
21
0.0000
31
0.0
0
LINE
8
CUT
10
438.0036
20
0.0000
30
0.0
11
433.2427
21
0.0000
31
0.0
0
LINE
8
CUT
10
433.2427
20
0.0000
30
0.0
11
428.4818
21
0.0000
31
0.0
0
LINE
8
CUT
10
428.4818
20
0.0000
30
0.0
11
423.7209
21
0.0000
31
0.0
0
LINE
8
CUT
10
423.7209
20
0.0000
30
0.0
11
418.9600
21
0.0000
31
0.0
0
LINE
8
CUT
10
418.9600
20
0.0000
30
0.0
11
414.1991
21
0.0000
31
0.0
0
LINE
8
CUT
10
414.1991
20
0.0000
30
0.0
11
409.4382
21
0.0000
31
0.0
0
LINE
8
CUT
10
409.4382
20
0.0000
30
0.0
11
404.6773
21
0.0000
31
0.0
0
LINE
8
CUT
10
404.6773
20
0.0000
30
0.0
11
399.9164
21
0.0000
31
0.0
0
LINE
8
CUT
10
399.9164
20
0.0000
30
0.0
11
395.1555
21
0.0000
31
0.0
0
LINE
8
CUT
10
395.1555
20
0.0000
30
0.0
11
390.3945
21
0.0000
31
0.0
0
LINE
8
CUT
10
390.3945
20
0.0000
30
0.0
11
385.6336
21
0.0000
31
0.0
0
LINE
8
CUT
10
385.6336
20
0.0000
30
0.0
11
380.8727
21
0.0000
31
0.0
0
LINE
8
CUT
10
380.8727
20
0.0000
30
0.0
11
376.1118
21
0.0000
31
0.0
0
LINE
8
CUT
10
376.1118
20
0.0000
30
0.0
11
371.3509
21
0.0000
31
0.0
0
LINE
8
CUT
10
371.3509
20
0.0000
30
0.0
11
366.5900
21
0.0000
31
0.0
0
LINE
8
CUT
10
366.5900
20
0.0000
30
0.0
11
361.8291
21
0.0000
31
0.0
0
LINE
8
CUT
10
361.8291
20
0.0000
30
0.0
11
357.0682
21
0.0000
31
0.0
0
LINE
8
CUT
10
357.0682
20
0.0000
30
0.0
11
352.3073
21
0.0000
31
0.0
0
LINE
8
CUT
10
352.3073
20
0.0000
30
0.0
11
347.5464
21
0.0000
31
0.0
0
LINE
8
CUT
10
347.5464
20
0.0000
30
0.0
11
342.7855
21
0.0000
31
0.0
0
LINE
8
CUT
10
342.7855
20
0.0000
30
0.0
11
338.0245
21
0.0000
31
0.0
0
LINE
8
CUT
10
338.0245
20
0.0000
30
0.0
11
333.2636
21
0.0000
31
0.0
0
LINE
8
CUT
10
333.2636
20
0.0000
30
0.0
11
328.5027
21
0.0000
31
0.0
0
LINE
8
CUT
10
328.5027
20
0.0000
30
0.0
11
323.7418
21
0.0000
31
0.0
0
LINE
8
CUT
10
323.7418
20
0.0000
30
0.0
11
318.9809
21
0.0000
31
0.0
0
LINE
8
CUT
10
318.9809
20
0.0000
30
0.0
11
314.2200
21
0.0000
31
0.0
0
LINE
8
CUT
10
314.2200
20
0.0000
30
0.0
11
309.4591
21
0.0000
31
0.0
0
LINE
8
CUT
10
309.4591
20
0.0000
30
0.0
11
304.6982
21
0.0000
31
0.0
0
LINE
8
CUT
10
304.6982
20
0.0000
30
0.0
11
299.9373
21
0.0000
31
0.0
0
LINE
8
CUT
10
299.9373
20
0.0000
30
0.0
11
295.1764
21
0.0000
31
0.0
0
LINE
8
CUT
10
295.1764
20
0.0000
30
0.0
11
290.4155
21
0.0000
31
0.0
0
LINE
8
CUT
10
290.4155
20
0.0000
30
0.0
11
285.6545
21
0.0000
31
0.0
0
LINE
8
CUT
10
285.6545
20
0.0000
30
0.0
11
280.8936
21
0.0000
31
0.0
0
LINE
8
CUT
10
280.8936
20
0.0000
30
0.0
11
276.1327
21
0.0000
31
0.0
0
LINE
8
CUT
10
276.1327
20
0.0000
30
0.0
11
271.3718
21
0.0000
31
0.0
0
LINE
8
CUT
10
271.3718
20
0.0000
30
0.0
11
266.6109
21
0.0000
31
0.0
0
LINE
8
CUT
10
266.6109
20
0.0000
30
0.0
11
261.8500
21
0.0000
31
0.0
0
LINE
8
CUT
10
261.8500
20
0.0000
30
0.0
11
257.0891
21
0.0000
31
0.0
0
LINE
8
CUT
10
257.0891
20
0.0000
30
0.0
11
252.3282
21
0.0000
31
0.0
0
LINE
8
CUT
10
252.3282
20
0.0000
30
0.0
11
247.5673
21
0.0000
31
0.0
0
LINE
8
CUT
10
247.5673
20
0.0000
30
0.0
11
242.8064
21
0.0000
31
0.0
0
LINE
8
CUT
10
242.8064
20
0.0000
30
0.0
11
238.0455
21
0.0000
31
0.0
0
LINE
8
CUT
10
238.0455
20
0.0000
30
0.0
11
233.2845
21
0.0000
31
0.0
0
LINE
8
CUT
10
233.2845
20
0.0000
30
0.0
11
228.5236
21
0.0000
31
0.0
0
LINE
8
CUT
10
228.5236
20
0.0000
30
0.0
11
223.7627
21
0.0000
31
0.0
0
LINE
8
CUT
10
223.7627
20
0.0000
30
0.0
11
219.0018
21
0.0000
31
0.0
0
LINE
8
CUT
10
219.0018
20
0.0000
30
0.0
11
214.2409
21
0.0000
31
0.0
0
LINE
8
CUT
10
214.2409
20
0.0000
30
0.0
11
209.4800
21
0.0000
31
0.0
0
LINE
8
CUT
10
209.4800
20
0.0000
30
0.0
11
204.7191
21
0.0000
31
0.0
0
LINE
8
CUT
10
204.7191
20
0.0000
30
0.0
11
199.9582
21
0.0000
31
0.0
0
LINE
8
CUT
10
199.9582
20
0.0000
30
0.0
11
195.1973
21
0.0000
31
0.0
0
LINE
8
CUT
10
195.1973
20
0.0000
30
0.0
11
190.4364
21
0.0000
31
0.0
0
LINE
8
CUT
10
190.4364
20
0.0000
30
0.0
11
185.6755
21
0.0000
31
0.0
0
LINE
8
CUT
10
185.6755
20
0.0000
30
0.0
11
180.9145
21
0.0000
31
0.0
0
LINE
8
CUT
10
180.9145
20
0.0000
30
0.0
11
176.1536
21
0.0000
31
0.0
0
LINE
8
CUT
10
176.1536
20
0.0000
30
0.0
11
171.3927
21
0.0000
31
0.0
0
LINE
8
CUT
10
171.3927
20
0.0000
30
0.0
11
166.6318
21
0.0000
31
0.0
0
LINE
8
CUT
10
166.6318
20
0.0000
30
0.0
11
161.8709
21
0.0000
31
0.0
0
LINE
8
CUT
10
161.8709
20
0.0000
30
0.0
11
157.1100
21
0.0000
31
0.0
0
LINE
8
CUT
10
157.1100
20
0.0000
30
0.0
11
152.3491
21
0.0000
31
0.0
0
LINE
8
CUT
10
152.3491
20
0.0000
30
0.0
11
147.5882
21
0.0000
31
0.0
0
LINE
8
CUT
10
147.5882
20
0.0000
30
0.0
11
142.8273
21
0.0000
31
0.0
0
LINE
8
CUT
10
142.8273
20
0.0000
30
0.0
11
138.0664
21
0.0000
31
0.0
0
LINE
8
CUT
10
138.0664
20
0.0000
30
0.0
11
133.3055
21
0.0000
31
0.0
0
LINE
8
CUT
10
133.3055
20
0.0000
30
0.0
11
128.5445
21
0.0000
31
0.0
0
LINE
8
CUT
10
128.5445
20
0.0000
30
0.0
11
123.7836
21
0.0000
31
0.0
0
LINE
8
CUT
10
123.7836
20
0.0000
30
0.0
11
119.0227
21
0.0000
31
0.0
0
LINE
8
CUT
10
119.0227
20
0.0000
30
0.0
11
114.2618
21
0.0000
31
0.0
0
LINE
8
CUT
10
114.2618
20
0.0000
30
0.0
11
109.5009
21
0.0000
31
0.0
0
LINE
8
CUT
10
109.5009
20
0.0000
30
0.0
11
104.7400
21
0.0000
31
0.0
0
LINE
8
CUT
10
104.7400
20
0.0000
30
0.0
11
99.9791
21
0.0000
31
0.0
0
LINE
8
CUT
10
99.9791
20
0.0000
30
0.0
11
95.2182
21
0.0000
31
0.0
0
LINE
8
CUT
10
95.2182
20
0.0000
30
0.0
11
90.4573
21
0.0000
31
0.0
0
LINE
8
CUT
10
90.4573
20
0.0000
30
0.0
11
85.6964
21
0.0000
31
0.0
0
LINE
8
CUT
10
85.6964
20
0.0000
30
0.0
11
80.9355
21
0.0000
31
0.0
0
LINE
8
CUT
10
80.9355
20
0.0000
30
0.0
11
76.1745
21
0.0000
31
0.0
0
LINE
8
CUT
10
76.1745
20
0.0000
30
0.0
11
71.4136
21
0.0000
31
0.0
0
LINE
8
CUT
10
71.4136
20
0.0000
30
0.0
11
66.6527
21
0.0000
31
0.0
0
LINE
8
CUT
10
66.6527
20
0.0000
30
0.0
11
61.8918
21
0.0000
31
0.0
0
LINE
8
CUT
10
61.8918
20
0.0000
30
0.0
11
57.1309
21
0.0000
31
0.0
0
LINE
8
CUT
10
57.1309
20
0.0000
30
0.0
11
52.3700
21
0.0000
31
0.0
0
LINE
8
CUT
10
52.3700
20
0.0000
30
0.0
11
47.6091
21
0.0000
31
0.0
0
LINE
8
CUT
10
47.6091
20
0.0000
30
0.0
11
42.8482
21
0.0000
31
0.0
0
LINE
8
CUT
10
42.8482
20
0.0000
30
0.0
11
38.0873
21
0.0000
31
0.0
0
LINE
8
CUT
10
38.0873
20
0.0000
30
0.0
11
33.3264
21
0.0000
31
0.0
0
LINE
8
CUT
10
33.3264
20
0.0000
30
0.0
11
28.5655
21
0.0148
31
0.0
0
LINE
8
CUT
10
28.5655
20
0.0148
30
0.0
11
23.8045
21
0.5550
31
0.0
0
LINE
8
CUT
10
23.8045
20
0.5550
30
0.0
11
19.0436
21
1.9153
31
0.0
0
LINE
8
CUT
10
19.0436
20
1.9153
30
0.0
11
14.2827
21
4.2278
31
0.0
0
LINE
8
CUT
10
14.2827
20
4.2278
30
0.0
11
9.5218
21
7.7946
31
0.0
0
LINE
8
CUT
10
9.5218
20
7.7946
30
0.0
11
4.7609
21
13.4305
31
0.0
0
LINE
8
CUT
10
4.7609
20
13.4305
30
0.0
11
0.0000
21
29.5000
31
0.0
0
LINE
8
CUT
10
0.0000
20
29.5000
30
0.0
11
0.0000
21
308.9000
31
0.0
0
LINE
8
CUT
10
0.0000
20
308.9000
30
0.0
11
0.0000
21
308.9000
31
0.0
0
LINE
8
CUT
10
531.7000
20
295.4800
30
0.0
11
533.3845
21
306.8824
31
0.0
0
LINE
8
CUT
10
533.3845
20
306.8824
30
0.0
11
535.0691
21
310.9679
31
0.0
0
LINE
8
CUT
10
535.0691
20
310.9679
30
0.0
11
536.7536
21
313.7950
31
0.0
0
LINE
8
CUT
10
536.7536
20
313.7950
30
0.0
11
538.4382
21
315.9473
31
0.0
0
LINE
8
CUT
10
538.4382
20
315.9473
30
0.0
11
540.1227
21
317.6526
31
0.0
0
LINE
8
CUT
10
540.1227
20
317.6526
30
0.0
11
541.8073
21
319.0287
31
0.0
0
LINE
8
CUT
10
541.8073
20
319.0287
30
0.0
11
543.4918
21
320.1459
31
0.0
0
LINE
8
CUT
10
543.4918
20
320.1459
30
0.0
11
545.1764
21
321.0504
31
0.0
0
LINE
8
CUT
10
545.1764
20
321.0504
30
0.0
11
546.8609
21
321.7743
31
0.0
0
LINE
8
CUT
10
546.8609
20
321.7743
30
0.0
11
548.5455
21
322.3409
31
0.0
0
LINE
8
CUT
10
548.5455
20
322.3409
30
0.0
11
550.2300
21
322.7679
31
0.0
0
LINE
8
CUT
10
550.2300
20
322.7679
30
0.0
11
551.9145
21
323.0692
31
0.0
0
LINE
8
CUT
10
551.9145
20
323.0692
30
0.0
11
553.5991
21
323.2555
31
0.0
0
LINE
8
CUT
10
553.5991
20
323.2555
30
0.0
11
555.2836
21
323.3356
31
0.0
0
LINE
8
CUT
10
555.2836
20
323.3356
30
0.0
11
556.9682
21
323.3167
31
0.0
0
LINE
8
CUT
10
556.9682
20
323.3167
30
0.0
11
558.6527
21
323.2046
31
0.0
0
LINE
8
CUT
10
558.6527
20
323.2046
30
0.0
11
560.3373
21
323.0042
31
0.0
0
LINE
8
CUT
10
560.3373
20
323.0042
30
0.0
11
562.0218
21
322.7197
31
0.0
0
LINE
8
CUT
10
562.0218
20
322.7197
30
0.0
11
563.7064
21
322.3543
31
0.0
0
LINE
8
CUT
10
563.7064
20
322.3543
30
0.0
11
565.3909
21
321.9109
31
0.0
0
LINE
8
CUT
10
565.3909
20
321.9109
30
0.0
11
567.0755
21
321.3919
31
0.0
0
LINE
8
CUT
10
567.0755
20
321.3919
30
0.0
11
568.7600
21
320.7992
31
0.0
0
LINE
8
CUT
10
568.7600
20
320.7992
30
0.0
11
570.4445
21
320.1343
31
0.0
0
LINE
8
CUT
10
570.4445
20
320.1343
30
0.0
11
572.1291
21
319.3986
31
0.0
0
LINE
8
CUT
10
572.1291
20
319.3986
30
0.0
11
573.8136
21
318.5929
31
0.0
0
LINE
8
CUT
10
573.8136
20
318.5929
30
0.0
11
575.4982
21
317.7178
31
0.0
0
LINE
8
CUT
10
575.4982
20
317.7178
30
0.0
11
577.1827
21
316.7764
31
0.0
0
LINE
8
CUT
10
577.1827
20
316.7764
30
0.0
11
578.8673
21
315.8131
31
0.0
0
LINE
8
CUT
10
578.8673
20
315.8131
30
0.0
11
580.5518
21
314.8441
31
0.0
0
LINE
8
CUT
10
580.5518
20
314.8441
30
0.0
11
582.2364
21
313.8693
31
0.0
0
LINE
8
CUT
10
582.2364
20
313.8693
30
0.0
11
583.9209
21
312.8888
31
0.0
0
LINE
8
CUT
10
583.9209
20
312.8888
30
0.0
11
585.6055
21
311.9027
31
0.0
0
LINE
8
CUT
10
585.6055
20
311.9027
30
0.0
11
587.2900
21
310.9110
31
0.0
0
LINE
8
CUT
10
587.2900
20
310.9110
30
0.0
11
588.9745
21
309.9137
31
0.0
0
LINE
8
CUT
10
588.9745
20
309.9137
30
0.0
11
590.6591
21
308.9109
31
0.0
0
LINE
8
CUT
10
590.6591
20
308.9109
30
0.0
11
592.3436
21
307.9026
31
0.0
0
LINE
8
CUT
10
592.3436
20
307.9026
30
0.0
11
594.0282
21
306.8888
31
0.0
0
LINE
8
CUT
10
594.0282
20
306.8888
30
0.0
11
595.7127
21
305.8697
31
0.0
0
LINE
8
CUT
10
595.7127
20
305.8697
30
0.0
11
597.3973
21
304.8451
31
0.0
0
LINE
8
CUT
10
597.3973
20
304.8451
30
0.0
11
599.0818
21
303.8152
31
0.0
0
LINE
8
CUT
10
599.0818
20
303.8152
30
0.0
11
600.7664
21
302.7801
31
0.0
0
LINE
8
CUT
10
600.7664
20
302.7801
30
0.0
11
602.4509
21
301.7397
31
0.0
0
LINE
8
CUT
10
602.4509
20
301.7397
30
0.0
11
604.1355
21
300.6940
31
0.0
0
LINE
8
CUT
10
604.1355
20
300.6940
30
0.0
11
605.8200
21
299.6433
31
0.0
0
LINE
8
CUT
10
605.8200
20
299.6433
30
0.0
11
607.5045
21
298.5873
31
0.0
0
LINE
8
CUT
10
607.5045
20
298.5873
30
0.0
11
609.1891
21
297.5264
31
0.0
0
LINE
8
CUT
10
609.1891
20
297.5264
30
0.0
11
610.8736
21
296.4603
31
0.0
0
LINE
8
CUT
10
610.8736
20
296.4603
30
0.0
11
612.5582
21
295.3893
31
0.0
0
LINE
8
CUT
10
612.5582
20
295.3893
30
0.0
11
614.2427
21
294.3133
31
0.0
0
LINE
8
CUT
10
614.2427
20
294.3133
30
0.0
11
615.9273
21
293.2325
31
0.0
0
LINE
8
CUT
10
615.9273
20
293.2325
30
0.0
11
617.6118
21
292.1467
31
0.0
0
LINE
8
CUT
10
617.6118
20
292.1467
30
0.0
11
619.2964
21
291.0562
31
0.0
0
LINE
8
CUT
10
619.2964
20
291.0562
30
0.0
11
620.9809
21
289.9608
31
0.0
0
LINE
8
CUT
10
620.9809
20
289.9608
30
0.0
11
622.6655
21
288.8608
31
0.0
0
LINE
8
CUT
10
622.6655
20
288.8608
30
0.0
11
624.3500
21
287.7560
31
0.0
0
LINE
8
CUT
10
624.3500
20
287.7560
30
0.0
11
626.0345
21
286.6467
31
0.0
0
LINE
8
CUT
10
626.0345
20
286.6467
30
0.0
11
627.7191
21
285.5327
31
0.0
0
LINE
8
CUT
10
627.7191
20
285.5327
30
0.0
11
629.4036
21
284.4142
31
0.0
0
LINE
8
CUT
10
629.4036
20
284.4142
30
0.0
11
631.0882
21
283.2912
31
0.0
0
LINE
8
CUT
10
631.0882
20
283.2912
30
0.0
11
632.7727
21
282.1638
31
0.0
0
LINE
8
CUT
10
632.7727
20
282.1638
30
0.0
11
634.4573
21
281.0320
31
0.0
0
LINE
8
CUT
10
634.4573
20
281.0320
30
0.0
11
636.1418
21
279.8958
31
0.0
0
LINE
8
CUT
10
636.1418
20
279.8958
30
0.0
11
637.8264
21
278.7554
31
0.0
0
LINE
8
CUT
10
637.8264
20
278.7554
30
0.0
11
639.5109
21
277.6106
31
0.0
0
LINE
8
CUT
10
639.5109
20
277.6106
30
0.0
11
641.1955
21
276.4617
31
0.0
0
LINE
8
CUT
10
641.1955
20
276.4617
30
0.0
11
642.8800
21
275.3087
31
0.0
0
LINE
8
CUT
10
642.8800
20
275.3087
30
0.0
11
644.5645
21
274.1515
31
0.0
0
LINE
8
CUT
10
644.5645
20
274.1515
30
0.0
11
646.2491
21
272.9903
31
0.0
0
LINE
8
CUT
10
646.2491
20
272.9903
30
0.0
11
647.9336
21
271.8251
31
0.0
0
LINE
8
CUT
10
647.9336
20
271.8251
30
0.0
11
649.6182
21
270.6560
31
0.0
0
LINE
8
CUT
10
649.6182
20
270.6560
30
0.0
11
651.3027
21
269.4829
31
0.0
0
LINE
8
CUT
10
651.3027
20
269.4829
30
0.0
11
652.9873
21
268.3061
31
0.0
0
LINE
8
CUT
10
652.9873
20
268.3061
30
0.0
11
654.6718
21
267.1254
31
0.0
0
LINE
8
CUT
10
654.6718
20
267.1254
30
0.0
11
656.3564
21
265.9411
31
0.0
0
LINE
8
CUT
10
656.3564
20
265.9411
30
0.0
11
658.0409
21
264.7530
31
0.0
0
LINE
8
CUT
10
658.0409
20
264.7530
30
0.0
11
659.7255
21
263.5614
31
0.0
0
LINE
8
CUT
10
659.7255
20
263.5614
30
0.0
11
661.4100
21
262.3661
31
0.0
0
LINE
8
CUT
10
661.4100
20
262.3661
30
0.0
11
663.0945
21
261.1674
31
0.0
0
LINE
8
CUT
10
663.0945
20
261.1674
30
0.0
11
664.7791
21
259.9652
31
0.0
0
LINE
8
CUT
10
664.7791
20
259.9652
30
0.0
11
666.4636
21
258.7596
31
0.0
0
LINE
8
CUT
10
666.4636
20
258.7596
30
0.0
11
668.1482
21
257.5507
31
0.0
0
LINE
8
CUT
10
668.1482
20
257.5507
30
0.0
11
669.8327
21
256.3385
31
0.0
0
LINE
8
CUT
10
669.8327
20
256.3385
30
0.0
11
671.5173
21
255.1231
31
0.0
0
LINE
8
CUT
10
671.5173
20
255.1231
30
0.0
11
673.2018
21
253.8885
31
0.0
0
LINE
8
CUT
10
673.2018
20
253.8885
30
0.0
11
674.8864
21
252.5902
31
0.0
0
LINE
8
CUT
10
674.8864
20
252.5902
30
0.0
11
676.5709
21
251.2253
31
0.0
0
LINE
8
CUT
10
676.5709
20
251.2253
30
0.0
11
678.2555
21
249.7935
31
0.0
0
LINE
8
CUT
10
678.2555
20
249.7935
30
0.0
11
679.9400
21
248.4004
31
0.0
0
LINE
8
CUT
10
679.9400
20
248.4004
30
0.0
11
681.6245
21
246.8301
31
0.0
0
LINE
8
CUT
10
681.6245
20
246.8301
30
0.0
11
683.3091
21
245.1893
31
0.0
0
LINE
8
CUT
10
683.3091
20
245.1893
30
0.0
11
684.9936
21
243.4763
31
0.0
0
LINE
8
CUT
10
684.9936
20
243.4763
30
0.0
11
686.6782
21
241.6886
31
0.0
0
LINE
8
CUT
10
686.6782
20
241.6886
30
0.0
11
688.3627
21
239.8237
31
0.0
0
LINE
8
CUT
10
688.3627
20
239.8237
30
0.0
11
690.0473
21
237.8781
31
0.0
0
LINE
8
CUT
10
690.0473
20
237.8781
30
0.0
11
691.7318
21
235.8480
31
0.0
0
LINE
8
CUT
10
691.7318
20
235.8480
30
0.0
11
693.4164
21
233.7285
31
0.0
0
LINE
8
CUT
10
693.4164
20
233.7285
30
0.0
11
695.1009
21
231.5138
31
0.0
0
LINE
8
CUT
10
695.1009
20
231.5138
30
0.0
11
696.7855
21
229.1970
31
0.0
0
LINE
8
CUT
10
696.7855
20
229.1970
30
0.0
11
698.4700
21
226.7693
31
0.0
0
LINE
8
CUT
10
698.4700
20
226.7693
30
0.0
11
700.1545
21
224.2200
31
0.0
0
LINE
8
CUT
10
700.1545
20
224.2200
30
0.0
11
701.8391
21
221.5354
31
0.0
0
LINE
8
CUT
10
701.8391
20
221.5354
30
0.0
11
703.5236
21
218.6980
31
0.0
0
LINE
8
CUT
10
703.5236
20
218.6980
30
0.0
11
705.2082
21
215.6845
31
0.0
0
LINE
8
CUT
10
705.2082
20
215.6845
30
0.0
11
706.8927
21
212.4628
31
0.0
0
LINE
8
CUT
10
706.8927
20
212.4628
30
0.0
11
708.5773
21
208.9869
31
0.0
0
LINE
8
CUT
10
708.5773
20
208.9869
30
0.0
11
710.2618
21
205.1867
31
0.0
0
LINE
8
CUT
10
710.2618
20
205.1867
30
0.0
11
711.9464
21
200.9444
31
0.0
0
LINE
8
CUT
10
711.9464
20
200.9444
30
0.0
11
713.6309
21
196.0323
31
0.0
0
LINE
8
CUT
10
713.6309
20
196.0323
30
0.0
11
715.3155
21
189.8669
31
0.0
0
LINE
8
CUT
10
715.3155
20
189.8669
30
0.0
11
717.0000
21
176.3898
31
0.0
0
LINE
8
CUT
10
717.0000
20
176.3898
30
0.0
11
717.0000
21
146.9458
31
0.0
0
LINE
8
CUT
10
717.0000
20
146.9458
30
0.0
11
715.3155
21
133.4687
31
0.0
0
LINE
8
CUT
10
715.3155
20
133.4687
30
0.0
11
713.6309
21
127.3033
31
0.0
0
LINE
8
CUT
10
713.6309
20
127.3033
30
0.0
11
711.9464
21
122.3912
31
0.0
0
LINE
8
CUT
10
711.9464
20
122.3912
30
0.0
11
710.2618
21
118.1490
31
0.0
0
LINE
8
CUT
10
710.2618
20
118.1490
30
0.0
11
708.5773
21
114.3487
31
0.0
0
LINE
8
CUT
10
708.5773
20
114.3487
30
0.0
11
706.8927
21
110.8729
31
0.0
0
LINE
8
CUT
10
706.8927
20
110.8729
30
0.0
11
705.2082
21
107.6512
31
0.0
0
LINE
8
CUT
10
705.2082
20
107.6512
30
0.0
11
703.5236
21
104.6376
31
0.0
0
LINE
8
CUT
10
703.5236
20
104.6376
30
0.0
11
701.8391
21
101.8002
31
0.0
0
LINE
8
CUT
10
701.8391
20
101.8002
30
0.0
11
700.1545
21
99.1157
31
0.0
0
LINE
8
CUT
10
700.1545
20
99.1157
30
0.0
11
698.4700
21
96.5664
31
0.0
0
LINE
8
CUT
10
698.4700
20
96.5664
30
0.0
11
696.7855
21
94.1387
31
0.0
0
LINE
8
CUT
10
696.7855
20
94.1387
30
0.0
11
695.1009
21
91.8218
31
0.0
0
LINE
8
CUT
10
695.1009
20
91.8218
30
0.0
11
693.4164
21
89.6072
31
0.0
0
LINE
8
CUT
10
693.4164
20
89.6072
30
0.0
11
691.7318
21
87.4877
31
0.0
0
LINE
8
CUT
10
691.7318
20
87.4877
30
0.0
11
690.0473
21
85.4575
31
0.0
0
LINE
8
CUT
10
690.0473
20
85.4575
30
0.0
11
688.3627
21
83.5120
31
0.0
0
LINE
8
CUT
10
688.3627
20
83.5120
30
0.0
11
686.6782
21
81.6470
31
0.0
0
LINE
8
CUT
10
686.6782
20
81.6470
30
0.0
11
684.9936
21
79.8594
31
0.0
0
LINE
8
CUT
10
684.9936
20
79.8594
30
0.0
11
683.3091
21
78.1463
31
0.0
0
LINE
8
CUT
10
683.3091
20
78.1463
30
0.0
11
681.6245
21
76.5056
31
0.0
0
LINE
8
CUT
10
681.6245
20
76.5056
30
0.0
11
679.9400
21
74.9353
31
0.0
0
LINE
8
CUT
10
679.9400
20
74.9353
30
0.0
11
678.2555
21
73.5422
31
0.0
0
LINE
8
CUT
10
678.2555
20
73.5422
30
0.0
11
676.5709
21
72.1103
31
0.0
0
LINE
8
CUT
10
676.5709
20
72.1103
30
0.0
11
674.8864
21
70.7455
31
0.0
0
LINE
8
CUT
10
674.8864
20
70.7455
30
0.0
11
673.2018
21
69.4472
31
0.0
0
LINE
8
CUT
10
673.2018
20
69.4472
30
0.0
11
671.5173
21
68.2126
31
0.0
0
LINE
8
CUT
10
671.5173
20
68.2126
30
0.0
11
669.8327
21
66.9971
31
0.0
0
LINE
8
CUT
10
669.8327
20
66.9971
30
0.0
11
668.1482
21
65.7849
31
0.0
0
LINE
8
CUT
10
668.1482
20
65.7849
30
0.0
11
666.4636
21
64.5760
31
0.0
0
LINE
8
CUT
10
666.4636
20
64.5760
30
0.0
11
664.7791
21
63.3704
31
0.0
0
LINE
8
CUT
10
664.7791
20
63.3704
30
0.0
11
663.0945
21
62.1683
31
0.0
0
LINE
8
CUT
10
663.0945
20
62.1683
30
0.0
11
661.4100
21
60.9695
31
0.0
0
LINE
8
CUT
10
661.4100
20
60.9695
30
0.0
11
659.7255
21
59.7743
31
0.0
0
LINE
8
CUT
10
659.7255
20
59.7743
30
0.0
11
658.0409
21
58.5826
31
0.0
0
LINE
8
CUT
10
658.0409
20
58.5826
30
0.0
11
656.3564
21
57.3946
31
0.0
0
LINE
8
CUT
10
656.3564
20
57.3946
30
0.0
11
654.6718
21
56.2102
31
0.0
0
LINE
8
CUT
10
654.6718
20
56.2102
30
0.0
11
652.9873
21
55.0296
31
0.0
0
LINE
8
CUT
10
652.9873
20
55.0296
30
0.0
11
651.3027
21
53.8527
31
0.0
0
LINE
8
CUT
10
651.3027
20
53.8527
30
0.0
11
649.6182
21
52.6797
31
0.0
0
LINE
8
CUT
10
649.6182
20
52.6797
30
0.0
11
647.9336
21
51.5105
31
0.0
0
LINE
8
CUT
10
647.9336
20
51.5105
30
0.0
11
646.2491
21
50.3453
31
0.0
0
LINE
8
CUT
10
646.2491
20
50.3453
30
0.0
11
644.5645
21
49.1841
31
0.0
0
LINE
8
CUT
10
644.5645
20
49.1841
30
0.0
11
642.8800
21
48.0270
31
0.0
0
LINE
8
CUT
10
642.8800
20
48.0270
30
0.0
11
641.1955
21
46.8739
31
0.0
0
LINE
8
CUT
10
641.1955
20
46.8739
30
0.0
11
639.5109
21
45.7250
31
0.0
0
LINE
8
CUT
10
639.5109
20
45.7250
30
0.0
11
637.8264
21
44.5803
31
0.0
0
LINE
8
CUT
10
637.8264
20
44.5803
30
0.0
11
636.1418
21
43.4398
31
0.0
0
LINE
8
CUT
10
636.1418
20
43.4398
30
0.0
11
634.4573
21
42.3037
31
0.0
0
LINE
8
CUT
10
634.4573
20
42.3037
30
0.0
11
632.7727
21
41.1718
31
0.0
0
LINE
8
CUT
10
632.7727
20
41.1718
30
0.0
11
631.0882
21
40.0444
31
0.0
0
LINE
8
CUT
10
631.0882
20
40.0444
30
0.0
11
629.4036
21
38.9214
31
0.0
0
LINE
8
CUT
10
629.4036
20
38.9214
30
0.0
11
627.7191
21
37.8029
31
0.0
0
LINE
8
CUT
10
627.7191
20
37.8029
30
0.0
11
626.0345
21
36.6890
31
0.0
0
LINE
8
CUT
10
626.0345
20
36.6890
30
0.0
11
624.3500
21
35.5796
31
0.0
0
LINE
8
CUT
10
624.3500
20
35.5796
30
0.0
11
622.6655
21
34.4749
31
0.0
0
LINE
8
CUT
10
622.6655
20
34.4749
30
0.0
11
620.9809
21
33.3748
31
0.0
0
LINE
8
CUT
10
620.9809
20
33.3748
30
0.0
11
619.2964
21
32.2795
31
0.0
0
LINE
8
CUT
10
619.2964
20
32.2795
30
0.0
11
617.6118
21
31.1889
31
0.0
0
LINE
8
CUT
10
617.6118
20
31.1889
30
0.0
11
615.9273
21
30.1032
31
0.0
0
LINE
8
CUT
10
615.9273
20
30.1032
30
0.0
11
614.2427
21
29.0223
31
0.0
0
LINE
8
CUT
10
614.2427
20
29.0223
30
0.0
11
612.5582
21
27.9463
31
0.0
0
LINE
8
CUT
10
612.5582
20
27.9463
30
0.0
11
610.8736
21
26.8753
31
0.0
0
LINE
8
CUT
10
610.8736
20
26.8753
30
0.0
11
609.1891
21
25.8093
31
0.0
0
LINE
8
CUT
10
609.1891
20
25.8093
30
0.0
11
607.5045
21
24.7483
31
0.0
0
LINE
8
CUT
10
607.5045
20
24.7483
30
0.0
11
605.8200
21
23.6924
31
0.0
0
LINE
8
CUT
10
605.8200
20
23.6924
30
0.0
11
604.1355
21
22.6416
31
0.0
0
LINE
8
CUT
10
604.1355
20
22.6416
30
0.0
11
602.4509
21
21.5960
31
0.0
0
LINE
8
CUT
10
602.4509
20
21.5960
30
0.0
11
600.7664
21
20.5556
31
0.0
0
LINE
8
CUT
10
600.7664
20
20.5556
30
0.0
11
599.0818
21
19.5204
31
0.0
0
LINE
8
CUT
10
599.0818
20
19.5204
30
0.0
11
597.3973
21
18.4905
31
0.0
0
LINE
8
CUT
10
597.3973
20
18.4905
30
0.0
11
595.7127
21
17.4660
31
0.0
0
LINE
8
CUT
10
595.7127
20
17.4660
30
0.0
11
594.0282
21
16.4468
31
0.0
0
LINE
8
CUT
10
594.0282
20
16.4468
30
0.0
11
592.3436
21
15.4330
31
0.0
0
LINE
8
CUT
10
592.3436
20
15.4330
30
0.0
11
590.6591
21
14.4247
31
0.0
0
LINE
8
CUT
10
590.6591
20
14.4247
30
0.0
11
588.9745
21
13.4219
31
0.0
0
LINE
8
CUT
10
588.9745
20
13.4219
30
0.0
11
587.2900
21
12.4246
31
0.0
0
LINE
8
CUT
10
587.2900
20
12.4246
30
0.0
11
585.6055
21
11.4329
31
0.0
0
LINE
8
CUT
10
585.6055
20
11.4329
30
0.0
11
583.9209
21
10.4468
31
0.0
0
LINE
8
CUT
10
583.9209
20
10.4468
30
0.0
11
582.2364
21
9.4664
31
0.0
0
LINE
8
CUT
10
582.2364
20
9.4664
30
0.0
11
580.5518
21
8.4916
31
0.0
0
LINE
8
CUT
10
580.5518
20
8.4916
30
0.0
11
578.8673
21
7.5225
31
0.0
0
LINE
8
CUT
10
578.8673
20
7.5225
30
0.0
11
577.1827
21
6.5592
31
0.0
0
LINE
8
CUT
10
577.1827
20
6.5592
30
0.0
11
575.4982
21
5.6178
31
0.0
0
LINE
8
CUT
10
575.4982
20
5.6178
30
0.0
11
573.8136
21
4.7427
31
0.0
0
LINE
8
CUT
10
573.8136
20
4.7427
30
0.0
11
572.1291
21
3.9370
31
0.0
0
LINE
8
CUT
10
572.1291
20
3.9370
30
0.0
11
570.4445
21
3.2013
31
0.0
0
LINE
8
CUT
10
570.4445
20
3.2013
30
0.0
11
568.7600
21
2.5365
31
0.0
0
LINE
8
CUT
10
568.7600
20
2.5365
30
0.0
11
567.0755
21
1.9438
31
0.0
0
LINE
8
CUT
10
567.0755
20
1.9438
30
0.0
11
565.3909
21
1.4248
31
0.0
0
LINE
8
CUT
10
565.3909
20
1.4248
30
0.0
11
563.7064
21
0.9814
31
0.0
0
LINE
8
CUT
10
563.7064
20
0.9814
30
0.0
11
562.0218
21
0.6160
31
0.0
0
LINE
8
CUT
10
562.0218
20
0.6160
30
0.0
11
560.3373
21
0.3314
31
0.0
0
LINE
8
CUT
10
560.3373
20
0.3314
30
0.0
11
558.6527
21
0.1310
31
0.0
0
LINE
8
CUT
10
558.6527
20
0.1310
30
0.0
11
556.9682
21
0.0189
31
0.0
0
LINE
8
CUT
10
556.9682
20
0.0189
30
0.0
11
555.2836
21
0.0000
31
0.0
0
LINE
8
CUT
10
555.2836
20
0.0000
30
0.0
11
553.5991
21
0.0801
31
0.0
0
LINE
8
CUT
10
553.5991
20
0.0801
30
0.0
11
551.9145
21
0.2664
31
0.0
0
LINE
8
CUT
10
551.9145
20
0.2664
30
0.0
11
550.2300
21
0.5677
31
0.0
0
LINE
8
CUT
10
550.2300
20
0.5677
30
0.0
11
548.5455
21
0.9948
31
0.0
0
LINE
8
CUT
10
548.5455
20
0.9948
30
0.0
11
546.8609
21
1.5614
31
0.0
0
LINE
8
CUT
10
546.8609
20
1.5614
30
0.0
11
545.1764
21
2.2852
31
0.0
0
LINE
8
CUT
10
545.1764
20
2.2852
30
0.0
11
543.4918
21
3.1897
31
0.0
0
LINE
8
CUT
10
543.4918
20
3.1897
30
0.0
11
541.8073
21
4.3070
31
0.0
0
LINE
8
CUT
10
541.8073
20
4.3070
30
0.0
11
540.1227
21
5.6831
31
0.0
0
LINE
8
CUT
10
540.1227
20
5.6831
30
0.0
11
538.4382
21
7.3884
31
0.0
0
LINE
8
CUT
10
538.4382
20
7.3884
30
0.0
11
536.7536
21
9.5406
31
0.0
0
LINE
8
CUT
10
536.7536
20
9.5406
30
0.0
11
535.0691
21
12.3677
31
0.0
0
LINE
8
CUT
10
535.0691
20
12.3677
30
0.0
11
533.3845
21
16.4532
31
0.0
0
LINE
8
CUT
10
533.3845
20
16.4532
30
0.0
11
531.7000
21
27.8557
31
0.0
0
LINE
8
CUT
10
531.7000
20
27.8557
30
0.0
11
531.7000
21
295.4800
31
0.0
0
LINE
8
CUT
10
531.7000
20
295.4800
30
0.0
11
531.7000
21
295.4800
31
0.0
0
LINE
8
CUT
10
725.0000
20
226.9190
30
0.0
11
725.7727
21
235.8448
31
0.0
0
LINE
8
CUT
10
725.7727
20
235.8448
30
0.0
11
726.5455
21
239.8542
31
0.0
0
LINE
8
CUT
10
726.5455
20
239.8542
30
0.0
11
727.3182
21
243.0388
31
0.0
0
LINE
8
CUT
10
727.3182
20
243.0388
30
0.0
11
728.0909
21
245.7897
31
0.0
0
LINE
8
CUT
10
728.0909
20
245.7897
30
0.0
11
728.8636
21
248.2593
31
0.0
0
LINE
8
CUT
10
728.8636
20
248.2593
30
0.0
11
729.6364
21
250.6731
31
0.0
0
LINE
8
CUT
10
729.6364
20
250.6731
30
0.0
11
730.4091
21
252.7841
31
0.0
0
LINE
8
CUT
10
730.4091
20
252.7841
30
0.0
11
731.1818
21
254.7694
31
0.0
0
LINE
8
CUT
10
731.1818
20
254.7694
30
0.0
11
731.9545
21
256.6503
31
0.0
0
LINE
8
CUT
10
731.9545
20
256.6503
30
0.0
11
732.7273
21
258.4422
31
0.0
0
LINE
8
CUT
10
732.7273
20
258.4422
30
0.0
11
733.5000
21
260.1570
31
0.0
0
LINE
8
CUT
10
733.5000
20
260.1570
30
0.0
11
734.2727
21
261.8039
31
0.0
0
LINE
8
CUT
10
734.2727
20
261.8039
30
0.0
11
735.0455
21
263.3901
31
0.0
0
LINE
8
CUT
10
735.0455
20
263.3901
30
0.0
11
735.8182
21
264.9216
31
0.0
0
LINE
8
CUT
10
735.8182
20
264.9216
30
0.0
11
736.5909
21
266.4034
31
0.0
0
LINE
8
CUT
10
736.5909
20
266.4034
30
0.0
11
737.3636
21
267.8394
31
0.0
0
LINE
8
CUT
10
737.3636
20
267.8394
30
0.0
11
738.1364
21
269.2331
31
0.0
0
LINE
8
CUT
10
738.1364
20
269.2331
30
0.0
11
738.9091
21
270.5877
31
0.0
0
LINE
8
CUT
10
738.9091
20
270.5877
30
0.0
11
739.6818
21
271.9055
31
0.0
0
LINE
8
CUT
10
739.6818
20
271.9055
30
0.0
11
740.4545
21
273.1889
31
0.0
0
LINE
8
CUT
10
740.4545
20
273.1889
30
0.0
11
741.2273
21
274.4398
31
0.0
0
LINE
8
CUT
10
741.2273
20
274.4398
30
0.0
11
742.0000
21
275.6599
31
0.0
0
LINE
8
CUT
10
742.0000
20
275.6599
30
0.0
11
742.7727
21
276.8508
31
0.0
0
LINE
8
CUT
10
742.7727
20
276.8508
30
0.0
11
743.5455
21
278.0137
31
0.0
0
LINE
8
CUT
10
743.5455
20
278.0137
30
0.0
11
744.3182
21
279.1501
31
0.0
0
LINE
8
CUT
10
744.3182
20
279.1501
30
0.0
11
745.0909
21
280.2608
31
0.0
0
LINE
8
CUT
10
745.0909
20
280.2608
30
0.0
11
745.8636
21
281.3470
31
0.0
0
LINE
8
CUT
10
745.8636
20
281.3470
30
0.0
11
746.6364
21
282.4095
31
0.0
0
LINE
8
CUT
10
746.6364
20
282.4095
30
0.0
11
747.4091
21
283.4492
31
0.0
0
LINE
8
CUT
10
747.4091
20
283.4492
30
0.0
11
748.1818
21
284.4667
31
0.0
0
LINE
8
CUT
10
748.1818
20
284.4667
30
0.0
11
748.9545
21
285.4627
31
0.0
0
LINE
8
CUT
10
748.9545
20
285.4627
30
0.0
11
749.7273
21
286.4379
31
0.0
0
LINE
8
CUT
10
749.7273
20
286.4379
30
0.0
11
750.5000
21
287.3928
31
0.0
0
LINE
8
CUT
10
750.5000
20
287.3928
30
0.0
11
751.2727
21
288.3279
31
0.0
0
LINE
8
CUT
10
751.2727
20
288.3279
30
0.0
11
752.0455
21
289.2437
31
0.0
0
LINE
8
CUT
10
752.0455
20
289.2437
30
0.0
11
752.8182
21
290.1406
31
0.0
0
LINE
8
CUT
10
752.8182
20
290.1406
30
0.0
11
753.5909
21
291.0191
31
0.0
0
LINE
8
CUT
10
753.5909
20
291.0191
30
0.0
11
754.3636
21
291.8794
31
0.0
0
LINE
8
CUT
10
754.3636
20
291.8794
30
0.0
11
755.1364
21
292.7220
31
0.0
0
LINE
8
CUT
10
755.1364
20
292.7220
30
0.0
11
755.9091
21
293.5470
31
0.0
0
LINE
8
CUT
10
755.9091
20
293.5470
30
0.0
11
756.6818
21
294.3550
31
0.0
0
LINE
8
CUT
10
756.6818
20
294.3550
30
0.0
11
757.4545
21
295.1459
31
0.0
0
LINE
8
CUT
10
757.4545
20
295.1459
30
0.0
11
758.2273
21
295.9202
31
0.0
0
LINE
8
CUT
10
758.2273
20
295.9202
30
0.0
11
759.0000
21
296.6781
31
0.0
0
LINE
8
CUT
10
759.0000
20
296.6781
30
0.0
11
759.7727
21
297.4196
31
0.0
0
LINE
8
CUT
10
759.7727
20
297.4196
30
0.0
11
760.5455
21
298.1450
31
0.0
0
LINE
8
CUT
10
760.5455
20
298.1450
30
0.0
11
761.3182
21
298.8546
31
0.0
0
LINE
8
CUT
10
761.3182
20
298.8546
30
0.0
11
762.0909
21
299.5483
31
0.0
0
LINE
8
CUT
10
762.0909
20
299.5483
30
0.0
11
762.8636
21
300.2264
31
0.0
0
LINE
8
CUT
10
762.8636
20
300.2264
30
0.0
11
763.6364
21
300.8889
31
0.0
0
LINE
8
CUT
10
763.6364
20
300.8889
30
0.0
11
764.4091
21
301.5360
31
0.0
0
LINE
8
CUT
10
764.4091
20
301.5360
30
0.0
11
765.1818
21
302.1674
31
0.0
0
LINE
8
CUT
10
765.1818
20
302.1674
30
0.0
11
765.9545
21
302.7742
31
0.0
0
LINE
8
CUT
10
765.9545
20
302.7742
30
0.0
11
766.7273
21
303.3524
31
0.0
0
LINE
8
CUT
10
766.7273
20
303.3524
30
0.0
11
767.5000
21
303.9022
31
0.0
0
LINE
8
CUT
10
767.5000
20
303.9022
30
0.0
11
768.2727
21
304.4236
31
0.0
0
LINE
8
CUT
10
768.2727
20
304.4236
30
0.0
11
769.0455
21
305.0997
31
0.0
0
LINE
8
CUT
10
769.0455
20
305.0997
30
0.0
11
769.8182
21
305.5647
31
0.0
0
LINE
8
CUT
10
769.8182
20
305.5647
30
0.0
11
770.5909
21
306.0051
31
0.0
0
LINE
8
CUT
10
770.5909
20
306.0051
30
0.0
11
771.3636
21
306.4296
31
0.0
0
LINE
8
CUT
10
771.3636
20
306.4296
30
0.0
11
772.1364
21
306.8387
31
0.0
0
LINE
8
CUT
10
772.1364
20
306.8387
30
0.0
11
772.9091
21
307.2321
31
0.0
0
LINE
8
CUT
10
772.9091
20
307.2321
30
0.0
11
773.6818
21
307.6099
31
0.0
0
LINE
8
CUT
10
773.6818
20
307.6099
30
0.0
11
774.4545
21
307.9717
31
0.0
0
LINE
8
CUT
10
774.4545
20
307.9717
30
0.0
11
775.2273
21
308.3175
31
0.0
0
LINE
8
CUT
10
775.2273
20
308.3175
30
0.0
11
776.0000
21
308.6471
31
0.0
0
LINE
8
CUT
10
776.0000
20
308.6471
30
0.0
11
776.7727
21
308.9602
31
0.0
0
LINE
8
CUT
10
776.7727
20
308.9602
30
0.0
11
777.5455
21
309.2568
31
0.0
0
LINE
8
CUT
10
777.5455
20
309.2568
30
0.0
11
778.3182
21
309.5365
31
0.0
0
LINE
8
CUT
10
778.3182
20
309.5365
30
0.0
11
779.0909
21
309.7991
31
0.0
0
LINE
8
CUT
10
779.0909
20
309.7991
30
0.0
11
779.8636
21
310.0444
31
0.0
0
LINE
8
CUT
10
779.8636
20
310.0444
30
0.0
11
780.6364
21
310.2719
31
0.0
0
LINE
8
CUT
10
780.6364
20
310.2719
30
0.0
11
781.4091
21
310.4816
31
0.0
0
LINE
8
CUT
10
781.4091
20
310.4816
30
0.0
11
782.1818
21
310.6728
31
0.0
0
LINE
8
CUT
10
782.1818
20
310.6728
30
0.0
11
782.9545
21
310.8454
31
0.0
0
LINE
8
CUT
10
782.9545
20
310.8454
30
0.0
11
783.7273
21
310.9989
31
0.0
0
LINE
8
CUT
10
783.7273
20
310.9989
30
0.0
11
784.5000
21
311.1328
31
0.0
0
LINE
8
CUT
10
784.5000
20
311.1328
30
0.0
11
785.2727
21
311.2466
31
0.0
0
LINE
8
CUT
10
785.2727
20
311.2466
30
0.0
11
786.0455
21
311.3399
31
0.0
0
LINE
8
CUT
10
786.0455
20
311.3399
30
0.0
11
786.8182
21
311.4121
31
0.0
0
LINE
8
CUT
10
786.8182
20
311.4121
30
0.0
11
787.5909
21
311.4625
31
0.0
0
LINE
8
CUT
10
787.5909
20
311.4625
30
0.0
11
788.3636
21
311.4904
31
0.0
0
LINE
8
CUT
10
788.3636
20
311.4904
30
0.0
11
789.1364
21
311.4952
31
0.0
0
LINE
8
CUT
10
789.1364
20
311.4952
30
0.0
11
789.9091
21
311.4759
31
0.0
0
LINE
8
CUT
10
789.9091
20
311.4759
30
0.0
11
790.6818
21
311.4317
31
0.0
0
LINE
8
CUT
10
790.6818
20
311.4317
30
0.0
11
791.4545
21
311.3616
31
0.0
0
LINE
8
CUT
10
791.4545
20
311.3616
30
0.0
11
792.2273
21
311.2644
31
0.0
0
LINE
8
CUT
10
792.2273
20
311.2644
30
0.0
11
793.0000
21
311.1390
31
0.0
0
LINE
8
CUT
10
793.0000
20
311.1390
30
0.0
11
793.7727
21
310.9840
31
0.0
0
LINE
8
CUT
10
793.7727
20
310.9840
30
0.0
11
794.5455
21
310.7977
31
0.0
0
LINE
8
CUT
10
794.5455
20
310.7977
30
0.0
11
795.3182
21
310.5786
31
0.0
0
LINE
8
CUT
10
795.3182
20
310.5786
30
0.0
11
796.0909
21
310.3246
31
0.0
0
LINE
8
CUT
10
796.0909
20
310.3246
30
0.0
11
796.8636
21
310.0334
31
0.0
0
LINE
8
CUT
10
796.8636
20
310.0334
30
0.0
11
797.6364
21
309.7025
31
0.0
0
LINE
8
CUT
10
797.6364
20
309.7025
30
0.0
11
798.4091
21
309.3289
31
0.0
0
LINE
8
CUT
10
798.4091
20
309.3289
30
0.0
11
799.1818
21
308.9092
31
0.0
0
LINE
8
CUT
10
799.1818
20
308.9092
30
0.0
11
799.9545
21
308.4391
31
0.0
0
LINE
8
CUT
10
799.9545
20
308.4391
30
0.0
11
800.7273
21
307.9139
31
0.0
0
LINE
8
CUT
10
800.7273
20
307.9139
30
0.0
11
801.5000
21
307.3274
31
0.0
0
LINE
8
CUT
10
801.5000
20
307.3274
30
0.0
11
802.2727
21
306.6725
31
0.0
0
LINE
8
CUT
10
802.2727
20
306.6725
30
0.0
11
803.0455
21
305.9400
31
0.0
0
LINE
8
CUT
10
803.0455
20
305.9400
30
0.0
11
803.8182
21
305.1179
31
0.0
0
LINE
8
CUT
10
803.8182
20
305.1179
30
0.0
11
804.5909
21
304.1909
31
0.0
0
LINE
8
CUT
10
804.5909
20
304.1909
30
0.0
11
805.3636
21
303.1375
31
0.0
0
LINE
8
CUT
10
805.3636
20
303.1375
30
0.0
11
806.1364
21
301.9273
31
0.0
0
LINE
8
CUT
10
806.1364
20
301.9273
30
0.0
11
806.9091
21
300.5135
31
0.0
0
LINE
8
CUT
10
806.9091
20
300.5135
30
0.0
11
807.6818
21
298.8176
31
0.0
0
LINE
8
CUT
10
807.6818
20
298.8176
30
0.0
11
808.4545
21
296.6876
31
0.0
0
LINE
8
CUT
10
808.4545
20
296.6876
30
0.0
11
809.2273
21
293.7320
31
0.0
0
LINE
8
CUT
10
809.2273
20
293.7320
30
0.0
11
810.0000
21
285.8593
31
0.0
0
LINE
8
CUT
10
810.0000
20
285.8593
30
0.0
11
810.0000
21
25.6359
31
0.0
0
LINE
8
CUT
10
810.0000
20
25.6359
30
0.0
11
809.2273
21
17.7632
31
0.0
0
LINE
8
CUT
10
809.2273
20
17.7632
30
0.0
11
808.4545
21
14.8076
31
0.0
0
LINE
8
CUT
10
808.4545
20
14.8076
30
0.0
11
807.6818
21
12.6776
31
0.0
0
LINE
8
CUT
10
807.6818
20
12.6776
30
0.0
11
806.9091
21
10.9817
31
0.0
0
LINE
8
CUT
10
806.9091
20
10.9817
30
0.0
11
806.1364
21
9.5679
31
0.0
0
LINE
8
CUT
10
806.1364
20
9.5679
30
0.0
11
805.3636
21
8.3577
31
0.0
0
LINE
8
CUT
10
805.3636
20
8.3577
30
0.0
11
804.5909
21
7.3043
31
0.0
0
LINE
8
CUT
10
804.5909
20
7.3043
30
0.0
11
803.8182
21
6.3773
31
0.0
0
LINE
8
CUT
10
803.8182
20
6.3773
30
0.0
11
803.0455
21
5.5552
31
0.0
0
LINE
8
CUT
10
803.0455
20
5.5552
30
0.0
11
802.2727
21
4.8226
31
0.0
0
LINE
8
CUT
10
802.2727
20
4.8226
30
0.0
11
801.5000
21
4.1677
31
0.0
0
LINE
8
CUT
10
801.5000
20
4.1677
30
0.0
11
800.7273
21
3.5813
31
0.0
0
LINE
8
CUT
10
800.7273
20
3.5813
30
0.0
11
799.9545
21
3.0560
31
0.0
0
LINE
8
CUT
10
799.9545
20
3.0560
30
0.0
11
799.1818
21
2.5860
31
0.0
0
LINE
8
CUT
10
799.1818
20
2.5860
30
0.0
11
798.4091
21
2.1662
31
0.0
0
LINE
8
CUT
10
798.4091
20
2.1662
30
0.0
11
797.6364
21
1.7927
31
0.0
0
LINE
8
CUT
10
797.6364
20
1.7927
30
0.0
11
796.8636
21
1.4618
31
0.0
0
LINE
8
CUT
10
796.8636
20
1.4618
30
0.0
11
796.0909
21
1.1706
31
0.0
0
LINE
8
CUT
10
796.0909
20
1.1706
30
0.0
11
795.3182
21
0.9166
31
0.0
0
LINE
8
CUT
10
795.3182
20
0.9166
30
0.0
11
794.5455
21
0.6974
31
0.0
0
LINE
8
CUT
10
794.5455
20
0.6974
30
0.0
11
793.7727
21
0.5112
31
0.0
0
LINE
8
CUT
10
793.7727
20
0.5112
30
0.0
11
793.0000
21
0.3562
31
0.0
0
LINE
8
CUT
10
793.0000
20
0.3562
30
0.0
11
792.2273
21
0.2307
31
0.0
0
LINE
8
CUT
10
792.2273
20
0.2307
30
0.0
11
791.4545
21
0.1336
31
0.0
0
LINE
8
CUT
10
791.4545
20
0.1336
30
0.0
11
790.6818
21
0.0635
31
0.0
0
LINE
8
CUT
10
790.6818
20
0.0635
30
0.0
11
789.9091
21
0.0193
31
0.0
0
LINE
8
CUT
10
789.9091
20
0.0193
30
0.0
11
789.1364
21
0.0000
31
0.0
0
LINE
8
CUT
10
789.1364
20
0.0000
30
0.0
11
788.3636
21
0.0047
31
0.0
0
LINE
8
CUT
10
788.3636
20
0.0047
30
0.0
11
787.5909
21
0.0327
31
0.0
0
LINE
8
CUT
10
787.5909
20
0.0327
30
0.0
11
786.8182
21
0.0831
31
0.0
0
LINE
8
CUT
10
786.8182
20
0.0831
30
0.0
11
786.0455
21
0.1552
31
0.0
0
LINE
8
CUT
10
786.0455
20
0.1552
30
0.0
11
785.2727
21
0.2485
31
0.0
0
LINE
8
CUT
10
785.2727
20
0.2485
30
0.0
11
784.5000
21
0.3624
31
0.0
0
LINE
8
CUT
10
784.5000
20
0.3624
30
0.0
11
783.7273
21
0.4963
31
0.0
0
LINE
8
CUT
10
783.7273
20
0.4963
30
0.0
11
782.9545
21
0.6498
31
0.0
0
LINE
8
CUT
10
782.9545
20
0.6498
30
0.0
11
782.1818
21
0.8223
31
0.0
0
LINE
8
CUT
10
782.1818
20
0.8223
30
0.0
11
781.4091
21
1.0136
31
0.0
0
LINE
8
CUT
10
781.4091
20
1.0136
30
0.0
11
780.6364
21
1.2232
31
0.0
0
LINE
8
CUT
10
780.6364
20
1.2232
30
0.0
11
779.8636
21
1.4508
31
0.0
0
LINE
8
CUT
10
779.8636
20
1.4508
30
0.0
11
779.0909
21
1.6961
31
0.0
0
LINE
8
CUT
10
779.0909
20
1.6961
30
0.0
11
778.3182
21
1.9587
31
0.0
0
LINE
8
CUT
10
778.3182
20
1.9587
30
0.0
11
777.5455
21
2.2384
31
0.0
0
LINE
8
CUT
10
777.5455
20
2.2384
30
0.0
11
776.7727
21
2.5350
31
0.0
0
LINE
8
CUT
10
776.7727
20
2.5350
30
0.0
11
776.0000
21
2.8481
31
0.0
0
LINE
8
CUT
10
776.0000
20
2.8481
30
0.0
11
775.2273
21
3.1777
31
0.0
0
LINE
8
CUT
10
775.2273
20
3.1777
30
0.0
11
774.4545
21
3.5235
31
0.0
0
LINE
8
CUT
10
774.4545
20
3.5235
30
0.0
11
773.6818
21
3.8853
31
0.0
0
LINE
8
CUT
10
773.6818
20
3.8853
30
0.0
11
772.9091
21
4.2630
31
0.0
0
LINE
8
CUT
10
772.9091
20
4.2630
30
0.0
11
772.1364
21
4.6565
31
0.0
0
LINE
8
CUT
10
772.1364
20
4.6565
30
0.0
11
771.3636
21
5.0656
31
0.0
0
LINE
8
CUT
10
771.3636
20
5.0656
30
0.0
11
770.5909
21
5.4901
31
0.0
0
LINE
8
CUT
10
770.5909
20
5.4901
30
0.0
11
769.8182
21
5.9304
31
0.0
0
LINE
8
CUT
10
769.8182
20
5.9304
30
0.0
11
769.0455
21
6.3955
31
0.0
0
LINE
8
CUT
10
769.0455
20
6.3955
30
0.0
11
768.2727
21
7.0716
31
0.0
0
LINE
8
CUT
10
768.2727
20
7.0716
30
0.0
11
767.5000
21
7.5930
31
0.0
0
LINE
8
CUT
10
767.5000
20
7.5930
30
0.0
11
766.7273
21
8.1428
31
0.0
0
LINE
8
CUT
10
766.7273
20
8.1428
30
0.0
11
765.9545
21
8.7210
31
0.0
0
LINE
8
CUT
10
765.9545
20
8.7210
30
0.0
11
765.1818
21
9.3277
31
0.0
0
LINE
8
CUT
10
765.1818
20
9.3277
30
0.0
11
764.4091
21
9.9591
31
0.0
0
LINE
8
CUT
10
764.4091
20
9.9591
30
0.0
11
763.6364
21
10.6063
31
0.0
0
LINE
8
CUT
10
763.6364
20
10.6063
30
0.0
11
762.8636
21
11.2688
31
0.0
0
LINE
8
CUT
10
762.8636
20
11.2688
30
0.0
11
762.0909
21
11.9469
31
0.0
0
LINE
8
CUT
10
762.0909
20
11.9469
30
0.0
11
761.3182
21
12.6406
31
0.0
0
LINE
8
CUT
10
761.3182
20
12.6406
30
0.0
11
760.5455
21
13.3501
31
0.0
0
LINE
8
CUT
10
760.5455
20
13.3501
30
0.0
11
759.7727
21
14.0756
31
0.0
0
LINE
8
CUT
10
759.7727
20
14.0756
30
0.0
11
759.0000
21
14.8171
31
0.0
0
LINE
8
CUT
10
759.0000
20
14.8171
30
0.0
11
758.2273
21
15.5750
31
0.0
0
LINE
8
CUT
10
758.2273
20
15.5750
30
0.0
11
757.4545
21
16.3492
31
0.0
0
LINE
8
CUT
10
757.4545
20
16.3492
30
0.0
11
756.6818
21
17.1402
31
0.0
0
LINE
8
CUT
10
756.6818
20
17.1402
30
0.0
11
755.9091
21
17.9481
31
0.0
0
LINE
8
CUT
10
755.9091
20
17.9481
30
0.0
11
755.1364
21
18.7732
31
0.0
0
LINE
8
CUT
10
755.1364
20
18.7732
30
0.0
11
754.3636
21
19.6158
31
0.0
0
LINE
8
CUT
10
754.3636
20
19.6158
30
0.0
11
753.5909
21
20.4761
31
0.0
0
LINE
8
CUT
10
753.5909
20
20.4761
30
0.0
11
752.8182
21
21.3546
31
0.0
0
LINE
8
CUT
10
752.8182
20
21.3546
30
0.0
11
752.0455
21
22.2515
31
0.0
0
LINE
8
CUT
10
752.0455
20
22.2515
30
0.0
11
751.2727
21
23.1673
31
0.0
0
LINE
8
CUT
10
751.2727
20
23.1673
30
0.0
11
750.5000
21
24.1024
31
0.0
0
LINE
8
CUT
10
750.5000
20
24.1024
30
0.0
11
749.7273
21
25.0573
31
0.0
0
LINE
8
CUT
10
749.7273
20
25.0573
30
0.0
11
748.9545
21
26.0325
31
0.0
0
LINE
8
CUT
10
748.9545
20
26.0325
30
0.0
11
748.1818
21
27.0285
31
0.0
0
LINE
8
CUT
10
748.1818
20
27.0285
30
0.0
11
747.4091
21
28.0460
31
0.0
0
LINE
8
CUT
10
747.4091
20
28.0460
30
0.0
11
746.6364
21
29.0856
31
0.0
0
LINE
8
CUT
10
746.6364
20
29.0856
30
0.0
11
745.8636
21
30.1481
31
0.0
0
LINE
8
CUT
10
745.8636
20
30.1481
30
0.0
11
745.0909
21
31.2343
31
0.0
0
LINE
8
CUT
10
745.0909
20
31.2343
30
0.0
11
744.3182
21
32.3451
31
0.0
0
LINE
8
CUT
10
744.3182
20
32.3451
30
0.0
11
743.5455
21
33.4814
31
0.0
0
LINE
8
CUT
10
743.5455
20
33.4814
30
0.0
11
742.7727
21
34.6444
31
0.0
0
LINE
8
CUT
10
742.7727
20
34.6444
30
0.0
11
742.0000
21
35.8353
31
0.0
0
LINE
8
CUT
10
742.0000
20
35.8353
30
0.0
11
741.2273
21
37.0554
31
0.0
0
LINE
8
CUT
10
741.2273
20
37.0554
30
0.0
11
740.4545
21
38.3063
31
0.0
0
LINE
8
CUT
10
740.4545
20
38.3063
30
0.0
11
739.6818
21
39.5897
31
0.0
0
LINE
8
CUT
10
739.6818
20
39.5897
30
0.0
11
738.9091
21
40.9075
31
0.0
0
LINE
8
CUT
10
738.9091
20
40.9075
30
0.0
11
738.1364
21
42.2621
31
0.0
0
LINE
8
CUT
10
738.1364
20
42.2621
30
0.0
11
737.3636
21
43.6558
31
0.0
0
LINE
8
CUT
10
737.3636
20
43.6558
30
0.0
11
736.5909
21
45.0918
31
0.0
0
LINE
8
CUT
10
736.5909
20
45.0918
30
0.0
11
735.8182
21
46.5735
31
0.0
0
LINE
8
CUT
10
735.8182
20
46.5735
30
0.0
11
735.0455
21
48.1051
31
0.0
0
LINE
8
CUT
10
735.0455
20
48.1051
30
0.0
11
734.2727
21
49.6913
31
0.0
0
LINE
8
CUT
10
734.2727
20
49.6913
30
0.0
11
733.5000
21
51.3381
31
0.0
0
LINE
8
CUT
10
733.5000
20
51.3381
30
0.0
11
732.7273
21
53.0530
31
0.0
0
LINE
8
CUT
10
732.7273
20
53.0530
30
0.0
11
731.9545
21
54.8449
31
0.0
0
LINE
8
CUT
10
731.9545
20
54.8449
30
0.0
11
731.1818
21
56.7258
31
0.0
0
LINE
8
CUT
10
731.1818
20
56.7258
30
0.0
11
730.4091
21
58.7110
31
0.0
0
LINE
8
CUT
10
730.4091
20
58.7110
30
0.0
11
729.6364
21
60.8221
31
0.0
0
LINE
8
CUT
10
729.6364
20
60.8221
30
0.0
11
728.8636
21
63.2359
31
0.0
0
LINE
8
CUT
10
728.8636
20
63.2359
30
0.0
11
728.0909
21
65.7055
31
0.0
0
LINE
8
CUT
10
728.0909
20
65.7055
30
0.0
11
727.3182
21
68.4564
31
0.0
0
LINE
8
CUT
10
727.3182
20
68.4564
30
0.0
11
726.5455
21
71.6409
31
0.0
0
LINE
8
CUT
10
726.5455
20
71.6409
30
0.0
11
725.7727
21
75.6503
31
0.0
0
LINE
8
CUT
10
725.7727
20
75.6503
30
0.0
11
725.0000
21
84.5762
31
0.0
0
LINE
8
CUT
10
725.0000
20
84.5762
30
0.0
11
725.0000
21
226.9190
31
0.0
0
LINE
8
CUT
10
725.0000
20
226.9190
30
0.0
11
725.0000
21
226.9190
31
0.0
0
ENDSEC
0
EOF
