0
SECTION
2
ENTITIES
0
LINE
8
CHANNEL
10
0.0000
20
0.0000
30
0.0
11
2400.0000
21
0.0000
31
0.0
0
LINE
8
CHANNEL
10
2400.0000
20
0.0000
30
0.0
11
2400.0000
21
600.0000
31
0.0
0
LINE
8
CHANNEL
10
2400.0000
20
600.0000
30
0.0
11
0.0000
21
600.0000
31
0.0
0
LINE
8
CHANNEL
10
0.0000
20
600.0000
30
0.0
11
0.0000
21
0.0000
31
0.0
0
LINE
8
CHANNEL
10
0.0000
20
0.0000
30
0.0
11
0.0000
21
0.0000
31
0.0
0
LINE
8
CUT
10
0.0000
20
308.9000
30
0.0
11
4.8191
21
325.0587
31
0.0
0
LINE
8
CUT
10
4.8191
20
325.0587
30
0.0
11
9.6382
21
330.7119
31
0.0
0
LINE
8
CUT
10
9.6382
20
330.7119
30
0.0
11
14.4573
21
334.2765
31
0.0
0
LINE
8
CUT
10
14.4573
20
334.2765
30
0.0
11
19.2764
21
336.5718
31
0.0
0
LINE
8
CUT
10
19.2764
20
336.5718
30
0.0
11
24.0955
21
337.9007
31
0.0
0
LINE
8
CUT
10
24.0955
20
337.9007
30
0.0
11
28.9145
21
338.3942
31
0.0
0
LINE
8
CUT
10
28.9145
20
338.3942
30
0.0
11
33.7336
21
338.4000
31
0.0
0
LINE
8
CUT
10
33.7336
20
338.4000
30
0.0
11
38.5527
21
338.4000
31
0.0
0
LINE
8
CUT
10
38.5527
20
338.4000
30
0.0
11
43.3718
21
338.4000
31
0.0
0
LINE
8
CUT
10
43.3718
20
338.4000
30
0.0
11
48.1909
21
338.4000
31
0.0
0
LINE
8
CUT
10
48.1909
20
338.4000
30
0.0
11
53.0100
21
338.4000
31
0.0
0
LINE
8
CUT
10
53.0100
20
338.4000
30
0.0
11
57.8291
21
338.4000
31
0.0
0
LINE
8
CUT
10
57.8291
20
338.4000
30
0.0
11
62.6482
21
338.4000
31
0.0
0
LINE
8
CUT
10
62.6482
20
338.4000
30
0.0
11
67.4673
21
338.4000
31
0.0
0
LINE
8
CUT
10
67.4673
20
338.4000
30
0.0
11
72.2864
21
338.4000
31
0.0
0
LINE
8
CUT
10
72.2864
20
338.4000
30
0.0
11
77.1055
21
338.4000
31
0.0
0
LINE
8
CUT
10
77.1055
20
338.4000
30
0.0
11
81.9245
21
338.4000
31
0.0
0
LINE
8
CUT
10
81.9245
20
338.4000
30
0.0
11
86.7436
21
338.4000
31
0.0
0
LINE
8
CUT
10
86.7436
20
338.4000
30
0.0
11
91.5627
21
338.4000
31
0.0
0
LINE
8
CUT
10
91.5627
20
338.4000
30
0.0
11
96.3818
21
338.4000
31
0.0
0
LINE
8
CUT
10
96.3818
20
338.4000
30
0.0
11
101.2009
21
338.4000
31
0.0
0
LINE
8
CUT
10
101.2009
20
338.4000
30
0.0
11
106.0200
21
338.4000
31
0.0
0
LINE
8
CUT
10
106.0200
20
338.4000
30
0.0
11
110.8391
21
338.4000
31
0.0
0
LINE
8
CUT
10
110.8391
20
338.4000
30
0.0
11
115.6582
21
338.4000
31
0.0
0
LINE
8
CUT
10
115.6582
20
338.4000
30
0.0
11
120.4773
21
338.4000
31
0.0
0
LINE
8
CUT
10
120.4773
20
338.4000
30
0.0
11
125.2964
21
338.4000
31
0.0
0
LINE
8
CUT
10
125.2964
20
338.4000
30
0.0
11
130.1155
21
338.4000
31
0.0
0
LINE
8
CUT
10
130.1155
20
338.4000
30
0.0
11
134.9345
21
338.4000
31
0.0
0
LINE
8
CUT
10
134.9345
20
338.4000
30
0.0
11
139.7536
21
338.4000
31
0.0
0
LINE
8
CUT
10
139.7536
20
338.4000
30
0.0
11
144.5727
21
338.4000
31
0.0
0
LINE
8
CUT
10
144.5727
20
338.4000
30
0.0
11
149.3918
21
338.4000
31
0.0
0
LINE
8
CUT
10
149.3918
20
338.4000
30
0.0
11
154.2109
21
338.4000
31
0.0
0
LINE
8
CUT
10
154.2109
20
338.4000
30
0.0
11
159.0300
21
338.4000
31
0.0
0
LINE
8
CUT
10
159.0300
20
338.4000
30
0.0
11
163.8491
21
338.4000
31
0.0
0
LINE
8
CUT
10
163.8491
20
338.4000
30
0.0
11
168.6682
21
338.4000
31
0.0
0
LINE
8
CUT
10
168.6682
20
338.4000
30
0.0
11
173.4873
21
338.4000
31
0.0
0
LINE
8
CUT
10
173.4873
20
338.4000
30
0.0
11
178.3064
21
338.4000
31
0.0
0
LINE
8
CUT
10
178.3064
20
338.4000
30
0.0
11
183.1255
21
338.4000
31
0.0
0
LINE
8
CUT
10
183.1255
20
338.4000
30
0.0
11
187.9445
21
338.4000
31
0.0
0
LINE
8
CUT
10
187.9445
20
338.4000
30
0.0
11
192.7636
21
338.4000
31
0.0
0
LINE
8
CUT
10
192.7636
20
338.4000
30
0.0
11
197.5827
21
338.4000
31
0.0
0
LINE
8
CUT
10
197.5827
20
338.4000
30
0.0
11
202.4018
21
338.4000
31
0.0
0
LINE
8
CUT
10
202.4018
20
338.4000
30
0.0
11
207.2209
21
338.4000
31
0.0
0
LINE
8
CUT
10
207.2209
20
338.4000
30
0.0
11
212.0400
21
338.4000
31
0.0
0
LINE
8
CUT
10
212.0400
20
338.4000
30
0.0
11
216.8591
21
338.4000
31
0.0
0
LINE
8
CUT
10
216.8591
20
338.4000
30
0.0
11
221.6782
21
338.4000
31
0.0
0
LINE
8
CUT
10
221.6782
20
338.4000
30
0.0
11
226.4973
21
338.4000
31
0.0
0
LINE
8
CUT
10
226.4973
20
338.4000
30
0.0
11
231.3164
21
338.4000
31
0.0
0
LINE
8
CUT
10
231.3164
20
338.4000
30
0.0
11
236.1355
21
338.4000
31
0.0
0
LINE
8
CUT
10
236.1355
20
338.4000
30
0.0
11
240.9545
21
338.4000
31
0.0
0
LINE
8
CUT
10
240.9545
20
338.4000
30
0.0
11
245.7736
21
338.4000
31
0.0
0
LINE
8
CUT
10
245.7736
20
338.4000
30
0.0
11
250.5927
21
338.4000
31
0.0
0
LINE
8
CUT
10
250.5927
20
338.4000
30
0.0
11
255.4118
21
338.4000
31
0.0
0
LINE
8
CUT
10
255.4118
20
338.4000
30
0.0
11
260.2309
21
338.4000
31
0.0
0
LINE
8
CUT
10
260.2309
20
338.4000
30
0.0
11
265.0500
21
338.4000
31
0.0
0
LINE
8
CUT
10
265.0500
20
338.4000
30
0.0
11
269.8691
21
338.4000
31
0.0
0
LINE
8
CUT
10
269.8691
20
338.4000
30
0.0
11
274.6882
21
338.4000
31
0.0
0
LINE
8
CUT
10
274.6882
20
338.4000
30
0.0
11
279.5073
21
338.4000
31
0.0
0
LINE
8
CUT
10
279.5073
20
338.4000
30
0.0
11
284.3264
21
338.4000
31
0.0
0
LINE
8
CUT
10
284.3264
20
338.4000
30
0.0
11
289.1455
21
338.4000
31
0.0
0
LINE
8
CUT
10
289.1455
20
338.4000
30
0.0
11
293.9645
21
338.4000
31
0.0
0
LINE
8
CUT
10
293.9645
20
338.4000
30
0.0
11
298.7836
21
338.4000
31
0.0
0
LINE
8
CUT
10
298.7836
20
338.4000
30
0.0
11
303.6027
21
338.4000
31
0.0
0
LINE
8
CUT
10
303.6027
20
338.4000
30
0.0
11
308.4218
21
338.4000
31
0.0
0
LINE
8
CUT
10
308.4218
20
338.4000
30
0.0
11
313.2409
21
338.4000
31
0.0
0
LINE
8
CUT
10
313.2409
20
338.4000
30
0.0
11
318.0600
21
338.4000
31
0.0
0
LINE
8
CUT
10
318.0600
20
338.4000
30
0.0
11
322.8791
21
338.4000
31
0.0
0
LINE
8
CUT
10
322.8791
20
338.4000
30
0.0
11
327.6982
21
338.4000
31
0.0
0
LINE
8
CUT
10
327.6982
20
338.4000
30
0.0
11
332.5173
21
338.4000
31
0.0
0
LINE
8
CUT
10
332.5173
20
338.4000
30
0.0
11
337.3364
21
338.4000
31
0.0
0
LINE
8
CUT
10
337.3364
20
338.4000
30
0.0
11
342.1555
21
338.4000
31
0.0
0
LINE
8
CUT
10
342.1555
20
338.4000
30
0.0
11
346.9745
21
338.4000
31
0.0
0
LINE
8
CUT
10
346.9745
20
338.4000
30
0.0
11
351.7936
21
338.4000
31
0.0
0
LINE
8
CUT
10
351.7936
20
338.4000
30
0.0
11
356.6127
21
338.4000
31
0.0
0
LINE
8
CUT
10
356.6127
20
338.4000
30
0.0
11
361.4318
21
338.4000
31
0.0
0
LINE
8
CUT
10
361.4318
20
338.4000
30
0.0
11
366.2509
21
338.4000
31
0.0
0
LINE
8
CUT
10
366.2509
20
338.4000
30
0.0
11
371.0700
21
338.4000
31
0.0
0
LINE
8
CUT
10
371.0700
20
338.4000
30
0.0
11
375.8891
21
338.4000
31
0.0
0
LINE
8
CUT
10
375.8891
20
338.4000
30
0.0
11
380.7082
21
338.4000
31
0.0
0
LINE
8
CUT
10
380.7082
20
338.4000
30
0.0
11
385.5273
21
338.4000
31
0.0
0
LINE
8
CUT
10
385.5273
20
338.4000
30
0.0
11
390.3464
21
338.4000
31
0.0
0
LINE
8
CUT
10
390.3464
20
338.4000
30
0.0
11
395.1655
21
338.4000
31
0.0
0
LINE
8
CUT
10
395.1655
20
338.4000
30
0.0
11
399.9845
21
338.4000
31
0.0
0
LINE
8
CUT
10
399.9845
20
338.4000
30
0.0
11
404.8036
21
338.4000
31
0.0
0
LINE
8
CUT
10
404.8036
20
338.4000
30
0.0
11
409.6227
21
338.4000
31
0.0
0
LINE
8
CUT
10
409.6227
20
338.4000
30
0.0
11
414.4418
21
338.4000
31
0.0
0
LINE
8
CUT
10
414.4418
20
338.4000
30
0.0
11
419.2609
21
338.4000
31
0.0
0
LINE
8
CUT
10
419.2609
20
338.4000
30
0.0
11
424.0800
21
338.4000
31
0.0
0
LINE
8
CUT
10
424.0800
20
338.4000
30
0.0
11
428.8991
21
338.4000
31
0.0
0
LINE
8
CUT
10
428.8991
20
338.4000
30
0.0
11
433.7182
21
338.4000
31
0.0
0
LINE
8
CUT
10
433.7182
20
338.4000
30
0.0
11
438.5373
21
338.4000
31
0.0
0
LINE
8
CUT
10
438.5373
20
338.4000
30
0.0
11
443.3564
21
338.4000
31
0.0
0
LINE
8
CUT
10
443.3564
20
338.4000
30
0.0
11
448.1755
21
338.4000
31
0.0
0
LINE
8
CUT
10
448.1755
20
338.4000
30
0.0
11
452.9945
21
338.4000
31
0.0
0
LINE
8
CUT
10
452.9945
20
338.4000
30
0.0
11
457.8136
21
338.4000
31
0.0
0
LINE
8
CUT
10
457.8136
20
338.4000
30
0.0
11
462.6327
21
338.4000
31
0.0
0
LINE
8
CUT
10
462.6327
20
338.4000
30
0.0
11
467.4518
21
338.4000
31
0.0
0
LINE
8
CUT
10
467.4518
20
338.4000
30
0.0
11
472.2709
21
338.4000
31
0.0
0
LINE
8
CUT
10
472.2709
20
338.4000
30
0.0
11
477.0900
21
338.4000
31
0.0
0
LINE
8
CUT
10
477.0900
20
338.4000
30
0.0
11
481.9091
21
338.4000
31
0.0
0
LINE
8
CUT
10
481.9091
20
338.4000
30
0.0
11
486.7282
21
338.4000
31
0.0
0
LINE
8
CUT
10
486.7282
20
338.4000
30
0.0
11
491.5473
21
338.4000
31
0.0
0
LINE
8
CUT
10
491.5473
20
338.4000
30
0.0
11
496.3664
21
338.4000
31
0.0
0
LINE
8
CUT
10
496.3664
20
338.4000
30
0.0
11
501.1855
21
338.3942
31
0.0
0
LINE
8
CUT
10
501.1855
20
338.3942
30
0.0
11
506.0045
21
337.9007
31
0.0
0
LINE
8
CUT
10
506.0045
20
337.9007
30
0.0
11
510.8236
21
336.5718
31
0.0
0
LINE
8
CUT
10
510.8236
20
336.5718
30
0.0
11
515.6427
21
334.2765
31
0.0
0
LINE
8
CUT
10
515.6427
20
334.2765
30
0.0
11
520.4618
21
330.7119
31
0.0
0
LINE
8
CUT
10
520.4618
20
330.7119
30
0.0
11
525.2809
21
325.0587
31
0.0
0
LINE
8
CUT
10
525.2809
20
325.0587
30
0.0
11
530.1000
21
308.9000
31
0.0
0
LINE
8
CUT
10
530.1000
20
308.9000
30
0.0
11
530.1000
21
29.5000
31
0.0
0
LINE
8
CUT
10
530.1000
20
29.5000
30
0.0
11
525.2809
21
13.3413
31
0.0
0
LINE
8
CUT
10
525.2809
20
13.3413
30
0.0
11
520.4618
21
7.6881
31
0.0
0
LINE
8
CUT
10
520.4618
20
7.6881
30
0.0
11
515.6427
21
4.1235
31
0.0
0
LINE
8
CUT
10
515.6427
20
4.1235
30
0.0
11
510.8236
21
1.8282
31
0.0
0
LINE
8
CUT
10
510.8236
20
1.8282
30
0.0
11
506.0045
21
0.4993
31
0.0
0
LINE
8
CUT
10
506.0045
20
0.4993
30
0.0
11
501.1855
21
0.0058
31
0.0
0
LINE
8
CUT
10
501.1855
20
0.0058
30
0.0
11
496.3664
21
0.0000
31
0.0
0
LINE
8
CUT
10
496.3664
20
0.0000
30
0.0
11
491.5473
21
0.0000
31
0.0
0
LINE
8
CUT
10
491.5473
20
0.0000
30
0.0
11
486.7282
21
0.0000
31
0.0
0
LINE
8
CUT
10
486.7282
20
0.0000
30
0.0
11
481.9091
21
0.0000
31
0.0
0
LINE
8
CUT
10
481.9091
20
0.0000
30
0.0
11
477.0900
21
0.0000
31
0.0
0
LINE
8
CUT
10
477.0900
20
0.0000
30
0.0
11
472.2709
21
0.0000
31
0.0
0
LINE
8
CUT
10
472.2709
20
0.0000
30
0.0
11
467.4518
21
0.0000
31
0.0
0
LINE
8
CUT
10
467.4518
20
0.0000
30
0.0
11
462.6327
21
0.0000
31
0.0
0
LINE
8
CUT
10
462.6327
20
0.0000
30
0.0
11
457.8136
21
0.0000
31
0.0
0
LINE
8
CUT
10
457.8136
20
0.0000
30
0.0
11
452.9945
21
0.0000
31
0.0
0
LINE
8
CUT
10
452.9945
20
0.0000
30
0.0
11
448.1755
21
0.0000
31
0.0
0
LINE
8
CUT
10
448.1755
20
0.0000
30
0.0
11
443.3564
21
0.0000
31
0.0
0
LINE
8
CUT
10
443.3564
20
0.0000
30
0.0
11
438.5373
21
0.0000
31
0.0
0
LINE
8
CUT
10
438.5373
20
0.0000
30
0.0
11
433.7182
21
0.0000
31
0.0
0
LINE
8
CUT
10
433.7182
20
0.0000
30
0.0
11
428.8991
21
0.0000
31
0.0
0
LINE
8
CUT
10
428.8991
20
0.0000
30
0.0
11
424.0800
21
0.0000
31
0.0
0
LINE
8
CUT
10
424.0800
20
0.0000
30
0.0
11
419.2609
21
0.0000
31
0.0
0
LINE
8
CUT
10
419.2609
20
0.0000
30
0.0
11
414.4418
21
0.0000
31
0.0
0
LINE
8
CUT
10
414.4418
20
0.0000
30
0.0
11
409.6227
21
0.0000
31
0.0
0
LINE
8
CUT
10
409.6227
20
0.0000
30
0.0
11
404.8036
21
0.0000
31
0.0
0
LINE
8
CUT
10
404.8036
20
0.0000
30
0.0
11
399.9845
21
0.0000
31
0.0
0
LINE
8
CUT
10
399.9845
20
0.0000
30
0.0
11
395.1655
21
0.0000
31
0.0
0
LINE
8
CUT
10
395.1655
20
0.0000
30
0.0
11
390.3464
21
0.0000
31
0.0
0
LINE
8
CUT
10
390.3464
20
0.0000
30
0.0
11
385.5273
21
0.0000
31
0.0
0
LINE
8
CUT
10
385.5273
20
0.0000
30
0.0
11
380.7082
21
0.0000
31
0.0
0
LINE
8
CUT
10
380.7082
20
0.0000
30
0.0
11
375.8891
21
0.0000
31
0.0
0
LINE
8
CUT
10
375.8891
20
0.0000
30
0.0
11
371.0700
21
0.0000
31
0.0
0
LINE
8
CUT
10
371.0700
20
0.0000
30
0.0
11
366.2509
21
0.0000
31
0.0
0
LINE
8
CUT
10
366.2509
20
0.0000
30
0.0
11
361.4318
21
0.0000
31
0.0
0
LINE
8
CUT
10
361.4318
20
0.0000
30
0.0
11
356.6127
21
0.0000
31
0.0
0
LINE
8
CUT
10
356.6127
20
0.0000
30
0.0
11
351.7936
21
0.0000
31
0.0
0
LINE
8
CUT
10
351.7936
20
0.0000
30
0.0
11
346.9745
21
0.0000
31
0.0
0
LINE
8
CUT
10
346.9745
20
0.0000
30
0.0
11
342.1555
21
0.0000
31
0.0
0
LINE
8
CUT
10
342.1555
20
0.0000
30
0.0
11
337.3364
21
0.0000
31
0.0
0
LINE
8
CUT
10
337.3364
20
0.0000
30
0.0
11
332.5173
21
0.0000
31
0.0
0
LINE
8
CUT
10
332.5173
20
0.0000
30
0.0
11
327.6982
21
0.0000
31
0.0
0
LINE
8
CUT
10
327.6982
20
0.0000
30
0.0
11
322.8791
21
0.0000
31
0.0
0
LINE
8
CUT
10
322.8791
20
0.0000
30
0.0
11
318.0600
21
0.0000
31
0.0
0
LINE
8
CUT
10
318.0600
20
0.0000
30
0.0
11
313.2409
21
0.0000
31
0.0
0
LINE
8
CUT
10
313.2409
20
0.0000
30
0.0
11
308.4218
21
0.0000
31
0.0
0
LINE
8
CUT
10
308.4218
20
0.0000
30
0.0
11
303.6027
21
0.0000
31
0.0
0
LINE
8
CUT
10
303.6027
20
0.0000
30
0.0
11
298.7836
21
0.0000
31
0.0
0
LINE
8
CUT
10
298.7836
20
0.0000
30
0.0
11
293.9645
21
0.0000
31
0.0
0
LINE
8
CUT
10
293.9645
20
0.0000
30
0.0
11
289.1455
21
0.0000
31
0.0
0
LINE
8
CUT
10
289.1455
20
0.0000
30
0.0
11
284.3264
21
0.0000
31
0.0
0
LINE
8
CUT
10
284.3264
20
0.0000
30
0.0
11
279.5073
21
0.0000
31
0.0
0
LINE
8
CUT
10
279.5073
20
0.0000
30
0.0
11
274.6882
21
0.0000
31
0.0
0
LINE
8
CUT
10
274.6882
20
0.0000
30
0.0
11
269.8691
21
0.0000
31
0.0
0
LINE
8
CUT
10
269.8691
20
0.0000
30
0.0
11
265.0500
21
0.0000
31
0.0
0
LINE
8
CUT
10
265.0500
20
0.0000
30
0.0
11
260.2309
21
0.0000
31
0.0
0
LINE
8
CUT
10
260.2309
20
0.0000
30
0.0
11
255.4118
21
0.0000
31
0.0
0
LINE
8
CUT
10
255.4118
20
0.0000
30
0.0
11
250.5927
21
0.0000
31
0.0
0
LINE
8
CUT
10
250.5927
20
0.0000
30
0.0
11
245.7736
21
0.0000
31
0.0
0
LINE
8
CUT
10
245.7736
20
0.0000
30
0.0
11
240.9545
21
0.0000
31
0.0
0
LINE
8
CUT
10
240.9545
20
0.0000
30
0.0
11
236.1355
21
0.0000
31
0.0
0
LINE
8
CUT
10
236.1355
20
0.0000
30
0.0
11
231.3164
21
0.0000
31
0.0
0
LINE
8
CUT
10
231.3164
20
0.0000
30
0.0
11
226.4973
21
0.0000
31
0.0
0
LINE
8
CUT
10
226.4973
20
0.0000
30
0.0
11
221.6782
21
0.0000
31
0.0
0
LINE
8
CUT
10
221.6782
20
0.0000
30
0.0
11
216.8591
21
0.0000
31
0.0
0
LINE
8
CUT
10
216.8591
20
0.0000
30
0.0
11
212.0400
21
0.0000
31
0.0
0
LINE
8
CUT
10
212.0400
20
0.0000
30
0.0
11
207.2209
21
0.0000
31
0.0
0
LINE
8
CUT
10
207.2209
20
0.0000
30
0.0
11
202.4018
21
0.0000
31
0.0
0
LINE
8
CUT
10
202.4018
20
0.0000
30
0.0
11
197.5827
21
0.0000
31
0.0
0
LINE
8
CUT
10
197.5827
20
0.0000
30
0.0
11
192.7636
21
0.0000
31
0.0
0
LINE
8
CUT
10
192.7636
20
0.0000
30
0.0
11
187.9445
21
0.0000
31
0.0
0
LINE
8
CUT
10
187.9445
20
0.0000
30
0.0
11
183.1255
21
0.0000
31
0.0
0
LINE
8
CUT
10
183.1255
20
0.0000
30
0.0
11
178.3064
21
0.0000
31
0.0
0
LINE
8
CUT
10
178.3064
20
0.0000
30
0.0
11
173.4873
21
0.0000
31
0.0
0
LINE
8
CUT
10
173.4873
20
0.0000
30
0.0
11
168.6682
21
0.0000
31
0.0
0
LINE
8
CUT
10
168.6682
20
0.0000
30
0.0
11
163.8491
21
0.0000
31
0.0
0
LINE
8
CUT
10
163.8491
20
0.0000
30
0.0
11
159.0300
21
0.0000
31
0.0
0
LINE
8
CUT
10
159.0300
20
0.0000
30
0.0
11
154.2109
21
0.0000
31
0.0
0
LINE
8
CUT
10
154.2109
20
0.0000
30
0.0
11
149.3918
21
0.0000
31
0.0
0
LINE
8
CUT
10
149.3918
20
0.0000
30
0.0
11
144.5727
21
0.0000
31
0.0
0
LINE
8
CUT
10
144.5727
20
0.0000
30
0.0
11
139.7536
21
0.0000
31
0.0
0
LINE
8
CUT
10
139.7536
20
0.0000
30
0.0
11
134.9345
21
0.0000
31
0.0
0
LINE
8
CUT
10
134.9345
20
0.0000
30
0.0
11
130.1155
21
0.0000
31
0.0
0
LINE
8
CUT
10
130.1155
20
0.0000
30
0.0
11
125.2964
21
0.0000
31
0.0
0
LINE
8
CUT
10
125.2964
20
0.0000
30
0.0
11
120.4773
21
0.0000
31
0.0
0
LINE
8
CUT
10
120.4773
20
0.0000
30
0.0
11
115.6582
21
0.0000
31
0.0
0
LINE
8
CUT
10
115.6582
20
0.0000
30
0.0
11
110.8391
21
0.0000
31
0.0
0
LINE
8
CUT
10
110.8391
20
0.0000
30
0.0
11
106.0200
21
0.0000
31
0.0
0
LINE
8
CUT
10
106.0200
20
0.0000
30
0.0
11
101.2009
21
0.0000
31
0.0
0
LINE
8
CUT
10
101.2009
20
0.0000
30
0.0
11
96.3818
21
0.0000
31
0.0
0
LINE
8
CUT
10
96.3818
20
0.0000
30
0.0
11
91.5627
21
0.0000
31
0.0
0
LINE
8
CUT
10
91.5627
20
0.0000
30
0.0
11
86.7436
21
0.0000
31
0.0
0
LINE
8
CUT
10
86.7436
20
0.0000
30
0.0
11
81.9245
21
0.0000
31
0.0
0
LINE
8
CUT
10
81.9245
20
0.0000
30
0.0
11
77.1055
21
0.0000
31
0.0
0
LINE
8
CUT
10
77.1055
20
0.0000
30
0.0
11
72.2864
21
0.0000
31
0.0
0
LINE
8
CUT
10
72.2864
20
0.0000
30
0.0
11
67.4673
21
0.0000
31
0.0
0
LINE
8
CUT
10
67.4673
20
0.0000
30
0.0
11
62.6482
21
0.0000
31
0.0
0
LINE
8
CUT
10
62.6482
20
0.0000
30
0.0
11
57.8291
21
0.0000
31
0.0
0
LINE
8
CUT
10
57.8291
20
0.0000
30
0.0
11
53.0100
21
0.0000
31
0.0
0
LINE
8
CUT
10
53.0100
20
0.0000
30
0.0
11
48.1909
21
0.0000
31
0.0
0
LINE
8
CUT
10
48.1909
20
0.0000
30
0.0
11
43.3718
21
0.0000
31
0.0
0
LINE
8
CUT
10
43.3718
20
0.0000
30
0.0
11
38.5527
21
0.0000
31
0.0
0
LINE
8
CUT
10
38.5527
20
0.0000
30
0.0
11
33.7336
21
0.0000
31
0.0
0
LINE
8
CUT
10
33.7336
20
0.0000
30
0.0
11
28.9145
21
0.0058
31
0.0
0
LINE
8
CUT
10
28.9145
20
0.0058
30
0.0
11
24.0955
21
0.4993
31
0.0
0
LINE
8
CUT
10
24.0955
20
0.4993
30
0.0
11
19.2764
21
1.8282
31
0.0
0
LINE
8
CUT
10
19.2764
20
1.8282
30
0.0
11
14.4573
21
4.1235
31
0.0
0
LINE
8
CUT
10
14.4573
20
4.1235
30
0.0
11
9.6382
21
7.6881
31
0.0
0
LINE
8
CUT
10
9.6382
20
7.6881
30
0.0
11
4.8191
21
13.3413
31
0.0
0
LINE
8
CUT
10
4.8191
20
13.3413
30
0.0
11
0.0000
21
29.5000
31
0.0
0
LINE
8
CUT
10
0.0000
20
29.5000
30
0.0
11
0.0000
21
308.9000
31
0.0
0
LINE
8
CUT
10
0.0000
20
308.9000
30
0.0
11
0.0000
21
308.9000
31
0.0
0
LINE
8
CUT
10
538.1000
20
281.7654
30
0.0
11
539.6627
21
292.7360
31
0.0
0
LINE
8
CUT
10
539.6627
20
292.7360
30
0.0
11
541.2255
21
296.6670
31
0.0
0
LINE
8
CUT
10
541.2255
20
296.6670
30
0.0
11
542.7882
21
299.3916
31
0.0
0
LINE
8
CUT
10
542.7882
20
299.3916
30
0.0
11
544.3509
21
301.4710
31
0.0
0
LINE
8
CUT
10
544.3509
20
301.4710
30
0.0
11
545.9136
21
303.1246
31
0.0
0
LINE
8
CUT
10
545.9136
20
303.1246
30
0.0
11
547.4764
21
304.4653
31
0.0
0
LINE
8
CUT
10
547.4764
20
304.4653
30
0.0
11
549.0391
21
305.5609
31
0.0
0
LINE
8
CUT
10
549.0391
20
305.5609
30
0.0
11
550.6018
21
306.4556
31
0.0
0
LINE
8
CUT
10
550.6018
20
306.4556
30
0.0
11
552.1645
21
307.1803
31
0.0
0
LINE
8
CUT
10
552.1645
20
307.1803
30
0.0
11
553.7273
21
307.7576
31
0.0
0
LINE
8
CUT
10
553.7273
20
307.7576
30
0.0
11
555.2900
21
308.2044
31
0.0
0
LINE
8
CUT
10
555.2900
20
308.2044
30
0.0
11
556.8527
21
308.5341
31
0.0
0
LINE
8
CUT
10
556.8527
20
308.5341
30
0.0
11
558.4155
21
308.7572
31
0.0
0
LINE
8
CUT
10
558.4155
20
308.7572
30
0.0
11
559.9782
21
308.8820
31
0.0
0
LINE
8
CUT
10
559.9782
20
308.8820
30
0.0
11
561.5409
21
308.9157
31
0.0
0
LINE
8
CUT
10
561.5409
20
308.9157
30
0.0
11
563.1036
21
308.8638
31
0.0
0
LINE
8
CUT
10
563.1036
20
308.8638
30
0.0
11
564.6664
21
308.7313
31
0.0
0
LINE
8
CUT
10
564.6664
20
308.7313
30
0.0
11
566.2291
21
308.5222
31
0.0
0
LINE
8
CUT
10
566.2291
20
308.5222
30
0.0
11
567.7918
21
308.2399
31
0.0
0
LINE
8
CUT
10
567.7918
20
308.2399
30
0.0
11
569.3545
21
307.8872
31
0.0
0
LINE
8
CUT
10
569.3545
20
307.8872
30
0.0
11
570.9173
21
307.4666
31
0.0
0
LINE
8
CUT
10
570.9173
20
307.4666
30
0.0
11
572.4800
21
306.9802
31
0.0
0
LINE
8
CUT
10
572.4800
20
306.9802
30
0.0
11
574.0427
21
306.4297
31
0.0
0
LINE
8
CUT
10
574.0427
20
306.4297
30
0.0
11
575.6055
21
305.8165
31
0.0
0
LINE
8
CUT
10
575.6055
20
305.8165
30
0.0
11
577.1682
21
305.1418
31
0.0
0
LINE
8
CUT
10
577.1682
20
305.1418
30
0.0
11
578.7309
21
304.4065
31
0.0
0
LINE
8
CUT
10
578.7309
20
304.4065
30
0.0
11
580.2936
21
303.6113
31
0.0
0
LINE
8
CUT
10
580.2936
20
303.6113
30
0.0
11
581.8564
21
302.7567
31
0.0
0
LINE
8
CUT
10
581.8564
20
302.7567
30
0.0
11
583.4191
21
301.8441
31
0.0
0
LINE
8
CUT
10
583.4191
20
301.8441
30
0.0
11
584.9818
21
300.9096
31
0.0
0
LINE
8
CUT
10
584.9818
20
300.9096
30
0.0
11
586.5445
21
299.9705
31
0.0
0
LINE
8
CUT
10
586.5445
20
299.9705
30
0.0
11
588.1073
21
299.0266
31
0.0
0
LINE
8
CUT
10
588.1073
20
299.0266
30
0.0
11
589.6700
21
298.0781
31
0.0
0
LINE
8
CUT
10
589.6700
20
298.0781
30
0.0
11
591.2327
21
297.1250
31
0.0
0
LINE
8
CUT
10
591.2327
20
297.1250
30
0.0
11
592.7955
21
296.1674
31
0.0
0
LINE
8
CUT
10
592.7955
20
296.1674
30
0.0
11
594.3582
21
295.2052
31
0.0
0
LINE
8
CUT
10
594.3582
20
295.2052
30
0.0
11
595.9209
21
294.2385
31
0.0
0
LINE
8
CUT
10
595.9209
20
294.2385
30
0.0
11
597.4836
21
293.2673
31
0.0
0
LINE
8
CUT
10
597.4836
20
293.2673
30
0.0
11
599.0464
21
292.2917
31
0.0
0
LINE
8
CUT
10
599.0464
20
292.2917
30
0.0
11
600.6091
21
291.3117
31
0.0
0
LINE
8
CUT
10
600.6091
20
291.3117
30
0.0
11
602.1718
21
290.3273
31
0.0
0
LINE
8
CUT
10
602.1718
20
290.3273
30
0.0
11
603.7345
21
289.3385
31
0.0
0
LINE
8
CUT
10
603.7345
20
289.3385
30
0.0
11
605.2973
21
288.3455
31
0.0
0
LINE
8
CUT
10
605.2973
20
288.3455
30
0.0
11
606.8600
21
287.3482
31
0.0
0
LINE
8
CUT
10
606.8600
20
287.3482
30
0.0
11
608.4227
21
286.3467
31
0.0
0
LINE
8
CUT
10
608.4227
20
286.3467
30
0.0
11
609.9855
21
285.3410
31
0.0
0
LINE
8
CUT
10
609.9855
20
285.3410
30
0.0
11
611.5482
21
284.3311
31
0.0
0
LINE
8
CUT
10
611.5482
20
284.3311
30
0.0
11
613.1109
21
283.3171
31
0.0
0
LINE
8
CUT
10
613.1109
20
283.3171
30
0.0
11
614.6736
21
282.2990
31
0.0
0
LINE
8
CUT
10
614.6736
20
282.2990
30
0.0
11
616.2364
21
281.2769
31
0.0
0
LINE
8
CUT
10
616.2364
20
281.2769
30
0.0
11
617.7991
21
280.2508
31
0.0
0
LINE
8
CUT
10
617.7991
20
280.2508
30
0.0
11
619.3618
21
279.2206
31
0.0
0
LINE
8
CUT
10
619.3618
20
279.2206
30
0.0
11
620.9245
21
278.1866
31
0.0
0
LINE
8
CUT
10
620.9245
20
278.1866
30
0.0
11
622.4873
21
277.1486
31
0.0
0
LINE
8
CUT
10
622.4873
20
277.1486
30
0.0
11
624.0500
21
276.1068
31
0.0
0
LINE
8
CUT
10
624.0500
20
276.1068
30
0.0
11
625.6127
21
275.0611
31
0.0
0
LINE
8
CUT
10
625.6127
20
275.0611
30
0.0
11
627.1755
21
274.0117
31
0.0
0
LINE
8
CUT
10
627.1755
20
274.0117
30
0.0
11
628.7382
21
272.9585
31
0.0
0
LINE
8
CUT
10
628.7382
20
272.9585
30
0.0
11
630.3009
21
271.9016
31
0.0
0
LINE
8
CUT
10
630.3009
20
271.9016
30
0.0
11
631.8636
21
270.8410
31
0.0
0
LINE
8
CUT
10
631.8636
20
270.8410
30
0.0
11
633.4264
21
269.7768
31
0.0
0
LINE
8
CUT
10
633.4264
20
269.7768
30
0.0
11
634.9891
21
268.7090
31
0.0
0
LINE
8
CUT
10
634.9891
20
268.7090
30
0.0
11
636.5518
21
267.6377
31
0.0
0
LINE
8
CUT
10
636.5518
20
267.6377
30
0.0
11
638.1145
21
266.5628
31
0.0
0
LINE
8
CUT
10
638.1145
20
266.5628
30
0.0
11
639.6773
21
265.4845
31
0.0
0
LINE
8
CUT
10
639.6773
20
265.4845
30
0.0
11
641.2400
21
264.4028
31
0.0
0
LINE
8
CUT
10
641.2400
20
264.4028
30
0.0
11
642.8027
21
263.3177
31
0.0
0
LINE
8
CUT
10
642.8027
20
263.3177
30
0.0
11
644.3655
21
262.2292
31
0.0
0
LINE
8
CUT
10
644.3655
20
262.2292
30
0.0
11
645.9282
21
261.1374
31
0.0
0
LINE
8
CUT
10
645.9282
20
261.1374
30
0.0
11
647.4909
21
260.0424
31
0.0
0
LINE
8
CUT
10
647.4909
20
260.0424
30
0.0
11
649.0536
21
258.9442
31
0.0
0
LINE
8
CUT
10
649.0536
20
258.9442
30
0.0
11
650.6164
21
257.8428
31
0.0
0
LINE
8
CUT
10
650.6164
20
257.8428
30
0.0
11
652.1791
21
256.7383
31
0.0
0
LINE
8
CUT
10
652.1791
20
256.7383
30
0.0
11
653.7418
21
255.6307
31
0.0
0
LINE
8
CUT
10
653.7418
20
255.6307
30
0.0
11
655.3045
21
254.5200
31
0.0
0
LINE
8
CUT
10
655.3045
20
254.5200
30
0.0
11
656.8673
21
253.5272
31
0.0
0
LINE
8
CUT
10
656.8673
20
253.5272
30
0.0
11
658.4300
21
252.4092
31
0.0
0
LINE
8
CUT
10
658.4300
20
252.4092
30
0.0
11
659.9927
21
251.2884
31
0.0
0
LINE
8
CUT
10
659.9927
20
251.2884
30
0.0
11
661.5555
21
250.1647
31
0.0
0
LINE
8
CUT
10
661.5555
20
250.1647
30
0.0
11
663.1182
21
249.0381
31
0.0
0
LINE
8
CUT
10
663.1182
20
249.0381
30
0.0
11
664.6809
21
247.9088
31
0.0
0
LINE
8
CUT
10
664.6809
20
247.9088
30
0.0
11
666.2436
21
246.7596
31
0.0
0
LINE
8
CUT
10
666.2436
20
246.7596
30
0.0
11
667.8064
21
245.5545
31
0.0
0
LINE
8
CUT
10
667.8064
20
245.5545
30
0.0
11
669.3691
21
244.2922
31
0.0
0
LINE
8
CUT
10
669.3691
20
244.2922
30
0.0
11
670.9318
21
242.9722
31
0.0
0
LINE
8
CUT
10
670.9318
20
242.9722
30
0.0
11
672.4945
21
241.5940
31
0.0
0
LINE
8
CUT
10
672.4945
20
241.5940
30
0.0
11
674.0573
21
240.1567
31
0.0
0
LINE
8
CUT
10
674.0573
20
240.1567
30
0.0
11
675.6200
21
238.6592
31
0.0
0
LINE
8
CUT
10
675.6200
20
238.6592
30
0.0
11
677.1827
21
237.1001
31
0.0
0
LINE
8
CUT
10
677.1827
20
237.1001
30
0.0
11
678.7455
21
235.4778
31
0.0
0
LINE
8
CUT
10
678.7455
20
235.4778
30
0.0
11
680.3082
21
233.7904
31
0.0
0
LINE
8
CUT
10
680.3082
20
233.7904
30
0.0
11
681.8709
21
232.0354
31
0.0
0
LINE
8
CUT
10
681.8709
20
232.0354
30
0.0
11
683.4336
21
230.2101
31
0.0
0
LINE
8
CUT
10
683.4336
20
230.2101
30
0.0
11
684.9964
21
228.3112
31
0.0
0
LINE
8
CUT
10
684.9964
20
228.3112
30
0.0
11
686.5591
21
226.3346
31
0.0
0
LINE
8
CUT
10
686.5591
20
226.3346
30
0.0
11
688.1218
21
224.2757
31
0.0
0
LINE
8
CUT
10
688.1218
20
224.2757
30
0.0
11
689.6845
21
222.1288
31
0.0
0
LINE
8
CUT
10
689.6845
20
222.1288
30
0.0
11
691.2473
21
219.8870
31
0.0
0
LINE
8
CUT
10
691.2473
20
219.8870
30
0.0
11
692.8100
21
217.5419
31
0.0
0
LINE
8
CUT
10
692.8100
20
217.5419
30
0.0
11
694.3727
21
215.0831
31
0.0
0
LINE
8
CUT
10
694.3727
20
215.0831
30
0.0
11
695.9355
21
212.4974
31
0.0
0
LINE
8
CUT
10
695.9355
20
212.4974
30
0.0
11
697.4982
21
209.7679
31
0.0
0
LINE
8
CUT
10
697.4982
20
209.7679
30
0.0
11
699.0609
21
206.8721
31
0.0
0
LINE
8
CUT
10
699.0609
20
206.8721
30
0.0
11
700.6236
21
203.7792
31
0.0
0
LINE
8
CUT
10
700.6236
20
203.7792
30
0.0
11
702.1864
21
200.4451
31
0.0
0
LINE
8
CUT
10
702.1864
20
200.4451
30
0.0
11
703.7491
21
196.8021
31
0.0
0
LINE
8
CUT
10
703.7491
20
196.8021
30
0.0
11
705.3118
21
192.7372
31
0.0
0
LINE
8
CUT
10
705.3118
20
192.7372
30
0.0
11
706.8745
21
188.0313
31
0.0
0
LINE
8
CUT
10
706.8745
20
188.0313
30
0.0
11
708.4373
21
182.1232
31
0.0
0
LINE
8
CUT
10
708.4373
20
182.1232
30
0.0
11
710.0000
21
169.1798
31
0.0
0
LINE
8
CUT
10
710.0000
20
169.1798
30
0.0
11
710.0000
21
139.7358
31
0.0
0
LINE
8
CUT
10
710.0000
20
139.7358
30
0.0
11
708.4373
21
126.7924
31
0.0
0
LINE
8
CUT
10
708.4373
20
126.7924
30
0.0
11
706.8745
21
120.8843
31
0.0
0
LINE
8
CUT
10
706.8745
20
120.8843
30
0.0
11
705.3118
21
116.1784
31
0.0
0
LINE
8
CUT
10
705.3118
20
116.1784
30
0.0
11
703.7491
21
112.1136
31
0.0
0
LINE
8
CUT
10
703.7491
20
112.1136
30
0.0
11
702.1864
21
108.4706
31
0.0
0
LINE
8
CUT
10
702.1864
20
108.4706
30
0.0
11
700.6236
21
105.1364
31
0.0
0
LINE
8
CUT
10
700.6236
20
105.1364
30
0.0
11
699.0609
21
102.0435
31
0.0
0
LINE
8
CUT
10
699.0609
20
102.0435
30
0.0
11
697.4982
21
99.1477
31
0.0
0
LINE
8
CUT
10
697.4982
20
99.1477
30
0.0
11
695.9355
21
96.4182
31
0.0
0
LINE
8
CUT
10
695.9355
20
96.4182
30
0.0
11
694.3727
21
93.8326
31
0.0
0
LINE
8
CUT
10
694.3727
20
93.8326
30
0.0
11
692.8100
21
91.3738
31
0.0
0
LINE
8
CUT
10
692.8100
20
91.3738
30
0.0
11
691.2473
21
89.0287
31
0.0
0
LINE
8
CUT
10
691.2473
20
89.0287
30
0.0
11
689.6845
21
86.7869
31
0.0
0
LINE
8
CUT
10
689.6845
20
86.7869
30
0.0
11
688.1218
21
84.6399
31
0.0
0
LINE
8
CUT
10
688.1218
20
84.6399
30
0.0
11
686.5591
21
82.5810
31
0.0
0
LINE
8
CUT
10
686.5591
20
82.5810
30
0.0
11
684.9964
21
80.6045
31
0.0
0
LINE
8
CUT
10
684.9964
20
80.6045
30
0.0
11
683.4336
21
78.7055
31
0.0
0
LINE
8
CUT
10
683.4336
20
78.7055
30
0.0
11
681.8709
21
76.8802
31
0.0
0
LINE
8
CUT
10
681.8709
20
76.8802
30
0.0
11
680.3082
21
75.1253
31
0.0
0
LINE
8
CUT
10
680.3082
20
75.1253
30
0.0
11
678.7455
21
73.4378
31
0.0
0
LINE
8
CUT
10
678.7455
20
73.4378
30
0.0
11
677.1827
21
71.8156
31
0.0
0
LINE
8
CUT
10
677.1827
20
71.8156
30
0.0
11
675.6200
21
70.2565
31
0.0
0
LINE
8
CUT
10
675.6200
20
70.2565
30
0.0
11
674.0573
21
68.7590
31
0.0
0
LINE
8
CUT
10
674.0573
20
68.7590
30
0.0
11
672.4945
21
67.3217
31
0.0
0
LINE
8
CUT
10
672.4945
20
67.3217
30
0.0
11
670.9318
21
65.9434
31
0.0
0
LINE
8
CUT
10
670.9318
20
65.9434
30
0.0
11
669.3691
21
64.6235
31
0.0
0
LINE
8
CUT
10
669.3691
20
64.6235
30
0.0
11
667.8064
21
63.3611
31
0.0
0
LINE
8
CUT
10
667.8064
20
63.3611
30
0.0
11
666.2436
21
62.1560
31
0.0
0
LINE
8
CUT
10
666.2436
20
62.1560
30
0.0
11
664.6809
21
61.0068
31
0.0
0
LINE
8
CUT
10
664.6809
20
61.0068
30
0.0
11
663.1182
21
59.8775
31
0.0
0
LINE
8
CUT
10
663.1182
20
59.8775
30
0.0
11
661.5555
21
58.7510
31
0.0
0
LINE
8
CUT
10
661.5555
20
58.7510
30
0.0
11
659.9927
21
57.6273
31
0.0
0
LINE
8
CUT
10
659.9927
20
57.6273
30
0.0
11
658.4300
21
56.5064
31
0.0
0
LINE
8
CUT
10
658.4300
20
56.5064
30
0.0
11
656.8673
21
55.3885
31
0.0
0
LINE
8
CUT
10
656.8673
20
55.3885
30
0.0
11
655.3045
21
54.3957
31
0.0
0
LINE
8
CUT
10
655.3045
20
54.3957
30
0.0
11
653.7418
21
53.2850
31
0.0
0
LINE
8
CUT
10
653.7418
20
53.2850
30
0.0
11
652.1791
21
52.1774
31
0.0
0
LINE
8
CUT
10
652.1791
20
52.1774
30
0.0
11
650.6164
21
51.0729
31
0.0
0
LINE
8
CUT
10
650.6164
20
51.0729
30
0.0
11
649.0536
21
49.9715
31
0.0
0
LINE
8
CUT
10
649.0536
20
49.9715
30
0.0
11
647.4909
21
48.8732
31
0.0
0
LINE
8
CUT
10
647.4909
20
48.8732
30
0.0
11
645.9282
21
47.7782
31
0.0
0
LINE
8
CUT
10
645.9282
20
47.7782
30
0.0
11
644.3655
21
46.6865
31
0.0
0
LINE
8
CUT
10
644.3655
20
46.6865
30
0.0
11
642.8027
21
45.5980
31
0.0
0
LINE
8
CUT
10
642.8027
20
45.5980
30
0.0
11
641.2400
21
44.5129
31
0.0
0
LINE
8
CUT
10
641.2400
20
44.5129
30
0.0
11
639.6773
21
43.4311
31
0.0
0
LINE
8
CUT
10
639.6773
20
43.4311
30
0.0
11
638.1145
21
42.3528
31
0.0
0
LINE
8
CUT
10
638.1145
20
42.3528
30
0.0
11
636.5518
21
41.2780
31
0.0
0
LINE
8
CUT
10
636.5518
20
41.2780
30
0.0
11
634.9891
21
40.2067
31
0.0
0
LINE
8
CUT
10
634.9891
20
40.2067
30
0.0
11
633.4264
21
39.1389
31
0.0
0
LINE
8
CUT
10
633.4264
20
39.1389
30
0.0
11
631.8636
21
38.0747
31
0.0
0
LINE
8
CUT
10
631.8636
20
38.0747
30
0.0
11
630.3009
21
37.0141
31
0.0
0
LINE
8
CUT
10
630.3009
20
37.0141
30
0.0
11
628.7382
21
35.9572
31
0.0
0
LINE
8
CUT
10
628.7382
20
35.9572
30
0.0
11
627.1755
21
34.9040
31
0.0
0
LINE
8
CUT
10
627.1755
20
34.9040
30
0.0
11
625.6127
21
33.8546
31
0.0
0
LINE
8
CUT
10
625.6127
20
33.8546
30
0.0
11
624.0500
21
32.8089
31
0.0
0
LINE
8
CUT
10
624.0500
20
32.8089
30
0.0
11
622.4873
21
31.7671
31
0.0
0
LINE
8
CUT
10
622.4873
20
31.7671
30
0.0
11
620.9245
21
30.7291
31
0.0
0
LINE
8
CUT
10
620.9245
20
30.7291
30
0.0
11
619.3618
21
29.6950
31
0.0
0
LINE
8
CUT
10
619.3618
20
29.6950
30
0.0
11
617.7991
21
28.6649
31
0.0
0
LINE
8
CUT
10
617.7991
20
28.6649
30
0.0
11
616.2364
21
27.6388
31
0.0
0
LINE
8
CUT
10
616.2364
20
27.6388
30
0.0
11
614.6736
21
26.6166
31
0.0
0
LINE
8
CUT
10
614.6736
20
26.6166
30
0.0
11
613.1109
21
25.5985
31
0.0
0
LINE
8
CUT
10
613.1109
20
25.5985
30
0.0
11
611.5482
21
24.5845
31
0.0
0
LINE
8
CUT
10
611.5482
20
24.5845
30
0.0
11
609.9855
21
23.5747
31
0.0
0
LINE
8
CUT
10
609.9855
20
23.5747
30
0.0
11
608.4227
21
22.5689
31
0.0
0
LINE
8
CUT
10
608.4227
20
22.5689
30
0.0
11
606.8600
21
21.5674
31
0.0
0
LINE
8
CUT
10
606.8600
20
21.5674
30
0.0
11
605.2973
21
20.5701
31
0.0
0
LINE
8
CUT
10
605.2973
20
20.5701
30
0.0
11
603.7345
21
19.5771
31
0.0
0
LINE
8
CUT
10
603.7345
20
19.5771
30
0.0
11
602.1718
21
18.5884
31
0.0
0
LINE
8
CUT
10
602.1718
20
18.5884
30
0.0
11
600.6091
21
17.6040
31
0.0
0
LINE
8
CUT
10
600.6091
20
17.6040
30
0.0
11
599.0464
21
16.6240
31
0.0
0
LINE
8
CUT
10
599.0464
20
16.6240
30
0.0
11
597.4836
21
15.6484
31
0.0
0
LINE
8
CUT
10
597.4836
20
15.6484
30
0.0
11
595.9209
21
14.6772
31
0.0
0
LINE
8
CUT
10
595.9209
20
14.6772
30
0.0
11
594.3582
21
13.7105
31
0.0
0
LINE
8
CUT
10
594.3582
20
13.7105
30
0.0
11
592.7955
21
12.7483
31
0.0
0
LINE
8
CUT
10
592.7955
20
12.7483
30
0.0
11
591.2327
21
11.7906
31
0.0
0
LINE
8
CUT
10
591.2327
20
11.7906
30
0.0
11
589.6700
21
10.8375
31
0.0
0
LINE
8
CUT
10
589.6700
20
10.8375
30
0.0
11
588.1073
21
9.8891
31
0.0
0
LINE
8
CUT
10
588.1073
20
9.8891
30
0.0
11
586.5445
21
8.9452
31
0.0
0
LINE
8
CUT
10
586.5445
20
8.9452
30
0.0
11
584.9818
21
8.0060
31
0.0
0
LINE
8
CUT
10
584.9818
20
8.0060
30
0.0
11
583.4191
21
7.0715
31
0.0
0
LINE
8
CUT
10
583.4191
20
7.0715
30
0.0
11
581.8564
21
6.1590
31
0.0
0
LINE
8
CUT
10
581.8564
20
6.1590
30
0.0
11
580.2936
21
5.3044
31
0.0
0
LINE
8
CUT
10
580.2936
20
5.3044
30
0.0
11
578.7309
21
4.5092
31
0.0
0
LINE
8
CUT
10
578.7309
20
4.5092
30
0.0
11
577.1682
21
3.7739
31
0.0
0
LINE
8
CUT
10
577.1682
20
3.7739
30
0.0
11
575.6055
21
3.0992
31
0.0
0
LINE
8
CUT
10
575.6055
20
3.0992
30
0.0
11
574.0427
21
2.4860
31
0.0
0
LINE
8
CUT
10
574.0427
20
2.4860
30
0.0
11
572.4800
21
1.9355
31
0.0
0
LINE
8
CUT
10
572.4800
20
1.9355
30
0.0
11
570.9173
21
1.4491
31
0.0
0
LINE
8
CUT
10
570.9173
20
1.4491
30
0.0
11
569.3545
21
1.0285
31
0.0
0
LINE
8
CUT
10
569.3545
20
1.0285
30
0.0
11
567.7918
21
0.6758
31
0.0
0
LINE
8
CUT
10
567.7918
20
0.6758
30
0.0
11
566.2291
21
0.3935
31
0.0
0
LINE
8
CUT
10
566.2291
20
0.3935
30
0.0
11
564.6664
21
0.1843
31
0.0
0
LINE
8
CUT
10
564.6664
20
0.1843
30
0.0
11
563.1036
21
0.0518
31
0.0
0
LINE
8
CUT
10
563.1036
20
0.0518
30
0.0
11
561.5409
21
0.0000
31
0.0
0
LINE
8
CUT
10
561.5409
20
0.0000
30
0.0
11
559.9782
21
0.0336
31
0.0
0
LINE
8
CUT
10
559.9782
20
0.0336
30
0.0
11
558.4155
21
0.1585
31
0.0
0
LINE
8
CUT
10
558.4155
20
0.1585
30
0.0
11
556.8527
21
0.3815
31
0.0
0
LINE
8
CUT
10
556.8527
20
0.3815
30
0.0
11
555.2900
21
0.7112
31
0.0
0
LINE
8
CUT
10
555.2900
20
0.7112
30
0.0
11
553.7273
21
1.1581
31
0.0
0
LINE
8
CUT
10
553.7273
20
1.1581
30
0.0
11
552.1645
21
1.7354
31
0.0
0
LINE
8
CUT
10
552.1645
20
1.7354
30
0.0
11
550.6018
21
2.4601
31
0.0
0
LINE
8
CUT
10
550.6018
20
2.4601
30
0.0
11
549.0391
21
3.3548
31
0.0
0
LINE
8
CUT
10
549.0391
20
3.3548
30
0.0
11
547.4764
21
4.4504
31
0.0
0
LINE
8
CUT
10
547.4764
20
4.4504
30
0.0
11
545.9136
21
5.7911
31
0.0
0
LINE
8
CUT
10
545.9136
20
5.7911
30
0.0
11
544.3509
21
7.4446
31
0.0
0
LINE
8
CUT
10
544.3509
20
7.4446
30
0.0
11
542.7882
21
9.5241
31
0.0
0
LINE
8
CUT
10
542.7882
20
9.5241
30
0.0
11
541.2255
21
12.2486
31
0.0
0
LINE
8
CUT
10
541.2255
20
12.2486
30
0.0
11
539.6627
21
16.1796
31
0.0
0
LINE
8
CUT
10
539.6627
20
16.1796
30
0.0
11
538.1000
21
27.1502
31
0.0
0
LINE
8
CUT
10
538.1000
20
27.1502
30
0.0
11
538.1000
21
281.7654
31
0.0
0
LINE
8
CUT
10
538.1000
20
281.7654
30
0.0
11
538.1000
21
281.7654
31
0.0
0
LINE
8
CUT
10
718.0000
20
231.3785
30
0.0
11
718.8364
21
240.6884
31
0.0
0
LINE
8
CUT
10
718.8364
20
240.6884
30
0.0
11
719.6727
21
244.8807
31
0.0
0
LINE
8
CUT
10
719.6727
20
244.8807
30
0.0
11
720.5091
21
248.2129
31
0.0
0
LINE
8
CUT
10
720.5091
20
248.2129
30
0.0
11
721.3455
21
251.0924
31
0.0
0
LINE
8
CUT
10
721.3455
20
251.0924
30
0.0
11
722.1818
21
253.6776
31
0.0
0
LINE
8
CUT
10
722.1818
20
253.6776
30
0.0
11
723.0182
21
256.0504
31
0.0
0
LINE
8
CUT
10
723.0182
20
256.0504
30
0.0
11
723.8545
21
258.2592
31
0.0
0
LINE
8
CUT
10
723.8545
20
258.2592
30
0.0
11
724.6909
21
260.3360
31
0.0
0
LINE
8
CUT
10
724.6909
20
260.3360
30
0.0
11
725.5273
21
262.3030
31
0.0
0
LINE
8
CUT
10
725.5273
20
262.3030
30
0.0
11
726.3636
21
264.1764
31
0.0
0
LINE
8
CUT
10
726.3636
20
264.1764
30
0.0
11
727.2000
21
265.9684
31
0.0
0
LINE
8
CUT
10
727.2000
20
265.9684
30
0.0
11
728.0364
21
267.6886
31
0.0
0
LINE
8
CUT
10
728.0364
20
267.6886
30
0.0
11
728.8727
21
269.3446
31
0.0
0
LINE
8
CUT
10
728.8727
20
269.3446
30
0.0
11
729.7091
21
270.9426
31
0.0
0
LINE
8
CUT
10
729.7091
20
270.9426
30
0.0
11
730.5455
21
272.4878
31
0.0
0
LINE
8
CUT
10
730.5455
20
272.4878
30
0.0
11
731.3818
21
273.9843
31
0.0
0
LINE
8
CUT
10
731.3818
20
273.9843
30
0.0
11
732.2182
21
275.4359
31
0.0
0
LINE
8
CUT
10
732.2182
20
275.4359
30
0.0
11
733.0545
21
276.8455
31
0.0
0
LINE
8
CUT
10
733.0545
20
276.8455
30
0.0
11
733.8909
21
278.2159
31
0.0
0
LINE
8
CUT
10
733.8909
20
278.2159
30
0.0
11
734.7273
21
279.5495
31
0.0
0
LINE
8
CUT
10
734.7273
20
279.5495
30
0.0
11
735.5636
21
280.8481
31
0.0
0
LINE
8
CUT
10
735.5636
20
280.8481
30
0.0
11
736.4000
21
282.1137
31
0.0
0
LINE
8
CUT
10
736.4000
20
282.1137
30
0.0
11
737.2364
21
283.3478
31
0.0
0
LINE
8
CUT
10
737.2364
20
283.3478
30
0.0
11
738.0727
21
284.5518
31
0.0
0
LINE
8
CUT
10
738.0727
20
284.5518
30
0.0
11
738.9091
21
285.7270
31
0.0
0
LINE
8
CUT
10
738.9091
20
285.7270
30
0.0
11
739.7455
21
286.8745
31
0.0
0
LINE
8
CUT
10
739.7455
20
286.8745
30
0.0
11
740.5818
21
287.9953
31
0.0
0
LINE
8
CUT
10
740.5818
20
287.9953
30
0.0
11
741.4182
21
289.0904
31
0.0
0
LINE
8
CUT
10
741.4182
20
289.0904
30
0.0
11
742.2545
21
290.1605
31
0.0
0
LINE
8
CUT
10
742.2545
20
290.1605
30
0.0
11
743.0909
21
291.2065
31
0.0
0
LINE
8
CUT
10
743.0909
20
291.2065
30
0.0
11
743.9273
21
292.2290
31
0.0
0
LINE
8
CUT
10
743.9273
20
292.2290
30
0.0
11
744.7636
21
293.2287
31
0.0
0
LINE
8
CUT
10
744.7636
20
293.2287
30
0.0
11
745.6000
21
294.2060
31
0.0
0
LINE
8
CUT
10
745.6000
20
294.2060
30
0.0
11
746.4364
21
295.1616
31
0.0
0
LINE
8
CUT
10
746.4364
20
295.1616
30
0.0
11
747.2727
21
296.0959
31
0.0
0
LINE
8
CUT
10
747.2727
20
296.0959
30
0.0
11
748.1091
21
297.0093
31
0.0
0
LINE
8
CUT
10
748.1091
20
297.0093
30
0.0
11
748.9455
21
297.9022
31
0.0
0
LINE
8
CUT
10
748.9455
20
297.9022
30
0.0
11
749.7818
21
298.7751
31
0.0
0
LINE
8
CUT
10
749.7818
20
298.7751
30
0.0
11
750.6182
21
299.6281
31
0.0
0
LINE
8
CUT
10
750.6182
20
299.6281
30
0.0
11
751.4545
21
300.4616
31
0.0
0
LINE
8
CUT
10
751.4545
20
300.4616
30
0.0
11
752.2909
21
301.2759
31
0.0
0
LINE
8
CUT
10
752.2909
20
301.2759
30
0.0
11
753.1273
21
302.0712
31
0.0
0
LINE
8
CUT
10
753.1273
20
302.0712
30
0.0
11
753.9636
21
302.8478
31
0.0
0
LINE
8
CUT
10
753.9636
20
302.8478
30
0.0
11
754.8000
21
303.6058
31
0.0
0
LINE
8
CUT
10
754.8000
20
303.6058
30
0.0
11
755.6364
21
304.3454
31
0.0
0
LINE
8
CUT
10
755.6364
20
304.3454
30
0.0
11
756.4727
21
305.0667
31
0.0
0
LINE
8
CUT
10
756.4727
20
305.0667
30
0.0
11
757.3091
21
305.9492
31
0.0
0
LINE
8
CUT
10
757.3091
20
305.9492
30
0.0
11
758.1455
21
306.6352
31
0.0
0
LINE
8
CUT
10
758.1455
20
306.6352
30
0.0
11
758.9818
21
307.3032
31
0.0
0
LINE
8
CUT
10
758.9818
20
307.3032
30
0.0
11
759.8182
21
307.9535
31
0.0
0
LINE
8
CUT
10
759.8182
20
307.9535
30
0.0
11
760.6545
21
308.5860
31
0.0
0
LINE
8
CUT
10
760.6545
20
308.5860
30
0.0
11
761.4909
21
309.2008
31
0.0
0
LINE
8
CUT
10
761.4909
20
309.2008
30
0.0
11
762.3273
21
309.7980
31
0.0
0
LINE
8
CUT
10
762.3273
20
309.7980
30
0.0
11
763.1636
21
310.3777
31
0.0
0
LINE
8
CUT
10
763.1636
20
310.3777
30
0.0
11
764.0000
21
310.9503
31
0.0
0
LINE
8
CUT
10
764.0000
20
310.9503
30
0.0
11
764.8364
21
311.5208
31
0.0
0
LINE
8
CUT
10
764.8364
20
311.5208
30
0.0
11
765.6727
21
312.0842
31
0.0
0
LINE
8
CUT
10
765.6727
20
312.0842
30
0.0
11
766.5091
21
312.6301
31
0.0
0
LINE
8
CUT
10
766.5091
20
312.6301
30
0.0
11
767.3455
21
313.1583
31
0.0
0
LINE
8
CUT
10
767.3455
20
313.1583
30
0.0
11
768.1818
21
313.6688
31
0.0
0
LINE
8
CUT
10
768.1818
20
313.6688
30
0.0
11
769.0182
21
314.1614
31
0.0
0
LINE
8
CUT
10
769.0182
20
314.1614
30
0.0
11
769.8545
21
314.6361
31
0.0
0
LINE
8
CUT
10
769.8545
20
314.6361
30
0.0
11
770.6909
21
315.0928
31
0.0
0
LINE
8
CUT
10
770.6909
20
315.0928
30
0.0
11
771.5273
21
315.5315
31
0.0
0
LINE
8
CUT
10
771.5273
20
315.5315
30
0.0
11
772.3636
21
315.9518
31
0.0
0
LINE
8
CUT
10
772.3636
20
315.9518
30
0.0
11
773.2000
21
316.3538
31
0.0
0
LINE
8
CUT
10
773.2000
20
316.3538
30
0.0
11
774.0364
21
316.7373
31
0.0
0
LINE
8
CUT
10
774.0364
20
316.7373
30
0.0
11
774.8727
21
317.1019
31
0.0
0
LINE
8
CUT
10
774.8727
20
317.1019
30
0.0
11
775.7091
21
317.4477
31
0.0
0
LINE
8
CUT
10
775.7091
20
317.4477
30
0.0
11
776.5455
21
317.7742
31
0.0
0
LINE
8
CUT
10
776.5455
20
317.7742
30
0.0
11
777.3818
21
318.0813
31
0.0
0
LINE
8
CUT
10
777.3818
20
318.0813
30
0.0
11
778.2182
21
318.3686
31
0.0
0
LINE
8
CUT
10
778.2182
20
318.3686
30
0.0
11
779.0545
21
318.6360
31
0.0
0
LINE
8
CUT
10
779.0545
20
318.6360
30
0.0
11
779.8909
21
318.8829
31
0.0
0
LINE
8
CUT
10
779.8909
20
318.8829
30
0.0
11
780.7273
21
319.1091
31
0.0
0
LINE
8
CUT
10
780.7273
20
319.1091
30
0.0
11
781.5636
21
319.3141
31
0.0
0
LINE
8
CUT
10
781.5636
20
319.3141
30
0.0
11
782.4000
21
319.4974
31
0.0
0
LINE
8
CUT
10
782.4000
20
319.4974
30
0.0
11
783.2364
21
319.6587
31
0.0
0
LINE
8
CUT
10
783.2364
20
319.6587
30
0.0
11
784.0727
21
319.7974
31
0.0
0
LINE
8
CUT
10
784.0727
20
319.7974
30
0.0
11
784.9091
21
319.9129
31
0.0
0
LINE
8
CUT
10
784.9091
20
319.9129
30
0.0
11
785.7455
21
320.0044
31
0.0
0
LINE
8
CUT
10
785.7455
20
320.0044
30
0.0
11
786.5818
21
320.0715
31
0.0
0
LINE
8
CUT
10
786.5818
20
320.0715
30
0.0
11
787.4182
21
320.1132
31
0.0
0
LINE
8
CUT
10
787.4182
20
320.1132
30
0.0
11
788.2545
21
320.1288
31
0.0
0
LINE
8
CUT
10
788.2545
20
320.1288
30
0.0
11
789.0909
21
320.1172
31
0.0
0
LINE
8
CUT
10
789.0909
20
320.1172
30
0.0
11
789.9273
21
320.0776
31
0.0
0
LINE
8
CUT
10
789.9273
20
320.0776
30
0.0
11
790.7636
21
320.0086
31
0.0
0
LINE
8
CUT
10
790.7636
20
320.0086
30
0.0
11
791.6000
21
319.9091
31
0.0
0
LINE
8
CUT
10
791.6000
20
319.9091
30
0.0
11
792.4364
21
319.7776
31
0.0
0
LINE
8
CUT
10
792.4364
20
319.7776
30
0.0
11
793.2727
21
319.6126
31
0.0
0
LINE
8
CUT
10
793.2727
20
319.6126
30
0.0
11
794.1091
21
319.4121
31
0.0
0
LINE
8
CUT
10
794.1091
20
319.4121
30
0.0
11
794.9455
21
319.1742
31
0.0
0
LINE
8
CUT
10
794.9455
20
319.1742
30
0.0
11
795.7818
21
318.8966
31
0.0
0
LINE
8
CUT
10
795.7818
20
318.8966
30
0.0
11
796.6182
21
318.5764
31
0.0
0
LINE
8
CUT
10
796.6182
20
318.5764
30
0.0
11
797.4545
21
318.2108
31
0.0
0
LINE
8
CUT
10
797.4545
20
318.2108
30
0.0
11
798.2909
21
317.7959
31
0.0
0
LINE
8
CUT
10
798.2909
20
317.7959
30
0.0
11
799.1273
21
317.3275
31
0.0
0
LINE
8
CUT
10
799.1273
20
317.3275
30
0.0
11
799.9636
21
316.8005
31
0.0
0
LINE
8
CUT
10
799.9636
20
316.8005
30
0.0
11
800.8000
21
316.2087
31
0.0
0
LINE
8
CUT
10
800.8000
20
316.2087
30
0.0
11
801.6364
21
315.5444
31
0.0
0
LINE
8
CUT
10
801.6364
20
315.5444
30
0.0
11
802.4727
21
314.7981
31
0.0
0
LINE
8
CUT
10
802.4727
20
314.7981
30
0.0
11
803.3091
21
313.9575
31
0.0
0
LINE
8
CUT
10
803.3091
20
313.9575
30
0.0
11
804.1455
21
313.0063
31
0.0
0
LINE
8
CUT
10
804.1455
20
313.0063
30
0.0
11
804.9818
21
311.9224
31
0.0
0
LINE
8
CUT
10
804.9818
20
311.9224
30
0.0
11
805.8182
21
310.8905
31
0.0
0
LINE
8
CUT
10
805.8182
20
310.8905
30
0.0
11
806.6545
21
309.4292
31
0.0
0
LINE
8
CUT
10
806.6545
20
309.4292
30
0.0
11
807.4909
21
307.6730
31
0.0
0
LINE
8
CUT
10
807.4909
20
307.6730
30
0.0
11
808.3273
21
305.4633
31
0.0
0
LINE
8
CUT
10
808.3273
20
305.4633
30
0.0
11
809.1636
21
302.3928
31
0.0
0
LINE
8
CUT
10
809.1636
20
302.3928
30
0.0
11
810.0000
21
294.2038
31
0.0
0
LINE
8
CUT
10
810.0000
20
294.2038
30
0.0
11
810.0000
21
25.9250
31
0.0
0
LINE
8
CUT
10
810.0000
20
25.9250
30
0.0
11
809.1636
21
17.7360
31
0.0
0
LINE
8
CUT
10
809.1636
20
17.7360
30
0.0
11
808.3273
21
14.6654
31
0.0
0
LINE
8
CUT
10
808.3273
20
14.6654
30
0.0
11
807.4909
21
12.4558
31
0.0
0
LINE
8
CUT
10
807.4909
20
12.4558
30
0.0
11
806.6545
21
10.6996
31
0.0
0
LINE
8
CUT
10
806.6545
20
10.6996
30
0.0
11
805.8182
21
9.2383
31
0.0
0
LINE
8
CUT
10
805.8182
20
9.2383
30
0.0
11
804.9818
21
8.2063
31
0.0
0
LINE
8
CUT
10
804.9818
20
8.2063
30
0.0
11
804.1455
21
7.1224
31
0.0
0
LINE
8
CUT
10
804.1455
20
7.1224
30
0.0
11
803.3091
21
6.1713
31
0.0
0
LINE
8
CUT
10
803.3091
20
6.1713
30
0.0
11
802.4727
21
5.3307
31
0.0
0
LINE
8
CUT
10
802.4727
20
5.3307
30
0.0
11
801.6364
21
4.5844
31
0.0
0
LINE
8
CUT
10
801.6364
20
4.5844
30
0.0
11
800.8000
21
3.9201
31
0.0
0
LINE
8
CUT
10
800.8000
20
3.9201
30
0.0
11
799.9636
21
3.3283
31
0.0
0
LINE
8
CUT
10
799.9636
20
3.3283
30
0.0
11
799.1273
21
2.8013
31
0.0
0
LINE
8
CUT
10
799.1273
20
2.8013
30
0.0
11
798.2909
21
2.3329
31
0.0
0
LINE
8
CUT
10
798.2909
20
2.3329
30
0.0
11
797.4545
21
1.9180
31
0.0
0
LINE
8
CUT
10
797.4545
20
1.9180
30
0.0
11
796.6182
21
1.5523
31
0.0
0
LINE
8
CUT
10
796.6182
20
1.5523
30
0.0
11
795.7818
21
1.2322
31
0.0
0
LINE
8
CUT
10
795.7818
20
1.2322
30
0.0
11
794.9455
21
0.9546
31
0.0
0
LINE
8
CUT
10
794.9455
20
0.9546
30
0.0
11
794.1091
21
0.7167
31
0.0
0
LINE
8
CUT
10
794.1091
20
0.7167
30
0.0
11
793.2727
21
0.5162
31
0.0
0
LINE
8
CUT
10
793.2727
20
0.5162
30
0.0
11
792.4364
21
0.3512
31
0.0
0
LINE
8
CUT
10
792.4364
20
0.3512
30
0.0
11
791.6000
21
0.2197
31
0.0
0
LINE
8
CUT
10
791.6000
20
0.2197
30
0.0
11
790.7636
21
0.1202
31
0.0
0
LINE
8
CUT
10
790.7636
20
0.1202
30
0.0
11
789.9273
21
0.0512
31
0.0
0
LINE
8
CUT
10
789.9273
20
0.0512
30
0.0
11
789.0909
21
0.0115
31
0.0
0
LINE
8
CUT
10
789.0909
20
0.0115
30
0.0
11
788.2545
21
0.0000
31
0.0
0
LINE
8
CUT
10
788.2545
20
0.0000
30
0.0
11
787.4182
21
0.0156
31
0.0
0
LINE
8
CUT
10
787.4182
20
0.0156
30
0.0
11
786.5818
21
0.0573
31
0.0
0
LINE
8
CUT
10
786.5818
20
0.0573
30
0.0
11
785.7455
21
0.1243
31
0.0
0
LINE
8
CUT
10
785.7455
20
0.1243
30
0.0
11
784.9091
21
0.2159
31
0.0
0
LINE
8
CUT
10
784.9091
20
0.2159
30
0.0
11
784.0727
21
0.3314
31
0.0
0
LINE
8
CUT
10
784.0727
20
0.3314
30
0.0
11
783.2364
21
0.4700
31
0.0
0
LINE
8
CUT
10
783.2364
20
0.4700
30
0.0
11
782.4000
21
0.6313
31
0.0
0
LINE
8
CUT
10
782.4000
20
0.6313
30
0.0
11
781.5636
21
0.8147
31
0.0
0
LINE
8
CUT
10
781.5636
20
0.8147
30
0.0
11
780.7273
21
1.0197
31
0.0
0
LINE
8
CUT
10
780.7273
20
1.0197
30
0.0
11
779.8909
21
1.2459
31
0.0
0
LINE
8
CUT
10
779.8909
20
1.2459
30
0.0
11
779.0545
21
1.4928
31
0.0
0
LINE
8
CUT
10
779.0545
20
1.4928
30
0.0
11
778.2182
21
1.7601
31
0.0
0
LINE
8
CUT
10
778.2182
20
1.7601
30
0.0
11
777.3818
21
2.0475
31
0.0
0
LINE
8
CUT
10
777.3818
20
2.0475
30
0.0
11
776.5455
21
2.3546
31
0.0
0
LINE
8
CUT
10
776.5455
20
2.3546
30
0.0
11
775.7091
21
2.6811
31
0.0
0
LINE
8
CUT
10
775.7091
20
2.6811
30
0.0
11
774.8727
21
3.0268
31
0.0
0
LINE
8
CUT
10
774.8727
20
3.0268
30
0.0
11
774.0364
21
3.3915
31
0.0
0
LINE
8
CUT
10
774.0364
20
3.3915
30
0.0
11
773.2000
21
3.7750
31
0.0
0
LINE
8
CUT
10
773.2000
20
3.7750
30
0.0
11
772.3636
21
4.1769
31
0.0
0
LINE
8
CUT
10
772.3636
20
4.1769
30
0.0
11
771.5273
21
4.5973
31
0.0
0
LINE
8
CUT
10
771.5273
20
4.5973
30
0.0
11
770.6909
21
5.0359
31
0.0
0
LINE
8
CUT
10
770.6909
20
5.0359
30
0.0
11
769.8545
21
5.4927
31
0.0
0
LINE
8
CUT
10
769.8545
20
5.4927
30
0.0
11
769.0182
21
5.9674
31
0.0
0
LINE
8
CUT
10
769.0182
20
5.9674
30
0.0
11
768.1818
21
6.4600
31
0.0
0
LINE
8
CUT
10
768.1818
20
6.4600
30
0.0
11
767.3455
21
6.9705
31
0.0
0
LINE
8
CUT
10
767.3455
20
6.9705
30
0.0
11
766.5091
21
7.4987
31
0.0
0
LINE
8
CUT
10
766.5091
20
7.4987
30
0.0
11
765.6727
21
8.0446
31
0.0
0
LINE
8
CUT
10
765.6727
20
8.0446
30
0.0
11
764.8364
21
8.6079
31
0.0
0
LINE
8
CUT
10
764.8364
20
8.6079
30
0.0
11
764.0000
21
9.1784
31
0.0
0
LINE
8
CUT
10
764.0000
20
9.1784
30
0.0
11
763.1636
21
9.7511
31
0.0
0
LINE
8
CUT
10
763.1636
20
9.7511
30
0.0
11
762.3273
21
10.3308
31
0.0
0
LINE
8
CUT
10
762.3273
20
10.3308
30
0.0
11
761.4909
21
10.9280
31
0.0
0
LINE
8
CUT
10
761.4909
20
10.9280
30
0.0
11
760.6545
21
11.5428
31
0.0
0
LINE
8
CUT
10
760.6545
20
11.5428
30
0.0
11
759.8182
21
12.1753
31
0.0
0
LINE
8
CUT
10
759.8182
20
12.1753
30
0.0
11
758.9818
21
12.8255
31
0.0
0
LINE
8
CUT
10
758.9818
20
12.8255
30
0.0
11
758.1455
21
13.4936
31
0.0
0
LINE
8
CUT
10
758.1455
20
13.4936
30
0.0
11
757.3091
21
14.1796
31
0.0
0
LINE
8
CUT
10
757.3091
20
14.1796
30
0.0
11
756.4727
21
15.0621
31
0.0
0
LINE
8
CUT
10
756.4727
20
15.0621
30
0.0
11
755.6364
21
15.7834
31
0.0
0
LINE
8
CUT
10
755.6364
20
15.7834
30
0.0
11
754.8000
21
16.5230
31
0.0
0
LINE
8
CUT
10
754.8000
20
16.5230
30
0.0
11
753.9636
21
17.2810
31
0.0
0
LINE
8
CUT
10
753.9636
20
17.2810
30
0.0
11
753.1273
21
18.0575
31
0.0
0
LINE
8
CUT
10
753.1273
20
18.0575
30
0.0
11
752.2909
21
18.8529
31
0.0
0
LINE
8
CUT
10
752.2909
20
18.8529
30
0.0
11
751.4545
21
19.6672
31
0.0
0
LINE
8
CUT
10
751.4545
20
19.6672
30
0.0
11
750.6182
21
20.5007
31
0.0
0
LINE
8
CUT
10
750.6182
20
20.5007
30
0.0
11
749.7818
21
21.3537
31
0.0
0
LINE
8
CUT
10
749.7818
20
21.3537
30
0.0
11
748.9455
21
22.2265
31
0.0
0
LINE
8
CUT
10
748.9455
20
22.2265
30
0.0
11
748.1091
21
23.1195
31
0.0
0
LINE
8
CUT
10
748.1091
20
23.1195
30
0.0
11
747.2727
21
24.0329
31
0.0
0
LINE
8
CUT
10
747.2727
20
24.0329
30
0.0
11
746.4364
21
24.9672
31
0.0
0
LINE
8
CUT
10
746.4364
20
24.9672
30
0.0
11
745.6000
21
25.9227
31
0.0
0
LINE
8
CUT
10
745.6000
20
25.9227
30
0.0
11
744.7636
21
26.9001
31
0.0
0
LINE
8
CUT
10
744.7636
20
26.9001
30
0.0
11
743.9273
21
27.8997
31
0.0
0
LINE
8
CUT
10
743.9273
20
27.8997
30
0.0
11
743.0909
21
28.9222
31
0.0
0
LINE
8
CUT
10
743.0909
20
28.9222
30
0.0
11
742.2545
21
29.9682
31
0.0
0
LINE
8
CUT
10
742.2545
20
29.9682
30
0.0
11
741.4182
21
31.0384
31
0.0
0
LINE
8
CUT
10
741.4182
20
31.0384
30
0.0
11
740.5818
21
32.1335
31
0.0
0
LINE
8
CUT
10
740.5818
20
32.1335
30
0.0
11
739.7455
21
33.2543
31
0.0
0
LINE
8
CUT
10
739.7455
20
33.2543
30
0.0
11
738.9091
21
34.4018
31
0.0
0
LINE
8
CUT
10
738.9091
20
34.4018
30
0.0
11
738.0727
21
35.5770
31
0.0
0
LINE
8
CUT
10
738.0727
20
35.5770
30
0.0
11
737.2364
21
36.7810
31
0.0
0
LINE
8
CUT
10
737.2364
20
36.7810
30
0.0
11
736.4000
21
38.0151
31
0.0
0
LINE
8
CUT
10
736.4000
20
38.0151
30
0.0
11
735.5636
21
39.2807
31
0.0
0
LINE
8
CUT
10
735.5636
20
39.2807
30
0.0
11
734.7273
21
40.5793
31
0.0
0
LINE
8
CUT
10
734.7273
20
40.5793
30
0.0
11
733.8909
21
41.9128
31
0.0
0
LINE
8
CUT
10
733.8909
20
41.9128
30
0.0
11
733.0545
21
43.2833
31
0.0
0
LINE
8
CUT
10
733.0545
20
43.2833
30
0.0
11
732.2182
21
44.6929
31
0.0
0
LINE
8
CUT
10
732.2182
20
44.6929
30
0.0
11
731.3818
21
46.1445
31
0.0
0
LINE
8
CUT
10
731.3818
20
46.1445
30
0.0
11
730.5455
21
47.6410
31
0.0
0
LINE
8
CUT
10
730.5455
20
47.6410
30
0.0
11
729.7091
21
49.1861
31
0.0
0
LINE
8
CUT
10
729.7091
20
49.1861
30
0.0
11
728.8727
21
50.7842
31
0.0
0
LINE
8
CUT
10
728.8727
20
50.7842
30
0.0
11
728.0364
21
52.4402
31
0.0
0
LINE
8
CUT
10
728.0364
20
52.4402
30
0.0
11
727.2000
21
54.1604
31
0.0
0
LINE
8
CUT
10
727.2000
20
54.1604
30
0.0
11
726.3636
21
55.9524
31
0.0
0
LINE
8
CUT
10
726.3636
20
55.9524
30
0.0
11
725.5273
21
57.8257
31
0.0
0
LINE
8
CUT
10
725.5273
20
57.8257
30
0.0
11
724.6909
21
59.7927
31
0.0
0
LINE
8
CUT
10
724.6909
20
59.7927
30
0.0
11
723.8545
21
61.8696
31
0.0
0
LINE
8
CUT
10
723.8545
20
61.8696
30
0.0
11
723.0182
21
64.0784
31
0.0
0
LINE
8
CUT
10
723.0182
20
64.0784
30
0.0
11
722.1818
21
66.4511
31
0.0
0
LINE
8
CUT
10
722.1818
20
66.4511
30
0.0
11
721.3455
21
69.0364
31
0.0
0
LINE
8
CUT
10
721.3455
20
69.0364
30
0.0
11
720.5091
21
71.9159
31
0.0
0
LINE
8
CUT
10
720.5091
20
71.9159
30
0.0
11
719.6727
21
75.2481
31
0.0
0
LINE
8
CUT
10
719.6727
20
75.2481
30
0.0
11
718.8364
21
79.4403
31
0.0
0
LINE
8
CUT
10
718.8364
20
79.4403
30
0.0
11
718.0000
21
88.7503
31
0.0
0
LINE
8
CUT
10
718.0000
20
88.7503
30
0.0
11
718.0000
21
231.3785
31
0.0
0
LINE
8
CUT
10
718.0000
20
231.3785
30
0.0
11
718.0000
21
231.3785
31
0.0
0
ENDSEC
0
EOF
