0
SECTION
2
ENTITIES
0
LINE
8
CUT
10
414.2000
20
9.0000
30
0.0
11
415.9431
21
9.0761
31
0.0
0
LINE
8
CUT
10
415.9431
20
9.0761
30
0.0
11
417.6730
21
9.3038
31
0.0
0
LINE
8
CUT
10
417.6730
20
9.3038
30
0.0
11
419.3764
21
9.6815
31
0.0
0
LINE
8
CUT
10
419.3764
20
9.6815
30
0.0
11
421.0404
21
10.2061
31
0.0
0
LINE
8
CUT
10
421.0404
20
10.2061
30
0.0
11
422.6524
21
10.8738
31
0.0
0
LINE
8
CUT
10
422.6524
20
10.8738
30
0.0
11
424.2000
21
11.6795
31
0.0
0
LINE
8
CUT
10
424.2000
20
11.6795
30
0.0
11
425.6715
21
12.6170
31
0.0
0
LINE
8
CUT
10
425.6715
20
12.6170
30
0.0
11
427.0558
21
13.6791
31
0.0
0
LINE
8
CUT
10
427.0558
20
13.6791
30
0.0
11
428.3421
21
14.8579
31
0.0
0
LINE
8
CUT
10
428.3421
20
14.8579
30
0.0
11
429.5209
21
16.1442
31
0.0
0
LINE
8
CUT
10
429.5209
20
16.1442
30
0.0
11
430.5830
21
17.5285
31
0.0
0
LINE
8
CUT
10
430.5830
20
17.5285
30
0.0
11
431.5205
21
19.0000
31
0.0
0
LINE
8
CUT
10
431.5205
20
19.0000
30
0.0
11
432.3262
21
20.5476
31
0.0
0
LINE
8
CUT
10
432.3262
20
20.5476
30
0.0
11
432.9939
21
22.1596
31
0.0
0
LINE
8
CUT
10
432.9939
20
22.1596
30
0.0
11
433.5185
21
23.8236
31
0.0
0
LINE
8
CUT
10
433.5185
20
23.8236
30
0.0
11
433.8962
21
25.5270
31
0.0
0
LINE
8
CUT
10
433.8962
20
25.5270
30
0.0
11
434.1239
21
27.2569
31
0.0
0
LINE
8
CUT
10
434.1239
20
27.2569
30
0.0
11
434.2000
21
29.0000
31
0.0
0
LINE
8
CUT
10
434.2000
20
29.0000
30
0.0
11
434.2000
21
255.4000
31
0.0
0
LINE
8
CUT
10
434.2000
20
255.4000
30
0.0
11
434.1239
21
257.1431
31
0.0
0
LINE
8
CUT
10
434.1239
20
257.1431
30
0.0
11
433.8962
21
258.8730
31
0.0
0
LINE
8
CUT
10
433.8962
20
258.8730
30
0.0
11
433.5185
21
260.5764
31
0.0
0
LINE
8
CUT
10
433.5185
20
260.5764
30
0.0
11
432.9939
21
262.2404
31
0.0
0
LINE
8
CUT
10
432.9939
20
262.2404
30
0.0
11
432.3262
21
263.8524
31
0.0
0
LINE
8
CUT
10
432.3262
20
263.8524
30
0.0
11
431.5205
21
265.4000
31
0.0
0
LINE
8
CUT
10
431.5205
20
265.4000
30
0.0
11
430.5830
21
266.8715
31
0.0
0
LINE
8
CUT
10
430.5830
20
266.8715
30
0.0
11
429.5209
21
268.2558
31
0.0
0
LINE
8
CUT
10
429.5209
20
268.2558
30
0.0
11
428.3421
21
269.5421
31
0.0
0
LINE
8
CUT
10
428.3421
20
269.5421
30
0.0
11
427.0558
21
270.7209
31
0.0
0
LINE
8
CUT
10
427.0558
20
270.7209
30
0.0
11
425.6715
21
271.7830
31
0.0
0
LINE
8
CUT
10
425.6715
20
271.7830
30
0.0
11
424.2000
21
272.7205
31
0.0
0
LINE
8
CUT
10
424.2000
20
272.7205
30
0.0
11
422.6524
21
273.5262
31
0.0
0
LINE
8
CUT
10
422.6524
20
273.5262
30
0.0
11
421.0404
21
274.1939
31
0.0
0
LINE
8
CUT
10
421.0404
20
274.1939
30
0.0
11
419.3764
21
274.7185
31
0.0
0
LINE
8
CUT
10
419.3764
20
274.7185
30
0.0
11
417.6730
21
275.0962
31
0.0
0
LINE
8
CUT
10
417.6730
20
275.0962
30
0.0
11
415.9431
21
275.3239
31
0.0
0
LINE
8
CUT
10
415.9431
20
275.3239
30
0.0
11
414.2000
21
275.4000
31
0.0
0
LINE
8
CUT
10
414.2000
20
275.4000
30
0.0
11
29.0000
21
275.4000
31
0.0
0
LINE
8
CUT
10
29.0000
20
275.4000
30
0.0
11
27.2569
21
275.3239
31
0.0
0
LINE
8
CUT
10
27.2569
20
275.3239
30
0.0
11
25.5270
21
275.0962
31
0.0
0
LINE
8
CUT
10
25.5270
20
275.0962
30
0.0
11
23.8236
21
274.7185
31
0.0
0
LINE
8
CUT
10
23.8236
20
274.7185
30
0.0
11
22.1596
21
274.1939
31
0.0
0
LINE
8
CUT
10
22.1596
20
274.1939
30
0.0
11
20.5476
21
273.5262
31
0.0
0
LINE
8
CUT
10
20.5476
20
273.5262
30
0.0
11
19.0000
21
272.7205
31
0.0
0
LINE
8
CUT
10
19.0000
20
272.7205
30
0.0
11
17.5285
21
271.7830
31
0.0
0
LINE
8
CUT
10
17.5285
20
271.7830
30
0.0
11
16.1442
21
270.7209
31
0.0
0
LINE
8
CUT
10
16.1442
20
270.7209
30
0.0
11
14.8579
21
269.5421
31
0.0
0
LINE
8
CUT
10
14.8579
20
269.5421
30
0.0
11
13.6791
21
268.2558
31
0.0
0
LINE
8
CUT
10
13.6791
20
268.2558
30
0.0
11
12.6170
21
266.8715
31
0.0
0
LINE
8
CUT
10
12.6170
20
266.8715
30
0.0
11
11.6795
21
265.4000
31
0.0
0
LINE
8
CUT
10
11.6795
20
265.4000
30
0.0
11
10.8738
21
263.8524
31
0.0
0
LINE
8
CUT
10
10.8738
20
263.8524
30
0.0
11
10.2061
21
262.2404
31
0.0
0
LINE
8
CUT
10
10.2061
20
262.2404
30
0.0
11
9.6815
21
260.5764
31
0.0
0
LINE
8
CUT
10
9.6815
20
260.5764
30
0.0
11
9.3038
21
258.8730
31
0.0
0
LINE
8
CUT
10
9.3038
20
258.8730
30
0.0
11
9.0761
21
257.1431
31
0.0
0
LINE
8
CUT
10
9.0761
20
257.1431
30
0.0
11
9.0000
21
255.4000
31
0.0
0
LINE
8
CUT
10
9.0000
20
255.4000
30
0.0
11
9.0000
21
29.0000
31
0.0
0
LINE
8
CUT
10
9.0000
20
29.0000
30
0.0
11
9.0761
21
27.2569
31
0.0
0
LINE
8
CUT
10
9.0761
20
27.2569
30
0.0
11
9.3038
21
25.5270
31
0.0
0
LINE
8
CUT
10
9.3038
20
25.5270
30
0.0
11
9.6815
21
23.8236
31
0.0
0
LINE
8
CUT
10
9.6815
20
23.8236
30
0.0
11
10.2061
21
22.1596
31
0.0
0
LINE
8
CUT
10
10.2061
20
22.1596
30
0.0
11
10.8738
21
20.5476
31
0.0
0
LINE
8
CUT
10
10.8738
20
20.5476
30
0.0
11
11.6795
21
19.0000
31
0.0
0
LINE
8
CUT
10
11.6795
20
19.0000
30
0.0
11
12.6170
21
17.5285
31
0.0
0
LINE
8
CUT
10
12.6170
20
17.5285
30
0.0
11
13.6791
21
16.1442
31
0.0
0
LINE
8
CUT
10
13.6791
20
16.1442
30
0.0
11
14.8579
21
14.8579
31
0.0
0
LINE
8
CUT
10
14.8579
20
14.8579
30
0.0
11
16.1442
21
13.6791
31
0.0
0
LINE
8
CUT
10
16.1442
20
13.6791
30
0.0
11
17.5285
21
12.6170
31
0.0
0
LINE
8
CUT
10
17.5285
20
12.6170
30
0.0
11
19.0000
21
11.6795
31
0.0
0
LINE
8
CUT
10
19.0000
20
11.6795
30
0.0
11
20.5476
21
10.8738
31
0.0
0
LINE
8
CUT
10
20.5476
20
10.8738
30
0.0
11
22.1596
21
10.2061
31
0.0
0
LINE
8
CUT
10
22.1596
20
10.2061
30
0.0
11
23.8236
21
9.6815
31
0.0
0
LINE
8
CUT
10
23.8236
20
9.6815
30
0.0
11
25.5270
21
9.3038
31
0.0
0
LINE
8
CUT
10
25.5270
20
9.3038
30
0.0
11
27.2569
21
9.0761
31
0.0
0
LINE
8
CUT
10
27.2569
20
9.0761
30
0.0
11
29.0000
21
9.0000
31
0.0
0
LINE
8
CUT
10
29.0000
20
9.0000
30
0.0
11
414.2000
21
9.0000
31
0.0
0
LINE
8
CHANNEL
10
0.0000
20
0.0000
30
0.0
11
443.2000
21
0.0000
31
0.0
0
LINE
8
CHANNEL
10
443.2000
20
0.0000
30
0.0
11
443.2000
21
284.4000
31
0.0
0
LINE
8
CHANNEL
10
443.2000
20
284.4000
30
0.0
11
0.0000
21
284.4000
31
0.0
0
LINE
8
CHANNEL
10
0.0000
20
284.4000
30
0.0
11
0.0000
21
0.0000
31
0.0
0
ENDSEC
0
EOF
