0
SECTION
2
ENTITIES
0
LINE
8
CUT
10
0.0000
20
0.0000
30
0.0
11
443.2000
21
0.0000
31
0.0
0
LINE
8
CUT
10
443.2000
20
0.0000
30
0.0
11
443.2000
21
314.4000
31
0.0
0
LINE
8
CUT
10
443.2000
20
314.4000
30
0.0
11
0.0000
21
314.4000
31
0.0
0
LINE
8
CUT
10
0.0000
20
314.4000
30
0.0
11
0.0000
21
0.0000
31
0.0
0
CIRCLE
8
HOLES
10
426.2000
20
8.0000
30
0.0
40
2.5000
0
CIRCLE
8
HOLES
10
435.2000
20
82.6300
30
0.0
40
2.5000
0
CIRCLE
8
HOLES
10
435.2000
20
162.3900
30
0.0
40
2.5000
0
CIRCLE
8
HOLES
10
435.2000
20
242.1600
30
0.0
40
2.5000
0
CIRCLE
8
HOLES
10
415.8100
20
306.4000
30
0.0
40
2.5000
0
CIRCLE
8
HOLES
10
336.0500
20
306.4000
30
0.0
40
2.5000
0
CIRCLE
8
HOLES
10
256.2900
20
306.4000
30
0.0
40
2.5000
0
CIRCLE
8
HOLES
10
176.5300
20
306.4000
30
0.0
40
2.5000
0
CIRCLE
8
HOLES
10
96.7600
20
306.4000
30
0.0
40
2.5000
0
CIRCLE
8
HOLES
10
17.0000
20
306.4000
30
0.0
40
2.5000
0
CIRCLE
8
HOLES
10
8.0000
20
231.7700
30
0.0
40
2.5000
0
CIRCLE
8
HOLES
10
8.0000
20
152.0100
30
0.0
40
2.5000
0
CIRCLE
8
HOLES
10
8.0000
20
72.2400
30
0.0
40
2.5000
0
CIRCLE
8
HOLES
10
27.3900
20
8.0000
30
0.0
40
2.5000
0
CIRCLE
8
HOLES
10
107.1500
20
8.0000
30
0.0
40
2.5000
0
CIRCLE
8
HOLES
10
186.9100
20
8.0000
30
0.0
40
2.5000
0
CIRCLE
8
HOLES
10
266.6700
20
8.0000
30
0.0
40
2.5000
0
CIRCLE
8
HOLES
10
346.4400
20
8.0000
30
0.0
40
2.5000
0
ENDSEC
0
EOF
